<?xml version="1.0" encoding="UTF-8"?>
<svg id="Layer_1" xmlns="http://www.w3.org/2000/svg" xmlns:ev="http://www.w3.org/2001/xml-events" version="1.1" viewBox="0 0 795 543">
  <!-- Generator: Adobe Illustrator 29.0.1, SVG Export Plug-In . SVG Version: 2.1.0 Build 192)  -->
  <defs>
    <style>
      .st0 {
        stroke: #70acd0;
        stroke-width: 1.3px;
      }

      .st0, .st1, .st2, .st3, .st4, .st5, .st6, .st7, .st8, .st9, .st10, .st11, .st12, .st13, .st14, .st15, .st16, .st17 {
        fill: none;
        stroke-miterlimit: 18;
      }

      .st1 {
        stroke: #000;
        stroke-linecap: round;
      }

      .st1, .st3, .st4, .st5, .st7, .st11, .st12, .st16 {
        stroke-width: 1.8px;
      }

      .st2 {
        stroke: #eaf0f3;
      }

      .st2, .st8 {
        stroke-width: 2px;
      }

      .st18 {
        fill: #f7f6f6;
      }

      .st3 {
        stroke: #b2182b;
      }

      .st19 {
        fill: #aacce1;
      }

      .st20 {
        fill: #f4eae9;
      }

      .st21 {
        fill: #b1d0e3;
      }

      .st4 {
        stroke: #e5a59b;
      }

      .st5 {
        stroke: #aacce1;
      }

      .st22 {
        fill: #d5e4ed;
      }

      .st23 {
        fill: #de8779;
      }

      .st24 {
        fill: #b2d1e3;
      }

      .st25 {
        fill: #b4d2e4;
      }

      .st6 {
        stroke: #b2d1e3;
      }

      .st6, .st10 {
        stroke-width: 1.6px;
      }

      .st26 {
        fill: #e5a398;
      }

      .st7 {
        stroke: #e5a398;
      }

      .st27 {
        fill: #8fbdd9;
      }

      .st8 {
        stroke: #8fbdd9;
      }

      .st28 {
        fill: #e5a59b;
      }

      .st29 {
        fill: #f7f5f5;
      }

      .st9 {
        stroke: #f7f7f7;
        stroke-width: 2.6px;
      }

      .st10 {
        stroke: #b4d2e4;
      }

      .st30 {
        font-family: Helvetica, Helvetica;
        font-size: 35.9px;
        isolation: isolate;
      }

      .st31 {
        fill: #eaf0f3;
      }

      .st32 {
        fill: #f6f3f3;
      }

      .st33 {
        fill: #eabcb4;
      }

      .st34 {
        fill: #f6f3f2;
      }

      .st35 {
        fill: #2166ac;
      }

      .st36 {
        fill: #f7f7f7;
      }

      .st11, .st17 {
        stroke: #2166ac;
      }

      .st12 {
        stroke: #d5e4ed;
      }

      .st13 {
        stroke: #6dabcf;
      }

      .st13, .st17 {
        stroke-width: 1.9px;
      }

      .st37 {
        fill: #efd5d0;
      }

      .st38 {
        fill: #f6f5f4;
      }

      .st14 {
        stroke: #b1d0e3;
        stroke-width: 1.7px;
      }

      .st15 {
        stroke: #a1c7de;
        stroke-width: 1.6px;
      }

      .st39 {
        fill: #f4ebe9;
      }

      .st40 {
        fill: #b2182b;
      }

      .st41 {
        fill: #70acd0;
      }

      .st42 {
        fill: #f2e2e0;
      }

      .st43 {
        fill: #cde0eb;
      }

      .st16 {
        stroke: #de8779;
      }

      .st44 {
        fill: #a1c7de;
      }

      .st45 {
        fill: #6dabcf;
      }
    </style>
  </defs>
  <path class="st9" d="M336.3,164.3l-109.3-93.1"/>
  <path class="st36" d="M335.4,165.3c.5.5,1.4.4,1.8-.1s.4-1.4-.1-1.8l-1.7,2Z"/>
  <path class="st36" d="M222.6,76.3l-5.8-13.7,14.5,3.6-8.7,10.2Z"/>
  <path class="st3" d="M304.9,255.7l-85.7-179.5"/>
  <path class="st40" d="M304.1,256.1c.2.4.8.6,1.2.4s.6-.8.4-1.2l-1.6.8Z"/>
  <path class="st40" d="M213.5,78.9l.3-14.1,11.1,8.6-11.4,5.4Z"/>
  <path class="st3" d="M533.5,424.2l164.7-17.7"/>
  <path class="st40" d="M533.4,423.3c-.5,0-.9.5-.8,1s.5.9,1,.8l-.2-1.8Z"/>
  <path class="st40" d="M697.6,400.3l13.2,4.9-11.8,7.6-1.3-12.5Z"/>
  <path class="st3" d="M565.2,242l139.7,146.6"/>
  <path class="st40" d="M565.8,241.4c-.3-.4-.9-.4-1.3,0s-.4.9,0,1.3l1.3-1.2Z"/>
  <path class="st40" d="M709.4,384.3l4.1,13.4-13.2-4.8,9.1-8.7Z"/>
  <path class="st8" d="M505.8,424.9l-170.7-9.4"/>
  <path class="st27" d="M505.7,426c.6,0,1-.4,1.1-1s-.4-1-1-1.1v2Z"/>
  <path class="st27" d="M334.7,422l-12.4-7.1,13.1-5.7-.7,12.8Z"/>
  <path class="st3" d="M369.1,506.5l-46.2-70.3"/>
  <path class="st40" d="M368.4,507c.3.4.8.5,1.2.3s.5-.8.3-1.2l-1.5,1Z"/>
  <path class="st40" d="M317.7,439.7l-1.7-14,12.2,7.1-10.5,6.9Z"/>
  <path class="st9" d="M345,183.9l-32.3,203.3"/>
  <path class="st36" d="M346.3,184.1c.1-.7-.4-1.4-1.1-1.5s-1.4.4-1.5,1.1l2.5.4Z"/>
  <path class="st36" d="M319.3,388.3l-8.7,12.1-4.5-14.2,13.2,2.1Z"/>
  <path class="st2" d="M411,348.6l-80.1,51.2"/>
  <path class="st31" d="M411.6,349.4c.5-.3.6-.9.3-1.4s-.9-.6-1.4-.3l1.1,1.7Z"/>
  <path class="st31" d="M334.3,405.1l-14.2,1.5,7.3-12.3,6.9,10.8Z"/>
  <path class="st5" d="M315.8,309.6l-5.6,78.1"/>
  <path class="st19" d="M316.7,309.7c0-.5-.3-.9-.8-1s-.9.3-1,.8h1.8Z"/>
  <path class="st19" d="M316.6,388.2l-7.2,12.1-5.4-13,12.6.9Z"/>
  <path class="st3" d="M545,234.3l-188,40.1"/>
  <path class="st40" d="M545.2,235.1c.5-.1.8-.6.7-1.1s-.6-.8-1.1-.7l.4,1.8Z"/>
  <path class="st40" d="M358.3,280.5l-13.6-3.5,11-8.8,2.6,12.3Z"/>
  <path class="st3" d="M548.7,221.4l-85.9-132.1"/>
  <path class="st40" d="M548,221.9c.3.4.8.5,1.2.3s.5-.8.3-1.2l-1.5,1Z"/>
  <path class="st40" d="M457.5,92.7l-1.6-14,12.1,7.1-10.5,6.9Z"/>
  <path class="st3" d="M334.7,255.7l104.8-166.3"/>
  <path class="st40" d="M334,255.2c-.3.4-.1,1,.3,1.2s1,.1,1.2-.3l-1.5-1Z"/>
  <path class="st40" d="M434.2,86.1l12-7.3-1.4,14-10.6-6.7Z"/>
  <path class="st14" d="M532.8,413.3l110.8-104.8"/>
  <path class="st21" d="M532.2,412.6c-.3.3-.4.9,0,1.2s.9.4,1.2,0l-1.2-1.2Z"/>
  <path class="st21" d="M639.3,303.9l13.4-4-4.8,13.1-8.6-9.1Z"/>
  <path class="st12" d="M505.8,415.9l-150.8-106.8"/>
  <path class="st22" d="M505.2,416.6c.4.3,1,.2,1.3-.2s.2-1-.2-1.3l-1,1.5Z"/>
  <path class="st22" d="M351.3,314.2l-6.6-12.4,13.9,2.1-7.3,10.3Z"/>
  <path class="st0" d="M505.8,435.2l-101,69.3"/>
  <path class="st41" d="M506.1,435.8c.3-.2.4-.6.2-.9s-.6-.4-.9-.2l.7,1.1Z"/>
  <path class="st41" d="M408.2,509.5l-13.4,1.9,6.6-11.8,6.8,10Z"/>
  <path class="st14" d="M445.3,334.3l192.8-36.7"/>
  <path class="st21" d="M445.2,333.5c-.5,0-.8.5-.7,1s.5.8,1,.7l-.3-1.7Z"/>
  <path class="st21" d="M637,291.5l13.4,3.8-11.1,8.5-2.3-12.3Z"/>
  <path class="st7" d="M238,436.9c43.4,6.2,97.3,33.2,120.2,60.2"/>
  <path class="st26" d="M238.1,436c-.5,0-.9.3-1,.8s.3.9.8,1l.3-1.8Z"/>
  <path class="st26" d="M363,493.1l3.3,13.7-12.9-5.5,9.6-8.1Z"/>
  <path class="st17" d="M375.3,506.5l-47.5-184.6"/>
  <path class="st35" d="M374.4,506.8c.1.5.6.8,1.1.7s.8-.6.7-1.1l-1.8.5Z"/>
  <path class="st35" d="M321.7,323.5l3-13.8,9.3,10.7-12.2,3.1Z"/>
  <path class="st13" d="M338.8,309.6c34.2,43.8,54.4,126.4,45.1,184.5"/>
  <path class="st45" d="M339.5,309c-.3-.4-.9-.5-1.3-.2s-.5.9-.2,1.3l1.5-1.1Z"/>
  <path class="st45" d="M390.1,495.1l-8.2,11.5-4.2-13.5,12.5,2Z"/>
  <path class="st16" d="M363.8,513.5l-114.8-63.4"/>
  <path class="st23" d="M363.3,514.3c.4.2,1,0,1.2-.4s0-1-.4-1.2l-.9,1.6Z"/>
  <path class="st23" d="M246,455.5l-8-11.6,14.1.6-6.1,11Z"/>
  <path class="st4" d="M197.4,227.5l202.3,96.4"/>
  <path class="st28" d="M197.8,226.7c-.4-.2-1,0-1.2.4s0,1,.4,1.2l.8-1.6Z"/>
  <path class="st28" d="M402.4,318.3l8.6,11.1-14.1.3,5.4-11.4Z"/>
  <path class="st9" d="M352,183.9l61.8,124.6"/>
  <path class="st36" d="M353.1,183.3c-.3-.6-1.1-.9-1.7-.6s-.9,1.1-.6,1.7l2.3-1.1Z"/>
  <path class="st36" d="M419.7,305.5v14.9c0,0-12-9-12-9l12-5.9Z"/>
  <path class="st10" d="M411,345.6l-161.8,75.6"/>
  <path class="st25" d="M411.4,346.3c.4-.2.6-.7.4-1s-.7-.6-1-.4l.7,1.4Z"/>
  <path class="st25" d="M251.8,426.8l-13.8-.4,8.6-10.8,5.2,11.2Z"/>
  <path class="st6" d="M237.5,419.6c40-35.7,112.2-70.5,161.3-77.7"/>
  <path class="st24" d="M237,419c-.3.3-.4.8,0,1.1s.8.4,1.1,0l-1-1.2Z"/>
  <path class="st24" d="M397.9,335.8l13.1,4.3-11.3,7.9-1.8-12.2Z"/>
  <path class="st15" d="M344.7,296.1l55.2,27.4"/>
  <path class="st44" d="M345.1,295.4c-.4-.2-.9,0-1.1.4s0,.9.4,1.1l.7-1.5Z"/>
  <path class="st44" d="M402.7,318l8.4,11.1h-13.9s5.5-11.1,5.5-11.1Z"/>
  <path class="st3" d="M205.5,418.1l-115.2-122.6"/>
  <path class="st40" d="M204.8,418.7c.3.4.9.4,1.3,0s.4-.9,0-1.3l-1.3,1.2Z"/>
  <path class="st40" d="M85.7,299.8l-4-13.5,13.2,4.9-9.2,8.6Z"/>
  <path class="st3" d="M290.8,282.4l-193.7-2.3"/>
  <path class="st40" d="M290.8,283.3c.5,0,.9-.4.9-.9s-.4-.9-.9-.9v1.8Z"/>
  <path class="st40" d="M97,286.4l-12.5-6.4,12.7-6.1v12.6Z"/>
  <path class="st3" d="M231.8,417.3l62-97.1"/>
  <path class="st40" d="M231.1,416.8c-.3.4-.1,1,.3,1.2s1,.1,1.2-.3l-1.5-1Z"/>
  <path class="st40" d="M288.5,316.9l12.1-7.2-1.5,14-10.6-6.8Z"/>
  <path class="st3" d="M317,309.6c-1.2,43-31.5,92.6-67.7,110.6"/>
  <path class="st40" d="M317.9,309.7c0-.5-.4-.9-.9-.9s-.9.4-.9.9h1.8Z"/>
  <path class="st40" d="M252.1,425.9h-14.1s8.4-11.3,8.4-11.3l5.6,11.3Z"/>
  <path class="st3" d="M197.4,227.4l82,37.7"/>
  <path class="st40" d="M197.8,226.5c-.5-.2-1,0-1.2.4s0,1,.4,1.2l.8-1.6Z"/>
  <path class="st40" d="M282,259.3l8.8,11-14.1.5,5.3-11.4Z"/>
  <path class="st11" d="M181.4,233.1l-73.9,146.2"/>
  <path class="st35" d="M182.2,233.5c.2-.4,0-1-.4-1.2s-1,0-1.2.4l1.6.8Z"/>
  <path class="st35" d="M113.1,382.1l-11.3,8.4v-14.1c0,0,11.3,5.7,11.3,5.7Z"/>
  <path class="st3" d="M290.8,296.9l-173.9,91.6"/>
  <path class="st40" d="M291.2,297.7c.4-.2.6-.8.4-1.2s-.8-.6-1.2-.4l.8,1.6Z"/>
  <path class="st40" d="M119.8,394l-14.1.3,8.2-11.4,5.9,11.1Z"/>
  <path class="st1" d="M218,56.8c0,4.5-3.6,8.1-8.1,8.1s-8.1-3.6-8.1-8.1,3.6-8.1,8.1-8.1,8.1,3.6,8.1,8.1Z"/>
  <path class="st38" d="M218,56.8c0,4.5-3.6,8.1-8.1,8.1s-8.1-3.6-8.1-8.1,3.6-8.1,8.1-8.1,8.1,3.6,8.1,8.1Z"/>
  <text class="st30" transform="translate(150.1 40.2)"><tspan x="0" y="0">Tfap2c</tspan></text>
  <path class="st1" d="M727.8,404.3c0,4.5-3.6,8.1-8.1,8.1s-8.1-3.6-8.1-8.1,3.6-8.1,8.1-8.1,8.1,3.6,8.1,8.1Z"/>
  <path class="st37" d="M727.8,404.3c0,4.5-3.6,8.1-8.1,8.1s-8.1-3.6-8.1-8.1,3.6-8.1,8.1-8.1,8.1,3.6,8.1,8.1Z"/>
  <text class="st30" transform="translate(685.9 387.7)"><tspan x="0" y="0">Tdh</tspan></text>
  <path class="st1" d="M321.4,414.1c0,7.2-5.8,13-13,13s-13-5.8-13-13,5.8-13,13-13,13,5.8,13,13Z"/>
  <path class="st29" d="M321.4,414.1c0,7.2-5.8,13-13,13s-13-5.8-13-13,5.8-13,13-13,13,5.8,13,13Z"/>
  <text class="st30" transform="translate(260.4 392.6)"><tspan x="0" y="0">Mylpf</tspan></text>
  <path class="st1" d="M545.9,224.7v14.6c0,1.3,1.1,2.4,2.4,2.4h14.6c1.3,0,2.4-1.1,2.4-2.4v-14.6c0-1.3-1.1-2.4-2.4-2.4h-14.6c-1.3,0-2.4,1.1-2.4,2.4Z"/>
  <path class="st43" d="M545.9,224.7v14.6c0,1.3,1.1,2.4,2.4,2.4h14.6c1.3,0,2.4-1.1,2.4-2.4v-14.6c0-1.3-1.1-2.4-2.4-2.4h-14.6c-1.3,0-2.4,1.1-2.4,2.4Z"/>
  <text class="st30" transform="translate(463.1 213.8)"><tspan x="0" y="0">Nr6a1_TFA</tspan></text>
  <path class="st1" d="M459.1,71.2c0,4.5-3.6,8.1-8.1,8.1s-8.1-3.6-8.1-8.1,3.6-8.1,8.1-8.1,8.1,3.6,8.1,8.1Z"/>
  <path class="st42" d="M459.1,71.2c0,4.5-3.6,8.1-8.1,8.1s-8.1-3.6-8.1-8.1,3.6-8.1,8.1-8.1,8.1,3.6,8.1,8.1Z"/>
  <text class="st30" transform="translate(412.2 54.6)"><tspan x="0" y="0">Fgf4</tspan></text>
  <path class="st1" d="M506.7,416v19.5c0,1.8,1.5,3.2,3.2,3.2h19.5c1.8,0,3.2-1.5,3.2-3.2v-19.5c0-1.8-1.5-3.2-3.2-3.2h-19.5c-1.8,0-3.2,1.5-3.2,3.2Z"/>
  <path class="st36" d="M506.7,416v19.5c0,1.8,1.5,3.2,3.2,3.2h19.5c1.8,0,3.2-1.5,3.2-3.2v-19.5c0-1.8-1.5-3.2-3.2-3.2h-19.5c-1.8,0-3.2,1.5-3.2,3.2Z"/>
  <text class="st30" transform="translate(474.7 404.2)"><tspan x="0" y="0">Esrrb</tspan></text>
  <path class="st1" d="M667.3,293.7c0,4.5-3.6,8.1-8.1,8.1s-8.1-3.6-8.1-8.1,3.6-8.1,8.1-8.1,8.1,3.6,8.1,8.1Z"/>
  <path class="st18" d="M667.3,293.7c0,4.5-3.6,8.1-8.1,8.1s-8.1-3.6-8.1-8.1,3.6-8.1,8.1-8.1,8.1,3.6,8.1,8.1Z"/>
  <text class="st30" transform="translate(591 277.1)"><tspan x="0" y="0">Fam25c</tspan></text>
  <path class="st1" d="M364.7,511.1v21.9c0,2,1.6,3.7,3.7,3.7h21.9c2,0,3.7-1.6,3.7-3.7v-21.9c0-2-1.6-3.7-3.7-3.7h-21.9c-2,0-3.7,1.6-3.7,3.7Z"/>
  <path class="st34" d="M364.7,511.1v21.9c0,2,1.6,3.7,3.7,3.7h21.9c2,0,3.7-1.6,3.7-3.7v-21.9c0-2-1.6-3.7-3.7-3.7h-21.9c-2,0-3.7,1.6-3.7,3.7Z"/>
  <text class="st30" transform="translate(312.9 498.9)"><tspan x="0" y="0">Tfcp2l1</tspan></text>
  <path class="st1" d="M411.9,325.4v24.4c0,2.2,1.8,4.1,4.1,4.1h24.4c2.2,0,4.1-1.8,4.1-4.1v-24.4c0-2.2-1.8-4.1-4.1-4.1h-24.4c-2.2,0-4.1,1.8-4.1,4.1Z"/>
  <path class="st36" d="M411.9,325.4v24.4c0,2.2,1.8,4.1,4.1,4.1h24.4c2.2,0,4.1-1.8,4.1-4.1v-24.4c0-2.2-1.8-4.1-4.1-4.1h-24.4c-2.2,0-4.1,1.8-4.1,4.1Z"/>
  <text class="st30" transform="translate(370.8 312.9)"><tspan x="0" y="0">Dppa3</tspan></text>
  <path class="st1" d="M337,165.9v14.6c0,1.3,1.1,2.4,2.4,2.4h14.6c1.3,0,2.4-1.1,2.4-2.4v-14.6c0-1.3-1.1-2.4-2.4-2.4h-14.6c-1.3,0-2.4,1.1-2.4,2.4Z"/>
  <path class="st36" d="M337,165.9v14.6c0,1.3,1.1,2.4,2.4,2.4h14.6c1.3,0,2.4-1.1,2.4-2.4v-14.6c0-1.3-1.1-2.4-2.4-2.4h-14.6c-1.3,0-2.4,1.1-2.4,2.4Z"/>
  <text class="st30" transform="translate(279.4 155)"><tspan x="0" y="0">Dppa5a</tspan></text>
  <path class="st1" d="M83.6,279.8c0,4.5-3.6,8.1-8.1,8.1s-8.1-3.6-8.1-8.1,3.6-8.1,8.1-8.1,8.1,3.6,8.1,8.1Z"/>
  <path class="st39" d="M83.6,279.8c0,4.5-3.6,8.1-8.1,8.1s-8.1-3.6-8.1-8.1,3.6-8.1,8.1-8.1,8.1,3.6,8.1,8.1Z"/>
  <text class="st30" transform="translate(41.4 263.2)"><tspan x="0" y="0">Alpl</tspan></text>
  <path class="st1" d="M204.6,422.3v24.4c0,2.2,1.8,4.1,4.1,4.1h24.4c2.2,0,4.1-1.8,4.1-4.1v-24.4c0-2.2-1.8-4.1-4.1-4.1h-24.4c-2.2,0-4.1,1.8-4.1,4.1Z"/>
  <path class="st29" d="M204.6,422.3v24.4c0,2.2,1.8,4.1,4.1,4.1h24.4c2.2,0,4.1-1.8,4.1-4.1v-24.4c0-2.2-1.8-4.1-4.1-4.1h-24.4c-2.2,0-4.1,1.8-4.1,4.1Z"/>
  <text class="st30" transform="translate(187.9 409.7)"><tspan x="0" y="0">Elf3</tspan></text>
  <path class="st1" d="M177.1,215.2v14.6c0,1.3,1.1,2.4,2.4,2.4h14.6c1.3,0,2.4-1.1,2.4-2.4v-14.6c0-1.3-1.1-2.4-2.4-2.4h-14.6c-1.3,0-2.4,1.1-2.4,2.4Z"/>
  <path class="st20" d="M177.1,215.2v14.6c0,1.3,1.1,2.4,2.4,2.4h14.6c1.3,0,2.4-1.1,2.4-2.4v-14.6c0-1.3-1.1-2.4-2.4-2.4h-14.6c-1.3,0-2.4,1.1-2.4,2.4Z"/>
  <text class="st30" transform="translate(100.2 204.3)"><tspan x="0" y="0">Snai2_TFA</tspan></text>
  <path class="st1" d="M105.9,398.5c0,4.5-3.6,8.1-8.1,8.1s-8.1-3.6-8.1-8.1,3.6-8.1,8.1-8.1,8.1,3.6,8.1,8.1Z"/>
  <path class="st33" d="M105.9,398.5c0,4.5-3.6,8.1-8.1,8.1s-8.1-3.6-8.1-8.1,3.6-8.1,8.1-8.1,8.1,3.6,8.1,8.1Z"/>
  <text class="st30" transform="translate(46.2 382)"><tspan x="0" y="0">Alg13</tspan></text>
  <path class="st1" d="M291.7,263.1v39.1c0,3.6,2.9,6.5,6.5,6.5h39.1c3.6,0,6.5-2.9,6.5-6.5v-39.1c0-3.6-2.9-6.5-6.5-6.5h-39.1c-3.6,0-6.5,2.9-6.5,6.5Z"/>
  <path class="st32" d="M291.7,263.1v39.1c0,3.6,2.9,6.5,6.5,6.5h39.1c3.6,0,6.5-2.9,6.5-6.5v-39.1c0-3.6-2.9-6.5-6.5-6.5h-39.1c-3.6,0-6.5,2.9-6.5,6.5Z"/>
  <text class="st30" transform="translate(261.1 248.1)"><tspan x="0" y="0">Nanog</tspan></text>
</svg>