<?xml version="1.0" encoding="UTF-8"?>
<svg id="Layer_1" xmlns="http://www.w3.org/2000/svg" xmlns:ev="http://www.w3.org/2001/xml-events" version="1.1" viewBox="0 0 795 543">
  <!-- Generator: Adobe Illustrator 29.0.1, SVG Export Plug-In . SVG Version: 2.1.0 Build 192)  -->
  <defs>
    <style>
      .st0 {
        fill: #da7464;
      }

      .st1 {
        stroke: #000;
        stroke-linecap: round;
      }

      .st1, .st2, .st3, .st4, .st5, .st6, .st7, .st8, .st9, .st10, .st11, .st12, .st13, .st14, .st15, .st16, .st17 {
        fill: none;
        stroke-miterlimit: 18;
      }

      .st1, .st3, .st4, .st8, .st11, .st17 {
        stroke-width: 1.8px;
      }

      .st2 {
        stroke: #71add0;
      }

      .st2, .st7 {
        stroke-width: 1.3px;
      }

      .st3 {
        stroke: #5da2cb;
      }

      .st18 {
        fill: #f7f6f6;
      }

      .st4 {
        stroke: #b2182b;
      }

      .st5 {
        stroke: #e0eaf0;
      }

      .st5, .st6 {
        stroke-width: 2.2px;
      }

      .st19 {
        fill: #e9b7ae;
      }

      .st20 {
        fill: #f3e3e1;
      }

      .st21 {
        fill: #f6f1f1;
      }

      .st22 {
        fill: #f6f4f3;
      }

      .st23 {
        fill: #eef2f4;
      }

      .st24 {
        fill: #c4dae8;
      }

      .st6 {
        stroke: #c0d9e7;
      }

      .st25 {
        fill: #f4ebea;
      }

      .st26 {
        fill: #e6aba1;
      }

      .st27 {
        fill: #5da2cb;
      }

      .st7 {
        stroke: #6aa9ce;
      }

      .st8 {
        stroke: #da7464;
      }

      .st9 {
        stroke-width: 2.6px;
      }

      .st9, .st14 {
        stroke: #f7f7f7;
      }

      .st28 {
        font-family: Helvetica, Helvetica;
        font-size: 35.9px;
        isolation: isolate;
      }

      .st29 {
        fill: #e08e80;
      }

      .st10 {
        stroke-width: .7px;
      }

      .st10, .st11, .st16 {
        stroke: #2166ac;
      }

      .st30 {
        fill: #2166ac;
      }

      .st31 {
        fill: #f7f7f7;
      }

      .st32 {
        fill: #eecec8;
      }

      .st33 {
        fill: #f5eceb;
      }

      .st12 {
        stroke: #c4dae8;
        stroke-width: 1.9px;
      }

      .st34 {
        fill: #6aa9ce;
      }

      .st35 {
        fill: #b2182b;
      }

      .st13 {
        stroke: #eef2f4;
        stroke-width: 2.1px;
      }

      .st36 {
        fill: #f2dfdc;
      }

      .st14 {
        stroke-width: 2.4px;
      }

      .st15 {
        stroke: #cadeea;
        stroke-width: 2px;
      }

      .st37 {
        fill: #dde9f0;
      }

      .st38 {
        fill: #cadeea;
      }

      .st39 {
        fill: #71add0;
      }

      .st40 {
        fill: #f1dcd9;
      }

      .st41 {
        fill: #f6f4f4;
      }

      .st16 {
        stroke-width: 1.9px;
      }

      .st42 {
        fill: #f2e1de;
      }

      .st43 {
        fill: #c0d9e7;
      }

      .st17 {
        stroke: #e6aba1;
      }

      .st44 {
        fill: #e0eaf0;
      }

      .st45 {
        fill: #d8e6ee;
      }
    </style>
  </defs>
  <path class="st12" d="M505.8,424.9l-170.8-9.4"/>
  <path class="st24" d="M505.7,425.9c.5,0,1-.4,1-.9s-.4-1-.9-1v1.9Z"/>
  <path class="st24" d="M334.6,421.9l-12.3-7,13-5.6-.7,12.7Z"/>
  <path class="st4" d="M369.1,506.5l-46.2-70.3"/>
  <path class="st35" d="M368.4,507c.3.4.8.5,1.2.3s.5-.8.3-1.2l-1.5,1Z"/>
  <path class="st35" d="M317.7,439.7l-1.7-14,12.2,7.1-10.5,6.9Z"/>
  <path class="st9" d="M345,183.9l-32.3,203.3"/>
  <path class="st31" d="M346.3,184.1c.1-.7-.4-1.4-1.1-1.5s-1.4.4-1.5,1.1l2.5.4Z"/>
  <path class="st31" d="M319.3,388.3l-8.7,12.1-4.5-14.2,13.2,2.1Z"/>
  <path class="st4" d="M315.8,309.6l-5.6,78.1"/>
  <path class="st35" d="M316.7,309.7c0-.5-.3-.9-.8-1s-.9.3-1,.8h1.8Z"/>
  <path class="st35" d="M316.6,388.2l-7.2,12.1-5.4-13,12.6.9Z"/>
  <path class="st12" d="M411,348.6l-80.2,51.2"/>
  <path class="st24" d="M411.5,349.4c.4-.3.6-.9.3-1.3s-.9-.6-1.3-.3l1,1.6Z"/>
  <path class="st24" d="M334.2,405.1l-14.1,1.5,7.3-12.2,6.8,10.7Z"/>
  <path class="st4" d="M548.7,221.4l-85.9-132.1"/>
  <path class="st35" d="M548,221.9c.3.4.8.5,1.2.3s.5-.8.3-1.2l-1.5,1Z"/>
  <path class="st35" d="M457.5,92.7l-1.6-14,12.1,7.1-10.5,6.9Z"/>
  <path class="st4" d="M565.2,242l139.7,146.6"/>
  <path class="st35" d="M565.8,241.4c-.3-.4-.9-.4-1.3,0s-.4.9,0,1.3l1.3-1.2Z"/>
  <path class="st35" d="M709.4,384.3l4.1,13.4-13.2-4.8,9.1-8.7Z"/>
  <path class="st11" d="M545,234.3l-188,40.1"/>
  <path class="st30" d="M545.2,235.1c.5-.1.8-.6.7-1.1s-.6-.8-1.1-.7l.4,1.8Z"/>
  <path class="st30" d="M358.3,280.5l-13.6-3.5,11-8.8,2.6,12.3Z"/>
  <path class="st8" d="M334.7,255.7l104.8-166.3"/>
  <path class="st0" d="M334,255.2c-.3.4-.1,1,.3,1.2s1,.1,1.2-.3l-1.5-1Z"/>
  <path class="st0" d="M434.2,86.1l12-7.3-1.4,14-10.6-6.7Z"/>
  <path class="st13" d="M533.5,424.2l164.4-17.6"/>
  <path class="st23" d="M533.4,423.2c-.6,0-1,.6-1,1.2s.6,1,1.2,1l-.2-2.1Z"/>
  <path class="st23" d="M697.2,400.2l13.5,5-12.2,7.8-1.4-12.9Z"/>
  <path class="st16" d="M505.8,435.2l-100.4,68.9"/>
  <path class="st30" d="M506.3,436c.4-.3.6-.9.2-1.3s-.9-.6-1.3-.2l1.1,1.6Z"/>
  <path class="st30" d="M408.9,509.4l-14.1,2,6.9-12.4,7.2,10.5Z"/>
  <path class="st6" d="M505.8,415.9l-150.4-106.6"/>
  <path class="st43" d="M505.1,416.8c.5.4,1.2.2,1.5-.3s.2-1.2-.3-1.5l-1.3,1.8Z"/>
  <path class="st43" d="M351.6,314.6l-6.8-12.8,14.4,2.2-7.5,10.6Z"/>
  <path class="st14" d="M532.8,413.3l110.3-104.4"/>
  <path class="st31" d="M532,412.4c-.5.5-.5,1.2,0,1.7s1.2.5,1.7,0l-1.6-1.7Z"/>
  <path class="st31" d="M638.6,304.1l14.1-4.3-5,13.8-9.1-9.6Z"/>
  <path class="st4" d="M445.3,334.3l192.7-36.6"/>
  <path class="st35" d="M445.2,333.4c-.5,0-.8.6-.7,1.1s.6.8,1.1.7l-.3-1.8Z"/>
  <path class="st35" d="M636.9,291.5l13.5,3.8-11.2,8.5-2.3-12.4Z"/>
  <path class="st9" d="M238,436.9c43.4,6.2,97,32.9,119.7,59.7"/>
  <path class="st31" d="M238.2,435.7c-.7-.1-1.4.4-1.5,1.1s.4,1.4,1.1,1.5l.4-2.5Z"/>
  <path class="st31" d="M362.8,492.3l3.5,14.5-13.7-5.9,10.2-8.6Z"/>
  <path class="st7" d="M375.3,506.5l-47.6-185.2"/>
  <path class="st34" d="M374.7,506.7c0,.3.4.6.8.5s.6-.4.5-.8l-1.3.3Z"/>
  <path class="st34" d="M321.8,322.9l2.8-13.2,8.9,10.2-11.7,3Z"/>
  <path class="st9" d="M363.8,513.5l-114.1-63.1"/>
  <path class="st31" d="M363.2,514.6c.6.3,1.4.1,1.7-.5s.1-1.4-.5-1.7l-1.2,2.3Z"/>
  <path class="st31" d="M246.5,456.3l-8.5-12.3,14.9.6-6.5,11.7Z"/>
  <path class="st2" d="M338.8,309.6c34.2,43.8,54.4,126.7,45,185"/>
  <path class="st39" d="M339.3,309.2c-.2-.3-.6-.3-.9-.1s-.3.6-.1.9l1-.8Z"/>
  <path class="st39" d="M389.7,495.5l-7.9,11-4-12.9,11.9,1.9Z"/>
  <path class="st5" d="M344.7,296.1l54.7,27.2"/>
  <path class="st44" d="M345.2,295.1c-.5-.3-1.2,0-1.5.5s0,1.2.5,1.5l1-2Z"/>
  <path class="st44" d="M402.3,317.5l8.7,11.6h-14.5s5.8-11.6,5.8-11.6Z"/>
  <path class="st9" d="M237.5,419.6c40-35.7,111.8-70.4,160.3-77.6"/>
  <path class="st31" d="M236.6,418.6c-.5.5-.6,1.3-.1,1.8s1.3.6,1.8.1l-1.7-1.9Z"/>
  <path class="st31" d="M396.8,335.4l14.2,4.7-12.2,8.5-1.9-13.2Z"/>
  <path class="st9" d="M352,183.9l61.8,124.6"/>
  <path class="st31" d="M353.1,183.3c-.3-.6-1.1-.9-1.7-.6s-.9,1.1-.6,1.7l2.3-1.1Z"/>
  <path class="st31" d="M419.7,305.5v14.9c0,0-12-9-12-9l12-5.9Z"/>
  <path class="st9" d="M411,345.6l-160.9,75.2"/>
  <path class="st31" d="M411.6,346.8c.6-.3.9-1.1.6-1.7s-1.1-.9-1.7-.6l1.1,2.3Z"/>
  <path class="st31" d="M252.9,426.8l-14.9-.4,9.3-11.7,5.7,12.1Z"/>
  <path class="st17" d="M197.4,227.5l202.3,96.4"/>
  <path class="st26" d="M197.8,226.7c-.4-.2-1,0-1.2.4s0,1,.4,1.2l.8-1.6Z"/>
  <path class="st26" d="M402.4,318.3l8.6,11.1-14.1.3,5.4-11.4Z"/>
  <path class="st9" d="M336.3,164.3l-109.3-93.1"/>
  <path class="st31" d="M335.4,165.3c.5.5,1.4.4,1.8-.1s.4-1.4-.1-1.8l-1.7,2Z"/>
  <path class="st31" d="M222.6,76.3l-5.8-13.7,14.5,3.6-8.7,10.2Z"/>
  <path class="st9" d="M205.5,418.1l-114.6-122"/>
  <path class="st31" d="M204.6,419c.5.5,1.3.5,1.8,0s.5-1.3,0-1.8l-1.9,1.8Z"/>
  <path class="st31" d="M86,300.7l-4.3-14.3,14,5.2-9.7,9.1Z"/>
  <path class="st10" d="M290.8,282.4l-194.8-2.3"/>
  <path class="st30" d="M290.8,282.7c.2,0,.4-.2.4-.3s-.2-.4-.3-.4v.7Z"/>
  <path class="st30" d="M96,285.8l-11.4-5.9,11.6-5.6v11.5Z"/>
  <path class="st9" d="M231.8,417.3l61.5-96.4"/>
  <path class="st31" d="M230.7,416.6c-.4.6-.2,1.4.4,1.8s1.4.2,1.8-.4l-2.2-1.4Z"/>
  <path class="st31" d="M287.7,317.3l12.8-7.7-1.6,14.9-11.3-7.2Z"/>
  <path class="st9" d="M317,309.6c-1.2,43-31.2,92.4-67,110.3"/>
  <path class="st31" d="M318.3,309.7c0-.7-.5-1.3-1.2-1.3s-1.3.5-1.3,1.2h2.6Z"/>
  <path class="st31" d="M252.9,425.9h-14.9s9-11.9,9-11.9l6,11.9Z"/>
  <path class="st11" d="M181.4,233.1l-73.9,146.2"/>
  <path class="st30" d="M182.2,233.5c.2-.4,0-1-.4-1.2s-1,0-1.2.4l1.6.8Z"/>
  <path class="st30" d="M113.1,382.1l-11.3,8.4v-14.1c0,0,11.3,5.7,11.3,5.7Z"/>
  <path class="st3" d="M197.4,227.4l82,37.7"/>
  <path class="st27" d="M197.8,226.5c-.5-.2-1,0-1.2.4s0,1,.4,1.2l.8-1.6Z"/>
  <path class="st27" d="M282,259.3l8.8,11-14.1.5,5.3-11.4Z"/>
  <path class="st11" d="M290.8,296.9l-173.9,91.6"/>
  <path class="st30" d="M291.2,297.7c.4-.2.6-.8.4-1.2s-.8-.6-1.2-.4l.8,1.6Z"/>
  <path class="st30" d="M119.8,394l-14.1.3,8.2-11.4,5.9,11.1Z"/>
  <path class="st15" d="M304.9,255.7l-85.6-179.4"/>
  <path class="st38" d="M304,256.1c.2.5.8.7,1.3.5s.7-.8.5-1.3l-1.8.8Z"/>
  <path class="st38" d="M213.5,79.1l.3-14.2,11.2,8.8-11.5,5.5Z"/>
  <path class="st1" d="M321.4,414.1c0,7.2-5.8,13-13,13s-13-5.8-13-13,5.8-13,13-13,13,5.8,13,13Z"/>
  <path class="st21" d="M321.4,414.1c0,7.2-5.8,13-13,13s-13-5.8-13-13,5.8-13,13-13,13,5.8,13,13Z"/>
  <text class="st28" transform="translate(260.4 392.6)"><tspan x="0" y="0">Mylpf</tspan></text>
  <path class="st1" d="M545.9,224.7v14.6c0,1.3,1.1,2.4,2.4,2.4h14.6c1.3,0,2.4-1.1,2.4-2.4v-14.6c0-1.3-1.1-2.4-2.4-2.4h-14.6c-1.3,0-2.4,1.1-2.4,2.4Z"/>
  <path class="st37" d="M545.9,224.7v14.6c0,1.3,1.1,2.4,2.4,2.4h14.6c1.3,0,2.4-1.1,2.4-2.4v-14.6c0-1.3-1.1-2.4-2.4-2.4h-14.6c-1.3,0-2.4,1.1-2.4,2.4Z"/>
  <text class="st28" transform="translate(463.1 213.8)"><tspan x="0" y="0">Nr6a1_TFA</tspan></text>
  <path class="st1" d="M459.1,71.2c0,4.5-3.6,8.1-8.1,8.1s-8.1-3.6-8.1-8.1,3.6-8.1,8.1-8.1,8.1,3.6,8.1,8.1Z"/>
  <path class="st32" d="M459.1,71.2c0,4.5-3.6,8.1-8.1,8.1s-8.1-3.6-8.1-8.1,3.6-8.1,8.1-8.1,8.1,3.6,8.1,8.1Z"/>
  <text class="st28" transform="translate(412.2 54.6)"><tspan x="0" y="0">Fgf4</tspan></text>
  <path class="st1" d="M506.7,416v19.5c0,1.8,1.5,3.2,3.2,3.2h19.5c1.8,0,3.2-1.5,3.2-3.2v-19.5c0-1.8-1.5-3.2-3.2-3.2h-19.5c-1.8,0-3.2,1.5-3.2,3.2Z"/>
  <path class="st41" d="M506.7,416v19.5c0,1.8,1.5,3.2,3.2,3.2h19.5c1.8,0,3.2-1.5,3.2-3.2v-19.5c0-1.8-1.5-3.2-3.2-3.2h-19.5c-1.8,0-3.2,1.5-3.2,3.2Z"/>
  <text class="st28" transform="translate(474.7 404.2)"><tspan x="0" y="0">Esrrb</tspan></text>
  <path class="st1" d="M667.3,293.7c0,4.5-3.6,8.1-8.1,8.1s-8.1-3.6-8.1-8.1,3.6-8.1,8.1-8.1,8.1,3.6,8.1,8.1Z"/>
  <path class="st33" d="M667.3,293.7c0,4.5-3.6,8.1-8.1,8.1s-8.1-3.6-8.1-8.1,3.6-8.1,8.1-8.1,8.1,3.6,8.1,8.1Z"/>
  <text class="st28" transform="translate(591 277.1)"><tspan x="0" y="0">Fam25c</tspan></text>
  <path class="st1" d="M364.7,511.1v21.9c0,2,1.6,3.7,3.7,3.7h21.9c2,0,3.7-1.6,3.7-3.7v-21.9c0-2-1.6-3.7-3.7-3.7h-21.9c-2,0-3.7,1.6-3.7,3.7Z"/>
  <path class="st42" d="M364.7,511.1v21.9c0,2,1.6,3.7,3.7,3.7h21.9c2,0,3.7-1.6,3.7-3.7v-21.9c0-2-1.6-3.7-3.7-3.7h-21.9c-2,0-3.7,1.6-3.7,3.7Z"/>
  <text class="st28" transform="translate(312.9 498.9)"><tspan x="0" y="0">Tfcp2l1</tspan></text>
  <path class="st1" d="M411.9,325.4v24.4c0,2.2,1.8,4.1,4.1,4.1h24.4c2.2,0,4.1-1.8,4.1-4.1v-24.4c0-2.2-1.8-4.1-4.1-4.1h-24.4c-2.2,0-4.1,1.8-4.1,4.1Z"/>
  <path class="st22" d="M411.9,325.4v24.4c0,2.2,1.8,4.1,4.1,4.1h24.4c2.2,0,4.1-1.8,4.1-4.1v-24.4c0-2.2-1.8-4.1-4.1-4.1h-24.4c-2.2,0-4.1,1.8-4.1,4.1Z"/>
  <text class="st28" transform="translate(370.8 312.9)"><tspan x="0" y="0">Dppa3</tspan></text>
  <path class="st1" d="M337,165.9v14.6c0,1.3,1.1,2.4,2.4,2.4h14.6c1.3,0,2.4-1.1,2.4-2.4v-14.6c0-1.3-1.1-2.4-2.4-2.4h-14.6c-1.3,0-2.4,1.1-2.4,2.4Z"/>
  <path class="st18" d="M337,165.9v14.6c0,1.3,1.1,2.4,2.4,2.4h14.6c1.3,0,2.4-1.1,2.4-2.4v-14.6c0-1.3-1.1-2.4-2.4-2.4h-14.6c-1.3,0-2.4,1.1-2.4,2.4Z"/>
  <text class="st28" transform="translate(279.4 155)"><tspan x="0" y="0">Dppa5a</tspan></text>
  <path class="st1" d="M83.6,279.8c0,4.5-3.6,8.1-8.1,8.1s-8.1-3.6-8.1-8.1,3.6-8.1,8.1-8.1,8.1,3.6,8.1,8.1Z"/>
  <path class="st36" d="M83.6,279.8c0,4.5-3.6,8.1-8.1,8.1s-8.1-3.6-8.1-8.1,3.6-8.1,8.1-8.1,8.1,3.6,8.1,8.1Z"/>
  <text class="st28" transform="translate(41.4 263.2)"><tspan x="0" y="0">Alpl</tspan></text>
  <path class="st1" d="M204.6,422.3v24.4c0,2.2,1.8,4.1,4.1,4.1h24.4c2.2,0,4.1-1.8,4.1-4.1v-24.4c0-2.2-1.8-4.1-4.1-4.1h-24.4c-2.2,0-4.1,1.8-4.1,4.1Z"/>
  <path class="st25" d="M204.6,422.3v24.4c0,2.2,1.8,4.1,4.1,4.1h24.4c2.2,0,4.1-1.8,4.1-4.1v-24.4c0-2.2-1.8-4.1-4.1-4.1h-24.4c-2.2,0-4.1,1.8-4.1,4.1Z"/>
  <text class="st28" transform="translate(187.9 409.7)"><tspan x="0" y="0">Elf3</tspan></text>
  <path class="st1" d="M177.1,215.2v14.6c0,1.3,1.1,2.4,2.4,2.4h14.6c1.3,0,2.4-1.1,2.4-2.4v-14.6c0-1.3-1.1-2.4-2.4-2.4h-14.6c-1.3,0-2.4,1.1-2.4,2.4Z"/>
  <path class="st45" d="M177.1,215.2v14.6c0,1.3,1.1,2.4,2.4,2.4h14.6c1.3,0,2.4-1.1,2.4-2.4v-14.6c0-1.3-1.1-2.4-2.4-2.4h-14.6c-1.3,0-2.4,1.1-2.4,2.4Z"/>
  <text class="st28" transform="translate(100.2 204.3)"><tspan x="0" y="0">Snai2_TFA</tspan></text>
  <path class="st1" d="M105.9,398.5c0,4.5-3.6,8.1-8.1,8.1s-8.1-3.6-8.1-8.1,3.6-8.1,8.1-8.1,8.1,3.6,8.1,8.1Z"/>
  <path class="st29" d="M105.9,398.5c0,4.5-3.6,8.1-8.1,8.1s-8.1-3.6-8.1-8.1,3.6-8.1,8.1-8.1,8.1,3.6,8.1,8.1Z"/>
  <text class="st28" transform="translate(46.2 382)"><tspan x="0" y="0">Alg13</tspan></text>
  <path class="st1" d="M291.7,263.1v39.1c0,3.6,2.9,6.5,6.5,6.5h39.1c3.6,0,6.5-2.9,6.5-6.5v-39.1c0-3.6-2.9-6.5-6.5-6.5h-39.1c-3.6,0-6.5,2.9-6.5,6.5Z"/>
  <path class="st20" d="M291.7,263.1v39.1c0,3.6,2.9,6.5,6.5,6.5h39.1c3.6,0,6.5-2.9,6.5-6.5v-39.1c0-3.6-2.9-6.5-6.5-6.5h-39.1c-3.6,0-6.5,2.9-6.5,6.5Z"/>
  <text class="st28" transform="translate(261.1 248.1)"><tspan x="0" y="0">Nanog</tspan></text>
  <path class="st1" d="M218,56.8c0,4.5-3.6,8.1-8.1,8.1s-8.1-3.6-8.1-8.1,3.6-8.1,8.1-8.1,8.1,3.6,8.1,8.1Z"/>
  <path class="st40" d="M218,56.8c0,4.5-3.6,8.1-8.1,8.1s-8.1-3.6-8.1-8.1,3.6-8.1,8.1-8.1,8.1,3.6,8.1,8.1Z"/>
  <text class="st28" transform="translate(150.1 40.2)"><tspan x="0" y="0">Tfap2c</tspan></text>
  <path class="st1" d="M727.8,404.3c0,4.5-3.6,8.1-8.1,8.1s-8.1-3.6-8.1-8.1,3.6-8.1,8.1-8.1,8.1,3.6,8.1,8.1Z"/>
  <path class="st19" d="M727.8,404.3c0,4.5-3.6,8.1-8.1,8.1s-8.1-3.6-8.1-8.1,3.6-8.1,8.1-8.1,8.1,3.6,8.1,8.1Z"/>
  <text class="st28" transform="translate(685.9 387.7)"><tspan x="0" y="0">Tdh</tspan></text>
</svg>