<?xml version="1.0" encoding="UTF-8"?>
<svg id="Layer_1" xmlns="http://www.w3.org/2000/svg" xmlns:ev="http://www.w3.org/2001/xml-events" version="1.1" viewBox="0 0 795 543">
  <!-- Generator: Adobe Illustrator 29.0.1, SVG Export Plug-In . SVG Version: 2.1.0 Build 192)  -->
  <defs>
    <style>
      .st0 {
        stroke: #7db3d4;
        stroke-width: 1.5px;
      }

      .st0, .st1, .st2, .st3, .st4, .st5, .st6, .st7, .st8, .st9, .st10, .st11, .st12, .st13, .st14, .st15, .st16, .st17, .st18, .st19 {
        fill: none;
        stroke-miterlimit: 18;
      }

      .st1 {
        stroke: #000;
        stroke-linecap: round;
      }

      .st1, .st2, .st4, .st5, .st14, .st16 {
        stroke-width: 1.8px;
      }

      .st2 {
        stroke: #e39c91;
      }

      .st20 {
        fill: #e1ebf1;
      }

      .st21 {
        fill: #f2e0dd;
      }

      .st3 {
        stroke: #dbe8ef;
      }

      .st3, .st15 {
        stroke-width: 2.5px;
      }

      .st4 {
        stroke: #b2182b;
      }

      .st5 {
        stroke: #e08f82;
      }

      .st22 {
        fill: #b0d0e3;
      }

      .st6 {
        stroke: #a7cbe0;
      }

      .st6, .st8, .st9, .st17 {
        stroke-width: 2.2px;
      }

      .st23 {
        fill: #d9e6ee;
      }

      .st7 {
        stroke: #b3d1e3;
        stroke-width: 2.4px;
      }

      .st24 {
        fill: #f1ddda;
      }

      .st8 {
        stroke: #dae7ef;
      }

      .st25 {
        fill: #b4d2e4;
      }

      .st26 {
        fill: #a7cae0;
      }

      .st9, .st16 {
        stroke: #a7cae0;
      }

      .st10 {
        stroke: #e1ebf1;
        stroke-width: 2.3px;
      }

      .st27 {
        fill: #8bbbd8;
      }

      .st28 {
        fill: #edc9c3;
      }

      .st29 {
        fill: #f4ebea;
      }

      .st30 {
        fill: #e08f82;
      }

      .st31 {
        fill: #f1f4f5;
      }

      .st32 {
        fill: #e39a8f;
      }

      .st11 {
        stroke: #f7f7f7;
        stroke-width: 2.6px;
      }

      .st33 {
        fill: #e39c91;
      }

      .st12 {
        stroke: #b4d2e4;
        stroke-width: 1.7px;
      }

      .st34 {
        fill: #f3e4e1;
      }

      .st35 {
        font-family: Helvetica, Helvetica;
        font-size: 35.9px;
        isolation: isolate;
      }

      .st36 {
        fill: #f6f3f3;
      }

      .st37 {
        fill: #a7cbe0;
      }

      .st38 {
        fill: #2166ac;
      }

      .st39 {
        fill: #edf2f4;
      }

      .st40 {
        fill: #f7f7f7;
      }

      .st13 {
        stroke-width: 1px;
      }

      .st13, .st14 {
        stroke: #2166ac;
      }

      .st15 {
        stroke: #edf2f4;
      }

      .st41 {
        fill: #f0d8d4;
      }

      .st42 {
        fill: #edcac4;
      }

      .st17 {
        stroke: #d9e6ee;
      }

      .st43 {
        fill: #f4ebe9;
      }

      .st44 {
        fill: #b2182b;
      }

      .st45 {
        fill: #f2e2e0;
      }

      .st46 {
        fill: #dae7ef;
      }

      .st47 {
        fill: #7db3d4;
      }

      .st48 {
        fill: #f5ecea;
      }

      .st49 {
        fill: #b3d1e3;
      }

      .st50 {
        fill: #efd1cc;
      }

      .st18 {
        stroke: #8bbbd8;
      }

      .st18, .st19 {
        stroke-width: 1.9px;
      }

      .st19 {
        stroke: #b0d0e3;
      }

      .st51 {
        fill: #dbe8ef;
      }
    </style>
  </defs>
  <path class="st12" d="M369.1,506.5l-46.2-70.3"/>
  <path class="st25" d="M368.4,507c.3.4.8.5,1.2.2s.5-.8.2-1.2l-1.4,1Z"/>
  <path class="st25" d="M317.7,439.6l-1.6-13.9,12.1,7-10.5,6.9Z"/>
  <path class="st11" d="M505.8,424.9l-170.2-9.3"/>
  <path class="st40" d="M505.7,426.2c.7,0,1.3-.5,1.4-1.2s-.5-1.3-1.2-1.4v2.6Z"/>
  <path class="st40" d="M335.2,422.3l-13-7.4,13.7-5.9-.7,13.3Z"/>
  <path class="st10" d="M315.8,309.6l-5.5,77.6"/>
  <path class="st20" d="M317,309.7c0-.6-.4-1.2-1.1-1.2s-1.2.4-1.2,1.1l2.3.2Z"/>
  <path class="st20" d="M316.8,387.7l-7.5,12.6-5.6-13.5,13.1.9Z"/>
  <path class="st11" d="M345,183.9l-32.3,203.3"/>
  <path class="st40" d="M346.3,184.1c.1-.7-.4-1.4-1.1-1.5s-1.4.4-1.5,1.1l2.5.4Z"/>
  <path class="st40" d="M319.3,388.3l-8.7,12.1-4.5-14.2,13.2,2.1Z"/>
  <path class="st11" d="M411,348.6l-79.7,50.9"/>
  <path class="st40" d="M411.7,349.6c.6-.4.8-1.2.4-1.8s-1.2-.8-1.8-.4l1.4,2.2Z"/>
  <path class="st40" d="M335,405.1l-14.8,1.6,7.7-12.8,7.2,11.3Z"/>
  <path class="st4" d="M565.2,242l139.7,146.6"/>
  <path class="st44" d="M565.8,241.4c-.3-.4-.9-.4-1.3,0s-.4.9,0,1.3l1.3-1.2Z"/>
  <path class="st44" d="M709.4,384.3l4.1,13.4-13.2-4.8,9.1-8.7Z"/>
  <path class="st2" d="M548.7,221.4l-85.9-132.1"/>
  <path class="st33" d="M548,221.9c.3.4.8.5,1.2.3s.5-.8.3-1.2l-1.5,1Z"/>
  <path class="st33" d="M457.5,92.7l-1.6-14,12.1,7.1-10.5,6.9Z"/>
  <path class="st5" d="M545,234.3l-188,40.1"/>
  <path class="st30" d="M545.2,235.1c.5-.1.8-.6.7-1.1s-.6-.8-1.1-.7l.4,1.8Z"/>
  <path class="st30" d="M358.3,280.5l-13.6-3.5,11-8.8,2.6,12.3Z"/>
  <path class="st0" d="M334.7,255.7l104.9-166.5"/>
  <path class="st47" d="M334.1,255.3c-.2.4-.1.8.2,1.1s.8.1,1.1-.2l-1.3-.8Z"/>
  <path class="st47" d="M434.5,85.9l11.8-7.1-1.4,13.7-10.4-6.6Z"/>
  <path class="st11" d="M505.8,435.2l-99.9,68.6"/>
  <path class="st40" d="M506.5,436.3c.6-.4.7-1.2.3-1.8s-1.2-.7-1.8-.3l1.5,2.1Z"/>
  <path class="st40" d="M409.6,509.3l-14.8,2.1,7.2-13.1,7.6,11Z"/>
  <path class="st11" d="M532.8,413.3l110.2-104.2"/>
  <path class="st40" d="M531.9,412.3c-.5.5-.5,1.3,0,1.8s1.3.5,1.8,0l-1.8-1.9Z"/>
  <path class="st40" d="M638.4,304.2l14.3-4.3-5.1,14-9.2-9.7Z"/>
  <path class="st11" d="M505.8,415.9l-150.1-106.4"/>
  <path class="st40" d="M505,416.9c.6.4,1.4.3,1.8-.3s.3-1.4-.3-1.8l-1.5,2.1Z"/>
  <path class="st40" d="M351.8,315l-7-13.2,14.8,2.3-7.7,10.9Z"/>
  <path class="st11" d="M533.5,424.2l164-17.6"/>
  <path class="st40" d="M533.4,422.9c-.7,0-1.2.7-1.1,1.4s.7,1.2,1.4,1.1l-.3-2.6Z"/>
  <path class="st40" d="M696.8,400l14,5.2-12.6,8.1-1.4-13.3Z"/>
  <path class="st11" d="M445.3,334.3l192-36.5"/>
  <path class="st40" d="M445.1,333.1c-.7.1-1.2.8-1,1.5s.8,1.2,1.5,1l-.5-2.5Z"/>
  <path class="st40" d="M636,291.3l14.4,4.1-11.9,9.1-2.5-13.1Z"/>
  <path class="st9" d="M375.3,506.5l-47.4-184.3"/>
  <path class="st26" d="M374.2,506.8c.2.6.8.9,1.3.8s.9-.8.8-1.3l-2.1.5Z"/>
  <path class="st26" d="M321.6,323.8l3.1-14.2,9.5,11-12.6,3.2Z"/>
  <path class="st17" d="M363.8,513.5l-114.4-63.2"/>
  <path class="st23" d="M363.2,514.4c.5.3,1.2.1,1.5-.4s.1-1.2-.4-1.5l-1.1,1.9Z"/>
  <path class="st23" d="M246.2,455.9l-8.2-12,14.5.6-6.3,11.4Z"/>
  <path class="st6" d="M338.8,309.6c34.2,43.8,54.4,126.3,45.1,184.1"/>
  <path class="st37" d="M339.6,308.9c-.4-.5-1.1-.6-1.5-.2s-.6,1.1-.2,1.5l1.7-1.4Z"/>
  <path class="st37" d="M390.3,494.7l-8.5,11.8-4.3-13.8,12.8,2.1Z"/>
  <path class="st8" d="M238,436.9c43.4,6.2,97.1,33.1,119.9,59.9"/>
  <path class="st46" d="M238.2,435.8c-.6,0-1.2.3-1.2.9s.3,1.2.9,1.2l.3-2.2Z"/>
  <path class="st46" d="M362.9,492.7l3.4,14.1-13.3-5.7,9.9-8.4Z"/>
  <path class="st11" d="M411,345.6l-160.9,75.2"/>
  <path class="st40" d="M411.6,346.8c.6-.3.9-1.1.6-1.7s-1.1-.9-1.7-.6l1.1,2.3Z"/>
  <path class="st40" d="M252.9,426.8l-14.9-.4,9.3-11.7,5.7,12.1Z"/>
  <path class="st11" d="M197.4,227.5l201.6,96.1"/>
  <path class="st40" d="M198,226.4c-.6-.3-1.4,0-1.7.6s0,1.4.6,1.7l1.1-2.3Z"/>
  <path class="st40" d="M401.8,317.6l9.2,11.8-14.9.3,5.7-12.1Z"/>
  <path class="st11" d="M344.7,296.1l54.4,27"/>
  <path class="st40" d="M345.3,294.9c-.6-.3-1.4,0-1.7.6s0,1.4.6,1.7l1.1-2.3Z"/>
  <path class="st40" d="M402,317.1l9,11.9h-14.9s5.9-11.9,5.9-11.9Z"/>
  <path class="st11" d="M237.5,419.6c40-35.7,111.8-70.4,160.3-77.6"/>
  <path class="st40" d="M236.6,418.6c-.5.5-.6,1.3-.1,1.8s1.3.6,1.8.1l-1.7-1.9Z"/>
  <path class="st40" d="M396.8,335.4l14.2,4.7-12.2,8.5-1.9-13.2Z"/>
  <path class="st11" d="M352,183.9l61.8,124.6"/>
  <path class="st40" d="M353.1,183.3c-.3-.6-1.1-.9-1.7-.6s-.9,1.1-.6,1.7l2.3-1.1Z"/>
  <path class="st40" d="M419.7,305.5v14.9c0,0-12-9-12-9l12-5.9Z"/>
  <path class="st11" d="M336.3,164.3l-109.3-93.1"/>
  <path class="st40" d="M335.4,165.3c.5.5,1.4.4,1.8-.1s.4-1.4-.1-1.8l-1.7,2Z"/>
  <path class="st40" d="M222.6,76.3l-5.8-13.7,14.5,3.6-8.7,10.2Z"/>
  <path class="st19" d="M205.5,418.1l-115.1-122.5"/>
  <path class="st22" d="M204.8,418.8c.4.4,1,.4,1.4,0s.4-1,0-1.4l-1.4,1.3Z"/>
  <path class="st22" d="M85.8,300l-4.1-13.6,13.4,4.9-9.3,8.7Z"/>
  <path class="st18" d="M290.8,282.4l-193.5-2.3"/>
  <path class="st27" d="M290.8,283.3c.5,0,1-.4,1-1s-.4-1-1-1v1.9Z"/>
  <path class="st27" d="M97.2,286.4l-12.7-6.5,12.8-6.2-.2,12.7Z"/>
  <path class="st3" d="M231.8,417.3l61.6-96.5"/>
  <path class="st51" d="M230.8,416.6c-.4.6-.2,1.3.4,1.7s1.3.2,1.7-.4l-2.1-1.3Z"/>
  <path class="st51" d="M287.8,317.2l12.7-7.6-1.5,14.7-11.2-7.1Z"/>
  <path class="st15" d="M317,309.6c-1.2,43-31.3,92.4-67.1,110.3"/>
  <path class="st39" d="M318.2,309.7c0-.7-.5-1.2-1.2-1.3s-1.2.5-1.3,1.2h2.5Z"/>
  <path class="st39" d="M252.8,425.9h-14.8s8.9-11.8,8.9-11.8l5.9,11.8Z"/>
  <path class="st16" d="M181.4,233.1l-73.9,146.2"/>
  <path class="st26" d="M182.2,233.5c.2-.4,0-1-.4-1.2s-1,0-1.2.4l1.6.8Z"/>
  <path class="st26" d="M113.1,382.1l-11.3,8.4v-14.1c0,0,11.3,5.7,11.3,5.7Z"/>
  <path class="st14" d="M197.4,227.4l82,37.7"/>
  <path class="st38" d="M197.8,226.5c-.5-.2-1,0-1.2.4s0,1,.4,1.2l.8-1.6Z"/>
  <path class="st38" d="M282,259.3l8.8,11-14.1.5,5.3-11.4Z"/>
  <path class="st13" d="M290.8,296.9l-174.6,92"/>
  <path class="st38" d="M291,297.3c.2-.1.3-.4.2-.7s-.4-.3-.7-.2l.5.9Z"/>
  <path class="st38" d="M118.9,394.1l-13.2.3,7.7-10.7,5.5,10.4Z"/>
  <path class="st7" d="M304.9,255.7l-85.4-179"/>
  <path class="st49" d="M303.8,256.2c.3.6,1,.8,1.6.6s.8-1,.6-1.6l-2.1,1Z"/>
  <path class="st49" d="M213.5,79.6l.3-14.7,11.6,9-11.9,5.7Z"/>
  <path class="st1" d="M321.4,414.1c0,7.2-5.8,13-13,13s-13-5.8-13-13,5.8-13,13-13,13,5.8,13,13Z"/>
  <path class="st34" d="M321.4,414.1c0,7.2-5.8,13-13,13s-13-5.8-13-13,5.8-13,13-13,13,5.8,13,13Z"/>
  <text class="st35" transform="translate(260.4 392.6)"><tspan x="0" y="0">Mylpf</tspan></text>
  <path class="st1" d="M545.9,224.7v14.6c0,1.3,1.1,2.4,2.4,2.4h14.6c1.3,0,2.4-1.1,2.4-2.4v-14.6c0-1.3-1.1-2.4-2.4-2.4h-14.6c-1.3,0-2.4,1.1-2.4,2.4Z"/>
  <path class="st31" d="M545.9,224.7v14.6c0,1.3,1.1,2.4,2.4,2.4h14.6c1.3,0,2.4-1.1,2.4-2.4v-14.6c0-1.3-1.1-2.4-2.4-2.4h-14.6c-1.3,0-2.4,1.1-2.4,2.4Z"/>
  <text class="st35" transform="translate(463.1 213.8)"><tspan x="0" y="0">Nr6a1_TFA</tspan></text>
  <path class="st1" d="M459.1,71.2c0,4.5-3.6,8.1-8.1,8.1s-8.1-3.6-8.1-8.1,3.6-8.1,8.1-8.1,8.1,3.6,8.1,8.1Z"/>
  <path class="st41" d="M459.1,71.2c0,4.5-3.6,8.1-8.1,8.1s-8.1-3.6-8.1-8.1,3.6-8.1,8.1-8.1,8.1,3.6,8.1,8.1Z"/>
  <text class="st35" transform="translate(412.2 54.6)"><tspan x="0" y="0">Fgf4</tspan></text>
  <path class="st1" d="M506.7,416v19.5c0,1.8,1.5,3.2,3.2,3.2h19.5c1.8,0,3.2-1.5,3.2-3.2v-19.5c0-1.8-1.5-3.2-3.2-3.2h-19.5c-1.8,0-3.2,1.5-3.2,3.2Z"/>
  <path class="st29" d="M506.7,416v19.5c0,1.8,1.5,3.2,3.2,3.2h19.5c1.8,0,3.2-1.5,3.2-3.2v-19.5c0-1.8-1.5-3.2-3.2-3.2h-19.5c-1.8,0-3.2,1.5-3.2,3.2Z"/>
  <text class="st35" transform="translate(474.7 404.2)"><tspan x="0" y="0">Esrrb</tspan></text>
  <path class="st1" d="M667.3,293.7c0,4.5-3.6,8.1-8.1,8.1s-8.1-3.6-8.1-8.1,3.6-8.1,8.1-8.1,8.1,3.6,8.1,8.1Z"/>
  <path class="st48" d="M667.3,293.7c0,4.5-3.6,8.1-8.1,8.1s-8.1-3.6-8.1-8.1,3.6-8.1,8.1-8.1,8.1,3.6,8.1,8.1Z"/>
  <text class="st35" transform="translate(591 277.1)"><tspan x="0" y="0">Fam25c</tspan></text>
  <path class="st1" d="M364.7,511.1v21.9c0,2,1.6,3.7,3.7,3.7h21.9c2,0,3.7-1.6,3.7-3.7v-21.9c0-2-1.6-3.7-3.7-3.7h-21.9c-2,0-3.7,1.6-3.7,3.7Z"/>
  <path class="st21" d="M364.7,511.1v21.9c0,2,1.6,3.7,3.7,3.7h21.9c2,0,3.7-1.6,3.7-3.7v-21.9c0-2-1.6-3.7-3.7-3.7h-21.9c-2,0-3.7,1.6-3.7,3.7Z"/>
  <text class="st35" transform="translate(312.9 498.9)"><tspan x="0" y="0">Tfcp2l1</tspan></text>
  <path class="st1" d="M411.9,325.4v24.4c0,2.2,1.8,4.1,4.1,4.1h24.4c2.2,0,4.1-1.8,4.1-4.1v-24.4c0-2.2-1.8-4.1-4.1-4.1h-24.4c-2.2,0-4.1,1.8-4.1,4.1Z"/>
  <path class="st43" d="M411.9,325.4v24.4c0,2.2,1.8,4.1,4.1,4.1h24.4c2.2,0,4.1-1.8,4.1-4.1v-24.4c0-2.2-1.8-4.1-4.1-4.1h-24.4c-2.2,0-4.1,1.8-4.1,4.1Z"/>
  <text class="st35" transform="translate(370.8 312.9)"><tspan x="0" y="0">Dppa3</tspan></text>
  <path class="st1" d="M337,165.9v14.6c0,1.3,1.1,2.4,2.4,2.4h14.6c1.3,0,2.4-1.1,2.4-2.4v-14.6c0-1.3-1.1-2.4-2.4-2.4h-14.6c-1.3,0-2.4,1.1-2.4,2.4Z"/>
  <path class="st43" d="M337,165.9v14.6c0,1.3,1.1,2.4,2.4,2.4h14.6c1.3,0,2.4-1.1,2.4-2.4v-14.6c0-1.3-1.1-2.4-2.4-2.4h-14.6c-1.3,0-2.4,1.1-2.4,2.4Z"/>
  <text class="st35" transform="translate(279.4 155)"><tspan x="0" y="0">Dppa5a</tspan></text>
  <path class="st1" d="M83.6,279.8c0,4.5-3.6,8.1-8.1,8.1s-8.1-3.6-8.1-8.1,3.6-8.1,8.1-8.1,8.1,3.6,8.1,8.1Z"/>
  <path class="st50" d="M83.6,279.8c0,4.5-3.6,8.1-8.1,8.1s-8.1-3.6-8.1-8.1,3.6-8.1,8.1-8.1,8.1,3.6,8.1,8.1Z"/>
  <text class="st35" transform="translate(41.4 263.2)"><tspan x="0" y="0">Alpl</tspan></text>
  <path class="st1" d="M204.6,422.3v24.4c0,2.2,1.8,4.1,4.1,4.1h24.4c2.2,0,4.1-1.8,4.1-4.1v-24.4c0-2.2-1.8-4.1-4.1-4.1h-24.4c-2.2,0-4.1,1.8-4.1,4.1Z"/>
  <path class="st45" d="M204.6,422.3v24.4c0,2.2,1.8,4.1,4.1,4.1h24.4c2.2,0,4.1-1.8,4.1-4.1v-24.4c0-2.2-1.8-4.1-4.1-4.1h-24.4c-2.2,0-4.1,1.8-4.1,4.1Z"/>
  <text class="st35" transform="translate(187.9 409.7)"><tspan x="0" y="0">Elf3</tspan></text>
  <path class="st1" d="M177.1,215.2v14.6c0,1.3,1.1,2.4,2.4,2.4h14.6c1.3,0,2.4-1.1,2.4-2.4v-14.6c0-1.3-1.1-2.4-2.4-2.4h-14.6c-1.3,0-2.4,1.1-2.4,2.4Z"/>
  <path class="st36" d="M177.1,215.2v14.6c0,1.3,1.1,2.4,2.4,2.4h14.6c1.3,0,2.4-1.1,2.4-2.4v-14.6c0-1.3-1.1-2.4-2.4-2.4h-14.6c-1.3,0-2.4,1.1-2.4,2.4Z"/>
  <text class="st35" transform="translate(100.2 204.3)"><tspan x="0" y="0">Snai2_TFA</tspan></text>
  <path class="st1" d="M105.9,398.5c0,4.5-3.6,8.1-8.1,8.1s-8.1-3.6-8.1-8.1,3.6-8.1,8.1-8.1,8.1,3.6,8.1,8.1Z"/>
  <path class="st32" d="M105.9,398.5c0,4.5-3.6,8.1-8.1,8.1s-8.1-3.6-8.1-8.1,3.6-8.1,8.1-8.1,8.1,3.6,8.1,8.1Z"/>
  <text class="st35" transform="translate(46.2 382)"><tspan x="0" y="0">Alg13</tspan></text>
  <path class="st1" d="M291.7,263.1v39.1c0,3.6,2.9,6.5,6.5,6.5h39.1c3.6,0,6.5-2.9,6.5-6.5v-39.1c0-3.6-2.9-6.5-6.5-6.5h-39.1c-3.6,0-6.5,2.9-6.5,6.5Z"/>
  <path class="st28" d="M291.7,263.1v39.1c0,3.6,2.9,6.5,6.5,6.5h39.1c3.6,0,6.5-2.9,6.5-6.5v-39.1c0-3.6-2.9-6.5-6.5-6.5h-39.1c-3.6,0-6.5,2.9-6.5,6.5Z"/>
  <text class="st35" transform="translate(261.1 248.1)"><tspan x="0" y="0">Nanog</tspan></text>
  <path class="st1" d="M218,56.8c0,4.5-3.6,8.1-8.1,8.1s-8.1-3.6-8.1-8.1,3.6-8.1,8.1-8.1,8.1,3.6,8.1,8.1Z"/>
  <path class="st24" d="M218,56.8c0,4.5-3.6,8.1-8.1,8.1s-8.1-3.6-8.1-8.1,3.6-8.1,8.1-8.1,8.1,3.6,8.1,8.1Z"/>
  <text class="st35" transform="translate(150.1 40.2)"><tspan x="0" y="0">Tfap2c</tspan></text>
  <path class="st1" d="M727.8,404.3c0,4.5-3.6,8.1-8.1,8.1s-8.1-3.6-8.1-8.1,3.6-8.1,8.1-8.1,8.1,3.6,8.1,8.1Z"/>
  <path class="st42" d="M727.8,404.3c0,4.5-3.6,8.1-8.1,8.1s-8.1-3.6-8.1-8.1,3.6-8.1,8.1-8.1,8.1,3.6,8.1,8.1Z"/>
  <text class="st35" transform="translate(685.9 387.7)"><tspan x="0" y="0">Tdh</tspan></text>
</svg>