<?xml version="1.0" encoding="UTF-8"?>
<svg id="Layer_1" xmlns="http://www.w3.org/2000/svg" xmlns:ev="http://www.w3.org/2001/xml-events" version="1.1" viewBox="0 0 795 543">
  <!-- Generator: Adobe Illustrator 29.0.1, SVG Export Plug-In . SVG Version: 2.1.0 Build 192)  -->
  <defs>
    <style>
      .st0 {
        fill: #f3e6e4;
      }

      .st1 {
        fill: #81b5d5;
      }

      .st2 {
        stroke: #000;
        stroke-linecap: round;
      }

      .st2, .st3, .st4, .st5, .st6, .st7, .st8, .st9, .st10, .st11, .st12, .st13 {
        fill: none;
        stroke-miterlimit: 18;
      }

      .st2, .st3, .st5, .st6, .st9, .st10, .st13 {
        stroke-width: 1.8px;
      }

      .st3 {
        stroke: #f1ddda;
      }

      .st14 {
        fill: #ecc4be;
      }

      .st4 {
        stroke: #69a8ce;
        stroke-width: 2.2px;
      }

      .st15 {
        fill: #f4f5f6;
      }

      .st16 {
        fill: #bad5e5;
      }

      .st5 {
        stroke: #b2182b;
      }

      .st17 {
        fill: #e8b1a9;
      }

      .st18 {
        fill: #e2978a;
      }

      .st6 {
        stroke: #e3ecf1;
      }

      .st19 {
        fill: #f3e2e0;
      }

      .st7 {
        stroke: #bad5e5;
        stroke-width: 2.1px;
      }

      .st20 {
        fill: #f1ddda;
      }

      .st21 {
        fill: #e7b0a7;
      }

      .st22 {
        fill: #f4e8e6;
      }

      .st23 {
        fill: #f4f6f6;
      }

      .st24 {
        fill: #69a8ce;
      }

      .st8 {
        stroke: #f7f7f7;
        stroke-width: 2.6px;
      }

      .st25 {
        font-family: Helvetica, Helvetica;
        font-size: 35.9px;
        isolation: isolate;
      }

      .st26 {
        fill: #f1dbd7;
      }

      .st27 {
        fill: #f7f7f7;
      }

      .st9 {
        stroke: #e7b0a7;
      }

      .st28 {
        fill: #98c2dc;
      }

      .st10 {
        stroke: #81b5d5;
      }

      .st29 {
        fill: #edcac4;
      }

      .st30 {
        fill: #f4e9e7;
      }

      .st11 {
        stroke: #ebf0f4;
        stroke-width: 2.4px;
      }

      .st31 {
        fill: #f1dad7;
      }

      .st32 {
        fill: #b2182b;
      }

      .st33 {
        fill: #f2dedb;
      }

      .st34 {
        fill: #f0d7d3;
      }

      .st12 {
        stroke: #98c2dc;
        stroke-width: 1.6px;
      }

      .st35 {
        fill: #ebf0f4;
      }

      .st36 {
        fill: #4695c4;
      }

      .st37 {
        fill: #e3ecf1;
      }

      .st13 {
        stroke: #4695c4;
      }
    </style>
  </defs>
  <path class="st5" d="M369.1,506.5l-44.7-68"/>
  <path class="st32" d="M368.4,507c.3.4.8.5,1.2.3s.5-.8.3-1.2l-1.5,1Z"/>
  <path class="st32" d="M319.2,442l-1.7-14,12.2,7.1-10.5,6.9Z"/>
  <path class="st4" d="M505.8,424.9l-170.6-9.4"/>
  <path class="st24" d="M505.7,426c.6,0,1.1-.4,1.1-1s-.4-1.1-1-1.1v2.1Z"/>
  <path class="st24" d="M334.8,422l-12.6-7.2,13.3-5.7-.7,12.9Z"/>
  <path class="st8" d="M411,348.6l-77.5,49.5"/>
  <path class="st27" d="M411.7,349.6c.6-.4.8-1.2.4-1.8s-1.2-.8-1.8-.4l1.4,2.2Z"/>
  <path class="st27" d="M337.1,403.7l-14.8,1.6,7.7-12.8,7.2,11.3Z"/>
  <path class="st12" d="M315.8,309.6l-5.6,78.3"/>
  <path class="st28" d="M316.6,309.7c0-.4-.3-.8-.7-.8s-.8.3-.8.7h1.6Z"/>
  <path class="st28" d="M316.4,388.3l-7,11.9-5.3-12.7,12.3.9Z"/>
  <path class="st8" d="M345,183.9l-32.3,203.2"/>
  <path class="st27" d="M346.3,184.1c.1-.7-.4-1.4-1.1-1.5s-1.4.4-1.5,1.1l2.5.4Z"/>
  <path class="st27" d="M319.3,388.1l-8.7,12.1-4.5-14.2,13.2,2.1Z"/>
  <path class="st9" d="M545,234.3l-188,40.1"/>
  <path class="st21" d="M545.2,235.1c.5-.1.8-.6.7-1.1s-.6-.8-1.1-.7l.4,1.8Z"/>
  <path class="st21" d="M358.3,280.5l-13.6-3.5,11-8.8,2.6,12.3Z"/>
  <path class="st5" d="M565.2,242l139.7,146.6"/>
  <path class="st32" d="M565.8,241.4c-.3-.4-.9-.4-1.3,0s-.4.9,0,1.3l1.3-1.2Z"/>
  <path class="st32" d="M709.4,384.3l4.1,13.4-13.2-4.8,9.1-8.7Z"/>
  <path class="st5" d="M548.7,221.4l-85.9-132.1"/>
  <path class="st32" d="M548,221.9c.3.4.8.5,1.2.3s.5-.8.3-1.2l-1.5,1Z"/>
  <path class="st32" d="M457.5,92.7l-1.6-14,12.1,7.1-10.5,6.9Z"/>
  <path class="st7" d="M334.7,255.7l104.6-166"/>
  <path class="st16" d="M333.8,255.2c-.3.5-.2,1.2.3,1.5s1.2.2,1.5-.3l-1.8-1.1Z"/>
  <path class="st16" d="M433.9,86.3l12.3-7.5-1.4,14.4-10.9-6.9Z"/>
  <path class="st11" d="M532.8,413.3l110.3-104.3"/>
  <path class="st35" d="M532,412.4c-.5.5-.5,1.2,0,1.7s1.2.5,1.7,0l-1.7-1.8Z"/>
  <path class="st35" d="M638.6,304.1l14.1-4.3-5.1,13.9-9.1-9.6Z"/>
  <path class="st5" d="M505.8,415.9l-150.8-106.8"/>
  <path class="st32" d="M505.2,416.6c.4.3,1,.2,1.3-.2s.2-1-.2-1.3l-1,1.5Z"/>
  <path class="st32" d="M351.3,314.2l-6.6-12.4,13.9,2.1-7.3,10.3Z"/>
  <path class="st6" d="M505.8,435.2l-100.6,69"/>
  <path class="st37" d="M506.3,436c.4-.3.5-.8.2-1.2s-.8-.5-1.2-.2l1,1.5Z"/>
  <path class="st37" d="M408.8,509.5l-13.9,1.9,6.8-12.3,7.1,10.4Z"/>
  <path class="st5" d="M533.5,424.2l164.7-17.7"/>
  <path class="st32" d="M533.4,423.3c-.5,0-.9.5-.8,1s.5.9,1,.8l-.2-1.8Z"/>
  <path class="st32" d="M697.6,400.3l13.2,4.9-11.8,7.6-1.3-12.5Z"/>
  <path class="st8" d="M445.3,334.3l192-36.5"/>
  <path class="st27" d="M445.1,333.1c-.7.1-1.2.8-1,1.5s.8,1.2,1.5,1l-.5-2.5Z"/>
  <path class="st27" d="M636,291.3l14.4,4.1-11.9,9.1-2.5-13.1Z"/>
  <path class="st8" d="M363.8,513.5l-114.1-63.1"/>
  <path class="st27" d="M363.2,514.6c.6.3,1.4.1,1.7-.5s.1-1.4-.5-1.7l-1.2,2.3Z"/>
  <path class="st27" d="M246.5,456.3l-8.5-12.3,14.9.6-6.5,11.7Z"/>
  <path class="st8" d="M238,436.9c43.4,6.2,97,32.9,119.7,59.7"/>
  <path class="st27" d="M238.2,435.7c-.7-.1-1.4.4-1.5,1.1s.4,1.4,1.1,1.5l.4-2.5Z"/>
  <path class="st27" d="M362.8,492.3l3.5,14.5-13.7-5.9,10.2-8.6Z"/>
  <path class="st3" d="M375.3,506.5l-47.5-184.7"/>
  <path class="st20" d="M374.4,506.7c.1.5.6.8,1.1.6s.8-.6.6-1.1l-1.7.4Z"/>
  <path class="st20" d="M321.7,323.4l3-13.8,9.2,10.6-12.2,3.1Z"/>
  <path class="st10" d="M338.8,309.6c34.2,43.8,54.4,126.5,45.1,184.5"/>
  <path class="st1" d="M339.5,309c-.3-.4-.9-.5-1.3-.2s-.5.9-.2,1.3l1.4-1.1Z"/>
  <path class="st1" d="M390,495.1l-8.2,11.4-4.2-13.4,12.4,2Z"/>
  <path class="st8" d="M411,345.6l-160.9,75.2"/>
  <path class="st27" d="M411.6,346.8c.6-.3.9-1.1.6-1.7s-1.1-.9-1.7-.6l1.1,2.3Z"/>
  <path class="st27" d="M252.9,426.8l-14.9-.4,9.3-11.7,5.7,12.1Z"/>
  <path class="st8" d="M352,183.9l61.8,124.6"/>
  <path class="st27" d="M353.1,183.3c-.3-.6-1.1-.9-1.7-.6s-.9,1.1-.6,1.7l2.3-1.1Z"/>
  <path class="st27" d="M419.7,305.5v14.9c0,0-12-9-12-9l12-5.9Z"/>
  <path class="st8" d="M237.5,419.6c40-35.7,111.8-70.4,160.3-77.6"/>
  <path class="st27" d="M236.6,418.6c-.5.5-.6,1.3-.1,1.8s1.3.6,1.8.1l-1.7-1.9Z"/>
  <path class="st27" d="M396.8,335.4l14.2,4.7-12.2,8.5-1.9-13.2Z"/>
  <path class="st8" d="M197.4,227.5l201.6,96.1"/>
  <path class="st27" d="M198,226.4c-.6-.3-1.4,0-1.7.6s0,1.4.6,1.7l1.1-2.3Z"/>
  <path class="st27" d="M401.8,317.6l9.2,11.8-14.9.3,5.7-12.1Z"/>
  <path class="st8" d="M344.7,296.1l54.4,27"/>
  <path class="st27" d="M345.3,294.9c-.6-.3-1.4,0-1.7.6s0,1.4.6,1.7l1.1-2.3Z"/>
  <path class="st27" d="M402,317.1l9,11.9h-14.9s5.9-11.9,5.9-11.9Z"/>
  <path class="st8" d="M336.3,164.3l-109.3-93.1"/>
  <path class="st27" d="M335.4,165.3c.5.5,1.4.4,1.8-.1s.4-1.4-.1-1.8l-1.7,2Z"/>
  <path class="st27" d="M222.6,76.3l-5.8-13.7,14.5,3.6-8.7,10.2Z"/>
  <path class="st8" d="M205.5,418.1l-114.6-122"/>
  <path class="st27" d="M204.6,419c.5.5,1.3.5,1.8,0s.5-1.3,0-1.8l-1.9,1.8Z"/>
  <path class="st27" d="M86,300.7l-4.3-14.3,14,5.2-9.7,9.1Z"/>
  <path class="st5" d="M290.8,282.4l-193.7-2.3"/>
  <path class="st32" d="M290.8,283.3c.5,0,.9-.4.9-.9s-.4-.9-.9-.9v1.8Z"/>
  <path class="st32" d="M97,286.4l-12.5-6.4,12.7-6.1v12.6Z"/>
  <path class="st8" d="M231.8,417.3l61.5-96.4"/>
  <path class="st27" d="M230.7,416.6c-.4.6-.2,1.4.4,1.8s1.4.2,1.8-.4l-2.2-1.4Z"/>
  <path class="st27" d="M287.7,317.3l12.8-7.7-1.6,14.9-11.3-7.2Z"/>
  <path class="st8" d="M317,309.6c-1.2,43-31.2,92.4-67,110.3"/>
  <path class="st27" d="M318.3,309.7c0-.7-.5-1.3-1.2-1.3s-1.3.5-1.3,1.2h2.6Z"/>
  <path class="st27" d="M252.9,425.9h-14.9s9-11.9,9-11.9l6,11.9Z"/>
  <path class="st13" d="M181.4,233.1l-73.9,146.2"/>
  <path class="st36" d="M182.2,233.5c.2-.4,0-1-.4-1.2s-1,0-1.2.4l1.6.8Z"/>
  <path class="st36" d="M113.1,382.1l-11.3,8.4v-14.1c0,0,11.3,5.7,11.3,5.7Z"/>
  <path class="st5" d="M197.4,227.4l82,37.7"/>
  <path class="st32" d="M197.8,226.5c-.5-.2-1,0-1.2.4s0,1,.4,1.2l.8-1.6Z"/>
  <path class="st32" d="M282,259.3l8.8,11-14.1.5,5.3-11.4Z"/>
  <path class="st5" d="M290.8,296.9l-173.9,91.6"/>
  <path class="st32" d="M291.2,297.7c.4-.2.6-.8.4-1.2s-.8-.6-1.2-.4l.8,1.6Z"/>
  <path class="st32" d="M119.8,394l-14.1.3,8.2-11.4,5.9,11.1Z"/>
  <path class="st5" d="M304.9,255.7l-85.7-179.5"/>
  <path class="st32" d="M304.1,256.1c.2.4.8.6,1.2.4s.6-.8.4-1.2l-1.6.8Z"/>
  <path class="st32" d="M213.5,78.9l.3-14.1,11.1,8.6-11.4,5.4Z"/>
  <path class="st2" d="M295.4,404.4v19.5c0,1.8,1.5,3.2,3.2,3.2h19.5c1.8,0,3.2-1.5,3.2-3.2v-19.5c0-1.8-1.5-3.2-3.2-3.2h-19.5c-1.8,0-3.2,1.5-3.2,3.2Z"/>
  <path class="st19" d="M295.4,404.4v19.5c0,1.8,1.5,3.2,3.2,3.2h19.5c1.8,0,3.2-1.5,3.2-3.2v-19.5c0-1.8-1.5-3.2-3.2-3.2h-19.5c-1.8,0-3.2,1.5-3.2,3.2Z"/>
  <text class="st25" transform="translate(260.4 392.6)"><tspan x="0" y="0">Mylpf</tspan></text>
  <path class="st2" d="M545.9,224.7v14.6c0,1.3,1.1,2.4,2.4,2.4h14.6c1.3,0,2.4-1.1,2.4-2.4v-14.6c0-1.3-1.1-2.4-2.4-2.4h-14.6c-1.3,0-2.4,1.1-2.4,2.4Z"/>
  <path class="st15" d="M545.9,224.7v14.6c0,1.3,1.1,2.4,2.4,2.4h14.6c1.3,0,2.4-1.1,2.4-2.4v-14.6c0-1.3-1.1-2.4-2.4-2.4h-14.6c-1.3,0-2.4,1.1-2.4,2.4Z"/>
  <text class="st25" transform="translate(463.1 213.8)"><tspan x="0" y="0">Nr6a1_TFA</tspan></text>
  <path class="st2" d="M459.1,71.2c0,4.5-3.6,8.1-8.1,8.1s-8.1-3.6-8.1-8.1,3.6-8.1,8.1-8.1,8.1,3.6,8.1,8.1Z"/>
  <path class="st31" d="M459.1,71.2c0,4.5-3.6,8.1-8.1,8.1s-8.1-3.6-8.1-8.1,3.6-8.1,8.1-8.1,8.1,3.6,8.1,8.1Z"/>
  <text class="st25" transform="translate(412.2 54.6)"><tspan x="0" y="0">Fgf4</tspan></text>
  <path class="st2" d="M506.7,416v19.5c0,1.8,1.5,3.2,3.2,3.2h19.5c1.8,0,3.2-1.5,3.2-3.2v-19.5c0-1.8-1.5-3.2-3.2-3.2h-19.5c-1.8,0-3.2,1.5-3.2,3.2Z"/>
  <path class="st22" d="M506.7,416v19.5c0,1.8,1.5,3.2,3.2,3.2h19.5c1.8,0,3.2-1.5,3.2-3.2v-19.5c0-1.8-1.5-3.2-3.2-3.2h-19.5c-1.8,0-3.2,1.5-3.2,3.2Z"/>
  <text class="st25" transform="translate(474.7 404.2)"><tspan x="0" y="0">Esrrb</tspan></text>
  <path class="st2" d="M667.3,293.7c0,4.5-3.6,8.1-8.1,8.1s-8.1-3.6-8.1-8.1,3.6-8.1,8.1-8.1,8.1,3.6,8.1,8.1Z"/>
  <path class="st0" d="M667.3,293.7c0,4.5-3.6,8.1-8.1,8.1s-8.1-3.6-8.1-8.1,3.6-8.1,8.1-8.1,8.1,3.6,8.1,8.1Z"/>
  <text class="st25" transform="translate(591 277.1)"><tspan x="0" y="0">Fam25c</tspan></text>
  <path class="st2" d="M364.7,511.1v21.9c0,2,1.6,3.7,3.7,3.7h21.9c2,0,3.7-1.6,3.7-3.7v-21.9c0-2-1.6-3.7-3.7-3.7h-21.9c-2,0-3.7,1.6-3.7,3.7Z"/>
  <path class="st26" d="M364.7,511.1v21.9c0,2,1.6,3.7,3.7,3.7h21.9c2,0,3.7-1.6,3.7-3.7v-21.9c0-2-1.6-3.7-3.7-3.7h-21.9c-2,0-3.7,1.6-3.7,3.7Z"/>
  <text class="st25" transform="translate(312.9 498.9)"><tspan x="0" y="0">Tfcp2l1</tspan></text>
  <path class="st2" d="M411.9,325.4v24.4c0,2.2,1.8,4.1,4.1,4.1h24.4c2.2,0,4.1-1.8,4.1-4.1v-24.4c0-2.2-1.8-4.1-4.1-4.1h-24.4c-2.2,0-4.1,1.8-4.1,4.1Z"/>
  <path class="st0" d="M411.9,325.4v24.4c0,2.2,1.8,4.1,4.1,4.1h24.4c2.2,0,4.1-1.8,4.1-4.1v-24.4c0-2.2-1.8-4.1-4.1-4.1h-24.4c-2.2,0-4.1,1.8-4.1,4.1Z"/>
  <text class="st25" transform="translate(370.8 312.9)"><tspan x="0" y="0">Dppa3</tspan></text>
  <path class="st2" d="M337,165.9v14.6c0,1.3,1.1,2.4,2.4,2.4h14.6c1.3,0,2.4-1.1,2.4-2.4v-14.6c0-1.3-1.1-2.4-2.4-2.4h-14.6c-1.3,0-2.4,1.1-2.4,2.4Z"/>
  <path class="st30" d="M337,165.9v14.6c0,1.3,1.1,2.4,2.4,2.4h14.6c1.3,0,2.4-1.1,2.4-2.4v-14.6c0-1.3-1.1-2.4-2.4-2.4h-14.6c-1.3,0-2.4,1.1-2.4,2.4Z"/>
  <text class="st25" transform="translate(279.4 155)"><tspan x="0" y="0">Dppa5a</tspan></text>
  <path class="st2" d="M83.6,279.8c0,4.5-3.6,8.1-8.1,8.1s-8.1-3.6-8.1-8.1,3.6-8.1,8.1-8.1,8.1,3.6,8.1,8.1Z"/>
  <path class="st29" d="M83.6,279.8c0,4.5-3.6,8.1-8.1,8.1s-8.1-3.6-8.1-8.1,3.6-8.1,8.1-8.1,8.1,3.6,8.1,8.1Z"/>
  <text class="st25" transform="translate(41.4 263.2)"><tspan x="0" y="0">Alpl</tspan></text>
  <path class="st2" d="M204.6,422.3v24.4c0,2.2,1.8,4.1,4.1,4.1h24.4c2.2,0,4.1-1.8,4.1-4.1v-24.4c0-2.2-1.8-4.1-4.1-4.1h-24.4c-2.2,0-4.1,1.8-4.1,4.1Z"/>
  <path class="st33" d="M204.6,422.3v24.4c0,2.2,1.8,4.1,4.1,4.1h24.4c2.2,0,4.1-1.8,4.1-4.1v-24.4c0-2.2-1.8-4.1-4.1-4.1h-24.4c-2.2,0-4.1,1.8-4.1,4.1Z"/>
  <text class="st25" transform="translate(187.9 409.7)"><tspan x="0" y="0">Elf3</tspan></text>
  <path class="st2" d="M177.1,215.2v14.6c0,1.3,1.1,2.4,2.4,2.4h14.6c1.3,0,2.4-1.1,2.4-2.4v-14.6c0-1.3-1.1-2.4-2.4-2.4h-14.6c-1.3,0-2.4,1.1-2.4,2.4Z"/>
  <path class="st23" d="M177.1,215.2v14.6c0,1.3,1.1,2.4,2.4,2.4h14.6c1.3,0,2.4-1.1,2.4-2.4v-14.6c0-1.3-1.1-2.4-2.4-2.4h-14.6c-1.3,0-2.4,1.1-2.4,2.4Z"/>
  <text class="st25" transform="translate(100.2 204.3)"><tspan x="0" y="0">Snai2_TFA</tspan></text>
  <path class="st2" d="M105.9,398.5c0,4.5-3.6,8.1-8.1,8.1s-8.1-3.6-8.1-8.1,3.6-8.1,8.1-8.1,8.1,3.6,8.1,8.1Z"/>
  <path class="st18" d="M105.9,398.5c0,4.5-3.6,8.1-8.1,8.1s-8.1-3.6-8.1-8.1,3.6-8.1,8.1-8.1,8.1,3.6,8.1,8.1Z"/>
  <text class="st25" transform="translate(46.2 382)"><tspan x="0" y="0">Alg13</tspan></text>
  <path class="st2" d="M291.7,263.1v39.1c0,3.6,2.9,6.5,6.5,6.5h39.1c3.6,0,6.5-2.9,6.5-6.5v-39.1c0-3.6-2.9-6.5-6.5-6.5h-39.1c-3.6,0-6.5,2.9-6.5,6.5Z"/>
  <path class="st14" d="M291.7,263.1v39.1c0,3.6,2.9,6.5,6.5,6.5h39.1c3.6,0,6.5-2.9,6.5-6.5v-39.1c0-3.6-2.9-6.5-6.5-6.5h-39.1c-3.6,0-6.5,2.9-6.5,6.5Z"/>
  <text class="st25" transform="translate(261.1 248.1)"><tspan x="0" y="0">Nanog</tspan></text>
  <path class="st2" d="M218,56.8c0,4.5-3.6,8.1-8.1,8.1s-8.1-3.6-8.1-8.1,3.6-8.1,8.1-8.1,8.1,3.6,8.1,8.1Z"/>
  <path class="st34" d="M218,56.8c0,4.5-3.6,8.1-8.1,8.1s-8.1-3.6-8.1-8.1,3.6-8.1,8.1-8.1,8.1,3.6,8.1,8.1Z"/>
  <text class="st25" transform="translate(150.1 40.2)"><tspan x="0" y="0">Tfap2c</tspan></text>
  <path class="st2" d="M727.8,404.3c0,4.5-3.6,8.1-8.1,8.1s-8.1-3.6-8.1-8.1,3.6-8.1,8.1-8.1,8.1,3.6,8.1,8.1Z"/>
  <path class="st17" d="M727.8,404.3c0,4.5-3.6,8.1-8.1,8.1s-8.1-3.6-8.1-8.1,3.6-8.1,8.1-8.1,8.1,3.6,8.1,8.1Z"/>
  <text class="st25" transform="translate(685.9 387.7)"><tspan x="0" y="0">Tdh</tspan></text>
</svg>