<?xml version="1.0" encoding="UTF-8"?>
<svg id="Layer_1" xmlns="http://www.w3.org/2000/svg" xmlns:ev="http://www.w3.org/2001/xml-events" version="1.1" viewBox="0 0 795 543">
  <!-- Generator: Adobe Illustrator 29.0.1, SVG Export Plug-In . SVG Version: 2.1.0 Build 192)  -->
  <defs>
    <style>
      .st0 {
        fill: #df8a7c;
      }

      .st1 {
        fill: #81b5d5;
      }

      .st2 {
        fill: #f3e5e3;
      }

      .st3 {
        fill: #f6f2f2;
      }

      .st4 {
        stroke: #000;
        stroke-linecap: round;
      }

      .st4, .st5, .st6, .st7, .st8, .st9, .st10, .st11, .st12, .st13, .st14, .st15, .st16, .st17, .st18, .st19, .st20, .st21 {
        fill: none;
        stroke-miterlimit: 18;
      }

      .st4, .st6, .st21 {
        stroke-width: 1.8px;
      }

      .st5 {
        stroke: #70acd0;
        stroke-width: 1.1px;
      }

      .st22 {
        fill: #b9d4e5;
      }

      .st23 {
        fill: #e1ebf1;
      }

      .st24 {
        fill: #cbdeea;
      }

      .st6 {
        stroke: #b2182b;
      }

      .st7 {
        stroke: #d6e5ed;
      }

      .st7, .st20 {
        stroke-width: 2.1px;
      }

      .st25 {
        fill: #f5f0ef;
      }

      .st8 {
        stroke: #bfd8e7;
        stroke-width: 1.9px;
      }

      .st9 {
        stroke: #d2e3ec;
      }

      .st9, .st11 {
        stroke-width: 2.3px;
      }

      .st26 {
        fill: #d7e5ee;
      }

      .st10 {
        stroke: #dce8ef;
      }

      .st10, .st12 {
        stroke-width: 2.3px;
      }

      .st11 {
        stroke: #e3ecf1;
      }

      .st27 {
        fill: #dce8ef;
      }

      .st12 {
        stroke: #e1ebf1;
      }

      .st28 {
        fill: #e4ecf1;
      }

      .st29 {
        fill: #e7b0a7;
      }

      .st13 {
        stroke: #efd3ce;
        stroke-width: 3.1px;
      }

      .st14 {
        stroke: #b9d4e5;
        stroke-width: 1.8px;
      }

      .st15 {
        stroke: #dfeaf0;
        stroke-width: 2.1px;
      }

      .st30 {
        fill: #bcd6e6;
      }

      .st16 {
        stroke: #f7f7f7;
        stroke-width: 2.6px;
      }

      .st31 {
        fill: #bfd8e7;
      }

      .st32 {
        fill: #d6e5ed;
      }

      .st33 {
        font-family: Helvetica, Helvetica;
        font-size: 35.9px;
        isolation: isolate;
      }

      .st34 {
        fill: #f6f3f3;
      }

      .st35 {
        fill: #d2e3ec;
      }

      .st17 {
        stroke: #bcd6e6;
        stroke-width: 2.3px;
      }

      .st36 {
        fill: #f7f7f7;
      }

      .st18 {
        stroke: #81b5d5;
        stroke-width: 1.2px;
      }

      .st19 {
        stroke: #d7e5ee;
        stroke-width: 2.1px;
      }

      .st37 {
        fill: #f6f5f4;
      }

      .st38 {
        fill: #f4ebe9;
      }

      .st39 {
        fill: #b2182b;
      }

      .st40 {
        fill: #70acd0;
      }

      .st41 {
        fill: #f5ecea;
      }

      .st42 {
        fill: #f2dfdc;
      }

      .st43 {
        fill: #cadeea;
      }

      .st44 {
        fill: #efd3ce;
      }

      .st45 {
        fill: #e3ecf1;
      }

      .st20 {
        stroke: #cbdeea;
      }

      .st46 {
        fill: #f4eae8;
      }

      .st21 {
        stroke: #df8a7c;
      }

      .st47 {
        fill: #f6f1f0;
      }

      .st48 {
        fill: #dfeaf0;
      }
    </style>
  </defs>
  <path class="st16" d="M305.4,255.7l-85.3-178.8"/>
  <path class="st36" d="M304.2,256.3c.3.6,1.1.9,1.7.6s.9-1.1.6-1.7l-2.3,1.1Z"/>
  <path class="st36" d="M214,79.8l.3-14.9,11.8,9.2-12.1,5.8Z"/>
  <path class="st16" d="M336.7,164.3l-109.3-93.1"/>
  <path class="st36" d="M335.9,165.3c.5.5,1.4.4,1.8-.1s.4-1.4-.1-1.8l-1.7,2Z"/>
  <path class="st36" d="M223.1,76.3l-5.8-13.7,14.5,3.6-8.7,10.2Z"/>
  <path class="st16" d="M534,424.2l164-17.6"/>
  <path class="st36" d="M533.9,422.9c-.7,0-1.2.7-1.1,1.4s.7,1.2,1.4,1.1l-.3-2.6Z"/>
  <path class="st36" d="M697.3,400l14,5.2-12.6,8.1-1.4-13.3Z"/>
  <path class="st6" d="M565.6,242l139.7,146.6"/>
  <path class="st39" d="M566.3,241.4c-.3-.4-.9-.4-1.3,0s-.4.9,0,1.3l1.3-1.2Z"/>
  <path class="st39" d="M709.9,384.3l4.1,13.4-13.2-4.8,9.1-8.7Z"/>
  <path class="st14" d="M316.3,309.6l-5.6,78"/>
  <path class="st22" d="M317.2,309.7c0-.5-.3-.9-.8-1s-.9.3-1,.8h1.8Z"/>
  <path class="st22" d="M317,388.1l-7.2,12.1-5.4-13,12.6.9Z"/>
  <path class="st16" d="M506.2,424.9l-170.2-9.3"/>
  <path class="st36" d="M506.2,426.2c.7,0,1.3-.5,1.4-1.2s-.5-1.3-1.2-1.4v2.6Z"/>
  <path class="st36" d="M335.7,422.3l-13-7.4,13.7-5.9-.7,13.3Z"/>
  <path class="st16" d="M411.5,348.6l-79.7,50.9"/>
  <path class="st36" d="M412.2,349.6c.6-.4.8-1.2.4-1.8s-1.2-.8-1.8-.4l1.4,2.2Z"/>
  <path class="st36" d="M335.4,405.1l-14.8,1.6,7.7-12.8,7.2,11.3Z"/>
  <path class="st8" d="M369.6,506.5l-46.1-70.2"/>
  <path class="st31" d="M368.8,507c.3.4.9.6,1.3.3s.6-.9.3-1.3l-1.6,1Z"/>
  <path class="st31" d="M318.2,439.8l-1.7-14.1,12.3,7.1-10.6,7Z"/>
  <path class="st16" d="M345.5,183.9l-32.3,203.3"/>
  <path class="st36" d="M346.7,184.1c.1-.7-.4-1.4-1.1-1.5s-1.4.4-1.5,1.1l2.5.4Z"/>
  <path class="st36" d="M319.7,388.3l-8.7,12.1-4.5-14.2,13.2,2.1Z"/>
  <path class="st13" d="M545.5,234.3l-186.7,39.8"/>
  <path class="st44" d="M545.8,235.8c.8-.2,1.4-1,1.2-1.9s-1-1.4-1.9-1.2l.7,3.1Z"/>
  <path class="st44" d="M360.2,280.8l-15.1-3.9,12.2-9.7,2.9,13.6Z"/>
  <path class="st6" d="M549.2,221.4l-85.9-132.1"/>
  <path class="st39" d="M548.4,221.9c.3.4.8.5,1.2.3s.5-.8.3-1.2l-1.5,1Z"/>
  <path class="st39" d="M458,92.7l-1.6-14,12.1,7.1-10.5,6.9Z"/>
  <path class="st18" d="M335.2,255.7l105.1-166.8"/>
  <path class="st1" d="M334.7,255.4c-.2.3,0,.7.2.8s.7,0,.8-.2l-1-.6Z"/>
  <path class="st1" d="M435.2,85.7l11.5-7-1.3,13.3-10.1-6.4Z"/>
  <path class="st16" d="M533.3,413.3l110.2-104.2"/>
  <path class="st36" d="M532.4,412.3c-.5.5-.5,1.3,0,1.8s1.3.5,1.8,0l-1.8-1.9Z"/>
  <path class="st36" d="M638.9,304.2l14.3-4.3-5.1,14-9.2-9.7Z"/>
  <path class="st16" d="M506.2,415.9l-150.1-106.4"/>
  <path class="st36" d="M505.5,416.9c.6.4,1.4.3,1.8-.3s.3-1.4-.3-1.8l-1.5,2.1Z"/>
  <path class="st36" d="M352.2,315l-7-13.2,14.8,2.3-7.7,10.9Z"/>
  <path class="st16" d="M506.2,435.2l-99.9,68.6"/>
  <path class="st36" d="M507,436.3c.6-.4.7-1.2.3-1.8s-1.2-.7-1.8-.3l1.5,2.1Z"/>
  <path class="st36" d="M410.1,509.3l-14.8,2.1,7.2-13.1,7.6,11Z"/>
  <path class="st16" d="M445.8,334.3l192-36.5"/>
  <path class="st36" d="M445.6,333.1c-.7.1-1.2.8-1,1.5s.8,1.2,1.5,1l-.5-2.5Z"/>
  <path class="st36" d="M636.5,291.3l14.4,4.1-11.9,9.1-2.5-13.1Z"/>
  <path class="st9" d="M238.5,436.9c43.4,6.2,97.1,33,119.8,59.8"/>
  <path class="st35" d="M238.7,435.8c-.6,0-1.2.4-1.3,1s.4,1.2,1,1.3l.3-2.3Z"/>
  <path class="st35" d="M363.3,492.5l3.5,14.2-13.5-5.8,10-8.5Z"/>
  <path class="st7" d="M339.2,309.6c34.2,43.8,54.4,126.3,45.1,184.2"/>
  <path class="st32" d="M340,308.9c-.4-.5-1-.5-1.5-.2s-.5,1-.2,1.5l1.6-1.3Z"/>
  <path class="st32" d="M390.7,494.8l-8.4,11.7-4.3-13.7,12.7,2Z"/>
  <path class="st11" d="M364.3,513.5l-114.3-63.2"/>
  <path class="st45" d="M363.7,514.5c.6.3,1.3.1,1.6-.5s.1-1.3-.5-1.6l-1.1,2Z"/>
  <path class="st45" d="M246.8,456l-8.3-12.1,14.6.6-6.3,11.5Z"/>
  <path class="st20" d="M375.8,506.5l-47.4-184.4"/>
  <path class="st24" d="M374.8,506.8c.1.6.7.9,1.3.8s.9-.7.8-1.3l-2,.5Z"/>
  <path class="st24" d="M322.1,323.7l3-14.1,9.4,10.9-12.5,3.2Z"/>
  <path class="st16" d="M197.9,227.5l201.6,96.1"/>
  <path class="st36" d="M198.4,226.4c-.6-.3-1.4,0-1.7.6s0,1.4.6,1.7l1.1-2.3Z"/>
  <path class="st36" d="M402.3,317.6l9.2,11.8-14.9.3,5.7-12.1Z"/>
  <path class="st16" d="M345.2,296.1l54.4,27"/>
  <path class="st36" d="M345.8,294.9c-.6-.3-1.4,0-1.7.6s0,1.4.6,1.7l1.1-2.3Z"/>
  <path class="st36" d="M402.5,317.1l9,11.9h-14.9s5.9-11.9,5.9-11.9Z"/>
  <path class="st16" d="M352.4,183.9l61.8,124.6"/>
  <path class="st36" d="M353.6,183.3c-.3-.6-1.1-.9-1.7-.6s-.9,1.1-.6,1.7l2.3-1.1Z"/>
  <path class="st36" d="M420.2,305.5v14.9c0,0-12-9-12-9l12-5.9Z"/>
  <path class="st16" d="M411.5,345.6l-160.9,75.2"/>
  <path class="st36" d="M412,346.8c.6-.3.9-1.1.6-1.7s-1.1-.9-1.7-.6l1.1,2.3Z"/>
  <path class="st36" d="M253.4,426.8l-14.9-.4,9.3-11.7,5.7,12.1Z"/>
  <path class="st16" d="M238,419.6c40-35.7,111.8-70.4,160.3-77.6"/>
  <path class="st36" d="M237.1,418.6c-.5.5-.6,1.3-.1,1.8s1.3.6,1.8.1l-1.7-1.9Z"/>
  <path class="st36" d="M397.3,335.4l14.2,4.7-12.2,8.5-1.9-13.2Z"/>
  <path class="st17" d="M206,418.1l-114.8-122.2"/>
  <path class="st30" d="M205.1,418.9c.4.5,1.2.5,1.6,0s.5-1.2,0-1.6l-1.7,1.6Z"/>
  <path class="st30" d="M86.4,300.4l-4.2-14,13.7,5.1-9.5,9Z"/>
  <path class="st15" d="M291.3,282.4l-193.4-2.3"/>
  <path class="st48" d="M291.3,283.4c.6,0,1-.5,1-1s-.5-1-1-1v2.1Z"/>
  <path class="st48" d="M97.8,286.5l-12.8-6.6,12.9-6.3-.2,12.9Z"/>
  <path class="st10" d="M232.3,417.3l61.7-96.6"/>
  <path class="st27" d="M231.3,416.7c-.3.5-.2,1.2.4,1.6s1.2.2,1.6-.4l-1.9-1.2Z"/>
  <path class="st27" d="M288.5,317.2l12.6-7.5-1.5,14.6-11-7Z"/>
  <path class="st12" d="M317.5,309.6c-1.2,43-31.3,92.5-67.3,110.4"/>
  <path class="st23" d="M318.6,309.7c0-.6-.5-1.2-1.1-1.2s-1.2.5-1.2,1.1h2.3Z"/>
  <path class="st23" d="M253.1,425.9h-14.6s8.8-11.7,8.8-11.7l5.8,11.7Z"/>
  <path class="st5" d="M197.9,227.4l82.6,38"/>
  <path class="st40" d="M198.1,226.9c-.3-.1-.6,0-.7.3s0,.6.3.7l.5-1Z"/>
  <path class="st40" d="M282.9,259.9l8.3,10.4-13.3.4,5-10.8Z"/>
  <path class="st19" d="M181.9,233.1l-73.7,145.9"/>
  <path class="st26" d="M182.8,233.6c.3-.5,0-1.2-.5-1.4s-1.2,0-1.4.5l1.9,1Z"/>
  <path class="st26" d="M113.9,381.9l-11.6,8.6v-14.5c0,0,11.6,5.8,11.6,5.8Z"/>
  <path class="st21" d="M291.3,296.9l-173.9,91.6"/>
  <path class="st0" d="M291.7,297.7c.4-.2.6-.8.4-1.2s-.8-.6-1.2-.4l.8,1.6Z"/>
  <path class="st0" d="M120.3,394l-14.1.3,8.2-11.4,5.9,11.1Z"/>
  <path class="st4" d="M218.5,56.8c0,4.5-3.6,8.1-8.1,8.1s-8.1-3.6-8.1-8.1,3.6-8.1,8.1-8.1,8.1,3.6,8.1,8.1Z"/>
  <path class="st25" d="M218.5,56.8c0,4.5-3.6,8.1-8.1,8.1s-8.1-3.6-8.1-8.1,3.6-8.1,8.1-8.1,8.1,3.6,8.1,8.1Z"/>
  <text class="st33" transform="translate(150.6 40.2)"><tspan x="0" y="0">Tfap2c</tspan></text>
  <path class="st4" d="M728.3,404.3c0,4.5-3.6,8.1-8.1,8.1s-8.1-3.6-8.1-8.1,3.6-8.1,8.1-8.1,8.1,3.6,8.1,8.1Z"/>
  <path class="st2" d="M728.3,404.3c0,4.5-3.6,8.1-8.1,8.1s-8.1-3.6-8.1-8.1,3.6-8.1,8.1-8.1,8.1,3.6,8.1,8.1Z"/>
  <text class="st33" transform="translate(686.4 387.7)"><tspan x="0" y="0">Tdh</tspan></text>
  <path class="st4" d="M321.9,414.1c0,7.2-5.8,13-13,13s-13-5.8-13-13,5.8-13,13-13,13,5.8,13,13Z"/>
  <path class="st25" d="M321.9,414.1c0,7.2-5.8,13-13,13s-13-5.8-13-13,5.8-13,13-13,13,5.8,13,13Z"/>
  <text class="st33" transform="translate(260.9 392.6)"><tspan x="0" y="0">Mylpf</tspan></text>
  <path class="st4" d="M546.4,224.7v14.6c0,1.3,1.1,2.4,2.4,2.4h14.6c1.3,0,2.4-1.1,2.4-2.4v-14.6c0-1.3-1.1-2.4-2.4-2.4h-14.6c-1.3,0-2.4,1.1-2.4,2.4Z"/>
  <path class="st43" d="M546.4,224.7v14.6c0,1.3,1.1,2.4,2.4,2.4h14.6c1.3,0,2.4-1.1,2.4-2.4v-14.6c0-1.3-1.1-2.4-2.4-2.4h-14.6c-1.3,0-2.4,1.1-2.4,2.4Z"/>
  <text class="st33" transform="translate(463.5 213.8)"><tspan x="0" y="0">Nr6a1_TFA</tspan></text>
  <path class="st4" d="M459.6,71.2c0,4.5-3.6,8.1-8.1,8.1s-8.1-3.6-8.1-8.1,3.6-8.1,8.1-8.1,8.1,3.6,8.1,8.1Z"/>
  <path class="st42" d="M459.6,71.2c0,4.5-3.6,8.1-8.1,8.1s-8.1-3.6-8.1-8.1,3.6-8.1,8.1-8.1,8.1,3.6,8.1,8.1Z"/>
  <text class="st33" transform="translate(412.7 54.6)"><tspan x="0" y="0">Fgf4</tspan></text>
  <path class="st4" d="M507.1,416v19.5c0,1.8,1.5,3.2,3.2,3.2h19.5c1.8,0,3.2-1.5,3.2-3.2v-19.5c0-1.8-1.5-3.2-3.2-3.2h-19.5c-1.8,0-3.2,1.5-3.2,3.2Z"/>
  <path class="st34" d="M507.1,416v19.5c0,1.8,1.5,3.2,3.2,3.2h19.5c1.8,0,3.2-1.5,3.2-3.2v-19.5c0-1.8-1.5-3.2-3.2-3.2h-19.5c-1.8,0-3.2,1.5-3.2,3.2Z"/>
  <text class="st33" transform="translate(475.2 404.2)"><tspan x="0" y="0">Esrrb</tspan></text>
  <path class="st4" d="M667.8,293.7c0,4.5-3.6,8.1-8.1,8.1s-8.1-3.6-8.1-8.1,3.6-8.1,8.1-8.1,8.1,3.6,8.1,8.1Z"/>
  <path class="st3" d="M667.8,293.7c0,4.5-3.6,8.1-8.1,8.1s-8.1-3.6-8.1-8.1,3.6-8.1,8.1-8.1,8.1,3.6,8.1,8.1Z"/>
  <text class="st33" transform="translate(591.4 277.1)"><tspan x="0" y="0">Fam25c</tspan></text>
  <path class="st4" d="M365.2,511.1v21.9c0,2,1.6,3.7,3.7,3.7h21.9c2,0,3.7-1.6,3.7-3.7v-21.9c0-2-1.6-3.7-3.7-3.7h-21.9c-2,0-3.7,1.6-3.7,3.7Z"/>
  <path class="st41" d="M365.2,511.1v21.9c0,2,1.6,3.7,3.7,3.7h21.9c2,0,3.7-1.6,3.7-3.7v-21.9c0-2-1.6-3.7-3.7-3.7h-21.9c-2,0-3.7,1.6-3.7,3.7Z"/>
  <text class="st33" transform="translate(313.4 498.9)"><tspan x="0" y="0">Tfcp2l1</tspan></text>
  <path class="st4" d="M412.4,325.4v24.4c0,2.2,1.8,4.1,4.1,4.1h24.4c2.2,0,4.1-1.8,4.1-4.1v-24.4c0-2.2-1.8-4.1-4.1-4.1h-24.4c-2.2,0-4.1,1.8-4.1,4.1Z"/>
  <path class="st34" d="M412.4,325.4v24.4c0,2.2,1.8,4.1,4.1,4.1h24.4c2.2,0,4.1-1.8,4.1-4.1v-24.4c0-2.2-1.8-4.1-4.1-4.1h-24.4c-2.2,0-4.1,1.8-4.1,4.1Z"/>
  <text class="st33" transform="translate(371.3 312.9)"><tspan x="0" y="0">Dppa3</tspan></text>
  <path class="st4" d="M337.4,165.9v14.6c0,1.3,1.1,2.4,2.4,2.4h14.6c1.3,0,2.4-1.1,2.4-2.4v-14.6c0-1.3-1.1-2.4-2.4-2.4h-14.6c-1.3,0-2.4,1.1-2.4,2.4Z"/>
  <path class="st37" d="M337.4,165.9v14.6c0,1.3,1.1,2.4,2.4,2.4h14.6c1.3,0,2.4-1.1,2.4-2.4v-14.6c0-1.3-1.1-2.4-2.4-2.4h-14.6c-1.3,0-2.4,1.1-2.4,2.4Z"/>
  <text class="st33" transform="translate(279.9 155)"><tspan x="0" y="0">Dppa5a</tspan></text>
  <path class="st4" d="M84.1,279.8c0,4.5-3.6,8.1-8.1,8.1s-8.1-3.6-8.1-8.1,3.6-8.1,8.1-8.1,8.1,3.6,8.1,8.1Z"/>
  <path class="st46" d="M84.1,279.8c0,4.5-3.6,8.1-8.1,8.1s-8.1-3.6-8.1-8.1,3.6-8.1,8.1-8.1,8.1,3.6,8.1,8.1Z"/>
  <text class="st33" transform="translate(41.9 263.2)"><tspan x="0" y="0">Alpl</tspan></text>
  <path class="st4" d="M205.1,422.3v24.4c0,2.2,1.8,4.1,4.1,4.1h24.4c2.2,0,4.1-1.8,4.1-4.1v-24.4c0-2.2-1.8-4.1-4.1-4.1h-24.4c-2.2,0-4.1,1.8-4.1,4.1Z"/>
  <path class="st47" d="M205.1,422.3v24.4c0,2.2,1.8,4.1,4.1,4.1h24.4c2.2,0,4.1-1.8,4.1-4.1v-24.4c0-2.2-1.8-4.1-4.1-4.1h-24.4c-2.2,0-4.1,1.8-4.1,4.1Z"/>
  <text class="st33" transform="translate(188.4 409.7)"><tspan x="0" y="0">Elf3</tspan></text>
  <path class="st4" d="M177.5,215.2v14.6c0,1.3,1.1,2.4,2.4,2.4h14.6c1.3,0,2.4-1.1,2.4-2.4v-14.6c0-1.3-1.1-2.4-2.4-2.4h-14.6c-1.3,0-2.4,1.1-2.4,2.4Z"/>
  <path class="st28" d="M177.5,215.2v14.6c0,1.3,1.1,2.4,2.4,2.4h14.6c1.3,0,2.4-1.1,2.4-2.4v-14.6c0-1.3-1.1-2.4-2.4-2.4h-14.6c-1.3,0-2.4,1.1-2.4,2.4Z"/>
  <text class="st33" transform="translate(100.7 204.3)"><tspan x="0" y="0">Snai2_TFA</tspan></text>
  <path class="st4" d="M106.3,398.5c0,4.5-3.6,8.1-8.1,8.1s-8.1-3.6-8.1-8.1,3.6-8.1,8.1-8.1,8.1,3.6,8.1,8.1Z"/>
  <path class="st29" d="M106.3,398.5c0,4.5-3.6,8.1-8.1,8.1s-8.1-3.6-8.1-8.1,3.6-8.1,8.1-8.1,8.1,3.6,8.1,8.1Z"/>
  <text class="st33" transform="translate(46.7 382)"><tspan x="0" y="0">Alg13</tspan></text>
  <path class="st4" d="M292.2,263.1v39.1c0,3.6,2.9,6.5,6.5,6.5h39.1c3.6,0,6.5-2.9,6.5-6.5v-39.1c0-3.6-2.9-6.5-6.5-6.5h-39.1c-3.6,0-6.5,2.9-6.5,6.5Z"/>
  <path class="st38" d="M292.2,263.1v39.1c0,3.6,2.9,6.5,6.5,6.5h39.1c3.6,0,6.5-2.9,6.5-6.5v-39.1c0-3.6-2.9-6.5-6.5-6.5h-39.1c-3.6,0-6.5,2.9-6.5,6.5Z"/>
  <text class="st33" transform="translate(261.6 248.1)"><tspan x="0" y="0">Nanog</tspan></text>
</svg>