<?xml version="1.0" encoding="UTF-8"?>
<svg id="Layer_1" xmlns="http://www.w3.org/2000/svg" xmlns:ev="http://www.w3.org/2001/xml-events" version="1.1" viewBox="0 0 795 543">
  <!-- Generator: Adobe Illustrator 29.0.1, SVG Export Plug-In . SVG Version: 2.1.0 Build 192)  -->
  <defs>
    <style>
      .st0 {
        fill: #bbd5e6;
      }

      .st1 {
        stroke: #e6aaa0;
        stroke-width: 3.6px;
      }

      .st1, .st2, .st3, .st4, .st5, .st6, .st7, .st8, .st9, .st10, .st11, .st12, .st13 {
        fill: none;
        stroke-miterlimit: 18;
      }

      .st2 {
        stroke: #000;
        stroke-linecap: round;
        stroke-width: 1.8px;
      }

      .st3 {
        stroke: #4c98c6;
        stroke-width: .8px;
      }

      .st14 {
        fill: #f3f5f6;
      }

      .st15 {
        fill: #f7f6f6;
      }

      .st4 {
        stroke: #c7dde9;
        stroke-width: 2px;
      }

      .st16 {
        fill: #c7dde9;
      }

      .st17 {
        fill: #f0d9d5;
      }

      .st18 {
        fill: #d7e5ee;
      }

      .st5 {
        stroke: #bbd5e6;
        stroke-width: 1.9px;
      }

      .st19 {
        fill: #4c98c6;
      }

      .st6 {
        stroke: #60a3cb;
        stroke-width: 1.2px;
      }

      .st20 {
        fill: #d2e2ec;
      }

      .st21 {
        fill: #edc9c3;
      }

      .st22 {
        fill: #f2f4f6;
      }

      .st23 {
        fill: #f7f5f5;
      }

      .st7 {
        stroke: #d2e2ec;
      }

      .st7, .st10 {
        stroke-width: 2.1px;
      }

      .st24 {
        fill: #60a3cb;
      }

      .st8 {
        stroke: #f7f7f7;
        stroke-width: 2.6px;
      }

      .st9 {
        stroke: #4393c3;
        stroke-width: .4px;
      }

      .st25 {
        font-family: Helvetica, Helvetica;
        font-size: 35.9px;
        isolation: isolate;
      }

      .st26 {
        fill: #f6f3f3;
      }

      .st27 {
        fill: #f7f7f7;
      }

      .st28 {
        fill: #e6aaa0;
      }

      .st10 {
        stroke: #d7e5ee;
      }

      .st11 {
        stroke: #e7eef3;
        stroke-width: 2.4px;
      }

      .st12 {
        stroke: #f3f5f6;
        stroke-width: 2.3px;
      }

      .st29 {
        fill: #eff3f5;
      }

      .st13 {
        stroke: #f2f4f6;
        stroke-width: 2.3px;
      }

      .st30 {
        fill: #f6f4f4;
      }

      .st31 {
        fill: #4393c3;
      }

      .st32 {
        fill: #e7eef3;
      }
    </style>
  </defs>
  <path class="st8" d="M336.7,164.3l-109.3-93.1"/>
  <path class="st27" d="M335.9,165.3c.5.5,1.4.4,1.8-.1s.4-1.4-.1-1.8l-1.7,2Z"/>
  <path class="st27" d="M223.1,76.3l-5.8-13.7,14.5,3.6-8.7,10.2Z"/>
  <path class="st8" d="M305.4,255.7l-85.3-178.8"/>
  <path class="st27" d="M304.2,256.3c.3.6,1.1.9,1.7.6s.9-1.1.6-1.7l-2.3,1.1Z"/>
  <path class="st27" d="M214,79.8l.3-14.9,11.8,9.2-12.1,5.8Z"/>
  <path class="st8" d="M565.6,242l139.1,146.1"/>
  <path class="st27" d="M566.6,241.1c-.5-.5-1.3-.5-1.8,0s-.5,1.3,0,1.8l1.9-1.8Z"/>
  <path class="st27" d="M709.6,383.5l4.4,14.3-14-5.1,9.7-9.2Z"/>
  <path class="st8" d="M534,424.2l164-17.6"/>
  <path class="st27" d="M533.9,422.9c-.7,0-1.2.7-1.1,1.4s.7,1.2,1.4,1.1l-.3-2.6Z"/>
  <path class="st27" d="M697.3,400l14,5.2-12.6,8.1-1.4-13.3Z"/>
  <path class="st4" d="M369.6,506.5l-46.1-70.1"/>
  <path class="st16" d="M368.7,507.1c.3.5.9.6,1.4.3s.6-.9.3-1.4l-1.7,1.1Z"/>
  <path class="st16" d="M318.2,439.9l-1.7-14.2,12.4,7.2-10.7,7Z"/>
  <path class="st8" d="M411.5,348.6l-79.7,50.9"/>
  <path class="st27" d="M412.2,349.6c.6-.4.8-1.2.4-1.8s-1.2-.8-1.8-.4l1.4,2.2Z"/>
  <path class="st27" d="M335.4,405.1l-14.8,1.6,7.7-12.8,7.2,11.3Z"/>
  <path class="st12" d="M506.2,424.9l-170.4-9.4"/>
  <path class="st14" d="M506.2,426.1c.6,0,1.2-.5,1.2-1.1s-.5-1.2-1.1-1.2v2.3Z"/>
  <path class="st14" d="M335.4,422.1l-12.7-7.2,13.4-5.8-.7,13.1Z"/>
  <path class="st5" d="M316.3,309.6l-5.6,78"/>
  <path class="st0" d="M317.2,309.7c0-.5-.3-1-.9-1s-1,.3-1,.9h1.9Z"/>
  <path class="st0" d="M317.1,388.1l-7.2,12.2-5.4-13.1,12.6.9Z"/>
  <path class="st8" d="M345.5,183.9l-32.3,203.3"/>
  <path class="st27" d="M346.7,184.1c.1-.7-.4-1.4-1.1-1.5s-1.4.4-1.5,1.1l2.5.4Z"/>
  <path class="st27" d="M319.7,388.3l-8.7,12.1-4.5-14.2,13.2,2.1Z"/>
  <path class="st8" d="M549.2,221.4l-85.5-131.5"/>
  <path class="st27" d="M548.1,222.1c.4.6,1.2.8,1.8.4s.8-1.2.4-1.8l-2.2,1.4Z"/>
  <path class="st27" d="M458.1,93.5l-1.7-14.8,12.9,7.6-11.2,7.3Z"/>
  <path class="st3" d="M545.5,234.3l-188.9,40.3"/>
  <path class="st19" d="M545.6,234.7c.2,0,.4-.3.3-.5s-.3-.4-.5-.3l.2.8Z"/>
  <path class="st19" d="M357.8,280.2l-12.6-3.3,10.1-8.1,2.4,11.4Z"/>
  <path class="st8" d="M335.2,255.7l104.4-165.7"/>
  <path class="st27" d="M334.1,255c-.4.6-.2,1.4.4,1.8s1.4.2,1.8-.4l-2.2-1.4Z"/>
  <path class="st27" d="M433.9,86.5l12.8-7.7-1.5,14.9-11.3-7.1Z"/>
  <path class="st13" d="M506.2,415.9l-150.3-106.5"/>
  <path class="st22" d="M505.6,416.8c.5.4,1.3.2,1.6-.3s.2-1.3-.3-1.6l-1.4,1.9Z"/>
  <path class="st22" d="M352.1,314.7l-6.9-12.9,14.5,2.2-7.6,10.7Z"/>
  <path class="st8" d="M533.3,413.3l110.2-104.2"/>
  <path class="st27" d="M532.4,412.3c-.5.5-.5,1.3,0,1.8s1.3.5,1.8,0l-1.8-1.9Z"/>
  <path class="st27" d="M638.9,304.2l14.3-4.3-5.1,14-9.2-9.7Z"/>
  <path class="st11" d="M506.2,435.2l-100.1,68.7"/>
  <path class="st32" d="M506.9,436.2c.5-.4.7-1.1.3-1.7s-1.1-.7-1.7-.3l1.4,2Z"/>
  <path class="st32" d="M409.9,509.4l-14.6,2,7.1-12.9,7.5,10.9Z"/>
  <path class="st8" d="M445.8,334.3l192-36.5"/>
  <path class="st27" d="M445.6,333.1c-.7.1-1.2.8-1,1.5s.8,1.2,1.5,1l-.5-2.5Z"/>
  <path class="st27" d="M636.5,291.3l14.4,4.1-11.9,9.1-2.5-13.1Z"/>
  <path class="st7" d="M339.2,309.6c34.2,43.8,54.4,126.3,45.1,184.2"/>
  <path class="st20" d="M340.1,308.9c-.4-.5-1-.5-1.5-.2s-.5,1-.2,1.5l1.7-1.3Z"/>
  <path class="st20" d="M390.7,494.8l-8.4,11.7-4.3-13.7,12.7,2.1Z"/>
  <path class="st10" d="M375.8,506.5l-47.4-184.4"/>
  <path class="st18" d="M374.8,506.8c.1.6.7.9,1.3.8s.9-.7.8-1.3l-2,.5Z"/>
  <path class="st18" d="M322.1,323.7l3-14.1,9.5,10.9-12.5,3.2Z"/>
  <path class="st8" d="M238.5,436.9c43.4,6.2,97,32.9,119.7,59.7"/>
  <path class="st27" d="M238.7,435.7c-.7-.1-1.4.4-1.5,1.1s.4,1.4,1.1,1.5l.4-2.5Z"/>
  <path class="st27" d="M363.3,492.3l3.5,14.5-13.7-5.9,10.2-8.6Z"/>
  <path class="st8" d="M364.3,513.5l-114.1-63.1"/>
  <path class="st27" d="M363.6,514.6c.6.3,1.4.1,1.7-.5s.1-1.4-.5-1.7l-1.2,2.3Z"/>
  <path class="st27" d="M246.9,456.3l-8.5-12.3,14.9.6-6.5,11.7Z"/>
  <path class="st8" d="M411.5,345.6l-160.9,75.2"/>
  <path class="st27" d="M412,346.8c.6-.3.9-1.1.6-1.7s-1.1-.9-1.7-.6l1.1,2.3Z"/>
  <path class="st27" d="M253.4,426.8l-14.9-.4,9.3-11.7,5.7,12.1Z"/>
  <path class="st8" d="M197.9,227.5l201.6,96.1"/>
  <path class="st27" d="M198.4,226.4c-.6-.3-1.4,0-1.7.6s0,1.4.6,1.7l1.1-2.3Z"/>
  <path class="st27" d="M402.3,317.6l9.2,11.8-14.9.3,5.7-12.1Z"/>
  <path class="st8" d="M238,419.6c40-35.7,111.8-70.4,160.3-77.6"/>
  <path class="st27" d="M237.1,418.6c-.5.5-.6,1.3-.1,1.8s1.3.6,1.8.1l-1.7-1.9Z"/>
  <path class="st27" d="M397.3,335.4l14.2,4.7-12.2,8.5-1.9-13.2Z"/>
  <path class="st8" d="M352.4,183.9l61.8,124.6"/>
  <path class="st27" d="M353.6,183.3c-.3-.6-1.1-.9-1.7-.6s-.9,1.1-.6,1.7l2.3-1.1Z"/>
  <path class="st27" d="M420.2,305.5v14.9c0,0-12-9-12-9l12-5.9Z"/>
  <path class="st8" d="M345.2,296.1l54.4,27"/>
  <path class="st27" d="M345.8,294.9c-.6-.3-1.4,0-1.7.6s0,1.4.6,1.7l1.1-2.3Z"/>
  <path class="st27" d="M402.5,317.1l9,11.9h-14.9s5.9-11.9,5.9-11.9Z"/>
  <path class="st8" d="M206,418.1l-114.6-122"/>
  <path class="st27" d="M205,419c.5.5,1.3.5,1.8,0s.5-1.3,0-1.8l-1.9,1.8Z"/>
  <path class="st27" d="M86.5,300.7l-4.3-14.3,14,5.2-9.7,9.1Z"/>
  <path class="st8" d="M291.3,282.4l-192.9-2.3"/>
  <path class="st27" d="M291.2,283.6c.7,0,1.3-.6,1.3-1.3s-.6-1.3-1.3-1.3v2.6Z"/>
  <path class="st27" d="M98.3,286.8l-13.3-6.8,13.4-6.5-.2,13.4Z"/>
  <path class="st8" d="M317.5,309.6c-1.2,43-31.2,92.4-67,110.3"/>
  <path class="st27" d="M318.7,309.7c0-.7-.5-1.3-1.2-1.3s-1.3.5-1.3,1.2h2.6Z"/>
  <path class="st27" d="M253.4,425.9h-14.9s9-11.9,9-11.9l6,11.9Z"/>
  <path class="st8" d="M232.3,417.3l61.5-96.4"/>
  <path class="st27" d="M231.2,416.6c-.4.6-.2,1.4.4,1.8s1.4.2,1.8-.4l-2.2-1.4Z"/>
  <path class="st27" d="M288.2,317.3l12.8-7.7-1.6,14.9-11.3-7.2Z"/>
  <path class="st1" d="M181.9,233.1l-73.1,144.6"/>
  <path class="st28" d="M183.5,233.9c.4-.9,0-2-.8-2.4s-2,0-2.4.8l3.2,1.6Z"/>
  <path class="st28" d="M115.2,380.9l-12.9,9.6v-16.1c0,0,12.9,6.5,12.9,6.5Z"/>
  <path class="st6" d="M197.9,227.4l82.5,37.9"/>
  <path class="st24" d="M198.1,226.8c-.3-.1-.6,0-.8.3s0,.6.3.8l.5-1.1Z"/>
  <path class="st24" d="M282.9,259.9l8.4,10.4-13.4.4,5-10.9Z"/>
  <path class="st9" d="M291.3,296.9l-175.2,92.3"/>
  <path class="st31" d="M291.3,297c0,0,.1-.2,0-.2s-.2-.1-.2,0l.2.3Z"/>
  <path class="st31" d="M118.7,394.1l-12.5.3,7.3-10.1,5.2,9.9Z"/>
  <path class="st2" d="M218.5,56.8c0,4.5-3.6,8.1-8.1,8.1s-8.1-3.6-8.1-8.1,3.6-8.1,8.1-8.1,8.1,3.6,8.1,8.1Z"/>
  <path class="st30" d="M218.5,56.8c0,4.5-3.6,8.1-8.1,8.1s-8.1-3.6-8.1-8.1,3.6-8.1,8.1-8.1,8.1,3.6,8.1,8.1Z"/>
  <text class="st25" transform="translate(150.6 40.2)"><tspan x="0" y="0">Tfap2c</tspan></text>
  <path class="st2" d="M728.3,404.3c0,4.5-3.6,8.1-8.1,8.1s-8.1-3.6-8.1-8.1,3.6-8.1,8.1-8.1,8.1,3.6,8.1,8.1Z"/>
  <path class="st26" d="M728.3,404.3c0,4.5-3.6,8.1-8.1,8.1s-8.1-3.6-8.1-8.1,3.6-8.1,8.1-8.1,8.1,3.6,8.1,8.1Z"/>
  <text class="st25" transform="translate(686.4 387.7)"><tspan x="0" y="0">Tdh</tspan></text>
  <path class="st2" d="M321.9,414.1c0,7.2-5.8,13-13,13s-13-5.8-13-13,5.8-13,13-13,13,5.8,13,13Z"/>
  <path class="st23" d="M321.9,414.1c0,7.2-5.8,13-13,13s-13-5.8-13-13,5.8-13,13-13,13,5.8,13,13Z"/>
  <text class="st25" transform="translate(260.9 392.6)"><tspan x="0" y="0">Mylpf</tspan></text>
  <path class="st2" d="M546.4,224.7v14.6c0,1.3,1.1,2.4,2.4,2.4h14.6c1.3,0,2.4-1.1,2.4-2.4v-14.6c0-1.3-1.1-2.4-2.4-2.4h-14.6c-1.3,0-2.4,1.1-2.4,2.4Z"/>
  <path class="st17" d="M546.4,224.7v14.6c0,1.3,1.1,2.4,2.4,2.4h14.6c1.3,0,2.4-1.1,2.4-2.4v-14.6c0-1.3-1.1-2.4-2.4-2.4h-14.6c-1.3,0-2.4,1.1-2.4,2.4Z"/>
  <text class="st25" transform="translate(463.5 213.8)"><tspan x="0" y="0">Nr6a1_TFA</tspan></text>
  <path class="st2" d="M459.6,71.2c0,4.5-3.6,8.1-8.1,8.1s-8.1-3.6-8.1-8.1,3.6-8.1,8.1-8.1,8.1,3.6,8.1,8.1Z"/>
  <path class="st30" d="M459.6,71.2c0,4.5-3.6,8.1-8.1,8.1s-8.1-3.6-8.1-8.1,3.6-8.1,8.1-8.1,8.1,3.6,8.1,8.1Z"/>
  <text class="st25" transform="translate(412.7 54.6)"><tspan x="0" y="0">Fgf4</tspan></text>
  <path class="st2" d="M507.1,416v19.5c0,1.8,1.5,3.2,3.2,3.2h19.5c1.8,0,3.2-1.5,3.2-3.2v-19.5c0-1.8-1.5-3.2-3.2-3.2h-19.5c-1.8,0-3.2,1.5-3.2,3.2Z"/>
  <path class="st27" d="M507.1,416v19.5c0,1.8,1.5,3.2,3.2,3.2h19.5c1.8,0,3.2-1.5,3.2-3.2v-19.5c0-1.8-1.5-3.2-3.2-3.2h-19.5c-1.8,0-3.2,1.5-3.2,3.2Z"/>
  <text class="st25" transform="translate(475.2 404.2)"><tspan x="0" y="0">Esrrb</tspan></text>
  <path class="st2" d="M667.8,293.7c0,4.5-3.6,8.1-8.1,8.1s-8.1-3.6-8.1-8.1,3.6-8.1,8.1-8.1,8.1,3.6,8.1,8.1Z"/>
  <path class="st15" d="M667.8,293.7c0,4.5-3.6,8.1-8.1,8.1s-8.1-3.6-8.1-8.1,3.6-8.1,8.1-8.1,8.1,3.6,8.1,8.1Z"/>
  <text class="st25" transform="translate(591.4 277.1)"><tspan x="0" y="0">Fam25c</tspan></text>
  <path class="st2" d="M365.2,511.1v21.9c0,2,1.6,3.7,3.7,3.7h21.9c2,0,3.7-1.6,3.7-3.7v-21.9c0-2-1.6-3.7-3.7-3.7h-21.9c-2,0-3.7,1.6-3.7,3.7Z"/>
  <path class="st30" d="M365.2,511.1v21.9c0,2,1.6,3.7,3.7,3.7h21.9c2,0,3.7-1.6,3.7-3.7v-21.9c0-2-1.6-3.7-3.7-3.7h-21.9c-2,0-3.7,1.6-3.7,3.7Z"/>
  <text class="st25" transform="translate(313.4 498.9)"><tspan x="0" y="0">Tfcp2l1</tspan></text>
  <path class="st2" d="M412.4,325.4v24.4c0,2.2,1.8,4.1,4.1,4.1h24.4c2.2,0,4.1-1.8,4.1-4.1v-24.4c0-2.2-1.8-4.1-4.1-4.1h-24.4c-2.2,0-4.1,1.8-4.1,4.1Z"/>
  <path class="st27" d="M412.4,325.4v24.4c0,2.2,1.8,4.1,4.1,4.1h24.4c2.2,0,4.1-1.8,4.1-4.1v-24.4c0-2.2-1.8-4.1-4.1-4.1h-24.4c-2.2,0-4.1,1.8-4.1,4.1Z"/>
  <text class="st25" transform="translate(371.3 312.9)"><tspan x="0" y="0">Dppa3</tspan></text>
  <path class="st2" d="M337.4,165.9v14.6c0,1.3,1.1,2.4,2.4,2.4h14.6c1.3,0,2.4-1.1,2.4-2.4v-14.6c0-1.3-1.1-2.4-2.4-2.4h-14.6c-1.3,0-2.4,1.1-2.4,2.4Z"/>
  <path class="st27" d="M337.4,165.9v14.6c0,1.3,1.1,2.4,2.4,2.4h14.6c1.3,0,2.4-1.1,2.4-2.4v-14.6c0-1.3-1.1-2.4-2.4-2.4h-14.6c-1.3,0-2.4,1.1-2.4,2.4Z"/>
  <text class="st25" transform="translate(279.9 155)"><tspan x="0" y="0">Dppa5a</tspan></text>
  <path class="st2" d="M84.1,279.8c0,4.5-3.6,8.1-8.1,8.1s-8.1-3.6-8.1-8.1,3.6-8.1,8.1-8.1,8.1,3.6,8.1,8.1Z"/>
  <path class="st23" d="M84.1,279.8c0,4.5-3.6,8.1-8.1,8.1s-8.1-3.6-8.1-8.1,3.6-8.1,8.1-8.1,8.1,3.6,8.1,8.1Z"/>
  <text class="st25" transform="translate(41.9 263.2)"><tspan x="0" y="0">Alpl</tspan></text>
  <path class="st2" d="M205.1,422.3v24.4c0,2.2,1.8,4.1,4.1,4.1h24.4c2.2,0,4.1-1.8,4.1-4.1v-24.4c0-2.2-1.8-4.1-4.1-4.1h-24.4c-2.2,0-4.1,1.8-4.1,4.1Z"/>
  <path class="st15" d="M205.1,422.3v24.4c0,2.2,1.8,4.1,4.1,4.1h24.4c2.2,0,4.1-1.8,4.1-4.1v-24.4c0-2.2-1.8-4.1-4.1-4.1h-24.4c-2.2,0-4.1,1.8-4.1,4.1Z"/>
  <text class="st25" transform="translate(188.4 409.7)"><tspan x="0" y="0">Elf3</tspan></text>
  <path class="st2" d="M177.5,215.2v14.6c0,1.3,1.1,2.4,2.4,2.4h14.6c1.3,0,2.4-1.1,2.4-2.4v-14.6c0-1.3-1.1-2.4-2.4-2.4h-14.6c-1.3,0-2.4,1.1-2.4,2.4Z"/>
  <path class="st29" d="M177.5,215.2v14.6c0,1.3,1.1,2.4,2.4,2.4h14.6c1.3,0,2.4-1.1,2.4-2.4v-14.6c0-1.3-1.1-2.4-2.4-2.4h-14.6c-1.3,0-2.4,1.1-2.4,2.4Z"/>
  <text class="st25" transform="translate(100.7 204.3)"><tspan x="0" y="0">Snai2_TFA</tspan></text>
  <path class="st2" d="M106.3,398.5c0,4.5-3.6,8.1-8.1,8.1s-8.1-3.6-8.1-8.1,3.6-8.1,8.1-8.1,8.1,3.6,8.1,8.1Z"/>
  <path class="st21" d="M106.3,398.5c0,4.5-3.6,8.1-8.1,8.1s-8.1-3.6-8.1-8.1,3.6-8.1,8.1-8.1,8.1,3.6,8.1,8.1Z"/>
  <text class="st25" transform="translate(46.7 382)"><tspan x="0" y="0">Alg13</tspan></text>
  <path class="st2" d="M292.2,263.1v39.1c0,3.6,2.9,6.5,6.5,6.5h39.1c3.6,0,6.5-2.9,6.5-6.5v-39.1c0-3.6-2.9-6.5-6.5-6.5h-39.1c-3.6,0-6.5,2.9-6.5,6.5Z"/>
  <path class="st30" d="M292.2,263.1v39.1c0,3.6,2.9,6.5,6.5,6.5h39.1c3.6,0,6.5-2.9,6.5-6.5v-39.1c0-3.6-2.9-6.5-6.5-6.5h-39.1c-3.6,0-6.5,2.9-6.5,6.5Z"/>
  <text class="st25" transform="translate(261.6 248.1)"><tspan x="0" y="0">Nanog</tspan></text>
</svg>