<?xml version="1.0" standalone="no"?><!DOCTYPE svg PUBLIC "-//W3C//DTD SVG 1.1//EN" "http://www.w3.org/Graphics/SVG/1.1/DTD/svg11.dtd">
<svg width="428.6" height="344.2" version="1.1" xmlns="http://www.w3.org/2000/svg">
<text xml:space="preserve" x="184.6" y="223.2" font-family="Calibri" font-size="8" text-anchor="end">KD_rnaseq</text>
<text xml:space="preserve" x="184.6" y="231.2" font-family="Calibri" font-size="8" text-anchor="end">chip_rnaseq</text>
<text xml:space="preserve" x="184.6" y="239.2" font-family="Calibri" font-size="8" text-anchor="end">chip_KD_rnaseq</text>
<text xml:space="preserve" x="184.6" y="247.2" font-family="Calibri" font-size="8" text-anchor="end">KD_array</text>
<text xml:space="preserve" x="184.6" y="255.2" font-family="Calibri" font-size="8" text-anchor="end">chip_array</text>
<text xml:space="preserve" x="184.6" y="263.2" font-family="Calibri" font-size="8" text-anchor="end">chip_KD_array</text>
<text xml:space="preserve" x="201.6" y="212.2" font-family="Calibri" font-size="8" transform="rotate(270 201.6 212.2)">Unreg_TFA</text>
<text xml:space="preserve" x="221.6" y="212.2" font-family="Calibri" font-size="8" transform="rotate(270 221.6 212.2)">TFA_0005</text>
<text xml:space="preserve" x="241.6" y="212.2" font-family="Calibri" font-size="8" transform="rotate(270 241.6 212.2)">TFA_0020</text>
<text xml:space="preserve" x="261.6" y="212.2" font-family="Calibri" font-size="8" transform="rotate(270 261.6 212.2)">TFA_0100</text>
<text xml:space="preserve" x="291.6" y="212.2" font-family="Calibri" font-size="8" transform="rotate(270 291.6 212.2)">Unreg_TFA_Fscore</text>
<text xml:space="preserve" x="311.6" y="212.2" font-family="Calibri" font-size="8" transform="rotate(270 311.6 212.2)">TFA_0005_Fscore</text>
<text xml:space="preserve" x="331.6" y="212.2" font-family="Calibri" font-size="8" transform="rotate(270 331.6 212.2)">TFA_0020_Fscore</text>
<text xml:space="preserve" x="351.6" y="212.2" font-family="Calibri" font-size="8" transform="rotate(270 351.6 212.2)">TFA_0100_Fscore</text>
<polygon points="188.6,216.2 208.6,216.2 208.6,224.2 188.6,224.2" fill="rgb(254,203,0)"/><text xml:space="preserve" x="198.6" y="223.033" font-family="Calibri" font-size="7.5" fill="rgb(0,0,0)" text-anchor="middle">0.108</text>
<polygon points="208.6,216.2 228.6,216.2 228.6,224.2 208.6,224.2" fill="rgb(255,203,0)"/><text xml:space="preserve" x="218.6" y="223.033" font-family="Calibri" font-size="7.5" fill="rgb(0,0,0)" text-anchor="middle">0.108</text>
<polygon points="228.6,216.2 248.6,216.2 248.6,224.2 228.6,224.2" fill="rgb(255,203,0)"/><text xml:space="preserve" x="238.6" y="223.033" font-family="Calibri" font-size="7.5" fill="rgb(0,0,0)" text-anchor="middle">0.108</text>
<polygon points="248.6,216.2 268.6,216.2 268.6,224.2 248.6,224.2" fill="rgb(255,203,0)"/><text xml:space="preserve" x="258.6" y="223.033" font-family="Calibri" font-size="7.5" fill="rgb(0,0,0)" text-anchor="middle">0.108</text>
<polygon points="278.6,216.2 298.6,216.2 298.6,224.2 278.6,224.2" fill="rgb(139,0,201)"/><text xml:space="preserve" x="288.6" y="223.033" font-family="Calibri" font-size="7.5" fill="rgb(255,255,255)" text-anchor="middle">0.002</text>
<polygon points="298.6,216.2 318.6,216.2 318.6,224.2 298.6,224.2" fill="rgb(139,0,201)"/><text xml:space="preserve" x="308.6" y="223.033" font-family="Calibri" font-size="7.5" fill="rgb(255,255,255)" text-anchor="middle">0.002</text>
<polygon points="318.6,216.2 338.6,216.2 338.6,224.2 318.6,224.2" fill="rgb(139,0,201)"/><text xml:space="preserve" x="328.6" y="223.033" font-family="Calibri" font-size="7.5" fill="rgb(255,255,255)" text-anchor="middle">0.002</text>
<polygon points="338.6,216.2 358.6,216.2 358.6,224.2 338.6,224.2" fill="rgb(139,0,201)"/><text xml:space="preserve" x="348.6" y="223.033" font-family="Calibri" font-size="7.5" fill="rgb(255,255,255)" text-anchor="middle">0.002</text>
<polygon points="188.6,224.2 208.6,224.2 208.6,232.2 188.6,232.2" fill="rgb(255,17,0)"/><text xml:space="preserve" x="198.6" y="231.033" font-family="Calibri" font-size="7.5" fill="rgb(255,255,255)" text-anchor="middle">0.154</text>
<polygon points="208.6,224.2 228.6,224.2 228.6,232.2 208.6,232.2" fill="rgb(255,18,0)"/><text xml:space="preserve" x="218.6" y="231.033" font-family="Calibri" font-size="7.5" fill="rgb(255,255,255)" text-anchor="middle">0.154</text>
<polygon points="228.6,224.2 248.6,224.2 248.6,232.2 228.6,232.2" fill="rgb(255,17,0)"/><text xml:space="preserve" x="238.6" y="231.033" font-family="Calibri" font-size="7.5" fill="rgb(255,255,255)" text-anchor="middle">0.154</text>
<polygon points="248.6,224.2 268.6,224.2 268.6,232.2 248.6,232.2" fill="rgb(255,18,0)"/><text xml:space="preserve" x="258.6" y="231.033" font-family="Calibri" font-size="7.5" fill="rgb(255,255,255)" text-anchor="middle">0.154</text>
<polygon points="278.6,224.2 298.6,224.2 298.6,232.2 278.6,232.2" fill="rgb(136,0,197)"/><text xml:space="preserve" x="288.6" y="231.033" font-family="Calibri" font-size="7.5" fill="rgb(255,255,255)" text-anchor="middle">0.003</text>
<polygon points="298.6,224.2 318.6,224.2 318.6,232.2 298.6,232.2" fill="rgb(136,0,197)"/><text xml:space="preserve" x="308.6" y="231.033" font-family="Calibri" font-size="7.5" fill="rgb(255,255,255)" text-anchor="middle">0.003</text>
<polygon points="318.6,224.2 338.6,224.2 338.6,232.2 318.6,232.2" fill="rgb(136,0,198)"/><text xml:space="preserve" x="328.6" y="231.033" font-family="Calibri" font-size="7.5" fill="rgb(255,255,255)" text-anchor="middle">0.003</text>
<polygon points="338.6,224.2 358.6,224.2 358.6,232.2 338.6,232.2" fill="rgb(136,0,198)"/><text xml:space="preserve" x="348.6" y="231.033" font-family="Calibri" font-size="7.5" fill="rgb(255,255,255)" text-anchor="middle">0.003</text>
<polygon points="188.6,232.2 208.6,232.2 208.6,240.2 188.6,240.2" fill="rgb(114,255,0)"/><text xml:space="preserve" x="198.6" y="239.033" font-family="Calibri" font-size="7.5" fill="rgb(0,0,0)" text-anchor="middle">0.089</text>
<polygon points="208.6,232.2 228.6,232.2 228.6,240.2 208.6,240.2" fill="rgb(118,255,0)"/><text xml:space="preserve" x="218.6" y="239.033" font-family="Calibri" font-size="7.5" fill="rgb(0,0,0)" text-anchor="middle">0.089</text>
<polygon points="228.6,232.2 248.6,232.2 248.6,240.2 228.6,240.2" fill="rgb(120,255,0)"/><text xml:space="preserve" x="238.6" y="239.033" font-family="Calibri" font-size="7.5" fill="rgb(0,0,0)" text-anchor="middle">0.089</text>
<polygon points="248.6,232.2 268.6,232.2 268.6,240.2 248.6,240.2" fill="rgb(124,255,0)"/><text xml:space="preserve" x="258.6" y="239.033" font-family="Calibri" font-size="7.5" fill="rgb(0,0,0)" text-anchor="middle">0.090</text>
<polygon points="278.6,232.2 298.6,232.2 298.6,240.2 278.6,240.2" fill="rgb(133,0,195)"/><text xml:space="preserve" x="288.6" y="239.033" font-family="Calibri" font-size="7.5" fill="rgb(255,255,255)" text-anchor="middle">0.004</text>
<polygon points="298.6,232.2 318.6,232.2 318.6,240.2 298.6,240.2" fill="rgb(132,0,194)"/><text xml:space="preserve" x="308.6" y="239.033" font-family="Calibri" font-size="7.5" fill="rgb(255,255,255)" text-anchor="middle">0.004</text>
<polygon points="318.6,232.2 338.6,232.2 338.6,240.2 318.6,240.2" fill="rgb(133,0,195)"/><text xml:space="preserve" x="328.6" y="239.033" font-family="Calibri" font-size="7.5" fill="rgb(255,255,255)" text-anchor="middle">0.004</text>
<polygon points="338.6,232.2 358.6,232.2 358.6,240.2 338.6,240.2" fill="rgb(131,0,192)"/><text xml:space="preserve" x="348.6" y="239.033" font-family="Calibri" font-size="7.5" fill="rgb(255,255,255)" text-anchor="middle">0.005</text>
<polygon points="188.6,240.2 208.6,240.2 208.6,248.2 188.6,248.2" fill="rgb(255,217,0)"/><text xml:space="preserve" x="198.6" y="247.033" font-family="Calibri" font-size="7.5" fill="rgb(0,0,0)" text-anchor="middle">0.106</text>
<polygon points="208.6,240.2 228.6,240.2 228.6,248.2 208.6,248.2" fill="rgb(255,216,0)"/><text xml:space="preserve" x="218.6" y="247.033" font-family="Calibri" font-size="7.5" fill="rgb(0,0,0)" text-anchor="middle">0.106</text>
<polygon points="228.6,240.2 248.6,240.2 248.6,248.2 228.6,248.2" fill="rgb(255,216,0)"/><text xml:space="preserve" x="238.6" y="247.033" font-family="Calibri" font-size="7.5" fill="rgb(0,0,0)" text-anchor="middle">0.106</text>
<polygon points="248.6,240.2 268.6,240.2 268.6,248.2 248.6,248.2" fill="rgb(255,216,0)"/><text xml:space="preserve" x="258.6" y="247.033" font-family="Calibri" font-size="7.5" fill="rgb(0,0,0)" text-anchor="middle">0.106</text>
<polygon points="278.6,240.2 298.6,240.2 298.6,248.2 278.6,248.2" fill="rgb(141,0,203)"/><text xml:space="preserve" x="288.6" y="247.033" font-family="Calibri" font-size="7.5" fill="rgb(255,255,255)" text-anchor="middle">0.002</text>
<polygon points="298.6,240.2 318.6,240.2 318.6,248.2 298.6,248.2" fill="rgb(140,0,202)"/><text xml:space="preserve" x="308.6" y="247.033" font-family="Calibri" font-size="7.5" fill="rgb(255,255,255)" text-anchor="middle">0.002</text>
<polygon points="318.6,240.2 338.6,240.2 338.6,248.2 318.6,248.2" fill="rgb(140,0,203)"/><text xml:space="preserve" x="328.6" y="247.033" font-family="Calibri" font-size="7.5" fill="rgb(255,255,255)" text-anchor="middle">0.002</text>
<polygon points="338.6,240.2 358.6,240.2 358.6,248.2 338.6,248.2" fill="rgb(140,0,202)"/><text xml:space="preserve" x="348.6" y="247.033" font-family="Calibri" font-size="7.5" fill="rgb(255,255,255)" text-anchor="middle">0.002</text>
<polygon points="188.6,248.2 208.6,248.2 208.6,256.2 188.6,256.2" fill="rgb(255,55,0)"/><text xml:space="preserve" x="198.6" y="255.033" font-family="Calibri" font-size="7.5" fill="rgb(255,255,255)" text-anchor="middle">0.142</text>
<polygon points="208.6,248.2 228.6,248.2 228.6,256.2 208.6,256.2" fill="rgb(255,55,0)"/><text xml:space="preserve" x="218.6" y="255.033" font-family="Calibri" font-size="7.5" fill="rgb(255,255,255)" text-anchor="middle">0.142</text>
<polygon points="228.6,248.2 248.6,248.2 248.6,256.2 228.6,256.2" fill="rgb(255,55,0)"/><text xml:space="preserve" x="238.6" y="255.033" font-family="Calibri" font-size="7.5" fill="rgb(255,255,255)" text-anchor="middle">0.142</text>
<polygon points="248.6,248.2 268.6,248.2 268.6,256.2 248.6,256.2" fill="rgb(255,55,0)"/><text xml:space="preserve" x="258.6" y="255.033" font-family="Calibri" font-size="7.5" fill="rgb(255,255,255)" text-anchor="middle">0.142</text>
<polygon points="278.6,248.2 298.6,248.2 298.6,256.2 278.6,256.2" fill="rgb(137,0,199)"/><text xml:space="preserve" x="288.6" y="255.033" font-family="Calibri" font-size="7.5" fill="rgb(255,255,255)" text-anchor="middle">0.003</text>
<polygon points="298.6,248.2 318.6,248.2 318.6,256.2 298.6,256.2" fill="rgb(137,0,199)"/><text xml:space="preserve" x="308.6" y="255.033" font-family="Calibri" font-size="7.5" fill="rgb(255,255,255)" text-anchor="middle">0.003</text>
<polygon points="318.6,248.2 338.6,248.2 338.6,256.2 318.6,256.2" fill="rgb(137,0,199)"/><text xml:space="preserve" x="328.6" y="255.033" font-family="Calibri" font-size="7.5" fill="rgb(255,255,255)" text-anchor="middle">0.003</text>
<polygon points="338.6,248.2 358.6,248.2 358.6,256.2 338.6,256.2" fill="rgb(137,0,199)"/><text xml:space="preserve" x="348.6" y="255.033" font-family="Calibri" font-size="7.5" fill="rgb(255,255,255)" text-anchor="middle">0.003</text>
<polygon points="188.6,256.2 208.6,256.2 208.6,264.2 188.6,264.2" fill="rgb(104,255,0)"/><text xml:space="preserve" x="198.6" y="263.033" font-family="Calibri" font-size="7.5" fill="rgb(0,0,0)" text-anchor="middle">0.088</text>
<polygon points="208.6,256.2 228.6,256.2 228.6,264.2 208.6,264.2" fill="rgb(110,255,0)"/><text xml:space="preserve" x="218.6" y="263.033" font-family="Calibri" font-size="7.5" fill="rgb(0,0,0)" text-anchor="middle">0.089</text>
<polygon points="228.6,256.2 248.6,256.2 248.6,264.2 228.6,264.2" fill="rgb(107,255,0)"/><text xml:space="preserve" x="238.6" y="263.033" font-family="Calibri" font-size="7.5" fill="rgb(0,0,0)" text-anchor="middle">0.088</text>
<polygon points="248.6,256.2 268.6,256.2 268.6,264.2 248.6,264.2" fill="rgb(111,255,0)"/><text xml:space="preserve" x="258.6" y="263.033" font-family="Calibri" font-size="7.5" fill="rgb(0,0,0)" text-anchor="middle">0.089</text>
<polygon points="278.6,256.2 298.6,256.2 298.6,264.2 278.6,264.2" fill="rgb(134,0,196)"/><text xml:space="preserve" x="288.6" y="263.033" font-family="Calibri" font-size="7.5" fill="rgb(255,255,255)" text-anchor="middle">0.004</text>
<polygon points="298.6,256.2 318.6,256.2 318.6,264.2 298.6,264.2" fill="rgb(133,0,194)"/><text xml:space="preserve" x="308.6" y="263.033" font-family="Calibri" font-size="7.5" fill="rgb(255,255,255)" text-anchor="middle">0.004</text>
<polygon points="318.6,256.2 338.6,256.2 338.6,264.2 318.6,264.2" fill="rgb(134,0,195)"/><text xml:space="preserve" x="328.6" y="263.033" font-family="Calibri" font-size="7.5" fill="rgb(255,255,255)" text-anchor="middle">0.004</text>
<polygon points="338.6,256.2 358.6,256.2 358.6,264.2 338.6,264.2" fill="rgb(131,0,192)"/><text xml:space="preserve" x="348.6" y="263.033" font-family="Calibri" font-size="7.5" fill="rgb(255,255,255)" text-anchor="middle">0.004</text>
<polygon points="188.6,216.2 268.6,216.2 268.6,264.2 188.6,264.2" fill="none" stroke="black" stroke-width="1"/>
<polygon points="278.6,216.2 358.6,216.2 358.6,264.2 278.6,264.2" fill="none" stroke="black" stroke-width="1"/>
<text xml:space="preserve" x="214.3" y="297.2" font-family="Calibri" font-size="8" text-anchor="middle">Value</text>
<polygon points="104.3,304.2 124.3,304.2 124.3,324.2 104.3,324.2" fill="rgb(148,0,211)"/><polygon points="104.3,304.2 124.3,304.2 124.3,324.2 104.3,324.2" fill="none" stroke="black" stroke-width="1"/><text xml:space="preserve" x="114.3" y="317.033" font-family="Calibri" font-size="7.5" fill="rgb(255,255,255)" text-anchor="middle">0.0</text>
<polygon points="124.3,304.2 144.3,304.2 144.3,324.2 124.3,324.2" fill="rgb(89,0,146)"/><polygon points="124.3,304.2 144.3,304.2 144.3,324.2 124.3,324.2" fill="none" stroke="black" stroke-width="1"/><text xml:space="preserve" x="134.3" y="317.033" font-family="Calibri" font-size="7.5" fill="rgb(255,255,255)" text-anchor="middle">0.0</text>
<polygon points="144.3,304.2 164.3,304.2 164.3,324.2 144.3,324.2" fill="rgb(30,0,205)"/><polygon points="144.3,304.2 164.3,304.2 164.3,324.2 144.3,324.2" fill="none" stroke="black" stroke-width="1"/><text xml:space="preserve" x="154.3" y="317.033" font-family="Calibri" font-size="7.5" fill="rgb(255,255,255)" text-anchor="middle">0.0</text>
<polygon points="164.3,304.2 184.3,304.2 184.3,324.2 164.3,324.2" fill="rgb(0,102,255)"/><polygon points="164.3,304.2 184.3,304.2 184.3,324.2 164.3,324.2" fill="none" stroke="black" stroke-width="1"/><text xml:space="preserve" x="174.3" y="317.033" font-family="Calibri" font-size="7.5" fill="rgb(255,255,255)" text-anchor="middle">0.0</text>
<polygon points="184.3,304.2 204.3,304.2 204.3,324.2 184.3,324.2" fill="rgb(0,254,203)"/><polygon points="184.3,304.2 204.3,304.2 204.3,324.2 184.3,324.2" fill="none" stroke="black" stroke-width="1"/><text xml:space="preserve" x="194.3" y="317.033" font-family="Calibri" font-size="7.5" fill="rgb(0,0,0)" text-anchor="middle">0.1</text>
<polygon points="204.3,304.2 224.3,304.2 224.3,324.2 204.3,324.2" fill="rgb(0,255,0)"/><polygon points="204.3,304.2 224.3,304.2 224.3,324.2 204.3,324.2" fill="none" stroke="black" stroke-width="1"/><text xml:space="preserve" x="214.3" y="317.033" font-family="Calibri" font-size="7.5" fill="rgb(0,0,0)" text-anchor="middle">0.1</text>
<polygon points="224.3,304.2 244.3,304.2 244.3,324.2 224.3,324.2" fill="rgb(203,255,0)"/><polygon points="224.3,304.2 244.3,304.2 244.3,324.2 224.3,324.2" fill="none" stroke="black" stroke-width="1"/><text xml:space="preserve" x="234.3" y="317.033" font-family="Calibri" font-size="7.5" fill="rgb(0,0,0)" text-anchor="middle">0.1</text>
<polygon points="244.3,304.2 264.3,304.2 264.3,324.2 244.3,324.2" fill="rgb(255,178,0)"/><polygon points="244.3,304.2 264.3,304.2 264.3,324.2 244.3,324.2" fill="none" stroke="black" stroke-width="1"/><text xml:space="preserve" x="254.3" y="317.033" font-family="Calibri" font-size="7.5" fill="rgb(0,0,0)" text-anchor="middle">0.1</text>
<polygon points="264.3,304.2 284.3,304.2 284.3,324.2 264.3,324.2" fill="rgb(254,101,0)"/><polygon points="264.3,304.2 284.3,304.2 284.3,324.2 264.3,324.2" fill="none" stroke="black" stroke-width="1"/><text xml:space="preserve" x="274.3" y="317.033" font-family="Calibri" font-size="7.5" fill="rgb(0,0,0)" text-anchor="middle">0.1</text>
<polygon points="284.3,304.2 304.3,304.2 304.3,324.2 284.3,324.2" fill="rgb(255,50,0)"/><polygon points="284.3,304.2 304.3,304.2 304.3,324.2 284.3,324.2" fill="none" stroke="black" stroke-width="1"/><text xml:space="preserve" x="294.3" y="317.033" font-family="Calibri" font-size="7.5" fill="rgb(255,255,255)" text-anchor="middle">0.1</text>
<polygon points="304.3,304.2 324.3,304.2 324.3,324.2 304.3,324.2" fill="rgb(255,0,0)"/><polygon points="304.3,304.2 324.3,304.2 324.3,324.2 304.3,324.2" fill="none" stroke="black" stroke-width="1"/><text xml:space="preserve" x="314.3" y="317.033" font-family="Calibri" font-size="7.5" fill="rgb(255,255,255)" text-anchor="middle">0.2</text>
</svg>
