<?xml version="1.0" standalone="no"?><!DOCTYPE svg PUBLIC "-//W3C//DTD SVG 1.1//EN" "http://www.w3.org/Graphics/SVG/1.1/DTD/svg11.dtd">
<svg width="382.1" height="763.6" version="1.1" xmlns="http://www.w3.org/2000/svg">
<text xml:space="preserve" x="138.1" y="500.267" font-family="Arial" font-size="7" text-anchor="end">Cyb5b</text>
<text xml:space="preserve" x="138.1" y="506.267" font-family="Arial" font-size="7" text-anchor="end">Slmo2</text>
<text xml:space="preserve" x="138.1" y="512.267" font-family="Arial" font-size="7" text-anchor="end">Xpot</text>
<text xml:space="preserve" x="138.1" y="518.267" font-family="Arial" font-size="7" text-anchor="end">Uck2</text>
<text xml:space="preserve" x="138.1" y="524.267" font-family="Arial" font-size="7" text-anchor="end">Odc1</text>
<text xml:space="preserve" x="138.1" y="530.267" font-family="Arial" font-size="7" text-anchor="end">Eif6</text>
<text xml:space="preserve" x="138.1" y="536.267" font-family="Arial" font-size="7" text-anchor="end">Hsph1</text>
<text xml:space="preserve" x="138.1" y="542.267" font-family="Arial" font-size="7" text-anchor="end">Psat1</text>
<text xml:space="preserve" x="138.1" y="548.267" font-family="Arial" font-size="7" text-anchor="end">Rad23b</text>
<text xml:space="preserve" x="138.1" y="554.267" font-family="Arial" font-size="7" text-anchor="end">Yars</text>
<text xml:space="preserve" x="138.1" y="560.267" font-family="Arial" font-size="7" text-anchor="end">Gcsh</text>
<text xml:space="preserve" x="138.1" y="566.267" font-family="Arial" font-size="7" text-anchor="end">Bcat1</text>
<text xml:space="preserve" x="138.1" y="572.267" font-family="Arial" font-size="7" text-anchor="end">Hspa9</text>
<text xml:space="preserve" x="138.1" y="578.267" font-family="Arial" font-size="7" text-anchor="end">Nars</text>
<text xml:space="preserve" x="138.1" y="584.267" font-family="Arial" font-size="7" text-anchor="end">Psmd7</text>
<text xml:space="preserve" x="138.1" y="590.267" font-family="Arial" font-size="7" text-anchor="end">Gars</text>
<text xml:space="preserve" x="138.1" y="596.267" font-family="Arial" font-size="7" text-anchor="end">Fam98a</text>
<text xml:space="preserve" x="138.1" y="602.267" font-family="Arial" font-size="7" text-anchor="end">Tars</text>
<text xml:space="preserve" x="138.1" y="611.267" font-family="Arial" font-size="7" text-anchor="end">Elk1_nca:2</text>
<text xml:space="preserve" x="138.1" y="617.267" font-family="Arial" font-size="7" text-anchor="end">Fos_nca:2</text>
<text xml:space="preserve" x="138.1" y="623.267" font-family="Arial" font-size="7" text-anchor="end">Nr2c2_nca:2</text>
<text xml:space="preserve" x="147.767" y="490.6" font-family="Arial" font-size="7" transform="rotate(270 147.767 490.6)">carboxylic_acid_metabolic_process:1</text>
<text xml:space="preserve" x="153.767" y="490.6" font-family="Arial" font-size="7" transform="rotate(270 153.767 490.6)">oxoacid_metabolic_process:1</text>
<text xml:space="preserve" x="159.767" y="490.6" font-family="Arial" font-size="7" transform="rotate(270 159.767 490.6)">small_molecule_metabolic_process:1</text>
<text xml:space="preserve" x="165.767" y="490.6" font-family="Arial" font-size="7" transform="rotate(270 165.767 490.6)">organic_acid_metabolic_process:1</text>
<text xml:space="preserve" x="171.767" y="490.6" font-family="Arial" font-size="7" transform="rotate(270 171.767 490.6)">cellular_ketone_metabolic_process:1</text>
<text xml:space="preserve" x="177.767" y="490.6" font-family="Arial" font-size="7" transform="rotate(270 177.767 490.6)">cellular_amino_acid_metabolic_process:1</text>
<text xml:space="preserve" x="183.767" y="490.6" font-family="Arial" font-size="7" transform="rotate(270 183.767 490.6)">amino_acid_activation:1</text>
<text xml:space="preserve" x="189.767" y="490.6" font-family="Arial" font-size="7" transform="rotate(270 189.767 490.6)">ncRNA_metabolic_process:1</text>
<text xml:space="preserve" x="195.767" y="490.6" font-family="Arial" font-size="7" transform="rotate(270 195.767 490.6)">tRNA_aminoacylation:1</text>
<text xml:space="preserve" x="201.767" y="490.6" font-family="Arial" font-size="7" transform="rotate(270 201.767 490.6)">tRNA_metabolic_process:1</text>
<text xml:space="preserve" x="207.767" y="490.6" font-family="Arial" font-size="7" transform="rotate(270 207.767 490.6)">tRNA_aminoacylation_for_protein_translation:1</text>
<text xml:space="preserve" x="213.767" y="490.6" font-family="Arial" font-size="7" transform="rotate(270 213.767 490.6)">translation:1</text>
<text xml:space="preserve" x="219.767" y="490.6" font-family="Arial" font-size="7" transform="rotate(270 219.767 490.6)">cellular_protein_metabolic_process:1</text>
<text xml:space="preserve" x="225.767" y="490.6" font-family="Arial" font-size="7" transform="rotate(270 225.767 490.6)">cellular_metabolic_process:1</text>
<text xml:space="preserve" x="234.767" y="490.6" font-family="Arial" font-size="7" transform="rotate(270 234.767 490.6)">Elk1_nca:2</text>
<text xml:space="preserve" x="240.767" y="490.6" font-family="Arial" font-size="7" transform="rotate(270 240.767 490.6)">Fos_nca:2</text>
<text xml:space="preserve" x="246.767" y="490.6" font-family="Arial" font-size="7" transform="rotate(270 246.767 490.6)">Nr2c2_nca:2</text>
<text xml:space="preserve" x="255.767" y="490.6" font-family="Arial" font-size="7" transform="rotate(270 255.767 490.6)">C2</text>
<text xml:space="preserve" x="261.767" y="490.6" font-family="Arial" font-size="7" transform="rotate(270 261.767 490.6)">C7</text>
<text xml:space="preserve" x="267.767" y="490.6" font-family="Arial" font-size="7" transform="rotate(270 267.767 490.6)">C3</text>
<text xml:space="preserve" x="273.767" y="490.6" font-family="Arial" font-size="7" transform="rotate(270 273.767 490.6)">C5</text>
<text xml:space="preserve" x="279.767" y="490.6" font-family="Arial" font-size="7" transform="rotate(270 279.767 490.6)">C12</text>
<text xml:space="preserve" x="285.767" y="490.6" font-family="Arial" font-size="7" transform="rotate(270 285.767 490.6)">C13</text>
<text xml:space="preserve" x="291.767" y="490.6" font-family="Arial" font-size="7" transform="rotate(270 291.767 490.6)">C14</text>
<text xml:space="preserve" x="297.767" y="490.6" font-family="Arial" font-size="7" transform="rotate(270 297.767 490.6)">C11</text>
<text xml:space="preserve" x="303.767" y="490.6" font-family="Arial" font-size="7" transform="rotate(270 303.767 490.6)">C4</text>
<text xml:space="preserve" x="309.767" y="490.6" font-family="Arial" font-size="7" transform="rotate(270 309.767 490.6)">C8</text>
<text xml:space="preserve" x="315.767" y="490.6" font-family="Arial" font-size="7" transform="rotate(270 315.767 490.6)">C6</text>
<text xml:space="preserve" x="321.767" y="490.6" font-family="Arial" font-size="7" transform="rotate(270 321.767 490.6)">C10</text>
<text xml:space="preserve" x="327.767" y="490.6" font-family="Arial" font-size="7" transform="rotate(270 327.767 490.6)">C9</text>
<text xml:space="preserve" x="333.767" y="490.6" font-family="Arial" font-size="7" transform="rotate(270 333.767 490.6)">C1</text>
<polygon points="142.1,494.6 148.1,494.6 148.1,500.6 142.1,500.6" fill="rgb(255,255,255)"/>
<polygon points="148.1,494.6 154.1,494.6 154.1,500.6 148.1,500.6" fill="rgb(255,255,255)"/>
<polygon points="154.1,494.6 160.1,494.6 160.1,500.6 154.1,500.6" fill="rgb(255,255,255)"/>
<polygon points="160.1,494.6 166.1,494.6 166.1,500.6 160.1,500.6" fill="rgb(255,255,255)"/>
<polygon points="166.1,494.6 172.1,494.6 172.1,500.6 166.1,500.6" fill="rgb(255,255,255)"/>
<polygon points="172.1,494.6 178.1,494.6 178.1,500.6 172.1,500.6" fill="rgb(255,255,255)"/>
<polygon points="178.1,494.6 184.1,494.6 184.1,500.6 178.1,500.6" fill="rgb(255,255,255)"/>
<polygon points="184.1,494.6 190.1,494.6 190.1,500.6 184.1,500.6" fill="rgb(255,255,255)"/>
<polygon points="190.1,494.6 196.1,494.6 196.1,500.6 190.1,500.6" fill="rgb(255,255,255)"/>
<polygon points="196.1,494.6 202.1,494.6 202.1,500.6 196.1,500.6" fill="rgb(255,255,255)"/>
<polygon points="202.1,494.6 208.1,494.6 208.1,500.6 202.1,500.6" fill="rgb(255,255,255)"/>
<polygon points="208.1,494.6 214.1,494.6 214.1,500.6 208.1,500.6" fill="rgb(255,255,255)"/>
<polygon points="214.1,494.6 220.1,494.6 220.1,500.6 214.1,500.6" fill="rgb(255,255,255)"/>
<polygon points="220.1,494.6 226.1,494.6 226.1,500.6 220.1,500.6" fill="rgb(128,0,128)"/>
<polygon points="229.1,494.6 235.1,494.6 235.1,500.6 229.1,500.6" fill="rgb(0,255,255)"/>
<polygon points="235.1,494.6 241.1,494.6 241.1,500.6 235.1,500.6" fill="rgb(255,255,255)"/>
<polygon points="241.1,494.6 247.1,494.6 247.1,500.6 241.1,500.6" fill="rgb(255,255,255)"/>
<polygon points="250.1,494.6 256.1,494.6 256.1,500.6 250.1,500.6" fill="rgb(255,170,170)"/>
<polygon points="256.1,494.6 262.1,494.6 262.1,500.6 256.1,500.6" fill="rgb(255,161,161)"/>
<polygon points="262.1,494.6 268.1,494.6 268.1,500.6 262.1,500.6" fill="rgb(255,157,157)"/>
<polygon points="268.1,494.6 274.1,494.6 274.1,500.6 268.1,500.6" fill="rgb(255,124,124)"/>
<polygon points="274.1,494.6 280.1,494.6 280.1,500.6 274.1,500.6" fill="rgb(255,207,207)"/>
<polygon points="280.1,494.6 286.1,494.6 286.1,500.6 280.1,500.6" fill="rgb(255,215,215)"/>
<polygon points="286.1,494.6 292.1,494.6 292.1,500.6 286.1,500.6" fill="rgb(255,231,231)"/>
<polygon points="292.1,494.6 298.1,494.6 298.1,500.6 292.1,500.6" fill="rgb(254,184,184)"/>
<polygon points="298.1,494.6 304.1,494.6 304.1,500.6 298.1,500.6" fill="rgb(255,212,212)"/>
<polygon points="304.1,494.6 310.1,494.6 310.1,500.6 304.1,500.6" fill="rgb(255,173,173)"/>
<polygon points="310.1,494.6 316.1,494.6 316.1,500.6 310.1,500.6" fill="rgb(255,146,146)"/>
<polygon points="316.1,494.6 322.1,494.6 322.1,500.6 316.1,500.6" fill="rgb(254,190,190)"/>
<polygon points="322.1,494.6 328.1,494.6 328.1,500.6 322.1,500.6" fill="rgb(255,179,179)"/>
<polygon points="328.1,494.6 334.1,494.6 334.1,500.6 328.1,500.6" fill="rgb(255,129,129)"/>
<polygon points="142.1,500.6 148.1,500.6 148.1,506.6 142.1,506.6" fill="rgb(255,255,255)"/>
<polygon points="148.1,500.6 154.1,500.6 154.1,506.6 148.1,506.6" fill="rgb(255,255,255)"/>
<polygon points="154.1,500.6 160.1,500.6 160.1,506.6 154.1,506.6" fill="rgb(255,255,255)"/>
<polygon points="160.1,500.6 166.1,500.6 166.1,506.6 160.1,506.6" fill="rgb(255,255,255)"/>
<polygon points="166.1,500.6 172.1,500.6 172.1,506.6 166.1,506.6" fill="rgb(255,255,255)"/>
<polygon points="172.1,500.6 178.1,500.6 178.1,506.6 172.1,506.6" fill="rgb(255,255,255)"/>
<polygon points="178.1,500.6 184.1,500.6 184.1,506.6 178.1,506.6" fill="rgb(255,255,255)"/>
<polygon points="184.1,500.6 190.1,500.6 190.1,506.6 184.1,506.6" fill="rgb(255,255,255)"/>
<polygon points="190.1,500.6 196.1,500.6 196.1,506.6 190.1,506.6" fill="rgb(255,255,255)"/>
<polygon points="196.1,500.6 202.1,500.6 202.1,506.6 196.1,506.6" fill="rgb(255,255,255)"/>
<polygon points="202.1,500.6 208.1,500.6 208.1,506.6 202.1,506.6" fill="rgb(255,255,255)"/>
<polygon points="208.1,500.6 214.1,500.6 214.1,506.6 208.1,506.6" fill="rgb(255,255,255)"/>
<polygon points="214.1,500.6 220.1,500.6 220.1,506.6 214.1,506.6" fill="rgb(255,255,255)"/>
<polygon points="220.1,500.6 226.1,500.6 226.1,506.6 220.1,506.6" fill="rgb(255,255,255)"/>
<polygon points="229.1,500.6 235.1,500.6 235.1,506.6 229.1,506.6" fill="rgb(0,255,255)"/>
<polygon points="235.1,500.6 241.1,500.6 241.1,506.6 235.1,506.6" fill="rgb(255,255,255)"/>
<polygon points="241.1,500.6 247.1,500.6 247.1,506.6 241.1,506.6" fill="rgb(255,255,255)"/>
<polygon points="250.1,500.6 256.1,500.6 256.1,506.6 250.1,506.6" fill="rgb(255,173,173)"/>
<polygon points="256.1,500.6 262.1,500.6 262.1,506.6 256.1,506.6" fill="rgb(255,159,159)"/>
<polygon points="262.1,500.6 268.1,500.6 268.1,506.6 262.1,506.6" fill="rgb(255,170,170)"/>
<polygon points="268.1,500.6 274.1,500.6 274.1,506.6 268.1,506.6" fill="rgb(255,128,128)"/>
<polygon points="274.1,500.6 280.1,500.6 280.1,506.6 274.1,506.6" fill="rgb(255,214,214)"/>
<polygon points="280.1,500.6 286.1,500.6 286.1,506.6 280.1,506.6" fill="rgb(255,222,222)"/>
<polygon points="286.1,500.6 292.1,500.6 292.1,506.6 286.1,506.6" fill="rgb(255,238,238)"/>
<polygon points="292.1,500.6 298.1,500.6 298.1,506.6 292.1,506.6" fill="rgb(255,200,200)"/>
<polygon points="298.1,500.6 304.1,500.6 304.1,506.6 298.1,506.6" fill="rgb(255,226,226)"/>
<polygon points="304.1,500.6 310.1,500.6 310.1,506.6 304.1,506.6" fill="rgb(255,192,192)"/>
<polygon points="310.1,500.6 316.1,500.6 316.1,506.6 310.1,506.6" fill="rgb(255,151,151)"/>
<polygon points="316.1,500.6 322.1,500.6 322.1,506.6 316.1,506.6" fill="rgb(255,208,208)"/>
<polygon points="322.1,500.6 328.1,500.6 328.1,506.6 322.1,506.6" fill="rgb(255,184,184)"/>
<polygon points="328.1,500.6 334.1,500.6 334.1,506.6 328.1,506.6" fill="rgb(255,155,155)"/>
<polygon points="142.1,506.6 148.1,506.6 148.1,512.6 142.1,512.6" fill="rgb(255,255,255)"/>
<polygon points="148.1,506.6 154.1,506.6 154.1,512.6 148.1,512.6" fill="rgb(255,255,255)"/>
<polygon points="154.1,506.6 160.1,506.6 160.1,512.6 154.1,512.6" fill="rgb(255,255,255)"/>
<polygon points="160.1,506.6 166.1,506.6 166.1,512.6 160.1,512.6" fill="rgb(255,255,255)"/>
<polygon points="166.1,506.6 172.1,506.6 172.1,512.6 166.1,512.6" fill="rgb(255,255,255)"/>
<polygon points="172.1,506.6 178.1,506.6 178.1,512.6 172.1,512.6" fill="rgb(255,255,255)"/>
<polygon points="178.1,506.6 184.1,506.6 184.1,512.6 178.1,512.6" fill="rgb(255,255,255)"/>
<polygon points="184.1,506.6 190.1,506.6 190.1,512.6 184.1,512.6" fill="rgb(255,255,255)"/>
<polygon points="190.1,506.6 196.1,506.6 196.1,512.6 190.1,512.6" fill="rgb(255,255,255)"/>
<polygon points="196.1,506.6 202.1,506.6 202.1,512.6 196.1,512.6" fill="rgb(255,255,255)"/>
<polygon points="202.1,506.6 208.1,506.6 208.1,512.6 202.1,512.6" fill="rgb(255,255,255)"/>
<polygon points="208.1,506.6 214.1,506.6 214.1,512.6 208.1,512.6" fill="rgb(255,255,255)"/>
<polygon points="214.1,506.6 220.1,506.6 220.1,512.6 214.1,512.6" fill="rgb(255,255,255)"/>
<polygon points="220.1,506.6 226.1,506.6 226.1,512.6 220.1,512.6" fill="rgb(255,255,255)"/>
<polygon points="229.1,506.6 235.1,506.6 235.1,512.6 229.1,512.6" fill="rgb(0,255,255)"/>
<polygon points="235.1,506.6 241.1,506.6 241.1,512.6 235.1,512.6" fill="rgb(255,255,255)"/>
<polygon points="241.1,506.6 247.1,506.6 247.1,512.6 241.1,512.6" fill="rgb(255,255,255)"/>
<polygon points="250.1,506.6 256.1,506.6 256.1,512.6 250.1,512.6" fill="rgb(255,166,166)"/>
<polygon points="256.1,506.6 262.1,506.6 262.1,512.6 256.1,512.6" fill="rgb(255,161,161)"/>
<polygon points="262.1,506.6 268.1,506.6 268.1,512.6 262.1,512.6" fill="rgb(255,172,172)"/>
<polygon points="268.1,506.6 274.1,506.6 274.1,512.6 268.1,512.6" fill="rgb(255,135,135)"/>
<polygon points="274.1,506.6 280.1,506.6 280.1,512.6 274.1,512.6" fill="rgb(255,227,227)"/>
<polygon points="280.1,506.6 286.1,506.6 286.1,512.6 280.1,512.6" fill="rgb(255,214,214)"/>
<polygon points="286.1,506.6 292.1,506.6 292.1,512.6 286.1,512.6" fill="rgb(254,216,216)"/>
<polygon points="292.1,506.6 298.1,506.6 298.1,512.6 292.1,512.6" fill="rgb(255,178,178)"/>
<polygon points="298.1,506.6 304.1,506.6 304.1,512.6 298.1,512.6" fill="rgb(255,204,204)"/>
<polygon points="304.1,506.6 310.1,506.6 310.1,512.6 304.1,512.6" fill="rgb(255,184,184)"/>
<polygon points="310.1,506.6 316.1,506.6 316.1,512.6 310.1,512.6" fill="rgb(255,142,142)"/>
<polygon points="316.1,506.6 322.1,506.6 322.1,512.6 316.1,512.6" fill="rgb(255,189,189)"/>
<polygon points="322.1,506.6 328.1,506.6 328.1,512.6 322.1,512.6" fill="rgb(255,171,171)"/>
<polygon points="328.1,506.6 334.1,506.6 334.1,512.6 328.1,512.6" fill="rgb(255,117,117)"/>
<polygon points="142.1,512.6 148.1,512.6 148.1,518.6 142.1,518.6" fill="rgb(255,255,255)"/>
<polygon points="148.1,512.6 154.1,512.6 154.1,518.6 148.1,518.6" fill="rgb(255,255,255)"/>
<polygon points="154.1,512.6 160.1,512.6 160.1,518.6 154.1,518.6" fill="rgb(255,255,255)"/>
<polygon points="160.1,512.6 166.1,512.6 166.1,518.6 160.1,518.6" fill="rgb(255,255,255)"/>
<polygon points="166.1,512.6 172.1,512.6 172.1,518.6 166.1,518.6" fill="rgb(255,255,255)"/>
<polygon points="172.1,512.6 178.1,512.6 178.1,518.6 172.1,518.6" fill="rgb(255,255,255)"/>
<polygon points="178.1,512.6 184.1,512.6 184.1,518.6 178.1,518.6" fill="rgb(255,255,255)"/>
<polygon points="184.1,512.6 190.1,512.6 190.1,518.6 184.1,518.6" fill="rgb(255,255,255)"/>
<polygon points="190.1,512.6 196.1,512.6 196.1,518.6 190.1,518.6" fill="rgb(255,255,255)"/>
<polygon points="196.1,512.6 202.1,512.6 202.1,518.6 196.1,518.6" fill="rgb(255,255,255)"/>
<polygon points="202.1,512.6 208.1,512.6 208.1,518.6 202.1,518.6" fill="rgb(255,255,255)"/>
<polygon points="208.1,512.6 214.1,512.6 214.1,518.6 208.1,518.6" fill="rgb(255,255,255)"/>
<polygon points="214.1,512.6 220.1,512.6 220.1,518.6 214.1,518.6" fill="rgb(255,255,255)"/>
<polygon points="220.1,512.6 226.1,512.6 226.1,518.6 220.1,518.6" fill="rgb(128,0,128)"/>
<polygon points="229.1,512.6 235.1,512.6 235.1,518.6 229.1,518.6" fill="rgb(0,255,255)"/>
<polygon points="235.1,512.6 241.1,512.6 241.1,518.6 235.1,518.6" fill="rgb(255,255,255)"/>
<polygon points="241.1,512.6 247.1,512.6 247.1,518.6 241.1,518.6" fill="rgb(255,255,255)"/>
<polygon points="250.1,512.6 256.1,512.6 256.1,518.6 250.1,518.6" fill="rgb(255,174,174)"/>
<polygon points="256.1,512.6 262.1,512.6 262.1,518.6 256.1,518.6" fill="rgb(255,171,171)"/>
<polygon points="262.1,512.6 268.1,512.6 268.1,518.6 262.1,518.6" fill="rgb(254,184,184)"/>
<polygon points="268.1,512.6 274.1,512.6 274.1,518.6 268.1,518.6" fill="rgb(255,149,149)"/>
<polygon points="274.1,512.6 280.1,512.6 280.1,518.6 274.1,518.6" fill="rgb(255,226,226)"/>
<polygon points="280.1,512.6 286.1,512.6 286.1,518.6 280.1,518.6" fill="rgb(255,239,239)"/>
<polygon points="286.1,512.6 292.1,512.6 292.1,518.6 286.1,518.6" fill="rgb(254,239,239)"/>
<polygon points="292.1,512.6 298.1,512.6 298.1,518.6 292.1,518.6" fill="rgb(255,214,214)"/>
<polygon points="298.1,512.6 304.1,512.6 304.1,518.6 298.1,518.6" fill="rgb(255,236,236)"/>
<polygon points="304.1,512.6 310.1,512.6 310.1,518.6 304.1,518.6" fill="rgb(255,208,208)"/>
<polygon points="310.1,512.6 316.1,512.6 316.1,518.6 310.1,518.6" fill="rgb(255,181,181)"/>
<polygon points="316.1,512.6 322.1,512.6 322.1,518.6 316.1,518.6" fill="rgb(255,214,214)"/>
<polygon points="322.1,512.6 328.1,512.6 328.1,518.6 322.1,518.6" fill="rgb(255,194,194)"/>
<polygon points="328.1,512.6 334.1,512.6 334.1,518.6 328.1,518.6" fill="rgb(255,150,150)"/>
<polygon points="142.1,518.6 148.1,518.6 148.1,524.6 142.1,524.6" fill="rgb(255,255,255)"/>
<polygon points="148.1,518.6 154.1,518.6 154.1,524.6 148.1,524.6" fill="rgb(255,255,255)"/>
<polygon points="154.1,518.6 160.1,518.6 160.1,524.6 154.1,524.6" fill="rgb(255,255,255)"/>
<polygon points="160.1,518.6 166.1,518.6 166.1,524.6 160.1,524.6" fill="rgb(255,255,255)"/>
<polygon points="166.1,518.6 172.1,518.6 172.1,524.6 166.1,524.6" fill="rgb(255,255,255)"/>
<polygon points="172.1,518.6 178.1,518.6 178.1,524.6 172.1,524.6" fill="rgb(255,255,255)"/>
<polygon points="178.1,518.6 184.1,518.6 184.1,524.6 178.1,524.6" fill="rgb(255,255,255)"/>
<polygon points="184.1,518.6 190.1,518.6 190.1,524.6 184.1,524.6" fill="rgb(255,255,255)"/>
<polygon points="190.1,518.6 196.1,518.6 196.1,524.6 190.1,524.6" fill="rgb(255,255,255)"/>
<polygon points="196.1,518.6 202.1,518.6 202.1,524.6 196.1,524.6" fill="rgb(255,255,255)"/>
<polygon points="202.1,518.6 208.1,518.6 208.1,524.6 202.1,524.6" fill="rgb(255,255,255)"/>
<polygon points="208.1,518.6 214.1,518.6 214.1,524.6 208.1,524.6" fill="rgb(255,255,255)"/>
<polygon points="214.1,518.6 220.1,518.6 220.1,524.6 214.1,524.6" fill="rgb(255,255,255)"/>
<polygon points="220.1,518.6 226.1,518.6 226.1,524.6 220.1,524.6" fill="rgb(128,0,128)"/>
<polygon points="229.1,518.6 235.1,518.6 235.1,524.6 229.1,524.6" fill="rgb(0,255,255)"/>
<polygon points="235.1,518.6 241.1,518.6 241.1,524.6 235.1,524.6" fill="rgb(255,255,255)"/>
<polygon points="241.1,518.6 247.1,518.6 247.1,524.6 241.1,524.6" fill="rgb(255,255,255)"/>
<polygon points="250.1,518.6 256.1,518.6 256.1,524.6 250.1,524.6" fill="rgb(255,179,179)"/>
<polygon points="256.1,518.6 262.1,518.6 262.1,524.6 256.1,524.6" fill="rgb(255,164,164)"/>
<polygon points="262.1,518.6 268.1,518.6 268.1,524.6 262.1,524.6" fill="rgb(255,176,176)"/>
<polygon points="268.1,518.6 274.1,518.6 274.1,524.6 268.1,524.6" fill="rgb(255,152,152)"/>
<polygon points="274.1,518.6 280.1,518.6 280.1,524.6 274.1,524.6" fill="rgb(255,224,224)"/>
<polygon points="280.1,518.6 286.1,518.6 286.1,524.6 280.1,524.6" fill="rgb(255,245,245)"/>
<polygon points="286.1,518.6 292.1,518.6 292.1,524.6 286.1,524.6" fill="rgb(255,252,252)"/>
<polygon points="292.1,518.6 298.1,518.6 298.1,524.6 292.1,524.6" fill="rgb(255,239,239)"/>
<polygon points="298.1,518.6 304.1,518.6 304.1,524.6 298.1,524.6" fill="rgb(255,252,252)"/>
<polygon points="304.1,518.6 310.1,518.6 310.1,524.6 304.1,524.6" fill="rgb(255,217,217)"/>
<polygon points="310.1,518.6 316.1,518.6 316.1,524.6 310.1,524.6" fill="rgb(255,164,164)"/>
<polygon points="316.1,518.6 322.1,518.6 322.1,524.6 316.1,524.6" fill="rgb(255,223,223)"/>
<polygon points="322.1,518.6 328.1,518.6 328.1,524.6 322.1,524.6" fill="rgb(255,184,184)"/>
<polygon points="328.1,518.6 334.1,518.6 334.1,524.6 328.1,524.6" fill="rgb(255,143,143)"/>
<polygon points="142.1,524.6 148.1,524.6 148.1,530.6 142.1,530.6" fill="rgb(255,255,255)"/>
<polygon points="148.1,524.6 154.1,524.6 154.1,530.6 148.1,530.6" fill="rgb(255,255,255)"/>
<polygon points="154.1,524.6 160.1,524.6 160.1,530.6 154.1,530.6" fill="rgb(255,255,255)"/>
<polygon points="160.1,524.6 166.1,524.6 166.1,530.6 160.1,530.6" fill="rgb(255,255,255)"/>
<polygon points="166.1,524.6 172.1,524.6 172.1,530.6 166.1,530.6" fill="rgb(255,255,255)"/>
<polygon points="172.1,524.6 178.1,524.6 178.1,530.6 172.1,530.6" fill="rgb(255,255,255)"/>
<polygon points="178.1,524.6 184.1,524.6 184.1,530.6 178.1,530.6" fill="rgb(255,255,255)"/>
<polygon points="184.1,524.6 190.1,524.6 190.1,530.6 184.1,530.6" fill="rgb(255,255,255)"/>
<polygon points="190.1,524.6 196.1,524.6 196.1,530.6 190.1,530.6" fill="rgb(255,255,255)"/>
<polygon points="196.1,524.6 202.1,524.6 202.1,530.6 196.1,530.6" fill="rgb(255,255,255)"/>
<polygon points="202.1,524.6 208.1,524.6 208.1,530.6 202.1,530.6" fill="rgb(255,255,255)"/>
<polygon points="208.1,524.6 214.1,524.6 214.1,530.6 208.1,530.6" fill="rgb(128,0,128)"/>
<polygon points="214.1,524.6 220.1,524.6 220.1,530.6 214.1,530.6" fill="rgb(128,0,128)"/>
<polygon points="220.1,524.6 226.1,524.6 226.1,530.6 220.1,530.6" fill="rgb(128,0,128)"/>
<polygon points="229.1,524.6 235.1,524.6 235.1,530.6 229.1,530.6" fill="rgb(0,255,255)"/>
<polygon points="235.1,524.6 241.1,524.6 241.1,530.6 235.1,530.6" fill="rgb(255,255,255)"/>
<polygon points="241.1,524.6 247.1,524.6 247.1,530.6 241.1,530.6" fill="rgb(255,255,255)"/>
<polygon points="250.1,524.6 256.1,524.6 256.1,530.6 250.1,530.6" fill="rgb(255,142,142)"/>
<polygon points="256.1,524.6 262.1,524.6 262.1,530.6 256.1,530.6" fill="rgb(254,138,138)"/>
<polygon points="262.1,524.6 268.1,524.6 268.1,530.6 262.1,530.6" fill="rgb(255,117,117)"/>
<polygon points="268.1,524.6 274.1,524.6 274.1,530.6 268.1,530.6" fill="rgb(255,90,90)"/>
<polygon points="274.1,524.6 280.1,524.6 280.1,530.6 274.1,530.6" fill="rgb(255,169,169)"/>
<polygon points="280.1,524.6 286.1,524.6 286.1,530.6 280.1,530.6" fill="rgb(255,187,187)"/>
<polygon points="286.1,524.6 292.1,524.6 292.1,530.6 286.1,530.6" fill="rgb(255,197,197)"/>
<polygon points="292.1,524.6 298.1,524.6 298.1,530.6 292.1,530.6" fill="rgb(255,163,163)"/>
<polygon points="298.1,524.6 304.1,524.6 304.1,530.6 298.1,530.6" fill="rgb(255,189,189)"/>
<polygon points="304.1,524.6 310.1,524.6 310.1,530.6 304.1,530.6" fill="rgb(255,155,155)"/>
<polygon points="310.1,524.6 316.1,524.6 316.1,530.6 310.1,530.6" fill="rgb(255,129,129)"/>
<polygon points="316.1,524.6 322.1,524.6 322.1,530.6 316.1,530.6" fill="rgb(255,134,134)"/>
<polygon points="322.1,524.6 328.1,524.6 328.1,530.6 322.1,530.6" fill="rgb(255,134,134)"/>
<polygon points="328.1,524.6 334.1,524.6 334.1,530.6 328.1,530.6" fill="rgb(255,134,134)"/>
<polygon points="142.1,530.6 148.1,530.6 148.1,536.6 142.1,536.6" fill="rgb(255,255,255)"/>
<polygon points="148.1,530.6 154.1,530.6 154.1,536.6 148.1,536.6" fill="rgb(255,255,255)"/>
<polygon points="154.1,530.6 160.1,530.6 160.1,536.6 154.1,536.6" fill="rgb(255,255,255)"/>
<polygon points="160.1,530.6 166.1,530.6 166.1,536.6 160.1,536.6" fill="rgb(255,255,255)"/>
<polygon points="166.1,530.6 172.1,530.6 172.1,536.6 166.1,536.6" fill="rgb(255,255,255)"/>
<polygon points="172.1,530.6 178.1,530.6 178.1,536.6 172.1,536.6" fill="rgb(255,255,255)"/>
<polygon points="178.1,530.6 184.1,530.6 184.1,536.6 178.1,536.6" fill="rgb(255,255,255)"/>
<polygon points="184.1,530.6 190.1,530.6 190.1,536.6 184.1,536.6" fill="rgb(255,255,255)"/>
<polygon points="190.1,530.6 196.1,530.6 196.1,536.6 190.1,536.6" fill="rgb(255,255,255)"/>
<polygon points="196.1,530.6 202.1,530.6 202.1,536.6 196.1,536.6" fill="rgb(255,255,255)"/>
<polygon points="202.1,530.6 208.1,530.6 208.1,536.6 202.1,536.6" fill="rgb(255,255,255)"/>
<polygon points="208.1,530.6 214.1,530.6 214.1,536.6 208.1,536.6" fill="rgb(255,255,255)"/>
<polygon points="214.1,530.6 220.1,530.6 220.1,536.6 214.1,536.6" fill="rgb(128,0,128)"/>
<polygon points="220.1,530.6 226.1,530.6 226.1,536.6 220.1,536.6" fill="rgb(128,0,128)"/>
<polygon points="229.1,530.6 235.1,530.6 235.1,536.6 229.1,536.6" fill="rgb(0,255,255)"/>
<polygon points="235.1,530.6 241.1,530.6 241.1,536.6 235.1,536.6" fill="rgb(0,255,255)"/>
<polygon points="241.1,530.6 247.1,530.6 247.1,536.6 241.1,536.6" fill="rgb(255,255,255)"/>
<polygon points="250.1,530.6 256.1,530.6 256.1,536.6 250.1,536.6" fill="rgb(255,172,172)"/>
<polygon points="256.1,530.6 262.1,530.6 262.1,536.6 256.1,536.6" fill="rgb(255,166,166)"/>
<polygon points="262.1,530.6 268.1,530.6 268.1,536.6 262.1,536.6" fill="rgb(255,152,152)"/>
<polygon points="268.1,530.6 274.1,530.6 274.1,536.6 268.1,536.6" fill="rgb(255,117,117)"/>
<polygon points="274.1,530.6 280.1,530.6 280.1,536.6 274.1,536.6" fill="rgb(255,222,222)"/>
<polygon points="280.1,530.6 286.1,530.6 286.1,536.6 280.1,536.6" fill="rgb(254,217,217)"/>
<polygon points="286.1,530.6 292.1,530.6 292.1,536.6 286.1,536.6" fill="rgb(255,237,237)"/>
<polygon points="292.1,530.6 298.1,530.6 298.1,536.6 292.1,536.6" fill="rgb(255,201,201)"/>
<polygon points="298.1,530.6 304.1,530.6 304.1,536.6 298.1,536.6" fill="rgb(255,227,227)"/>
<polygon points="304.1,530.6 310.1,530.6 310.1,536.6 304.1,536.6" fill="rgb(255,186,186)"/>
<polygon points="310.1,530.6 316.1,530.6 316.1,536.6 310.1,536.6" fill="rgb(255,143,143)"/>
<polygon points="316.1,530.6 322.1,530.6 322.1,536.6 316.1,536.6" fill="rgb(255,206,206)"/>
<polygon points="322.1,530.6 328.1,530.6 328.1,536.6 322.1,536.6" fill="rgb(255,190,190)"/>
<polygon points="328.1,530.6 334.1,530.6 334.1,536.6 328.1,536.6" fill="rgb(255,127,127)"/>
<polygon points="142.1,536.6 148.1,536.6 148.1,542.6 142.1,542.6" fill="rgb(128,0,128)"/>
<polygon points="148.1,536.6 154.1,536.6 154.1,542.6 148.1,542.6" fill="rgb(128,0,128)"/>
<polygon points="154.1,536.6 160.1,536.6 160.1,542.6 154.1,542.6" fill="rgb(128,0,128)"/>
<polygon points="160.1,536.6 166.1,536.6 166.1,542.6 160.1,542.6" fill="rgb(128,0,128)"/>
<polygon points="166.1,536.6 172.1,536.6 172.1,542.6 166.1,542.6" fill="rgb(128,0,128)"/>
<polygon points="172.1,536.6 178.1,536.6 178.1,542.6 172.1,542.6" fill="rgb(128,0,128)"/>
<polygon points="178.1,536.6 184.1,536.6 184.1,542.6 178.1,542.6" fill="rgb(255,255,255)"/>
<polygon points="184.1,536.6 190.1,536.6 190.1,542.6 184.1,542.6" fill="rgb(255,255,255)"/>
<polygon points="190.1,536.6 196.1,536.6 196.1,542.6 190.1,542.6" fill="rgb(255,255,255)"/>
<polygon points="196.1,536.6 202.1,536.6 202.1,542.6 196.1,542.6" fill="rgb(255,255,255)"/>
<polygon points="202.1,536.6 208.1,536.6 208.1,542.6 202.1,542.6" fill="rgb(255,255,255)"/>
<polygon points="208.1,536.6 214.1,536.6 214.1,542.6 208.1,542.6" fill="rgb(255,255,255)"/>
<polygon points="214.1,536.6 220.1,536.6 220.1,542.6 214.1,542.6" fill="rgb(255,255,255)"/>
<polygon points="220.1,536.6 226.1,536.6 226.1,542.6 220.1,542.6" fill="rgb(128,0,128)"/>
<polygon points="229.1,536.6 235.1,536.6 235.1,542.6 229.1,542.6" fill="rgb(0,255,255)"/>
<polygon points="235.1,536.6 241.1,536.6 241.1,542.6 235.1,542.6" fill="rgb(0,255,255)"/>
<polygon points="241.1,536.6 247.1,536.6 247.1,542.6 241.1,542.6" fill="rgb(255,255,255)"/>
<polygon points="250.1,536.6 256.1,536.6 256.1,542.6 250.1,542.6" fill="rgb(255,121,121)"/>
<polygon points="256.1,536.6 262.1,536.6 262.1,542.6 256.1,542.6" fill="rgb(255,71,71)"/>
<polygon points="262.1,536.6 268.1,536.6 268.1,542.6 262.1,542.6" fill="rgb(255,73,73)"/>
<polygon points="268.1,536.6 274.1,536.6 274.1,542.6 268.1,542.6" fill="rgb(255,2,2)"/>
<polygon points="274.1,536.6 280.1,536.6 280.1,542.6 274.1,542.6" fill="rgb(255,173,173)"/>
<polygon points="280.1,536.6 286.1,536.6 286.1,542.6 280.1,542.6" fill="rgb(254,220,220)"/>
<polygon points="286.1,536.6 292.1,536.6 292.1,542.6 286.1,542.6" fill="rgb(255,198,198)"/>
<polygon points="292.1,536.6 298.1,536.6 298.1,542.6 292.1,542.6" fill="rgb(255,158,158)"/>
<polygon points="298.1,536.6 304.1,536.6 304.1,542.6 298.1,542.6" fill="rgb(255,193,193)"/>
<polygon points="304.1,536.6 310.1,536.6 310.1,542.6 304.1,542.6" fill="rgb(255,105,105)"/>
<polygon points="310.1,536.6 316.1,536.6 316.1,542.6 310.1,542.6" fill="rgb(255,57,57)"/>
<polygon points="316.1,536.6 322.1,536.6 322.1,542.6 316.1,542.6" fill="rgb(254,141,141)"/>
<polygon points="322.1,536.6 328.1,536.6 328.1,542.6 322.1,542.6" fill="rgb(255,120,120)"/>
<polygon points="328.1,536.6 334.1,536.6 334.1,542.6 328.1,542.6" fill="rgb(255,36,36)"/>
<polygon points="142.1,542.6 148.1,542.6 148.1,548.6 142.1,548.6" fill="rgb(255,255,255)"/>
<polygon points="148.1,542.6 154.1,542.6 154.1,548.6 148.1,548.6" fill="rgb(255,255,255)"/>
<polygon points="154.1,542.6 160.1,542.6 160.1,548.6 154.1,548.6" fill="rgb(255,255,255)"/>
<polygon points="160.1,542.6 166.1,542.6 166.1,548.6 160.1,548.6" fill="rgb(255,255,255)"/>
<polygon points="166.1,542.6 172.1,542.6 172.1,548.6 166.1,548.6" fill="rgb(255,255,255)"/>
<polygon points="172.1,542.6 178.1,542.6 178.1,548.6 172.1,548.6" fill="rgb(255,255,255)"/>
<polygon points="178.1,542.6 184.1,542.6 184.1,548.6 178.1,548.6" fill="rgb(255,255,255)"/>
<polygon points="184.1,542.6 190.1,542.6 190.1,548.6 184.1,548.6" fill="rgb(255,255,255)"/>
<polygon points="190.1,542.6 196.1,542.6 196.1,548.6 190.1,548.6" fill="rgb(255,255,255)"/>
<polygon points="196.1,542.6 202.1,542.6 202.1,548.6 196.1,548.6" fill="rgb(255,255,255)"/>
<polygon points="202.1,542.6 208.1,542.6 208.1,548.6 202.1,548.6" fill="rgb(255,255,255)"/>
<polygon points="208.1,542.6 214.1,542.6 214.1,548.6 208.1,548.6" fill="rgb(255,255,255)"/>
<polygon points="214.1,542.6 220.1,542.6 220.1,548.6 214.1,548.6" fill="rgb(128,0,128)"/>
<polygon points="220.1,542.6 226.1,542.6 226.1,548.6 220.1,548.6" fill="rgb(128,0,128)"/>
<polygon points="229.1,542.6 235.1,542.6 235.1,548.6 229.1,548.6" fill="rgb(0,255,255)"/>
<polygon points="235.1,542.6 241.1,542.6 241.1,548.6 235.1,548.6" fill="rgb(0,255,255)"/>
<polygon points="241.1,542.6 247.1,542.6 247.1,548.6 241.1,548.6" fill="rgb(255,255,255)"/>
<polygon points="250.1,542.6 256.1,542.6 256.1,548.6 250.1,548.6" fill="rgb(255,127,127)"/>
<polygon points="256.1,542.6 262.1,542.6 262.1,548.6 256.1,548.6" fill="rgb(255,113,113)"/>
<polygon points="262.1,542.6 268.1,542.6 268.1,548.6 262.1,548.6" fill="rgb(255,131,131)"/>
<polygon points="268.1,542.6 274.1,542.6 274.1,548.6 268.1,548.6" fill="rgb(255,76,76)"/>
<polygon points="274.1,542.6 280.1,542.6 280.1,548.6 274.1,548.6" fill="rgb(254,190,190)"/>
<polygon points="280.1,542.6 286.1,542.6 286.1,548.6 280.1,548.6" fill="rgb(255,174,174)"/>
<polygon points="286.1,542.6 292.1,542.6 292.1,548.6 286.1,548.6" fill="rgb(255,196,196)"/>
<polygon points="292.1,542.6 298.1,542.6 298.1,548.6 292.1,548.6" fill="rgb(255,143,143)"/>
<polygon points="298.1,542.6 304.1,542.6 304.1,548.6 298.1,548.6" fill="rgb(255,159,159)"/>
<polygon points="304.1,542.6 310.1,542.6 310.1,548.6 304.1,548.6" fill="rgb(255,139,139)"/>
<polygon points="310.1,542.6 316.1,542.6 316.1,548.6 310.1,548.6" fill="rgb(255,95,95)"/>
<polygon points="316.1,542.6 322.1,542.6 322.1,548.6 316.1,548.6" fill="rgb(255,141,141)"/>
<polygon points="322.1,542.6 328.1,542.6 328.1,548.6 322.1,548.6" fill="rgb(255,139,139)"/>
<polygon points="328.1,542.6 334.1,542.6 334.1,548.6 328.1,548.6" fill="rgb(255,79,79)"/>
<polygon points="142.1,548.6 148.1,548.6 148.1,554.6 142.1,554.6" fill="rgb(128,0,128)"/>
<polygon points="148.1,548.6 154.1,548.6 154.1,554.6 148.1,554.6" fill="rgb(128,0,128)"/>
<polygon points="154.1,548.6 160.1,548.6 160.1,554.6 154.1,554.6" fill="rgb(128,0,128)"/>
<polygon points="160.1,548.6 166.1,548.6 166.1,554.6 160.1,554.6" fill="rgb(128,0,128)"/>
<polygon points="166.1,548.6 172.1,548.6 172.1,554.6 166.1,554.6" fill="rgb(128,0,128)"/>
<polygon points="172.1,548.6 178.1,548.6 178.1,554.6 172.1,554.6" fill="rgb(128,0,128)"/>
<polygon points="178.1,548.6 184.1,548.6 184.1,554.6 178.1,554.6" fill="rgb(128,0,128)"/>
<polygon points="184.1,548.6 190.1,548.6 190.1,554.6 184.1,554.6" fill="rgb(128,0,128)"/>
<polygon points="190.1,548.6 196.1,548.6 196.1,554.6 190.1,554.6" fill="rgb(128,0,128)"/>
<polygon points="196.1,548.6 202.1,548.6 202.1,554.6 196.1,554.6" fill="rgb(128,0,128)"/>
<polygon points="202.1,548.6 208.1,548.6 208.1,554.6 202.1,554.6" fill="rgb(128,0,128)"/>
<polygon points="208.1,548.6 214.1,548.6 214.1,554.6 208.1,554.6" fill="rgb(128,0,128)"/>
<polygon points="214.1,548.6 220.1,548.6 220.1,554.6 214.1,554.6" fill="rgb(128,0,128)"/>
<polygon points="220.1,548.6 226.1,548.6 226.1,554.6 220.1,554.6" fill="rgb(128,0,128)"/>
<polygon points="229.1,548.6 235.1,548.6 235.1,554.6 229.1,554.6" fill="rgb(0,255,255)"/>
<polygon points="235.1,548.6 241.1,548.6 241.1,554.6 235.1,554.6" fill="rgb(0,255,255)"/>
<polygon points="241.1,548.6 247.1,548.6 247.1,554.6 241.1,554.6" fill="rgb(255,255,255)"/>
<polygon points="250.1,548.6 256.1,548.6 256.1,554.6 250.1,554.6" fill="rgb(255,185,185)"/>
<polygon points="256.1,548.6 262.1,548.6 262.1,554.6 256.1,554.6" fill="rgb(255,178,178)"/>
<polygon points="262.1,548.6 268.1,548.6 268.1,554.6 262.1,554.6" fill="rgb(255,183,183)"/>
<polygon points="268.1,548.6 274.1,548.6 274.1,554.6 268.1,554.6" fill="rgb(255,155,155)"/>
<polygon points="274.1,548.6 280.1,548.6 280.1,554.6 274.1,554.6" fill="rgb(255,226,226)"/>
<polygon points="280.1,548.6 286.1,548.6 286.1,554.6 280.1,554.6" fill="rgb(255,228,228)"/>
<polygon points="286.1,548.6 292.1,548.6 292.1,554.6 286.1,554.6" fill="rgb(254,240,240)"/>
<polygon points="292.1,548.6 298.1,548.6 298.1,554.6 292.1,554.6" fill="rgb(255,224,224)"/>
<polygon points="298.1,548.6 304.1,548.6 304.1,554.6 298.1,554.6" fill="rgb(254,236,236)"/>
<polygon points="304.1,548.6 310.1,548.6 310.1,554.6 304.1,554.6" fill="rgb(255,209,209)"/>
<polygon points="310.1,548.6 316.1,548.6 316.1,554.6 310.1,554.6" fill="rgb(255,185,185)"/>
<polygon points="316.1,548.6 322.1,548.6 322.1,554.6 316.1,554.6" fill="rgb(255,215,215)"/>
<polygon points="322.1,548.6 328.1,548.6 328.1,554.6 322.1,554.6" fill="rgb(255,191,191)"/>
<polygon points="328.1,548.6 334.1,548.6 334.1,554.6 328.1,554.6" fill="rgb(255,153,153)"/>
<polygon points="142.1,554.6 148.1,554.6 148.1,560.6 142.1,560.6" fill="rgb(128,0,128)"/>
<polygon points="148.1,554.6 154.1,554.6 154.1,560.6 148.1,560.6" fill="rgb(128,0,128)"/>
<polygon points="154.1,554.6 160.1,554.6 160.1,560.6 154.1,560.6" fill="rgb(128,0,128)"/>
<polygon points="160.1,554.6 166.1,554.6 166.1,560.6 160.1,560.6" fill="rgb(128,0,128)"/>
<polygon points="166.1,554.6 172.1,554.6 172.1,560.6 166.1,560.6" fill="rgb(128,0,128)"/>
<polygon points="172.1,554.6 178.1,554.6 178.1,560.6 172.1,560.6" fill="rgb(128,0,128)"/>
<polygon points="178.1,554.6 184.1,554.6 184.1,560.6 178.1,560.6" fill="rgb(255,255,255)"/>
<polygon points="184.1,554.6 190.1,554.6 190.1,560.6 184.1,560.6" fill="rgb(255,255,255)"/>
<polygon points="190.1,554.6 196.1,554.6 196.1,560.6 190.1,560.6" fill="rgb(255,255,255)"/>
<polygon points="196.1,554.6 202.1,554.6 202.1,560.6 196.1,560.6" fill="rgb(255,255,255)"/>
<polygon points="202.1,554.6 208.1,554.6 208.1,560.6 202.1,560.6" fill="rgb(255,255,255)"/>
<polygon points="208.1,554.6 214.1,554.6 214.1,560.6 208.1,560.6" fill="rgb(255,255,255)"/>
<polygon points="214.1,554.6 220.1,554.6 220.1,560.6 214.1,560.6" fill="rgb(255,255,255)"/>
<polygon points="220.1,554.6 226.1,554.6 226.1,560.6 220.1,560.6" fill="rgb(128,0,128)"/>
<polygon points="229.1,554.6 235.1,554.6 235.1,560.6 229.1,560.6" fill="rgb(0,255,255)"/>
<polygon points="235.1,554.6 241.1,554.6 241.1,560.6 235.1,560.6" fill="rgb(0,255,255)"/>
<polygon points="241.1,554.6 247.1,554.6 247.1,560.6 241.1,560.6" fill="rgb(255,255,255)"/>
<polygon points="250.1,554.6 256.1,554.6 256.1,560.6 250.1,560.6" fill="rgb(255,154,154)"/>
<polygon points="256.1,554.6 262.1,554.6 262.1,560.6 256.1,560.6" fill="rgb(255,150,150)"/>
<polygon points="262.1,554.6 268.1,554.6 268.1,560.6 262.1,560.6" fill="rgb(255,158,158)"/>
<polygon points="268.1,554.6 274.1,554.6 274.1,560.6 268.1,560.6" fill="rgb(255,127,127)"/>
<polygon points="274.1,554.6 280.1,554.6 280.1,560.6 274.1,560.6" fill="rgb(255,200,200)"/>
<polygon points="280.1,554.6 286.1,554.6 286.1,560.6 280.1,560.6" fill="rgb(255,225,225)"/>
<polygon points="286.1,554.6 292.1,554.6 292.1,560.6 286.1,560.6" fill="rgb(255,223,223)"/>
<polygon points="292.1,554.6 298.1,554.6 298.1,560.6 292.1,560.6" fill="rgb(255,191,191)"/>
<polygon points="298.1,554.6 304.1,554.6 304.1,560.6 298.1,560.6" fill="rgb(255,211,211)"/>
<polygon points="304.1,554.6 310.1,554.6 310.1,560.6 304.1,560.6" fill="rgb(255,180,180)"/>
<polygon points="310.1,554.6 316.1,554.6 316.1,560.6 310.1,560.6" fill="rgb(255,142,142)"/>
<polygon points="316.1,554.6 322.1,554.6 322.1,560.6 316.1,560.6" fill="rgb(255,166,166)"/>
<polygon points="322.1,554.6 328.1,554.6 328.1,560.6 322.1,560.6" fill="rgb(255,161,161)"/>
<polygon points="328.1,554.6 334.1,554.6 334.1,560.6 328.1,560.6" fill="rgb(255,92,92)"/>
<polygon points="142.1,560.6 148.1,560.6 148.1,566.6 142.1,566.6" fill="rgb(128,0,128)"/>
<polygon points="148.1,560.6 154.1,560.6 154.1,566.6 148.1,566.6" fill="rgb(128,0,128)"/>
<polygon points="154.1,560.6 160.1,560.6 160.1,566.6 154.1,566.6" fill="rgb(128,0,128)"/>
<polygon points="160.1,560.6 166.1,560.6 166.1,566.6 160.1,566.6" fill="rgb(128,0,128)"/>
<polygon points="166.1,560.6 172.1,560.6 172.1,566.6 166.1,566.6" fill="rgb(128,0,128)"/>
<polygon points="172.1,560.6 178.1,560.6 178.1,566.6 172.1,566.6" fill="rgb(128,0,128)"/>
<polygon points="178.1,560.6 184.1,560.6 184.1,566.6 178.1,566.6" fill="rgb(255,255,255)"/>
<polygon points="184.1,560.6 190.1,560.6 190.1,566.6 184.1,566.6" fill="rgb(255,255,255)"/>
<polygon points="190.1,560.6 196.1,560.6 196.1,566.6 190.1,566.6" fill="rgb(255,255,255)"/>
<polygon points="196.1,560.6 202.1,560.6 202.1,566.6 196.1,566.6" fill="rgb(255,255,255)"/>
<polygon points="202.1,560.6 208.1,560.6 208.1,566.6 202.1,566.6" fill="rgb(255,255,255)"/>
<polygon points="208.1,560.6 214.1,560.6 214.1,566.6 208.1,566.6" fill="rgb(255,255,255)"/>
<polygon points="214.1,560.6 220.1,560.6 220.1,566.6 214.1,566.6" fill="rgb(255,255,255)"/>
<polygon points="220.1,560.6 226.1,560.6 226.1,566.6 220.1,566.6" fill="rgb(128,0,128)"/>
<polygon points="229.1,560.6 235.1,560.6 235.1,566.6 229.1,566.6" fill="rgb(0,255,255)"/>
<polygon points="235.1,560.6 241.1,560.6 241.1,566.6 235.1,566.6" fill="rgb(0,255,255)"/>
<polygon points="241.1,560.6 247.1,560.6 247.1,566.6 241.1,566.6" fill="rgb(255,255,255)"/>
<polygon points="250.1,560.6 256.1,560.6 256.1,566.6 250.1,566.6" fill="rgb(254,134,134)"/>
<polygon points="256.1,560.6 262.1,560.6 262.1,566.6 256.1,566.6" fill="rgb(255,119,119)"/>
<polygon points="262.1,560.6 268.1,560.6 268.1,566.6 262.1,566.6" fill="rgb(255,153,153)"/>
<polygon points="268.1,560.6 274.1,560.6 274.1,566.6 268.1,566.6" fill="rgb(255,105,105)"/>
<polygon points="274.1,560.6 280.1,560.6 280.1,566.6 274.1,566.6" fill="rgb(255,213,213)"/>
<polygon points="280.1,560.6 286.1,560.6 286.1,566.6 280.1,566.6" fill="rgb(255,245,245)"/>
<polygon points="286.1,560.6 292.1,560.6 292.1,566.6 286.1,566.6" fill="rgb(255,224,224)"/>
<polygon points="292.1,560.6 298.1,560.6 298.1,566.6 292.1,566.6" fill="rgb(255,180,180)"/>
<polygon points="298.1,560.6 304.1,560.6 304.1,566.6 298.1,566.6" fill="rgb(255,205,205)"/>
<polygon points="304.1,560.6 310.1,560.6 310.1,566.6 304.1,566.6" fill="rgb(255,155,155)"/>
<polygon points="310.1,560.6 316.1,560.6 316.1,566.6 310.1,566.6" fill="rgb(255,94,94)"/>
<polygon points="316.1,560.6 322.1,560.6 322.1,566.6 316.1,566.6" fill="rgb(255,172,172)"/>
<polygon points="322.1,560.6 328.1,560.6 328.1,566.6 322.1,566.6" fill="rgb(255,160,160)"/>
<polygon points="328.1,560.6 334.1,560.6 334.1,566.6 328.1,566.6" fill="rgb(255,152,152)"/>
<polygon points="142.1,566.6 148.1,566.6 148.1,572.6 142.1,572.6" fill="rgb(255,255,255)"/>
<polygon points="148.1,566.6 154.1,566.6 154.1,572.6 148.1,572.6" fill="rgb(255,255,255)"/>
<polygon points="154.1,566.6 160.1,566.6 160.1,572.6 154.1,572.6" fill="rgb(255,255,255)"/>
<polygon points="160.1,566.6 166.1,566.6 166.1,572.6 160.1,572.6" fill="rgb(255,255,255)"/>
<polygon points="166.1,566.6 172.1,566.6 172.1,572.6 166.1,572.6" fill="rgb(255,255,255)"/>
<polygon points="172.1,566.6 178.1,566.6 178.1,572.6 172.1,572.6" fill="rgb(255,255,255)"/>
<polygon points="178.1,566.6 184.1,566.6 184.1,572.6 178.1,572.6" fill="rgb(255,255,255)"/>
<polygon points="184.1,566.6 190.1,566.6 190.1,572.6 184.1,572.6" fill="rgb(255,255,255)"/>
<polygon points="190.1,566.6 196.1,566.6 196.1,572.6 190.1,572.6" fill="rgb(255,255,255)"/>
<polygon points="196.1,566.6 202.1,566.6 202.1,572.6 196.1,572.6" fill="rgb(255,255,255)"/>
<polygon points="202.1,566.6 208.1,566.6 208.1,572.6 202.1,572.6" fill="rgb(255,255,255)"/>
<polygon points="208.1,566.6 214.1,566.6 214.1,572.6 208.1,572.6" fill="rgb(255,255,255)"/>
<polygon points="214.1,566.6 220.1,566.6 220.1,572.6 214.1,572.6" fill="rgb(128,0,128)"/>
<polygon points="220.1,566.6 226.1,566.6 226.1,572.6 220.1,572.6" fill="rgb(128,0,128)"/>
<polygon points="229.1,566.6 235.1,566.6 235.1,572.6 229.1,572.6" fill="rgb(0,255,255)"/>
<polygon points="235.1,566.6 241.1,566.6 241.1,572.6 235.1,572.6" fill="rgb(0,255,255)"/>
<polygon points="241.1,566.6 247.1,566.6 247.1,572.6 241.1,572.6" fill="rgb(0,255,255)"/>
<polygon points="250.1,566.6 256.1,566.6 256.1,572.6 250.1,572.6" fill="rgb(255,37,37)"/>
<polygon points="256.1,566.6 262.1,566.6 262.1,572.6 256.1,572.6" fill="rgb(255,18,18)"/>
<polygon points="262.1,566.6 268.1,566.6 268.1,572.6 262.1,572.6" fill="rgb(252,0,0)"/>
<polygon points="268.1,566.6 274.1,566.6 274.1,572.6 268.1,572.6" fill="rgb(229,0,0)"/>
<polygon points="274.1,566.6 280.1,566.6 280.1,572.6 274.1,572.6" fill="rgb(255,98,98)"/>
<polygon points="280.1,566.6 286.1,566.6 286.1,572.6 280.1,572.6" fill="rgb(255,124,124)"/>
<polygon points="286.1,566.6 292.1,566.6 292.1,572.6 286.1,572.6" fill="rgb(255,140,140)"/>
<polygon points="292.1,566.6 298.1,566.6 298.1,572.6 292.1,572.6" fill="rgb(255,64,64)"/>
<polygon points="298.1,566.6 304.1,566.6 304.1,572.6 298.1,572.6" fill="rgb(255,100,100)"/>
<polygon points="304.1,566.6 310.1,566.6 310.1,572.6 304.1,572.6" fill="rgb(255,32,32)"/>
<polygon points="310.1,566.6 316.1,566.6 316.1,572.6 310.1,572.6" fill="rgb(237,0,0)"/>
<polygon points="316.1,566.6 322.1,566.6 322.1,572.6 316.1,572.6" fill="rgb(255,36,36)"/>
<polygon points="322.1,566.6 328.1,566.6 328.1,572.6 322.1,572.6" fill="rgb(255,11,11)"/>
<polygon points="328.1,566.6 334.1,566.6 334.1,572.6 328.1,572.6" fill="rgb(235,0,0)"/>
<polygon points="142.1,572.6 148.1,572.6 148.1,578.6 142.1,578.6" fill="rgb(128,0,128)"/>
<polygon points="148.1,572.6 154.1,572.6 154.1,578.6 148.1,578.6" fill="rgb(128,0,128)"/>
<polygon points="154.1,572.6 160.1,572.6 160.1,578.6 154.1,578.6" fill="rgb(128,0,128)"/>
<polygon points="160.1,572.6 166.1,572.6 166.1,578.6 160.1,578.6" fill="rgb(128,0,128)"/>
<polygon points="166.1,572.6 172.1,572.6 172.1,578.6 166.1,578.6" fill="rgb(128,0,128)"/>
<polygon points="172.1,572.6 178.1,572.6 178.1,578.6 172.1,578.6" fill="rgb(128,0,128)"/>
<polygon points="178.1,572.6 184.1,572.6 184.1,578.6 178.1,578.6" fill="rgb(128,0,128)"/>
<polygon points="184.1,572.6 190.1,572.6 190.1,578.6 184.1,578.6" fill="rgb(128,0,128)"/>
<polygon points="190.1,572.6 196.1,572.6 196.1,578.6 190.1,578.6" fill="rgb(128,0,128)"/>
<polygon points="196.1,572.6 202.1,572.6 202.1,578.6 196.1,578.6" fill="rgb(128,0,128)"/>
<polygon points="202.1,572.6 208.1,572.6 208.1,578.6 202.1,578.6" fill="rgb(128,0,128)"/>
<polygon points="208.1,572.6 214.1,572.6 214.1,578.6 208.1,578.6" fill="rgb(128,0,128)"/>
<polygon points="214.1,572.6 220.1,572.6 220.1,578.6 214.1,578.6" fill="rgb(128,0,128)"/>
<polygon points="220.1,572.6 226.1,572.6 226.1,578.6 220.1,578.6" fill="rgb(128,0,128)"/>
<polygon points="229.1,572.6 235.1,572.6 235.1,578.6 229.1,578.6" fill="rgb(0,255,255)"/>
<polygon points="235.1,572.6 241.1,572.6 241.1,578.6 235.1,578.6" fill="rgb(0,255,255)"/>
<polygon points="241.1,572.6 247.1,572.6 247.1,578.6 241.1,578.6" fill="rgb(0,255,255)"/>
<polygon points="250.1,572.6 256.1,572.6 256.1,578.6 250.1,578.6" fill="rgb(255,104,104)"/>
<polygon points="256.1,572.6 262.1,572.6 262.1,578.6 256.1,578.6" fill="rgb(255,107,107)"/>
<polygon points="262.1,572.6 268.1,572.6 268.1,578.6 262.1,578.6" fill="rgb(255,131,131)"/>
<polygon points="268.1,572.6 274.1,572.6 274.1,578.6 268.1,578.6" fill="rgb(255,99,99)"/>
<polygon points="274.1,572.6 280.1,572.6 280.1,578.6 274.1,578.6" fill="rgb(255,173,173)"/>
<polygon points="280.1,572.6 286.1,572.6 286.1,578.6 280.1,578.6" fill="rgb(255,192,192)"/>
<polygon points="286.1,572.6 292.1,572.6 292.1,578.6 286.1,578.6" fill="rgb(255,226,226)"/>
<polygon points="292.1,572.6 298.1,572.6 298.1,578.6 292.1,578.6" fill="rgb(255,174,174)"/>
<polygon points="298.1,572.6 304.1,572.6 304.1,578.6 298.1,578.6" fill="rgb(255,196,196)"/>
<polygon points="304.1,572.6 310.1,572.6 310.1,578.6 304.1,578.6" fill="rgb(254,156,156)"/>
<polygon points="310.1,572.6 316.1,572.6 316.1,578.6 310.1,578.6" fill="rgb(255,133,133)"/>
<polygon points="316.1,572.6 322.1,572.6 322.1,578.6 316.1,578.6" fill="rgb(255,174,174)"/>
<polygon points="322.1,572.6 328.1,572.6 328.1,578.6 322.1,578.6" fill="rgb(255,146,146)"/>
<polygon points="328.1,572.6 334.1,572.6 334.1,578.6 328.1,578.6" fill="rgb(255,98,98)"/>
<polygon points="142.1,578.6 148.1,578.6 148.1,584.6 142.1,584.6" fill="rgb(255,255,255)"/>
<polygon points="148.1,578.6 154.1,578.6 154.1,584.6 148.1,584.6" fill="rgb(255,255,255)"/>
<polygon points="154.1,578.6 160.1,578.6 160.1,584.6 154.1,584.6" fill="rgb(255,255,255)"/>
<polygon points="160.1,578.6 166.1,578.6 166.1,584.6 160.1,584.6" fill="rgb(255,255,255)"/>
<polygon points="166.1,578.6 172.1,578.6 172.1,584.6 166.1,584.6" fill="rgb(255,255,255)"/>
<polygon points="172.1,578.6 178.1,578.6 178.1,584.6 172.1,584.6" fill="rgb(255,255,255)"/>
<polygon points="178.1,578.6 184.1,578.6 184.1,584.6 178.1,584.6" fill="rgb(255,255,255)"/>
<polygon points="184.1,578.6 190.1,578.6 190.1,584.6 184.1,584.6" fill="rgb(255,255,255)"/>
<polygon points="190.1,578.6 196.1,578.6 196.1,584.6 190.1,584.6" fill="rgb(255,255,255)"/>
<polygon points="196.1,578.6 202.1,578.6 202.1,584.6 196.1,584.6" fill="rgb(255,255,255)"/>
<polygon points="202.1,578.6 208.1,578.6 208.1,584.6 202.1,584.6" fill="rgb(255,255,255)"/>
<polygon points="208.1,578.6 214.1,578.6 214.1,584.6 208.1,584.6" fill="rgb(255,255,255)"/>
<polygon points="214.1,578.6 220.1,578.6 220.1,584.6 214.1,584.6" fill="rgb(255,255,255)"/>
<polygon points="220.1,578.6 226.1,578.6 226.1,584.6 220.1,584.6" fill="rgb(255,255,255)"/>
<polygon points="229.1,578.6 235.1,578.6 235.1,584.6 229.1,584.6" fill="rgb(0,255,255)"/>
<polygon points="235.1,578.6 241.1,578.6 241.1,584.6 235.1,584.6" fill="rgb(255,255,255)"/>
<polygon points="241.1,578.6 247.1,578.6 247.1,584.6 241.1,584.6" fill="rgb(0,255,255)"/>
<polygon points="250.1,578.6 256.1,578.6 256.1,584.6 250.1,584.6" fill="rgb(255,126,126)"/>
<polygon points="256.1,578.6 262.1,578.6 262.1,584.6 256.1,584.6" fill="rgb(255,118,118)"/>
<polygon points="262.1,578.6 268.1,578.6 268.1,584.6 262.1,584.6" fill="rgb(255,105,105)"/>
<polygon points="268.1,578.6 274.1,578.6 274.1,584.6 268.1,584.6" fill="rgb(255,87,87)"/>
<polygon points="274.1,578.6 280.1,578.6 280.1,584.6 274.1,584.6" fill="rgb(255,167,167)"/>
<polygon points="280.1,578.6 286.1,578.6 286.1,584.6 280.1,584.6" fill="rgb(255,173,173)"/>
<polygon points="286.1,578.6 292.1,578.6 292.1,584.6 286.1,584.6" fill="rgb(255,192,192)"/>
<polygon points="292.1,578.6 298.1,578.6 298.1,584.6 292.1,584.6" fill="rgb(255,136,136)"/>
<polygon points="298.1,578.6 304.1,578.6 304.1,584.6 298.1,584.6" fill="rgb(255,166,166)"/>
<polygon points="304.1,578.6 310.1,578.6 310.1,584.6 304.1,584.6" fill="rgb(255,141,141)"/>
<polygon points="310.1,578.6 316.1,578.6 316.1,584.6 310.1,584.6" fill="rgb(255,106,106)"/>
<polygon points="316.1,578.6 322.1,578.6 322.1,584.6 316.1,584.6" fill="rgb(255,135,135)"/>
<polygon points="322.1,578.6 328.1,578.6 328.1,584.6 322.1,584.6" fill="rgb(255,123,123)"/>
<polygon points="328.1,578.6 334.1,578.6 334.1,584.6 328.1,584.6" fill="rgb(255,82,82)"/>
<polygon points="142.1,584.6 148.1,584.6 148.1,590.6 142.1,590.6" fill="rgb(128,0,128)"/>
<polygon points="148.1,584.6 154.1,584.6 154.1,590.6 148.1,590.6" fill="rgb(128,0,128)"/>
<polygon points="154.1,584.6 160.1,584.6 160.1,590.6 154.1,590.6" fill="rgb(128,0,128)"/>
<polygon points="160.1,584.6 166.1,584.6 166.1,590.6 160.1,590.6" fill="rgb(128,0,128)"/>
<polygon points="166.1,584.6 172.1,584.6 172.1,590.6 166.1,590.6" fill="rgb(128,0,128)"/>
<polygon points="172.1,584.6 178.1,584.6 178.1,590.6 172.1,590.6" fill="rgb(128,0,128)"/>
<polygon points="178.1,584.6 184.1,584.6 184.1,590.6 178.1,590.6" fill="rgb(128,0,128)"/>
<polygon points="184.1,584.6 190.1,584.6 190.1,590.6 184.1,590.6" fill="rgb(128,0,128)"/>
<polygon points="190.1,584.6 196.1,584.6 196.1,590.6 190.1,590.6" fill="rgb(128,0,128)"/>
<polygon points="196.1,584.6 202.1,584.6 202.1,590.6 196.1,590.6" fill="rgb(128,0,128)"/>
<polygon points="202.1,584.6 208.1,584.6 208.1,590.6 202.1,590.6" fill="rgb(128,0,128)"/>
<polygon points="208.1,584.6 214.1,584.6 214.1,590.6 208.1,590.6" fill="rgb(128,0,128)"/>
<polygon points="214.1,584.6 220.1,584.6 220.1,590.6 214.1,590.6" fill="rgb(128,0,128)"/>
<polygon points="220.1,584.6 226.1,584.6 226.1,590.6 220.1,590.6" fill="rgb(128,0,128)"/>
<polygon points="229.1,584.6 235.1,584.6 235.1,590.6 229.1,590.6" fill="rgb(255,255,255)"/>
<polygon points="235.1,584.6 241.1,584.6 241.1,590.6 235.1,590.6" fill="rgb(255,255,255)"/>
<polygon points="241.1,584.6 247.1,584.6 247.1,590.6 241.1,590.6" fill="rgb(0,255,255)"/>
<polygon points="250.1,584.6 256.1,584.6 256.1,590.6 250.1,590.6" fill="rgb(255,116,116)"/>
<polygon points="256.1,584.6 262.1,584.6 262.1,590.6 256.1,590.6" fill="rgb(255,110,110)"/>
<polygon points="262.1,584.6 268.1,584.6 268.1,590.6 262.1,590.6" fill="rgb(255,119,119)"/>
<polygon points="268.1,584.6 274.1,584.6 274.1,590.6 268.1,590.6" fill="rgb(255,106,106)"/>
<polygon points="274.1,584.6 280.1,584.6 280.1,590.6 274.1,590.6" fill="rgb(255,175,175)"/>
<polygon points="280.1,584.6 286.1,584.6 286.1,590.6 280.1,590.6" fill="rgb(255,185,185)"/>
<polygon points="286.1,584.6 292.1,584.6 292.1,590.6 286.1,590.6" fill="rgb(255,186,186)"/>
<polygon points="292.1,584.6 298.1,584.6 298.1,590.6 292.1,590.6" fill="rgb(255,158,158)"/>
<polygon points="298.1,584.6 304.1,584.6 304.1,590.6 298.1,590.6" fill="rgb(255,179,179)"/>
<polygon points="304.1,584.6 310.1,584.6 310.1,590.6 304.1,590.6" fill="rgb(255,153,153)"/>
<polygon points="310.1,584.6 316.1,584.6 316.1,590.6 310.1,590.6" fill="rgb(255,124,124)"/>
<polygon points="316.1,584.6 322.1,584.6 322.1,590.6 316.1,590.6" fill="rgb(255,132,132)"/>
<polygon points="322.1,584.6 328.1,584.6 328.1,590.6 322.1,590.6" fill="rgb(255,124,124)"/>
<polygon points="328.1,584.6 334.1,584.6 334.1,590.6 328.1,590.6" fill="rgb(255,84,84)"/>
<polygon points="142.1,590.6 148.1,590.6 148.1,596.6 142.1,596.6" fill="rgb(255,255,255)"/>
<polygon points="148.1,590.6 154.1,590.6 154.1,596.6 148.1,596.6" fill="rgb(255,255,255)"/>
<polygon points="154.1,590.6 160.1,590.6 160.1,596.6 154.1,596.6" fill="rgb(255,255,255)"/>
<polygon points="160.1,590.6 166.1,590.6 166.1,596.6 160.1,596.6" fill="rgb(255,255,255)"/>
<polygon points="166.1,590.6 172.1,590.6 172.1,596.6 166.1,596.6" fill="rgb(255,255,255)"/>
<polygon points="172.1,590.6 178.1,590.6 178.1,596.6 172.1,596.6" fill="rgb(255,255,255)"/>
<polygon points="178.1,590.6 184.1,590.6 184.1,596.6 178.1,596.6" fill="rgb(255,255,255)"/>
<polygon points="184.1,590.6 190.1,590.6 190.1,596.6 184.1,596.6" fill="rgb(255,255,255)"/>
<polygon points="190.1,590.6 196.1,590.6 196.1,596.6 190.1,596.6" fill="rgb(255,255,255)"/>
<polygon points="196.1,590.6 202.1,590.6 202.1,596.6 196.1,596.6" fill="rgb(255,255,255)"/>
<polygon points="202.1,590.6 208.1,590.6 208.1,596.6 202.1,596.6" fill="rgb(255,255,255)"/>
<polygon points="208.1,590.6 214.1,590.6 214.1,596.6 208.1,596.6" fill="rgb(255,255,255)"/>
<polygon points="214.1,590.6 220.1,590.6 220.1,596.6 214.1,596.6" fill="rgb(255,255,255)"/>
<polygon points="220.1,590.6 226.1,590.6 226.1,596.6 220.1,596.6" fill="rgb(255,255,255)"/>
<polygon points="229.1,590.6 235.1,590.6 235.1,596.6 229.1,596.6" fill="rgb(255,255,255)"/>
<polygon points="235.1,590.6 241.1,590.6 241.1,596.6 235.1,596.6" fill="rgb(255,255,255)"/>
<polygon points="241.1,590.6 247.1,590.6 247.1,596.6 241.1,596.6" fill="rgb(255,255,255)"/>
<polygon points="250.1,590.6 256.1,590.6 256.1,596.6 250.1,596.6" fill="rgb(255,185,185)"/>
<polygon points="256.1,590.6 262.1,590.6 262.1,596.6 256.1,596.6" fill="rgb(255,170,170)"/>
<polygon points="262.1,590.6 268.1,590.6 268.1,596.6 262.1,596.6" fill="rgb(255,200,200)"/>
<polygon points="268.1,590.6 274.1,590.6 274.1,596.6 268.1,596.6" fill="rgb(255,177,177)"/>
<polygon points="274.1,590.6 280.1,590.6 280.1,596.6 274.1,596.6" fill="rgb(255,234,234)"/>
<polygon points="280.1,590.6 286.1,590.6 286.1,596.6 280.1,596.6" fill="rgb(255,240,240)"/>
<polygon points="286.1,590.6 292.1,590.6 292.1,596.6 286.1,596.6" fill="rgb(175,175,255)"/>
<polygon points="292.1,590.6 298.1,590.6 298.1,596.6 292.1,596.6" fill="rgb(254,231,231)"/>
<polygon points="298.1,590.6 304.1,590.6 304.1,596.6 298.1,596.6" fill="rgb(255,245,245)"/>
<polygon points="304.1,590.6 310.1,590.6 310.1,596.6 304.1,596.6" fill="rgb(255,229,229)"/>
<polygon points="310.1,590.6 316.1,590.6 316.1,596.6 310.1,596.6" fill="rgb(255,204,204)"/>
<polygon points="316.1,590.6 322.1,590.6 322.1,596.6 316.1,596.6" fill="rgb(255,234,234)"/>
<polygon points="322.1,590.6 328.1,590.6 328.1,596.6 322.1,596.6" fill="rgb(255,229,229)"/>
<polygon points="328.1,590.6 334.1,590.6 334.1,596.6 328.1,596.6" fill="rgb(255,205,205)"/>
<polygon points="142.1,596.6 148.1,596.6 148.1,602.6 142.1,602.6" fill="rgb(128,0,128)"/>
<polygon points="148.1,596.6 154.1,596.6 154.1,602.6 148.1,602.6" fill="rgb(128,0,128)"/>
<polygon points="154.1,596.6 160.1,596.6 160.1,602.6 154.1,602.6" fill="rgb(128,0,128)"/>
<polygon points="160.1,596.6 166.1,596.6 166.1,602.6 160.1,602.6" fill="rgb(128,0,128)"/>
<polygon points="166.1,596.6 172.1,596.6 172.1,602.6 166.1,602.6" fill="rgb(128,0,128)"/>
<polygon points="172.1,596.6 178.1,596.6 178.1,602.6 172.1,602.6" fill="rgb(128,0,128)"/>
<polygon points="178.1,596.6 184.1,596.6 184.1,602.6 178.1,602.6" fill="rgb(128,0,128)"/>
<polygon points="184.1,596.6 190.1,596.6 190.1,602.6 184.1,602.6" fill="rgb(128,0,128)"/>
<polygon points="190.1,596.6 196.1,596.6 196.1,602.6 190.1,602.6" fill="rgb(128,0,128)"/>
<polygon points="196.1,596.6 202.1,596.6 202.1,602.6 196.1,602.6" fill="rgb(128,0,128)"/>
<polygon points="202.1,596.6 208.1,596.6 208.1,602.6 202.1,602.6" fill="rgb(128,0,128)"/>
<polygon points="208.1,596.6 214.1,596.6 214.1,602.6 208.1,602.6" fill="rgb(128,0,128)"/>
<polygon points="214.1,596.6 220.1,596.6 220.1,602.6 214.1,602.6" fill="rgb(128,0,128)"/>
<polygon points="220.1,596.6 226.1,596.6 226.1,602.6 220.1,602.6" fill="rgb(128,0,128)"/>
<polygon points="229.1,596.6 235.1,596.6 235.1,602.6 229.1,602.6" fill="rgb(255,255,255)"/>
<polygon points="235.1,596.6 241.1,596.6 241.1,602.6 235.1,602.6" fill="rgb(0,255,255)"/>
<polygon points="241.1,596.6 247.1,596.6 247.1,602.6 241.1,602.6" fill="rgb(255,255,255)"/>
<polygon points="250.1,596.6 256.1,596.6 256.1,602.6 250.1,602.6" fill="rgb(255,157,157)"/>
<polygon points="256.1,596.6 262.1,596.6 262.1,602.6 256.1,602.6" fill="rgb(255,153,153)"/>
<polygon points="262.1,596.6 268.1,596.6 268.1,602.6 262.1,602.6" fill="rgb(255,162,162)"/>
<polygon points="268.1,596.6 274.1,596.6 274.1,602.6 268.1,602.6" fill="rgb(255,141,141)"/>
<polygon points="274.1,596.6 280.1,596.6 280.1,602.6 274.1,602.6" fill="rgb(255,211,211)"/>
<polygon points="280.1,596.6 286.1,596.6 286.1,602.6 280.1,602.6" fill="rgb(255,205,205)"/>
<polygon points="286.1,596.6 292.1,596.6 292.1,602.6 286.1,602.6" fill="rgb(254,230,230)"/>
<polygon points="292.1,596.6 298.1,596.6 298.1,602.6 292.1,602.6" fill="rgb(255,201,201)"/>
<polygon points="298.1,596.6 304.1,596.6 304.1,602.6 298.1,602.6" fill="rgb(255,224,224)"/>
<polygon points="304.1,596.6 310.1,596.6 310.1,602.6 304.1,602.6" fill="rgb(255,194,194)"/>
<polygon points="310.1,596.6 316.1,596.6 316.1,602.6 310.1,602.6" fill="rgb(255,170,170)"/>
<polygon points="316.1,596.6 322.1,596.6 322.1,602.6 316.1,602.6" fill="rgb(254,200,200)"/>
<polygon points="322.1,596.6 328.1,596.6 328.1,602.6 322.1,602.6" fill="rgb(255,161,161)"/>
<polygon points="328.1,596.6 334.1,596.6 334.1,602.6 328.1,602.6" fill="rgb(255,128,128)"/>
<polygon points="142.1,605.6 148.1,605.6 148.1,611.6 142.1,611.6" fill="rgb(255,255,255)"/>
<polygon points="148.1,605.6 154.1,605.6 154.1,611.6 148.1,611.6" fill="rgb(255,255,255)"/>
<polygon points="154.1,605.6 160.1,605.6 160.1,611.6 154.1,611.6" fill="rgb(255,255,255)"/>
<polygon points="160.1,605.6 166.1,605.6 166.1,611.6 160.1,611.6" fill="rgb(255,255,255)"/>
<polygon points="166.1,605.6 172.1,605.6 172.1,611.6 166.1,611.6" fill="rgb(255,255,255)"/>
<polygon points="172.1,605.6 178.1,605.6 178.1,611.6 172.1,611.6" fill="rgb(255,255,255)"/>
<polygon points="178.1,605.6 184.1,605.6 184.1,611.6 178.1,611.6" fill="rgb(255,255,255)"/>
<polygon points="184.1,605.6 190.1,605.6 190.1,611.6 184.1,611.6" fill="rgb(255,255,255)"/>
<polygon points="190.1,605.6 196.1,605.6 196.1,611.6 190.1,611.6" fill="rgb(255,255,255)"/>
<polygon points="196.1,605.6 202.1,605.6 202.1,611.6 196.1,611.6" fill="rgb(255,255,255)"/>
<polygon points="202.1,605.6 208.1,605.6 208.1,611.6 202.1,611.6" fill="rgb(255,255,255)"/>
<polygon points="208.1,605.6 214.1,605.6 214.1,611.6 208.1,611.6" fill="rgb(255,255,255)"/>
<polygon points="214.1,605.6 220.1,605.6 220.1,611.6 214.1,611.6" fill="rgb(255,255,255)"/>
<polygon points="220.1,605.6 226.1,605.6 226.1,611.6 220.1,611.6" fill="rgb(255,255,255)"/>
<polygon points="229.1,605.6 235.1,605.6 235.1,611.6 229.1,611.6" fill="rgb(255,255,255)"/>
<polygon points="235.1,605.6 241.1,605.6 241.1,611.6 235.1,611.6" fill="rgb(255,255,255)"/>
<polygon points="241.1,605.6 247.1,605.6 247.1,611.6 241.1,611.6" fill="rgb(255,255,255)"/>
<polygon points="250.1,605.6 256.1,605.6 256.1,611.6 250.1,611.6" fill="rgb(0,0,255)"/>
<polygon points="256.1,605.6 262.1,605.6 262.1,611.6 256.1,611.6" fill="rgb(133,133,255)"/>
<polygon points="262.1,605.6 268.1,605.6 268.1,611.6 262.1,611.6" fill="rgb(255,243,243)"/>
<polygon points="268.1,605.6 274.1,605.6 274.1,611.6 268.1,611.6" fill="rgb(255,204,204)"/>
<polygon points="274.1,605.6 280.1,605.6 280.1,611.6 274.1,611.6" fill="rgb(0,0,255)"/>
<polygon points="280.1,605.6 286.1,605.6 286.1,611.6 280.1,611.6" fill="rgb(0,0,255)"/>
<polygon points="286.1,605.6 292.1,605.6 292.1,611.6 286.1,611.6" fill="rgb(0,0,255)"/>
<polygon points="292.1,605.6 298.1,605.6 298.1,611.6 292.1,611.6" fill="rgb(0,0,255)"/>
<polygon points="298.1,605.6 304.1,605.6 304.1,611.6 298.1,611.6" fill="rgb(0,0,255)"/>
<polygon points="304.1,605.6 310.1,605.6 310.1,611.6 304.1,611.6" fill="rgb(211,211,255)"/>
<polygon points="310.1,605.6 316.1,605.6 316.1,611.6 310.1,611.6" fill="rgb(254,227,227)"/>
<polygon points="316.1,605.6 322.1,605.6 322.1,611.6 316.1,611.6" fill="rgb(0,0,255)"/>
<polygon points="322.1,605.6 328.1,605.6 328.1,611.6 322.1,611.6" fill="rgb(0,0,255)"/>
<polygon points="328.1,605.6 334.1,605.6 334.1,611.6 328.1,611.6" fill="rgb(255,238,238)"/>
<polygon points="142.1,611.6 148.1,611.6 148.1,617.6 142.1,617.6" fill="rgb(255,255,255)"/>
<polygon points="148.1,611.6 154.1,611.6 154.1,617.6 148.1,617.6" fill="rgb(255,255,255)"/>
<polygon points="154.1,611.6 160.1,611.6 160.1,617.6 154.1,617.6" fill="rgb(255,255,255)"/>
<polygon points="160.1,611.6 166.1,611.6 166.1,617.6 160.1,617.6" fill="rgb(255,255,255)"/>
<polygon points="166.1,611.6 172.1,611.6 172.1,617.6 166.1,617.6" fill="rgb(255,255,255)"/>
<polygon points="172.1,611.6 178.1,611.6 178.1,617.6 172.1,617.6" fill="rgb(255,255,255)"/>
<polygon points="178.1,611.6 184.1,611.6 184.1,617.6 178.1,617.6" fill="rgb(255,255,255)"/>
<polygon points="184.1,611.6 190.1,611.6 190.1,617.6 184.1,617.6" fill="rgb(255,255,255)"/>
<polygon points="190.1,611.6 196.1,611.6 196.1,617.6 190.1,617.6" fill="rgb(255,255,255)"/>
<polygon points="196.1,611.6 202.1,611.6 202.1,617.6 196.1,617.6" fill="rgb(255,255,255)"/>
<polygon points="202.1,611.6 208.1,611.6 208.1,617.6 202.1,617.6" fill="rgb(255,255,255)"/>
<polygon points="208.1,611.6 214.1,611.6 214.1,617.6 208.1,617.6" fill="rgb(255,255,255)"/>
<polygon points="214.1,611.6 220.1,611.6 220.1,617.6 214.1,617.6" fill="rgb(255,255,255)"/>
<polygon points="220.1,611.6 226.1,611.6 226.1,617.6 220.1,617.6" fill="rgb(255,255,255)"/>
<polygon points="229.1,611.6 235.1,611.6 235.1,617.6 229.1,617.6" fill="rgb(255,255,255)"/>
<polygon points="235.1,611.6 241.1,611.6 241.1,617.6 235.1,617.6" fill="rgb(255,255,255)"/>
<polygon points="241.1,611.6 247.1,611.6 247.1,617.6 241.1,617.6" fill="rgb(255,255,255)"/>
<polygon points="250.1,611.6 256.1,611.6 256.1,617.6 250.1,617.6" fill="rgb(255,252,252)"/>
<polygon points="256.1,611.6 262.1,611.6 262.1,617.6 256.1,617.6" fill="rgb(255,235,235)"/>
<polygon points="262.1,611.6 268.1,611.6 268.1,617.6 262.1,617.6" fill="rgb(255,236,236)"/>
<polygon points="268.1,611.6 274.1,611.6 274.1,617.6 268.1,617.6" fill="rgb(255,211,211)"/>
<polygon points="274.1,611.6 280.1,611.6 280.1,617.6 274.1,617.6" fill="rgb(63,63,255)"/>
<polygon points="280.1,611.6 286.1,611.6 286.1,617.6 280.1,617.6" fill="rgb(0,0,255)"/>
<polygon points="286.1,611.6 292.1,611.6 292.1,617.6 286.1,617.6" fill="rgb(0,0,255)"/>
<polygon points="292.1,611.6 298.1,611.6 298.1,617.6 292.1,617.6" fill="rgb(0,0,255)"/>
<polygon points="298.1,611.6 304.1,611.6 304.1,617.6 298.1,617.6" fill="rgb(0,0,255)"/>
<polygon points="304.1,611.6 310.1,611.6 310.1,617.6 304.1,617.6" fill="rgb(0,0,255)"/>
<polygon points="310.1,611.6 316.1,611.6 316.1,617.6 310.1,617.6" fill="rgb(255,224,224)"/>
<polygon points="316.1,611.6 322.1,611.6 322.1,617.6 316.1,617.6" fill="rgb(0,0,255)"/>
<polygon points="322.1,611.6 328.1,611.6 328.1,617.6 322.1,617.6" fill="rgb(255,252,252)"/>
<polygon points="328.1,611.6 334.1,611.6 334.1,617.6 328.1,617.6" fill="rgb(255,204,204)"/>
<polygon points="142.1,617.6 148.1,617.6 148.1,623.6 142.1,623.6" fill="rgb(255,255,255)"/>
<polygon points="148.1,617.6 154.1,617.6 154.1,623.6 148.1,623.6" fill="rgb(255,255,255)"/>
<polygon points="154.1,617.6 160.1,617.6 160.1,623.6 154.1,623.6" fill="rgb(255,255,255)"/>
<polygon points="160.1,617.6 166.1,617.6 166.1,623.6 160.1,623.6" fill="rgb(255,255,255)"/>
<polygon points="166.1,617.6 172.1,617.6 172.1,623.6 166.1,623.6" fill="rgb(255,255,255)"/>
<polygon points="172.1,617.6 178.1,617.6 178.1,623.6 172.1,623.6" fill="rgb(255,255,255)"/>
<polygon points="178.1,617.6 184.1,617.6 184.1,623.6 178.1,623.6" fill="rgb(255,255,255)"/>
<polygon points="184.1,617.6 190.1,617.6 190.1,623.6 184.1,623.6" fill="rgb(255,255,255)"/>
<polygon points="190.1,617.6 196.1,617.6 196.1,623.6 190.1,623.6" fill="rgb(255,255,255)"/>
<polygon points="196.1,617.6 202.1,617.6 202.1,623.6 196.1,623.6" fill="rgb(255,255,255)"/>
<polygon points="202.1,617.6 208.1,617.6 208.1,623.6 202.1,623.6" fill="rgb(255,255,255)"/>
<polygon points="208.1,617.6 214.1,617.6 214.1,623.6 208.1,623.6" fill="rgb(255,255,255)"/>
<polygon points="214.1,617.6 220.1,617.6 220.1,623.6 214.1,623.6" fill="rgb(255,255,255)"/>
<polygon points="220.1,617.6 226.1,617.6 226.1,623.6 220.1,623.6" fill="rgb(255,255,255)"/>
<polygon points="229.1,617.6 235.1,617.6 235.1,623.6 229.1,623.6" fill="rgb(255,255,255)"/>
<polygon points="235.1,617.6 241.1,617.6 241.1,623.6 235.1,623.6" fill="rgb(255,255,255)"/>
<polygon points="241.1,617.6 247.1,617.6 247.1,623.6 241.1,623.6" fill="rgb(255,255,255)"/>
<polygon points="250.1,617.6 256.1,617.6 256.1,623.6 250.1,623.6" fill="rgb(0,0,255)"/>
<polygon points="256.1,617.6 262.1,617.6 262.1,623.6 256.1,623.6" fill="rgb(0,0,255)"/>
<polygon points="262.1,617.6 268.1,617.6 268.1,623.6 262.1,623.6" fill="rgb(255,243,243)"/>
<polygon points="268.1,617.6 274.1,617.6 274.1,623.6 268.1,623.6" fill="rgb(104,104,255)"/>
<polygon points="274.1,617.6 280.1,617.6 280.1,623.6 274.1,623.6" fill="rgb(0,0,255)"/>
<polygon points="280.1,617.6 286.1,617.6 286.1,623.6 280.1,623.6" fill="rgb(0,0,255)"/>
<polygon points="286.1,617.6 292.1,617.6 292.1,623.6 286.1,623.6" fill="rgb(0,0,255)"/>
<polygon points="292.1,617.6 298.1,617.6 298.1,623.6 292.1,623.6" fill="rgb(0,0,255)"/>
<polygon points="298.1,617.6 304.1,617.6 304.1,623.6 298.1,623.6" fill="rgb(0,0,255)"/>
<polygon points="304.1,617.6 310.1,617.6 310.1,623.6 304.1,623.6" fill="rgb(0,0,255)"/>
<polygon points="310.1,617.6 316.1,617.6 316.1,623.6 310.1,623.6" fill="rgb(255,246,246)"/>
<polygon points="316.1,617.6 322.1,617.6 322.1,623.6 316.1,623.6" fill="rgb(255,207,207)"/>
<polygon points="322.1,617.6 328.1,617.6 328.1,623.6 322.1,623.6" fill="rgb(255,178,178)"/>
<polygon points="328.1,617.6 334.1,617.6 334.1,623.6 328.1,623.6" fill="rgb(255,143,143)"/>
<polygon points="142.1,494.6 226.1,494.6 226.1,602.6 142.1,602.6" fill="none" stroke="black" stroke-width="0.5"/>
<polygon points="229.1,494.6 247.1,494.6 247.1,602.6 229.1,602.6" fill="none" stroke="black" stroke-width="0.5"/>
<polygon points="250.1,494.6 334.1,494.6 334.1,602.6 250.1,602.6" fill="none" stroke="black" stroke-width="0.5"/>
<polygon points="142.1,605.6 226.1,605.6 226.1,623.6 142.1,623.6" fill="none" stroke="black" stroke-width="0.5"/>
<polygon points="229.1,605.6 247.1,605.6 247.1,623.6 229.1,623.6" fill="none" stroke="black" stroke-width="0.5"/>
<polygon points="250.1,605.6 334.1,605.6 334.1,623.6 250.1,623.6" fill="none" stroke="black" stroke-width="0.5"/>
<text xml:space="preserve" x="191.05" y="656.267" font-family="Arial" font-size="7" text-anchor="middle">enrichments</text>
<polygon points="81.05,663.6 101.05,663.6 101.05,683.6 81.05,683.6" fill="rgb(255,255,255)"/><polygon points="81.05,663.6 101.05,663.6 101.05,683.6 81.05,683.6" fill="none" stroke="black" stroke-width="0.5"/><text xml:space="preserve" x="91.05" y="675.6" font-family="Arial" font-size="5" fill="rgb(0,0,0)" text-anchor="middle">0.0</text>
<polygon points="101.05,663.6 121.05,663.6 121.05,683.6 101.05,683.6" fill="rgb(216,178,216)"/><polygon points="101.05,663.6 121.05,663.6 121.05,683.6 101.05,683.6" fill="none" stroke="black" stroke-width="0.5"/><text xml:space="preserve" x="111.05" y="675.6" font-family="Arial" font-size="5" fill="rgb(0,0,0)" text-anchor="middle">0.3</text>
<polygon points="121.05,663.6 141.05,663.6 141.05,683.6 121.05,683.6" fill="rgb(178,102,178)"/><polygon points="121.05,663.6 141.05,663.6 141.05,683.6 121.05,683.6" fill="none" stroke="black" stroke-width="0.5"/><text xml:space="preserve" x="131.05" y="675.6" font-family="Arial" font-size="5" fill="rgb(0,0,0)" text-anchor="middle">0.6</text>
<polygon points="141.05,663.6 161.05,663.6 161.05,683.6 141.05,683.6" fill="rgb(140,25,140)"/><polygon points="141.05,663.6 161.05,663.6 161.05,683.6 141.05,683.6" fill="none" stroke="black" stroke-width="0.5"/><text xml:space="preserve" x="151.05" y="675.6" font-family="Arial" font-size="5" fill="rgb(255,255,255)" text-anchor="middle">0.9</text>
<polygon points="161.05,663.6 181.05,663.6 181.05,683.6 161.05,683.6" fill="rgb(102,50,153)"/><polygon points="161.05,663.6 181.05,663.6 181.05,683.6 161.05,683.6" fill="none" stroke="black" stroke-width="0.5"/><text xml:space="preserve" x="171.05" y="675.6" font-family="Arial" font-size="5" fill="rgb(255,255,255)" text-anchor="middle">1.2</text>
<polygon points="181.05,663.6 201.05,663.6 201.05,683.6 181.05,683.6" fill="rgb(64,127,191)"/><polygon points="181.05,663.6 201.05,663.6 201.05,683.6 181.05,683.6" fill="none" stroke="black" stroke-width="0.5"/><text xml:space="preserve" x="191.05" y="675.6" font-family="Arial" font-size="5" fill="rgb(255,255,255)" text-anchor="middle">1.5</text>
<polygon points="201.05,663.6 221.05,663.6 221.05,683.6 201.05,683.6" fill="rgb(25,204,229)"/><polygon points="201.05,663.6 221.05,663.6 221.05,683.6 201.05,683.6" fill="none" stroke="black" stroke-width="0.5"/><text xml:space="preserve" x="211.05" y="675.6" font-family="Arial" font-size="5" fill="rgb(0,0,0)" text-anchor="middle">1.8</text>
<polygon points="221.05,663.6 241.05,663.6 241.05,683.6 221.05,683.6" fill="rgb(0,239,239)"/><polygon points="221.05,663.6 241.05,663.6 241.05,683.6 221.05,683.6" fill="none" stroke="black" stroke-width="0.5"/><text xml:space="preserve" x="231.05" y="675.6" font-family="Arial" font-size="5" fill="rgb(0,0,0)" text-anchor="middle">2.1</text>
<polygon points="241.05,663.6 261.05,663.6 261.05,683.6 241.05,683.6" fill="rgb(0,193,193)"/><polygon points="241.05,663.6 261.05,663.6 261.05,683.6 241.05,683.6" fill="none" stroke="black" stroke-width="0.5"/><text xml:space="preserve" x="251.05" y="675.6" font-family="Arial" font-size="5" fill="rgb(0,0,0)" text-anchor="middle">2.4</text>
<polygon points="261.05,663.6 281.05,663.6 281.05,683.6 261.05,683.6" fill="rgb(0,146,146)"/><polygon points="261.05,663.6 281.05,663.6 281.05,683.6 261.05,683.6" fill="none" stroke="black" stroke-width="0.5"/><text xml:space="preserve" x="271.05" y="675.6" font-family="Arial" font-size="5" fill="rgb(255,255,255)" text-anchor="middle">2.7</text>
<polygon points="281.05,663.6 301.05,663.6 301.05,683.6 281.05,683.6" fill="rgb(0,100,100)"/><polygon points="281.05,663.6 301.05,663.6 301.05,683.6 281.05,683.6" fill="none" stroke="black" stroke-width="0.5"/><text xml:space="preserve" x="291.05" y="675.6" font-family="Arial" font-size="5" fill="rgb(255,255,255)" text-anchor="middle">3.0</text>
<text xml:space="preserve" x="191.05" y="716.267" font-family="Arial" font-size="7" text-anchor="middle">expression</text>
<polygon points="81.05,723.6 101.05,723.6 101.05,743.6 81.05,743.6" fill="rgb(0,0,255)"/><polygon points="81.05,723.6 101.05,723.6 101.05,743.6 81.05,743.6" fill="none" stroke="black" stroke-width="0.5"/><text xml:space="preserve" x="91.05" y="735.6" font-family="Arial" font-size="5" fill="rgb(255,255,255)" text-anchor="middle">0.0</text>
<polygon points="101.05,723.6 121.05,723.6 121.05,743.6 101.05,743.6" fill="rgb(255,211,211)"/><polygon points="101.05,723.6 121.05,723.6 121.05,743.6 101.05,743.6" fill="none" stroke="black" stroke-width="0.5"/><text xml:space="preserve" x="111.05" y="735.6" font-family="Arial" font-size="5" fill="rgb(0,0,0)" text-anchor="middle">0.6</text>
<polygon points="121.05,723.6 141.05,723.6 141.05,743.6 121.05,743.6" fill="rgb(255,158,158)"/><polygon points="121.05,723.6 141.05,723.6 141.05,743.6 121.05,743.6" fill="none" stroke="black" stroke-width="0.5"/><text xml:space="preserve" x="131.05" y="735.6" font-family="Arial" font-size="5" fill="rgb(0,0,0)" text-anchor="middle">1.2</text>
<polygon points="141.05,723.6 161.05,723.6 161.05,743.6 141.05,743.6" fill="rgb(255,105,105)"/><polygon points="141.05,723.6 161.05,723.6 161.05,743.6 141.05,743.6" fill="none" stroke="black" stroke-width="0.5"/><text xml:space="preserve" x="151.05" y="735.6" font-family="Arial" font-size="5" fill="rgb(0,0,0)" text-anchor="middle">1.8</text>
<polygon points="161.05,723.6 181.05,723.6 181.05,743.6 161.05,743.6" fill="rgb(255,52,52)"/><polygon points="161.05,723.6 181.05,723.6 181.05,743.6 161.05,743.6" fill="none" stroke="black" stroke-width="0.5"/><text xml:space="preserve" x="171.05" y="735.6" font-family="Arial" font-size="5" fill="rgb(255,255,255)" text-anchor="middle">2.4</text>
<polygon points="181.05,723.6 201.05,723.6 201.05,743.6 181.05,743.6" fill="rgb(255,0,0)"/><polygon points="181.05,723.6 201.05,723.6 201.05,743.6 181.05,743.6" fill="none" stroke="black" stroke-width="0.5"/><text xml:space="preserve" x="191.05" y="735.6" font-family="Arial" font-size="5" fill="rgb(255,255,255)" text-anchor="middle">3.0</text>
<polygon points="201.05,723.6 221.05,723.6 221.05,743.6 201.05,743.6" fill="rgb(231,0,0)"/><polygon points="201.05,723.6 221.05,723.6 221.05,743.6 201.05,743.6" fill="none" stroke="black" stroke-width="0.5"/><text xml:space="preserve" x="211.05" y="735.6" font-family="Arial" font-size="5" fill="rgb(255,255,255)" text-anchor="middle">3.6</text>
<polygon points="221.05,723.6 241.05,723.6 241.05,743.6 221.05,743.6" fill="rgb(208,0,0)"/><polygon points="221.05,723.6 241.05,723.6 241.05,743.6 221.05,743.6" fill="none" stroke="black" stroke-width="0.5"/><text xml:space="preserve" x="231.05" y="735.6" font-family="Arial" font-size="5" fill="rgb(255,255,255)" text-anchor="middle">4.2</text>
<polygon points="241.05,723.6 261.05,723.6 261.05,743.6 241.05,743.6" fill="rgb(185,0,0)"/><polygon points="241.05,723.6 261.05,723.6 261.05,743.6 241.05,743.6" fill="none" stroke="black" stroke-width="0.5"/><text xml:space="preserve" x="251.05" y="735.6" font-family="Arial" font-size="5" fill="rgb(255,255,255)" text-anchor="middle">4.8</text>
<polygon points="261.05,723.6 281.05,723.6 281.05,743.6 261.05,743.6" fill="rgb(162,0,0)"/><polygon points="261.05,723.6 281.05,723.6 281.05,743.6 261.05,743.6" fill="none" stroke="black" stroke-width="0.5"/><text xml:space="preserve" x="271.05" y="735.6" font-family="Arial" font-size="5" fill="rgb(255,255,255)" text-anchor="middle">5.4</text>
<polygon points="281.05,723.6 301.05,723.6 301.05,743.6 281.05,743.6" fill="rgb(139,0,0)"/><polygon points="281.05,723.6 301.05,723.6 301.05,743.6 281.05,743.6" fill="none" stroke="black" stroke-width="0.5"/><text xml:space="preserve" x="291.05" y="735.6" font-family="Arial" font-size="5" fill="rgb(255,255,255)" text-anchor="middle">6.0</text>
</svg>
