<?xml version="1.0" encoding="UTF-8"?>
<svg id="Layer_1" xmlns="http://www.w3.org/2000/svg" version="1.1" viewBox="0 0 371.6 742.6">
  <!-- Generator: Adobe Illustrator 29.0.1, SVG Export Plug-In . SVG Version: 2.1.0 Build 192)  -->
  <defs>
    <style>
      .st0 {
        fill: #ff9797;
      }

      .st1 {
        fill: #c80000;
      }

      .st2 {
        fill: #ff5656;
      }

      .st3 {
        fill: #ff3131;
      }

      .st4 {
        fill: #9494ff;
      }

      .st5 {
        fill: #006464;
      }

      .st6 {
        fill: #ff9e9e;
      }

      .st7 {
        fill: snow;
      }

      .st8 {
        fill: #663299;
      }

      .st9 {
        fill: #fd0000;
      }

      .st10 {
        fill: #00c1c1;
      }

      .st11 {
        fill: #ff6363;
      }

      .st12 {
        fill: #ff9c9c;
      }

      .st13, .st14 {
        font-size: 5px;
      }

      .st13, .st14, .st15 {
        font-family: Helvetica, Helvetica;
        isolation: isolate;
      }

      .st13, .st16 {
        fill: #fff;
      }

      .st17 {
        fill: #5151ff;
      }

      .st18 {
        fill: #ffa3a3;
      }

      .st19 {
        fill: #f10000;
      }

      .st20 {
        fill: #e70000;
      }

      .st21 {
        fill: #8b0000;
      }

      .st22 {
        fill: #fffbfb;
      }

      .st23 {
        fill: #980000;
      }

      .st24 {
        fill: #940000;
      }

      .st25 {
        fill: #ff2f2f;
      }

      .st26 {
        fill: #bf0000;
      }

      .st27 {
        fill: #ffe4e4;
      }

      .st28 {
        fill: #ffd8d8;
      }

      .st29 {
        fill: #af0000;
      }

      .st30 {
        fill: #f70000;
      }

      .st31 {
        fill: #fff4f4;
      }

      .st32 {
        fill: #ff4545;
      }

      .st33 {
        fill: #c00000;
      }

      .st34 {
        fill: #ff3636;
      }

      .st35 {
        fill: #eef;
      }

      .st36 {
        fill: #ff3b3b;
      }

      .st37 {
        fill: #ff7373;
      }

      .st38 {
        fill: #fee;
      }

      .st39 {
        fill: #b60000;
      }

      .st40 {
        fill: #ffa9a9;
      }

      .st41 {
        fill: #b20000;
      }

      .st42 {
        fill: #ff4848;
      }

      .st43 {
        fill: #407fbf;
      }

      .st44 {
        fill: none;
        stroke: #000;
        stroke-width: .5px;
      }

      .st45 {
        fill: #ab0000;
      }

      .st46 {
        fill: #ff7c7c;
      }

      .st47 {
        fill: #e90000;
      }

      .st48 {
        fill: #fff1f1;
      }

      .st49 {
        fill: #19cce5;
      }

      .st50 {
        fill: blue;
      }

      .st51 {
        fill: #ff2323;
      }

      .st52 {
        fill: #ff1414;
      }

      .st53 {
        fill: #00efef;
      }

      .st54 {
        fill: #ef0000;
      }

      .st55 {
        fill: #fef6f6;
      }

      .st56 {
        fill: #8c198c;
      }

      .st57 {
        fill: #910000;
      }

      .st58 {
        fill: #cdcdff;
      }

      .st59 {
        fill: #ff3434;
      }

      .st60 {
        fill: #ffd4d4;
      }

      .st61 {
        fill: #ff7070;
      }

      .st62 {
        fill: #ac0000;
      }

      .st63 {
        fill: #f90000;
      }

      .st64 {
        fill: #ff3535;
      }

      .st65 {
        fill: #e30000;
      }

      .st66 {
        fill: #b266b2;
      }

      .st67 {
        fill: #d8b2d8;
      }

      .st68 {
        fill: #e00000;
      }

      .st69 {
        fill: #f66;
      }

      .st70 {
        fill: #ff8787;
      }

      .st71 {
        fill: #ffd3d3;
      }

      .st72 {
        fill: #ed0000;
      }

      .st73 {
        fill: #cbcbff;
      }

      .st74 {
        fill: #ffcdcd;
      }

      .st75 {
        fill: #ff6f6f;
      }

      .st76 {
        fill: #ffc0c0;
      }

      .st77 {
        fill: #f20000;
      }

      .st78 {
        fill: #ff9a9a;
      }

      .st79 {
        fill: red;
      }

      .st80 {
        fill: #920000;
      }

      .st81 {
        fill: #ff5f5f;
      }

      .st82 {
        fill: #ffd1d1;
      }

      .st83 {
        fill: #da0000;
      }

      .st84 {
        fill: #d00;
      }

      .st85 {
        fill: #ffbdbd;
      }

      .st86 {
        fill: #fc0000;
      }

      .st87 {
        fill: #009292;
      }

      .st88 {
        fill: aqua;
      }

      .st89 {
        fill: #ffbcbc;
      }

      .st90 {
        fill: #fdd;
      }

      .st91 {
        fill: #ff4646;
      }

      .st92 {
        fill: #b90000;
      }

      .st93 {
        fill: #a50000;
      }

      .st94 {
        fill: #ff1b1b;
      }

      .st95 {
        fill: #ff6969;
      }

      .st15 {
        font-size: 7px;
      }

      .st96 {
        fill: #ff5353;
      }

      .st97 {
        fill: #ff8e8e;
      }

      .st98 {
        fill: #ff2727;
      }

      .st99 {
        fill: #ff8f8f;
      }

      .st100 {
        fill: #d00000;
      }

      .st101 {
        fill: #ffc8c8;
      }

      .st102 {
        fill: #ff3737;
      }

      .st103 {
        fill: #ffb3b3;
      }

      .st104 {
        fill: #a20000;
      }

      .st105 {
        fill: purple;
      }

      .st106 {
        fill: #c30000;
      }

      .st107 {
        fill: #ffe2e2;
      }

      .st108 {
        fill: #ff8383;
      }

      .st109 {
        fill: #f30000;
      }

      .st110 {
        fill: #ff1515;
      }
    </style>
  </defs>
  <text class="st15" transform="translate(117.5 551.3)"><tspan x="0" y="0">Ncl</tspan></text>
  <text class="st15" transform="translate(95.7 557.3)"><tspan x="0" y="0">Hsp90aa1</tspan></text>
  <text class="st15" transform="translate(108.9 563.3)"><tspan x="0" y="0">Npm1</tspan></text>
  <text class="st15" transform="translate(95.7 569.3)"><tspan x="0" y="0">Hsp90ab1</tspan></text>
  <text class="st15" transform="translate(106.1 575.3)"><tspan x="0" y="0">Trim28</tspan></text>
  <text class="st15" transform="translate(183 584.3)"><tspan x="0" y="0">Arnt_TFA</tspan></text>
  <text class="st15" transform="translate(181.5 590.3)"><tspan x="0" y="0">Hsf4_TFA</tspan></text>
  <text class="st15" transform="translate(182.6 602.3)"><tspan x="0" y="0">Max_TFA</tspan></text>
  <text class="st15" transform="translate(179.9 596.3)"><tspan x="0" y="0">Pax5_TFA</tspan></text>
  <text class="st15" transform="translate(137.3 541.6) rotate(-90)"><tspan x="0" y="0">Developmental process</tspan></text>
  <text class="st15" transform="translate(143.3 541.6) rotate(-90)"><tspan x="0" y="0">Positive regulation of metabolic process</tspan></text>
  <text class="st15" transform="translate(149.3 541.6) rotate(-90)"><tspan x="0" y="0">Response to stress</tspan></text>
  <text class="st15" transform="translate(155.3 541.6) rotate(-90)"><tspan x="0" y="0">Positive regulation of cellular metabolic process</tspan></text>
  <text class="st15" transform="translate(161.3 541.6) rotate(-90)"><tspan x="0" y="0">Protein complex biogenesis</tspan></text>
  <text class="st15" transform="translate(167.3 541.6) rotate(-90)"><tspan x="0" y="0">Protein complex subunit organization</tspan></text>
  <text class="st15" transform="translate(173.3 541.6) rotate(-90)"><tspan x="0" y="0">Protein complex assembly</tspan></text>
  <text class="st15" transform="translate(179.3 541.6) rotate(-90)"><tspan x="0" y="0">Macromolecular complex subunit organization</tspan></text>
  <text class="st15" transform="translate(185.3 541.6) rotate(-90)"><tspan x="0" y="0">Macromolecular complex assembly</tspan></text>
  <text class="st15" transform="translate(194.3 541.6) rotate(-90)"><tspan x="0" y="0">Arnt_TFA</tspan></text>
  <text class="st15" transform="translate(200.3 541.6) rotate(-90)"><tspan x="0" y="0">Hsf4_TFA</tspan></text>
  <text class="st15" transform="translate(206.3 541.6) rotate(-90)"><tspan x="0" y="0">Pax5_TFA</tspan></text>
  <text class="st15" transform="translate(212.3 541.6) rotate(-90)"><tspan x="0" y="0">Max_TFA</tspan></text>
  <text class="st15" transform="translate(221.3 541.6) rotate(-90)"><tspan x="0" y="0">C2</tspan></text>
  <text class="st15" transform="translate(227.3 541.6) rotate(-90)"><tspan x="0" y="0">C7</tspan></text>
  <text class="st15" transform="translate(233.3 541.6) rotate(-90)"><tspan x="0" y="0">C3</tspan></text>
  <text class="st15" transform="translate(239.3 541.6) rotate(-90)"><tspan x="0" y="0">C5</tspan></text>
  <text class="st15" transform="translate(245.3 541.6) rotate(-90)"><tspan x="0" y="0">C12</tspan></text>
  <text class="st15" transform="translate(251.3 541.6) rotate(-90)"><tspan x="0" y="0">C13</tspan></text>
  <text class="st15" transform="translate(257.3 541.6) rotate(-90)"><tspan x="0" y="0">C14</tspan></text>
  <text class="st15" transform="translate(263.3 541.6) rotate(-90)"><tspan x="0" y="0">C11</tspan></text>
  <text class="st15" transform="translate(269.3 541.6) rotate(-90)"><tspan x="0" y="0">C4</tspan></text>
  <text class="st15" transform="translate(275.3 541.6) rotate(-90)"><tspan x="0" y="0">C8</tspan></text>
  <text class="st15" transform="translate(281.3 541.6) rotate(-90)"><tspan x="0" y="0">C6</tspan></text>
  <text class="st15" transform="translate(287.3 541.6) rotate(-90)"><tspan x="0" y="0">C10</tspan></text>
  <text class="st15" transform="translate(293.3 541.6) rotate(-90)"><tspan x="0" y="0">C9</tspan></text>
  <text class="st15" transform="translate(299.3 541.6) rotate(-90)"><tspan x="0" y="0">C1</tspan></text>
  <polygon class="st105" points="131.6 545.6 137.6 545.6 137.6 551.6 131.6 551.6 131.6 545.6"/>
  <polygon class="st16" points="137.6 545.6 143.6 545.6 143.6 551.6 137.6 551.6 137.6 545.6"/>
  <polygon class="st16" points="143.6 545.6 149.6 545.6 149.6 551.6 143.6 551.6 143.6 545.6"/>
  <polygon class="st16" points="149.6 545.6 155.6 545.6 155.6 551.6 149.6 551.6 149.6 545.6"/>
  <polygon class="st16" points="155.6 545.6 161.6 545.6 161.6 551.6 155.6 551.6 155.6 545.6"/>
  <polygon class="st16" points="161.6 545.6 167.6 545.6 167.6 551.6 161.6 551.6 161.6 545.6"/>
  <polygon class="st16" points="167.6 545.6 173.6 545.6 173.6 551.6 167.6 551.6 167.6 545.6"/>
  <polygon class="st16" points="173.6 545.6 179.6 545.6 179.6 551.6 173.6 551.6 173.6 545.6"/>
  <polygon class="st16" points="179.6 545.6 185.6 545.6 185.6 551.6 179.6 551.6 179.6 545.6"/>
  <polygon class="st88" points="188.6 545.6 194.6 545.6 194.6 551.6 188.6 551.6 188.6 545.6"/>
  <polygon class="st88" points="194.6 545.6 200.6 545.6 200.6 551.6 194.6 551.6 194.6 545.6"/>
  <polygon class="st16" points="200.6 545.6 206.6 545.6 206.6 551.6 200.6 551.6 200.6 545.6"/>
  <polygon class="st16" points="206.6 545.6 212.6 545.6 212.6 551.6 206.6 551.6 206.6 545.6"/>
  <polygon class="st2" points="215.6 545.6 221.6 545.6 221.6 551.6 215.6 551.6 215.6 545.6"/>
  <polygon class="st36" points="221.6 545.6 227.6 545.6 227.6 551.6 221.6 551.6 221.6 545.6"/>
  <polygon class="st9" points="227.6 545.6 233.6 545.6 233.6 551.6 227.6 551.6 227.6 545.6"/>
  <polygon class="st109" points="233.6 545.6 239.6 545.6 239.6 551.6 233.6 551.6 233.6 545.6"/>
  <polygon class="st3" points="239.6 545.6 245.6 545.6 245.6 551.6 239.6 551.6 239.6 545.6"/>
  <polygon class="st37" points="245.6 545.6 251.6 545.6 251.6 551.6 245.6 551.6 245.6 545.6"/>
  <polygon class="st64" points="251.6 545.6 257.6 545.6 257.6 551.6 251.6 551.6 251.6 545.6"/>
  <polygon class="st34" points="257.6 545.6 263.6 545.6 263.6 551.6 257.6 551.6 257.6 545.6"/>
  <polygon class="st102" points="263.6 545.6 269.6 545.6 269.6 551.6 263.6 551.6 263.6 545.6"/>
  <polygon class="st52" points="269.6 545.6 275.6 545.6 275.6 551.6 269.6 551.6 269.6 545.6"/>
  <polygon class="st54" points="275.6 545.6 281.6 545.6 281.6 551.6 275.6 551.6 275.6 545.6"/>
  <polygon class="st72" points="281.6 545.6 287.6 545.6 287.6 551.6 281.6 551.6 281.6 545.6"/>
  <polygon class="st77" points="287.6 545.6 293.6 545.6 293.6 551.6 287.6 551.6 287.6 545.6"/>
  <polygon class="st65" points="293.6 545.6 299.6 545.6 299.6 551.6 293.6 551.6 293.6 545.6"/>
  <polygon class="st105" points="131.6 551.6 137.6 551.6 137.6 557.6 131.6 557.6 131.6 551.6"/>
  <polygon class="st105" points="137.6 551.6 143.6 551.6 143.6 557.6 137.6 557.6 137.6 551.6"/>
  <polygon class="st105" points="143.6 551.6 149.6 551.6 149.6 557.6 143.6 557.6 143.6 551.6"/>
  <polygon class="st105" points="149.6 551.6 155.6 551.6 155.6 557.6 149.6 557.6 149.6 551.6"/>
  <polygon class="st105" points="155.6 551.6 161.6 551.6 161.6 557.6 155.6 557.6 155.6 551.6"/>
  <polygon class="st105" points="161.6 551.6 167.6 551.6 167.6 557.6 161.6 557.6 161.6 551.6"/>
  <polygon class="st105" points="167.6 551.6 173.6 551.6 173.6 557.6 167.6 557.6 167.6 551.6"/>
  <polygon class="st105" points="173.6 551.6 179.6 551.6 179.6 557.6 173.6 557.6 173.6 551.6"/>
  <polygon class="st105" points="179.6 551.6 185.6 551.6 185.6 557.6 179.6 557.6 179.6 551.6"/>
  <polygon class="st88" points="188.6 551.6 194.6 551.6 194.6 557.6 188.6 557.6 188.6 551.6"/>
  <polygon class="st88" points="194.6 551.6 200.6 551.6 200.6 557.6 194.6 557.6 194.6 551.6"/>
  <polygon class="st16" points="200.6 551.6 206.6 551.6 206.6 557.6 200.6 557.6 200.6 551.6"/>
  <polygon class="st88" points="206.6 551.6 212.6 551.6 212.6 557.6 206.6 557.6 206.6 551.6"/>
  <polygon class="st96" points="215.6 551.6 221.6 551.6 221.6 557.6 215.6 557.6 215.6 551.6"/>
  <polygon class="st64" points="221.6 551.6 227.6 551.6 227.6 557.6 221.6 557.6 221.6 551.6"/>
  <polygon class="st94" points="227.6 551.6 233.6 551.6 233.6 557.6 227.6 557.6 227.6 551.6"/>
  <polygon class="st110" points="233.6 551.6 239.6 551.6 239.6 557.6 233.6 557.6 233.6 551.6"/>
  <polygon class="st42" points="239.6 551.6 245.6 551.6 245.6 557.6 239.6 557.6 239.6 551.6"/>
  <polygon class="st18" points="245.6 551.6 251.6 551.6 251.6 557.6 245.6 557.6 245.6 551.6"/>
  <polygon class="st32" points="251.6 551.6 257.6 551.6 257.6 557.6 251.6 557.6 251.6 551.6"/>
  <polygon class="st69" points="257.6 551.6 263.6 551.6 263.6 557.6 257.6 557.6 257.6 551.6"/>
  <polygon class="st75" points="263.6 551.6 269.6 551.6 269.6 557.6 263.6 557.6 263.6 551.6"/>
  <polygon class="st25" points="269.6 551.6 275.6 551.6 275.6 557.6 269.6 557.6 269.6 551.6"/>
  <polygon class="st30" points="275.6 551.6 281.6 551.6 281.6 557.6 275.6 557.6 275.6 551.6"/>
  <polygon class="st86" points="281.6 551.6 287.6 551.6 287.6 557.6 281.6 557.6 281.6 551.6"/>
  <polygon class="st26" points="287.6 551.6 293.6 551.6 293.6 557.6 287.6 557.6 287.6 551.6"/>
  <polygon class="st106" points="293.6 551.6 299.6 551.6 299.6 557.6 293.6 557.6 293.6 551.6"/>
  <polygon class="st105" points="131.6 557.6 137.6 557.6 137.6 563.6 131.6 563.6 131.6 557.6"/>
  <polygon class="st105" points="137.6 557.6 143.6 557.6 143.6 563.6 137.6 563.6 137.6 557.6"/>
  <polygon class="st105" points="143.6 557.6 149.6 557.6 149.6 563.6 143.6 563.6 143.6 557.6"/>
  <polygon class="st105" points="149.6 557.6 155.6 557.6 155.6 563.6 149.6 563.6 149.6 557.6"/>
  <polygon class="st105" points="155.6 557.6 161.6 557.6 161.6 563.6 155.6 563.6 155.6 557.6"/>
  <polygon class="st105" points="161.6 557.6 167.6 557.6 167.6 563.6 161.6 563.6 161.6 557.6"/>
  <polygon class="st105" points="167.6 557.6 173.6 557.6 173.6 563.6 167.6 563.6 167.6 557.6"/>
  <polygon class="st105" points="173.6 557.6 179.6 557.6 179.6 563.6 173.6 563.6 173.6 557.6"/>
  <polygon class="st105" points="179.6 557.6 185.6 557.6 185.6 563.6 179.6 563.6 179.6 557.6"/>
  <polygon class="st88" points="188.6 557.6 194.6 557.6 194.6 563.6 188.6 563.6 188.6 557.6"/>
  <polygon class="st88" points="194.6 557.6 200.6 557.6 200.6 563.6 194.6 563.6 194.6 557.6"/>
  <polygon class="st88" points="200.6 557.6 206.6 557.6 206.6 563.6 200.6 563.6 200.6 557.6"/>
  <polygon class="st88" points="206.6 557.6 212.6 557.6 212.6 563.6 206.6 563.6 206.6 557.6"/>
  <polygon class="st19" points="215.6 557.6 221.6 557.6 221.6 563.6 215.6 563.6 215.6 557.6"/>
  <polygon class="st84" points="221.6 557.6 227.6 557.6 227.6 563.6 221.6 563.6 221.6 557.6"/>
  <polygon class="st29" points="227.6 557.6 233.6 557.6 233.6 563.6 227.6 563.6 227.6 557.6"/>
  <polygon class="st80" points="233.6 557.6 239.6 557.6 239.6 563.6 233.6 563.6 233.6 557.6"/>
  <polygon class="st68" points="239.6 557.6 245.6 557.6 245.6 563.6 239.6 563.6 239.6 557.6"/>
  <polygon class="st47" points="245.6 557.6 251.6 557.6 251.6 563.6 245.6 563.6 245.6 557.6"/>
  <polygon class="st45" points="251.6 557.6 257.6 557.6 257.6 563.6 251.6 563.6 251.6 557.6"/>
  <polygon class="st41" points="257.6 557.6 263.6 557.6 263.6 563.6 257.6 563.6 257.6 557.6"/>
  <polygon class="st62" points="263.6 557.6 269.6 557.6 269.6 563.6 263.6 563.6 263.6 557.6"/>
  <polygon class="st24" points="269.6 557.6 275.6 557.6 275.6 563.6 269.6 563.6 269.6 557.6"/>
  <polygon class="st21" points="275.6 557.6 281.6 557.6 281.6 563.6 275.6 563.6 275.6 557.6"/>
  <polygon class="st21" points="281.6 557.6 287.6 557.6 287.6 563.6 281.6 563.6 281.6 557.6"/>
  <polygon class="st21" points="287.6 557.6 293.6 557.6 293.6 563.6 287.6 563.6 287.6 557.6"/>
  <polygon class="st21" points="293.6 557.6 299.6 557.6 299.6 563.6 293.6 563.6 293.6 557.6"/>
  <polygon class="st105" points="131.6 563.6 137.6 563.6 137.6 569.6 131.6 569.6 131.6 563.6"/>
  <polygon class="st105" points="137.6 563.6 143.6 563.6 143.6 569.6 137.6 569.6 137.6 563.6"/>
  <polygon class="st105" points="143.6 563.6 149.6 563.6 149.6 569.6 143.6 569.6 143.6 563.6"/>
  <polygon class="st105" points="149.6 563.6 155.6 563.6 155.6 569.6 149.6 569.6 149.6 563.6"/>
  <polygon class="st16" points="155.6 563.6 161.6 563.6 161.6 569.6 155.6 569.6 155.6 563.6"/>
  <polygon class="st16" points="161.6 563.6 167.6 563.6 167.6 569.6 161.6 569.6 161.6 563.6"/>
  <polygon class="st16" points="167.6 563.6 173.6 563.6 173.6 569.6 167.6 569.6 167.6 563.6"/>
  <polygon class="st16" points="173.6 563.6 179.6 563.6 179.6 569.6 173.6 569.6 173.6 563.6"/>
  <polygon class="st16" points="179.6 563.6 185.6 563.6 185.6 569.6 179.6 569.6 179.6 563.6"/>
  <polygon class="st16" points="188.6 563.6 194.6 563.6 194.6 569.6 188.6 569.6 188.6 563.6"/>
  <polygon class="st88" points="194.6 563.6 200.6 563.6 200.6 569.6 194.6 569.6 194.6 563.6"/>
  <polygon class="st88" points="200.6 563.6 206.6 563.6 206.6 569.6 200.6 569.6 200.6 563.6"/>
  <polygon class="st88" points="206.6 563.6 212.6 563.6 212.6 569.6 206.6 569.6 206.6 563.6"/>
  <polygon class="st33" points="215.6 563.6 221.6 563.6 221.6 569.6 215.6 569.6 215.6 563.6"/>
  <polygon class="st33" points="221.6 563.6 227.6 563.6 227.6 569.6 221.6 569.6 221.6 563.6"/>
  <polygon class="st57" points="227.6 563.6 233.6 563.6 233.6 569.6 227.6 569.6 227.6 563.6"/>
  <polygon class="st21" points="233.6 563.6 239.6 563.6 239.6 569.6 233.6 569.6 233.6 563.6"/>
  <polygon class="st39" points="239.6 563.6 245.6 563.6 245.6 569.6 239.6 569.6 239.6 563.6"/>
  <polygon class="st1" points="245.6 563.6 251.6 563.6 251.6 569.6 245.6 569.6 245.6 563.6"/>
  <polygon class="st23" points="251.6 563.6 257.6 563.6 257.6 569.6 251.6 569.6 251.6 563.6"/>
  <polygon class="st93" points="257.6 563.6 263.6 563.6 263.6 569.6 257.6 569.6 257.6 563.6"/>
  <polygon class="st45" points="263.6 563.6 269.6 563.6 269.6 569.6 263.6 569.6 263.6 563.6"/>
  <polygon class="st21" points="269.6 563.6 275.6 563.6 275.6 569.6 269.6 569.6 269.6 563.6"/>
  <polygon class="st21" points="275.6 563.6 281.6 563.6 281.6 569.6 275.6 569.6 275.6 563.6"/>
  <polygon class="st21" points="281.6 563.6 287.6 563.6 287.6 569.6 281.6 569.6 281.6 563.6"/>
  <polygon class="st21" points="287.6 563.6 293.6 563.6 293.6 569.6 287.6 569.6 287.6 563.6"/>
  <polygon class="st21" points="293.6 563.6 299.6 563.6 299.6 569.6 293.6 569.6 293.6 563.6"/>
  <polygon class="st105" points="131.6 569.6 137.6 569.6 137.6 575.6 131.6 575.6 131.6 569.6"/>
  <polygon class="st105" points="137.6 569.6 143.6 569.6 143.6 575.6 137.6 575.6 137.6 569.6"/>
  <polygon class="st105" points="143.6 569.6 149.6 569.6 149.6 575.6 143.6 575.6 143.6 569.6"/>
  <polygon class="st105" points="149.6 569.6 155.6 569.6 155.6 575.6 149.6 575.6 149.6 569.6"/>
  <polygon class="st105" points="155.6 569.6 161.6 569.6 161.6 575.6 155.6 575.6 155.6 569.6"/>
  <polygon class="st105" points="161.6 569.6 167.6 569.6 167.6 575.6 161.6 575.6 161.6 569.6"/>
  <polygon class="st105" points="167.6 569.6 173.6 569.6 173.6 575.6 167.6 575.6 167.6 569.6"/>
  <polygon class="st105" points="173.6 569.6 179.6 569.6 179.6 575.6 173.6 575.6 173.6 569.6"/>
  <polygon class="st105" points="179.6 569.6 185.6 569.6 185.6 575.6 179.6 575.6 179.6 569.6"/>
  <polygon class="st16" points="188.6 569.6 194.6 569.6 194.6 575.6 188.6 575.6 188.6 569.6"/>
  <polygon class="st88" points="194.6 569.6 200.6 569.6 200.6 575.6 194.6 575.6 194.6 569.6"/>
  <polygon class="st88" points="200.6 569.6 206.6 569.6 206.6 575.6 200.6 575.6 200.6 569.6"/>
  <polygon class="st16" points="206.6 569.6 212.6 569.6 212.6 575.6 206.6 575.6 206.6 569.6"/>
  <polygon class="st70" points="215.6 569.6 221.6 569.6 221.6 575.6 215.6 575.6 215.6 569.6"/>
  <polygon class="st46" points="221.6 569.6 227.6 569.6 227.6 575.6 221.6 575.6 221.6 569.6"/>
  <polygon class="st81" points="227.6 569.6 233.6 569.6 233.6 575.6 227.6 575.6 227.6 569.6"/>
  <polygon class="st91" points="233.6 569.6 239.6 569.6 239.6 575.6 233.6 575.6 233.6 569.6"/>
  <polygon class="st99" points="239.6 569.6 245.6 569.6 245.6 575.6 239.6 575.6 239.6 569.6"/>
  <polygon class="st0" points="245.6 569.6 251.6 569.6 251.6 575.6 245.6 575.6 245.6 569.6"/>
  <polygon class="st61" points="251.6 569.6 257.6 569.6 257.6 575.6 251.6 575.6 251.6 569.6"/>
  <polygon class="st108" points="257.6 569.6 263.6 569.6 263.6 575.6 257.6 575.6 257.6 569.6"/>
  <polygon class="st97" points="263.6 569.6 269.6 569.6 269.6 575.6 263.6 575.6 263.6 569.6"/>
  <polygon class="st11" points="269.6 569.6 275.6 569.6 275.6 575.6 269.6 575.6 269.6 569.6"/>
  <polygon class="st98" points="275.6 569.6 281.6 569.6 281.6 575.6 275.6 575.6 275.6 569.6"/>
  <polygon class="st51" points="281.6 569.6 287.6 569.6 287.6 575.6 281.6 575.6 281.6 569.6"/>
  <polygon class="st63" points="287.6 569.6 293.6 569.6 293.6 575.6 287.6 575.6 287.6 569.6"/>
  <polygon class="st83" points="293.6 569.6 299.6 569.6 299.6 575.6 293.6 575.6 293.6 569.6"/>
  <polygon class="st50" points="215.6 578.6 221.6 578.6 221.6 584.6 215.6 584.6 215.6 578.6"/>
  <polygon class="st50" points="221.6 578.6 227.6 578.6 227.6 584.6 221.6 584.6 221.6 578.6"/>
  <polygon class="st35" points="227.6 578.6 233.6 578.6 233.6 584.6 227.6 584.6 227.6 578.6"/>
  <polygon class="st50" points="233.6 578.6 239.6 578.6 239.6 584.6 233.6 584.6 233.6 578.6"/>
  <polygon class="st4" points="239.6 578.6 245.6 578.6 245.6 584.6 239.6 584.6 239.6 578.6"/>
  <polygon class="st50" points="245.6 578.6 251.6 578.6 251.6 584.6 245.6 584.6 245.6 578.6"/>
  <polygon class="st60" points="251.6 578.6 257.6 578.6 257.6 584.6 251.6 584.6 251.6 578.6"/>
  <polygon class="st50" points="257.6 578.6 263.6 578.6 263.6 584.6 257.6 584.6 257.6 578.6"/>
  <polygon class="st22" points="263.6 578.6 269.6 578.6 269.6 584.6 263.6 584.6 263.6 578.6"/>
  <polygon class="st50" points="269.6 578.6 275.6 578.6 275.6 584.6 269.6 584.6 269.6 578.6"/>
  <polygon class="st50" points="275.6 578.6 281.6 578.6 281.6 584.6 275.6 584.6 275.6 578.6"/>
  <polygon class="st103" points="281.6 578.6 287.6 578.6 287.6 584.6 281.6 584.6 281.6 578.6"/>
  <polygon class="st89" points="287.6 578.6 293.6 578.6 293.6 584.6 287.6 584.6 287.6 578.6"/>
  <polygon class="st90" points="293.6 578.6 299.6 578.6 299.6 584.6 293.6 584.6 293.6 578.6"/>
  <polygon class="st50" points="215.6 584.6 221.6 584.6 221.6 590.6 215.6 590.6 215.6 584.6"/>
  <polygon class="st50" points="221.6 584.6 227.6 584.6 227.6 590.6 221.6 590.6 221.6 584.6"/>
  <polygon class="st48" points="227.6 584.6 233.6 584.6 233.6 590.6 227.6 590.6 227.6 584.6"/>
  <polygon class="st74" points="233.6 584.6 239.6 584.6 239.6 590.6 233.6 590.6 233.6 584.6"/>
  <polygon class="st50" points="239.6 584.6 245.6 584.6 245.6 590.6 239.6 590.6 239.6 584.6"/>
  <polygon class="st50" points="245.6 584.6 251.6 584.6 251.6 590.6 245.6 590.6 245.6 584.6"/>
  <polygon class="st50" points="251.6 584.6 257.6 584.6 257.6 590.6 251.6 590.6 251.6 584.6"/>
  <polygon class="st50" points="257.6 584.6 263.6 584.6 263.6 590.6 257.6 590.6 257.6 584.6"/>
  <polygon class="st50" points="263.6 584.6 269.6 584.6 269.6 590.6 263.6 590.6 263.6 584.6"/>
  <polygon class="st58" points="269.6 584.6 275.6 584.6 275.6 590.6 269.6 590.6 269.6 584.6"/>
  <polygon class="st40" points="275.6 584.6 281.6 584.6 281.6 590.6 275.6 590.6 275.6 584.6"/>
  <polygon class="st28" points="281.6 584.6 287.6 584.6 287.6 590.6 281.6 590.6 281.6 584.6"/>
  <polygon class="st12" points="287.6 584.6 293.6 584.6 293.6 590.6 287.6 590.6 287.6 584.6"/>
  <polygon class="st95" points="293.6 584.6 299.6 584.6 299.6 590.6 293.6 590.6 293.6 584.6"/>
  <polygon class="st50" points="215.6 596.6 221.6 596.6 221.6 602.6 215.6 602.6 215.6 596.6"/>
  <polygon class="st50" points="221.6 596.6 227.6 596.6 227.6 602.6 221.6 602.6 221.6 596.6"/>
  <polygon class="st22" points="227.6 596.6 233.6 596.6 233.6 602.6 227.6 602.6 227.6 596.6"/>
  <polygon class="st101" points="233.6 596.6 239.6 596.6 239.6 602.6 233.6 602.6 233.6 596.6"/>
  <polygon class="st50" points="239.6 596.6 245.6 596.6 245.6 602.6 239.6 602.6 239.6 596.6"/>
  <polygon class="st50" points="245.6 596.6 251.6 596.6 251.6 602.6 245.6 602.6 245.6 596.6"/>
  <polygon class="st50" points="251.6 596.6 257.6 596.6 257.6 602.6 251.6 602.6 251.6 596.6"/>
  <polygon class="st50" points="257.6 596.6 263.6 596.6 263.6 602.6 257.6 602.6 257.6 596.6"/>
  <polygon class="st50" points="263.6 596.6 269.6 596.6 269.6 602.6 263.6 602.6 263.6 596.6"/>
  <polygon class="st38" points="269.6 596.6 275.6 596.6 275.6 602.6 269.6 602.6 269.6 596.6"/>
  <polygon class="st85" points="275.6 596.6 281.6 596.6 281.6 602.6 275.6 602.6 275.6 596.6"/>
  <polygon class="st50" points="281.6 596.6 287.6 596.6 287.6 602.6 281.6 602.6 281.6 596.6"/>
  <polygon class="st107" points="287.6 596.6 293.6 596.6 293.6 602.6 287.6 602.6 287.6 596.6"/>
  <polygon class="st55" points="293.6 596.6 299.6 596.6 299.6 602.6 293.6 602.6 293.6 596.6"/>
  <polygon class="st50" points="215.6 590.6 221.6 590.6 221.6 596.6 215.6 596.6 215.6 590.6"/>
  <polygon class="st31" points="221.6 590.6 227.6 590.6 227.6 596.6 221.6 596.6 221.6 590.6"/>
  <polygon class="st7" points="227.6 590.6 233.6 590.6 233.6 596.6 227.6 596.6 227.6 590.6"/>
  <polygon class="st82" points="233.6 590.6 239.6 590.6 239.6 596.6 233.6 596.6 233.6 590.6"/>
  <polygon class="st50" points="239.6 590.6 245.6 590.6 245.6 596.6 239.6 596.6 239.6 590.6"/>
  <polygon class="st50" points="245.6 590.6 251.6 590.6 251.6 596.6 245.6 596.6 245.6 590.6"/>
  <polygon class="st50" points="251.6 590.6 257.6 590.6 257.6 596.6 251.6 596.6 251.6 590.6"/>
  <polygon class="st50" points="257.6 590.6 263.6 590.6 263.6 596.6 257.6 596.6 257.6 590.6"/>
  <polygon class="st50" points="263.6 590.6 269.6 590.6 269.6 596.6 263.6 596.6 263.6 590.6"/>
  <polygon class="st73" points="269.6 590.6 275.6 590.6 275.6 596.6 269.6 596.6 269.6 590.6"/>
  <polygon class="st76" points="275.6 590.6 281.6 590.6 281.6 596.6 275.6 596.6 275.6 590.6"/>
  <polygon class="st17" points="281.6 590.6 287.6 590.6 287.6 596.6 281.6 596.6 281.6 590.6"/>
  <polygon class="st27" points="287.6 590.6 293.6 590.6 293.6 596.6 287.6 596.6 287.6 590.6"/>
  <polygon class="st78" points="293.6 590.6 299.6 590.6 299.6 596.6 293.6 596.6 293.6 590.6"/>
  <polygon class="st44" points="131.6 545.6 185.6 545.6 185.6 575.6 131.6 575.6 131.6 545.6"/>
  <polygon class="st44" points="188.6 545.6 212.6 545.6 212.6 575.6 188.6 575.6 188.6 545.6"/>
  <polygon class="st44" points="215.6 545.6 299.6 545.6 299.6 575.6 215.6 575.6 215.6 545.6"/>
  <polygon class="st44" points="215.6 578.6 299.6 578.6 299.6 602.6 215.6 602.6 215.6 578.6"/>
  <text class="st15" transform="translate(166.7 635.3)"><tspan x="0" y="0">enrichments</tspan></text>
  <polygon class="st16" points="75.8 642.6 95.8 642.6 95.8 662.6 75.8 662.6 75.8 642.6"/>
  <polygon class="st44" points="75.8 642.6 95.8 642.6 95.8 662.6 75.8 662.6 75.8 642.6"/>
  <text class="st14" transform="translate(82.3 654.6)"><tspan x="0" y="0">0.0</tspan></text>
  <polygon class="st67" points="95.8 642.6 115.8 642.6 115.8 662.6 95.8 662.6 95.8 642.6"/>
  <polygon class="st44" points="95.8 642.6 115.8 642.6 115.8 662.6 95.8 662.6 95.8 642.6"/>
  <text class="st14" transform="translate(102.3 654.6)"><tspan x="0" y="0">0.3</tspan></text>
  <polygon class="st66" points="115.8 642.6 135.8 642.6 135.8 662.6 115.8 662.6 115.8 642.6"/>
  <polygon class="st44" points="115.8 642.6 135.8 642.6 135.8 662.6 115.8 662.6 115.8 642.6"/>
  <text class="st14" transform="translate(122.3 654.6)"><tspan x="0" y="0">0.6</tspan></text>
  <polygon class="st56" points="135.8 642.6 155.8 642.6 155.8 662.6 135.8 662.6 135.8 642.6"/>
  <polygon class="st44" points="135.8 642.6 155.8 642.6 155.8 662.6 135.8 662.6 135.8 642.6"/>
  <text class="st13" transform="translate(142.3 654.6)"><tspan x="0" y="0">0.9</tspan></text>
  <polygon class="st8" points="155.8 642.6 175.8 642.6 175.8 662.6 155.8 662.6 155.8 642.6"/>
  <polygon class="st44" points="155.8 642.6 175.8 642.6 175.8 662.6 155.8 662.6 155.8 642.6"/>
  <text class="st13" transform="translate(162.3 654.6)"><tspan x="0" y="0">1.2</tspan></text>
  <polygon class="st43" points="175.8 642.6 195.8 642.6 195.8 662.6 175.8 662.6 175.8 642.6"/>
  <polygon class="st44" points="175.8 642.6 195.8 642.6 195.8 662.6 175.8 662.6 175.8 642.6"/>
  <text class="st13" transform="translate(182.3 654.6)"><tspan x="0" y="0">1.5</tspan></text>
  <polygon class="st49" points="195.8 642.6 215.8 642.6 215.8 662.6 195.8 662.6 195.8 642.6"/>
  <polygon class="st44" points="195.8 642.6 215.8 642.6 215.8 662.6 195.8 662.6 195.8 642.6"/>
  <text class="st14" transform="translate(202.3 654.6)"><tspan x="0" y="0">1.8</tspan></text>
  <polygon class="st53" points="215.8 642.6 235.8 642.6 235.8 662.6 215.8 662.6 215.8 642.6"/>
  <polygon class="st44" points="215.8 642.6 235.8 642.6 235.8 662.6 215.8 662.6 215.8 642.6"/>
  <text class="st14" transform="translate(222.3 654.6)"><tspan x="0" y="0">2.1</tspan></text>
  <polygon class="st10" points="235.8 642.6 255.8 642.6 255.8 662.6 235.8 662.6 235.8 642.6"/>
  <polygon class="st44" points="235.8 642.6 255.8 642.6 255.8 662.6 235.8 662.6 235.8 642.6"/>
  <text class="st14" transform="translate(242.3 654.6)"><tspan x="0" y="0">2.4</tspan></text>
  <polygon class="st87" points="255.8 642.6 275.8 642.6 275.8 662.6 255.8 662.6 255.8 642.6"/>
  <polygon class="st44" points="255.8 642.6 275.8 642.6 275.8 662.6 255.8 662.6 255.8 642.6"/>
  <text class="st13" transform="translate(262.3 654.6)"><tspan x="0" y="0">2.7</tspan></text>
  <polygon class="st5" points="275.8 642.6 295.8 642.6 295.8 662.6 275.8 662.6 275.8 642.6"/>
  <polygon class="st44" points="275.8 642.6 295.8 642.6 295.8 662.6 275.8 662.6 275.8 642.6"/>
  <text class="st13" transform="translate(282.3 654.6)"><tspan x="0" y="0">3.0</tspan></text>
  <text class="st15" transform="translate(168.9 695.3)"><tspan x="0" y="0">expression</tspan></text>
  <polygon class="st50" points="75.8 702.6 95.8 702.6 95.8 722.6 75.8 722.6 75.8 702.6"/>
  <polygon class="st44" points="75.8 702.6 95.8 702.6 95.8 722.6 75.8 722.6 75.8 702.6"/>
  <text class="st13" transform="translate(82.3 714.6)"><tspan x="0" y="0">0.0</tspan></text>
  <polygon class="st71" points="95.8 702.6 115.8 702.6 115.8 722.6 95.8 722.6 95.8 702.6"/>
  <polygon class="st44" points="95.8 702.6 115.8 702.6 115.8 722.6 95.8 722.6 95.8 702.6"/>
  <text class="st14" transform="translate(102.3 714.6)"><tspan x="0" y="0">0.6</tspan></text>
  <polygon class="st6" points="115.8 702.6 135.8 702.6 135.8 722.6 115.8 722.6 115.8 702.6"/>
  <polygon class="st44" points="115.8 702.6 135.8 702.6 135.8 722.6 115.8 722.6 115.8 702.6"/>
  <text class="st14" transform="translate(122.3 714.6)"><tspan x="0" y="0">1.2</tspan></text>
  <polygon class="st95" points="135.8 702.6 155.8 702.6 155.8 722.6 135.8 722.6 135.8 702.6"/>
  <polygon class="st44" points="135.8 702.6 155.8 702.6 155.8 722.6 135.8 722.6 135.8 702.6"/>
  <text class="st14" transform="translate(142.3 714.6)"><tspan x="0" y="0">1.8</tspan></text>
  <polygon class="st59" points="155.8 702.6 175.8 702.6 175.8 722.6 155.8 722.6 155.8 702.6"/>
  <polygon class="st44" points="155.8 702.6 175.8 702.6 175.8 722.6 155.8 722.6 155.8 702.6"/>
  <text class="st13" transform="translate(162.3 714.6)"><tspan x="0" y="0">2.4</tspan></text>
  <polygon class="st79" points="175.8 702.6 195.8 702.6 195.8 722.6 175.8 722.6 175.8 702.6"/>
  <polygon class="st44" points="175.8 702.6 195.8 702.6 195.8 722.6 175.8 722.6 175.8 702.6"/>
  <text class="st13" transform="translate(182.3 714.6)"><tspan x="0" y="0">3.0</tspan></text>
  <polygon class="st20" points="195.8 702.6 215.8 702.6 215.8 722.6 195.8 722.6 195.8 702.6"/>
  <polygon class="st44" points="195.8 702.6 215.8 702.6 215.8 722.6 195.8 722.6 195.8 702.6"/>
  <text class="st13" transform="translate(202.3 714.6)"><tspan x="0" y="0">3.6</tspan></text>
  <polygon class="st100" points="215.8 702.6 235.8 702.6 235.8 722.6 215.8 722.6 215.8 702.6"/>
  <polygon class="st44" points="215.8 702.6 235.8 702.6 235.8 722.6 215.8 722.6 215.8 702.6"/>
  <text class="st13" transform="translate(222.3 714.6)"><tspan x="0" y="0">4.2</tspan></text>
  <polygon class="st92" points="235.8 702.6 255.8 702.6 255.8 722.6 235.8 722.6 235.8 702.6"/>
  <polygon class="st44" points="235.8 702.6 255.8 702.6 255.8 722.6 235.8 722.6 235.8 702.6"/>
  <text class="st13" transform="translate(242.3 714.6)"><tspan x="0" y="0">4.8</tspan></text>
  <polygon class="st104" points="255.8 702.6 275.8 702.6 275.8 722.6 255.8 722.6 255.8 702.6"/>
  <polygon class="st44" points="255.8 702.6 275.8 702.6 275.8 722.6 255.8 722.6 255.8 702.6"/>
  <text class="st13" transform="translate(262.3 714.6)"><tspan x="0" y="0">5.4</tspan></text>
  <polygon class="st21" points="275.8 702.6 295.8 702.6 295.8 722.6 275.8 722.6 275.8 702.6"/>
  <polygon class="st44" points="275.8 702.6 295.8 702.6 295.8 722.6 275.8 722.6 275.8 702.6"/>
  <text class="st13" transform="translate(282.3 714.6)"><tspan x="0" y="0">6.0</tspan></text>
</svg>