<?xml version="1.0" standalone="no"?><!DOCTYPE svg PUBLIC "-//W3C//DTD SVG 1.1//EN" "http://www.w3.org/Graphics/SVG/1.1/DTD/svg11.dtd">
<svg width="374.6" height="677.5" version="1.1" xmlns="http://www.w3.org/2000/svg">
<text xml:space="preserve" x="130.6" y="414.167" font-family="Arial" font-size="7" text-anchor="end">Fkbp10</text>
<text xml:space="preserve" x="130.6" y="420.167" font-family="Arial" font-size="7" text-anchor="end">Sar1a</text>
<text xml:space="preserve" x="130.6" y="426.167" font-family="Arial" font-size="7" text-anchor="end">Kdelr2</text>
<text xml:space="preserve" x="130.6" y="432.167" font-family="Arial" font-size="7" text-anchor="end">Mmp14</text>
<text xml:space="preserve" x="130.6" y="438.167" font-family="Arial" font-size="7" text-anchor="end">Copa</text>
<text xml:space="preserve" x="130.6" y="444.167" font-family="Arial" font-size="7" text-anchor="end">Hdlbp</text>
<text xml:space="preserve" x="130.6" y="450.167" font-family="Arial" font-size="7" text-anchor="end">Sec61a1</text>
<text xml:space="preserve" x="130.6" y="456.167" font-family="Arial" font-size="7" text-anchor="end">Slc39a7</text>
<text xml:space="preserve" x="130.6" y="462.167" font-family="Arial" font-size="7" text-anchor="end">Sec24d</text>
<text xml:space="preserve" x="130.6" y="468.167" font-family="Arial" font-size="7" text-anchor="end">Kdelr3</text>
<text xml:space="preserve" x="130.6" y="474.167" font-family="Arial" font-size="7" text-anchor="end">Rrbp1</text>
<text xml:space="preserve" x="130.6" y="480.167" font-family="Arial" font-size="7" text-anchor="end">Sec31a</text>
<text xml:space="preserve" x="130.6" y="486.167" font-family="Arial" font-size="7" text-anchor="end">Plod3</text>
<text xml:space="preserve" x="130.6" y="492.167" font-family="Arial" font-size="7" text-anchor="end">Pdia6</text>
<text xml:space="preserve" x="130.6" y="498.167" font-family="Arial" font-size="7" text-anchor="end">Surf4</text>
<text xml:space="preserve" x="130.6" y="504.167" font-family="Arial" font-size="7" text-anchor="end">Serpinh1</text>
<text xml:space="preserve" x="130.6" y="510.167" font-family="Arial" font-size="7" text-anchor="end">Ckap4</text>
<text xml:space="preserve" x="130.6" y="516.167" font-family="Arial" font-size="7" text-anchor="end">Rcn1</text>
<text xml:space="preserve" x="130.6" y="525.167" font-family="Arial" font-size="7" text-anchor="end">E2f1_nca:2</text>
<text xml:space="preserve" x="130.6" y="531.167" font-family="Arial" font-size="7" text-anchor="end">Klf13_nca:2</text>
<text xml:space="preserve" x="130.6" y="537.167" font-family="Arial" font-size="7" text-anchor="end">Sp1_nca:2</text>
<text xml:space="preserve" x="140.267" y="404.5" font-family="Arial" font-size="7" transform="rotate(270 140.267 404.5)">establishment_of_localization:1</text>
<text xml:space="preserve" x="146.267" y="404.5" font-family="Arial" font-size="7" transform="rotate(270 146.267 404.5)">transport:1</text>
<text xml:space="preserve" x="152.267" y="404.5" font-family="Arial" font-size="7" transform="rotate(270 152.267 404.5)">localization:1</text>
<text xml:space="preserve" x="158.267" y="404.5" font-family="Arial" font-size="7" transform="rotate(270 158.267 404.5)">macromolecule_localization:1</text>
<text xml:space="preserve" x="164.267" y="404.5" font-family="Arial" font-size="7" transform="rotate(270 164.267 404.5)">protein_localization:1</text>
<text xml:space="preserve" x="170.267" y="404.5" font-family="Arial" font-size="7" transform="rotate(270 170.267 404.5)">protein_transport:1</text>
<text xml:space="preserve" x="176.267" y="404.5" font-family="Arial" font-size="7" transform="rotate(270 176.267 404.5)">establishment_of_protein_localization:1</text>
<text xml:space="preserve" x="182.267" y="404.5" font-family="Arial" font-size="7" transform="rotate(270 182.267 404.5)">vesicle-mediated_transport:1</text>
<text xml:space="preserve" x="191.267" y="404.5" font-family="Arial" font-size="7" transform="rotate(270 191.267 404.5)">E2f1_nca:2</text>
<text xml:space="preserve" x="197.267" y="404.5" font-family="Arial" font-size="7" transform="rotate(270 197.267 404.5)">Sp1_nca:2</text>
<text xml:space="preserve" x="203.267" y="404.5" font-family="Arial" font-size="7" transform="rotate(270 203.267 404.5)">Klf13_nca:2</text>
<text xml:space="preserve" x="212.267" y="404.5" font-family="Arial" font-size="7" transform="rotate(270 212.267 404.5)">C2</text>
<text xml:space="preserve" x="218.267" y="404.5" font-family="Arial" font-size="7" transform="rotate(270 218.267 404.5)">C7</text>
<text xml:space="preserve" x="224.267" y="404.5" font-family="Arial" font-size="7" transform="rotate(270 224.267 404.5)">C3</text>
<text xml:space="preserve" x="230.267" y="404.5" font-family="Arial" font-size="7" transform="rotate(270 230.267 404.5)">C5</text>
<text xml:space="preserve" x="236.267" y="404.5" font-family="Arial" font-size="7" transform="rotate(270 236.267 404.5)">C12</text>
<text xml:space="preserve" x="242.267" y="404.5" font-family="Arial" font-size="7" transform="rotate(270 242.267 404.5)">C13</text>
<text xml:space="preserve" x="248.267" y="404.5" font-family="Arial" font-size="7" transform="rotate(270 248.267 404.5)">C14</text>
<text xml:space="preserve" x="254.267" y="404.5" font-family="Arial" font-size="7" transform="rotate(270 254.267 404.5)">C11</text>
<text xml:space="preserve" x="260.267" y="404.5" font-family="Arial" font-size="7" transform="rotate(270 260.267 404.5)">C4</text>
<text xml:space="preserve" x="266.267" y="404.5" font-family="Arial" font-size="7" transform="rotate(270 266.267 404.5)">C8</text>
<text xml:space="preserve" x="272.267" y="404.5" font-family="Arial" font-size="7" transform="rotate(270 272.267 404.5)">C6</text>
<text xml:space="preserve" x="278.267" y="404.5" font-family="Arial" font-size="7" transform="rotate(270 278.267 404.5)">C10</text>
<text xml:space="preserve" x="284.267" y="404.5" font-family="Arial" font-size="7" transform="rotate(270 284.267 404.5)">C9</text>
<text xml:space="preserve" x="290.267" y="404.5" font-family="Arial" font-size="7" transform="rotate(270 290.267 404.5)">C1</text>
<polygon points="134.6,408.5 140.6,408.5 140.6,414.5 134.6,414.5" fill="rgb(255,255,255)"/>
<polygon points="140.6,408.5 146.6,408.5 146.6,414.5 140.6,414.5" fill="rgb(255,255,255)"/>
<polygon points="146.6,408.5 152.6,408.5 152.6,414.5 146.6,414.5" fill="rgb(255,255,255)"/>
<polygon points="152.6,408.5 158.6,408.5 158.6,414.5 152.6,414.5" fill="rgb(255,255,255)"/>
<polygon points="158.6,408.5 164.6,408.5 164.6,414.5 158.6,414.5" fill="rgb(255,255,255)"/>
<polygon points="164.6,408.5 170.6,408.5 170.6,414.5 164.6,414.5" fill="rgb(255,255,255)"/>
<polygon points="170.6,408.5 176.6,408.5 176.6,414.5 170.6,414.5" fill="rgb(255,255,255)"/>
<polygon points="176.6,408.5 182.6,408.5 182.6,414.5 176.6,414.5" fill="rgb(255,255,255)"/>
<polygon points="185.6,408.5 191.6,408.5 191.6,414.5 185.6,414.5" fill="rgb(0,255,255)"/>
<polygon points="191.6,408.5 197.6,408.5 197.6,414.5 191.6,414.5" fill="rgb(255,255,255)"/>
<polygon points="197.6,408.5 203.6,408.5 203.6,414.5 197.6,414.5" fill="rgb(0,255,255)"/>
<polygon points="206.6,408.5 212.6,408.5 212.6,414.5 206.6,414.5" fill="rgb(255,116,116)"/>
<polygon points="212.6,408.5 218.6,408.5 218.6,414.5 212.6,414.5" fill="rgb(255,129,129)"/>
<polygon points="218.6,408.5 224.6,408.5 224.6,414.5 218.6,414.5" fill="rgb(255,140,140)"/>
<polygon points="224.6,408.5 230.6,408.5 230.6,414.5 224.6,414.5" fill="rgb(255,152,152)"/>
<polygon points="230.6,408.5 236.6,408.5 236.6,414.5 230.6,414.5" fill="rgb(255,166,166)"/>
<polygon points="236.6,408.5 242.6,408.5 242.6,414.5 236.6,414.5" fill="rgb(255,158,158)"/>
<polygon points="242.6,408.5 248.6,408.5 248.6,414.5 242.6,414.5" fill="rgb(255,214,214)"/>
<polygon points="248.6,408.5 254.6,408.5 254.6,414.5 248.6,414.5" fill="rgb(255,167,167)"/>
<polygon points="254.6,408.5 260.6,408.5 260.6,414.5 254.6,414.5" fill="rgb(255,199,199)"/>
<polygon points="260.6,408.5 266.6,408.5 266.6,414.5 260.6,414.5" fill="rgb(255,187,187)"/>
<polygon points="266.6,408.5 272.6,408.5 272.6,414.5 266.6,414.5" fill="rgb(255,205,205)"/>
<polygon points="272.6,408.5 278.6,408.5 278.6,414.5 272.6,414.5" fill="rgb(255,204,204)"/>
<polygon points="278.6,408.5 284.6,408.5 284.6,414.5 278.6,414.5" fill="rgb(255,245,245)"/>
<polygon points="284.6,408.5 290.6,408.5 290.6,414.5 284.6,414.5" fill="rgb(255,233,233)"/>
<polygon points="134.6,414.5 140.6,414.5 140.6,420.5 134.6,420.5" fill="rgb(128,0,128)"/>
<polygon points="140.6,414.5 146.6,414.5 146.6,420.5 140.6,420.5" fill="rgb(128,0,128)"/>
<polygon points="146.6,414.5 152.6,414.5 152.6,420.5 146.6,420.5" fill="rgb(128,0,128)"/>
<polygon points="152.6,414.5 158.6,414.5 158.6,420.5 152.6,420.5" fill="rgb(128,0,128)"/>
<polygon points="158.6,414.5 164.6,414.5 164.6,420.5 158.6,420.5" fill="rgb(128,0,128)"/>
<polygon points="164.6,414.5 170.6,414.5 170.6,420.5 164.6,420.5" fill="rgb(128,0,128)"/>
<polygon points="170.6,414.5 176.6,414.5 176.6,420.5 170.6,420.5" fill="rgb(128,0,128)"/>
<polygon points="176.6,414.5 182.6,414.5 182.6,420.5 176.6,420.5" fill="rgb(128,0,128)"/>
<polygon points="185.6,414.5 191.6,414.5 191.6,420.5 185.6,420.5" fill="rgb(0,255,255)"/>
<polygon points="191.6,414.5 197.6,414.5 197.6,420.5 191.6,420.5" fill="rgb(255,255,255)"/>
<polygon points="197.6,414.5 203.6,414.5 203.6,420.5 197.6,420.5" fill="rgb(0,255,255)"/>
<polygon points="206.6,414.5 212.6,414.5 212.6,420.5 206.6,420.5" fill="rgb(255,105,105)"/>
<polygon points="212.6,414.5 218.6,414.5 218.6,420.5 212.6,420.5" fill="rgb(255,114,114)"/>
<polygon points="218.6,414.5 224.6,414.5 224.6,420.5 218.6,420.5" fill="rgb(255,140,140)"/>
<polygon points="224.6,414.5 230.6,414.5 230.6,420.5 224.6,420.5" fill="rgb(254,151,151)"/>
<polygon points="230.6,414.5 236.6,414.5 236.6,420.5 230.6,420.5" fill="rgb(255,166,166)"/>
<polygon points="236.6,414.5 242.6,414.5 242.6,420.5 236.6,420.5" fill="rgb(255,142,142)"/>
<polygon points="242.6,414.5 248.6,414.5 248.6,420.5 242.6,420.5" fill="rgb(255,214,214)"/>
<polygon points="248.6,414.5 254.6,414.5 254.6,420.5 248.6,420.5" fill="rgb(255,167,167)"/>
<polygon points="254.6,414.5 260.6,414.5 260.6,420.5 254.6,420.5" fill="rgb(255,182,182)"/>
<polygon points="260.6,414.5 266.6,414.5 266.6,420.5 260.6,420.5" fill="rgb(255,171,171)"/>
<polygon points="266.6,414.5 272.6,414.5 272.6,420.5 266.6,420.5" fill="rgb(255,161,161)"/>
<polygon points="272.6,414.5 278.6,414.5 278.6,420.5 272.6,420.5" fill="rgb(255,191,191)"/>
<polygon points="278.6,414.5 284.6,414.5 284.6,420.5 278.6,420.5" fill="rgb(255,190,190)"/>
<polygon points="284.6,414.5 290.6,414.5 290.6,420.5 284.6,420.5" fill="rgb(255,186,186)"/>
<polygon points="134.6,420.5 140.6,420.5 140.6,426.5 134.6,426.5" fill="rgb(128,0,128)"/>
<polygon points="140.6,420.5 146.6,420.5 146.6,426.5 140.6,426.5" fill="rgb(128,0,128)"/>
<polygon points="146.6,420.5 152.6,420.5 152.6,426.5 146.6,426.5" fill="rgb(128,0,128)"/>
<polygon points="152.6,420.5 158.6,420.5 158.6,426.5 152.6,426.5" fill="rgb(128,0,128)"/>
<polygon points="158.6,420.5 164.6,420.5 164.6,426.5 158.6,426.5" fill="rgb(128,0,128)"/>
<polygon points="164.6,420.5 170.6,420.5 170.6,426.5 164.6,426.5" fill="rgb(128,0,128)"/>
<polygon points="170.6,420.5 176.6,420.5 176.6,426.5 170.6,426.5" fill="rgb(128,0,128)"/>
<polygon points="176.6,420.5 182.6,420.5 182.6,426.5 176.6,426.5" fill="rgb(128,0,128)"/>
<polygon points="185.6,420.5 191.6,420.5 191.6,426.5 185.6,426.5" fill="rgb(0,255,255)"/>
<polygon points="191.6,420.5 197.6,420.5 197.6,426.5 191.6,426.5" fill="rgb(255,255,255)"/>
<polygon points="197.6,420.5 203.6,420.5 203.6,426.5 197.6,426.5" fill="rgb(0,255,255)"/>
<polygon points="206.6,420.5 212.6,420.5 212.6,426.5 206.6,426.5" fill="rgb(255,71,71)"/>
<polygon points="212.6,420.5 218.6,420.5 218.6,426.5 212.6,426.5" fill="rgb(255,81,81)"/>
<polygon points="218.6,420.5 224.6,420.5 224.6,426.5 218.6,426.5" fill="rgb(255,122,122)"/>
<polygon points="224.6,420.5 230.6,420.5 230.6,426.5 224.6,426.5" fill="rgb(255,128,128)"/>
<polygon points="230.6,420.5 236.6,420.5 236.6,426.5 230.6,426.5" fill="rgb(255,157,157)"/>
<polygon points="236.6,420.5 242.6,420.5 242.6,426.5 236.6,426.5" fill="rgb(255,137,137)"/>
<polygon points="242.6,420.5 248.6,420.5 248.6,426.5 242.6,426.5" fill="rgb(255,213,213)"/>
<polygon points="248.6,420.5 254.6,420.5 254.6,426.5 248.6,426.5" fill="rgb(255,170,170)"/>
<polygon points="254.6,420.5 260.6,420.5 260.6,426.5 254.6,426.5" fill="rgb(255,179,179)"/>
<polygon points="260.6,420.5 266.6,420.5 266.6,426.5 260.6,426.5" fill="rgb(255,167,167)"/>
<polygon points="266.6,420.5 272.6,420.5 272.6,426.5 266.6,426.5" fill="rgb(255,152,152)"/>
<polygon points="272.6,420.5 278.6,420.5 278.6,426.5 272.6,426.5" fill="rgb(255,182,182)"/>
<polygon points="278.6,420.5 284.6,420.5 284.6,426.5 278.6,426.5" fill="rgb(255,191,191)"/>
<polygon points="284.6,420.5 290.6,420.5 290.6,426.5 284.6,426.5" fill="rgb(255,183,183)"/>
<polygon points="134.6,426.5 140.6,426.5 140.6,432.5 134.6,432.5" fill="rgb(255,255,255)"/>
<polygon points="140.6,426.5 146.6,426.5 146.6,432.5 140.6,432.5" fill="rgb(255,255,255)"/>
<polygon points="146.6,426.5 152.6,426.5 152.6,432.5 146.6,432.5" fill="rgb(128,0,128)"/>
<polygon points="152.6,426.5 158.6,426.5 158.6,432.5 152.6,432.5" fill="rgb(255,255,255)"/>
<polygon points="158.6,426.5 164.6,426.5 164.6,432.5 158.6,432.5" fill="rgb(255,255,255)"/>
<polygon points="164.6,426.5 170.6,426.5 170.6,432.5 164.6,432.5" fill="rgb(255,255,255)"/>
<polygon points="170.6,426.5 176.6,426.5 176.6,432.5 170.6,432.5" fill="rgb(255,255,255)"/>
<polygon points="176.6,426.5 182.6,426.5 182.6,432.5 176.6,432.5" fill="rgb(255,255,255)"/>
<polygon points="185.6,426.5 191.6,426.5 191.6,432.5 185.6,432.5" fill="rgb(255,255,255)"/>
<polygon points="191.6,426.5 197.6,426.5 197.6,432.5 191.6,432.5" fill="rgb(255,255,255)"/>
<polygon points="197.6,426.5 203.6,426.5 203.6,432.5 197.6,432.5" fill="rgb(0,255,255)"/>
<polygon points="206.6,426.5 212.6,426.5 212.6,432.5 206.6,432.5" fill="rgb(255,149,149)"/>
<polygon points="212.6,426.5 218.6,426.5 218.6,432.5 212.6,432.5" fill="rgb(255,143,143)"/>
<polygon points="218.6,426.5 224.6,426.5 224.6,432.5 218.6,432.5" fill="rgb(255,207,207)"/>
<polygon points="224.6,426.5 230.6,426.5 230.6,432.5 224.6,432.5" fill="rgb(255,214,214)"/>
<polygon points="230.6,426.5 236.6,426.5 236.6,432.5 230.6,432.5" fill="rgb(255,187,187)"/>
<polygon points="236.6,426.5 242.6,426.5 242.6,432.5 236.6,432.5" fill="rgb(255,168,168)"/>
<polygon points="242.6,426.5 248.6,426.5 248.6,432.5 242.6,432.5" fill="rgb(255,228,228)"/>
<polygon points="248.6,426.5 254.6,426.5 254.6,432.5 248.6,432.5" fill="rgb(255,216,216)"/>
<polygon points="254.6,426.5 260.6,426.5 260.6,432.5 254.6,432.5" fill="rgb(254,227,227)"/>
<polygon points="260.6,426.5 266.6,426.5 266.6,432.5 260.6,432.5" fill="rgb(255,221,221)"/>
<polygon points="266.6,426.5 272.6,426.5 272.6,432.5 266.6,432.5" fill="rgb(255,251,251)"/>
<polygon points="272.6,426.5 278.6,426.5 278.6,432.5 272.6,432.5" fill="rgb(255,243,243)"/>
<polygon points="278.6,426.5 284.6,426.5 284.6,432.5 278.6,432.5" fill="rgb(228,228,255)"/>
<polygon points="284.6,426.5 290.6,426.5 290.6,432.5 284.6,432.5" fill="rgb(255,251,251)"/>
<polygon points="134.6,432.5 140.6,432.5 140.6,438.5 134.6,438.5" fill="rgb(128,0,128)"/>
<polygon points="140.6,432.5 146.6,432.5 146.6,438.5 140.6,438.5" fill="rgb(128,0,128)"/>
<polygon points="146.6,432.5 152.6,432.5 152.6,438.5 146.6,438.5" fill="rgb(128,0,128)"/>
<polygon points="152.6,432.5 158.6,432.5 158.6,438.5 152.6,438.5" fill="rgb(128,0,128)"/>
<polygon points="158.6,432.5 164.6,432.5 164.6,438.5 158.6,438.5" fill="rgb(128,0,128)"/>
<polygon points="164.6,432.5 170.6,432.5 170.6,438.5 164.6,438.5" fill="rgb(128,0,128)"/>
<polygon points="170.6,432.5 176.6,432.5 176.6,438.5 170.6,438.5" fill="rgb(128,0,128)"/>
<polygon points="176.6,432.5 182.6,432.5 182.6,438.5 176.6,438.5" fill="rgb(128,0,128)"/>
<polygon points="185.6,432.5 191.6,432.5 191.6,438.5 185.6,438.5" fill="rgb(255,255,255)"/>
<polygon points="191.6,432.5 197.6,432.5 197.6,438.5 191.6,438.5" fill="rgb(255,255,255)"/>
<polygon points="197.6,432.5 203.6,432.5 203.6,438.5 197.6,438.5" fill="rgb(0,255,255)"/>
<polygon points="206.6,432.5 212.6,432.5 212.6,438.5 206.6,438.5" fill="rgb(255,80,80)"/>
<polygon points="212.6,432.5 218.6,432.5 218.6,438.5 212.6,438.5" fill="rgb(255,85,85)"/>
<polygon points="218.6,432.5 224.6,432.5 224.6,438.5 218.6,438.5" fill="rgb(255,128,128)"/>
<polygon points="224.6,432.5 230.6,432.5 230.6,438.5 224.6,438.5" fill="rgb(255,138,138)"/>
<polygon points="230.6,432.5 236.6,432.5 236.6,438.5 230.6,438.5" fill="rgb(255,165,165)"/>
<polygon points="236.6,432.5 242.6,432.5 242.6,438.5 236.6,438.5" fill="rgb(255,126,126)"/>
<polygon points="242.6,432.5 248.6,432.5 248.6,438.5 242.6,438.5" fill="rgb(255,192,192)"/>
<polygon points="248.6,432.5 254.6,432.5 254.6,438.5 248.6,438.5" fill="rgb(255,143,143)"/>
<polygon points="254.6,432.5 260.6,432.5 260.6,438.5 254.6,438.5" fill="rgb(255,154,154)"/>
<polygon points="260.6,432.5 266.6,432.5 266.6,438.5 260.6,438.5" fill="rgb(255,150,150)"/>
<polygon points="266.6,432.5 272.6,432.5 272.6,438.5 266.6,438.5" fill="rgb(255,153,153)"/>
<polygon points="272.6,432.5 278.6,432.5 278.6,438.5 272.6,438.5" fill="rgb(255,169,169)"/>
<polygon points="278.6,432.5 284.6,432.5 284.6,438.5 278.6,438.5" fill="rgb(255,180,180)"/>
<polygon points="284.6,432.5 290.6,432.5 290.6,438.5 284.6,438.5" fill="rgb(255,146,146)"/>
<polygon points="134.6,438.5 140.6,438.5 140.6,444.5 134.6,444.5" fill="rgb(128,0,128)"/>
<polygon points="140.6,438.5 146.6,438.5 146.6,444.5 140.6,444.5" fill="rgb(128,0,128)"/>
<polygon points="146.6,438.5 152.6,438.5 152.6,444.5 146.6,444.5" fill="rgb(128,0,128)"/>
<polygon points="152.6,438.5 158.6,438.5 158.6,444.5 152.6,444.5" fill="rgb(128,0,128)"/>
<polygon points="158.6,438.5 164.6,438.5 164.6,444.5 158.6,444.5" fill="rgb(255,255,255)"/>
<polygon points="164.6,438.5 170.6,438.5 170.6,444.5 164.6,444.5" fill="rgb(255,255,255)"/>
<polygon points="170.6,438.5 176.6,438.5 176.6,444.5 170.6,444.5" fill="rgb(255,255,255)"/>
<polygon points="176.6,438.5 182.6,438.5 182.6,444.5 176.6,444.5" fill="rgb(255,255,255)"/>
<polygon points="185.6,438.5 191.6,438.5 191.6,444.5 185.6,444.5" fill="rgb(255,255,255)"/>
<polygon points="191.6,438.5 197.6,438.5 197.6,444.5 191.6,444.5" fill="rgb(0,255,255)"/>
<polygon points="197.6,438.5 203.6,438.5 203.6,444.5 197.6,444.5" fill="rgb(0,255,255)"/>
<polygon points="206.6,438.5 212.6,438.5 212.6,444.5 206.6,444.5" fill="rgb(255,57,57)"/>
<polygon points="212.6,438.5 218.6,438.5 218.6,444.5 212.6,444.5" fill="rgb(255,69,69)"/>
<polygon points="218.6,438.5 224.6,438.5 224.6,444.5 218.6,444.5" fill="rgb(255,101,101)"/>
<polygon points="224.6,438.5 230.6,438.5 230.6,444.5 224.6,444.5" fill="rgb(255,95,95)"/>
<polygon points="230.6,438.5 236.6,438.5 236.6,444.5 230.6,444.5" fill="rgb(255,130,130)"/>
<polygon points="236.6,438.5 242.6,438.5 242.6,444.5 236.6,444.5" fill="rgb(255,115,115)"/>
<polygon points="242.6,438.5 248.6,438.5 248.6,444.5 242.6,444.5" fill="rgb(255,174,174)"/>
<polygon points="248.6,438.5 254.6,438.5 254.6,444.5 248.6,444.5" fill="rgb(255,136,136)"/>
<polygon points="254.6,438.5 260.6,438.5 260.6,444.5 254.6,444.5" fill="rgb(255,151,151)"/>
<polygon points="260.6,438.5 266.6,438.5 266.6,444.5 260.6,444.5" fill="rgb(255,136,136)"/>
<polygon points="266.6,438.5 272.6,438.5 272.6,444.5 266.6,444.5" fill="rgb(255,137,137)"/>
<polygon points="272.6,438.5 278.6,438.5 278.6,444.5 272.6,444.5" fill="rgb(255,165,165)"/>
<polygon points="278.6,438.5 284.6,438.5 284.6,444.5 278.6,444.5" fill="rgb(255,168,168)"/>
<polygon points="284.6,438.5 290.6,438.5 290.6,444.5 284.6,444.5" fill="rgb(255,147,147)"/>
<polygon points="134.6,444.5 140.6,444.5 140.6,450.5 134.6,450.5" fill="rgb(128,0,128)"/>
<polygon points="140.6,444.5 146.6,444.5 146.6,450.5 140.6,450.5" fill="rgb(128,0,128)"/>
<polygon points="146.6,444.5 152.6,444.5 152.6,450.5 146.6,450.5" fill="rgb(128,0,128)"/>
<polygon points="152.6,444.5 158.6,444.5 158.6,450.5 152.6,450.5" fill="rgb(128,0,128)"/>
<polygon points="158.6,444.5 164.6,444.5 164.6,450.5 158.6,450.5" fill="rgb(128,0,128)"/>
<polygon points="164.6,444.5 170.6,444.5 170.6,450.5 164.6,450.5" fill="rgb(128,0,128)"/>
<polygon points="170.6,444.5 176.6,444.5 176.6,450.5 170.6,450.5" fill="rgb(128,0,128)"/>
<polygon points="176.6,444.5 182.6,444.5 182.6,450.5 176.6,450.5" fill="rgb(255,255,255)"/>
<polygon points="185.6,444.5 191.6,444.5 191.6,450.5 185.6,450.5" fill="rgb(255,255,255)"/>
<polygon points="191.6,444.5 197.6,444.5 197.6,450.5 191.6,450.5" fill="rgb(0,255,255)"/>
<polygon points="197.6,444.5 203.6,444.5 203.6,450.5 197.6,450.5" fill="rgb(0,255,255)"/>
<polygon points="206.6,444.5 212.6,444.5 212.6,450.5 206.6,450.5" fill="rgb(255,77,77)"/>
<polygon points="212.6,444.5 218.6,444.5 218.6,450.5 212.6,450.5" fill="rgb(255,84,84)"/>
<polygon points="218.6,444.5 224.6,444.5 224.6,450.5 218.6,450.5" fill="rgb(255,115,115)"/>
<polygon points="224.6,444.5 230.6,444.5 230.6,450.5 224.6,450.5" fill="rgb(255,100,100)"/>
<polygon points="230.6,444.5 236.6,444.5 236.6,450.5 230.6,450.5" fill="rgb(255,150,150)"/>
<polygon points="236.6,444.5 242.6,444.5 242.6,450.5 236.6,450.5" fill="rgb(255,145,145)"/>
<polygon points="242.6,444.5 248.6,444.5 248.6,450.5 242.6,450.5" fill="rgb(255,206,206)"/>
<polygon points="248.6,444.5 254.6,444.5 254.6,450.5 248.6,450.5" fill="rgb(255,144,144)"/>
<polygon points="254.6,444.5 260.6,444.5 260.6,450.5 254.6,450.5" fill="rgb(255,176,176)"/>
<polygon points="260.6,444.5 266.6,444.5 266.6,450.5 260.6,450.5" fill="rgb(255,128,128)"/>
<polygon points="266.6,444.5 272.6,444.5 272.6,450.5 266.6,450.5" fill="rgb(255,114,114)"/>
<polygon points="272.6,444.5 278.6,444.5 278.6,450.5 272.6,450.5" fill="rgb(255,182,182)"/>
<polygon points="278.6,444.5 284.6,444.5 284.6,450.5 278.6,450.5" fill="rgb(255,149,149)"/>
<polygon points="284.6,444.5 290.6,444.5 290.6,450.5 284.6,450.5" fill="rgb(255,145,145)"/>
<polygon points="134.6,450.5 140.6,450.5 140.6,456.5 134.6,456.5" fill="rgb(128,0,128)"/>
<polygon points="140.6,450.5 146.6,450.5 146.6,456.5 140.6,456.5" fill="rgb(128,0,128)"/>
<polygon points="146.6,450.5 152.6,450.5 152.6,456.5 146.6,456.5" fill="rgb(128,0,128)"/>
<polygon points="152.6,450.5 158.6,450.5 158.6,456.5 152.6,456.5" fill="rgb(255,255,255)"/>
<polygon points="158.6,450.5 164.6,450.5 164.6,456.5 158.6,456.5" fill="rgb(255,255,255)"/>
<polygon points="164.6,450.5 170.6,450.5 170.6,456.5 164.6,456.5" fill="rgb(255,255,255)"/>
<polygon points="170.6,450.5 176.6,450.5 176.6,456.5 170.6,456.5" fill="rgb(255,255,255)"/>
<polygon points="176.6,450.5 182.6,450.5 182.6,456.5 176.6,456.5" fill="rgb(255,255,255)"/>
<polygon points="185.6,450.5 191.6,450.5 191.6,456.5 185.6,456.5" fill="rgb(255,255,255)"/>
<polygon points="191.6,450.5 197.6,450.5 197.6,456.5 191.6,456.5" fill="rgb(0,255,255)"/>
<polygon points="197.6,450.5 203.6,450.5 203.6,456.5 197.6,456.5" fill="rgb(0,255,255)"/>
<polygon points="206.6,450.5 212.6,450.5 212.6,456.5 206.6,456.5" fill="rgb(255,121,121)"/>
<polygon points="212.6,450.5 218.6,450.5 218.6,456.5 212.6,456.5" fill="rgb(255,129,129)"/>
<polygon points="218.6,450.5 224.6,450.5 224.6,456.5 218.6,456.5" fill="rgb(255,150,150)"/>
<polygon points="224.6,450.5 230.6,450.5 230.6,456.5 224.6,456.5" fill="rgb(255,131,131)"/>
<polygon points="230.6,450.5 236.6,450.5 236.6,456.5 230.6,456.5" fill="rgb(255,182,182)"/>
<polygon points="236.6,450.5 242.6,450.5 242.6,456.5 236.6,456.5" fill="rgb(255,163,163)"/>
<polygon points="242.6,450.5 248.6,450.5 248.6,456.5 242.6,456.5" fill="rgb(254,231,231)"/>
<polygon points="248.6,450.5 254.6,450.5 254.6,456.5 248.6,456.5" fill="rgb(254,170,170)"/>
<polygon points="254.6,450.5 260.6,450.5 260.6,456.5 254.6,456.5" fill="rgb(255,200,200)"/>
<polygon points="260.6,450.5 266.6,450.5 266.6,456.5 260.6,456.5" fill="rgb(254,170,170)"/>
<polygon points="266.6,450.5 272.6,450.5 272.6,456.5 266.6,456.5" fill="rgb(255,168,168)"/>
<polygon points="272.6,450.5 278.6,450.5 278.6,456.5 272.6,456.5" fill="rgb(255,202,202)"/>
<polygon points="278.6,450.5 284.6,450.5 284.6,456.5 278.6,456.5" fill="rgb(255,191,191)"/>
<polygon points="284.6,450.5 290.6,450.5 290.6,456.5 284.6,456.5" fill="rgb(255,176,176)"/>
<polygon points="134.6,456.5 140.6,456.5 140.6,462.5 134.6,462.5" fill="rgb(128,0,128)"/>
<polygon points="140.6,456.5 146.6,456.5 146.6,462.5 140.6,462.5" fill="rgb(128,0,128)"/>
<polygon points="146.6,456.5 152.6,456.5 152.6,462.5 146.6,462.5" fill="rgb(128,0,128)"/>
<polygon points="152.6,456.5 158.6,456.5 158.6,462.5 152.6,462.5" fill="rgb(128,0,128)"/>
<polygon points="158.6,456.5 164.6,456.5 164.6,462.5 158.6,462.5" fill="rgb(128,0,128)"/>
<polygon points="164.6,456.5 170.6,456.5 170.6,462.5 164.6,462.5" fill="rgb(128,0,128)"/>
<polygon points="170.6,456.5 176.6,456.5 176.6,462.5 170.6,462.5" fill="rgb(128,0,128)"/>
<polygon points="176.6,456.5 182.6,456.5 182.6,462.5 176.6,462.5" fill="rgb(255,255,255)"/>
<polygon points="185.6,456.5 191.6,456.5 191.6,462.5 185.6,462.5" fill="rgb(255,255,255)"/>
<polygon points="191.6,456.5 197.6,456.5 197.6,462.5 191.6,462.5" fill="rgb(0,255,255)"/>
<polygon points="197.6,456.5 203.6,456.5 203.6,462.5 197.6,462.5" fill="rgb(0,255,255)"/>
<polygon points="206.6,456.5 212.6,456.5 212.6,462.5 206.6,462.5" fill="rgb(255,122,122)"/>
<polygon points="212.6,456.5 218.6,456.5 218.6,462.5 212.6,462.5" fill="rgb(255,131,131)"/>
<polygon points="218.6,456.5 224.6,456.5 224.6,462.5 218.6,462.5" fill="rgb(255,198,198)"/>
<polygon points="224.6,456.5 230.6,456.5 230.6,462.5 224.6,462.5" fill="rgb(255,210,210)"/>
<polygon points="230.6,456.5 236.6,456.5 236.6,462.5 230.6,462.5" fill="rgb(255,227,227)"/>
<polygon points="236.6,456.5 242.6,456.5 242.6,462.5 236.6,462.5" fill="rgb(255,200,200)"/>
<polygon points="242.6,456.5 248.6,456.5 248.6,462.5 242.6,462.5" fill="rgb(120,120,255)"/>
<polygon points="248.6,456.5 254.6,456.5 254.6,462.5 248.6,462.5" fill="rgb(255,240,240)"/>
<polygon points="254.6,456.5 260.6,456.5 260.6,462.5 254.6,462.5" fill="rgb(255,244,244)"/>
<polygon points="260.6,456.5 266.6,456.5 266.6,462.5 260.6,462.5" fill="rgb(255,234,234)"/>
<polygon points="266.6,456.5 272.6,456.5 272.6,462.5 266.6,462.5" fill="rgb(255,241,241)"/>
<polygon points="272.6,456.5 278.6,456.5 278.6,462.5 272.6,462.5" fill="rgb(129,129,255)"/>
<polygon points="278.6,456.5 284.6,456.5 284.6,462.5 278.6,462.5" fill="rgb(255,250,250)"/>
<polygon points="284.6,456.5 290.6,456.5 290.6,462.5 284.6,462.5" fill="rgb(254,225,225)"/>
<polygon points="134.6,462.5 140.6,462.5 140.6,468.5 134.6,468.5" fill="rgb(128,0,128)"/>
<polygon points="140.6,462.5 146.6,462.5 146.6,468.5 140.6,468.5" fill="rgb(128,0,128)"/>
<polygon points="146.6,462.5 152.6,462.5 152.6,468.5 146.6,468.5" fill="rgb(128,0,128)"/>
<polygon points="152.6,462.5 158.6,462.5 158.6,468.5 152.6,468.5" fill="rgb(128,0,128)"/>
<polygon points="158.6,462.5 164.6,462.5 164.6,468.5 158.6,468.5" fill="rgb(128,0,128)"/>
<polygon points="164.6,462.5 170.6,462.5 170.6,468.5 164.6,468.5" fill="rgb(128,0,128)"/>
<polygon points="170.6,462.5 176.6,462.5 176.6,468.5 170.6,468.5" fill="rgb(128,0,128)"/>
<polygon points="176.6,462.5 182.6,462.5 182.6,468.5 176.6,468.5" fill="rgb(128,0,128)"/>
<polygon points="185.6,462.5 191.6,462.5 191.6,468.5 185.6,468.5" fill="rgb(255,255,255)"/>
<polygon points="191.6,462.5 197.6,462.5 197.6,468.5 191.6,468.5" fill="rgb(0,255,255)"/>
<polygon points="197.6,462.5 203.6,462.5 203.6,468.5 197.6,468.5" fill="rgb(0,255,255)"/>
<polygon points="206.6,462.5 212.6,462.5 212.6,468.5 206.6,468.5" fill="rgb(255,151,151)"/>
<polygon points="212.6,462.5 218.6,462.5 218.6,468.5 212.6,468.5" fill="rgb(255,158,158)"/>
<polygon points="218.6,462.5 224.6,462.5 224.6,468.5 218.6,468.5" fill="rgb(255,223,223)"/>
<polygon points="224.6,462.5 230.6,462.5 230.6,468.5 224.6,468.5" fill="rgb(255,241,241)"/>
<polygon points="230.6,462.5 236.6,462.5 236.6,468.5 230.6,468.5" fill="rgb(255,226,226)"/>
<polygon points="236.6,462.5 242.6,462.5 242.6,468.5 236.6,468.5" fill="rgb(255,217,217)"/>
<polygon points="242.6,462.5 248.6,462.5 248.6,468.5 242.6,468.5" fill="rgb(115,115,255)"/>
<polygon points="248.6,462.5 254.6,462.5 254.6,468.5 248.6,468.5" fill="rgb(255,246,246)"/>
<polygon points="254.6,462.5 260.6,462.5 260.6,468.5 254.6,468.5" fill="rgb(255,248,248)"/>
<polygon points="260.6,462.5 266.6,462.5 266.6,468.5 260.6,468.5" fill="rgb(255,247,247)"/>
<polygon points="266.6,462.5 272.6,462.5 272.6,468.5 266.6,468.5" fill="rgb(254,253,253)"/>
<polygon points="272.6,462.5 278.6,462.5 278.6,468.5 272.6,468.5" fill="rgb(187,187,255)"/>
<polygon points="278.6,462.5 284.6,462.5 284.6,468.5 278.6,468.5" fill="rgb(39,39,255)"/>
<polygon points="284.6,462.5 290.6,462.5 290.6,468.5 284.6,468.5" fill="rgb(255,246,246)"/>
<polygon points="134.6,468.5 140.6,468.5 140.6,474.5 134.6,474.5" fill="rgb(128,0,128)"/>
<polygon points="140.6,468.5 146.6,468.5 146.6,474.5 140.6,474.5" fill="rgb(128,0,128)"/>
<polygon points="146.6,468.5 152.6,468.5 152.6,474.5 146.6,474.5" fill="rgb(128,0,128)"/>
<polygon points="152.6,468.5 158.6,468.5 158.6,474.5 152.6,474.5" fill="rgb(128,0,128)"/>
<polygon points="158.6,468.5 164.6,468.5 164.6,474.5 158.6,474.5" fill="rgb(128,0,128)"/>
<polygon points="164.6,468.5 170.6,468.5 170.6,474.5 164.6,474.5" fill="rgb(128,0,128)"/>
<polygon points="170.6,468.5 176.6,468.5 176.6,474.5 170.6,474.5" fill="rgb(128,0,128)"/>
<polygon points="176.6,468.5 182.6,468.5 182.6,474.5 176.6,474.5" fill="rgb(255,255,255)"/>
<polygon points="185.6,468.5 191.6,468.5 191.6,474.5 185.6,474.5" fill="rgb(255,255,255)"/>
<polygon points="191.6,468.5 197.6,468.5 197.6,474.5 191.6,474.5" fill="rgb(0,255,255)"/>
<polygon points="197.6,468.5 203.6,468.5 203.6,474.5 197.6,474.5" fill="rgb(0,255,255)"/>
<polygon points="206.6,468.5 212.6,468.5 212.6,474.5 206.6,474.5" fill="rgb(255,85,85)"/>
<polygon points="212.6,468.5 218.6,468.5 218.6,474.5 212.6,474.5" fill="rgb(255,102,102)"/>
<polygon points="218.6,468.5 224.6,468.5 224.6,474.5 218.6,474.5" fill="rgb(255,139,139)"/>
<polygon points="224.6,468.5 230.6,468.5 230.6,474.5 224.6,474.5" fill="rgb(255,156,156)"/>
<polygon points="230.6,468.5 236.6,468.5 236.6,474.5 230.6,474.5" fill="rgb(255,145,145)"/>
<polygon points="236.6,468.5 242.6,468.5 242.6,474.5 236.6,474.5" fill="rgb(255,117,117)"/>
<polygon points="242.6,468.5 248.6,468.5 248.6,474.5 242.6,474.5" fill="rgb(255,205,205)"/>
<polygon points="248.6,468.5 254.6,468.5 254.6,474.5 248.6,474.5" fill="rgb(255,160,160)"/>
<polygon points="254.6,468.5 260.6,468.5 260.6,474.5 254.6,474.5" fill="rgb(255,185,185)"/>
<polygon points="260.6,468.5 266.6,468.5 266.6,474.5 260.6,474.5" fill="rgb(255,153,153)"/>
<polygon points="266.6,468.5 272.6,468.5 272.6,474.5 266.6,474.5" fill="rgb(255,153,153)"/>
<polygon points="272.6,468.5 278.6,468.5 278.6,474.5 272.6,474.5" fill="rgb(255,195,195)"/>
<polygon points="278.6,468.5 284.6,468.5 284.6,474.5 278.6,474.5" fill="rgb(255,149,149)"/>
<polygon points="284.6,468.5 290.6,468.5 290.6,474.5 284.6,474.5" fill="rgb(255,143,143)"/>
<polygon points="134.6,474.5 140.6,474.5 140.6,480.5 134.6,480.5" fill="rgb(128,0,128)"/>
<polygon points="140.6,474.5 146.6,474.5 146.6,480.5 140.6,480.5" fill="rgb(128,0,128)"/>
<polygon points="146.6,474.5 152.6,474.5 152.6,480.5 146.6,480.5" fill="rgb(128,0,128)"/>
<polygon points="152.6,474.5 158.6,474.5 158.6,480.5 152.6,480.5" fill="rgb(128,0,128)"/>
<polygon points="158.6,474.5 164.6,474.5 164.6,480.5 158.6,480.5" fill="rgb(128,0,128)"/>
<polygon points="164.6,474.5 170.6,474.5 170.6,480.5 164.6,480.5" fill="rgb(128,0,128)"/>
<polygon points="170.6,474.5 176.6,474.5 176.6,480.5 170.6,480.5" fill="rgb(128,0,128)"/>
<polygon points="176.6,474.5 182.6,474.5 182.6,480.5 176.6,480.5" fill="rgb(128,0,128)"/>
<polygon points="185.6,474.5 191.6,474.5 191.6,480.5 185.6,480.5" fill="rgb(255,255,255)"/>
<polygon points="191.6,474.5 197.6,474.5 197.6,480.5 191.6,480.5" fill="rgb(0,255,255)"/>
<polygon points="197.6,474.5 203.6,474.5 203.6,480.5 197.6,480.5" fill="rgb(0,255,255)"/>
<polygon points="206.6,474.5 212.6,474.5 212.6,480.5 206.6,480.5" fill="rgb(255,90,90)"/>
<polygon points="212.6,474.5 218.6,474.5 218.6,480.5 212.6,480.5" fill="rgb(255,105,105)"/>
<polygon points="218.6,474.5 224.6,474.5 224.6,480.5 218.6,480.5" fill="rgb(255,132,132)"/>
<polygon points="224.6,474.5 230.6,474.5 230.6,480.5 224.6,480.5" fill="rgb(255,133,133)"/>
<polygon points="230.6,474.5 236.6,474.5 236.6,480.5 230.6,480.5" fill="rgb(255,181,181)"/>
<polygon points="236.6,474.5 242.6,474.5 242.6,480.5 236.6,480.5" fill="rgb(255,136,136)"/>
<polygon points="242.6,474.5 248.6,474.5 248.6,480.5 242.6,480.5" fill="rgb(255,196,196)"/>
<polygon points="248.6,474.5 254.6,474.5 254.6,480.5 248.6,480.5" fill="rgb(255,148,148)"/>
<polygon points="254.6,474.5 260.6,474.5 260.6,480.5 254.6,480.5" fill="rgb(255,168,168)"/>
<polygon points="260.6,474.5 266.6,474.5 266.6,480.5 260.6,480.5" fill="rgb(255,160,160)"/>
<polygon points="266.6,474.5 272.6,474.5 272.6,480.5 266.6,480.5" fill="rgb(255,145,145)"/>
<polygon points="272.6,474.5 278.6,474.5 278.6,480.5 272.6,480.5" fill="rgb(255,184,184)"/>
<polygon points="278.6,474.5 284.6,474.5 284.6,480.5 278.6,480.5" fill="rgb(255,175,175)"/>
<polygon points="284.6,474.5 290.6,474.5 290.6,480.5 284.6,480.5" fill="rgb(255,144,144)"/>
<polygon points="134.6,480.5 140.6,480.5 140.6,486.5 134.6,486.5" fill="rgb(255,255,255)"/>
<polygon points="140.6,480.5 146.6,480.5 146.6,486.5 140.6,486.5" fill="rgb(255,255,255)"/>
<polygon points="146.6,480.5 152.6,480.5 152.6,486.5 146.6,486.5" fill="rgb(128,0,128)"/>
<polygon points="152.6,480.5 158.6,480.5 158.6,486.5 152.6,486.5" fill="rgb(128,0,128)"/>
<polygon points="158.6,480.5 164.6,480.5 164.6,486.5 158.6,486.5" fill="rgb(128,0,128)"/>
<polygon points="164.6,480.5 170.6,480.5 170.6,486.5 164.6,486.5" fill="rgb(255,255,255)"/>
<polygon points="170.6,480.5 176.6,480.5 176.6,486.5 170.6,486.5" fill="rgb(255,255,255)"/>
<polygon points="176.6,480.5 182.6,480.5 182.6,486.5 176.6,486.5" fill="rgb(255,255,255)"/>
<polygon points="185.6,480.5 191.6,480.5 191.6,486.5 185.6,486.5" fill="rgb(255,255,255)"/>
<polygon points="191.6,480.5 197.6,480.5 197.6,486.5 191.6,486.5" fill="rgb(0,255,255)"/>
<polygon points="197.6,480.5 203.6,480.5 203.6,486.5 197.6,486.5" fill="rgb(0,255,255)"/>
<polygon points="206.6,480.5 212.6,480.5 212.6,486.5 206.6,486.5" fill="rgb(255,130,130)"/>
<polygon points="212.6,480.5 218.6,480.5 218.6,486.5 212.6,486.5" fill="rgb(255,141,141)"/>
<polygon points="218.6,480.5 224.6,480.5 224.6,486.5 218.6,486.5" fill="rgb(255,178,178)"/>
<polygon points="224.6,480.5 230.6,480.5 230.6,486.5 224.6,486.5" fill="rgb(255,173,173)"/>
<polygon points="230.6,480.5 236.6,480.5 236.6,486.5 230.6,486.5" fill="rgb(255,185,185)"/>
<polygon points="236.6,480.5 242.6,480.5 242.6,486.5 236.6,486.5" fill="rgb(255,198,198)"/>
<polygon points="242.6,480.5 248.6,480.5 248.6,486.5 242.6,486.5" fill="rgb(255,230,230)"/>
<polygon points="248.6,480.5 254.6,480.5 254.6,486.5 248.6,486.5" fill="rgb(255,197,197)"/>
<polygon points="254.6,480.5 260.6,480.5 260.6,486.5 254.6,486.5" fill="rgb(255,221,221)"/>
<polygon points="260.6,480.5 266.6,480.5 266.6,486.5 260.6,486.5" fill="rgb(255,194,194)"/>
<polygon points="266.6,480.5 272.6,480.5 272.6,486.5 266.6,486.5" fill="rgb(255,206,206)"/>
<polygon points="272.6,480.5 278.6,480.5 278.6,486.5 272.6,486.5" fill="rgb(255,228,228)"/>
<polygon points="278.6,480.5 284.6,480.5 284.6,486.5 278.6,486.5" fill="rgb(254,221,221)"/>
<polygon points="284.6,480.5 290.6,480.5 290.6,486.5 284.6,486.5" fill="rgb(254,224,224)"/>
<polygon points="134.6,486.5 140.6,486.5 140.6,492.5 134.6,492.5" fill="rgb(255,255,255)"/>
<polygon points="140.6,486.5 146.6,486.5 146.6,492.5 140.6,492.5" fill="rgb(255,255,255)"/>
<polygon points="146.6,486.5 152.6,486.5 152.6,492.5 146.6,492.5" fill="rgb(255,255,255)"/>
<polygon points="152.6,486.5 158.6,486.5 158.6,492.5 152.6,492.5" fill="rgb(255,255,255)"/>
<polygon points="158.6,486.5 164.6,486.5 164.6,492.5 158.6,492.5" fill="rgb(255,255,255)"/>
<polygon points="164.6,486.5 170.6,486.5 170.6,492.5 164.6,492.5" fill="rgb(255,255,255)"/>
<polygon points="170.6,486.5 176.6,486.5 176.6,492.5 170.6,492.5" fill="rgb(255,255,255)"/>
<polygon points="176.6,486.5 182.6,486.5 182.6,492.5 176.6,492.5" fill="rgb(255,255,255)"/>
<polygon points="185.6,486.5 191.6,486.5 191.6,492.5 185.6,492.5" fill="rgb(255,255,255)"/>
<polygon points="191.6,486.5 197.6,486.5 197.6,492.5 191.6,492.5" fill="rgb(0,255,255)"/>
<polygon points="197.6,486.5 203.6,486.5 203.6,492.5 197.6,492.5" fill="rgb(0,255,255)"/>
<polygon points="206.6,486.5 212.6,486.5 212.6,492.5 206.6,492.5" fill="rgb(255,22,22)"/>
<polygon points="212.6,486.5 218.6,486.5 218.6,492.5 212.6,492.5" fill="rgb(255,24,24)"/>
<polygon points="218.6,486.5 224.6,486.5 224.6,492.5 218.6,492.5" fill="rgb(255,74,74)"/>
<polygon points="224.6,486.5 230.6,486.5 230.6,492.5 224.6,492.5" fill="rgb(255,113,113)"/>
<polygon points="230.6,486.5 236.6,486.5 236.6,492.5 230.6,492.5" fill="rgb(255,117,117)"/>
<polygon points="236.6,486.5 242.6,486.5 242.6,492.5 236.6,492.5" fill="rgb(255,120,120)"/>
<polygon points="242.6,486.5 248.6,486.5 248.6,492.5 242.6,492.5" fill="rgb(255,147,147)"/>
<polygon points="248.6,486.5 254.6,486.5 254.6,492.5 248.6,492.5" fill="rgb(255,135,135)"/>
<polygon points="254.6,486.5 260.6,486.5 260.6,492.5 254.6,492.5" fill="rgb(255,157,157)"/>
<polygon points="260.6,486.5 266.6,486.5 266.6,492.5 260.6,492.5" fill="rgb(255,151,151)"/>
<polygon points="266.6,486.5 272.6,486.5 272.6,492.5 266.6,492.5" fill="rgb(255,148,148)"/>
<polygon points="272.6,486.5 278.6,486.5 278.6,492.5 272.6,492.5" fill="rgb(255,147,147)"/>
<polygon points="278.6,486.5 284.6,486.5 284.6,492.5 278.6,492.5" fill="rgb(255,137,137)"/>
<polygon points="284.6,486.5 290.6,486.5 290.6,492.5 284.6,492.5" fill="rgb(255,114,114)"/>
<polygon points="134.6,492.5 140.6,492.5 140.6,498.5 134.6,498.5" fill="rgb(255,255,255)"/>
<polygon points="140.6,492.5 146.6,492.5 146.6,498.5 140.6,498.5" fill="rgb(255,255,255)"/>
<polygon points="146.6,492.5 152.6,492.5 152.6,498.5 146.6,498.5" fill="rgb(255,255,255)"/>
<polygon points="152.6,492.5 158.6,492.5 158.6,498.5 152.6,498.5" fill="rgb(255,255,255)"/>
<polygon points="158.6,492.5 164.6,492.5 164.6,498.5 158.6,498.5" fill="rgb(255,255,255)"/>
<polygon points="164.6,492.5 170.6,492.5 170.6,498.5 164.6,498.5" fill="rgb(255,255,255)"/>
<polygon points="170.6,492.5 176.6,492.5 176.6,498.5 170.6,498.5" fill="rgb(255,255,255)"/>
<polygon points="176.6,492.5 182.6,492.5 182.6,498.5 176.6,498.5" fill="rgb(255,255,255)"/>
<polygon points="185.6,492.5 191.6,492.5 191.6,498.5 185.6,498.5" fill="rgb(0,255,255)"/>
<polygon points="191.6,492.5 197.6,492.5 197.6,498.5 191.6,498.5" fill="rgb(0,255,255)"/>
<polygon points="197.6,492.5 203.6,492.5 203.6,498.5 197.6,498.5" fill="rgb(0,255,255)"/>
<polygon points="206.6,492.5 212.6,492.5 212.6,498.5 206.6,498.5" fill="rgb(255,44,44)"/>
<polygon points="212.6,492.5 218.6,492.5 218.6,498.5 212.6,498.5" fill="rgb(255,62,62)"/>
<polygon points="218.6,492.5 224.6,492.5 224.6,498.5 218.6,498.5" fill="rgb(255,103,103)"/>
<polygon points="224.6,492.5 230.6,492.5 230.6,498.5 224.6,498.5" fill="rgb(255,104,104)"/>
<polygon points="230.6,492.5 236.6,492.5 236.6,498.5 230.6,498.5" fill="rgb(255,124,124)"/>
<polygon points="236.6,492.5 242.6,492.5 242.6,498.5 236.6,498.5" fill="rgb(255,107,107)"/>
<polygon points="242.6,492.5 248.6,492.5 248.6,498.5 242.6,498.5" fill="rgb(255,176,176)"/>
<polygon points="248.6,492.5 254.6,492.5 254.6,498.5 248.6,498.5" fill="rgb(255,129,129)"/>
<polygon points="254.6,492.5 260.6,492.5 260.6,498.5 254.6,498.5" fill="rgb(255,155,155)"/>
<polygon points="260.6,492.5 266.6,492.5 266.6,498.5 260.6,498.5" fill="rgb(255,138,138)"/>
<polygon points="266.6,492.5 272.6,492.5 272.6,498.5 266.6,498.5" fill="rgb(255,137,137)"/>
<polygon points="272.6,492.5 278.6,492.5 278.6,498.5 272.6,498.5" fill="rgb(255,176,176)"/>
<polygon points="278.6,492.5 284.6,492.5 284.6,498.5 278.6,498.5" fill="rgb(255,168,168)"/>
<polygon points="284.6,492.5 290.6,492.5 290.6,498.5 284.6,498.5" fill="rgb(254,166,166)"/>
<polygon points="134.6,498.5 140.6,498.5 140.6,504.5 134.6,504.5" fill="rgb(255,255,255)"/>
<polygon points="140.6,498.5 146.6,498.5 146.6,504.5 140.6,504.5" fill="rgb(255,255,255)"/>
<polygon points="146.6,498.5 152.6,498.5 152.6,504.5 146.6,504.5" fill="rgb(255,255,255)"/>
<polygon points="152.6,498.5 158.6,498.5 158.6,504.5 152.6,504.5" fill="rgb(255,255,255)"/>
<polygon points="158.6,498.5 164.6,498.5 164.6,504.5 158.6,504.5" fill="rgb(255,255,255)"/>
<polygon points="164.6,498.5 170.6,498.5 170.6,504.5 164.6,504.5" fill="rgb(255,255,255)"/>
<polygon points="170.6,498.5 176.6,498.5 176.6,504.5 170.6,504.5" fill="rgb(255,255,255)"/>
<polygon points="176.6,498.5 182.6,498.5 182.6,504.5 176.6,504.5" fill="rgb(255,255,255)"/>
<polygon points="185.6,498.5 191.6,498.5 191.6,504.5 185.6,504.5" fill="rgb(0,255,255)"/>
<polygon points="191.6,498.5 197.6,498.5 197.6,504.5 191.6,504.5" fill="rgb(0,255,255)"/>
<polygon points="197.6,498.5 203.6,498.5 203.6,504.5 197.6,504.5" fill="rgb(0,255,255)"/>
<polygon points="206.6,498.5 212.6,498.5 212.6,504.5 206.6,504.5" fill="rgb(193,0,0)"/>
<polygon points="212.6,498.5 218.6,498.5 218.6,504.5 212.6,504.5" fill="rgb(201,0,0)"/>
<polygon points="218.6,498.5 224.6,498.5 224.6,504.5 218.6,504.5" fill="rgb(242,0,0)"/>
<polygon points="224.6,498.5 230.6,498.5 230.6,504.5 224.6,504.5" fill="rgb(253,0,0)"/>
<polygon points="230.6,498.5 236.6,498.5 236.6,504.5 230.6,504.5" fill="rgb(254,0,0)"/>
<polygon points="236.6,498.5 242.6,498.5 242.6,504.5 236.6,504.5" fill="rgb(244,0,0)"/>
<polygon points="242.6,498.5 248.6,498.5 248.6,504.5 242.6,504.5" fill="rgb(255,71,71)"/>
<polygon points="248.6,498.5 254.6,498.5 254.6,504.5 248.6,504.5" fill="rgb(255,11,11)"/>
<polygon points="254.6,498.5 260.6,498.5 260.6,504.5 254.6,504.5" fill="rgb(255,40,40)"/>
<polygon points="260.6,498.5 266.6,498.5 266.6,504.5 260.6,504.5" fill="rgb(255,40,40)"/>
<polygon points="266.6,498.5 272.6,498.5 272.6,504.5 266.6,504.5" fill="rgb(255,76,76)"/>
<polygon points="272.6,498.5 278.6,498.5 278.6,504.5 272.6,504.5" fill="rgb(255,102,102)"/>
<polygon points="278.6,498.5 284.6,498.5 284.6,504.5 278.6,504.5" fill="rgb(255,162,162)"/>
<polygon points="284.6,498.5 290.6,498.5 290.6,504.5 284.6,504.5" fill="rgb(255,211,211)"/>
<polygon points="134.6,504.5 140.6,504.5 140.6,510.5 134.6,510.5" fill="rgb(255,255,255)"/>
<polygon points="140.6,504.5 146.6,504.5 146.6,510.5 140.6,510.5" fill="rgb(255,255,255)"/>
<polygon points="146.6,504.5 152.6,504.5 152.6,510.5 146.6,510.5" fill="rgb(255,255,255)"/>
<polygon points="152.6,504.5 158.6,504.5 158.6,510.5 152.6,510.5" fill="rgb(255,255,255)"/>
<polygon points="158.6,504.5 164.6,504.5 164.6,510.5 158.6,510.5" fill="rgb(255,255,255)"/>
<polygon points="164.6,504.5 170.6,504.5 170.6,510.5 164.6,510.5" fill="rgb(255,255,255)"/>
<polygon points="170.6,504.5 176.6,504.5 176.6,510.5 170.6,510.5" fill="rgb(255,255,255)"/>
<polygon points="176.6,504.5 182.6,504.5 182.6,510.5 176.6,510.5" fill="rgb(255,255,255)"/>
<polygon points="185.6,504.5 191.6,504.5 191.6,510.5 185.6,510.5" fill="rgb(0,255,255)"/>
<polygon points="191.6,504.5 197.6,504.5 197.6,510.5 191.6,510.5" fill="rgb(0,255,255)"/>
<polygon points="197.6,504.5 203.6,504.5 203.6,510.5 197.6,510.5" fill="rgb(0,255,255)"/>
<polygon points="206.6,504.5 212.6,504.5 212.6,510.5 206.6,510.5" fill="rgb(255,58,58)"/>
<polygon points="212.6,504.5 218.6,504.5 218.6,510.5 212.6,510.5" fill="rgb(255,57,57)"/>
<polygon points="218.6,504.5 224.6,504.5 224.6,510.5 218.6,510.5" fill="rgb(255,132,132)"/>
<polygon points="224.6,504.5 230.6,504.5 230.6,510.5 224.6,510.5" fill="rgb(255,139,139)"/>
<polygon points="230.6,504.5 236.6,504.5 236.6,510.5 230.6,510.5" fill="rgb(255,161,161)"/>
<polygon points="236.6,504.5 242.6,504.5 242.6,510.5 236.6,510.5" fill="rgb(255,135,135)"/>
<polygon points="242.6,504.5 248.6,504.5 248.6,510.5 242.6,510.5" fill="rgb(255,219,219)"/>
<polygon points="248.6,504.5 254.6,504.5 254.6,510.5 248.6,510.5" fill="rgb(255,183,183)"/>
<polygon points="254.6,504.5 260.6,504.5 260.6,510.5 254.6,510.5" fill="rgb(255,196,196)"/>
<polygon points="260.6,504.5 266.6,504.5 266.6,510.5 260.6,510.5" fill="rgb(255,191,191)"/>
<polygon points="266.6,504.5 272.6,504.5 272.6,510.5 266.6,510.5" fill="rgb(255,196,196)"/>
<polygon points="272.6,504.5 278.6,504.5 278.6,510.5 272.6,510.5" fill="rgb(255,206,206)"/>
<polygon points="278.6,504.5 284.6,504.5 284.6,510.5 278.6,510.5" fill="rgb(255,223,223)"/>
<polygon points="284.6,504.5 290.6,504.5 290.6,510.5 284.6,510.5" fill="rgb(255,204,204)"/>
<polygon points="134.6,510.5 140.6,510.5 140.6,516.5 134.6,516.5" fill="rgb(255,255,255)"/>
<polygon points="140.6,510.5 146.6,510.5 146.6,516.5 140.6,516.5" fill="rgb(255,255,255)"/>
<polygon points="146.6,510.5 152.6,510.5 152.6,516.5 146.6,516.5" fill="rgb(255,255,255)"/>
<polygon points="152.6,510.5 158.6,510.5 158.6,516.5 152.6,516.5" fill="rgb(255,255,255)"/>
<polygon points="158.6,510.5 164.6,510.5 164.6,516.5 158.6,516.5" fill="rgb(255,255,255)"/>
<polygon points="164.6,510.5 170.6,510.5 170.6,516.5 164.6,516.5" fill="rgb(255,255,255)"/>
<polygon points="170.6,510.5 176.6,510.5 176.6,516.5 170.6,516.5" fill="rgb(255,255,255)"/>
<polygon points="176.6,510.5 182.6,510.5 182.6,516.5 176.6,516.5" fill="rgb(255,255,255)"/>
<polygon points="185.6,510.5 191.6,510.5 191.6,516.5 185.6,516.5" fill="rgb(0,255,255)"/>
<polygon points="191.6,510.5 197.6,510.5 197.6,516.5 191.6,516.5" fill="rgb(0,255,255)"/>
<polygon points="197.6,510.5 203.6,510.5 203.6,516.5 197.6,516.5" fill="rgb(255,255,255)"/>
<polygon points="206.6,510.5 212.6,510.5 212.6,516.5 206.6,516.5" fill="rgb(255,94,94)"/>
<polygon points="212.6,510.5 218.6,510.5 218.6,516.5 212.6,516.5" fill="rgb(255,99,99)"/>
<polygon points="218.6,510.5 224.6,510.5 224.6,516.5 218.6,516.5" fill="rgb(255,144,144)"/>
<polygon points="224.6,510.5 230.6,510.5 230.6,516.5 224.6,516.5" fill="rgb(255,154,154)"/>
<polygon points="230.6,510.5 236.6,510.5 236.6,516.5 230.6,516.5" fill="rgb(255,194,194)"/>
<polygon points="236.6,510.5 242.6,510.5 242.6,516.5 236.6,516.5" fill="rgb(255,154,154)"/>
<polygon points="242.6,510.5 248.6,510.5 248.6,516.5 242.6,516.5" fill="rgb(255,199,199)"/>
<polygon points="248.6,510.5 254.6,510.5 254.6,516.5 248.6,516.5" fill="rgb(254,156,156)"/>
<polygon points="254.6,510.5 260.6,510.5 260.6,516.5 254.6,516.5" fill="rgb(255,175,175)"/>
<polygon points="260.6,510.5 266.6,510.5 266.6,516.5 260.6,516.5" fill="rgb(255,173,173)"/>
<polygon points="266.6,510.5 272.6,510.5 272.6,516.5 266.6,516.5" fill="rgb(255,174,174)"/>
<polygon points="272.6,510.5 278.6,510.5 278.6,516.5 272.6,516.5" fill="rgb(255,188,188)"/>
<polygon points="278.6,510.5 284.6,510.5 284.6,516.5 278.6,516.5" fill="rgb(255,224,224)"/>
<polygon points="284.6,510.5 290.6,510.5 290.6,516.5 284.6,516.5" fill="rgb(255,206,206)"/>
<polygon points="134.6,519.5 140.6,519.5 140.6,525.5 134.6,525.5" fill="rgb(255,255,255)"/>
<polygon points="140.6,519.5 146.6,519.5 146.6,525.5 140.6,525.5" fill="rgb(255,255,255)"/>
<polygon points="146.6,519.5 152.6,519.5 152.6,525.5 146.6,525.5" fill="rgb(255,255,255)"/>
<polygon points="152.6,519.5 158.6,519.5 158.6,525.5 152.6,525.5" fill="rgb(255,255,255)"/>
<polygon points="158.6,519.5 164.6,519.5 164.6,525.5 158.6,525.5" fill="rgb(255,255,255)"/>
<polygon points="164.6,519.5 170.6,519.5 170.6,525.5 164.6,525.5" fill="rgb(255,255,255)"/>
<polygon points="170.6,519.5 176.6,519.5 176.6,525.5 170.6,525.5" fill="rgb(255,255,255)"/>
<polygon points="176.6,519.5 182.6,519.5 182.6,525.5 176.6,525.5" fill="rgb(255,255,255)"/>
<polygon points="185.6,519.5 191.6,519.5 191.6,525.5 185.6,525.5" fill="rgb(255,255,255)"/>
<polygon points="191.6,519.5 197.6,519.5 197.6,525.5 191.6,525.5" fill="rgb(255,255,255)"/>
<polygon points="197.6,519.5 203.6,519.5 203.6,525.5 197.6,525.5" fill="rgb(255,255,255)"/>
<polygon points="206.6,519.5 212.6,519.5 212.6,525.5 206.6,525.5" fill="rgb(255,196,196)"/>
<polygon points="212.6,519.5 218.6,519.5 218.6,525.5 212.6,525.5" fill="rgb(255,179,179)"/>
<polygon points="218.6,519.5 224.6,519.5 224.6,525.5 218.6,525.5" fill="rgb(255,211,211)"/>
<polygon points="224.6,519.5 230.6,519.5 230.6,525.5 224.6,525.5" fill="rgb(255,201,201)"/>
<polygon points="230.6,519.5 236.6,519.5 236.6,525.5 230.6,525.5" fill="rgb(0,0,255)"/>
<polygon points="236.6,519.5 242.6,519.5 242.6,525.5 236.6,525.5" fill="rgb(0,0,255)"/>
<polygon points="242.6,519.5 248.6,519.5 248.6,525.5 242.6,525.5" fill="rgb(0,0,255)"/>
<polygon points="248.6,519.5 254.6,519.5 254.6,525.5 248.6,525.5" fill="rgb(179,179,255)"/>
<polygon points="254.6,519.5 260.6,519.5 260.6,525.5 254.6,525.5" fill="rgb(0,0,255)"/>
<polygon points="260.6,519.5 266.6,519.5 266.6,525.5 260.6,525.5" fill="rgb(0,0,255)"/>
<polygon points="266.6,519.5 272.6,519.5 272.6,525.5 266.6,525.5" fill="rgb(0,0,255)"/>
<polygon points="272.6,519.5 278.6,519.5 278.6,525.5 272.6,525.5" fill="rgb(0,0,255)"/>
<polygon points="278.6,519.5 284.6,519.5 284.6,525.5 278.6,525.5" fill="rgb(0,0,255)"/>
<polygon points="284.6,519.5 290.6,519.5 290.6,525.5 284.6,525.5" fill="rgb(0,0,255)"/>
<polygon points="134.6,525.5 140.6,525.5 140.6,531.5 134.6,531.5" fill="rgb(255,255,255)"/>
<polygon points="140.6,525.5 146.6,525.5 146.6,531.5 140.6,531.5" fill="rgb(255,255,255)"/>
<polygon points="146.6,525.5 152.6,525.5 152.6,531.5 146.6,531.5" fill="rgb(255,255,255)"/>
<polygon points="152.6,525.5 158.6,525.5 158.6,531.5 152.6,531.5" fill="rgb(255,255,255)"/>
<polygon points="158.6,525.5 164.6,525.5 164.6,531.5 158.6,531.5" fill="rgb(255,255,255)"/>
<polygon points="164.6,525.5 170.6,525.5 170.6,531.5 164.6,531.5" fill="rgb(255,255,255)"/>
<polygon points="170.6,525.5 176.6,525.5 176.6,531.5 170.6,531.5" fill="rgb(255,255,255)"/>
<polygon points="176.6,525.5 182.6,525.5 182.6,531.5 176.6,531.5" fill="rgb(255,255,255)"/>
<polygon points="185.6,525.5 191.6,525.5 191.6,531.5 185.6,531.5" fill="rgb(255,255,255)"/>
<polygon points="191.6,525.5 197.6,525.5 197.6,531.5 191.6,531.5" fill="rgb(255,255,255)"/>
<polygon points="197.6,525.5 203.6,525.5 203.6,531.5 197.6,531.5" fill="rgb(255,255,255)"/>
<polygon points="206.6,525.5 212.6,525.5 212.6,531.5 206.6,531.5" fill="rgb(255,229,229)"/>
<polygon points="212.6,525.5 218.6,525.5 218.6,531.5 212.6,531.5" fill="rgb(255,240,240)"/>
<polygon points="218.6,525.5 224.6,525.5 224.6,531.5 218.6,531.5" fill="rgb(255,228,228)"/>
<polygon points="224.6,525.5 230.6,525.5 230.6,531.5 224.6,531.5" fill="rgb(255,232,232)"/>
<polygon points="230.6,525.5 236.6,525.5 236.6,531.5 230.6,531.5" fill="rgb(255,253,253)"/>
<polygon points="236.6,525.5 242.6,525.5 242.6,531.5 236.6,531.5" fill="rgb(255,231,231)"/>
<polygon points="242.6,525.5 248.6,525.5 248.6,531.5 242.6,531.5" fill="rgb(0,0,255)"/>
<polygon points="248.6,525.5 254.6,525.5 254.6,531.5 248.6,531.5" fill="rgb(0,0,255)"/>
<polygon points="254.6,525.5 260.6,525.5 260.6,531.5 254.6,531.5" fill="rgb(0,0,255)"/>
<polygon points="260.6,525.5 266.6,525.5 266.6,531.5 260.6,531.5" fill="rgb(0,0,255)"/>
<polygon points="266.6,525.5 272.6,525.5 272.6,531.5 266.6,531.5" fill="rgb(0,0,255)"/>
<polygon points="272.6,525.5 278.6,525.5 278.6,531.5 272.6,531.5" fill="rgb(0,0,255)"/>
<polygon points="278.6,525.5 284.6,525.5 284.6,531.5 278.6,531.5" fill="rgb(0,0,255)"/>
<polygon points="284.6,525.5 290.6,525.5 290.6,531.5 284.6,531.5" fill="rgb(0,0,255)"/>
<polygon points="134.6,531.5 140.6,531.5 140.6,537.5 134.6,537.5" fill="rgb(255,255,255)"/>
<polygon points="140.6,531.5 146.6,531.5 146.6,537.5 140.6,537.5" fill="rgb(255,255,255)"/>
<polygon points="146.6,531.5 152.6,531.5 152.6,537.5 146.6,537.5" fill="rgb(255,255,255)"/>
<polygon points="152.6,531.5 158.6,531.5 158.6,537.5 152.6,537.5" fill="rgb(255,255,255)"/>
<polygon points="158.6,531.5 164.6,531.5 164.6,537.5 158.6,537.5" fill="rgb(255,255,255)"/>
<polygon points="164.6,531.5 170.6,531.5 170.6,537.5 164.6,537.5" fill="rgb(255,255,255)"/>
<polygon points="170.6,531.5 176.6,531.5 176.6,537.5 170.6,537.5" fill="rgb(255,255,255)"/>
<polygon points="176.6,531.5 182.6,531.5 182.6,537.5 176.6,537.5" fill="rgb(255,255,255)"/>
<polygon points="185.6,531.5 191.6,531.5 191.6,537.5 185.6,537.5" fill="rgb(255,255,255)"/>
<polygon points="191.6,531.5 197.6,531.5 197.6,537.5 191.6,537.5" fill="rgb(255,255,255)"/>
<polygon points="197.6,531.5 203.6,531.5 203.6,537.5 197.6,537.5" fill="rgb(255,255,255)"/>
<polygon points="206.6,531.5 212.6,531.5 212.6,537.5 206.6,537.5" fill="rgb(255,173,173)"/>
<polygon points="212.6,531.5 218.6,531.5 218.6,537.5 212.6,537.5" fill="rgb(255,180,180)"/>
<polygon points="218.6,531.5 224.6,531.5 224.6,537.5 218.6,537.5" fill="rgb(0,0,255)"/>
<polygon points="224.6,531.5 230.6,531.5 230.6,537.5 224.6,537.5" fill="rgb(0,0,255)"/>
<polygon points="230.6,531.5 236.6,531.5 236.6,537.5 230.6,537.5" fill="rgb(255,249,249)"/>
<polygon points="236.6,531.5 242.6,531.5 242.6,537.5 236.6,537.5" fill="rgb(0,0,255)"/>
<polygon points="242.6,531.5 248.6,531.5 248.6,537.5 242.6,537.5" fill="rgb(0,0,255)"/>
<polygon points="248.6,531.5 254.6,531.5 254.6,537.5 248.6,537.5" fill="rgb(0,0,255)"/>
<polygon points="254.6,531.5 260.6,531.5 260.6,537.5 254.6,537.5" fill="rgb(0,0,255)"/>
<polygon points="260.6,531.5 266.6,531.5 266.6,537.5 260.6,537.5" fill="rgb(0,0,255)"/>
<polygon points="266.6,531.5 272.6,531.5 272.6,537.5 266.6,537.5" fill="rgb(0,0,255)"/>
<polygon points="272.6,531.5 278.6,531.5 278.6,537.5 272.6,537.5" fill="rgb(0,0,255)"/>
<polygon points="278.6,531.5 284.6,531.5 284.6,537.5 278.6,537.5" fill="rgb(0,0,255)"/>
<polygon points="284.6,531.5 290.6,531.5 290.6,537.5 284.6,537.5" fill="rgb(0,0,255)"/>
<polygon points="134.6,408.5 182.6,408.5 182.6,516.5 134.6,516.5" fill="none" stroke="black" stroke-width="0.5"/>
<polygon points="185.6,408.5 203.6,408.5 203.6,516.5 185.6,516.5" fill="none" stroke="black" stroke-width="0.5"/>
<polygon points="206.6,408.5 290.6,408.5 290.6,516.5 206.6,516.5" fill="none" stroke="black" stroke-width="0.5"/>
<polygon points="134.6,519.5 182.6,519.5 182.6,537.5 134.6,537.5" fill="none" stroke="black" stroke-width="0.5"/>
<polygon points="185.6,519.5 203.6,519.5 203.6,537.5 185.6,537.5" fill="none" stroke="black" stroke-width="0.5"/>
<polygon points="206.6,519.5 290.6,519.5 290.6,537.5 206.6,537.5" fill="none" stroke="black" stroke-width="0.5"/>
<text xml:space="preserve" x="187.3" y="570.167" font-family="Arial" font-size="7" text-anchor="middle">enrichments</text>
<polygon points="77.3,577.5 97.3,577.5 97.3,597.5 77.3,597.5" fill="rgb(255,255,255)"/><polygon points="77.3,577.5 97.3,577.5 97.3,597.5 77.3,597.5" fill="none" stroke="black" stroke-width="0.5"/><text xml:space="preserve" x="87.3" y="589.5" font-family="Arial" font-size="5" fill="rgb(0,0,0)" text-anchor="middle">0.0</text>
<polygon points="97.3,577.5 117.3,577.5 117.3,597.5 97.3,597.5" fill="rgb(216,178,216)"/><polygon points="97.3,577.5 117.3,577.5 117.3,597.5 97.3,597.5" fill="none" stroke="black" stroke-width="0.5"/><text xml:space="preserve" x="107.3" y="589.5" font-family="Arial" font-size="5" fill="rgb(0,0,0)" text-anchor="middle">0.3</text>
<polygon points="117.3,577.5 137.3,577.5 137.3,597.5 117.3,597.5" fill="rgb(178,102,178)"/><polygon points="117.3,577.5 137.3,577.5 137.3,597.5 117.3,597.5" fill="none" stroke="black" stroke-width="0.5"/><text xml:space="preserve" x="127.3" y="589.5" font-family="Arial" font-size="5" fill="rgb(0,0,0)" text-anchor="middle">0.6</text>
<polygon points="137.3,577.5 157.3,577.5 157.3,597.5 137.3,597.5" fill="rgb(140,25,140)"/><polygon points="137.3,577.5 157.3,577.5 157.3,597.5 137.3,597.5" fill="none" stroke="black" stroke-width="0.5"/><text xml:space="preserve" x="147.3" y="589.5" font-family="Arial" font-size="5" fill="rgb(255,255,255)" text-anchor="middle">0.9</text>
<polygon points="157.3,577.5 177.3,577.5 177.3,597.5 157.3,597.5" fill="rgb(102,50,153)"/><polygon points="157.3,577.5 177.3,577.5 177.3,597.5 157.3,597.5" fill="none" stroke="black" stroke-width="0.5"/><text xml:space="preserve" x="167.3" y="589.5" font-family="Arial" font-size="5" fill="rgb(255,255,255)" text-anchor="middle">1.2</text>
<polygon points="177.3,577.5 197.3,577.5 197.3,597.5 177.3,597.5" fill="rgb(64,127,191)"/><polygon points="177.3,577.5 197.3,577.5 197.3,597.5 177.3,597.5" fill="none" stroke="black" stroke-width="0.5"/><text xml:space="preserve" x="187.3" y="589.5" font-family="Arial" font-size="5" fill="rgb(255,255,255)" text-anchor="middle">1.5</text>
<polygon points="197.3,577.5 217.3,577.5 217.3,597.5 197.3,597.5" fill="rgb(25,204,229)"/><polygon points="197.3,577.5 217.3,577.5 217.3,597.5 197.3,597.5" fill="none" stroke="black" stroke-width="0.5"/><text xml:space="preserve" x="207.3" y="589.5" font-family="Arial" font-size="5" fill="rgb(0,0,0)" text-anchor="middle">1.8</text>
<polygon points="217.3,577.5 237.3,577.5 237.3,597.5 217.3,597.5" fill="rgb(0,239,239)"/><polygon points="217.3,577.5 237.3,577.5 237.3,597.5 217.3,597.5" fill="none" stroke="black" stroke-width="0.5"/><text xml:space="preserve" x="227.3" y="589.5" font-family="Arial" font-size="5" fill="rgb(0,0,0)" text-anchor="middle">2.1</text>
<polygon points="237.3,577.5 257.3,577.5 257.3,597.5 237.3,597.5" fill="rgb(0,193,193)"/><polygon points="237.3,577.5 257.3,577.5 257.3,597.5 237.3,597.5" fill="none" stroke="black" stroke-width="0.5"/><text xml:space="preserve" x="247.3" y="589.5" font-family="Arial" font-size="5" fill="rgb(0,0,0)" text-anchor="middle">2.4</text>
<polygon points="257.3,577.5 277.3,577.5 277.3,597.5 257.3,597.5" fill="rgb(0,146,146)"/><polygon points="257.3,577.5 277.3,577.5 277.3,597.5 257.3,597.5" fill="none" stroke="black" stroke-width="0.5"/><text xml:space="preserve" x="267.3" y="589.5" font-family="Arial" font-size="5" fill="rgb(255,255,255)" text-anchor="middle">2.7</text>
<polygon points="277.3,577.5 297.3,577.5 297.3,597.5 277.3,597.5" fill="rgb(0,100,100)"/><polygon points="277.3,577.5 297.3,577.5 297.3,597.5 277.3,597.5" fill="none" stroke="black" stroke-width="0.5"/><text xml:space="preserve" x="287.3" y="589.5" font-family="Arial" font-size="5" fill="rgb(255,255,255)" text-anchor="middle">3.0</text>
<text xml:space="preserve" x="187.3" y="630.167" font-family="Arial" font-size="7" text-anchor="middle">expression</text>
<polygon points="77.3,637.5 97.3,637.5 97.3,657.5 77.3,657.5" fill="rgb(0,0,255)"/><polygon points="77.3,637.5 97.3,637.5 97.3,657.5 77.3,657.5" fill="none" stroke="black" stroke-width="0.5"/><text xml:space="preserve" x="87.3" y="649.5" font-family="Arial" font-size="5" fill="rgb(255,255,255)" text-anchor="middle">0.0</text>
<polygon points="97.3,637.5 117.3,637.5 117.3,657.5 97.3,657.5" fill="rgb(255,211,211)"/><polygon points="97.3,637.5 117.3,637.5 117.3,657.5 97.3,657.5" fill="none" stroke="black" stroke-width="0.5"/><text xml:space="preserve" x="107.3" y="649.5" font-family="Arial" font-size="5" fill="rgb(0,0,0)" text-anchor="middle">0.6</text>
<polygon points="117.3,637.5 137.3,637.5 137.3,657.5 117.3,657.5" fill="rgb(255,158,158)"/><polygon points="117.3,637.5 137.3,637.5 137.3,657.5 117.3,657.5" fill="none" stroke="black" stroke-width="0.5"/><text xml:space="preserve" x="127.3" y="649.5" font-family="Arial" font-size="5" fill="rgb(0,0,0)" text-anchor="middle">1.2</text>
<polygon points="137.3,637.5 157.3,637.5 157.3,657.5 137.3,657.5" fill="rgb(255,105,105)"/><polygon points="137.3,637.5 157.3,637.5 157.3,657.5 137.3,657.5" fill="none" stroke="black" stroke-width="0.5"/><text xml:space="preserve" x="147.3" y="649.5" font-family="Arial" font-size="5" fill="rgb(0,0,0)" text-anchor="middle">1.8</text>
<polygon points="157.3,637.5 177.3,637.5 177.3,657.5 157.3,657.5" fill="rgb(255,52,52)"/><polygon points="157.3,637.5 177.3,637.5 177.3,657.5 157.3,657.5" fill="none" stroke="black" stroke-width="0.5"/><text xml:space="preserve" x="167.3" y="649.5" font-family="Arial" font-size="5" fill="rgb(255,255,255)" text-anchor="middle">2.4</text>
<polygon points="177.3,637.5 197.3,637.5 197.3,657.5 177.3,657.5" fill="rgb(255,0,0)"/><polygon points="177.3,637.5 197.3,637.5 197.3,657.5 177.3,657.5" fill="none" stroke="black" stroke-width="0.5"/><text xml:space="preserve" x="187.3" y="649.5" font-family="Arial" font-size="5" fill="rgb(255,255,255)" text-anchor="middle">3.0</text>
<polygon points="197.3,637.5 217.3,637.5 217.3,657.5 197.3,657.5" fill="rgb(231,0,0)"/><polygon points="197.3,637.5 217.3,637.5 217.3,657.5 197.3,657.5" fill="none" stroke="black" stroke-width="0.5"/><text xml:space="preserve" x="207.3" y="649.5" font-family="Arial" font-size="5" fill="rgb(255,255,255)" text-anchor="middle">3.6</text>
<polygon points="217.3,637.5 237.3,637.5 237.3,657.5 217.3,657.5" fill="rgb(208,0,0)"/><polygon points="217.3,637.5 237.3,637.5 237.3,657.5 217.3,657.5" fill="none" stroke="black" stroke-width="0.5"/><text xml:space="preserve" x="227.3" y="649.5" font-family="Arial" font-size="5" fill="rgb(255,255,255)" text-anchor="middle">4.2</text>
<polygon points="237.3,637.5 257.3,637.5 257.3,657.5 237.3,657.5" fill="rgb(185,0,0)"/><polygon points="237.3,637.5 257.3,637.5 257.3,657.5 237.3,657.5" fill="none" stroke="black" stroke-width="0.5"/><text xml:space="preserve" x="247.3" y="649.5" font-family="Arial" font-size="5" fill="rgb(255,255,255)" text-anchor="middle">4.8</text>
<polygon points="257.3,637.5 277.3,637.5 277.3,657.5 257.3,657.5" fill="rgb(162,0,0)"/><polygon points="257.3,637.5 277.3,637.5 277.3,657.5 257.3,657.5" fill="none" stroke="black" stroke-width="0.5"/><text xml:space="preserve" x="267.3" y="649.5" font-family="Arial" font-size="5" fill="rgb(255,255,255)" text-anchor="middle">5.4</text>
<polygon points="277.3,637.5 297.3,637.5 297.3,657.5 277.3,657.5" fill="rgb(139,0,0)"/><polygon points="277.3,637.5 297.3,637.5 297.3,657.5 277.3,657.5" fill="none" stroke="black" stroke-width="0.5"/><text xml:space="preserve" x="287.3" y="649.5" font-family="Arial" font-size="5" fill="rgb(255,255,255)" text-anchor="middle">6.0</text>
</svg>
