<?xml version="1.0" encoding="UTF-8"?>
<svg id="Layer_1" xmlns="http://www.w3.org/2000/svg" version="1.1" viewBox="0 0 383.3 529">
  <!-- Generator: Adobe Illustrator 29.0.1, SVG Export Plug-In . SVG Version: 2.1.0 Build 192)  -->
  <defs>
    <style>
      .st0 {
        fill: #ffdede;
      }

      .st1 {
        fill: #0e0efe;
      }

      .st2 {
        fill: #ff9b9b;
      }

      .st3 {
        fill: #0707ff;
      }

      .st4 {
        fill: #feecec;
      }

      .st5 {
        fill: #fbb;
      }

      .st6 {
        fill: #bebeff;
      }

      .st7 {
        fill: #1212ff;
      }

      .st8 {
        fill: #006464;
      }

      .st9 {
        fill: #ff9e9e;
      }

      .st10 {
        fill: #ffecec;
      }

      .st11 {
        fill: #1414ff;
      }

      .st12 {
        fill: #663299;
      }

      .st13 {
        fill: #2121ff;
      }

      .st14 {
        fill: #1717ff;
      }

      .st15 {
        fill: #33f;
      }

      .st16 {
        fill: #00c1c1;
      }

      .st17 {
        fill: #3953a3;
      }

      .st18 {
        fill: #3e3eff;
      }

      .st19 {
        fill: #7878ff;
      }

      .st20 {
        fill: #e70000;
      }

      .st21 {
        fill: #8b0000;
      }

      .st22 {
        fill: #fffbfb;
      }

      .st23 {
        fill: #b72025;
      }

      .st24 {
        fill: #0404ff;
      }

      .st25 {
        fill: #ffeaea;
      }

      .st26 {
        fill: #ffdbdb;
      }

      .st27 {
        fill: #ffd0d0;
      }

      .st28 {
        fill: #f8f8ff;
      }

      .st29 {
        fill: #ffe9e9;
      }

      .st30 {
        fill: #ffc9c9;
      }

      .st31 {
        fill: #ffc3c3;
      }

      .st32 {
        fill: #ff4f4f;
      }

      .st33 {
        fill: #6a6aff;
      }

      .st34 {
        fill: #ffe4e4;
      }

      .st35 {
        fill: #2f2fff;
      }

      .st36 {
        fill: #ffc2c2;
      }

      .st37 {
        fill: #ffd8d8;
      }

      .st38 {
        fill: #9f1d21;
      }

      .st39 {
        fill: #fff4f4;
      }

      .st40 {
        fill: #fff8f8;
      }

      .st41 {
        fill: #ffe5e5;
      }

      .st42 {
        fill: #0202ff;
      }

      .st43 {
        fill: #ff8080;
      }

      .st44 {
        fill: #2e2eff;
      }

      .st45 {
        fill: #ffdada;
      }

      .st46 {
        fill: #fffdfd;
      }

      .st47 {
        fill: #1c1cff;
      }

      .st48 {
        fill: #ffcaca;
      }

      .st49 {
        fill: #fffcfc;
      }

      .st50 {
        fill: #1f1fff;
      }

      .st51 {
        fill: #fee;
      }

      .st52 {
        fill: #fee2e2;
      }

      .st53 {
        fill: #ff6262;
      }

      .st54 {
        fill: #0505ff;
      }

      .st55 {
        fill: #ee3c3a;
      }

      .st56 {
        fill: #407fbf;
      }

      .st57 {
        fill: #4949ff;
      }

      .st58 {
        fill: #ffa1a1;
      }

      .st59 {
        fill: #3939ff;
      }

      .st60 {
        fill: none;
        stroke: #000;
        stroke-width: .5px;
      }

      .st61 {
        font-size: 7px;
      }

      .st61, .st62, .st63, .st64, .st65 {
        font-family: ArialMT, Arial;
        isolation: isolate;
      }

      .st66 {
        fill: #ffebeb;
      }

      .st67 {
        fill: #e4e4ff;
      }

      .st68 {
        fill: #2828ff;
      }

      .st69 {
        fill: #fff1f1;
      }

      .st70 {
        fill: #19cce5;
      }

      .st71 {
        fill: blue;
      }

      .st72 {
        fill: #8686ff;
      }

      .st73 {
        fill: #4848ff;
      }

      .st74 {
        fill: #fef7f7;
      }

      .st75 {
        fill: #0d0dff;
      }

      .st76 {
        fill: #f59b9d;
      }

      .st77 {
        fill: #ce2026;
      }

      .st62 {
        font-size: 12px;
      }

      .st78 {
        fill: #ffcfcf;
      }

      .st79 {
        fill: #8282ff;
      }

      .st80 {
        fill: #1b1bff;
      }

      .st81 {
        fill: #00efef;
      }

      .st82 {
        fill: #fef0f0;
      }

      .st83 {
        fill: #ffd7d7;
      }

      .st84 {
        fill: #0606ff;
      }

      .st85 {
        fill: #9191ff;
      }

      .st86 {
        fill: #9a9aff;
      }

      .st87 {
        fill: #ffc5c5;
      }

      .st88 {
        fill: #a2a2ff;
      }

      .st89 {
        fill: #8c198c;
      }

      .st90 {
        fill: #ffb0b0;
      }

      .st91 {
        fill: #1616ff;
      }

      .st92 {
        fill: #c2c2ff;
      }

      .st63 {
        font-size: 8.2px;
      }

      .st63, .st93, .st64 {
        fill: #fff;
      }

      .st94 {
        fill: #2d2dff;
      }

      .st95 {
        fill: #ffb9b9;
      }

      .st96 {
        fill: #11f;
      }

      .st97 {
        fill: #1010ff;
      }

      .st98 {
        fill: #fad1d2;
      }

      .st99 {
        fill: #0c0cff;
      }

      .st100 {
        fill: #cdcdff;
      }

      .st101 {
        fill: #ff3434;
      }

      .st102 {
        fill: #fff5f5;
      }

      .st103 {
        fill: #ffdfdf;
      }

      .st104 {
        fill: #0909ff;
      }

      .st105 {
        fill: #4646ff;
      }

      .st106 {
        fill: #b266b2;
      }

      .st107 {
        fill: #d8b2d8;
      }

      .st108 {
        fill: #ff9f9f;
      }

      .st109 {
        fill: #2b2bff;
      }

      .st110 {
        fill: #9797ff;
      }

      .st111 {
        fill: #ffd3d3;
      }

      .st112 {
        fill: #1414fe;
      }

      .st113 {
        fill: #a4a4ff;
      }

      .st114 {
        fill: #2c2cff;
      }

      .st115 {
        fill: #3434ff;
      }

      .st116 {
        fill: #ffc7c7;
      }

      .st117 {
        fill: #f1696a;
      }

      .st118 {
        fill: #6868ff;
      }

      .st119 {
        fill: #1f1ffe;
      }

      .st64, .st65 {
        font-size: 5px;
      }

      .st120 {
        fill: red;
      }

      .st121 {
        fill: #ff6e6e;
      }

      .st122 {
        fill: #1515ff;
      }

      .st123 {
        fill: #fed9d9;
      }

      .st124 {
        fill: #5858ff;
      }

      .st125 {
        fill: #ffd1d1;
      }

      .st126 {
        fill: #ff7272;
      }

      .st127 {
        fill: #fbfbff;
      }

      .st128 {
        fill: #ff4040;
      }

      .st129 {
        fill: #ffe6e6;
      }

      .st130 {
        fill: #ffe8e8;
      }

      .st131 {
        fill: #a6a6ff;
      }

      .st132 {
        fill: #5959ff;
      }

      .st133 {
        fill: #4747ff;
      }

      .st134 {
        fill: #ffa5a5;
      }

      .st135 {
        fill: #e31e25;
      }

      .st136 {
        fill: #ffa4a4;
      }

      .st137 {
        fill: #009292;
      }

      .st138 {
        fill: aqua;
      }

      .st139 {
        fill: #4d4dff;
      }

      .st140 {
        fill: #ffd6d6;
      }

      .st141 {
        fill: #fff6f6;
      }

      .st142 {
        fill: #b90000;
      }

      .st143 {
        fill: #4545ff;
      }

      .st144 {
        fill: #6d6dff;
      }

      .st145 {
        fill: #ff6969;
      }

      .st146 {
        fill: #fefcfc;
      }

      .st147 {
        fill: #ffe7e7;
      }

      .st148 {
        fill: #1818ff;
      }

      .st149 {
        fill: #89181a;
      }

      .st150 {
        fill: #ec2024;
      }

      .st151 {
        fill: #d00000;
      }

      .st152 {
        fill: #3b3bff;
      }

      .st153 {
        fill: #fff7f7;
      }

      .st154 {
        fill: #0808ff;
      }

      .st155 {
        fill: #a20000;
      }

      .st156 {
        fill: purple;
      }

      .st157 {
        fill: #3f3fff;
      }

      .st158 {
        fill: #fff3f3;
      }

      .st159 {
        fill: #fff2f2;
      }
    </style>
  </defs>
  <text class="st61" transform="translate(128.5 277.7)"><tspan x="0" y="0">Elf3</tspan></text>
  <text class="st61" transform="translate(123.6 283.7)"><tspan x="0" y="0">Mylpf</tspan></text>
  <text class="st61" transform="translate(115.3 289.7)"><tspan x="0" y="0">Fam25c</tspan></text>
  <text class="st61" transform="translate(117.6 295.7)"><tspan x="0" y="0">Tfcp2l1</tspan></text>
  <text class="st61" transform="translate(128.9 301.7)"><tspan x="0" y="0">Alpl</tspan></text>
  <text class="st61" transform="translate(119.9 307.7)"><tspan x="0" y="0">Dppa3</tspan></text>
  <text class="st61" transform="translate(119.1 313.7)"><tspan x="0" y="0">Tfap2c</tspan></text>
  <text class="st61" transform="translate(122.6 319.7)"><tspan x="0" y="0">Alg13</tspan></text>
  <text class="st61" transform="translate(126.5 325.7)"><tspan x="0" y="0">Fgf4</tspan></text>
  <text class="st61" transform="translate(128.5 331.7)"><tspan x="0" y="0">Tdh</tspan></text>
  <text class="st61" transform="translate(119.9 337.7)"><tspan x="0" y="0">Nanog</tspan></text>
  <text class="st61" transform="translate(185.7 346.7)"><tspan x="0" y="0">Dppa3</tspan></text>
  <text class="st61" transform="translate(181.8 382.7)"><tspan x="0" y="0">Dppa5a</tspan></text>
  <text class="st61" transform="translate(194.2 370.7)"><tspan x="0" y="0">Elf3</tspan></text>
  <text class="st61" transform="translate(189.6 358.7)"><tspan x="0" y="0">Esrrb</tspan></text>
  <text class="st61" transform="translate(185.7 388.7)"><tspan x="0" y="0">Nanog</tspan></text>
  <text class="st61" transform="translate(170.5 364.7)"><tspan x="0" y="0">Nr6a1_TFA</tspan></text>
  <text class="st61" transform="translate(171.7 376.7)"><tspan x="0" y="0">Snai2_TFA</tspan></text>
  <text class="st61" transform="translate(183.3 352.7)"><tspan x="0" y="0">Tfcp2l1</tspan></text>
  <text class="st61" transform="translate(149 268) rotate(-90)"><tspan x="0" y="0">Stem cell development</tspan></text>
  <text class="st61" transform="translate(155 268) rotate(-90)"><tspan x="0" y="0">Stem cell maintenance</tspan></text>
  <text class="st61" transform="translate(164 268) rotate(-90)"><tspan x="0" y="0">Dppa3</tspan></text>
  <text class="st61" transform="translate(170 268) rotate(-90)"><tspan x="0" y="0">Tfcp2l1</tspan></text>
  <text class="st61" transform="translate(176 268) rotate(-90)"><tspan x="0" y="0">Esrrb</tspan></text>
  <text class="st61" transform="translate(182 268) rotate(-90)"><tspan x="0" y="0">Nr6a1_TFA</tspan></text>
  <text class="st61" transform="translate(188 268) rotate(-90)"><tspan x="0" y="0">Elf3</tspan></text>
  <text class="st61" transform="translate(194 268) rotate(-90)"><tspan x="0" y="0">Snai2_TFA</tspan></text>
  <text class="st61" transform="translate(200 268) rotate(-90)"><tspan x="0" y="0">Dppa5a</tspan></text>
  <text class="st61" transform="translate(206 268) rotate(-90)"><tspan x="0" y="0">Nanog</tspan></text>
  <text class="st61" transform="translate(215 268) rotate(-90)"><tspan x="0" y="0">C2</tspan></text>
  <text class="st61" transform="translate(221 268) rotate(-90)"><tspan x="0" y="0">C7</tspan></text>
  <text class="st61" transform="translate(227 268) rotate(-90)"><tspan x="0" y="0">C3</tspan></text>
  <text class="st61" transform="translate(233 268) rotate(-90)"><tspan x="0" y="0">C5</tspan></text>
  <text class="st61" transform="translate(239 268) rotate(-90)"><tspan x="0" y="0">C12</tspan></text>
  <text class="st61" transform="translate(245 268) rotate(-90)"><tspan x="0" y="0">C13</tspan></text>
  <text class="st61" transform="translate(251 268) rotate(-90)"><tspan x="0" y="0">C14</tspan></text>
  <text class="st61" transform="translate(257 268) rotate(-90)"><tspan x="0" y="0">C11</tspan></text>
  <text class="st61" transform="translate(263 268) rotate(-90)"><tspan x="0" y="0">C4</tspan></text>
  <text class="st61" transform="translate(269 268) rotate(-90)"><tspan x="0" y="0">C8</tspan></text>
  <text class="st61" transform="translate(275 268) rotate(-90)"><tspan x="0" y="0">C6</tspan></text>
  <text class="st61" transform="translate(281 268) rotate(-90)"><tspan x="0" y="0">C10</tspan></text>
  <text class="st61" transform="translate(287 268) rotate(-90)"><tspan x="0" y="0">C9</tspan></text>
  <text class="st61" transform="translate(293 268) rotate(-90)"><tspan x="0" y="0">C1</tspan></text>
  <polygon class="st93" points="143.3 272 149.3 272 149.3 278 143.3 278 143.3 272"/>
  <polygon class="st93" points="149.3 272 155.3 272 155.3 278 149.3 278 149.3 272"/>
  <polygon class="st138" points="158.3 272 164.3 272 164.3 278 158.3 278 158.3 272"/>
  <polygon class="st138" points="164.3 272 170.3 272 170.3 278 164.3 278 164.3 272"/>
  <polygon class="st93" points="170.3 272 176.3 272 176.3 278 170.3 278 170.3 272"/>
  <polygon class="st93" points="176.3 272 182.3 272 182.3 278 176.3 278 176.3 272"/>
  <polygon class="st93" points="182.3 272 188.3 272 188.3 278 182.3 278 182.3 272"/>
  <polygon class="st93" points="188.3 272 194.3 272 194.3 278 188.3 278 188.3 272"/>
  <polygon class="st93" points="194.3 272 200.3 272 200.3 278 194.3 278 194.3 272"/>
  <polygon class="st138" points="200.3 272 206.3 272 206.3 278 200.3 278 200.3 272"/>
  <polygon class="st71" points="209.3 272 215.3 272 215.3 278 209.3 278 209.3 272"/>
  <polygon class="st71" points="215.3 272 221.3 272 221.3 278 215.3 278 215.3 272"/>
  <polygon class="st24" points="221.3 272 227.3 272 227.3 278 221.3 278 221.3 272"/>
  <polygon class="st71" points="227.3 272 233.3 272 233.3 278 227.3 278 227.3 272"/>
  <polygon class="st71" points="233.3 272 239.3 272 239.3 278 233.3 278 233.3 272"/>
  <polygon class="st71" points="239.3 272 245.3 272 245.3 278 239.3 278 239.3 272"/>
  <polygon class="st15" points="245.3 272 251.3 272 251.3 278 245.3 278 245.3 272"/>
  <polygon class="st71" points="251.3 272 257.3 272 257.3 278 251.3 278 251.3 272"/>
  <polygon class="st84" points="257.3 272 263.3 272 263.3 278 257.3 278 257.3 272"/>
  <polygon class="st67" points="263.3 272 269.3 272 269.3 278 263.3 278 263.3 272"/>
  <polygon class="st22" points="269.3 272 275.3 272 275.3 278 269.3 278 269.3 272"/>
  <polygon class="st50" points="275.3 272 281.3 272 281.3 278 275.3 278 275.3 272"/>
  <polygon class="st116" points="281.3 272 287.3 272 287.3 278 281.3 278 281.3 272"/>
  <polygon class="st51" points="287.3 272 293.3 272 293.3 278 287.3 278 287.3 272"/>
  <polygon class="st93" points="143.3 278 149.3 278 149.3 284 143.3 284 143.3 278"/>
  <polygon class="st93" points="149.3 278 155.3 278 155.3 284 149.3 284 149.3 278"/>
  <polygon class="st138" points="158.3 278 164.3 278 164.3 284 158.3 284 158.3 278"/>
  <polygon class="st138" points="164.3 278 170.3 278 170.3 284 164.3 284 164.3 278"/>
  <polygon class="st138" points="170.3 278 176.3 278 176.3 284 170.3 284 170.3 278"/>
  <polygon class="st93" points="176.3 278 182.3 278 182.3 284 176.3 284 176.3 278"/>
  <polygon class="st93" points="182.3 278 188.3 278 188.3 284 182.3 284 182.3 278"/>
  <polygon class="st93" points="188.3 278 194.3 278 194.3 284 188.3 284 188.3 278"/>
  <polygon class="st138" points="194.3 278 200.3 278 200.3 284 194.3 284 194.3 278"/>
  <polygon class="st138" points="200.3 278 206.3 278 206.3 284 200.3 284 200.3 278"/>
  <polygon class="st112" points="209.3 278 215.3 278 215.3 284 209.3 284 209.3 278"/>
  <polygon class="st91" points="215.3 278 221.3 278 221.3 284 215.3 284 215.3 278"/>
  <polygon class="st13" points="221.3 278 227.3 278 227.3 284 221.3 284 221.3 278"/>
  <polygon class="st105" points="227.3 278 233.3 278 233.3 284 227.3 284 227.3 278"/>
  <polygon class="st47" points="233.3 278 239.3 278 239.3 284 233.3 284 233.3 278"/>
  <polygon class="st109" points="239.3 278 245.3 278 245.3 284 239.3 284 239.3 278"/>
  <polygon class="st80" points="245.3 278 251.3 278 251.3 284 245.3 284 245.3 278"/>
  <polygon class="st94" points="251.3 278 257.3 278 257.3 284 251.3 284 251.3 278"/>
  <polygon class="st157" points="257.3 278 263.3 278 263.3 284 257.3 284 257.3 278"/>
  <polygon class="st57" points="263.3 278 269.3 278 269.3 284 263.3 284 263.3 278"/>
  <polygon class="st118" points="269.3 278 275.3 278 275.3 284 269.3 284 269.3 278"/>
  <polygon class="st73" points="275.3 278 281.3 278 281.3 284 275.3 284 275.3 278"/>
  <polygon class="st48" points="281.3 278 287.3 278 287.3 284 281.3 284 281.3 278"/>
  <polygon class="st83" points="287.3 278 293.3 278 293.3 284 287.3 284 287.3 278"/>
  <polygon class="st93" points="143.3 284 149.3 284 149.3 290 143.3 290 143.3 284"/>
  <polygon class="st93" points="149.3 284 155.3 284 155.3 290 149.3 290 149.3 284"/>
  <polygon class="st138" points="158.3 284 164.3 284 164.3 290 158.3 290 158.3 284"/>
  <polygon class="st93" points="164.3 284 170.3 284 170.3 290 164.3 290 164.3 284"/>
  <polygon class="st138" points="170.3 284 176.3 284 176.3 290 170.3 290 170.3 284"/>
  <polygon class="st93" points="176.3 284 182.3 284 182.3 290 176.3 290 176.3 284"/>
  <polygon class="st93" points="182.3 284 188.3 284 188.3 290 182.3 290 182.3 284"/>
  <polygon class="st93" points="188.3 284 194.3 284 194.3 290 188.3 290 188.3 284"/>
  <polygon class="st93" points="194.3 284 200.3 284 200.3 290 194.3 290 194.3 284"/>
  <polygon class="st93" points="200.3 284 206.3 284 206.3 290 200.3 290 200.3 284"/>
  <polygon class="st71" points="209.3 284 215.3 284 215.3 290 209.3 290 209.3 284"/>
  <polygon class="st71" points="215.3 284 221.3 284 221.3 290 215.3 290 215.3 284"/>
  <polygon class="st54" points="221.3 284 227.3 284 227.3 290 221.3 290 221.3 284"/>
  <polygon class="st54" points="227.3 284 233.3 284 233.3 290 227.3 290 227.3 284"/>
  <polygon class="st71" points="233.3 284 239.3 284 239.3 290 233.3 290 233.3 284"/>
  <polygon class="st71" points="239.3 284 245.3 284 245.3 290 239.3 290 239.3 284"/>
  <polygon class="st71" points="245.3 284 251.3 284 251.3 290 245.3 290 245.3 284"/>
  <polygon class="st109" points="251.3 284 257.3 284 257.3 290 251.3 290 251.3 284"/>
  <polygon class="st75" points="257.3 284 263.3 284 263.3 290 257.3 290 257.3 284"/>
  <polygon class="st113" points="263.3 284 269.3 284 269.3 290 263.3 290 263.3 284"/>
  <polygon class="st100" points="269.3 284 275.3 284 275.3 290 269.3 290 269.3 284"/>
  <polygon class="st59" points="275.3 284 281.3 284 281.3 290 275.3 290 275.3 284"/>
  <polygon class="st140" points="281.3 284 287.3 284 287.3 290 281.3 290 281.3 284"/>
  <polygon class="st4" points="287.3 284 293.3 284 293.3 290 287.3 290 287.3 284"/>
  <polygon class="st93" points="143.3 290 149.3 290 149.3 296 143.3 296 143.3 290"/>
  <polygon class="st93" points="149.3 290 155.3 290 155.3 296 149.3 296 149.3 290"/>
  <polygon class="st93" points="158.3 290 164.3 290 164.3 296 158.3 296 158.3 290"/>
  <polygon class="st93" points="164.3 290 170.3 290 170.3 296 164.3 296 164.3 290"/>
  <polygon class="st138" points="170.3 290 176.3 290 176.3 296 170.3 296 170.3 290"/>
  <polygon class="st93" points="176.3 290 182.3 290 182.3 296 176.3 296 176.3 290"/>
  <polygon class="st138" points="182.3 290 188.3 290 188.3 296 182.3 296 182.3 290"/>
  <polygon class="st93" points="188.3 290 194.3 290 194.3 296 188.3 296 188.3 290"/>
  <polygon class="st93" points="194.3 290 200.3 290 200.3 296 194.3 296 194.3 290"/>
  <polygon class="st138" points="200.3 290 206.3 290 206.3 296 200.3 296 200.3 290"/>
  <polygon class="st1" points="209.3 290 215.3 290 215.3 296 209.3 296 209.3 290"/>
  <polygon class="st154" points="215.3 290 221.3 290 221.3 296 215.3 296 215.3 290"/>
  <polygon class="st154" points="221.3 290 227.3 290 227.3 296 221.3 296 221.3 290"/>
  <polygon class="st132" points="227.3 290 233.3 290 233.3 296 227.3 296 227.3 290"/>
  <polygon class="st152" points="233.3 290 239.3 290 239.3 296 233.3 296 233.3 290"/>
  <polygon class="st99" points="239.3 290 245.3 290 245.3 296 239.3 296 239.3 290"/>
  <polygon class="st68" points="245.3 290 251.3 290 251.3 296 245.3 296 245.3 290"/>
  <polygon class="st144" points="251.3 290 257.3 290 257.3 296 251.3 296 251.3 290"/>
  <polygon class="st85" points="257.3 290 263.3 290 263.3 296 257.3 296 257.3 290"/>
  <polygon class="st102" points="263.3 290 269.3 290 269.3 296 263.3 296 263.3 290"/>
  <polygon class="st69" points="269.3 290 275.3 290 275.3 296 269.3 296 269.3 290"/>
  <polygon class="st133" points="275.3 290 281.3 290 281.3 296 275.3 296 275.3 290"/>
  <polygon class="st31" points="281.3 290 287.3 290 287.3 296 281.3 296 281.3 290"/>
  <polygon class="st27" points="287.3 290 293.3 290 293.3 296 287.3 296 287.3 290"/>
  <polygon class="st93" points="143.3 296 149.3 296 149.3 302 143.3 302 143.3 296"/>
  <polygon class="st93" points="149.3 296 155.3 296 155.3 302 149.3 302 149.3 296"/>
  <polygon class="st93" points="158.3 296 164.3 296 164.3 302 158.3 302 158.3 296"/>
  <polygon class="st93" points="164.3 296 170.3 296 170.3 302 164.3 302 164.3 296"/>
  <polygon class="st93" points="170.3 296 176.3 296 176.3 302 170.3 302 170.3 296"/>
  <polygon class="st93" points="176.3 296 182.3 296 182.3 302 176.3 302 176.3 296"/>
  <polygon class="st138" points="182.3 296 188.3 296 188.3 302 182.3 302 182.3 296"/>
  <polygon class="st93" points="188.3 296 194.3 296 194.3 302 188.3 302 188.3 296"/>
  <polygon class="st93" points="194.3 296 200.3 296 200.3 302 194.3 302 194.3 296"/>
  <polygon class="st138" points="200.3 296 206.3 296 206.3 302 200.3 302 200.3 296"/>
  <polygon class="st71" points="209.3 296 215.3 296 215.3 302 209.3 302 209.3 296"/>
  <polygon class="st71" points="215.3 296 221.3 296 221.3 302 215.3 302 215.3 296"/>
  <polygon class="st122" points="221.3 296 227.3 296 227.3 302 221.3 302 221.3 296"/>
  <polygon class="st110" points="227.3 296 233.3 296 233.3 302 227.3 302 227.3 296"/>
  <polygon class="st11" points="233.3 296 239.3 296 239.3 302 233.3 302 233.3 296"/>
  <polygon class="st71" points="239.3 296 245.3 296 245.3 302 239.3 302 239.3 296"/>
  <polygon class="st49" points="245.3 296 251.3 296 251.3 302 245.3 302 245.3 296"/>
  <polygon class="st72" points="251.3 296 257.3 296 257.3 302 251.3 302 251.3 296"/>
  <polygon class="st92" points="257.3 296 263.3 296 263.3 302 257.3 302 257.3 296"/>
  <polygon class="st74" points="263.3 296 269.3 296 269.3 302 263.3 302 263.3 296"/>
  <polygon class="st129" points="269.3 296 275.3 296 275.3 302 269.3 302 269.3 296"/>
  <polygon class="st129" points="275.3 296 281.3 296 281.3 302 275.3 302 275.3 296"/>
  <polygon class="st134" points="281.3 296 287.3 296 287.3 302 281.3 302 281.3 296"/>
  <polygon class="st45" points="287.3 296 293.3 296 293.3 302 287.3 302 287.3 296"/>
  <polygon class="st93" points="143.3 302 149.3 302 149.3 308 143.3 308 143.3 302"/>
  <polygon class="st93" points="149.3 302 155.3 302 155.3 308 149.3 308 149.3 302"/>
  <polygon class="st93" points="158.3 302 164.3 302 164.3 308 158.3 308 158.3 302"/>
  <polygon class="st93" points="164.3 302 170.3 302 170.3 308 164.3 308 164.3 302"/>
  <polygon class="st93" points="170.3 302 176.3 302 176.3 308 170.3 308 170.3 302"/>
  <polygon class="st93" points="176.3 302 182.3 302 182.3 308 176.3 308 176.3 302"/>
  <polygon class="st138" points="182.3 302 188.3 302 188.3 308 182.3 308 182.3 302"/>
  <polygon class="st138" points="188.3 302 194.3 302 194.3 308 188.3 308 188.3 302"/>
  <polygon class="st138" points="194.3 302 200.3 302 200.3 308 194.3 308 194.3 302"/>
  <polygon class="st138" points="200.3 302 206.3 302 206.3 308 200.3 308 200.3 302"/>
  <polygon class="st71" points="209.3 302 215.3 302 215.3 308 209.3 308 209.3 302"/>
  <polygon class="st71" points="215.3 302 221.3 302 221.3 308 215.3 308 215.3 302"/>
  <polygon class="st71" points="221.3 302 227.3 302 227.3 308 221.3 308 221.3 302"/>
  <polygon class="st54" points="227.3 302 233.3 302 233.3 308 227.3 308 227.3 302"/>
  <polygon class="st71" points="233.3 302 239.3 302 239.3 308 233.3 308 233.3 302"/>
  <polygon class="st7" points="239.3 302 245.3 302 245.3 308 239.3 308 239.3 302"/>
  <polygon class="st71" points="245.3 302 251.3 302 251.3 308 245.3 308 245.3 302"/>
  <polygon class="st71" points="251.3 302 257.3 302 257.3 308 251.3 308 251.3 302"/>
  <polygon class="st24" points="257.3 302 263.3 302 263.3 308 257.3 308 257.3 302"/>
  <polygon class="st114" points="263.3 302 269.3 302 269.3 308 263.3 308 263.3 302"/>
  <polygon class="st96" points="269.3 302 275.3 302 275.3 308 269.3 308 269.3 302"/>
  <polygon class="st122" points="275.3 302 281.3 302 281.3 308 275.3 308 275.3 302"/>
  <polygon class="st78" points="281.3 302 287.3 302 287.3 308 281.3 308 281.3 302"/>
  <polygon class="st87" points="287.3 302 293.3 302 293.3 308 287.3 308 287.3 302"/>
  <polygon class="st156" points="143.3 308 149.3 308 149.3 314 143.3 314 143.3 308"/>
  <polygon class="st156" points="149.3 308 155.3 308 155.3 314 149.3 314 149.3 308"/>
  <polygon class="st93" points="158.3 308 164.3 308 164.3 314 158.3 314 158.3 308"/>
  <polygon class="st93" points="164.3 308 170.3 308 170.3 314 164.3 314 164.3 308"/>
  <polygon class="st93" points="170.3 308 176.3 308 176.3 314 170.3 314 170.3 308"/>
  <polygon class="st93" points="176.3 308 182.3 308 182.3 314 176.3 314 176.3 308"/>
  <polygon class="st93" points="182.3 308 188.3 308 188.3 314 182.3 314 182.3 308"/>
  <polygon class="st93" points="188.3 308 194.3 308 194.3 314 188.3 314 188.3 308"/>
  <polygon class="st138" points="194.3 308 200.3 308 200.3 314 194.3 314 194.3 308"/>
  <polygon class="st138" points="200.3 308 206.3 308 206.3 314 200.3 314 200.3 308"/>
  <polygon class="st71" points="209.3 308 215.3 308 215.3 314 209.3 314 209.3 308"/>
  <polygon class="st71" points="215.3 308 221.3 308 221.3 314 215.3 314 215.3 308"/>
  <polygon class="st24" points="221.3 308 227.3 308 227.3 314 221.3 314 221.3 308"/>
  <polygon class="st14" points="227.3 308 233.3 308 233.3 314 227.3 314 227.3 308"/>
  <polygon class="st71" points="233.3 308 239.3 308 239.3 314 233.3 314 233.3 308"/>
  <polygon class="st71" points="239.3 308 245.3 308 245.3 314 239.3 314 239.3 308"/>
  <polygon class="st71" points="245.3 308 251.3 308 251.3 314 245.3 314 245.3 308"/>
  <polygon class="st47" points="251.3 308 257.3 308 257.3 314 251.3 314 251.3 308"/>
  <polygon class="st105" points="257.3 308 263.3 308 263.3 314 257.3 314 257.3 308"/>
  <polygon class="st49" points="263.3 308 269.3 308 269.3 314 263.3 314 263.3 308"/>
  <polygon class="st147" points="269.3 308 275.3 308 275.3 314 269.3 314 269.3 308"/>
  <polygon class="st22" points="275.3 308 281.3 308 281.3 314 275.3 314 275.3 308"/>
  <polygon class="st95" points="281.3 308 287.3 308 287.3 314 281.3 314 281.3 308"/>
  <polygon class="st26" points="287.3 308 293.3 308 293.3 314 287.3 314 287.3 308"/>
  <polygon class="st93" points="143.3 314 149.3 314 149.3 320 143.3 320 143.3 314"/>
  <polygon class="st93" points="149.3 314 155.3 314 155.3 320 149.3 320 149.3 314"/>
  <polygon class="st93" points="158.3 314 164.3 314 164.3 320 158.3 320 158.3 314"/>
  <polygon class="st93" points="164.3 314 170.3 314 170.3 320 164.3 320 164.3 314"/>
  <polygon class="st93" points="170.3 314 176.3 314 176.3 320 170.3 320 170.3 314"/>
  <polygon class="st93" points="176.3 314 182.3 314 182.3 320 176.3 320 176.3 314"/>
  <polygon class="st93" points="182.3 314 188.3 314 188.3 320 182.3 320 182.3 314"/>
  <polygon class="st138" points="188.3 314 194.3 314 194.3 320 188.3 320 188.3 314"/>
  <polygon class="st93" points="194.3 314 200.3 314 200.3 320 194.3 320 194.3 314"/>
  <polygon class="st138" points="200.3 314 206.3 314 206.3 320 200.3 320 200.3 314"/>
  <polygon class="st141" points="209.3 314 215.3 314 215.3 320 209.3 320 209.3 314"/>
  <polygon class="st0" points="215.3 314 221.3 314 221.3 320 215.3 320 215.3 314"/>
  <polygon class="st25" points="221.3 314 227.3 314 227.3 320 221.3 320 221.3 314"/>
  <polygon class="st26" points="227.3 314 233.3 314 233.3 320 227.3 320 227.3 314"/>
  <polygon class="st127" points="233.3 314 239.3 314 239.3 320 233.3 320 233.3 314"/>
  <polygon class="st22" points="239.3 314 245.3 314 245.3 320 239.3 320 239.3 314"/>
  <polygon class="st10" points="245.3 314 251.3 314 251.3 320 245.3 320 245.3 314"/>
  <polygon class="st41" points="251.3 314 257.3 314 257.3 320 251.3 320 251.3 314"/>
  <polygon class="st103" points="257.3 314 263.3 314 263.3 320 257.3 320 257.3 314"/>
  <polygon class="st30" points="263.3 314 269.3 314 269.3 320 263.3 320 263.3 314"/>
  <polygon class="st58" points="269.3 314 275.3 314 275.3 320 269.3 320 269.3 314"/>
  <polygon class="st90" points="275.3 314 281.3 314 281.3 320 275.3 320 275.3 314"/>
  <polygon class="st53" points="281.3 314 287.3 314 287.3 320 281.3 320 281.3 314"/>
  <polygon class="st32" points="287.3 314 293.3 314 293.3 320 287.3 320 287.3 314"/>
  <polygon class="st156" points="143.3 320 149.3 320 149.3 326 143.3 326 143.3 320"/>
  <polygon class="st156" points="149.3 320 155.3 320 155.3 326 149.3 326 149.3 320"/>
  <polygon class="st93" points="158.3 320 164.3 320 164.3 326 158.3 326 158.3 320"/>
  <polygon class="st93" points="164.3 320 170.3 320 170.3 326 164.3 326 164.3 320"/>
  <polygon class="st93" points="170.3 320 176.3 320 176.3 326 170.3 326 170.3 320"/>
  <polygon class="st138" points="176.3 320 182.3 320 182.3 326 176.3 326 176.3 320"/>
  <polygon class="st93" points="182.3 320 188.3 320 188.3 326 182.3 326 182.3 320"/>
  <polygon class="st93" points="188.3 320 194.3 320 194.3 326 188.3 326 188.3 320"/>
  <polygon class="st93" points="194.3 320 200.3 320 200.3 326 194.3 326 194.3 320"/>
  <polygon class="st138" points="200.3 320 206.3 320 206.3 326 200.3 326 200.3 320"/>
  <polygon class="st71" points="209.3 320 215.3 320 215.3 326 209.3 326 209.3 320"/>
  <polygon class="st71" points="215.3 320 221.3 320 221.3 326 215.3 326 215.3 320"/>
  <polygon class="st88" points="221.3 320 227.3 320 227.3 326 221.3 326 221.3 320"/>
  <polygon class="st82" points="227.3 320 233.3 320 233.3 326 227.3 326 227.3 320"/>
  <polygon class="st33" points="233.3 320 239.3 320 239.3 326 233.3 326 233.3 320"/>
  <polygon class="st6" points="239.3 320 245.3 320 245.3 326 239.3 326 239.3 320"/>
  <polygon class="st146" points="245.3 320 251.3 320 251.3 326 245.3 326 245.3 320"/>
  <polygon class="st66" points="251.3 320 257.3 320 257.3 326 251.3 326 251.3 320"/>
  <polygon class="st102" points="257.3 320 263.3 320 263.3 326 257.3 326 257.3 320"/>
  <polygon class="st40" points="263.3 320 269.3 320 269.3 326 263.3 326 263.3 320"/>
  <polygon class="st29" points="269.3 320 275.3 320 275.3 326 269.3 326 269.3 320"/>
  <polygon class="st158" points="275.3 320 281.3 320 281.3 326 275.3 326 275.3 320"/>
  <polygon class="st36" points="281.3 320 287.3 320 287.3 326 281.3 326 281.3 320"/>
  <polygon class="st108" points="287.3 320 293.3 320 293.3 326 287.3 326 287.3 320"/>
  <polygon class="st93" points="143.3 326 149.3 326 149.3 332 143.3 332 143.3 326"/>
  <polygon class="st93" points="149.3 326 155.3 326 155.3 332 149.3 332 149.3 326"/>
  <polygon class="st93" points="158.3 326 164.3 326 164.3 332 158.3 332 158.3 326"/>
  <polygon class="st93" points="164.3 326 170.3 326 170.3 332 164.3 332 164.3 326"/>
  <polygon class="st138" points="170.3 326 176.3 326 176.3 332 170.3 332 170.3 326"/>
  <polygon class="st138" points="176.3 326 182.3 326 182.3 332 176.3 332 176.3 326"/>
  <polygon class="st93" points="182.3 326 188.3 326 188.3 332 182.3 332 182.3 326"/>
  <polygon class="st93" points="188.3 326 194.3 326 194.3 332 188.3 332 188.3 326"/>
  <polygon class="st93" points="194.3 326 200.3 326 200.3 332 194.3 332 194.3 326"/>
  <polygon class="st93" points="200.3 326 206.3 326 206.3 332 200.3 332 200.3 326"/>
  <polygon class="st71" points="209.3 326 215.3 326 215.3 332 209.3 332 209.3 326"/>
  <polygon class="st71" points="215.3 326 221.3 326 221.3 332 215.3 332 215.3 326"/>
  <polygon class="st104" points="221.3 326 227.3 326 227.3 332 221.3 332 221.3 326"/>
  <polygon class="st35" points="227.3 326 233.3 326 233.3 332 227.3 332 227.3 326"/>
  <polygon class="st19" points="233.3 326 239.3 326 239.3 332 233.3 332 233.3 326"/>
  <polygon class="st28" points="239.3 326 245.3 326 245.3 332 239.3 332 239.3 326"/>
  <polygon class="st0" points="245.3 326 251.3 326 251.3 332 245.3 332 245.3 326"/>
  <polygon class="st130" points="251.3 326 257.3 326 257.3 332 251.3 332 251.3 326"/>
  <polygon class="st37" points="257.3 326 263.3 326 263.3 332 257.3 332 257.3 326"/>
  <polygon class="st130" points="263.3 326 269.3 326 269.3 332 263.3 332 263.3 326"/>
  <polygon class="st78" points="269.3 326 275.3 326 275.3 332 269.3 332 269.3 326"/>
  <polygon class="st123" points="275.3 326 281.3 326 281.3 332 275.3 332 275.3 326"/>
  <polygon class="st43" points="281.3 326 287.3 326 287.3 332 281.3 332 281.3 326"/>
  <polygon class="st121" points="287.3 326 293.3 326 293.3 332 287.3 332 287.3 326"/>
  <polygon class="st156" points="143.3 332 149.3 332 149.3 338 143.3 338 143.3 332"/>
  <polygon class="st156" points="149.3 332 155.3 332 155.3 338 149.3 338 149.3 332"/>
  <polygon class="st93" points="158.3 332 164.3 332 164.3 338 158.3 338 158.3 332"/>
  <polygon class="st138" points="164.3 332 170.3 332 170.3 338 164.3 338 164.3 332"/>
  <polygon class="st138" points="170.3 332 176.3 332 176.3 338 170.3 338 170.3 332"/>
  <polygon class="st138" points="176.3 332 182.3 332 182.3 338 176.3 338 176.3 332"/>
  <polygon class="st138" points="182.3 332 188.3 332 188.3 338 182.3 338 182.3 332"/>
  <polygon class="st138" points="188.3 332 194.3 332 194.3 338 188.3 338 188.3 332"/>
  <polygon class="st93" points="194.3 332 200.3 332 200.3 338 194.3 338 194.3 332"/>
  <polygon class="st93" points="200.3 332 206.3 332 206.3 338 200.3 338 200.3 332"/>
  <polygon class="st154" points="209.3 332 215.3 332 215.3 338 209.3 338 209.3 332"/>
  <polygon class="st13" points="215.3 332 221.3 332 221.3 338 215.3 338 215.3 332"/>
  <polygon class="st96" points="221.3 332 227.3 332 227.3 338 221.3 338 221.3 332"/>
  <polygon class="st119" points="227.3 332 233.3 332 233.3 338 227.3 338 227.3 332"/>
  <polygon class="st71" points="233.3 332 239.3 332 239.3 338 233.3 338 233.3 332"/>
  <polygon class="st14" points="239.3 332 245.3 332 245.3 338 239.3 338 239.3 332"/>
  <polygon class="st71" points="245.3 332 251.3 332 251.3 338 245.3 338 245.3 332"/>
  <polygon class="st71" points="251.3 332 257.3 332 257.3 338 251.3 338 251.3 332"/>
  <polygon class="st115" points="257.3 332 263.3 332 263.3 338 257.3 338 257.3 332"/>
  <polygon class="st86" points="263.3 332 269.3 332 269.3 338 263.3 338 263.3 332"/>
  <polygon class="st34" points="269.3 332 275.3 332 275.3 338 269.3 338 269.3 332"/>
  <polygon class="st46" points="275.3 332 281.3 332 281.3 338 275.3 338 275.3 332"/>
  <polygon class="st126" points="281.3 332 287.3 332 287.3 338 281.3 338 281.3 332"/>
  <polygon class="st53" points="287.3 332 293.3 332 293.3 338 287.3 338 287.3 332"/>
  <polygon class="st71" points="209.3 341 215.3 341 215.3 347 209.3 347 209.3 341"/>
  <polygon class="st71" points="215.3 341 221.3 341 221.3 347 215.3 347 215.3 341"/>
  <polygon class="st71" points="221.3 341 227.3 341 227.3 347 221.3 347 221.3 341"/>
  <polygon class="st54" points="227.3 341 233.3 341 233.3 347 227.3 347 227.3 341"/>
  <polygon class="st71" points="233.3 341 239.3 341 239.3 347 233.3 347 233.3 341"/>
  <polygon class="st7" points="239.3 341 245.3 341 245.3 347 239.3 347 239.3 341"/>
  <polygon class="st71" points="245.3 341 251.3 341 251.3 347 245.3 347 245.3 341"/>
  <polygon class="st71" points="251.3 341 257.3 341 257.3 347 251.3 347 251.3 341"/>
  <polygon class="st24" points="257.3 341 263.3 341 263.3 347 257.3 347 257.3 341"/>
  <polygon class="st114" points="263.3 341 269.3 341 269.3 347 263.3 347 263.3 341"/>
  <polygon class="st96" points="269.3 341 275.3 341 275.3 347 269.3 347 269.3 341"/>
  <polygon class="st122" points="275.3 341 281.3 341 281.3 347 275.3 347 275.3 341"/>
  <polygon class="st78" points="281.3 341 287.3 341 287.3 347 281.3 347 281.3 341"/>
  <polygon class="st87" points="287.3 341 293.3 341 293.3 347 287.3 347 287.3 341"/>
  <polygon class="st71" points="209.3 377 215.3 377 215.3 383 209.3 383 209.3 377"/>
  <polygon class="st71" points="215.3 377 221.3 377 221.3 383 215.3 383 215.3 377"/>
  <polygon class="st71" points="221.3 377 227.3 377 227.3 383 221.3 383 221.3 377"/>
  <polygon class="st71" points="227.3 377 233.3 377 233.3 383 227.3 383 227.3 377"/>
  <polygon class="st97" points="233.3 377 239.3 377 239.3 383 233.3 383 233.3 377"/>
  <polygon class="st122" points="239.3 377 245.3 377 245.3 383 239.3 383 239.3 377"/>
  <polygon class="st148" points="245.3 377 251.3 377 251.3 383 245.3 383 245.3 377"/>
  <polygon class="st71" points="251.3 377 257.3 377 257.3 383 251.3 383 251.3 377"/>
  <polygon class="st122" points="257.3 377 263.3 377 263.3 383 257.3 383 257.3 377"/>
  <polygon class="st68" points="263.3 377 269.3 377 269.3 383 263.3 383 263.3 377"/>
  <polygon class="st3" points="269.3 377 275.3 377 275.3 383 269.3 383 269.3 377"/>
  <polygon class="st44" points="275.3 377 281.3 377 281.3 383 275.3 383 275.3 377"/>
  <polygon class="st5" points="281.3 377 287.3 377 287.3 383 281.3 383 281.3 377"/>
  <polygon class="st128" points="287.3 377 293.3 377 293.3 383 287.3 383 287.3 377"/>
  <polygon class="st71" points="209.3 365 215.3 365 215.3 371 209.3 371 209.3 365"/>
  <polygon class="st71" points="215.3 365 221.3 365 221.3 371 215.3 371 215.3 365"/>
  <polygon class="st24" points="221.3 365 227.3 365 227.3 371 221.3 371 221.3 365"/>
  <polygon class="st71" points="227.3 365 233.3 365 233.3 371 227.3 371 227.3 365"/>
  <polygon class="st71" points="233.3 365 239.3 365 239.3 371 233.3 371 233.3 365"/>
  <polygon class="st71" points="239.3 365 245.3 365 245.3 371 239.3 371 239.3 365"/>
  <polygon class="st15" points="245.3 365 251.3 365 251.3 371 245.3 371 245.3 365"/>
  <polygon class="st71" points="251.3 365 257.3 365 257.3 371 251.3 371 251.3 365"/>
  <polygon class="st84" points="257.3 365 263.3 365 263.3 371 257.3 371 257.3 365"/>
  <polygon class="st67" points="263.3 365 269.3 365 269.3 371 263.3 371 263.3 365"/>
  <polygon class="st22" points="269.3 365 275.3 365 275.3 371 269.3 371 269.3 365"/>
  <polygon class="st50" points="275.3 365 281.3 365 281.3 371 275.3 371 275.3 365"/>
  <polygon class="st116" points="281.3 365 287.3 365 287.3 371 281.3 371 281.3 365"/>
  <polygon class="st51" points="287.3 365 293.3 365 293.3 371 287.3 371 287.3 365"/>
  <polygon class="st42" points="209.3 353 215.3 353 215.3 359 209.3 359 209.3 353"/>
  <polygon class="st71" points="215.3 353 221.3 353 221.3 359 215.3 359 215.3 353"/>
  <polygon class="st71" points="221.3 353 227.3 353 227.3 359 221.3 359 221.3 353"/>
  <polygon class="st84" points="227.3 353 233.3 353 233.3 359 227.3 359 227.3 353"/>
  <polygon class="st71" points="233.3 353 239.3 353 239.3 359 233.3 359 233.3 353"/>
  <polygon class="st71" points="239.3 353 245.3 353 245.3 359 239.3 359 239.3 353"/>
  <polygon class="st71" points="245.3 353 251.3 353 251.3 359 245.3 359 245.3 353"/>
  <polygon class="st7" points="251.3 353 257.3 353 257.3 359 251.3 359 251.3 353"/>
  <polygon class="st71" points="257.3 353 263.3 353 263.3 359 257.3 359 257.3 353"/>
  <polygon class="st139" points="263.3 353 269.3 353 269.3 359 263.3 359 263.3 353"/>
  <polygon class="st18" points="269.3 353 275.3 353 275.3 359 269.3 359 269.3 353"/>
  <polygon class="st143" points="275.3 353 281.3 353 281.3 359 275.3 359 275.3 353"/>
  <polygon class="st125" points="281.3 353 287.3 353 287.3 359 281.3 359 281.3 353"/>
  <polygon class="st2" points="287.3 353 293.3 353 293.3 359 287.3 359 287.3 353"/>
  <polygon class="st154" points="209.3 383 215.3 383 215.3 389 209.3 389 209.3 383"/>
  <polygon class="st13" points="215.3 383 221.3 383 221.3 389 215.3 389 215.3 383"/>
  <polygon class="st96" points="221.3 383 227.3 383 227.3 389 221.3 389 221.3 383"/>
  <polygon class="st119" points="227.3 383 233.3 383 233.3 389 227.3 389 227.3 383"/>
  <polygon class="st71" points="233.3 383 239.3 383 239.3 389 233.3 389 233.3 383"/>
  <polygon class="st14" points="239.3 383 245.3 383 245.3 389 239.3 389 239.3 383"/>
  <polygon class="st71" points="245.3 383 251.3 383 251.3 389 245.3 389 245.3 383"/>
  <polygon class="st71" points="251.3 383 257.3 383 257.3 389 251.3 389 251.3 383"/>
  <polygon class="st115" points="257.3 383 263.3 383 263.3 389 257.3 389 257.3 383"/>
  <polygon class="st86" points="263.3 383 269.3 383 269.3 389 263.3 389 263.3 383"/>
  <polygon class="st34" points="269.3 383 275.3 383 275.3 389 269.3 389 269.3 383"/>
  <polygon class="st46" points="275.3 383 281.3 383 281.3 389 275.3 389 275.3 383"/>
  <polygon class="st126" points="281.3 383 287.3 383 287.3 389 281.3 389 281.3 383"/>
  <polygon class="st53" points="287.3 383 293.3 383 293.3 389 287.3 389 287.3 383"/>
  <polygon class="st39" points="209.3 359 215.3 359 215.3 365 209.3 365 209.3 359"/>
  <polygon class="st159" points="215.3 359 221.3 359 221.3 365 215.3 365 215.3 359"/>
  <polygon class="st71" points="221.3 359 227.3 359 227.3 365 221.3 365 221.3 359"/>
  <polygon class="st71" points="227.3 359 233.3 359 233.3 365 227.3 365 227.3 359"/>
  <polygon class="st71" points="233.3 359 239.3 359 239.3 365 233.3 365 233.3 359"/>
  <polygon class="st71" points="239.3 359 245.3 359 245.3 365 239.3 365 239.3 359"/>
  <polygon class="st71" points="245.3 359 251.3 359 251.3 365 245.3 365 245.3 359"/>
  <polygon class="st124" points="251.3 359 257.3 359 257.3 365 251.3 365 251.3 359"/>
  <polygon class="st71" points="257.3 359 263.3 359 263.3 365 257.3 365 257.3 359"/>
  <polygon class="st71" points="263.3 359 269.3 359 269.3 365 263.3 365 263.3 359"/>
  <polygon class="st131" points="269.3 359 275.3 359 275.3 365 269.3 365 269.3 359"/>
  <polygon class="st71" points="275.3 359 281.3 359 281.3 365 275.3 365 275.3 359"/>
  <polygon class="st27" points="281.3 359 287.3 359 287.3 365 281.3 365 281.3 359"/>
  <polygon class="st136" points="287.3 359 293.3 359 293.3 365 287.3 365 287.3 359"/>
  <polygon class="st71" points="209.3 371 215.3 371 215.3 377 209.3 377 209.3 371"/>
  <polygon class="st71" points="215.3 371 221.3 371 221.3 377 215.3 377 215.3 371"/>
  <polygon class="st71" points="221.3 371 227.3 371 227.3 377 221.3 377 221.3 371"/>
  <polygon class="st71" points="227.3 371 233.3 371 233.3 377 227.3 377 227.3 371"/>
  <polygon class="st79" points="233.3 371 239.3 371 239.3 377 233.3 377 233.3 371"/>
  <polygon class="st153" points="239.3 371 245.3 371 245.3 377 239.3 377 239.3 371"/>
  <polygon class="st71" points="245.3 371 251.3 371 251.3 377 245.3 377 245.3 371"/>
  <polygon class="st46" points="251.3 371 257.3 371 257.3 377 251.3 377 251.3 371"/>
  <polygon class="st71" points="257.3 371 263.3 371 263.3 377 257.3 377 257.3 371"/>
  <polygon class="st71" points="263.3 371 269.3 371 269.3 377 263.3 377 263.3 371"/>
  <polygon class="st71" points="269.3 371 275.3 371 275.3 377 269.3 377 269.3 371"/>
  <polygon class="st71" points="275.3 371 281.3 371 281.3 377 275.3 377 275.3 371"/>
  <polygon class="st52" points="281.3 371 287.3 371 287.3 377 281.3 377 281.3 371"/>
  <polygon class="st158" points="287.3 371 293.3 371 293.3 377 287.3 377 287.3 371"/>
  <polygon class="st1" points="209.3 347 215.3 347 215.3 353 209.3 353 209.3 347"/>
  <polygon class="st154" points="215.3 347 221.3 347 221.3 353 215.3 353 215.3 347"/>
  <polygon class="st154" points="221.3 347 227.3 347 227.3 353 221.3 353 221.3 347"/>
  <polygon class="st132" points="227.3 347 233.3 347 233.3 353 227.3 353 227.3 347"/>
  <polygon class="st152" points="233.3 347 239.3 347 239.3 353 233.3 353 233.3 347"/>
  <polygon class="st99" points="239.3 347 245.3 347 245.3 353 239.3 353 239.3 347"/>
  <polygon class="st68" points="245.3 347 251.3 347 251.3 353 245.3 353 245.3 347"/>
  <polygon class="st144" points="251.3 347 257.3 347 257.3 353 251.3 353 251.3 347"/>
  <polygon class="st85" points="257.3 347 263.3 347 263.3 353 257.3 353 257.3 347"/>
  <polygon class="st102" points="263.3 347 269.3 347 269.3 353 263.3 353 263.3 347"/>
  <polygon class="st69" points="269.3 347 275.3 347 275.3 353 269.3 353 269.3 347"/>
  <polygon class="st133" points="275.3 347 281.3 347 281.3 353 275.3 353 275.3 347"/>
  <polygon class="st31" points="281.3 347 287.3 347 287.3 353 281.3 353 281.3 347"/>
  <polygon class="st27" points="287.3 347 293.3 347 293.3 353 287.3 353 287.3 347"/>
  <polygon class="st60" points="143.3 272 155.3 272 155.3 338 143.3 338 143.3 272"/>
  <polygon class="st60" points="158.3 272 206.3 272 206.3 338 158.3 338 158.3 272"/>
  <polygon class="st60" points="209.3 272 293.3 272 293.3 338 209.3 338 209.3 272"/>
  <polygon class="st60" points="209.3 340.7 293.3 340.7 293.3 388.7 209.3 388.7 209.3 340.7"/>
  <text class="st61" transform="translate(187.2 54.1)"><tspan x="0" y="0">enrichments</tspan></text>
  <polygon class="st93" points="96.3 61.4 116.3 61.4 116.3 81.4 96.3 81.4 96.3 61.4"/>
  <polygon class="st60" points="96.3 61.4 116.3 61.4 116.3 81.4 96.3 81.4 96.3 61.4"/>
  <text class="st65" transform="translate(102.8 73.4)"><tspan x="0" y="0">0.0</tspan></text>
  <polygon class="st107" points="116.3 61.4 136.3 61.4 136.3 81.4 116.3 81.4 116.3 61.4"/>
  <polygon class="st60" points="116.3 61.4 136.3 61.4 136.3 81.4 116.3 81.4 116.3 61.4"/>
  <text class="st65" transform="translate(122.8 73.4)"><tspan x="0" y="0">0.3</tspan></text>
  <polygon class="st106" points="136.3 61.4 156.3 61.4 156.3 81.4 136.3 81.4 136.3 61.4"/>
  <polygon class="st60" points="136.3 61.4 156.3 61.4 156.3 81.4 136.3 81.4 136.3 61.4"/>
  <text class="st65" transform="translate(142.8 73.4)"><tspan x="0" y="0">0.6</tspan></text>
  <polygon class="st89" points="156.3 61.4 176.3 61.4 176.3 81.4 156.3 81.4 156.3 61.4"/>
  <polygon class="st60" points="156.3 61.4 176.3 61.4 176.3 81.4 156.3 81.4 156.3 61.4"/>
  <text class="st64" transform="translate(162.8 73.4)"><tspan x="0" y="0">0.9</tspan></text>
  <polygon class="st12" points="176.3 61.4 196.3 61.4 196.3 81.4 176.3 81.4 176.3 61.4"/>
  <polygon class="st60" points="176.3 61.4 196.3 61.4 196.3 81.4 176.3 81.4 176.3 61.4"/>
  <text class="st64" transform="translate(182.8 73.4)"><tspan x="0" y="0">1.2</tspan></text>
  <polygon class="st56" points="196.3 61.4 216.3 61.4 216.3 81.4 196.3 81.4 196.3 61.4"/>
  <polygon class="st60" points="196.3 61.4 216.3 61.4 216.3 81.4 196.3 81.4 196.3 61.4"/>
  <text class="st64" transform="translate(202.8 73.4)"><tspan x="0" y="0">1.5</tspan></text>
  <polygon class="st70" points="216.3 61.4 236.3 61.4 236.3 81.4 216.3 81.4 216.3 61.4"/>
  <polygon class="st60" points="216.3 61.4 236.3 61.4 236.3 81.4 216.3 81.4 216.3 61.4"/>
  <text class="st65" transform="translate(222.8 73.4)"><tspan x="0" y="0">1.8</tspan></text>
  <text class="st65" transform="translate(242.8 73.4)"><tspan x="0" y="0">2.1</tspan></text>
  <polygon class="st16" points="256.3 61.4 276.3 61.4 276.3 81.4 256.3 81.4 256.3 61.4"/>
  <polygon class="st60" points="256.3 61.4 276.3 61.4 276.3 81.4 256.3 81.4 256.3 61.4"/>
  <text class="st65" transform="translate(262.8 73.4)"><tspan x="0" y="0">2.4</tspan></text>
  <polygon class="st137" points="276.3 61.4 296.3 61.4 296.3 81.4 276.3 81.4 276.3 61.4"/>
  <polygon class="st60" points="276.3 61.4 296.3 61.4 296.3 81.4 276.3 81.4 276.3 61.4"/>
  <text class="st64" transform="translate(282.8 73.4)"><tspan x="0" y="0">2.7</tspan></text>
  <polygon class="st8" points="296.3 61.4 316.3 61.4 316.3 81.4 296.3 81.4 296.3 61.4"/>
  <polygon class="st60" points="296.3 61.4 316.3 61.4 316.3 81.4 296.3 81.4 296.3 61.4"/>
  <text class="st64" transform="translate(302.8 73.4)"><tspan x="0" y="0">3.0</tspan></text>
  <text class="st61" transform="translate(189.4 114.1)"><tspan x="0" y="0">expression</tspan></text>
  <polygon class="st71" points="96.3 121.4 116.3 121.4 116.3 141.4 96.3 141.4 96.3 121.4"/>
  <polygon class="st60" points="96.3 121.4 116.3 121.4 116.3 141.4 96.3 141.4 96.3 121.4"/>
  <text class="st64" transform="translate(102.8 133.4)"><tspan x="0" y="0">0.0</tspan></text>
  <polygon class="st111" points="116.3 121.4 136.3 121.4 136.3 141.4 116.3 141.4 116.3 121.4"/>
  <polygon class="st60" points="116.3 121.4 136.3 121.4 136.3 141.4 116.3 141.4 116.3 121.4"/>
  <text class="st65" transform="translate(122.8 133.4)"><tspan x="0" y="0">0.6</tspan></text>
  <polygon class="st9" points="136.3 121.4 156.3 121.4 156.3 141.4 136.3 141.4 136.3 121.4"/>
  <polygon class="st60" points="136.3 121.4 156.3 121.4 156.3 141.4 136.3 141.4 136.3 121.4"/>
  <text class="st65" transform="translate(142.8 133.4)"><tspan x="0" y="0">1.2</tspan></text>
  <polygon class="st145" points="156.3 121.4 176.3 121.4 176.3 141.4 156.3 141.4 156.3 121.4"/>
  <polygon class="st60" points="156.3 121.4 176.3 121.4 176.3 141.4 156.3 141.4 156.3 121.4"/>
  <text class="st65" transform="translate(162.8 133.4)"><tspan x="0" y="0">1.8</tspan></text>
  <polygon class="st101" points="176.3 121.4 196.3 121.4 196.3 141.4 176.3 141.4 176.3 121.4"/>
  <polygon class="st60" points="176.3 121.4 196.3 121.4 196.3 141.4 176.3 141.4 176.3 121.4"/>
  <text class="st64" transform="translate(182.8 133.4)"><tspan x="0" y="0">2.4</tspan></text>
  <polygon class="st120" points="196.3 121.4 216.3 121.4 216.3 141.4 196.3 141.4 196.3 121.4"/>
  <polygon class="st60" points="196.3 121.4 216.3 121.4 216.3 141.4 196.3 141.4 196.3 121.4"/>
  <text class="st64" transform="translate(202.8 133.4)"><tspan x="0" y="0">3.0</tspan></text>
  <polygon class="st20" points="216.3 121.4 236.3 121.4 236.3 141.4 216.3 141.4 216.3 121.4"/>
  <polygon class="st60" points="216.3 121.4 236.3 121.4 236.3 141.4 216.3 141.4 216.3 121.4"/>
  <text class="st64" transform="translate(222.8 133.4)"><tspan x="0" y="0">3.6</tspan></text>
  <polygon class="st151" points="236.3 121.4 256.3 121.4 256.3 141.4 236.3 141.4 236.3 121.4"/>
  <polygon class="st60" points="236.3 121.4 256.3 121.4 256.3 141.4 236.3 141.4 236.3 121.4"/>
  <text class="st64" transform="translate(242.8 133.4)"><tspan x="0" y="0">4.2</tspan></text>
  <polygon class="st142" points="256.3 121.4 276.3 121.4 276.3 141.4 256.3 141.4 256.3 121.4"/>
  <polygon class="st60" points="256.3 121.4 276.3 121.4 276.3 141.4 256.3 141.4 256.3 121.4"/>
  <text class="st64" transform="translate(262.8 133.4)"><tspan x="0" y="0">4.8</tspan></text>
  <polygon class="st155" points="276.3 121.4 296.3 121.4 296.3 141.4 276.3 141.4 276.3 121.4"/>
  <polygon class="st60" points="276.3 121.4 296.3 121.4 296.3 141.4 276.3 141.4 276.3 121.4"/>
  <text class="st64" transform="translate(282.8 133.4)"><tspan x="0" y="0">5.4</tspan></text>
  <polygon class="st21" points="296.3 121.4 316.3 121.4 316.3 141.4 296.3 141.4 296.3 121.4"/>
  <polygon class="st60" points="296.3 121.4 316.3 121.4 316.3 141.4 296.3 141.4 296.3 121.4"/>
  <text class="st64" transform="translate(302.8 133.4)"><tspan x="0" y="0">6.0</tspan></text>
  <g>
    <g>
      <polygon class="st81" points="207.3 417.7 227.3 417.7 227.3 437.7 207.3 437.7 207.3 417.7"/>
      <polygon class="st60" points="207.3 417.7 227.3 417.7 227.3 437.7 207.3 437.7 207.3 417.7"/>
    </g>
    <g>
      <polygon class="st89" points="207.3 440.5 227.3 440.5 227.3 460.5 207.3 460.5 207.3 440.5"/>
      <polygon class="st60" points="207.3 440.5 227.3 440.5 227.3 460.5 207.3 460.5 207.3 440.5"/>
    </g>
    <text class="st62" transform="translate(233.3 430.9)"><tspan x="0" y="0">Enriched Regulators</tspan></text>
    <text class="st62" transform="translate(233.3 453.7)"><tspan x="0" y="0">Enriched GO terms</tspan></text>
    <g>
      <polygon class="st17" points="204.3 475.8 217.9 475.8 217.9 489.4 204.3 489.4 204.3 475.8"/>
      <text class="st63" transform="translate(205.3 485.3)"><tspan x="0" y="0">0.0</tspan></text>
      <polygon class="st98" points="217.9 475.8 231.6 475.8 231.6 489.4 217.9 489.4 217.9 475.8"/>
      <polygon class="st76" points="231.6 475.8 245.2 475.8 245.2 489.4 231.6 489.4 231.6 475.8"/>
      <polygon class="st117" points="245.2 475.8 258.8 475.8 258.8 489.4 245.2 489.4 245.2 475.8"/>
      <polygon class="st55" points="258.8 475.8 272.5 475.8 272.5 489.4 258.8 489.4 258.8 475.8"/>
      <polygon class="st150" points="272.5 475.8 286.1 475.8 286.1 489.4 272.5 489.4 272.5 475.8"/>
      <text class="st63" transform="translate(273.5 485.3)"><tspan x="0" y="0">3.0</tspan></text>
      <polygon class="st135" points="286.1 475.8 299.8 475.8 299.8 489.4 286.1 489.4 286.1 475.8"/>
      <polygon class="st77" points="299.8 475.8 313.4 475.8 313.4 489.4 299.8 489.4 299.8 475.8"/>
      <polygon class="st23" points="313.4 475.8 327 475.8 327 489.4 313.4 489.4 313.4 475.8"/>
      <polygon class="st38" points="327 475.8 340.7 475.8 340.7 489.4 327 489.4 327 475.8"/>
      <polygon class="st149" points="340.7 475.8 354.3 475.8 354.3 489.4 340.7 489.4 340.7 475.8"/>
      <text class="st63" transform="translate(341.7 485.3)"><tspan x="0" y="0">6.0</tspan></text>
      <polygon class="st60" points="204.3 475.8 354.3 475.8 354.3 489.4 204.3 489.4 204.3 475.8"/>
    </g>
    <text class="st62" transform="translate(249.3 501.2)"><tspan x="0" y="0">Expression</tspan></text>
  </g>
</svg>