<?xml version="1.0" standalone="no"?><!DOCTYPE svg PUBLIC "-//W3C//DTD SVG 1.1//EN" "http://www.w3.org/Graphics/SVG/1.1/DTD/svg11.dtd">
<svg width="391.7" height="408.7" version="1.1" xmlns="http://www.w3.org/2000/svg">
<text xml:space="preserve" x="147.7" y="157.367" font-family="Arial" font-size="7" text-anchor="end">Bex1</text>
<text xml:space="preserve" x="147.7" y="163.367" font-family="Arial" font-size="7" text-anchor="end">Lsr</text>
<text xml:space="preserve" x="147.7" y="169.367" font-family="Arial" font-size="7" text-anchor="end">Bex4</text>
<text xml:space="preserve" x="147.7" y="175.367" font-family="Arial" font-size="7" text-anchor="end">Spint2</text>
<text xml:space="preserve" x="147.7" y="181.367" font-family="Arial" font-size="7" text-anchor="end">L1td1</text>
<text xml:space="preserve" x="147.7" y="187.367" font-family="Arial" font-size="7" text-anchor="end">Spint1</text>
<text xml:space="preserve" x="147.7" y="193.367" font-family="Arial" font-size="7" text-anchor="end">Epcam</text>
<text xml:space="preserve" x="147.7" y="199.367" font-family="Arial" font-size="7" text-anchor="end">Dsp</text>
<text xml:space="preserve" x="147.7" y="205.367" font-family="Arial" font-size="7" text-anchor="end">Cdh1</text>
<text xml:space="preserve" x="147.7" y="211.367" font-family="Arial" font-size="7" text-anchor="end">Slc2a3</text>
<text xml:space="preserve" x="147.7" y="220.367" font-family="Arial" font-size="7" text-anchor="end">Bex2:2</text>
<text xml:space="preserve" x="147.7" y="226.367" font-family="Arial" font-size="7" text-anchor="end">E2f1_nca:2</text>
<text xml:space="preserve" x="147.7" y="232.367" font-family="Arial" font-size="7" text-anchor="end">Mbd2_nca:2</text>
<text xml:space="preserve" x="147.7" y="238.367" font-family="Arial" font-size="7" text-anchor="end">Nanog:2</text>
<text xml:space="preserve" x="147.7" y="244.367" font-family="Arial" font-size="7" text-anchor="end">Nkx2-3_nca:2</text>
<text xml:space="preserve" x="147.7" y="250.367" font-family="Arial" font-size="7" text-anchor="end">Ovol2:2</text>
<text xml:space="preserve" x="147.7" y="256.367" font-family="Arial" font-size="7" text-anchor="end">Sall4:2</text>
<text xml:space="preserve" x="147.7" y="262.367" font-family="Arial" font-size="7" text-anchor="end">Slc2a1:2</text>
<text xml:space="preserve" x="147.7" y="268.367" font-family="Arial" font-size="7" text-anchor="end">Snai2_nca:2</text>
<text xml:space="preserve" x="157.367" y="147.7" font-family="Arial" font-size="7" transform="rotate(270 157.367 147.7)">Bex2:2</text>
<text xml:space="preserve" x="163.367" y="147.7" font-family="Arial" font-size="7" transform="rotate(270 163.367 147.7)">Nkx2-3_nca:2</text>
<text xml:space="preserve" x="169.367" y="147.7" font-family="Arial" font-size="7" transform="rotate(270 169.367 147.7)">Ovol2:2</text>
<text xml:space="preserve" x="175.367" y="147.7" font-family="Arial" font-size="7" transform="rotate(270 175.367 147.7)">Snai2_nca:2</text>
<text xml:space="preserve" x="181.367" y="147.7" font-family="Arial" font-size="7" transform="rotate(270 181.367 147.7)">Mbd2_nca:2</text>
<text xml:space="preserve" x="187.367" y="147.7" font-family="Arial" font-size="7" transform="rotate(270 187.367 147.7)">Slc2a1:2</text>
<text xml:space="preserve" x="193.367" y="147.7" font-family="Arial" font-size="7" transform="rotate(270 193.367 147.7)">Sall4:2</text>
<text xml:space="preserve" x="199.367" y="147.7" font-family="Arial" font-size="7" transform="rotate(270 199.367 147.7)">Nanog:2</text>
<text xml:space="preserve" x="205.367" y="147.7" font-family="Arial" font-size="7" transform="rotate(270 205.367 147.7)">E2f1_nca:2</text>
<text xml:space="preserve" x="214.367" y="147.7" font-family="Arial" font-size="7" transform="rotate(270 214.367 147.7)">C2</text>
<text xml:space="preserve" x="220.367" y="147.7" font-family="Arial" font-size="7" transform="rotate(270 220.367 147.7)">C7</text>
<text xml:space="preserve" x="226.367" y="147.7" font-family="Arial" font-size="7" transform="rotate(270 226.367 147.7)">C3</text>
<text xml:space="preserve" x="232.367" y="147.7" font-family="Arial" font-size="7" transform="rotate(270 232.367 147.7)">C5</text>
<text xml:space="preserve" x="238.367" y="147.7" font-family="Arial" font-size="7" transform="rotate(270 238.367 147.7)">C12</text>
<text xml:space="preserve" x="244.367" y="147.7" font-family="Arial" font-size="7" transform="rotate(270 244.367 147.7)">C13</text>
<text xml:space="preserve" x="250.367" y="147.7" font-family="Arial" font-size="7" transform="rotate(270 250.367 147.7)">C14</text>
<text xml:space="preserve" x="256.367" y="147.7" font-family="Arial" font-size="7" transform="rotate(270 256.367 147.7)">C11</text>
<text xml:space="preserve" x="262.367" y="147.7" font-family="Arial" font-size="7" transform="rotate(270 262.367 147.7)">C4</text>
<text xml:space="preserve" x="268.367" y="147.7" font-family="Arial" font-size="7" transform="rotate(270 268.367 147.7)">C8</text>
<text xml:space="preserve" x="274.367" y="147.7" font-family="Arial" font-size="7" transform="rotate(270 274.367 147.7)">C6</text>
<text xml:space="preserve" x="280.367" y="147.7" font-family="Arial" font-size="7" transform="rotate(270 280.367 147.7)">C10</text>
<text xml:space="preserve" x="286.367" y="147.7" font-family="Arial" font-size="7" transform="rotate(270 286.367 147.7)">C9</text>
<text xml:space="preserve" x="292.367" y="147.7" font-family="Arial" font-size="7" transform="rotate(270 292.367 147.7)">C1</text>
<polygon points="151.7,151.7 157.7,151.7 157.7,157.7 151.7,157.7" fill="rgb(0,255,255)"/>
<polygon points="157.7,151.7 163.7,151.7 163.7,157.7 157.7,157.7" fill="rgb(0,255,255)"/>
<polygon points="163.7,151.7 169.7,151.7 169.7,157.7 163.7,157.7" fill="rgb(255,255,255)"/>
<polygon points="169.7,151.7 175.7,151.7 175.7,157.7 169.7,157.7" fill="rgb(255,255,255)"/>
<polygon points="175.7,151.7 181.7,151.7 181.7,157.7 175.7,157.7" fill="rgb(0,255,255)"/>
<polygon points="181.7,151.7 187.7,151.7 187.7,157.7 181.7,157.7" fill="rgb(0,255,255)"/>
<polygon points="187.7,151.7 193.7,151.7 193.7,157.7 187.7,157.7" fill="rgb(255,255,255)"/>
<polygon points="193.7,151.7 199.7,151.7 199.7,157.7 193.7,157.7" fill="rgb(255,255,255)"/>
<polygon points="199.7,151.7 205.7,151.7 205.7,157.7 199.7,157.7" fill="rgb(255,255,255)"/>
<polygon points="208.7,151.7 214.7,151.7 214.7,157.7 208.7,157.7" fill="rgb(12,12,255)"/>
<polygon points="214.7,151.7 220.7,151.7 220.7,157.7 214.7,157.7" fill="rgb(21,21,255)"/>
<polygon points="220.7,151.7 226.7,151.7 226.7,157.7 220.7,157.7" fill="rgb(255,252,252)"/>
<polygon points="226.7,151.7 232.7,151.7 232.7,157.7 226.7,157.7" fill="rgb(255,193,193)"/>
<polygon points="232.7,151.7 238.7,151.7 238.7,157.7 232.7,157.7" fill="rgb(255,253,253)"/>
<polygon points="238.7,151.7 244.7,151.7 244.7,157.7 238.7,157.7" fill="rgb(41,41,254)"/>
<polygon points="244.7,151.7 250.7,151.7 250.7,157.7 244.7,157.7" fill="rgb(255,232,232)"/>
<polygon points="250.7,151.7 256.7,151.7 256.7,157.7 250.7,157.7" fill="rgb(255,243,243)"/>
<polygon points="256.7,151.7 262.7,151.7 262.7,157.7 256.7,157.7" fill="rgb(255,242,242)"/>
<polygon points="262.7,151.7 268.7,151.7 268.7,157.7 262.7,157.7" fill="rgb(255,172,172)"/>
<polygon points="268.7,151.7 274.7,151.7 274.7,157.7 268.7,157.7" fill="rgb(255,108,108)"/>
<polygon points="274.7,151.7 280.7,151.7 280.7,157.7 274.7,157.7" fill="rgb(254,212,212)"/>
<polygon points="280.7,151.7 286.7,151.7 286.7,157.7 280.7,157.7" fill="rgb(255,82,82)"/>
<polygon points="286.7,151.7 292.7,151.7 292.7,157.7 286.7,157.7" fill="rgb(255,25,25)"/>
<polygon points="151.7,157.7 157.7,157.7 157.7,163.7 151.7,163.7" fill="rgb(0,255,255)"/>
<polygon points="157.7,157.7 163.7,157.7 163.7,163.7 157.7,163.7" fill="rgb(0,255,255)"/>
<polygon points="163.7,157.7 169.7,157.7 169.7,163.7 163.7,163.7" fill="rgb(255,255,255)"/>
<polygon points="169.7,157.7 175.7,157.7 175.7,163.7 169.7,163.7" fill="rgb(255,255,255)"/>
<polygon points="175.7,157.7 181.7,157.7 181.7,163.7 175.7,163.7" fill="rgb(255,255,255)"/>
<polygon points="181.7,157.7 187.7,157.7 187.7,163.7 181.7,163.7" fill="rgb(255,255,255)"/>
<polygon points="187.7,157.7 193.7,157.7 193.7,163.7 187.7,163.7" fill="rgb(0,255,255)"/>
<polygon points="193.7,157.7 199.7,157.7 199.7,163.7 193.7,163.7" fill="rgb(255,255,255)"/>
<polygon points="199.7,157.7 205.7,157.7 205.7,163.7 199.7,163.7" fill="rgb(255,255,255)"/>
<polygon points="208.7,157.7 214.7,157.7 214.7,163.7 208.7,163.7" fill="rgb(38,38,255)"/>
<polygon points="214.7,157.7 220.7,157.7 220.7,163.7 214.7,163.7" fill="rgb(17,17,255)"/>
<polygon points="220.7,157.7 226.7,157.7 226.7,163.7 220.7,163.7" fill="rgb(19,19,255)"/>
<polygon points="226.7,157.7 232.7,157.7 232.7,163.7 226.7,163.7" fill="rgb(34,34,255)"/>
<polygon points="232.7,157.7 238.7,157.7 238.7,163.7 232.7,163.7" fill="rgb(19,19,255)"/>
<polygon points="238.7,157.7 244.7,157.7 244.7,163.7 238.7,163.7" fill="rgb(28,28,255)"/>
<polygon points="244.7,157.7 250.7,157.7 250.7,163.7 244.7,163.7" fill="rgb(148,148,255)"/>
<polygon points="250.7,157.7 256.7,157.7 256.7,163.7 250.7,163.7" fill="rgb(41,41,255)"/>
<polygon points="256.7,157.7 262.7,157.7 262.7,163.7 256.7,163.7" fill="rgb(33,33,255)"/>
<polygon points="262.7,157.7 268.7,157.7 268.7,163.7 262.7,163.7" fill="rgb(255,249,249)"/>
<polygon points="268.7,157.7 274.7,157.7 274.7,163.7 268.7,163.7" fill="rgb(255,234,234)"/>
<polygon points="274.7,157.7 280.7,157.7 280.7,163.7 274.7,163.7" fill="rgb(255,254,254)"/>
<polygon points="280.7,157.7 286.7,157.7 286.7,163.7 280.7,163.7" fill="rgb(255,224,224)"/>
<polygon points="286.7,157.7 292.7,157.7 292.7,163.7 286.7,163.7" fill="rgb(255,211,211)"/>
<polygon points="151.7,163.7 157.7,163.7 157.7,169.7 151.7,169.7" fill="rgb(0,255,255)"/>
<polygon points="157.7,163.7 163.7,163.7 163.7,169.7 157.7,169.7" fill="rgb(0,255,255)"/>
<polygon points="163.7,163.7 169.7,163.7 169.7,169.7 163.7,169.7" fill="rgb(255,255,255)"/>
<polygon points="169.7,163.7 175.7,163.7 175.7,169.7 169.7,169.7" fill="rgb(255,255,255)"/>
<polygon points="175.7,163.7 181.7,163.7 181.7,169.7 175.7,169.7" fill="rgb(255,255,255)"/>
<polygon points="181.7,163.7 187.7,163.7 187.7,169.7 181.7,169.7" fill="rgb(255,255,255)"/>
<polygon points="187.7,163.7 193.7,163.7 193.7,169.7 187.7,169.7" fill="rgb(255,255,255)"/>
<polygon points="193.7,163.7 199.7,163.7 199.7,169.7 193.7,169.7" fill="rgb(255,255,255)"/>
<polygon points="199.7,163.7 205.7,163.7 205.7,169.7 199.7,169.7" fill="rgb(255,255,255)"/>
<polygon points="208.7,163.7 214.7,163.7 214.7,169.7 208.7,169.7" fill="rgb(6,6,254)"/>
<polygon points="214.7,163.7 220.7,163.7 220.7,169.7 214.7,169.7" fill="rgb(9,9,255)"/>
<polygon points="220.7,163.7 226.7,163.7 226.7,169.7 220.7,169.7" fill="rgb(34,34,255)"/>
<polygon points="226.7,163.7 232.7,163.7 232.7,169.7 226.7,169.7" fill="rgb(196,196,255)"/>
<polygon points="232.7,163.7 238.7,163.7 238.7,169.7 232.7,169.7" fill="rgb(34,34,255)"/>
<polygon points="238.7,163.7 244.7,163.7 244.7,169.7 238.7,169.7" fill="rgb(25,25,255)"/>
<polygon points="244.7,163.7 250.7,163.7 250.7,169.7 244.7,169.7" fill="rgb(255,251,251)"/>
<polygon points="250.7,163.7 256.7,163.7 256.7,169.7 250.7,169.7" fill="rgb(153,153,255)"/>
<polygon points="256.7,163.7 262.7,163.7 262.7,169.7 256.7,169.7" fill="rgb(255,250,250)"/>
<polygon points="262.7,163.7 268.7,163.7 268.7,169.7 262.7,169.7" fill="rgb(255,235,235)"/>
<polygon points="268.7,163.7 274.7,163.7 274.7,169.7 268.7,169.7" fill="rgb(255,214,214)"/>
<polygon points="274.7,163.7 280.7,163.7 280.7,169.7 274.7,169.7" fill="rgb(255,221,221)"/>
<polygon points="280.7,163.7 286.7,163.7 286.7,169.7 280.7,169.7" fill="rgb(255,190,190)"/>
<polygon points="286.7,163.7 292.7,163.7 292.7,169.7 286.7,169.7" fill="rgb(255,183,183)"/>
<polygon points="151.7,169.7 157.7,169.7 157.7,175.7 151.7,175.7" fill="rgb(0,255,255)"/>
<polygon points="157.7,169.7 163.7,169.7 163.7,175.7 157.7,175.7" fill="rgb(255,255,255)"/>
<polygon points="163.7,169.7 169.7,169.7 169.7,175.7 163.7,175.7" fill="rgb(255,255,255)"/>
<polygon points="169.7,169.7 175.7,169.7 175.7,175.7 169.7,175.7" fill="rgb(255,255,255)"/>
<polygon points="175.7,169.7 181.7,169.7 181.7,175.7 175.7,175.7" fill="rgb(255,255,255)"/>
<polygon points="181.7,169.7 187.7,169.7 187.7,175.7 181.7,175.7" fill="rgb(255,255,255)"/>
<polygon points="187.7,169.7 193.7,169.7 193.7,175.7 187.7,175.7" fill="rgb(255,255,255)"/>
<polygon points="193.7,169.7 199.7,169.7 199.7,175.7 193.7,175.7" fill="rgb(0,255,255)"/>
<polygon points="199.7,169.7 205.7,169.7 205.7,175.7 199.7,175.7" fill="rgb(0,255,255)"/>
<polygon points="208.7,169.7 214.7,169.7 214.7,175.7 208.7,175.7" fill="rgb(130,130,255)"/>
<polygon points="214.7,169.7 220.7,169.7 220.7,175.7 214.7,175.7" fill="rgb(106,106,255)"/>
<polygon points="220.7,169.7 226.7,169.7 226.7,175.7 220.7,175.7" fill="rgb(169,169,255)"/>
<polygon points="226.7,169.7 232.7,169.7 232.7,175.7 226.7,175.7" fill="rgb(255,254,254)"/>
<polygon points="232.7,169.7 238.7,169.7 238.7,175.7 232.7,175.7" fill="rgb(116,116,255)"/>
<polygon points="238.7,169.7 244.7,169.7 244.7,175.7 238.7,175.7" fill="rgb(255,247,247)"/>
<polygon points="244.7,169.7 250.7,169.7 250.7,175.7 244.7,175.7" fill="rgb(255,228,228)"/>
<polygon points="250.7,169.7 256.7,169.7 256.7,175.7 250.7,175.7" fill="rgb(255,229,229)"/>
<polygon points="256.7,169.7 262.7,169.7 262.7,175.7 256.7,175.7" fill="rgb(255,232,232)"/>
<polygon points="262.7,169.7 268.7,169.7 268.7,175.7 262.7,175.7" fill="rgb(255,204,204)"/>
<polygon points="268.7,169.7 274.7,169.7 274.7,175.7 268.7,175.7" fill="rgb(255,184,184)"/>
<polygon points="274.7,169.7 280.7,169.7 280.7,175.7 274.7,175.7" fill="rgb(255,208,208)"/>
<polygon points="280.7,169.7 286.7,169.7 286.7,175.7 280.7,175.7" fill="rgb(255,145,145)"/>
<polygon points="286.7,169.7 292.7,169.7 292.7,175.7 286.7,175.7" fill="rgb(255,131,131)"/>
<polygon points="151.7,175.7 157.7,175.7 157.7,181.7 151.7,181.7" fill="rgb(255,255,255)"/>
<polygon points="157.7,175.7 163.7,175.7 163.7,181.7 157.7,181.7" fill="rgb(0,255,255)"/>
<polygon points="163.7,175.7 169.7,175.7 169.7,181.7 163.7,181.7" fill="rgb(255,255,255)"/>
<polygon points="169.7,175.7 175.7,175.7 175.7,181.7 169.7,181.7" fill="rgb(255,255,255)"/>
<polygon points="175.7,175.7 181.7,175.7 181.7,181.7 175.7,181.7" fill="rgb(255,255,255)"/>
<polygon points="181.7,175.7 187.7,175.7 187.7,181.7 181.7,181.7" fill="rgb(255,255,255)"/>
<polygon points="187.7,175.7 193.7,175.7 193.7,181.7 187.7,181.7" fill="rgb(255,255,255)"/>
<polygon points="193.7,175.7 199.7,175.7 199.7,181.7 193.7,181.7" fill="rgb(255,255,255)"/>
<polygon points="199.7,175.7 205.7,175.7 205.7,181.7 199.7,181.7" fill="rgb(0,255,255)"/>
<polygon points="208.7,175.7 214.7,175.7 214.7,181.7 208.7,181.7" fill="rgb(0,0,255)"/>
<polygon points="214.7,175.7 220.7,175.7 220.7,181.7 214.7,181.7" fill="rgb(0,0,255)"/>
<polygon points="220.7,175.7 226.7,175.7 226.7,181.7 220.7,181.7" fill="rgb(254,251,251)"/>
<polygon points="226.7,175.7 232.7,175.7 232.7,181.7 226.7,181.7" fill="rgb(255,225,225)"/>
<polygon points="232.7,175.7 238.7,175.7 238.7,181.7 232.7,181.7" fill="rgb(103,103,255)"/>
<polygon points="238.7,175.7 244.7,175.7 244.7,181.7 238.7,181.7" fill="rgb(90,90,255)"/>
<polygon points="244.7,175.7 250.7,175.7 250.7,181.7 244.7,181.7" fill="rgb(254,230,230)"/>
<polygon points="250.7,175.7 256.7,175.7 256.7,181.7 250.7,181.7" fill="rgb(255,238,238)"/>
<polygon points="256.7,175.7 262.7,175.7 262.7,181.7 256.7,181.7" fill="rgb(255,238,238)"/>
<polygon points="262.7,175.7 268.7,175.7 268.7,181.7 262.7,181.7" fill="rgb(255,197,197)"/>
<polygon points="268.7,175.7 274.7,175.7 274.7,181.7 268.7,181.7" fill="rgb(255,130,130)"/>
<polygon points="274.7,175.7 280.7,175.7 280.7,181.7 274.7,181.7" fill="rgb(255,178,178)"/>
<polygon points="280.7,175.7 286.7,175.7 286.7,181.7 280.7,181.7" fill="rgb(255,136,136)"/>
<polygon points="286.7,175.7 292.7,175.7 292.7,181.7 286.7,181.7" fill="rgb(255,47,47)"/>
<polygon points="151.7,181.7 157.7,181.7 157.7,187.7 151.7,187.7" fill="rgb(255,255,255)"/>
<polygon points="157.7,181.7 163.7,181.7 163.7,187.7 157.7,187.7" fill="rgb(0,255,255)"/>
<polygon points="163.7,181.7 169.7,181.7 169.7,187.7 163.7,187.7" fill="rgb(0,255,255)"/>
<polygon points="169.7,181.7 175.7,181.7 175.7,187.7 169.7,187.7" fill="rgb(255,255,255)"/>
<polygon points="175.7,181.7 181.7,181.7 181.7,187.7 175.7,187.7" fill="rgb(255,255,255)"/>
<polygon points="181.7,181.7 187.7,181.7 187.7,187.7 181.7,187.7" fill="rgb(255,255,255)"/>
<polygon points="187.7,181.7 193.7,181.7 193.7,187.7 187.7,187.7" fill="rgb(255,255,255)"/>
<polygon points="193.7,181.7 199.7,181.7 199.7,187.7 193.7,187.7" fill="rgb(255,255,255)"/>
<polygon points="199.7,181.7 205.7,181.7 205.7,187.7 199.7,187.7" fill="rgb(0,255,255)"/>
<polygon points="208.7,181.7 214.7,181.7 214.7,187.7 208.7,187.7" fill="rgb(24,24,255)"/>
<polygon points="214.7,181.7 220.7,181.7 220.7,187.7 214.7,187.7" fill="rgb(21,21,254)"/>
<polygon points="220.7,181.7 226.7,181.7 226.7,187.7 220.7,187.7" fill="rgb(19,19,255)"/>
<polygon points="226.7,181.7 232.7,181.7 232.7,187.7 226.7,187.7" fill="rgb(42,42,255)"/>
<polygon points="232.7,181.7 238.7,181.7 238.7,187.7 232.7,187.7" fill="rgb(41,41,255)"/>
<polygon points="238.7,181.7 244.7,181.7 244.7,187.7 238.7,187.7" fill="rgb(28,28,255)"/>
<polygon points="244.7,181.7 250.7,181.7 250.7,187.7 244.7,187.7" fill="rgb(255,252,252)"/>
<polygon points="250.7,181.7 256.7,181.7 256.7,187.7 250.7,187.7" fill="rgb(168,168,255)"/>
<polygon points="256.7,181.7 262.7,181.7 262.7,187.7 256.7,187.7" fill="rgb(199,199,255)"/>
<polygon points="262.7,181.7 268.7,181.7 268.7,187.7 262.7,187.7" fill="rgb(255,226,226)"/>
<polygon points="268.7,181.7 274.7,181.7 274.7,187.7 268.7,187.7" fill="rgb(255,211,211)"/>
<polygon points="274.7,181.7 280.7,181.7 280.7,187.7 274.7,187.7" fill="rgb(255,234,234)"/>
<polygon points="280.7,181.7 286.7,181.7 286.7,187.7 280.7,187.7" fill="rgb(255,196,196)"/>
<polygon points="286.7,181.7 292.7,181.7 292.7,187.7 286.7,187.7" fill="rgb(255,218,218)"/>
<polygon points="151.7,187.7 157.7,187.7 157.7,193.7 151.7,193.7" fill="rgb(0,255,255)"/>
<polygon points="157.7,187.7 163.7,187.7 163.7,193.7 157.7,193.7" fill="rgb(0,255,255)"/>
<polygon points="163.7,187.7 169.7,187.7 169.7,193.7 163.7,193.7" fill="rgb(0,255,255)"/>
<polygon points="169.7,187.7 175.7,187.7 175.7,193.7 169.7,193.7" fill="rgb(0,255,255)"/>
<polygon points="175.7,187.7 181.7,187.7 181.7,193.7 175.7,193.7" fill="rgb(0,255,255)"/>
<polygon points="181.7,187.7 187.7,187.7 187.7,193.7 181.7,193.7" fill="rgb(255,255,255)"/>
<polygon points="187.7,187.7 193.7,187.7 193.7,193.7 187.7,193.7" fill="rgb(255,255,255)"/>
<polygon points="193.7,187.7 199.7,187.7 199.7,193.7 193.7,193.7" fill="rgb(0,255,255)"/>
<polygon points="199.7,187.7 205.7,187.7 205.7,193.7 199.7,193.7" fill="rgb(0,255,255)"/>
<polygon points="208.7,187.7 214.7,187.7 214.7,193.7 208.7,193.7" fill="rgb(2,2,255)"/>
<polygon points="214.7,187.7 220.7,187.7 220.7,193.7 214.7,193.7" fill="rgb(25,25,255)"/>
<polygon points="220.7,187.7 226.7,187.7 226.7,193.7 220.7,193.7" fill="rgb(10,10,255)"/>
<polygon points="226.7,187.7 232.7,187.7 232.7,193.7 226.7,193.7" fill="rgb(41,41,255)"/>
<polygon points="232.7,187.7 238.7,187.7 238.7,193.7 232.7,193.7" fill="rgb(13,13,255)"/>
<polygon points="238.7,187.7 244.7,187.7 244.7,193.7 238.7,193.7" fill="rgb(31,31,255)"/>
<polygon points="244.7,187.7 250.7,187.7 250.7,193.7 244.7,193.7" fill="rgb(175,175,255)"/>
<polygon points="250.7,187.7 256.7,187.7 256.7,193.7 250.7,193.7" fill="rgb(66,66,255)"/>
<polygon points="256.7,187.7 262.7,187.7 262.7,193.7 256.7,193.7" fill="rgb(56,56,255)"/>
<polygon points="262.7,187.7 268.7,187.7 268.7,193.7 262.7,193.7" fill="rgb(255,223,223)"/>
<polygon points="268.7,187.7 274.7,187.7 274.7,193.7 268.7,193.7" fill="rgb(255,179,179)"/>
<polygon points="274.7,187.7 280.7,187.7 280.7,193.7 274.7,193.7" fill="rgb(255,238,238)"/>
<polygon points="280.7,187.7 286.7,187.7 286.7,193.7 280.7,193.7" fill="rgb(255,112,112)"/>
<polygon points="286.7,187.7 292.7,187.7 292.7,193.7 286.7,193.7" fill="rgb(255,103,103)"/>
<polygon points="151.7,193.7 157.7,193.7 157.7,199.7 151.7,199.7" fill="rgb(255,255,255)"/>
<polygon points="157.7,193.7 163.7,193.7 163.7,199.7 157.7,199.7" fill="rgb(0,255,255)"/>
<polygon points="163.7,193.7 169.7,193.7 169.7,199.7 163.7,199.7" fill="rgb(0,255,255)"/>
<polygon points="169.7,193.7 175.7,193.7 175.7,199.7 169.7,199.7" fill="rgb(0,255,255)"/>
<polygon points="175.7,193.7 181.7,193.7 181.7,199.7 175.7,199.7" fill="rgb(0,255,255)"/>
<polygon points="181.7,193.7 187.7,193.7 187.7,199.7 181.7,199.7" fill="rgb(0,255,255)"/>
<polygon points="187.7,193.7 193.7,193.7 193.7,199.7 187.7,199.7" fill="rgb(255,255,255)"/>
<polygon points="193.7,193.7 199.7,193.7 199.7,199.7 193.7,199.7" fill="rgb(255,255,255)"/>
<polygon points="199.7,193.7 205.7,193.7 205.7,199.7 199.7,199.7" fill="rgb(255,255,255)"/>
<polygon points="208.7,193.7 214.7,193.7 214.7,199.7 208.7,199.7" fill="rgb(29,29,254)"/>
<polygon points="214.7,193.7 220.7,193.7 220.7,199.7 214.7,199.7" fill="rgb(17,17,255)"/>
<polygon points="220.7,193.7 226.7,193.7 226.7,199.7 220.7,199.7" fill="rgb(188,188,255)"/>
<polygon points="226.7,193.7 232.7,193.7 232.7,199.7 226.7,199.7" fill="rgb(255,238,238)"/>
<polygon points="232.7,193.7 238.7,193.7 238.7,199.7 232.7,199.7" fill="rgb(65,65,255)"/>
<polygon points="238.7,193.7 244.7,193.7 244.7,199.7 238.7,199.7" fill="rgb(138,138,255)"/>
<polygon points="244.7,193.7 250.7,193.7 250.7,199.7 244.7,199.7" fill="rgb(222,222,255)"/>
<polygon points="250.7,193.7 256.7,193.7 256.7,199.7 250.7,199.7" fill="rgb(255,252,252)"/>
<polygon points="256.7,193.7 262.7,193.7 262.7,199.7 256.7,199.7" fill="rgb(178,178,255)"/>
<polygon points="262.7,193.7 268.7,193.7 268.7,199.7 262.7,199.7" fill="rgb(255,212,212)"/>
<polygon points="268.7,193.7 274.7,193.7 274.7,199.7 268.7,199.7" fill="rgb(255,183,183)"/>
<polygon points="274.7,193.7 280.7,193.7 280.7,199.7 274.7,199.7" fill="rgb(255,240,240)"/>
<polygon points="280.7,193.7 286.7,193.7 286.7,199.7 280.7,199.7" fill="rgb(255,194,194)"/>
<polygon points="286.7,193.7 292.7,193.7 292.7,199.7 286.7,199.7" fill="rgb(255,234,234)"/>
<polygon points="151.7,199.7 157.7,199.7 157.7,205.7 151.7,205.7" fill="rgb(255,255,255)"/>
<polygon points="157.7,199.7 163.7,199.7 163.7,205.7 157.7,205.7" fill="rgb(0,255,255)"/>
<polygon points="163.7,199.7 169.7,199.7 169.7,205.7 163.7,205.7" fill="rgb(0,255,255)"/>
<polygon points="169.7,199.7 175.7,199.7 175.7,205.7 169.7,205.7" fill="rgb(0,255,255)"/>
<polygon points="175.7,199.7 181.7,199.7 181.7,205.7 175.7,205.7" fill="rgb(0,255,255)"/>
<polygon points="181.7,199.7 187.7,199.7 187.7,205.7 181.7,205.7" fill="rgb(0,255,255)"/>
<polygon points="187.7,199.7 193.7,199.7 193.7,205.7 187.7,205.7" fill="rgb(0,255,255)"/>
<polygon points="193.7,199.7 199.7,199.7 199.7,205.7 193.7,205.7" fill="rgb(255,255,255)"/>
<polygon points="199.7,199.7 205.7,199.7 205.7,205.7 199.7,205.7" fill="rgb(0,255,255)"/>
<polygon points="208.7,199.7 214.7,199.7 214.7,205.7 208.7,205.7" fill="rgb(8,8,255)"/>
<polygon points="214.7,199.7 220.7,199.7 220.7,205.7 214.7,205.7" fill="rgb(0,0,255)"/>
<polygon points="220.7,199.7 226.7,199.7 226.7,205.7 220.7,205.7" fill="rgb(117,117,255)"/>
<polygon points="226.7,199.7 232.7,199.7 232.7,205.7 226.7,205.7" fill="rgb(255,254,254)"/>
<polygon points="232.7,199.7 238.7,199.7 238.7,205.7 232.7,205.7" fill="rgb(124,124,255)"/>
<polygon points="238.7,199.7 244.7,199.7 244.7,205.7 238.7,205.7" fill="rgb(110,110,255)"/>
<polygon points="244.7,199.7 250.7,199.7 250.7,205.7 244.7,205.7" fill="rgb(255,253,253)"/>
<polygon points="250.7,199.7 256.7,199.7 256.7,205.7 250.7,205.7" fill="rgb(254,251,251)"/>
<polygon points="256.7,199.7 262.7,199.7 262.7,205.7 256.7,205.7" fill="rgb(255,247,247)"/>
<polygon points="262.7,199.7 268.7,199.7 268.7,205.7 262.7,205.7" fill="rgb(255,199,199)"/>
<polygon points="268.7,199.7 274.7,199.7 274.7,205.7 268.7,205.7" fill="rgb(255,157,157)"/>
<polygon points="274.7,199.7 280.7,199.7 280.7,205.7 274.7,205.7" fill="rgb(255,243,243)"/>
<polygon points="280.7,199.7 286.7,199.7 286.7,205.7 280.7,205.7" fill="rgb(254,129,129)"/>
<polygon points="286.7,199.7 292.7,199.7 292.7,205.7 286.7,205.7" fill="rgb(255,44,44)"/>
<polygon points="151.7,205.7 157.7,205.7 157.7,211.7 151.7,211.7" fill="rgb(255,255,255)"/>
<polygon points="157.7,205.7 163.7,205.7 163.7,211.7 157.7,211.7" fill="rgb(255,255,255)"/>
<polygon points="163.7,205.7 169.7,205.7 169.7,211.7 163.7,211.7" fill="rgb(255,255,255)"/>
<polygon points="169.7,205.7 175.7,205.7 175.7,211.7 169.7,211.7" fill="rgb(0,255,255)"/>
<polygon points="175.7,205.7 181.7,205.7 181.7,211.7 175.7,211.7" fill="rgb(0,255,255)"/>
<polygon points="181.7,205.7 187.7,205.7 187.7,211.7 181.7,211.7" fill="rgb(0,255,255)"/>
<polygon points="187.7,205.7 193.7,205.7 193.7,211.7 187.7,211.7" fill="rgb(0,255,255)"/>
<polygon points="193.7,205.7 199.7,205.7 199.7,211.7 193.7,211.7" fill="rgb(0,255,255)"/>
<polygon points="199.7,205.7 205.7,205.7 205.7,211.7 199.7,211.7" fill="rgb(0,255,255)"/>
<polygon points="208.7,205.7 214.7,205.7 214.7,211.7 208.7,211.7" fill="rgb(153,153,255)"/>
<polygon points="214.7,205.7 220.7,205.7 220.7,211.7 214.7,211.7" fill="rgb(139,139,255)"/>
<polygon points="220.7,205.7 226.7,205.7 226.7,211.7 220.7,211.7" fill="rgb(255,242,242)"/>
<polygon points="226.7,205.7 232.7,205.7 232.7,211.7 226.7,211.7" fill="rgb(255,233,233)"/>
<polygon points="232.7,205.7 238.7,205.7 238.7,211.7 232.7,211.7" fill="rgb(130,130,255)"/>
<polygon points="238.7,205.7 244.7,205.7 244.7,211.7 238.7,211.7" fill="rgb(254,239,239)"/>
<polygon points="244.7,205.7 250.7,205.7 250.7,211.7 244.7,211.7" fill="rgb(255,227,227)"/>
<polygon points="250.7,205.7 256.7,205.7 256.7,211.7 250.7,211.7" fill="rgb(255,202,202)"/>
<polygon points="256.7,205.7 262.7,205.7 262.7,211.7 256.7,211.7" fill="rgb(255,218,218)"/>
<polygon points="262.7,205.7 268.7,205.7 268.7,211.7 262.7,211.7" fill="rgb(255,195,195)"/>
<polygon points="268.7,205.7 274.7,205.7 274.7,211.7 268.7,211.7" fill="rgb(255,170,170)"/>
<polygon points="274.7,205.7 280.7,205.7 280.7,211.7 274.7,211.7" fill="rgb(255,193,193)"/>
<polygon points="280.7,205.7 286.7,205.7 286.7,211.7 280.7,211.7" fill="rgb(255,43,43)"/>
<polygon points="286.7,205.7 292.7,205.7 292.7,211.7 286.7,211.7" fill="rgb(255,10,10)"/>
<polygon points="151.7,214.7 157.7,214.7 157.7,220.7 151.7,220.7" fill="rgb(255,255,255)"/>
<polygon points="157.7,214.7 163.7,214.7 163.7,220.7 157.7,220.7" fill="rgb(255,255,255)"/>
<polygon points="163.7,214.7 169.7,214.7 169.7,220.7 163.7,220.7" fill="rgb(255,255,255)"/>
<polygon points="169.7,214.7 175.7,214.7 175.7,220.7 169.7,220.7" fill="rgb(255,255,255)"/>
<polygon points="175.7,214.7 181.7,214.7 181.7,220.7 175.7,220.7" fill="rgb(255,255,255)"/>
<polygon points="181.7,214.7 187.7,214.7 187.7,220.7 181.7,220.7" fill="rgb(255,255,255)"/>
<polygon points="187.7,214.7 193.7,214.7 193.7,220.7 187.7,220.7" fill="rgb(255,255,255)"/>
<polygon points="193.7,214.7 199.7,214.7 199.7,220.7 193.7,220.7" fill="rgb(255,255,255)"/>
<polygon points="199.7,214.7 205.7,214.7 205.7,220.7 199.7,220.7" fill="rgb(255,255,255)"/>
<polygon points="208.7,214.7 214.7,214.7 214.7,220.7 208.7,220.7" fill="rgb(19,19,255)"/>
<polygon points="214.7,214.7 220.7,214.7 220.7,220.7 214.7,220.7" fill="rgb(23,23,255)"/>
<polygon points="220.7,214.7 226.7,214.7 226.7,220.7 220.7,220.7" fill="rgb(161,161,255)"/>
<polygon points="226.7,214.7 232.7,214.7 232.7,220.7 226.7,220.7" fill="rgb(255,251,251)"/>
<polygon points="232.7,214.7 238.7,214.7 238.7,220.7 232.7,220.7" fill="rgb(59,59,255)"/>
<polygon points="238.7,214.7 244.7,214.7 244.7,220.7 238.7,220.7" fill="rgb(14,14,254)"/>
<polygon points="244.7,214.7 250.7,214.7 250.7,220.7 244.7,220.7" fill="rgb(255,245,245)"/>
<polygon points="250.7,214.7 256.7,214.7 256.7,220.7 250.7,220.7" fill="rgb(255,251,251)"/>
<polygon points="256.7,214.7 262.7,214.7 262.7,220.7 256.7,220.7" fill="rgb(255,251,251)"/>
<polygon points="262.7,214.7 268.7,214.7 268.7,220.7 262.7,220.7" fill="rgb(255,220,220)"/>
<polygon points="268.7,214.7 274.7,214.7 274.7,220.7 268.7,220.7" fill="rgb(255,209,209)"/>
<polygon points="274.7,214.7 280.7,214.7 280.7,220.7 274.7,220.7" fill="rgb(255,217,217)"/>
<polygon points="280.7,214.7 286.7,214.7 286.7,220.7 280.7,220.7" fill="rgb(255,199,199)"/>
<polygon points="286.7,214.7 292.7,214.7 292.7,220.7 286.7,220.7" fill="rgb(255,198,198)"/>
<polygon points="151.7,220.7 157.7,220.7 157.7,226.7 151.7,226.7" fill="rgb(255,255,255)"/>
<polygon points="157.7,220.7 163.7,220.7 163.7,226.7 157.7,226.7" fill="rgb(255,255,255)"/>
<polygon points="163.7,220.7 169.7,220.7 169.7,226.7 163.7,226.7" fill="rgb(255,255,255)"/>
<polygon points="169.7,220.7 175.7,220.7 175.7,226.7 169.7,226.7" fill="rgb(255,255,255)"/>
<polygon points="175.7,220.7 181.7,220.7 181.7,226.7 175.7,226.7" fill="rgb(255,255,255)"/>
<polygon points="181.7,220.7 187.7,220.7 187.7,226.7 181.7,226.7" fill="rgb(255,255,255)"/>
<polygon points="187.7,220.7 193.7,220.7 193.7,226.7 187.7,226.7" fill="rgb(255,255,255)"/>
<polygon points="193.7,220.7 199.7,220.7 199.7,226.7 193.7,226.7" fill="rgb(255,255,255)"/>
<polygon points="199.7,220.7 205.7,220.7 205.7,226.7 199.7,226.7" fill="rgb(255,255,255)"/>
<polygon points="208.7,220.7 214.7,220.7 214.7,226.7 208.7,226.7" fill="rgb(255,196,196)"/>
<polygon points="214.7,220.7 220.7,220.7 220.7,226.7 214.7,226.7" fill="rgb(255,179,179)"/>
<polygon points="220.7,220.7 226.7,220.7 226.7,226.7 220.7,226.7" fill="rgb(255,211,211)"/>
<polygon points="226.7,220.7 232.7,220.7 232.7,226.7 226.7,226.7" fill="rgb(255,201,201)"/>
<polygon points="232.7,220.7 238.7,220.7 238.7,226.7 232.7,226.7" fill="rgb(0,0,255)"/>
<polygon points="238.7,220.7 244.7,220.7 244.7,226.7 238.7,226.7" fill="rgb(0,0,255)"/>
<polygon points="244.7,220.7 250.7,220.7 250.7,226.7 244.7,226.7" fill="rgb(0,0,255)"/>
<polygon points="250.7,220.7 256.7,220.7 256.7,226.7 250.7,226.7" fill="rgb(179,179,255)"/>
<polygon points="256.7,220.7 262.7,220.7 262.7,226.7 256.7,226.7" fill="rgb(0,0,255)"/>
<polygon points="262.7,220.7 268.7,220.7 268.7,226.7 262.7,226.7" fill="rgb(0,0,255)"/>
<polygon points="268.7,220.7 274.7,220.7 274.7,226.7 268.7,226.7" fill="rgb(0,0,255)"/>
<polygon points="274.7,220.7 280.7,220.7 280.7,226.7 274.7,226.7" fill="rgb(0,0,255)"/>
<polygon points="280.7,220.7 286.7,220.7 286.7,226.7 280.7,226.7" fill="rgb(0,0,255)"/>
<polygon points="286.7,220.7 292.7,220.7 292.7,226.7 286.7,226.7" fill="rgb(0,0,255)"/>
<polygon points="151.7,226.7 157.7,226.7 157.7,232.7 151.7,232.7" fill="rgb(255,255,255)"/>
<polygon points="157.7,226.7 163.7,226.7 163.7,232.7 157.7,232.7" fill="rgb(255,255,255)"/>
<polygon points="163.7,226.7 169.7,226.7 169.7,232.7 163.7,232.7" fill="rgb(255,255,255)"/>
<polygon points="169.7,226.7 175.7,226.7 175.7,232.7 169.7,232.7" fill="rgb(255,255,255)"/>
<polygon points="175.7,226.7 181.7,226.7 181.7,232.7 175.7,232.7" fill="rgb(255,255,255)"/>
<polygon points="181.7,226.7 187.7,226.7 187.7,232.7 181.7,232.7" fill="rgb(255,255,255)"/>
<polygon points="187.7,226.7 193.7,226.7 193.7,232.7 187.7,232.7" fill="rgb(255,255,255)"/>
<polygon points="193.7,226.7 199.7,226.7 199.7,232.7 193.7,232.7" fill="rgb(255,255,255)"/>
<polygon points="199.7,226.7 205.7,226.7 205.7,232.7 199.7,232.7" fill="rgb(255,255,255)"/>
<polygon points="208.7,226.7 214.7,226.7 214.7,232.7 208.7,232.7" fill="rgb(0,0,255)"/>
<polygon points="214.7,226.7 220.7,226.7 220.7,232.7 214.7,232.7" fill="rgb(0,0,255)"/>
<polygon points="220.7,226.7 226.7,226.7 226.7,232.7 220.7,232.7" fill="rgb(0,0,255)"/>
<polygon points="226.7,226.7 232.7,226.7 232.7,232.7 226.7,232.7" fill="rgb(255,252,252)"/>
<polygon points="232.7,226.7 238.7,226.7 238.7,232.7 232.7,232.7" fill="rgb(0,0,255)"/>
<polygon points="238.7,226.7 244.7,226.7 244.7,232.7 238.7,232.7" fill="rgb(106,106,255)"/>
<polygon points="244.7,226.7 250.7,226.7 250.7,232.7 244.7,232.7" fill="rgb(0,0,255)"/>
<polygon points="250.7,226.7 256.7,226.7 256.7,232.7 250.7,232.7" fill="rgb(0,0,255)"/>
<polygon points="256.7,226.7 262.7,226.7 262.7,232.7 256.7,232.7" fill="rgb(0,0,255)"/>
<polygon points="262.7,226.7 268.7,226.7 268.7,232.7 262.7,232.7" fill="rgb(255,250,250)"/>
<polygon points="268.7,226.7 274.7,226.7 274.7,232.7 268.7,232.7" fill="rgb(254,244,244)"/>
<polygon points="274.7,226.7 280.7,226.7 280.7,232.7 274.7,232.7" fill="rgb(0,0,255)"/>
<polygon points="280.7,226.7 286.7,226.7 286.7,232.7 280.7,232.7" fill="rgb(255,233,233)"/>
<polygon points="286.7,226.7 292.7,226.7 292.7,232.7 286.7,232.7" fill="rgb(255,234,234)"/>
<polygon points="151.7,232.7 157.7,232.7 157.7,238.7 151.7,238.7" fill="rgb(255,255,255)"/>
<polygon points="157.7,232.7 163.7,232.7 163.7,238.7 157.7,238.7" fill="rgb(255,255,255)"/>
<polygon points="163.7,232.7 169.7,232.7 169.7,238.7 163.7,238.7" fill="rgb(255,255,255)"/>
<polygon points="169.7,232.7 175.7,232.7 175.7,238.7 169.7,238.7" fill="rgb(255,255,255)"/>
<polygon points="175.7,232.7 181.7,232.7 181.7,238.7 175.7,238.7" fill="rgb(255,255,255)"/>
<polygon points="181.7,232.7 187.7,232.7 187.7,238.7 181.7,238.7" fill="rgb(255,255,255)"/>
<polygon points="187.7,232.7 193.7,232.7 193.7,238.7 187.7,238.7" fill="rgb(255,255,255)"/>
<polygon points="193.7,232.7 199.7,232.7 199.7,238.7 193.7,238.7" fill="rgb(255,255,255)"/>
<polygon points="199.7,232.7 205.7,232.7 205.7,238.7 199.7,238.7" fill="rgb(255,255,255)"/>
<polygon points="208.7,232.7 214.7,232.7 214.7,238.7 208.7,238.7" fill="rgb(8,8,255)"/>
<polygon points="214.7,232.7 220.7,232.7 220.7,238.7 214.7,238.7" fill="rgb(33,33,255)"/>
<polygon points="220.7,232.7 226.7,232.7 226.7,238.7 220.7,238.7" fill="rgb(17,17,255)"/>
<polygon points="226.7,232.7 232.7,232.7 232.7,238.7 226.7,238.7" fill="rgb(31,31,254)"/>
<polygon points="232.7,232.7 238.7,232.7 238.7,238.7 232.7,238.7" fill="rgb(0,0,255)"/>
<polygon points="238.7,232.7 244.7,232.7 244.7,238.7 238.7,238.7" fill="rgb(23,23,255)"/>
<polygon points="244.7,232.7 250.7,232.7 250.7,238.7 244.7,238.7" fill="rgb(0,0,255)"/>
<polygon points="250.7,232.7 256.7,232.7 256.7,238.7 250.7,238.7" fill="rgb(0,0,255)"/>
<polygon points="256.7,232.7 262.7,232.7 262.7,238.7 256.7,238.7" fill="rgb(52,52,255)"/>
<polygon points="262.7,232.7 268.7,232.7 268.7,238.7 262.7,238.7" fill="rgb(154,154,255)"/>
<polygon points="268.7,232.7 274.7,232.7 274.7,238.7 268.7,238.7" fill="rgb(255,228,228)"/>
<polygon points="274.7,232.7 280.7,232.7 280.7,238.7 274.7,238.7" fill="rgb(255,253,253)"/>
<polygon points="280.7,232.7 286.7,232.7 286.7,238.7 280.7,238.7" fill="rgb(255,114,114)"/>
<polygon points="286.7,232.7 292.7,232.7 292.7,238.7 286.7,238.7" fill="rgb(255,98,98)"/>
<polygon points="151.7,238.7 157.7,238.7 157.7,244.7 151.7,244.7" fill="rgb(255,255,255)"/>
<polygon points="157.7,238.7 163.7,238.7 163.7,244.7 157.7,244.7" fill="rgb(255,255,255)"/>
<polygon points="163.7,238.7 169.7,238.7 169.7,244.7 163.7,244.7" fill="rgb(255,255,255)"/>
<polygon points="169.7,238.7 175.7,238.7 175.7,244.7 169.7,244.7" fill="rgb(255,255,255)"/>
<polygon points="175.7,238.7 181.7,238.7 181.7,244.7 175.7,244.7" fill="rgb(255,255,255)"/>
<polygon points="181.7,238.7 187.7,238.7 187.7,244.7 181.7,244.7" fill="rgb(255,255,255)"/>
<polygon points="187.7,238.7 193.7,238.7 193.7,244.7 187.7,244.7" fill="rgb(255,255,255)"/>
<polygon points="193.7,238.7 199.7,238.7 199.7,244.7 193.7,244.7" fill="rgb(255,255,255)"/>
<polygon points="199.7,238.7 205.7,238.7 205.7,244.7 199.7,244.7" fill="rgb(255,255,255)"/>
<polygon points="208.7,238.7 214.7,238.7 214.7,244.7 208.7,244.7" fill="rgb(255,224,224)"/>
<polygon points="214.7,238.7 220.7,238.7 220.7,244.7 214.7,244.7" fill="rgb(255,225,225)"/>
<polygon points="220.7,238.7 226.7,238.7 226.7,244.7 220.7,244.7" fill="rgb(254,226,226)"/>
<polygon points="226.7,238.7 232.7,238.7 232.7,244.7 226.7,244.7" fill="rgb(0,0,255)"/>
<polygon points="232.7,238.7 238.7,238.7 238.7,244.7 232.7,244.7" fill="rgb(235,235,255)"/>
<polygon points="238.7,238.7 244.7,238.7 244.7,244.7 238.7,244.7" fill="rgb(255,152,152)"/>
<polygon points="244.7,238.7 250.7,238.7 250.7,244.7 244.7,244.7" fill="rgb(0,0,255)"/>
<polygon points="250.7,238.7 256.7,238.7 256.7,244.7 250.7,244.7" fill="rgb(255,199,199)"/>
<polygon points="256.7,238.7 262.7,238.7 262.7,244.7 256.7,244.7" fill="rgb(255,207,207)"/>
<polygon points="262.7,238.7 268.7,238.7 268.7,244.7 262.7,244.7" fill="rgb(0,0,255)"/>
<polygon points="268.7,238.7 274.7,238.7 274.7,244.7 268.7,244.7" fill="rgb(0,0,255)"/>
<polygon points="274.7,238.7 280.7,238.7 280.7,244.7 274.7,244.7" fill="rgb(0,0,255)"/>
<polygon points="280.7,238.7 286.7,238.7 286.7,244.7 280.7,244.7" fill="rgb(0,0,255)"/>
<polygon points="286.7,238.7 292.7,238.7 292.7,244.7 286.7,244.7" fill="rgb(0,0,255)"/>
<polygon points="151.7,244.7 157.7,244.7 157.7,250.7 151.7,250.7" fill="rgb(255,255,255)"/>
<polygon points="157.7,244.7 163.7,244.7 163.7,250.7 157.7,250.7" fill="rgb(255,255,255)"/>
<polygon points="163.7,244.7 169.7,244.7 169.7,250.7 163.7,250.7" fill="rgb(255,255,255)"/>
<polygon points="169.7,244.7 175.7,244.7 175.7,250.7 169.7,250.7" fill="rgb(255,255,255)"/>
<polygon points="175.7,244.7 181.7,244.7 181.7,250.7 175.7,250.7" fill="rgb(255,255,255)"/>
<polygon points="181.7,244.7 187.7,244.7 187.7,250.7 181.7,250.7" fill="rgb(255,255,255)"/>
<polygon points="187.7,244.7 193.7,244.7 193.7,250.7 187.7,250.7" fill="rgb(255,255,255)"/>
<polygon points="193.7,244.7 199.7,244.7 199.7,250.7 193.7,250.7" fill="rgb(255,255,255)"/>
<polygon points="199.7,244.7 205.7,244.7 205.7,250.7 199.7,250.7" fill="rgb(255,255,255)"/>
<polygon points="208.7,244.7 214.7,244.7 214.7,250.7 208.7,250.7" fill="rgb(0,0,255)"/>
<polygon points="214.7,244.7 220.7,244.7 220.7,250.7 214.7,250.7" fill="rgb(0,0,255)"/>
<polygon points="220.7,244.7 226.7,244.7 226.7,250.7 220.7,250.7" fill="rgb(0,0,255)"/>
<polygon points="226.7,244.7 232.7,244.7 232.7,250.7 226.7,250.7" fill="rgb(18,18,254)"/>
<polygon points="232.7,244.7 238.7,244.7 238.7,250.7 232.7,250.7" fill="rgb(0,0,255)"/>
<polygon points="238.7,244.7 244.7,244.7 244.7,250.7 238.7,250.7" fill="rgb(0,0,255)"/>
<polygon points="244.7,244.7 250.7,244.7 250.7,250.7 244.7,250.7" fill="rgb(0,0,255)"/>
<polygon points="250.7,244.7 256.7,244.7 256.7,250.7 250.7,250.7" fill="rgb(0,0,255)"/>
<polygon points="256.7,244.7 262.7,244.7 262.7,250.7 256.7,250.7" fill="rgb(0,0,255)"/>
<polygon points="262.7,244.7 268.7,244.7 268.7,250.7 262.7,250.7" fill="rgb(44,44,255)"/>
<polygon points="268.7,244.7 274.7,244.7 274.7,250.7 268.7,250.7" fill="rgb(132,132,255)"/>
<polygon points="274.7,244.7 280.7,244.7 280.7,250.7 274.7,250.7" fill="rgb(85,85,255)"/>
<polygon points="280.7,244.7 286.7,244.7 286.7,250.7 280.7,250.7" fill="rgb(189,189,255)"/>
<polygon points="286.7,244.7 292.7,244.7 292.7,250.7 286.7,250.7" fill="rgb(255,248,248)"/>
<polygon points="151.7,250.7 157.7,250.7 157.7,256.7 151.7,256.7" fill="rgb(255,255,255)"/>
<polygon points="157.7,250.7 163.7,250.7 163.7,256.7 157.7,256.7" fill="rgb(255,255,255)"/>
<polygon points="163.7,250.7 169.7,250.7 169.7,256.7 163.7,256.7" fill="rgb(255,255,255)"/>
<polygon points="169.7,250.7 175.7,250.7 175.7,256.7 169.7,256.7" fill="rgb(255,255,255)"/>
<polygon points="175.7,250.7 181.7,250.7 181.7,256.7 175.7,256.7" fill="rgb(255,255,255)"/>
<polygon points="181.7,250.7 187.7,250.7 187.7,256.7 181.7,256.7" fill="rgb(255,255,255)"/>
<polygon points="187.7,250.7 193.7,250.7 193.7,256.7 187.7,256.7" fill="rgb(255,255,255)"/>
<polygon points="193.7,250.7 199.7,250.7 199.7,256.7 193.7,256.7" fill="rgb(255,255,255)"/>
<polygon points="199.7,250.7 205.7,250.7 205.7,256.7 199.7,256.7" fill="rgb(255,255,255)"/>
<polygon points="208.7,250.7 214.7,250.7 214.7,256.7 208.7,256.7" fill="rgb(0,0,255)"/>
<polygon points="214.7,250.7 220.7,250.7 220.7,256.7 214.7,256.7" fill="rgb(0,0,255)"/>
<polygon points="220.7,250.7 226.7,250.7 226.7,256.7 220.7,256.7" fill="rgb(0,0,255)"/>
<polygon points="226.7,250.7 232.7,250.7 232.7,256.7 226.7,256.7" fill="rgb(19,19,255)"/>
<polygon points="232.7,250.7 238.7,250.7 238.7,256.7 232.7,256.7" fill="rgb(0,0,255)"/>
<polygon points="238.7,250.7 244.7,250.7 244.7,256.7 238.7,256.7" fill="rgb(37,37,255)"/>
<polygon points="244.7,250.7 250.7,250.7 250.7,256.7 244.7,256.7" fill="rgb(0,0,255)"/>
<polygon points="250.7,250.7 256.7,250.7 256.7,256.7 250.7,256.7" fill="rgb(35,35,254)"/>
<polygon points="256.7,250.7 262.7,250.7 262.7,256.7 256.7,256.7" fill="rgb(15,15,255)"/>
<polygon points="262.7,250.7 268.7,250.7 268.7,256.7 262.7,256.7" fill="rgb(229,229,255)"/>
<polygon points="268.7,250.7 274.7,250.7 274.7,256.7 268.7,256.7" fill="rgb(255,235,235)"/>
<polygon points="274.7,250.7 280.7,250.7 280.7,256.7 274.7,256.7" fill="rgb(165,165,255)"/>
<polygon points="280.7,250.7 286.7,250.7 286.7,256.7 280.7,256.7" fill="rgb(255,189,189)"/>
<polygon points="286.7,250.7 292.7,250.7 292.7,256.7 286.7,256.7" fill="rgb(255,95,95)"/>
<polygon points="151.7,256.7 157.7,256.7 157.7,262.7 151.7,262.7" fill="rgb(255,255,255)"/>
<polygon points="157.7,256.7 163.7,256.7 163.7,262.7 157.7,262.7" fill="rgb(255,255,255)"/>
<polygon points="163.7,256.7 169.7,256.7 169.7,262.7 163.7,262.7" fill="rgb(255,255,255)"/>
<polygon points="169.7,256.7 175.7,256.7 175.7,262.7 169.7,262.7" fill="rgb(255,255,255)"/>
<polygon points="175.7,256.7 181.7,256.7 181.7,262.7 175.7,262.7" fill="rgb(255,255,255)"/>
<polygon points="181.7,256.7 187.7,256.7 187.7,262.7 181.7,262.7" fill="rgb(255,255,255)"/>
<polygon points="187.7,256.7 193.7,256.7 193.7,262.7 187.7,262.7" fill="rgb(255,255,255)"/>
<polygon points="193.7,256.7 199.7,256.7 199.7,262.7 193.7,262.7" fill="rgb(255,255,255)"/>
<polygon points="199.7,256.7 205.7,256.7 205.7,262.7 199.7,262.7" fill="rgb(255,255,255)"/>
<polygon points="208.7,256.7 214.7,256.7 214.7,262.7 208.7,262.7" fill="rgb(255,168,168)"/>
<polygon points="214.7,256.7 220.7,256.7 220.7,262.7 214.7,262.7" fill="rgb(255,171,171)"/>
<polygon points="220.7,256.7 226.7,256.7 226.7,262.7 220.7,262.7" fill="rgb(255,187,187)"/>
<polygon points="226.7,256.7 232.7,256.7 232.7,262.7 226.7,262.7" fill="rgb(255,177,177)"/>
<polygon points="232.7,256.7 238.7,256.7 238.7,262.7 232.7,262.7" fill="rgb(255,214,214)"/>
<polygon points="238.7,256.7 244.7,256.7 244.7,262.7 238.7,262.7" fill="rgb(255,214,214)"/>
<polygon points="244.7,256.7 250.7,256.7 250.7,262.7 244.7,262.7" fill="rgb(255,228,228)"/>
<polygon points="250.7,256.7 256.7,256.7 256.7,262.7 250.7,262.7" fill="rgb(255,199,199)"/>
<polygon points="256.7,256.7 262.7,256.7 262.7,262.7 256.7,262.7" fill="rgb(255,220,220)"/>
<polygon points="262.7,256.7 268.7,256.7 268.7,262.7 262.7,262.7" fill="rgb(255,170,170)"/>
<polygon points="268.7,256.7 274.7,256.7 274.7,262.7 268.7,262.7" fill="rgb(255,160,160)"/>
<polygon points="274.7,256.7 280.7,256.7 280.7,262.7 274.7,262.7" fill="rgb(255,201,201)"/>
<polygon points="280.7,256.7 286.7,256.7 286.7,262.7 280.7,262.7" fill="rgb(255,147,147)"/>
<polygon points="286.7,256.7 292.7,256.7 292.7,262.7 286.7,262.7" fill="rgb(255,48,48)"/>
<polygon points="151.7,262.7 157.7,262.7 157.7,268.7 151.7,268.7" fill="rgb(255,255,255)"/>
<polygon points="157.7,262.7 163.7,262.7 163.7,268.7 157.7,268.7" fill="rgb(255,255,255)"/>
<polygon points="163.7,262.7 169.7,262.7 169.7,268.7 163.7,268.7" fill="rgb(255,255,255)"/>
<polygon points="169.7,262.7 175.7,262.7 175.7,268.7 169.7,268.7" fill="rgb(255,255,255)"/>
<polygon points="175.7,262.7 181.7,262.7 181.7,268.7 175.7,268.7" fill="rgb(255,255,255)"/>
<polygon points="181.7,262.7 187.7,262.7 187.7,268.7 181.7,268.7" fill="rgb(255,255,255)"/>
<polygon points="187.7,262.7 193.7,262.7 193.7,268.7 187.7,268.7" fill="rgb(255,255,255)"/>
<polygon points="193.7,262.7 199.7,262.7 199.7,268.7 193.7,268.7" fill="rgb(255,255,255)"/>
<polygon points="199.7,262.7 205.7,262.7 205.7,268.7 199.7,268.7" fill="rgb(255,255,255)"/>
<polygon points="208.7,262.7 214.7,262.7 214.7,268.7 208.7,268.7" fill="rgb(0,0,255)"/>
<polygon points="214.7,262.7 220.7,262.7 220.7,268.7 214.7,268.7" fill="rgb(0,0,255)"/>
<polygon points="220.7,262.7 226.7,262.7 226.7,268.7 220.7,268.7" fill="rgb(0,0,255)"/>
<polygon points="226.7,262.7 232.7,262.7 232.7,268.7 226.7,268.7" fill="rgb(0,0,255)"/>
<polygon points="232.7,262.7 238.7,262.7 238.7,268.7 232.7,268.7" fill="rgb(130,130,255)"/>
<polygon points="238.7,262.7 244.7,262.7 244.7,268.7 238.7,268.7" fill="rgb(255,247,247)"/>
<polygon points="244.7,262.7 250.7,262.7 250.7,268.7 244.7,268.7" fill="rgb(0,0,255)"/>
<polygon points="250.7,262.7 256.7,262.7 256.7,268.7 250.7,268.7" fill="rgb(255,253,253)"/>
<polygon points="256.7,262.7 262.7,262.7 262.7,268.7 256.7,268.7" fill="rgb(0,0,255)"/>
<polygon points="262.7,262.7 268.7,262.7 268.7,268.7 262.7,268.7" fill="rgb(0,0,255)"/>
<polygon points="268.7,262.7 274.7,262.7 274.7,268.7 268.7,268.7" fill="rgb(0,0,255)"/>
<polygon points="274.7,262.7 280.7,262.7 280.7,268.7 274.7,268.7" fill="rgb(0,0,255)"/>
<polygon points="280.7,262.7 286.7,262.7 286.7,268.7 280.7,268.7" fill="rgb(254,226,226)"/>
<polygon points="286.7,262.7 292.7,262.7 292.7,268.7 286.7,268.7" fill="rgb(255,243,243)"/>
<polygon points="151.7,151.7 205.7,151.7 205.7,211.7 151.7,211.7" fill="none" stroke="black" stroke-width="0.5"/>
<polygon points="208.7,151.7 292.7,151.7 292.7,211.7 208.7,211.7" fill="none" stroke="black" stroke-width="0.5"/>
<polygon points="151.7,214.7 205.7,214.7 205.7,268.7 151.7,268.7" fill="none" stroke="black" stroke-width="0.5"/>
<polygon points="208.7,214.7 292.7,214.7 292.7,268.7 208.7,268.7" fill="none" stroke="black" stroke-width="0.5"/>
<text xml:space="preserve" x="195.85" y="301.367" font-family="Arial" font-size="7" text-anchor="middle">enrichments</text>
<polygon points="85.85,308.7 105.85,308.7 105.85,328.7 85.85,328.7" fill="rgb(255,255,255)"/><polygon points="85.85,308.7 105.85,308.7 105.85,328.7 85.85,328.7" fill="none" stroke="black" stroke-width="0.5"/><text xml:space="preserve" x="95.85" y="320.7" font-family="Arial" font-size="5" fill="rgb(0,0,0)" text-anchor="middle">0.0</text>
<polygon points="105.85,308.7 125.85,308.7 125.85,328.7 105.85,328.7" fill="rgb(216,178,216)"/><polygon points="105.85,308.7 125.85,308.7 125.85,328.7 105.85,328.7" fill="none" stroke="black" stroke-width="0.5"/><text xml:space="preserve" x="115.85" y="320.7" font-family="Arial" font-size="5" fill="rgb(0,0,0)" text-anchor="middle">0.3</text>
<polygon points="125.85,308.7 145.85,308.7 145.85,328.7 125.85,328.7" fill="rgb(178,102,178)"/><polygon points="125.85,308.7 145.85,308.7 145.85,328.7 125.85,328.7" fill="none" stroke="black" stroke-width="0.5"/><text xml:space="preserve" x="135.85" y="320.7" font-family="Arial" font-size="5" fill="rgb(0,0,0)" text-anchor="middle">0.6</text>
<polygon points="145.85,308.7 165.85,308.7 165.85,328.7 145.85,328.7" fill="rgb(140,25,140)"/><polygon points="145.85,308.7 165.85,308.7 165.85,328.7 145.85,328.7" fill="none" stroke="black" stroke-width="0.5"/><text xml:space="preserve" x="155.85" y="320.7" font-family="Arial" font-size="5" fill="rgb(255,255,255)" text-anchor="middle">0.9</text>
<polygon points="165.85,308.7 185.85,308.7 185.85,328.7 165.85,328.7" fill="rgb(102,50,153)"/><polygon points="165.85,308.7 185.85,308.7 185.85,328.7 165.85,328.7" fill="none" stroke="black" stroke-width="0.5"/><text xml:space="preserve" x="175.85" y="320.7" font-family="Arial" font-size="5" fill="rgb(255,255,255)" text-anchor="middle">1.2</text>
<polygon points="185.85,308.7 205.85,308.7 205.85,328.7 185.85,328.7" fill="rgb(64,127,191)"/><polygon points="185.85,308.7 205.85,308.7 205.85,328.7 185.85,328.7" fill="none" stroke="black" stroke-width="0.5"/><text xml:space="preserve" x="195.85" y="320.7" font-family="Arial" font-size="5" fill="rgb(255,255,255)" text-anchor="middle">1.5</text>
<polygon points="205.85,308.7 225.85,308.7 225.85,328.7 205.85,328.7" fill="rgb(25,204,229)"/><polygon points="205.85,308.7 225.85,308.7 225.85,328.7 205.85,328.7" fill="none" stroke="black" stroke-width="0.5"/><text xml:space="preserve" x="215.85" y="320.7" font-family="Arial" font-size="5" fill="rgb(0,0,0)" text-anchor="middle">1.8</text>
<polygon points="225.85,308.7 245.85,308.7 245.85,328.7 225.85,328.7" fill="rgb(0,239,239)"/><polygon points="225.85,308.7 245.85,308.7 245.85,328.7 225.85,328.7" fill="none" stroke="black" stroke-width="0.5"/><text xml:space="preserve" x="235.85" y="320.7" font-family="Arial" font-size="5" fill="rgb(0,0,0)" text-anchor="middle">2.1</text>
<polygon points="245.85,308.7 265.85,308.7 265.85,328.7 245.85,328.7" fill="rgb(0,193,193)"/><polygon points="245.85,308.7 265.85,308.7 265.85,328.7 245.85,328.7" fill="none" stroke="black" stroke-width="0.5"/><text xml:space="preserve" x="255.85" y="320.7" font-family="Arial" font-size="5" fill="rgb(0,0,0)" text-anchor="middle">2.4</text>
<polygon points="265.85,308.7 285.85,308.7 285.85,328.7 265.85,328.7" fill="rgb(0,146,146)"/><polygon points="265.85,308.7 285.85,308.7 285.85,328.7 265.85,328.7" fill="none" stroke="black" stroke-width="0.5"/><text xml:space="preserve" x="275.85" y="320.7" font-family="Arial" font-size="5" fill="rgb(255,255,255)" text-anchor="middle">2.7</text>
<polygon points="285.85,308.7 305.85,308.7 305.85,328.7 285.85,328.7" fill="rgb(0,100,100)"/><polygon points="285.85,308.7 305.85,308.7 305.85,328.7 285.85,328.7" fill="none" stroke="black" stroke-width="0.5"/><text xml:space="preserve" x="295.85" y="320.7" font-family="Arial" font-size="5" fill="rgb(255,255,255)" text-anchor="middle">3.0</text>
<text xml:space="preserve" x="195.85" y="361.367" font-family="Arial" font-size="7" text-anchor="middle">expression</text>
<polygon points="85.85,368.7 105.85,368.7 105.85,388.7 85.85,388.7" fill="rgb(0,0,255)"/><polygon points="85.85,368.7 105.85,368.7 105.85,388.7 85.85,388.7" fill="none" stroke="black" stroke-width="0.5"/><text xml:space="preserve" x="95.85" y="380.7" font-family="Arial" font-size="5" fill="rgb(255,255,255)" text-anchor="middle">0.0</text>
<polygon points="105.85,368.7 125.85,368.7 125.85,388.7 105.85,388.7" fill="rgb(255,211,211)"/><polygon points="105.85,368.7 125.85,368.7 125.85,388.7 105.85,388.7" fill="none" stroke="black" stroke-width="0.5"/><text xml:space="preserve" x="115.85" y="380.7" font-family="Arial" font-size="5" fill="rgb(0,0,0)" text-anchor="middle">0.6</text>
<polygon points="125.85,368.7 145.85,368.7 145.85,388.7 125.85,388.7" fill="rgb(255,158,158)"/><polygon points="125.85,368.7 145.85,368.7 145.85,388.7 125.85,388.7" fill="none" stroke="black" stroke-width="0.5"/><text xml:space="preserve" x="135.85" y="380.7" font-family="Arial" font-size="5" fill="rgb(0,0,0)" text-anchor="middle">1.2</text>
<polygon points="145.85,368.7 165.85,368.7 165.85,388.7 145.85,388.7" fill="rgb(255,105,105)"/><polygon points="145.85,368.7 165.85,368.7 165.85,388.7 145.85,388.7" fill="none" stroke="black" stroke-width="0.5"/><text xml:space="preserve" x="155.85" y="380.7" font-family="Arial" font-size="5" fill="rgb(0,0,0)" text-anchor="middle">1.8</text>
<polygon points="165.85,368.7 185.85,368.7 185.85,388.7 165.85,388.7" fill="rgb(255,52,52)"/><polygon points="165.85,368.7 185.85,368.7 185.85,388.7 165.85,388.7" fill="none" stroke="black" stroke-width="0.5"/><text xml:space="preserve" x="175.85" y="380.7" font-family="Arial" font-size="5" fill="rgb(255,255,255)" text-anchor="middle">2.4</text>
<polygon points="185.85,368.7 205.85,368.7 205.85,388.7 185.85,388.7" fill="rgb(255,0,0)"/><polygon points="185.85,368.7 205.85,368.7 205.85,388.7 185.85,388.7" fill="none" stroke="black" stroke-width="0.5"/><text xml:space="preserve" x="195.85" y="380.7" font-family="Arial" font-size="5" fill="rgb(255,255,255)" text-anchor="middle">3.0</text>
<polygon points="205.85,368.7 225.85,368.7 225.85,388.7 205.85,388.7" fill="rgb(231,0,0)"/><polygon points="205.85,368.7 225.85,368.7 225.85,388.7 205.85,388.7" fill="none" stroke="black" stroke-width="0.5"/><text xml:space="preserve" x="215.85" y="380.7" font-family="Arial" font-size="5" fill="rgb(255,255,255)" text-anchor="middle">3.6</text>
<polygon points="225.85,368.7 245.85,368.7 245.85,388.7 225.85,388.7" fill="rgb(208,0,0)"/><polygon points="225.85,368.7 245.85,368.7 245.85,388.7 225.85,388.7" fill="none" stroke="black" stroke-width="0.5"/><text xml:space="preserve" x="235.85" y="380.7" font-family="Arial" font-size="5" fill="rgb(255,255,255)" text-anchor="middle">4.2</text>
<polygon points="245.85,368.7 265.85,368.7 265.85,388.7 245.85,388.7" fill="rgb(185,0,0)"/><polygon points="245.85,368.7 265.85,368.7 265.85,388.7 245.85,388.7" fill="none" stroke="black" stroke-width="0.5"/><text xml:space="preserve" x="255.85" y="380.7" font-family="Arial" font-size="5" fill="rgb(255,255,255)" text-anchor="middle">4.8</text>
<polygon points="265.85,368.7 285.85,368.7 285.85,388.7 265.85,388.7" fill="rgb(162,0,0)"/><polygon points="265.85,368.7 285.85,368.7 285.85,388.7 265.85,388.7" fill="none" stroke="black" stroke-width="0.5"/><text xml:space="preserve" x="275.85" y="380.7" font-family="Arial" font-size="5" fill="rgb(255,255,255)" text-anchor="middle">5.4</text>
<polygon points="285.85,368.7 305.85,368.7 305.85,388.7 285.85,388.7" fill="rgb(139,0,0)"/><polygon points="285.85,368.7 305.85,368.7 305.85,388.7 285.85,388.7" fill="none" stroke="black" stroke-width="0.5"/><text xml:space="preserve" x="295.85" y="380.7" font-family="Arial" font-size="5" fill="rgb(255,255,255)" text-anchor="middle">6.0</text>
</svg>
