<?xml version="1.0" standalone="no"?><!DOCTYPE svg PUBLIC "-//W3C//DTD SVG 1.1//EN" "http://www.w3.org/Graphics/SVG/1.1/DTD/svg11.dtd">
<svg width="382.7" height="737.2" version="1.1" xmlns="http://www.w3.org/2000/svg">
<text xml:space="preserve" x="138.7" y="443.867" font-family="Arial" font-size="7" text-anchor="end">Ifi204</text>
<text xml:space="preserve" x="138.7" y="449.867" font-family="Arial" font-size="7" text-anchor="end">Parp12</text>
<text xml:space="preserve" x="138.7" y="455.867" font-family="Arial" font-size="7" text-anchor="end">Samd9l</text>
<text xml:space="preserve" x="138.7" y="461.867" font-family="Arial" font-size="7" text-anchor="end">Trim30a</text>
<text xml:space="preserve" x="138.7" y="467.867" font-family="Arial" font-size="7" text-anchor="end">Ifi203</text>
<text xml:space="preserve" x="138.7" y="473.867" font-family="Arial" font-size="7" text-anchor="end">Ifi202b</text>
<text xml:space="preserve" x="138.7" y="479.867" font-family="Arial" font-size="7" text-anchor="end">Lgals3bp</text>
<text xml:space="preserve" x="138.7" y="485.867" font-family="Arial" font-size="7" text-anchor="end">Usp18</text>
<text xml:space="preserve" x="138.7" y="491.867" font-family="Arial" font-size="7" text-anchor="end">Rtp4</text>
<text xml:space="preserve" x="138.7" y="497.867" font-family="Arial" font-size="7" text-anchor="end">Stat1</text>
<text xml:space="preserve" x="138.7" y="503.867" font-family="Arial" font-size="7" text-anchor="end">Oasl2</text>
<text xml:space="preserve" x="138.7" y="509.867" font-family="Arial" font-size="7" text-anchor="end">Irf7</text>
<text xml:space="preserve" x="138.7" y="515.867" font-family="Arial" font-size="7" text-anchor="end">Xaf1</text>
<text xml:space="preserve" x="138.7" y="521.867" font-family="Arial" font-size="7" text-anchor="end">Ifit1</text>
<text xml:space="preserve" x="138.7" y="527.867" font-family="Arial" font-size="7" text-anchor="end">Isg15</text>
<text xml:space="preserve" x="138.7" y="533.867" font-family="Arial" font-size="7" text-anchor="end">Ifi44</text>
<text xml:space="preserve" x="138.7" y="539.867" font-family="Arial" font-size="7" text-anchor="end">Irgm1</text>
<text xml:space="preserve" x="138.7" y="545.867" font-family="Arial" font-size="7" text-anchor="end">Lgals9</text>
<text xml:space="preserve" x="138.7" y="554.867" font-family="Arial" font-size="7" text-anchor="end">Bach1_nca:2</text>
<text xml:space="preserve" x="138.7" y="560.867" font-family="Arial" font-size="7" text-anchor="end">Csda_nca:2</text>
<text xml:space="preserve" x="138.7" y="566.867" font-family="Arial" font-size="7" text-anchor="end">Foxc1_nca:2</text>
<text xml:space="preserve" x="138.7" y="572.867" font-family="Arial" font-size="7" text-anchor="end">Ifi204:2</text>
<text xml:space="preserve" x="138.7" y="578.867" font-family="Arial" font-size="7" text-anchor="end">Irf7:2</text>
<text xml:space="preserve" x="138.7" y="584.867" font-family="Arial" font-size="7" text-anchor="end">Nr1i2_nca:2</text>
<text xml:space="preserve" x="138.7" y="590.867" font-family="Arial" font-size="7" text-anchor="end">Stat1:2</text>
<text xml:space="preserve" x="138.7" y="596.867" font-family="Arial" font-size="7" text-anchor="end">Zic3_nca:2</text>
<text xml:space="preserve" x="148.367" y="434.2" font-family="Arial" font-size="7" transform="rotate(270 148.367 434.2)">cellular_response_to_interferon-beta:1</text>
<text xml:space="preserve" x="154.367" y="434.2" font-family="Arial" font-size="7" transform="rotate(270 154.367 434.2)">response_to_interferon-beta:1</text>
<text xml:space="preserve" x="160.367" y="434.2" font-family="Arial" font-size="7" transform="rotate(270 160.367 434.2)">response_to_cytokine_stimulus:1</text>
<text xml:space="preserve" x="166.367" y="434.2" font-family="Arial" font-size="7" transform="rotate(270 166.367 434.2)">cellular_response_to_cytokine_stimulus:1</text>
<text xml:space="preserve" x="172.367" y="434.2" font-family="Arial" font-size="7" transform="rotate(270 172.367 434.2)">immune_response:1</text>
<text xml:space="preserve" x="178.367" y="434.2" font-family="Arial" font-size="7" transform="rotate(270 178.367 434.2)">innate_immune_response:1</text>
<text xml:space="preserve" x="184.367" y="434.2" font-family="Arial" font-size="7" transform="rotate(270 184.367 434.2)">defense_response:1</text>
<text xml:space="preserve" x="193.367" y="434.2" font-family="Arial" font-size="7" transform="rotate(270 193.367 434.2)">Irf7:2</text>
<text xml:space="preserve" x="199.367" y="434.2" font-family="Arial" font-size="7" transform="rotate(270 199.367 434.2)">Stat1:2</text>
<text xml:space="preserve" x="205.367" y="434.2" font-family="Arial" font-size="7" transform="rotate(270 205.367 434.2)">Ifi204:2</text>
<text xml:space="preserve" x="211.367" y="434.2" font-family="Arial" font-size="7" transform="rotate(270 211.367 434.2)">Csda_nca:2</text>
<text xml:space="preserve" x="217.367" y="434.2" font-family="Arial" font-size="7" transform="rotate(270 217.367 434.2)">Bach1_nca:2</text>
<text xml:space="preserve" x="223.367" y="434.2" font-family="Arial" font-size="7" transform="rotate(270 223.367 434.2)">Nr1i2_nca:2</text>
<text xml:space="preserve" x="229.367" y="434.2" font-family="Arial" font-size="7" transform="rotate(270 229.367 434.2)">Foxc1_nca:2</text>
<text xml:space="preserve" x="235.367" y="434.2" font-family="Arial" font-size="7" transform="rotate(270 235.367 434.2)">Zic3_nca:2</text>
<text xml:space="preserve" x="244.367" y="434.2" font-family="Arial" font-size="7" transform="rotate(270 244.367 434.2)">C2</text>
<text xml:space="preserve" x="250.367" y="434.2" font-family="Arial" font-size="7" transform="rotate(270 250.367 434.2)">C7</text>
<text xml:space="preserve" x="256.367" y="434.2" font-family="Arial" font-size="7" transform="rotate(270 256.367 434.2)">C3</text>
<text xml:space="preserve" x="262.367" y="434.2" font-family="Arial" font-size="7" transform="rotate(270 262.367 434.2)">C5</text>
<text xml:space="preserve" x="268.367" y="434.2" font-family="Arial" font-size="7" transform="rotate(270 268.367 434.2)">C12</text>
<text xml:space="preserve" x="274.367" y="434.2" font-family="Arial" font-size="7" transform="rotate(270 274.367 434.2)">C13</text>
<text xml:space="preserve" x="280.367" y="434.2" font-family="Arial" font-size="7" transform="rotate(270 280.367 434.2)">C14</text>
<text xml:space="preserve" x="286.367" y="434.2" font-family="Arial" font-size="7" transform="rotate(270 286.367 434.2)">C11</text>
<text xml:space="preserve" x="292.367" y="434.2" font-family="Arial" font-size="7" transform="rotate(270 292.367 434.2)">C4</text>
<text xml:space="preserve" x="298.367" y="434.2" font-family="Arial" font-size="7" transform="rotate(270 298.367 434.2)">C8</text>
<text xml:space="preserve" x="304.367" y="434.2" font-family="Arial" font-size="7" transform="rotate(270 304.367 434.2)">C6</text>
<text xml:space="preserve" x="310.367" y="434.2" font-family="Arial" font-size="7" transform="rotate(270 310.367 434.2)">C10</text>
<text xml:space="preserve" x="316.367" y="434.2" font-family="Arial" font-size="7" transform="rotate(270 316.367 434.2)">C9</text>
<text xml:space="preserve" x="322.367" y="434.2" font-family="Arial" font-size="7" transform="rotate(270 322.367 434.2)">C1</text>
<polygon points="142.7,438.2 148.7,438.2 148.7,444.2 142.7,444.2" fill="rgb(128,0,128)"/>
<polygon points="148.7,438.2 154.7,438.2 154.7,444.2 148.7,444.2" fill="rgb(128,0,128)"/>
<polygon points="154.7,438.2 160.7,438.2 160.7,444.2 154.7,444.2" fill="rgb(128,0,128)"/>
<polygon points="160.7,438.2 166.7,438.2 166.7,444.2 160.7,444.2" fill="rgb(128,0,128)"/>
<polygon points="166.7,438.2 172.7,438.2 172.7,444.2 166.7,444.2" fill="rgb(255,255,255)"/>
<polygon points="172.7,438.2 178.7,438.2 178.7,444.2 172.7,444.2" fill="rgb(255,255,255)"/>
<polygon points="178.7,438.2 184.7,438.2 184.7,444.2 178.7,444.2" fill="rgb(255,255,255)"/>
<polygon points="187.7,438.2 193.7,438.2 193.7,444.2 187.7,444.2" fill="rgb(0,255,255)"/>
<polygon points="193.7,438.2 199.7,438.2 199.7,444.2 193.7,444.2" fill="rgb(0,255,255)"/>
<polygon points="199.7,438.2 205.7,438.2 205.7,444.2 199.7,444.2" fill="rgb(255,255,255)"/>
<polygon points="205.7,438.2 211.7,438.2 211.7,444.2 205.7,444.2" fill="rgb(255,255,255)"/>
<polygon points="211.7,438.2 217.7,438.2 217.7,444.2 211.7,444.2" fill="rgb(0,255,255)"/>
<polygon points="217.7,438.2 223.7,438.2 223.7,444.2 217.7,444.2" fill="rgb(255,255,255)"/>
<polygon points="223.7,438.2 229.7,438.2 229.7,444.2 223.7,444.2" fill="rgb(255,255,255)"/>
<polygon points="229.7,438.2 235.7,438.2 235.7,444.2 229.7,444.2" fill="rgb(255,255,255)"/>
<polygon points="238.7,438.2 244.7,438.2 244.7,444.2 238.7,444.2" fill="rgb(255,234,234)"/>
<polygon points="244.7,438.2 250.7,438.2 250.7,444.2 244.7,444.2" fill="rgb(255,229,229)"/>
<polygon points="250.7,438.2 256.7,438.2 256.7,444.2 250.7,444.2" fill="rgb(254,194,194)"/>
<polygon points="256.7,438.2 262.7,438.2 262.7,444.2 256.7,444.2" fill="rgb(255,210,210)"/>
<polygon points="262.7,438.2 268.7,438.2 268.7,444.2 262.7,444.2" fill="rgb(255,234,234)"/>
<polygon points="268.7,438.2 274.7,438.2 274.7,444.2 268.7,444.2" fill="rgb(255,232,232)"/>
<polygon points="274.7,438.2 280.7,438.2 280.7,444.2 274.7,444.2" fill="rgb(0,0,255)"/>
<polygon points="280.7,438.2 286.7,438.2 286.7,444.2 280.7,444.2" fill="rgb(254,243,243)"/>
<polygon points="286.7,438.2 292.7,438.2 292.7,444.2 286.7,444.2" fill="rgb(216,216,255)"/>
<polygon points="292.7,438.2 298.7,438.2 298.7,444.2 292.7,444.2" fill="rgb(174,174,255)"/>
<polygon points="298.7,438.2 304.7,438.2 304.7,444.2 298.7,444.2" fill="rgb(70,70,255)"/>
<polygon points="304.7,438.2 310.7,438.2 310.7,444.2 304.7,444.2" fill="rgb(10,10,255)"/>
<polygon points="310.7,438.2 316.7,438.2 316.7,444.2 310.7,444.2" fill="rgb(13,13,255)"/>
<polygon points="316.7,438.2 322.7,438.2 322.7,444.2 316.7,444.2" fill="rgb(0,0,255)"/>
<polygon points="142.7,444.2 148.7,444.2 148.7,450.2 142.7,450.2" fill="rgb(255,255,255)"/>
<polygon points="148.7,444.2 154.7,444.2 154.7,450.2 148.7,450.2" fill="rgb(255,255,255)"/>
<polygon points="154.7,444.2 160.7,444.2 160.7,450.2 154.7,450.2" fill="rgb(255,255,255)"/>
<polygon points="160.7,444.2 166.7,444.2 166.7,450.2 160.7,450.2" fill="rgb(255,255,255)"/>
<polygon points="166.7,444.2 172.7,444.2 172.7,450.2 166.7,450.2" fill="rgb(255,255,255)"/>
<polygon points="172.7,444.2 178.7,444.2 178.7,450.2 172.7,450.2" fill="rgb(255,255,255)"/>
<polygon points="178.7,444.2 184.7,444.2 184.7,450.2 178.7,450.2" fill="rgb(255,255,255)"/>
<polygon points="187.7,444.2 193.7,444.2 193.7,450.2 187.7,450.2" fill="rgb(0,255,255)"/>
<polygon points="193.7,444.2 199.7,444.2 199.7,450.2 193.7,450.2" fill="rgb(0,255,255)"/>
<polygon points="199.7,444.2 205.7,444.2 205.7,450.2 199.7,450.2" fill="rgb(255,255,255)"/>
<polygon points="205.7,444.2 211.7,444.2 211.7,450.2 205.7,450.2" fill="rgb(255,255,255)"/>
<polygon points="211.7,444.2 217.7,444.2 217.7,450.2 211.7,450.2" fill="rgb(255,255,255)"/>
<polygon points="217.7,444.2 223.7,444.2 223.7,450.2 217.7,450.2" fill="rgb(255,255,255)"/>
<polygon points="223.7,444.2 229.7,444.2 229.7,450.2 223.7,450.2" fill="rgb(255,255,255)"/>
<polygon points="229.7,444.2 235.7,444.2 235.7,450.2 229.7,450.2" fill="rgb(0,255,255)"/>
<polygon points="238.7,444.2 244.7,444.2 244.7,450.2 238.7,450.2" fill="rgb(255,235,235)"/>
<polygon points="244.7,444.2 250.7,444.2 250.7,450.2 244.7,450.2" fill="rgb(255,232,232)"/>
<polygon points="250.7,444.2 256.7,444.2 256.7,450.2 250.7,450.2" fill="rgb(255,181,181)"/>
<polygon points="256.7,444.2 262.7,444.2 262.7,450.2 256.7,450.2" fill="rgb(255,146,146)"/>
<polygon points="262.7,444.2 268.7,444.2 268.7,450.2 262.7,450.2" fill="rgb(255,237,237)"/>
<polygon points="268.7,444.2 274.7,444.2 274.7,450.2 268.7,450.2" fill="rgb(255,226,226)"/>
<polygon points="274.7,444.2 280.7,444.2 280.7,450.2 274.7,450.2" fill="rgb(255,245,245)"/>
<polygon points="280.7,444.2 286.7,444.2 286.7,450.2 280.7,450.2" fill="rgb(255,217,217)"/>
<polygon points="286.7,444.2 292.7,444.2 292.7,450.2 286.7,450.2" fill="rgb(255,232,232)"/>
<polygon points="292.7,444.2 298.7,444.2 298.7,450.2 292.7,450.2" fill="rgb(255,215,215)"/>
<polygon points="298.7,444.2 304.7,444.2 304.7,450.2 298.7,450.2" fill="rgb(255,216,216)"/>
<polygon points="304.7,444.2 310.7,444.2 310.7,450.2 304.7,450.2" fill="rgb(255,234,234)"/>
<polygon points="310.7,444.2 316.7,444.2 316.7,450.2 310.7,450.2" fill="rgb(255,242,242)"/>
<polygon points="316.7,444.2 322.7,444.2 322.7,450.2 316.7,450.2" fill="rgb(255,222,222)"/>
<polygon points="142.7,450.2 148.7,450.2 148.7,456.2 142.7,456.2" fill="rgb(255,255,255)"/>
<polygon points="148.7,450.2 154.7,450.2 154.7,456.2 148.7,456.2" fill="rgb(255,255,255)"/>
<polygon points="154.7,450.2 160.7,450.2 160.7,456.2 154.7,456.2" fill="rgb(255,255,255)"/>
<polygon points="160.7,450.2 166.7,450.2 166.7,456.2 160.7,456.2" fill="rgb(255,255,255)"/>
<polygon points="166.7,450.2 172.7,450.2 172.7,456.2 166.7,456.2" fill="rgb(255,255,255)"/>
<polygon points="172.7,450.2 178.7,450.2 178.7,456.2 172.7,456.2" fill="rgb(255,255,255)"/>
<polygon points="178.7,450.2 184.7,450.2 184.7,456.2 178.7,456.2" fill="rgb(255,255,255)"/>
<polygon points="187.7,450.2 193.7,450.2 193.7,456.2 187.7,456.2" fill="rgb(0,255,255)"/>
<polygon points="193.7,450.2 199.7,450.2 199.7,456.2 193.7,456.2" fill="rgb(0,255,255)"/>
<polygon points="199.7,450.2 205.7,450.2 205.7,456.2 199.7,456.2" fill="rgb(0,255,255)"/>
<polygon points="205.7,450.2 211.7,450.2 211.7,456.2 205.7,456.2" fill="rgb(255,255,255)"/>
<polygon points="211.7,450.2 217.7,450.2 217.7,456.2 211.7,456.2" fill="rgb(255,255,255)"/>
<polygon points="217.7,450.2 223.7,450.2 223.7,456.2 217.7,456.2" fill="rgb(255,255,255)"/>
<polygon points="223.7,450.2 229.7,450.2 229.7,456.2 223.7,456.2" fill="rgb(255,255,255)"/>
<polygon points="229.7,450.2 235.7,450.2 235.7,456.2 229.7,456.2" fill="rgb(0,255,255)"/>
<polygon points="238.7,450.2 244.7,450.2 244.7,456.2 238.7,456.2" fill="rgb(255,246,246)"/>
<polygon points="244.7,450.2 250.7,450.2 250.7,456.2 244.7,456.2" fill="rgb(255,249,249)"/>
<polygon points="250.7,450.2 256.7,450.2 256.7,456.2 250.7,456.2" fill="rgb(255,207,207)"/>
<polygon points="256.7,450.2 262.7,450.2 262.7,456.2 256.7,456.2" fill="rgb(255,212,212)"/>
<polygon points="262.7,450.2 268.7,450.2 268.7,456.2 262.7,456.2" fill="rgb(255,248,248)"/>
<polygon points="268.7,450.2 274.7,450.2 274.7,456.2 268.7,456.2" fill="rgb(255,248,248)"/>
<polygon points="274.7,450.2 280.7,450.2 280.7,456.2 274.7,456.2" fill="rgb(65,65,254)"/>
<polygon points="280.7,450.2 286.7,450.2 286.7,456.2 280.7,456.2" fill="rgb(255,252,252)"/>
<polygon points="286.7,450.2 292.7,450.2 292.7,456.2 286.7,456.2" fill="rgb(243,243,255)"/>
<polygon points="292.7,450.2 298.7,450.2 298.7,456.2 292.7,456.2" fill="rgb(249,249,255)"/>
<polygon points="298.7,450.2 304.7,450.2 304.7,456.2 298.7,456.2" fill="rgb(80,80,255)"/>
<polygon points="304.7,450.2 310.7,450.2 310.7,456.2 304.7,456.2" fill="rgb(82,82,255)"/>
<polygon points="310.7,450.2 316.7,450.2 316.7,456.2 310.7,456.2" fill="rgb(33,33,255)"/>
<polygon points="316.7,450.2 322.7,450.2 322.7,456.2 316.7,456.2" fill="rgb(100,100,255)"/>
<polygon points="142.7,456.2 148.7,456.2 148.7,462.2 142.7,462.2" fill="rgb(255,255,255)"/>
<polygon points="148.7,456.2 154.7,456.2 154.7,462.2 148.7,462.2" fill="rgb(255,255,255)"/>
<polygon points="154.7,456.2 160.7,456.2 160.7,462.2 154.7,462.2" fill="rgb(255,255,255)"/>
<polygon points="160.7,456.2 166.7,456.2 166.7,462.2 160.7,462.2" fill="rgb(255,255,255)"/>
<polygon points="166.7,456.2 172.7,456.2 172.7,462.2 166.7,462.2" fill="rgb(255,255,255)"/>
<polygon points="172.7,456.2 178.7,456.2 178.7,462.2 172.7,462.2" fill="rgb(255,255,255)"/>
<polygon points="178.7,456.2 184.7,456.2 184.7,462.2 178.7,462.2" fill="rgb(255,255,255)"/>
<polygon points="187.7,456.2 193.7,456.2 193.7,462.2 187.7,462.2" fill="rgb(0,255,255)"/>
<polygon points="193.7,456.2 199.7,456.2 199.7,462.2 193.7,462.2" fill="rgb(0,255,255)"/>
<polygon points="199.7,456.2 205.7,456.2 205.7,462.2 199.7,462.2" fill="rgb(0,255,255)"/>
<polygon points="205.7,456.2 211.7,456.2 211.7,462.2 205.7,462.2" fill="rgb(255,255,255)"/>
<polygon points="211.7,456.2 217.7,456.2 217.7,462.2 211.7,462.2" fill="rgb(255,255,255)"/>
<polygon points="217.7,456.2 223.7,456.2 223.7,462.2 217.7,462.2" fill="rgb(255,255,255)"/>
<polygon points="223.7,456.2 229.7,456.2 229.7,462.2 223.7,462.2" fill="rgb(255,255,255)"/>
<polygon points="229.7,456.2 235.7,456.2 235.7,462.2 229.7,462.2" fill="rgb(255,255,255)"/>
<polygon points="238.7,456.2 244.7,456.2 244.7,462.2 238.7,462.2" fill="rgb(85,85,255)"/>
<polygon points="244.7,456.2 250.7,456.2 250.7,462.2 244.7,462.2" fill="rgb(65,65,255)"/>
<polygon points="250.7,456.2 256.7,456.2 256.7,462.2 250.7,462.2" fill="rgb(255,228,228)"/>
<polygon points="256.7,456.2 262.7,456.2 262.7,462.2 256.7,462.2" fill="rgb(255,218,218)"/>
<polygon points="262.7,456.2 268.7,456.2 268.7,462.2 262.7,462.2" fill="rgb(255,252,252)"/>
<polygon points="268.7,456.2 274.7,456.2 274.7,462.2 268.7,462.2" fill="rgb(142,142,255)"/>
<polygon points="274.7,456.2 280.7,456.2 280.7,462.2 274.7,462.2" fill="rgb(0,0,255)"/>
<polygon points="280.7,456.2 286.7,456.2 286.7,462.2 280.7,462.2" fill="rgb(121,121,255)"/>
<polygon points="286.7,456.2 292.7,456.2 292.7,462.2 286.7,462.2" fill="rgb(51,51,255)"/>
<polygon points="292.7,456.2 298.7,456.2 298.7,462.2 292.7,462.2" fill="rgb(73,73,255)"/>
<polygon points="298.7,456.2 304.7,456.2 304.7,462.2 298.7,462.2" fill="rgb(55,55,255)"/>
<polygon points="304.7,456.2 310.7,456.2 310.7,462.2 304.7,462.2" fill="rgb(0,0,255)"/>
<polygon points="310.7,456.2 316.7,456.2 316.7,462.2 310.7,462.2" fill="rgb(23,23,255)"/>
<polygon points="316.7,456.2 322.7,456.2 322.7,462.2 316.7,462.2" fill="rgb(70,70,255)"/>
<polygon points="142.7,462.2 148.7,462.2 148.7,468.2 142.7,468.2" fill="rgb(128,0,128)"/>
<polygon points="148.7,462.2 154.7,462.2 154.7,468.2 148.7,468.2" fill="rgb(128,0,128)"/>
<polygon points="154.7,462.2 160.7,462.2 160.7,468.2 154.7,468.2" fill="rgb(128,0,128)"/>
<polygon points="160.7,462.2 166.7,462.2 166.7,468.2 160.7,468.2" fill="rgb(128,0,128)"/>
<polygon points="166.7,462.2 172.7,462.2 172.7,468.2 166.7,468.2" fill="rgb(255,255,255)"/>
<polygon points="172.7,462.2 178.7,462.2 178.7,468.2 172.7,468.2" fill="rgb(255,255,255)"/>
<polygon points="178.7,462.2 184.7,462.2 184.7,468.2 178.7,468.2" fill="rgb(255,255,255)"/>
<polygon points="187.7,462.2 193.7,462.2 193.7,468.2 187.7,468.2" fill="rgb(0,255,255)"/>
<polygon points="193.7,462.2 199.7,462.2 199.7,468.2 193.7,468.2" fill="rgb(0,255,255)"/>
<polygon points="199.7,462.2 205.7,462.2 205.7,468.2 199.7,468.2" fill="rgb(0,255,255)"/>
<polygon points="205.7,462.2 211.7,462.2 211.7,468.2 205.7,468.2" fill="rgb(255,255,255)"/>
<polygon points="211.7,462.2 217.7,462.2 217.7,468.2 211.7,468.2" fill="rgb(255,255,255)"/>
<polygon points="217.7,462.2 223.7,462.2 223.7,468.2 217.7,468.2" fill="rgb(255,255,255)"/>
<polygon points="223.7,462.2 229.7,462.2 229.7,468.2 223.7,468.2" fill="rgb(255,255,255)"/>
<polygon points="229.7,462.2 235.7,462.2 235.7,468.2 229.7,468.2" fill="rgb(255,255,255)"/>
<polygon points="238.7,462.2 244.7,462.2 244.7,468.2 238.7,468.2" fill="rgb(255,247,247)"/>
<polygon points="244.7,462.2 250.7,462.2 250.7,468.2 244.7,468.2" fill="rgb(255,249,249)"/>
<polygon points="250.7,462.2 256.7,462.2 256.7,468.2 250.7,468.2" fill="rgb(255,198,198)"/>
<polygon points="256.7,462.2 262.7,462.2 262.7,468.2 256.7,468.2" fill="rgb(255,219,219)"/>
<polygon points="262.7,462.2 268.7,462.2 268.7,468.2 262.7,468.2" fill="rgb(255,249,249)"/>
<polygon points="268.7,462.2 274.7,462.2 274.7,468.2 268.7,468.2" fill="rgb(255,240,240)"/>
<polygon points="274.7,462.2 280.7,462.2 280.7,468.2 274.7,468.2" fill="rgb(255,254,254)"/>
<polygon points="280.7,462.2 286.7,462.2 286.7,468.2 280.7,468.2" fill="rgb(255,203,203)"/>
<polygon points="286.7,462.2 292.7,462.2 292.7,468.2 286.7,468.2" fill="rgb(255,237,237)"/>
<polygon points="292.7,462.2 298.7,462.2 298.7,468.2 292.7,468.2" fill="rgb(255,247,247)"/>
<polygon points="298.7,462.2 304.7,462.2 304.7,468.2 298.7,468.2" fill="rgb(241,241,255)"/>
<polygon points="304.7,462.2 310.7,462.2 310.7,468.2 304.7,468.2" fill="rgb(255,254,254)"/>
<polygon points="310.7,462.2 316.7,462.2 316.7,468.2 310.7,468.2" fill="rgb(24,24,255)"/>
<polygon points="316.7,462.2 322.7,462.2 322.7,468.2 316.7,468.2" fill="rgb(0,0,255)"/>
<polygon points="142.7,468.2 148.7,468.2 148.7,474.2 142.7,474.2" fill="rgb(128,0,128)"/>
<polygon points="148.7,468.2 154.7,468.2 154.7,474.2 148.7,474.2" fill="rgb(128,0,128)"/>
<polygon points="154.7,468.2 160.7,468.2 160.7,474.2 154.7,474.2" fill="rgb(128,0,128)"/>
<polygon points="160.7,468.2 166.7,468.2 166.7,474.2 160.7,474.2" fill="rgb(128,0,128)"/>
<polygon points="166.7,468.2 172.7,468.2 172.7,474.2 166.7,474.2" fill="rgb(255,255,255)"/>
<polygon points="172.7,468.2 178.7,468.2 178.7,474.2 172.7,474.2" fill="rgb(255,255,255)"/>
<polygon points="178.7,468.2 184.7,468.2 184.7,474.2 178.7,474.2" fill="rgb(255,255,255)"/>
<polygon points="187.7,468.2 193.7,468.2 193.7,474.2 187.7,474.2" fill="rgb(0,255,255)"/>
<polygon points="193.7,468.2 199.7,468.2 199.7,474.2 193.7,474.2" fill="rgb(0,255,255)"/>
<polygon points="199.7,468.2 205.7,468.2 205.7,474.2 199.7,474.2" fill="rgb(0,255,255)"/>
<polygon points="205.7,468.2 211.7,468.2 211.7,474.2 205.7,474.2" fill="rgb(255,255,255)"/>
<polygon points="211.7,468.2 217.7,468.2 217.7,474.2 211.7,474.2" fill="rgb(255,255,255)"/>
<polygon points="217.7,468.2 223.7,468.2 223.7,474.2 217.7,474.2" fill="rgb(255,255,255)"/>
<polygon points="223.7,468.2 229.7,468.2 229.7,474.2 223.7,474.2" fill="rgb(255,255,255)"/>
<polygon points="229.7,468.2 235.7,468.2 235.7,474.2 229.7,474.2" fill="rgb(255,255,255)"/>
<polygon points="238.7,468.2 244.7,468.2 244.7,474.2 238.7,474.2" fill="rgb(255,222,222)"/>
<polygon points="244.7,468.2 250.7,468.2 250.7,474.2 244.7,474.2" fill="rgb(255,227,227)"/>
<polygon points="250.7,468.2 256.7,468.2 256.7,474.2 250.7,474.2" fill="rgb(255,150,150)"/>
<polygon points="256.7,468.2 262.7,468.2 262.7,474.2 256.7,474.2" fill="rgb(255,204,204)"/>
<polygon points="262.7,468.2 268.7,468.2 268.7,474.2 262.7,474.2" fill="rgb(255,223,223)"/>
<polygon points="268.7,468.2 274.7,468.2 274.7,474.2 268.7,474.2" fill="rgb(255,216,216)"/>
<polygon points="274.7,468.2 280.7,468.2 280.7,474.2 274.7,474.2" fill="rgb(255,252,252)"/>
<polygon points="280.7,468.2 286.7,468.2 286.7,474.2 280.7,474.2" fill="rgb(255,182,182)"/>
<polygon points="286.7,468.2 292.7,468.2 292.7,474.2 286.7,474.2" fill="rgb(255,222,222)"/>
<polygon points="292.7,468.2 298.7,468.2 298.7,474.2 292.7,474.2" fill="rgb(255,246,246)"/>
<polygon points="298.7,468.2 304.7,468.2 304.7,474.2 298.7,474.2" fill="rgb(128,128,255)"/>
<polygon points="304.7,468.2 310.7,468.2 310.7,474.2 304.7,474.2" fill="rgb(169,169,255)"/>
<polygon points="310.7,468.2 316.7,468.2 316.7,474.2 310.7,474.2" fill="rgb(18,18,255)"/>
<polygon points="316.7,468.2 322.7,468.2 322.7,474.2 316.7,474.2" fill="rgb(0,0,255)"/>
<polygon points="142.7,474.2 148.7,474.2 148.7,480.2 142.7,480.2" fill="rgb(255,255,255)"/>
<polygon points="148.7,474.2 154.7,474.2 154.7,480.2 148.7,480.2" fill="rgb(255,255,255)"/>
<polygon points="154.7,474.2 160.7,474.2 160.7,480.2 154.7,480.2" fill="rgb(255,255,255)"/>
<polygon points="160.7,474.2 166.7,474.2 166.7,480.2 160.7,480.2" fill="rgb(255,255,255)"/>
<polygon points="166.7,474.2 172.7,474.2 172.7,480.2 166.7,480.2" fill="rgb(255,255,255)"/>
<polygon points="172.7,474.2 178.7,474.2 178.7,480.2 172.7,480.2" fill="rgb(255,255,255)"/>
<polygon points="178.7,474.2 184.7,474.2 184.7,480.2 178.7,480.2" fill="rgb(255,255,255)"/>
<polygon points="187.7,474.2 193.7,474.2 193.7,480.2 187.7,480.2" fill="rgb(0,255,255)"/>
<polygon points="193.7,474.2 199.7,474.2 199.7,480.2 193.7,480.2" fill="rgb(0,255,255)"/>
<polygon points="199.7,474.2 205.7,474.2 205.7,480.2 199.7,480.2" fill="rgb(0,255,255)"/>
<polygon points="205.7,474.2 211.7,474.2 211.7,480.2 205.7,480.2" fill="rgb(0,255,255)"/>
<polygon points="211.7,474.2 217.7,474.2 217.7,480.2 211.7,480.2" fill="rgb(255,255,255)"/>
<polygon points="217.7,474.2 223.7,474.2 223.7,480.2 217.7,480.2" fill="rgb(255,255,255)"/>
<polygon points="223.7,474.2 229.7,474.2 229.7,480.2 223.7,480.2" fill="rgb(255,255,255)"/>
<polygon points="229.7,474.2 235.7,474.2 235.7,480.2 229.7,480.2" fill="rgb(0,255,255)"/>
<polygon points="238.7,474.2 244.7,474.2 244.7,480.2 238.7,480.2" fill="rgb(255,211,211)"/>
<polygon points="244.7,474.2 250.7,474.2 250.7,480.2 244.7,480.2" fill="rgb(254,220,220)"/>
<polygon points="250.7,474.2 256.7,474.2 256.7,480.2 250.7,480.2" fill="rgb(255,135,135)"/>
<polygon points="256.7,474.2 262.7,474.2 262.7,480.2 256.7,480.2" fill="rgb(255,171,171)"/>
<polygon points="262.7,474.2 268.7,474.2 268.7,480.2 262.7,480.2" fill="rgb(255,195,195)"/>
<polygon points="268.7,474.2 274.7,474.2 274.7,480.2 268.7,480.2" fill="rgb(255,199,199)"/>
<polygon points="274.7,474.2 280.7,474.2 280.7,480.2 274.7,480.2" fill="rgb(255,246,246)"/>
<polygon points="280.7,474.2 286.7,474.2 286.7,480.2 280.7,480.2" fill="rgb(255,208,208)"/>
<polygon points="286.7,474.2 292.7,474.2 292.7,480.2 286.7,480.2" fill="rgb(255,223,223)"/>
<polygon points="292.7,474.2 298.7,474.2 298.7,480.2 292.7,480.2" fill="rgb(255,232,232)"/>
<polygon points="298.7,474.2 304.7,474.2 304.7,480.2 298.7,480.2" fill="rgb(255,250,250)"/>
<polygon points="304.7,474.2 310.7,474.2 310.7,480.2 304.7,480.2" fill="rgb(114,114,255)"/>
<polygon points="310.7,474.2 316.7,474.2 316.7,480.2 310.7,480.2" fill="rgb(152,152,255)"/>
<polygon points="316.7,474.2 322.7,474.2 322.7,480.2 316.7,480.2" fill="rgb(63,63,255)"/>
<polygon points="142.7,480.2 148.7,480.2 148.7,486.2 142.7,486.2" fill="rgb(255,255,255)"/>
<polygon points="148.7,480.2 154.7,480.2 154.7,486.2 148.7,486.2" fill="rgb(255,255,255)"/>
<polygon points="154.7,480.2 160.7,480.2 160.7,486.2 154.7,486.2" fill="rgb(255,255,255)"/>
<polygon points="160.7,480.2 166.7,480.2 166.7,486.2 160.7,486.2" fill="rgb(255,255,255)"/>
<polygon points="166.7,480.2 172.7,480.2 172.7,486.2 166.7,486.2" fill="rgb(255,255,255)"/>
<polygon points="172.7,480.2 178.7,480.2 178.7,486.2 172.7,486.2" fill="rgb(255,255,255)"/>
<polygon points="178.7,480.2 184.7,480.2 184.7,486.2 178.7,486.2" fill="rgb(255,255,255)"/>
<polygon points="187.7,480.2 193.7,480.2 193.7,486.2 187.7,486.2" fill="rgb(0,255,255)"/>
<polygon points="193.7,480.2 199.7,480.2 199.7,486.2 193.7,486.2" fill="rgb(0,255,255)"/>
<polygon points="199.7,480.2 205.7,480.2 205.7,486.2 199.7,486.2" fill="rgb(0,255,255)"/>
<polygon points="205.7,480.2 211.7,480.2 211.7,486.2 205.7,486.2" fill="rgb(0,255,255)"/>
<polygon points="211.7,480.2 217.7,480.2 217.7,486.2 211.7,486.2" fill="rgb(255,255,255)"/>
<polygon points="217.7,480.2 223.7,480.2 223.7,486.2 217.7,486.2" fill="rgb(255,255,255)"/>
<polygon points="223.7,480.2 229.7,480.2 229.7,486.2 223.7,486.2" fill="rgb(255,255,255)"/>
<polygon points="229.7,480.2 235.7,480.2 235.7,486.2 229.7,486.2" fill="rgb(0,255,255)"/>
<polygon points="238.7,480.2 244.7,480.2 244.7,486.2 238.7,486.2" fill="rgb(151,151,255)"/>
<polygon points="244.7,480.2 250.7,480.2 250.7,486.2 244.7,486.2" fill="rgb(61,61,255)"/>
<polygon points="250.7,480.2 256.7,480.2 256.7,486.2 250.7,486.2" fill="rgb(255,190,190)"/>
<polygon points="256.7,480.2 262.7,480.2 262.7,486.2 256.7,486.2" fill="rgb(254,170,170)"/>
<polygon points="262.7,480.2 268.7,480.2 268.7,486.2 262.7,486.2" fill="rgb(255,239,239)"/>
<polygon points="268.7,480.2 274.7,480.2 274.7,486.2 268.7,486.2" fill="rgb(140,140,255)"/>
<polygon points="274.7,480.2 280.7,480.2 280.7,486.2 274.7,486.2" fill="rgb(0,0,255)"/>
<polygon points="280.7,480.2 286.7,480.2 286.7,486.2 280.7,486.2" fill="rgb(148,148,255)"/>
<polygon points="286.7,480.2 292.7,480.2 292.7,486.2 286.7,486.2" fill="rgb(75,75,255)"/>
<polygon points="292.7,480.2 298.7,480.2 298.7,486.2 292.7,486.2" fill="rgb(100,100,255)"/>
<polygon points="298.7,480.2 304.7,480.2 304.7,486.2 298.7,486.2" fill="rgb(98,98,255)"/>
<polygon points="304.7,480.2 310.7,480.2 310.7,486.2 304.7,486.2" fill="rgb(0,0,255)"/>
<polygon points="310.7,480.2 316.7,480.2 316.7,486.2 310.7,486.2" fill="rgb(20,20,255)"/>
<polygon points="316.7,480.2 322.7,480.2 322.7,486.2 316.7,486.2" fill="rgb(255,251,251)"/>
<polygon points="142.7,486.2 148.7,486.2 148.7,492.2 142.7,492.2" fill="rgb(255,255,255)"/>
<polygon points="148.7,486.2 154.7,486.2 154.7,492.2 148.7,492.2" fill="rgb(255,255,255)"/>
<polygon points="154.7,486.2 160.7,486.2 160.7,492.2 154.7,492.2" fill="rgb(255,255,255)"/>
<polygon points="160.7,486.2 166.7,486.2 166.7,492.2 160.7,492.2" fill="rgb(255,255,255)"/>
<polygon points="166.7,486.2 172.7,486.2 172.7,492.2 166.7,492.2" fill="rgb(255,255,255)"/>
<polygon points="172.7,486.2 178.7,486.2 178.7,492.2 172.7,492.2" fill="rgb(255,255,255)"/>
<polygon points="178.7,486.2 184.7,486.2 184.7,492.2 178.7,492.2" fill="rgb(255,255,255)"/>
<polygon points="187.7,486.2 193.7,486.2 193.7,492.2 187.7,492.2" fill="rgb(0,255,255)"/>
<polygon points="193.7,486.2 199.7,486.2 199.7,492.2 193.7,492.2" fill="rgb(0,255,255)"/>
<polygon points="199.7,486.2 205.7,486.2 205.7,492.2 199.7,492.2" fill="rgb(0,255,255)"/>
<polygon points="205.7,486.2 211.7,486.2 211.7,492.2 205.7,492.2" fill="rgb(0,255,255)"/>
<polygon points="211.7,486.2 217.7,486.2 217.7,492.2 211.7,492.2" fill="rgb(255,255,255)"/>
<polygon points="217.7,486.2 223.7,486.2 223.7,492.2 217.7,492.2" fill="rgb(255,255,255)"/>
<polygon points="223.7,486.2 229.7,486.2 229.7,492.2 223.7,492.2" fill="rgb(0,255,255)"/>
<polygon points="229.7,486.2 235.7,486.2 235.7,492.2 229.7,492.2" fill="rgb(0,255,255)"/>
<polygon points="238.7,486.2 244.7,486.2 244.7,492.2 238.7,492.2" fill="rgb(175,175,255)"/>
<polygon points="244.7,486.2 250.7,486.2 250.7,492.2 244.7,492.2" fill="rgb(165,165,255)"/>
<polygon points="250.7,486.2 256.7,486.2 256.7,492.2 250.7,492.2" fill="rgb(255,183,183)"/>
<polygon points="256.7,486.2 262.7,486.2 262.7,492.2 256.7,492.2" fill="rgb(255,178,178)"/>
<polygon points="262.7,486.2 268.7,486.2 268.7,492.2 262.7,492.2" fill="rgb(254,243,243)"/>
<polygon points="268.7,486.2 274.7,486.2 274.7,492.2 268.7,492.2" fill="rgb(255,253,253)"/>
<polygon points="274.7,486.2 280.7,486.2 280.7,492.2 274.7,492.2" fill="rgb(29,29,255)"/>
<polygon points="280.7,486.2 286.7,486.2 286.7,492.2 280.7,492.2" fill="rgb(255,254,254)"/>
<polygon points="286.7,486.2 292.7,486.2 292.7,492.2 286.7,492.2" fill="rgb(141,141,255)"/>
<polygon points="292.7,486.2 298.7,486.2 298.7,492.2 292.7,492.2" fill="rgb(174,174,255)"/>
<polygon points="298.7,486.2 304.7,486.2 304.7,492.2 298.7,492.2" fill="rgb(184,184,255)"/>
<polygon points="304.7,486.2 310.7,486.2 310.7,492.2 304.7,492.2" fill="rgb(0,0,255)"/>
<polygon points="310.7,486.2 316.7,486.2 316.7,492.2 310.7,492.2" fill="rgb(58,58,255)"/>
<polygon points="316.7,486.2 322.7,486.2 322.7,492.2 316.7,492.2" fill="rgb(255,246,246)"/>
<polygon points="142.7,492.2 148.7,492.2 148.7,498.2 142.7,498.2" fill="rgb(255,255,255)"/>
<polygon points="148.7,492.2 154.7,492.2 154.7,498.2 148.7,498.2" fill="rgb(255,255,255)"/>
<polygon points="154.7,492.2 160.7,492.2 160.7,498.2 154.7,498.2" fill="rgb(128,0,128)"/>
<polygon points="160.7,492.2 166.7,492.2 166.7,498.2 160.7,498.2" fill="rgb(128,0,128)"/>
<polygon points="166.7,492.2 172.7,492.2 172.7,498.2 166.7,498.2" fill="rgb(128,0,128)"/>
<polygon points="172.7,492.2 178.7,492.2 178.7,498.2 172.7,498.2" fill="rgb(128,0,128)"/>
<polygon points="178.7,492.2 184.7,492.2 184.7,498.2 178.7,498.2" fill="rgb(128,0,128)"/>
<polygon points="187.7,492.2 193.7,492.2 193.7,498.2 187.7,498.2" fill="rgb(0,255,255)"/>
<polygon points="193.7,492.2 199.7,492.2 199.7,498.2 193.7,498.2" fill="rgb(255,255,255)"/>
<polygon points="199.7,492.2 205.7,492.2 205.7,498.2 199.7,498.2" fill="rgb(0,255,255)"/>
<polygon points="205.7,492.2 211.7,492.2 211.7,498.2 205.7,498.2" fill="rgb(0,255,255)"/>
<polygon points="211.7,492.2 217.7,492.2 217.7,498.2 211.7,498.2" fill="rgb(255,255,255)"/>
<polygon points="217.7,492.2 223.7,492.2 223.7,498.2 217.7,498.2" fill="rgb(255,255,255)"/>
<polygon points="223.7,492.2 229.7,492.2 229.7,498.2 223.7,498.2" fill="rgb(0,255,255)"/>
<polygon points="229.7,492.2 235.7,492.2 235.7,498.2 229.7,498.2" fill="rgb(0,255,255)"/>
<polygon points="238.7,492.2 244.7,492.2 244.7,498.2 238.7,498.2" fill="rgb(255,246,246)"/>
<polygon points="244.7,492.2 250.7,492.2 250.7,498.2 244.7,498.2" fill="rgb(255,244,244)"/>
<polygon points="250.7,492.2 256.7,492.2 256.7,498.2 250.7,498.2" fill="rgb(255,189,189)"/>
<polygon points="256.7,492.2 262.7,492.2 262.7,498.2 256.7,498.2" fill="rgb(255,193,193)"/>
<polygon points="262.7,492.2 268.7,492.2 268.7,498.2 262.7,498.2" fill="rgb(255,246,246)"/>
<polygon points="268.7,492.2 274.7,492.2 274.7,498.2 268.7,498.2" fill="rgb(255,246,246)"/>
<polygon points="274.7,492.2 280.7,492.2 280.7,498.2 274.7,498.2" fill="rgb(147,147,255)"/>
<polygon points="280.7,492.2 286.7,492.2 286.7,498.2 280.7,498.2" fill="rgb(255,249,249)"/>
<polygon points="286.7,492.2 292.7,492.2 292.7,498.2 286.7,498.2" fill="rgb(255,251,251)"/>
<polygon points="292.7,492.2 298.7,492.2 298.7,498.2 292.7,498.2" fill="rgb(255,249,249)"/>
<polygon points="298.7,492.2 304.7,492.2 304.7,498.2 298.7,498.2" fill="rgb(255,249,249)"/>
<polygon points="304.7,492.2 310.7,492.2 310.7,498.2 304.7,498.2" fill="rgb(136,136,255)"/>
<polygon points="310.7,492.2 316.7,492.2 316.7,498.2 310.7,498.2" fill="rgb(118,118,255)"/>
<polygon points="316.7,492.2 322.7,492.2 322.7,498.2 316.7,498.2" fill="rgb(255,233,233)"/>
<polygon points="142.7,498.2 148.7,498.2 148.7,504.2 142.7,504.2" fill="rgb(255,255,255)"/>
<polygon points="148.7,498.2 154.7,498.2 154.7,504.2 148.7,504.2" fill="rgb(255,255,255)"/>
<polygon points="154.7,498.2 160.7,498.2 160.7,504.2 154.7,504.2" fill="rgb(255,255,255)"/>
<polygon points="160.7,498.2 166.7,498.2 166.7,504.2 160.7,504.2" fill="rgb(255,255,255)"/>
<polygon points="166.7,498.2 172.7,498.2 172.7,504.2 166.7,504.2" fill="rgb(255,255,255)"/>
<polygon points="172.7,498.2 178.7,498.2 178.7,504.2 172.7,504.2" fill="rgb(255,255,255)"/>
<polygon points="178.7,498.2 184.7,498.2 184.7,504.2 178.7,504.2" fill="rgb(255,255,255)"/>
<polygon points="187.7,498.2 193.7,498.2 193.7,504.2 187.7,504.2" fill="rgb(0,255,255)"/>
<polygon points="193.7,498.2 199.7,498.2 199.7,504.2 193.7,504.2" fill="rgb(0,255,255)"/>
<polygon points="199.7,498.2 205.7,498.2 205.7,504.2 199.7,504.2" fill="rgb(0,255,255)"/>
<polygon points="205.7,498.2 211.7,498.2 211.7,504.2 205.7,504.2" fill="rgb(0,255,255)"/>
<polygon points="211.7,498.2 217.7,498.2 217.7,504.2 211.7,504.2" fill="rgb(255,255,255)"/>
<polygon points="217.7,498.2 223.7,498.2 223.7,504.2 217.7,504.2" fill="rgb(0,255,255)"/>
<polygon points="223.7,498.2 229.7,498.2 229.7,504.2 223.7,504.2" fill="rgb(0,255,255)"/>
<polygon points="229.7,498.2 235.7,498.2 235.7,504.2 229.7,504.2" fill="rgb(0,255,255)"/>
<polygon points="238.7,498.2 244.7,498.2 244.7,504.2 238.7,504.2" fill="rgb(93,93,255)"/>
<polygon points="244.7,498.2 250.7,498.2 250.7,504.2 244.7,504.2" fill="rgb(113,113,255)"/>
<polygon points="250.7,498.2 256.7,498.2 256.7,504.2 250.7,504.2" fill="rgb(255,180,180)"/>
<polygon points="256.7,498.2 262.7,498.2 262.7,504.2 256.7,504.2" fill="rgb(255,164,164)"/>
<polygon points="262.7,498.2 268.7,498.2 268.7,504.2 262.7,504.2" fill="rgb(255,242,242)"/>
<polygon points="268.7,498.2 274.7,498.2 274.7,504.2 268.7,504.2" fill="rgb(148,148,255)"/>
<polygon points="274.7,498.2 280.7,498.2 280.7,504.2 274.7,504.2" fill="rgb(0,0,255)"/>
<polygon points="280.7,498.2 286.7,498.2 286.7,504.2 280.7,504.2" fill="rgb(232,232,255)"/>
<polygon points="286.7,498.2 292.7,498.2 292.7,504.2 286.7,504.2" fill="rgb(61,61,255)"/>
<polygon points="292.7,498.2 298.7,498.2 298.7,504.2 292.7,504.2" fill="rgb(90,90,255)"/>
<polygon points="298.7,498.2 304.7,498.2 304.7,504.2 298.7,504.2" fill="rgb(134,134,255)"/>
<polygon points="304.7,498.2 310.7,498.2 310.7,504.2 304.7,504.2" fill="rgb(0,0,255)"/>
<polygon points="310.7,498.2 316.7,498.2 316.7,504.2 310.7,504.2" fill="rgb(56,56,254)"/>
<polygon points="316.7,498.2 322.7,498.2 322.7,504.2 316.7,504.2" fill="rgb(254,238,238)"/>
<polygon points="142.7,504.2 148.7,504.2 148.7,510.2 142.7,510.2" fill="rgb(255,255,255)"/>
<polygon points="148.7,504.2 154.7,504.2 154.7,510.2 148.7,510.2" fill="rgb(255,255,255)"/>
<polygon points="154.7,504.2 160.7,504.2 160.7,510.2 154.7,510.2" fill="rgb(255,255,255)"/>
<polygon points="160.7,504.2 166.7,504.2 166.7,510.2 160.7,510.2" fill="rgb(255,255,255)"/>
<polygon points="166.7,504.2 172.7,504.2 172.7,510.2 166.7,510.2" fill="rgb(128,0,128)"/>
<polygon points="172.7,504.2 178.7,504.2 178.7,510.2 172.7,510.2" fill="rgb(128,0,128)"/>
<polygon points="178.7,504.2 184.7,504.2 184.7,510.2 178.7,510.2" fill="rgb(128,0,128)"/>
<polygon points="187.7,504.2 193.7,504.2 193.7,510.2 187.7,510.2" fill="rgb(255,255,255)"/>
<polygon points="193.7,504.2 199.7,504.2 199.7,510.2 193.7,510.2" fill="rgb(0,255,255)"/>
<polygon points="199.7,504.2 205.7,504.2 205.7,510.2 199.7,510.2" fill="rgb(0,255,255)"/>
<polygon points="205.7,504.2 211.7,504.2 211.7,510.2 205.7,510.2" fill="rgb(0,255,255)"/>
<polygon points="211.7,504.2 217.7,504.2 217.7,510.2 211.7,510.2" fill="rgb(0,255,255)"/>
<polygon points="217.7,504.2 223.7,504.2 223.7,510.2 217.7,510.2" fill="rgb(0,255,255)"/>
<polygon points="223.7,504.2 229.7,504.2 229.7,510.2 223.7,510.2" fill="rgb(255,255,255)"/>
<polygon points="229.7,504.2 235.7,504.2 235.7,510.2 229.7,510.2" fill="rgb(255,255,255)"/>
<polygon points="238.7,504.2 244.7,504.2 244.7,510.2 238.7,510.2" fill="rgb(70,70,255)"/>
<polygon points="244.7,504.2 250.7,504.2 250.7,510.2 244.7,510.2" fill="rgb(41,41,255)"/>
<polygon points="250.7,504.2 256.7,504.2 256.7,510.2 250.7,510.2" fill="rgb(255,219,219)"/>
<polygon points="256.7,504.2 262.7,504.2 262.7,510.2 256.7,510.2" fill="rgb(255,212,212)"/>
<polygon points="262.7,504.2 268.7,504.2 268.7,510.2 262.7,510.2" fill="rgb(255,247,247)"/>
<polygon points="268.7,504.2 274.7,504.2 274.7,510.2 268.7,510.2" fill="rgb(209,209,255)"/>
<polygon points="274.7,504.2 280.7,504.2 280.7,510.2 274.7,510.2" fill="rgb(0,0,255)"/>
<polygon points="280.7,504.2 286.7,504.2 286.7,510.2 280.7,510.2" fill="rgb(252,252,255)"/>
<polygon points="286.7,504.2 292.7,504.2 292.7,510.2 286.7,510.2" fill="rgb(41,41,255)"/>
<polygon points="292.7,504.2 298.7,504.2 298.7,510.2 292.7,510.2" fill="rgb(103,103,255)"/>
<polygon points="298.7,504.2 304.7,504.2 304.7,510.2 298.7,510.2" fill="rgb(82,82,255)"/>
<polygon points="304.7,504.2 310.7,504.2 310.7,510.2 304.7,510.2" fill="rgb(28,28,255)"/>
<polygon points="310.7,504.2 316.7,504.2 316.7,510.2 310.7,510.2" fill="rgb(31,31,255)"/>
<polygon points="316.7,504.2 322.7,504.2 322.7,510.2 316.7,510.2" fill="rgb(39,39,255)"/>
<polygon points="142.7,510.2 148.7,510.2 148.7,516.2 142.7,516.2" fill="rgb(255,255,255)"/>
<polygon points="148.7,510.2 154.7,510.2 154.7,516.2 148.7,516.2" fill="rgb(255,255,255)"/>
<polygon points="154.7,510.2 160.7,510.2 160.7,516.2 154.7,516.2" fill="rgb(255,255,255)"/>
<polygon points="160.7,510.2 166.7,510.2 166.7,516.2 160.7,516.2" fill="rgb(255,255,255)"/>
<polygon points="166.7,510.2 172.7,510.2 172.7,516.2 166.7,516.2" fill="rgb(255,255,255)"/>
<polygon points="172.7,510.2 178.7,510.2 178.7,516.2 172.7,516.2" fill="rgb(255,255,255)"/>
<polygon points="178.7,510.2 184.7,510.2 184.7,516.2 178.7,516.2" fill="rgb(255,255,255)"/>
<polygon points="187.7,510.2 193.7,510.2 193.7,516.2 187.7,516.2" fill="rgb(0,255,255)"/>
<polygon points="193.7,510.2 199.7,510.2 199.7,516.2 193.7,516.2" fill="rgb(0,255,255)"/>
<polygon points="199.7,510.2 205.7,510.2 205.7,516.2 199.7,516.2" fill="rgb(0,255,255)"/>
<polygon points="205.7,510.2 211.7,510.2 211.7,516.2 205.7,516.2" fill="rgb(0,255,255)"/>
<polygon points="211.7,510.2 217.7,510.2 217.7,516.2 211.7,516.2" fill="rgb(0,255,255)"/>
<polygon points="217.7,510.2 223.7,510.2 223.7,516.2 217.7,516.2" fill="rgb(0,255,255)"/>
<polygon points="223.7,510.2 229.7,510.2 229.7,516.2 223.7,516.2" fill="rgb(255,255,255)"/>
<polygon points="229.7,510.2 235.7,510.2 235.7,516.2 229.7,516.2" fill="rgb(255,255,255)"/>
<polygon points="238.7,510.2 244.7,510.2 244.7,516.2 238.7,516.2" fill="rgb(255,251,251)"/>
<polygon points="244.7,510.2 250.7,510.2 250.7,516.2 244.7,516.2" fill="rgb(245,245,255)"/>
<polygon points="250.7,510.2 256.7,510.2 256.7,516.2 250.7,516.2" fill="rgb(255,193,193)"/>
<polygon points="256.7,510.2 262.7,510.2 262.7,516.2 256.7,516.2" fill="rgb(255,218,218)"/>
<polygon points="262.7,510.2 268.7,510.2 268.7,516.2 262.7,516.2" fill="rgb(255,235,235)"/>
<polygon points="268.7,510.2 274.7,510.2 274.7,516.2 268.7,516.2" fill="rgb(255,251,251)"/>
<polygon points="274.7,510.2 280.7,510.2 280.7,516.2 274.7,516.2" fill="rgb(255,254,254)"/>
<polygon points="280.7,510.2 286.7,510.2 286.7,516.2 280.7,516.2" fill="rgb(255,241,241)"/>
<polygon points="286.7,510.2 292.7,510.2 292.7,516.2 286.7,516.2" fill="rgb(255,254,254)"/>
<polygon points="292.7,510.2 298.7,510.2 298.7,516.2 292.7,516.2" fill="rgb(209,209,255)"/>
<polygon points="298.7,510.2 304.7,510.2 304.7,516.2 298.7,516.2" fill="rgb(154,154,255)"/>
<polygon points="304.7,510.2 310.7,510.2 310.7,516.2 304.7,516.2" fill="rgb(70,70,255)"/>
<polygon points="310.7,510.2 316.7,510.2 316.7,516.2 310.7,516.2" fill="rgb(198,198,255)"/>
<polygon points="316.7,510.2 322.7,510.2 322.7,516.2 316.7,516.2" fill="rgb(212,212,255)"/>
<polygon points="142.7,516.2 148.7,516.2 148.7,522.2 142.7,522.2" fill="rgb(128,0,128)"/>
<polygon points="148.7,516.2 154.7,516.2 154.7,522.2 148.7,522.2" fill="rgb(128,0,128)"/>
<polygon points="154.7,516.2 160.7,516.2 160.7,522.2 154.7,522.2" fill="rgb(128,0,128)"/>
<polygon points="160.7,516.2 166.7,516.2 166.7,522.2 160.7,522.2" fill="rgb(128,0,128)"/>
<polygon points="166.7,516.2 172.7,516.2 172.7,522.2 166.7,522.2" fill="rgb(128,0,128)"/>
<polygon points="172.7,516.2 178.7,516.2 178.7,522.2 172.7,522.2" fill="rgb(128,0,128)"/>
<polygon points="178.7,516.2 184.7,516.2 184.7,522.2 178.7,522.2" fill="rgb(128,0,128)"/>
<polygon points="187.7,516.2 193.7,516.2 193.7,522.2 187.7,522.2" fill="rgb(0,255,255)"/>
<polygon points="193.7,516.2 199.7,516.2 199.7,522.2 193.7,522.2" fill="rgb(0,255,255)"/>
<polygon points="199.7,516.2 205.7,516.2 205.7,522.2 199.7,522.2" fill="rgb(0,255,255)"/>
<polygon points="205.7,516.2 211.7,516.2 211.7,522.2 205.7,522.2" fill="rgb(0,255,255)"/>
<polygon points="211.7,516.2 217.7,516.2 217.7,522.2 211.7,522.2" fill="rgb(0,255,255)"/>
<polygon points="217.7,516.2 223.7,516.2 223.7,522.2 217.7,522.2" fill="rgb(255,255,255)"/>
<polygon points="223.7,516.2 229.7,516.2 229.7,522.2 223.7,522.2" fill="rgb(255,255,255)"/>
<polygon points="229.7,516.2 235.7,516.2 235.7,522.2 229.7,522.2" fill="rgb(255,255,255)"/>
<polygon points="238.7,516.2 244.7,516.2 244.7,522.2 238.7,522.2" fill="rgb(130,130,255)"/>
<polygon points="244.7,516.2 250.7,516.2 250.7,522.2 244.7,522.2" fill="rgb(108,108,255)"/>
<polygon points="250.7,516.2 256.7,516.2 256.7,522.2 250.7,522.2" fill="rgb(255,204,204)"/>
<polygon points="256.7,516.2 262.7,516.2 262.7,522.2 256.7,522.2" fill="rgb(255,205,205)"/>
<polygon points="262.7,516.2 268.7,516.2 268.7,522.2 262.7,522.2" fill="rgb(255,247,247)"/>
<polygon points="268.7,516.2 274.7,516.2 274.7,522.2 268.7,522.2" fill="rgb(216,216,255)"/>
<polygon points="274.7,516.2 280.7,516.2 280.7,522.2 274.7,522.2" fill="rgb(0,0,255)"/>
<polygon points="280.7,516.2 286.7,516.2 286.7,522.2 280.7,522.2" fill="rgb(98,98,255)"/>
<polygon points="286.7,516.2 292.7,516.2 292.7,522.2 286.7,522.2" fill="rgb(37,37,255)"/>
<polygon points="292.7,516.2 298.7,516.2 298.7,522.2 292.7,522.2" fill="rgb(40,40,255)"/>
<polygon points="298.7,516.2 304.7,516.2 304.7,522.2 298.7,522.2" fill="rgb(55,55,255)"/>
<polygon points="304.7,516.2 310.7,516.2 310.7,522.2 304.7,522.2" fill="rgb(0,0,255)"/>
<polygon points="310.7,516.2 316.7,516.2 316.7,522.2 310.7,522.2" fill="rgb(7,7,254)"/>
<polygon points="316.7,516.2 322.7,516.2 322.7,522.2 316.7,522.2" fill="rgb(93,93,255)"/>
<polygon points="142.7,522.2 148.7,522.2 148.7,528.2 142.7,528.2" fill="rgb(255,255,255)"/>
<polygon points="148.7,522.2 154.7,522.2 154.7,528.2 148.7,528.2" fill="rgb(255,255,255)"/>
<polygon points="154.7,522.2 160.7,522.2 160.7,528.2 154.7,528.2" fill="rgb(255,255,255)"/>
<polygon points="160.7,522.2 166.7,522.2 166.7,528.2 160.7,528.2" fill="rgb(255,255,255)"/>
<polygon points="166.7,522.2 172.7,522.2 172.7,528.2 166.7,528.2" fill="rgb(255,255,255)"/>
<polygon points="172.7,522.2 178.7,522.2 178.7,528.2 172.7,528.2" fill="rgb(255,255,255)"/>
<polygon points="178.7,522.2 184.7,522.2 184.7,528.2 178.7,528.2" fill="rgb(255,255,255)"/>
<polygon points="187.7,522.2 193.7,522.2 193.7,528.2 187.7,528.2" fill="rgb(0,255,255)"/>
<polygon points="193.7,522.2 199.7,522.2 199.7,528.2 193.7,528.2" fill="rgb(0,255,255)"/>
<polygon points="199.7,522.2 205.7,522.2 205.7,528.2 199.7,528.2" fill="rgb(0,255,255)"/>
<polygon points="205.7,522.2 211.7,522.2 211.7,528.2 205.7,528.2" fill="rgb(0,255,255)"/>
<polygon points="211.7,522.2 217.7,522.2 217.7,528.2 211.7,528.2" fill="rgb(0,255,255)"/>
<polygon points="217.7,522.2 223.7,522.2 223.7,528.2 217.7,528.2" fill="rgb(255,255,255)"/>
<polygon points="223.7,522.2 229.7,522.2 229.7,528.2 223.7,528.2" fill="rgb(255,255,255)"/>
<polygon points="229.7,522.2 235.7,522.2 235.7,528.2 229.7,528.2" fill="rgb(255,255,255)"/>
<polygon points="238.7,522.2 244.7,522.2 244.7,528.2 238.7,528.2" fill="rgb(116,116,255)"/>
<polygon points="244.7,522.2 250.7,522.2 250.7,528.2 244.7,528.2" fill="rgb(84,84,255)"/>
<polygon points="250.7,522.2 256.7,522.2 256.7,528.2 250.7,528.2" fill="rgb(255,196,196)"/>
<polygon points="256.7,522.2 262.7,522.2 262.7,528.2 256.7,528.2" fill="rgb(255,194,194)"/>
<polygon points="262.7,522.2 268.7,522.2 268.7,528.2 262.7,528.2" fill="rgb(255,243,243)"/>
<polygon points="268.7,522.2 274.7,522.2 274.7,528.2 268.7,528.2" fill="rgb(218,218,255)"/>
<polygon points="274.7,522.2 280.7,522.2 280.7,528.2 274.7,528.2" fill="rgb(0,0,255)"/>
<polygon points="280.7,522.2 286.7,522.2 286.7,528.2 280.7,528.2" fill="rgb(177,177,255)"/>
<polygon points="286.7,522.2 292.7,522.2 292.7,528.2 286.7,528.2" fill="rgb(28,28,255)"/>
<polygon points="292.7,522.2 298.7,522.2 298.7,528.2 292.7,528.2" fill="rgb(56,56,255)"/>
<polygon points="298.7,522.2 304.7,522.2 304.7,528.2 298.7,528.2" fill="rgb(67,67,255)"/>
<polygon points="304.7,522.2 310.7,522.2 310.7,528.2 304.7,528.2" fill="rgb(0,0,255)"/>
<polygon points="310.7,522.2 316.7,522.2 316.7,528.2 310.7,528.2" fill="rgb(25,25,255)"/>
<polygon points="316.7,522.2 322.7,522.2 322.7,528.2 316.7,528.2" fill="rgb(160,160,255)"/>
<polygon points="142.7,528.2 148.7,528.2 148.7,534.2 142.7,534.2" fill="rgb(255,255,255)"/>
<polygon points="148.7,528.2 154.7,528.2 154.7,534.2 148.7,534.2" fill="rgb(255,255,255)"/>
<polygon points="154.7,528.2 160.7,528.2 160.7,534.2 154.7,534.2" fill="rgb(255,255,255)"/>
<polygon points="160.7,528.2 166.7,528.2 166.7,534.2 160.7,534.2" fill="rgb(255,255,255)"/>
<polygon points="166.7,528.2 172.7,528.2 172.7,534.2 166.7,534.2" fill="rgb(255,255,255)"/>
<polygon points="172.7,528.2 178.7,528.2 178.7,534.2 172.7,534.2" fill="rgb(255,255,255)"/>
<polygon points="178.7,528.2 184.7,528.2 184.7,534.2 178.7,534.2" fill="rgb(255,255,255)"/>
<polygon points="187.7,528.2 193.7,528.2 193.7,534.2 187.7,534.2" fill="rgb(0,255,255)"/>
<polygon points="193.7,528.2 199.7,528.2 199.7,534.2 193.7,534.2" fill="rgb(0,255,255)"/>
<polygon points="199.7,528.2 205.7,528.2 205.7,534.2 199.7,534.2" fill="rgb(0,255,255)"/>
<polygon points="205.7,528.2 211.7,528.2 211.7,534.2 205.7,534.2" fill="rgb(0,255,255)"/>
<polygon points="211.7,528.2 217.7,528.2 217.7,534.2 211.7,534.2" fill="rgb(0,255,255)"/>
<polygon points="217.7,528.2 223.7,528.2 223.7,534.2 217.7,534.2" fill="rgb(255,255,255)"/>
<polygon points="223.7,528.2 229.7,528.2 229.7,534.2 223.7,534.2" fill="rgb(255,255,255)"/>
<polygon points="229.7,528.2 235.7,528.2 235.7,534.2 229.7,534.2" fill="rgb(255,255,255)"/>
<polygon points="238.7,528.2 244.7,528.2 244.7,534.2 238.7,534.2" fill="rgb(135,135,255)"/>
<polygon points="244.7,528.2 250.7,528.2 250.7,534.2 244.7,534.2" fill="rgb(39,39,255)"/>
<polygon points="250.7,528.2 256.7,528.2 256.7,534.2 250.7,534.2" fill="rgb(255,197,197)"/>
<polygon points="256.7,528.2 262.7,528.2 262.7,534.2 256.7,534.2" fill="rgb(255,201,201)"/>
<polygon points="262.7,528.2 268.7,528.2 268.7,534.2 262.7,534.2" fill="rgb(255,241,241)"/>
<polygon points="268.7,528.2 274.7,528.2 274.7,534.2 268.7,534.2" fill="rgb(174,174,255)"/>
<polygon points="274.7,528.2 280.7,528.2 280.7,534.2 274.7,534.2" fill="rgb(32,32,255)"/>
<polygon points="280.7,528.2 286.7,528.2 286.7,534.2 280.7,534.2" fill="rgb(241,241,255)"/>
<polygon points="286.7,528.2 292.7,528.2 292.7,534.2 286.7,534.2" fill="rgb(30,30,255)"/>
<polygon points="292.7,528.2 298.7,528.2 298.7,534.2 292.7,534.2" fill="rgb(59,59,255)"/>
<polygon points="298.7,528.2 304.7,528.2 304.7,534.2 298.7,534.2" fill="rgb(92,92,255)"/>
<polygon points="304.7,528.2 310.7,528.2 310.7,534.2 304.7,534.2" fill="rgb(0,0,255)"/>
<polygon points="310.7,528.2 316.7,528.2 316.7,534.2 310.7,534.2" fill="rgb(0,0,255)"/>
<polygon points="316.7,528.2 322.7,528.2 322.7,534.2 316.7,534.2" fill="rgb(6,6,255)"/>
<polygon points="142.7,534.2 148.7,534.2 148.7,540.2 142.7,540.2" fill="rgb(255,255,255)"/>
<polygon points="148.7,534.2 154.7,534.2 154.7,540.2 148.7,540.2" fill="rgb(255,255,255)"/>
<polygon points="154.7,534.2 160.7,534.2 160.7,540.2 154.7,540.2" fill="rgb(255,255,255)"/>
<polygon points="160.7,534.2 166.7,534.2 166.7,540.2 160.7,540.2" fill="rgb(255,255,255)"/>
<polygon points="166.7,534.2 172.7,534.2 172.7,540.2 166.7,540.2" fill="rgb(128,0,128)"/>
<polygon points="172.7,534.2 178.7,534.2 178.7,540.2 172.7,540.2" fill="rgb(128,0,128)"/>
<polygon points="178.7,534.2 184.7,534.2 184.7,540.2 178.7,540.2" fill="rgb(128,0,128)"/>
<polygon points="187.7,534.2 193.7,534.2 193.7,540.2 187.7,540.2" fill="rgb(0,255,255)"/>
<polygon points="193.7,534.2 199.7,534.2 199.7,540.2 193.7,540.2" fill="rgb(0,255,255)"/>
<polygon points="199.7,534.2 205.7,534.2 205.7,540.2 199.7,540.2" fill="rgb(0,255,255)"/>
<polygon points="205.7,534.2 211.7,534.2 211.7,540.2 205.7,540.2" fill="rgb(0,255,255)"/>
<polygon points="211.7,534.2 217.7,534.2 217.7,540.2 211.7,540.2" fill="rgb(0,255,255)"/>
<polygon points="217.7,534.2 223.7,534.2 223.7,540.2 217.7,540.2" fill="rgb(255,255,255)"/>
<polygon points="223.7,534.2 229.7,534.2 229.7,540.2 223.7,540.2" fill="rgb(0,255,255)"/>
<polygon points="229.7,534.2 235.7,534.2 235.7,540.2 229.7,540.2" fill="rgb(255,255,255)"/>
<polygon points="238.7,534.2 244.7,534.2 244.7,540.2 238.7,540.2" fill="rgb(255,234,234)"/>
<polygon points="244.7,534.2 250.7,534.2 250.7,540.2 244.7,540.2" fill="rgb(255,240,240)"/>
<polygon points="250.7,534.2 256.7,534.2 256.7,540.2 250.7,540.2" fill="rgb(255,177,177)"/>
<polygon points="256.7,534.2 262.7,534.2 262.7,540.2 256.7,540.2" fill="rgb(255,167,167)"/>
<polygon points="262.7,534.2 268.7,534.2 268.7,540.2 262.7,540.2" fill="rgb(254,245,245)"/>
<polygon points="268.7,534.2 274.7,534.2 274.7,540.2 268.7,540.2" fill="rgb(255,241,241)"/>
<polygon points="274.7,534.2 280.7,534.2 280.7,540.2 274.7,540.2" fill="rgb(101,101,255)"/>
<polygon points="280.7,534.2 286.7,534.2 286.7,540.2 280.7,540.2" fill="rgb(255,247,247)"/>
<polygon points="286.7,534.2 292.7,534.2 292.7,540.2 286.7,540.2" fill="rgb(255,253,253)"/>
<polygon points="292.7,534.2 298.7,534.2 298.7,540.2 292.7,540.2" fill="rgb(255,252,252)"/>
<polygon points="298.7,534.2 304.7,534.2 304.7,540.2 298.7,540.2" fill="rgb(255,249,249)"/>
<polygon points="304.7,534.2 310.7,534.2 310.7,540.2 304.7,540.2" fill="rgb(94,94,255)"/>
<polygon points="310.7,534.2 316.7,534.2 316.7,540.2 310.7,540.2" fill="rgb(191,191,255)"/>
<polygon points="316.7,534.2 322.7,534.2 322.7,540.2 316.7,540.2" fill="rgb(254,208,208)"/>
<polygon points="142.7,540.2 148.7,540.2 148.7,546.2 142.7,546.2" fill="rgb(255,255,255)"/>
<polygon points="148.7,540.2 154.7,540.2 154.7,546.2 148.7,546.2" fill="rgb(255,255,255)"/>
<polygon points="154.7,540.2 160.7,540.2 160.7,546.2 154.7,546.2" fill="rgb(255,255,255)"/>
<polygon points="160.7,540.2 166.7,540.2 166.7,546.2 160.7,546.2" fill="rgb(255,255,255)"/>
<polygon points="166.7,540.2 172.7,540.2 172.7,546.2 166.7,546.2" fill="rgb(255,255,255)"/>
<polygon points="172.7,540.2 178.7,540.2 178.7,546.2 172.7,546.2" fill="rgb(255,255,255)"/>
<polygon points="178.7,540.2 184.7,540.2 184.7,546.2 178.7,546.2" fill="rgb(255,255,255)"/>
<polygon points="187.7,540.2 193.7,540.2 193.7,546.2 187.7,546.2" fill="rgb(0,255,255)"/>
<polygon points="193.7,540.2 199.7,540.2 199.7,546.2 193.7,546.2" fill="rgb(255,255,255)"/>
<polygon points="199.7,540.2 205.7,540.2 205.7,546.2 199.7,546.2" fill="rgb(255,255,255)"/>
<polygon points="205.7,540.2 211.7,540.2 211.7,546.2 205.7,546.2" fill="rgb(0,255,255)"/>
<polygon points="211.7,540.2 217.7,540.2 217.7,546.2 211.7,546.2" fill="rgb(0,255,255)"/>
<polygon points="217.7,540.2 223.7,540.2 223.7,546.2 217.7,546.2" fill="rgb(255,255,255)"/>
<polygon points="223.7,540.2 229.7,540.2 229.7,546.2 223.7,546.2" fill="rgb(0,255,255)"/>
<polygon points="229.7,540.2 235.7,540.2 235.7,546.2 229.7,546.2" fill="rgb(0,255,255)"/>
<polygon points="238.7,540.2 244.7,540.2 244.7,546.2 238.7,546.2" fill="rgb(255,211,211)"/>
<polygon points="244.7,540.2 250.7,540.2 250.7,546.2 244.7,546.2" fill="rgb(255,216,216)"/>
<polygon points="250.7,540.2 256.7,540.2 256.7,546.2 250.7,546.2" fill="rgb(255,150,150)"/>
<polygon points="256.7,540.2 262.7,540.2 262.7,546.2 256.7,546.2" fill="rgb(255,129,129)"/>
<polygon points="262.7,540.2 268.7,540.2 268.7,546.2 262.7,546.2" fill="rgb(255,203,203)"/>
<polygon points="268.7,540.2 274.7,540.2 274.7,546.2 268.7,546.2" fill="rgb(255,218,218)"/>
<polygon points="274.7,540.2 280.7,540.2 280.7,546.2 274.7,546.2" fill="rgb(255,246,246)"/>
<polygon points="280.7,540.2 286.7,540.2 286.7,546.2 280.7,546.2" fill="rgb(255,205,205)"/>
<polygon points="286.7,540.2 292.7,540.2 292.7,546.2 286.7,546.2" fill="rgb(254,233,233)"/>
<polygon points="292.7,540.2 298.7,540.2 298.7,546.2 292.7,546.2" fill="rgb(255,219,219)"/>
<polygon points="298.7,540.2 304.7,540.2 304.7,546.2 298.7,546.2" fill="rgb(255,240,240)"/>
<polygon points="304.7,540.2 310.7,540.2 310.7,546.2 304.7,546.2" fill="rgb(255,246,246)"/>
<polygon points="310.7,540.2 316.7,540.2 316.7,546.2 310.7,546.2" fill="rgb(255,236,236)"/>
<polygon points="316.7,540.2 322.7,540.2 322.7,546.2 316.7,546.2" fill="rgb(255,223,223)"/>
<polygon points="142.7,549.2 148.7,549.2 148.7,555.2 142.7,555.2" fill="rgb(255,255,255)"/>
<polygon points="148.7,549.2 154.7,549.2 154.7,555.2 148.7,555.2" fill="rgb(255,255,255)"/>
<polygon points="154.7,549.2 160.7,549.2 160.7,555.2 154.7,555.2" fill="rgb(255,255,255)"/>
<polygon points="160.7,549.2 166.7,549.2 166.7,555.2 160.7,555.2" fill="rgb(255,255,255)"/>
<polygon points="166.7,549.2 172.7,549.2 172.7,555.2 166.7,555.2" fill="rgb(255,255,255)"/>
<polygon points="172.7,549.2 178.7,549.2 178.7,555.2 172.7,555.2" fill="rgb(255,255,255)"/>
<polygon points="178.7,549.2 184.7,549.2 184.7,555.2 178.7,555.2" fill="rgb(255,255,255)"/>
<polygon points="187.7,549.2 193.7,549.2 193.7,555.2 187.7,555.2" fill="rgb(255,255,255)"/>
<polygon points="193.7,549.2 199.7,549.2 199.7,555.2 193.7,555.2" fill="rgb(255,255,255)"/>
<polygon points="199.7,549.2 205.7,549.2 205.7,555.2 199.7,555.2" fill="rgb(255,255,255)"/>
<polygon points="205.7,549.2 211.7,549.2 211.7,555.2 205.7,555.2" fill="rgb(255,255,255)"/>
<polygon points="211.7,549.2 217.7,549.2 217.7,555.2 211.7,555.2" fill="rgb(255,255,255)"/>
<polygon points="217.7,549.2 223.7,549.2 223.7,555.2 217.7,555.2" fill="rgb(255,255,255)"/>
<polygon points="223.7,549.2 229.7,549.2 229.7,555.2 223.7,555.2" fill="rgb(255,255,255)"/>
<polygon points="229.7,549.2 235.7,549.2 235.7,555.2 229.7,555.2" fill="rgb(255,255,255)"/>
<polygon points="238.7,549.2 244.7,549.2 244.7,555.2 238.7,555.2" fill="rgb(255,252,252)"/>
<polygon points="244.7,549.2 250.7,549.2 250.7,555.2 244.7,555.2" fill="rgb(0,0,255)"/>
<polygon points="250.7,549.2 256.7,549.2 256.7,555.2 250.7,555.2" fill="rgb(255,232,232)"/>
<polygon points="256.7,549.2 262.7,549.2 262.7,555.2 256.7,555.2" fill="rgb(254,248,248)"/>
<polygon points="262.7,549.2 268.7,549.2 268.7,555.2 262.7,555.2" fill="rgb(255,241,241)"/>
<polygon points="268.7,549.2 274.7,549.2 274.7,555.2 268.7,555.2" fill="rgb(0,0,255)"/>
<polygon points="274.7,549.2 280.7,549.2 280.7,555.2 274.7,555.2" fill="rgb(0,0,255)"/>
<polygon points="280.7,549.2 286.7,549.2 286.7,555.2 280.7,555.2" fill="rgb(0,0,255)"/>
<polygon points="286.7,549.2 292.7,549.2 292.7,555.2 286.7,555.2" fill="rgb(0,0,255)"/>
<polygon points="292.7,549.2 298.7,549.2 298.7,555.2 292.7,555.2" fill="rgb(0,0,255)"/>
<polygon points="298.7,549.2 304.7,549.2 304.7,555.2 298.7,555.2" fill="rgb(0,0,255)"/>
<polygon points="304.7,549.2 310.7,549.2 310.7,555.2 304.7,555.2" fill="rgb(0,0,255)"/>
<polygon points="310.7,549.2 316.7,549.2 316.7,555.2 310.7,555.2" fill="rgb(0,0,255)"/>
<polygon points="316.7,549.2 322.7,549.2 322.7,555.2 316.7,555.2" fill="rgb(0,0,255)"/>
<polygon points="142.7,555.2 148.7,555.2 148.7,561.2 142.7,561.2" fill="rgb(255,255,255)"/>
<polygon points="148.7,555.2 154.7,555.2 154.7,561.2 148.7,561.2" fill="rgb(255,255,255)"/>
<polygon points="154.7,555.2 160.7,555.2 160.7,561.2 154.7,561.2" fill="rgb(255,255,255)"/>
<polygon points="160.7,555.2 166.7,555.2 166.7,561.2 160.7,561.2" fill="rgb(255,255,255)"/>
<polygon points="166.7,555.2 172.7,555.2 172.7,561.2 166.7,561.2" fill="rgb(255,255,255)"/>
<polygon points="172.7,555.2 178.7,555.2 178.7,561.2 172.7,561.2" fill="rgb(255,255,255)"/>
<polygon points="178.7,555.2 184.7,555.2 184.7,561.2 178.7,561.2" fill="rgb(255,255,255)"/>
<polygon points="187.7,555.2 193.7,555.2 193.7,561.2 187.7,561.2" fill="rgb(255,255,255)"/>
<polygon points="193.7,555.2 199.7,555.2 199.7,561.2 193.7,561.2" fill="rgb(255,255,255)"/>
<polygon points="199.7,555.2 205.7,555.2 205.7,561.2 199.7,561.2" fill="rgb(255,255,255)"/>
<polygon points="205.7,555.2 211.7,555.2 211.7,561.2 205.7,561.2" fill="rgb(255,255,255)"/>
<polygon points="211.7,555.2 217.7,555.2 217.7,561.2 211.7,561.2" fill="rgb(255,255,255)"/>
<polygon points="217.7,555.2 223.7,555.2 223.7,561.2 217.7,561.2" fill="rgb(255,255,255)"/>
<polygon points="223.7,555.2 229.7,555.2 229.7,561.2 223.7,561.2" fill="rgb(255,255,255)"/>
<polygon points="229.7,555.2 235.7,555.2 235.7,561.2 229.7,561.2" fill="rgb(255,255,255)"/>
<polygon points="238.7,555.2 244.7,555.2 244.7,561.2 238.7,561.2" fill="rgb(0,0,255)"/>
<polygon points="244.7,555.2 250.7,555.2 250.7,561.2 244.7,561.2" fill="rgb(254,251,251)"/>
<polygon points="250.7,555.2 256.7,555.2 256.7,561.2 250.7,561.2" fill="rgb(255,249,249)"/>
<polygon points="256.7,555.2 262.7,555.2 262.7,561.2 256.7,561.2" fill="rgb(255,221,221)"/>
<polygon points="262.7,555.2 268.7,555.2 268.7,561.2 262.7,561.2" fill="rgb(255,242,242)"/>
<polygon points="268.7,555.2 274.7,555.2 274.7,561.2 268.7,561.2" fill="rgb(0,0,255)"/>
<polygon points="274.7,555.2 280.7,555.2 280.7,561.2 274.7,561.2" fill="rgb(0,0,255)"/>
<polygon points="280.7,555.2 286.7,555.2 286.7,561.2 280.7,561.2" fill="rgb(0,0,255)"/>
<polygon points="286.7,555.2 292.7,555.2 292.7,561.2 286.7,561.2" fill="rgb(0,0,255)"/>
<polygon points="292.7,555.2 298.7,555.2 298.7,561.2 292.7,561.2" fill="rgb(0,0,255)"/>
<polygon points="298.7,555.2 304.7,555.2 304.7,561.2 298.7,561.2" fill="rgb(255,251,251)"/>
<polygon points="304.7,555.2 310.7,555.2 310.7,561.2 304.7,561.2" fill="rgb(70,70,255)"/>
<polygon points="310.7,555.2 316.7,555.2 316.7,561.2 310.7,561.2" fill="rgb(0,0,255)"/>
<polygon points="316.7,555.2 322.7,555.2 322.7,561.2 316.7,561.2" fill="rgb(0,0,255)"/>
<polygon points="142.7,561.2 148.7,561.2 148.7,567.2 142.7,567.2" fill="rgb(255,255,255)"/>
<polygon points="148.7,561.2 154.7,561.2 154.7,567.2 148.7,567.2" fill="rgb(255,255,255)"/>
<polygon points="154.7,561.2 160.7,561.2 160.7,567.2 154.7,567.2" fill="rgb(255,255,255)"/>
<polygon points="160.7,561.2 166.7,561.2 166.7,567.2 160.7,567.2" fill="rgb(255,255,255)"/>
<polygon points="166.7,561.2 172.7,561.2 172.7,567.2 166.7,567.2" fill="rgb(255,255,255)"/>
<polygon points="172.7,561.2 178.7,561.2 178.7,567.2 172.7,567.2" fill="rgb(255,255,255)"/>
<polygon points="178.7,561.2 184.7,561.2 184.7,567.2 178.7,567.2" fill="rgb(255,255,255)"/>
<polygon points="187.7,561.2 193.7,561.2 193.7,567.2 187.7,567.2" fill="rgb(255,255,255)"/>
<polygon points="193.7,561.2 199.7,561.2 199.7,567.2 193.7,567.2" fill="rgb(255,255,255)"/>
<polygon points="199.7,561.2 205.7,561.2 205.7,567.2 199.7,567.2" fill="rgb(255,255,255)"/>
<polygon points="205.7,561.2 211.7,561.2 211.7,567.2 205.7,567.2" fill="rgb(255,255,255)"/>
<polygon points="211.7,561.2 217.7,561.2 217.7,567.2 211.7,567.2" fill="rgb(255,255,255)"/>
<polygon points="217.7,561.2 223.7,561.2 223.7,567.2 217.7,567.2" fill="rgb(255,255,255)"/>
<polygon points="223.7,561.2 229.7,561.2 229.7,567.2 223.7,567.2" fill="rgb(255,255,255)"/>
<polygon points="229.7,561.2 235.7,561.2 235.7,567.2 229.7,567.2" fill="rgb(255,255,255)"/>
<polygon points="238.7,561.2 244.7,561.2 244.7,567.2 238.7,567.2" fill="rgb(0,0,255)"/>
<polygon points="244.7,561.2 250.7,561.2 250.7,567.2 244.7,567.2" fill="rgb(0,0,255)"/>
<polygon points="250.7,561.2 256.7,561.2 256.7,567.2 250.7,567.2" fill="rgb(0,0,255)"/>
<polygon points="256.7,561.2 262.7,561.2 262.7,567.2 256.7,567.2" fill="rgb(0,0,255)"/>
<polygon points="262.7,561.2 268.7,561.2 268.7,567.2 262.7,567.2" fill="rgb(0,0,255)"/>
<polygon points="268.7,561.2 274.7,561.2 274.7,567.2 268.7,567.2" fill="rgb(0,0,255)"/>
<polygon points="274.7,561.2 280.7,561.2 280.7,567.2 274.7,567.2" fill="rgb(255,243,243)"/>
<polygon points="280.7,561.2 286.7,561.2 286.7,567.2 280.7,567.2" fill="rgb(255,231,231)"/>
<polygon points="286.7,561.2 292.7,561.2 292.7,567.2 286.7,567.2" fill="rgb(255,226,226)"/>
<polygon points="292.7,561.2 298.7,561.2 298.7,567.2 292.7,567.2" fill="rgb(255,214,214)"/>
<polygon points="298.7,561.2 304.7,561.2 304.7,567.2 298.7,567.2" fill="rgb(254,194,194)"/>
<polygon points="304.7,561.2 310.7,561.2 310.7,567.2 304.7,567.2" fill="rgb(255,212,212)"/>
<polygon points="310.7,561.2 316.7,561.2 316.7,567.2 310.7,567.2" fill="rgb(255,254,254)"/>
<polygon points="316.7,561.2 322.7,561.2 322.7,567.2 316.7,567.2" fill="rgb(0,0,255)"/>
<polygon points="142.7,567.2 148.7,567.2 148.7,573.2 142.7,573.2" fill="rgb(255,255,255)"/>
<polygon points="148.7,567.2 154.7,567.2 154.7,573.2 148.7,573.2" fill="rgb(255,255,255)"/>
<polygon points="154.7,567.2 160.7,567.2 160.7,573.2 154.7,573.2" fill="rgb(255,255,255)"/>
<polygon points="160.7,567.2 166.7,567.2 166.7,573.2 160.7,573.2" fill="rgb(255,255,255)"/>
<polygon points="166.7,567.2 172.7,567.2 172.7,573.2 166.7,573.2" fill="rgb(255,255,255)"/>
<polygon points="172.7,567.2 178.7,567.2 178.7,573.2 172.7,573.2" fill="rgb(255,255,255)"/>
<polygon points="178.7,567.2 184.7,567.2 184.7,573.2 178.7,573.2" fill="rgb(255,255,255)"/>
<polygon points="187.7,567.2 193.7,567.2 193.7,573.2 187.7,573.2" fill="rgb(255,255,255)"/>
<polygon points="193.7,567.2 199.7,567.2 199.7,573.2 193.7,573.2" fill="rgb(255,255,255)"/>
<polygon points="199.7,567.2 205.7,567.2 205.7,573.2 199.7,573.2" fill="rgb(255,255,255)"/>
<polygon points="205.7,567.2 211.7,567.2 211.7,573.2 205.7,573.2" fill="rgb(255,255,255)"/>
<polygon points="211.7,567.2 217.7,567.2 217.7,573.2 211.7,573.2" fill="rgb(255,255,255)"/>
<polygon points="217.7,567.2 223.7,567.2 223.7,573.2 217.7,573.2" fill="rgb(255,255,255)"/>
<polygon points="223.7,567.2 229.7,567.2 229.7,573.2 223.7,573.2" fill="rgb(255,255,255)"/>
<polygon points="229.7,567.2 235.7,567.2 235.7,573.2 229.7,573.2" fill="rgb(255,255,255)"/>
<polygon points="238.7,567.2 244.7,567.2 244.7,573.2 238.7,573.2" fill="rgb(255,234,234)"/>
<polygon points="244.7,567.2 250.7,567.2 250.7,573.2 244.7,573.2" fill="rgb(255,229,229)"/>
<polygon points="250.7,567.2 256.7,567.2 256.7,573.2 250.7,573.2" fill="rgb(254,194,194)"/>
<polygon points="256.7,567.2 262.7,567.2 262.7,573.2 256.7,573.2" fill="rgb(255,210,210)"/>
<polygon points="262.7,567.2 268.7,567.2 268.7,573.2 262.7,573.2" fill="rgb(255,234,234)"/>
<polygon points="268.7,567.2 274.7,567.2 274.7,573.2 268.7,573.2" fill="rgb(255,232,232)"/>
<polygon points="274.7,567.2 280.7,567.2 280.7,573.2 274.7,573.2" fill="rgb(0,0,255)"/>
<polygon points="280.7,567.2 286.7,567.2 286.7,573.2 280.7,573.2" fill="rgb(254,243,243)"/>
<polygon points="286.7,567.2 292.7,567.2 292.7,573.2 286.7,573.2" fill="rgb(216,216,255)"/>
<polygon points="292.7,567.2 298.7,567.2 298.7,573.2 292.7,573.2" fill="rgb(174,174,255)"/>
<polygon points="298.7,567.2 304.7,567.2 304.7,573.2 298.7,573.2" fill="rgb(70,70,255)"/>
<polygon points="304.7,567.2 310.7,567.2 310.7,573.2 304.7,573.2" fill="rgb(10,10,255)"/>
<polygon points="310.7,567.2 316.7,567.2 316.7,573.2 310.7,573.2" fill="rgb(13,13,255)"/>
<polygon points="316.7,567.2 322.7,567.2 322.7,573.2 316.7,573.2" fill="rgb(0,0,255)"/>
<polygon points="142.7,573.2 148.7,573.2 148.7,579.2 142.7,579.2" fill="rgb(255,255,255)"/>
<polygon points="148.7,573.2 154.7,573.2 154.7,579.2 148.7,579.2" fill="rgb(255,255,255)"/>
<polygon points="154.7,573.2 160.7,573.2 160.7,579.2 154.7,579.2" fill="rgb(255,255,255)"/>
<polygon points="160.7,573.2 166.7,573.2 166.7,579.2 160.7,579.2" fill="rgb(255,255,255)"/>
<polygon points="166.7,573.2 172.7,573.2 172.7,579.2 166.7,579.2" fill="rgb(255,255,255)"/>
<polygon points="172.7,573.2 178.7,573.2 178.7,579.2 172.7,579.2" fill="rgb(255,255,255)"/>
<polygon points="178.7,573.2 184.7,573.2 184.7,579.2 178.7,579.2" fill="rgb(255,255,255)"/>
<polygon points="187.7,573.2 193.7,573.2 193.7,579.2 187.7,579.2" fill="rgb(255,255,255)"/>
<polygon points="193.7,573.2 199.7,573.2 199.7,579.2 193.7,579.2" fill="rgb(255,255,255)"/>
<polygon points="199.7,573.2 205.7,573.2 205.7,579.2 199.7,579.2" fill="rgb(255,255,255)"/>
<polygon points="205.7,573.2 211.7,573.2 211.7,579.2 205.7,579.2" fill="rgb(255,255,255)"/>
<polygon points="211.7,573.2 217.7,573.2 217.7,579.2 211.7,579.2" fill="rgb(255,255,255)"/>
<polygon points="217.7,573.2 223.7,573.2 223.7,579.2 217.7,579.2" fill="rgb(255,255,255)"/>
<polygon points="223.7,573.2 229.7,573.2 229.7,579.2 223.7,579.2" fill="rgb(255,255,255)"/>
<polygon points="229.7,573.2 235.7,573.2 235.7,579.2 229.7,579.2" fill="rgb(255,255,255)"/>
<polygon points="238.7,573.2 244.7,573.2 244.7,579.2 238.7,579.2" fill="rgb(70,70,255)"/>
<polygon points="244.7,573.2 250.7,573.2 250.7,579.2 244.7,579.2" fill="rgb(41,41,255)"/>
<polygon points="250.7,573.2 256.7,573.2 256.7,579.2 250.7,579.2" fill="rgb(255,219,219)"/>
<polygon points="256.7,573.2 262.7,573.2 262.7,579.2 256.7,579.2" fill="rgb(255,212,212)"/>
<polygon points="262.7,573.2 268.7,573.2 268.7,579.2 262.7,579.2" fill="rgb(255,247,247)"/>
<polygon points="268.7,573.2 274.7,573.2 274.7,579.2 268.7,579.2" fill="rgb(209,209,255)"/>
<polygon points="274.7,573.2 280.7,573.2 280.7,579.2 274.7,579.2" fill="rgb(0,0,255)"/>
<polygon points="280.7,573.2 286.7,573.2 286.7,579.2 280.7,579.2" fill="rgb(252,252,255)"/>
<polygon points="286.7,573.2 292.7,573.2 292.7,579.2 286.7,579.2" fill="rgb(41,41,255)"/>
<polygon points="292.7,573.2 298.7,573.2 298.7,579.2 292.7,579.2" fill="rgb(103,103,255)"/>
<polygon points="298.7,573.2 304.7,573.2 304.7,579.2 298.7,579.2" fill="rgb(82,82,255)"/>
<polygon points="304.7,573.2 310.7,573.2 310.7,579.2 304.7,579.2" fill="rgb(28,28,255)"/>
<polygon points="310.7,573.2 316.7,573.2 316.7,579.2 310.7,579.2" fill="rgb(31,31,255)"/>
<polygon points="316.7,573.2 322.7,573.2 322.7,579.2 316.7,579.2" fill="rgb(39,39,255)"/>
<polygon points="142.7,579.2 148.7,579.2 148.7,585.2 142.7,585.2" fill="rgb(255,255,255)"/>
<polygon points="148.7,579.2 154.7,579.2 154.7,585.2 148.7,585.2" fill="rgb(255,255,255)"/>
<polygon points="154.7,579.2 160.7,579.2 160.7,585.2 154.7,585.2" fill="rgb(255,255,255)"/>
<polygon points="160.7,579.2 166.7,579.2 166.7,585.2 160.7,585.2" fill="rgb(255,255,255)"/>
<polygon points="166.7,579.2 172.7,579.2 172.7,585.2 166.7,585.2" fill="rgb(255,255,255)"/>
<polygon points="172.7,579.2 178.7,579.2 178.7,585.2 172.7,585.2" fill="rgb(255,255,255)"/>
<polygon points="178.7,579.2 184.7,579.2 184.7,585.2 178.7,585.2" fill="rgb(255,255,255)"/>
<polygon points="187.7,579.2 193.7,579.2 193.7,585.2 187.7,585.2" fill="rgb(255,255,255)"/>
<polygon points="193.7,579.2 199.7,579.2 199.7,585.2 193.7,585.2" fill="rgb(255,255,255)"/>
<polygon points="199.7,579.2 205.7,579.2 205.7,585.2 199.7,585.2" fill="rgb(255,255,255)"/>
<polygon points="205.7,579.2 211.7,579.2 211.7,585.2 205.7,585.2" fill="rgb(255,255,255)"/>
<polygon points="211.7,579.2 217.7,579.2 217.7,585.2 211.7,585.2" fill="rgb(255,255,255)"/>
<polygon points="217.7,579.2 223.7,579.2 223.7,585.2 217.7,585.2" fill="rgb(255,255,255)"/>
<polygon points="223.7,579.2 229.7,579.2 229.7,585.2 223.7,585.2" fill="rgb(255,255,255)"/>
<polygon points="229.7,579.2 235.7,579.2 235.7,585.2 229.7,585.2" fill="rgb(255,255,255)"/>
<polygon points="238.7,579.2 244.7,579.2 244.7,585.2 238.7,585.2" fill="rgb(255,243,243)"/>
<polygon points="244.7,579.2 250.7,579.2 250.7,585.2 244.7,585.2" fill="rgb(255,239,239)"/>
<polygon points="250.7,579.2 256.7,579.2 256.7,585.2 250.7,585.2" fill="rgb(0,0,255)"/>
<polygon points="256.7,579.2 262.7,579.2 262.7,585.2 256.7,585.2" fill="rgb(0,0,255)"/>
<polygon points="262.7,579.2 268.7,579.2 268.7,585.2 262.7,585.2" fill="rgb(255,248,248)"/>
<polygon points="268.7,579.2 274.7,579.2 274.7,585.2 268.7,585.2" fill="rgb(255,237,237)"/>
<polygon points="274.7,579.2 280.7,579.2 280.7,585.2 274.7,585.2" fill="rgb(0,0,255)"/>
<polygon points="280.7,579.2 286.7,579.2 286.7,585.2 280.7,585.2" fill="rgb(0,0,255)"/>
<polygon points="286.7,579.2 292.7,579.2 292.7,585.2 286.7,585.2" fill="rgb(74,74,255)"/>
<polygon points="292.7,579.2 298.7,579.2 298.7,585.2 292.7,585.2" fill="rgb(0,0,255)"/>
<polygon points="298.7,579.2 304.7,579.2 304.7,585.2 298.7,585.2" fill="rgb(255,250,250)"/>
<polygon points="304.7,579.2 310.7,579.2 310.7,585.2 304.7,585.2" fill="rgb(0,0,255)"/>
<polygon points="310.7,579.2 316.7,579.2 316.7,585.2 310.7,585.2" fill="rgb(254,251,251)"/>
<polygon points="316.7,579.2 322.7,579.2 322.7,585.2 316.7,585.2" fill="rgb(255,217,217)"/>
<polygon points="142.7,585.2 148.7,585.2 148.7,591.2 142.7,591.2" fill="rgb(255,255,255)"/>
<polygon points="148.7,585.2 154.7,585.2 154.7,591.2 148.7,591.2" fill="rgb(255,255,255)"/>
<polygon points="154.7,585.2 160.7,585.2 160.7,591.2 154.7,591.2" fill="rgb(255,255,255)"/>
<polygon points="160.7,585.2 166.7,585.2 166.7,591.2 160.7,591.2" fill="rgb(255,255,255)"/>
<polygon points="166.7,585.2 172.7,585.2 172.7,591.2 166.7,591.2" fill="rgb(255,255,255)"/>
<polygon points="172.7,585.2 178.7,585.2 178.7,591.2 172.7,591.2" fill="rgb(255,255,255)"/>
<polygon points="178.7,585.2 184.7,585.2 184.7,591.2 178.7,591.2" fill="rgb(255,255,255)"/>
<polygon points="187.7,585.2 193.7,585.2 193.7,591.2 187.7,591.2" fill="rgb(255,255,255)"/>
<polygon points="193.7,585.2 199.7,585.2 199.7,591.2 193.7,591.2" fill="rgb(255,255,255)"/>
<polygon points="199.7,585.2 205.7,585.2 205.7,591.2 199.7,591.2" fill="rgb(255,255,255)"/>
<polygon points="205.7,585.2 211.7,585.2 211.7,591.2 205.7,591.2" fill="rgb(255,255,255)"/>
<polygon points="211.7,585.2 217.7,585.2 217.7,591.2 211.7,591.2" fill="rgb(255,255,255)"/>
<polygon points="217.7,585.2 223.7,585.2 223.7,591.2 217.7,591.2" fill="rgb(255,255,255)"/>
<polygon points="223.7,585.2 229.7,585.2 229.7,591.2 223.7,591.2" fill="rgb(255,255,255)"/>
<polygon points="229.7,585.2 235.7,585.2 235.7,591.2 229.7,591.2" fill="rgb(255,255,255)"/>
<polygon points="238.7,585.2 244.7,585.2 244.7,591.2 238.7,591.2" fill="rgb(255,246,246)"/>
<polygon points="244.7,585.2 250.7,585.2 250.7,591.2 244.7,591.2" fill="rgb(255,244,244)"/>
<polygon points="250.7,585.2 256.7,585.2 256.7,591.2 250.7,591.2" fill="rgb(255,189,189)"/>
<polygon points="256.7,585.2 262.7,585.2 262.7,591.2 256.7,591.2" fill="rgb(255,193,193)"/>
<polygon points="262.7,585.2 268.7,585.2 268.7,591.2 262.7,591.2" fill="rgb(255,246,246)"/>
<polygon points="268.7,585.2 274.7,585.2 274.7,591.2 268.7,591.2" fill="rgb(255,246,246)"/>
<polygon points="274.7,585.2 280.7,585.2 280.7,591.2 274.7,591.2" fill="rgb(147,147,255)"/>
<polygon points="280.7,585.2 286.7,585.2 286.7,591.2 280.7,591.2" fill="rgb(255,249,249)"/>
<polygon points="286.7,585.2 292.7,585.2 292.7,591.2 286.7,591.2" fill="rgb(255,251,251)"/>
<polygon points="292.7,585.2 298.7,585.2 298.7,591.2 292.7,591.2" fill="rgb(255,249,249)"/>
<polygon points="298.7,585.2 304.7,585.2 304.7,591.2 298.7,591.2" fill="rgb(255,249,249)"/>
<polygon points="304.7,585.2 310.7,585.2 310.7,591.2 304.7,591.2" fill="rgb(136,136,255)"/>
<polygon points="310.7,585.2 316.7,585.2 316.7,591.2 310.7,591.2" fill="rgb(118,118,255)"/>
<polygon points="316.7,585.2 322.7,585.2 322.7,591.2 316.7,591.2" fill="rgb(255,233,233)"/>
<polygon points="142.7,591.2 148.7,591.2 148.7,597.2 142.7,597.2" fill="rgb(255,255,255)"/>
<polygon points="148.7,591.2 154.7,591.2 154.7,597.2 148.7,597.2" fill="rgb(255,255,255)"/>
<polygon points="154.7,591.2 160.7,591.2 160.7,597.2 154.7,597.2" fill="rgb(255,255,255)"/>
<polygon points="160.7,591.2 166.7,591.2 166.7,597.2 160.7,597.2" fill="rgb(255,255,255)"/>
<polygon points="166.7,591.2 172.7,591.2 172.7,597.2 166.7,597.2" fill="rgb(255,255,255)"/>
<polygon points="172.7,591.2 178.7,591.2 178.7,597.2 172.7,597.2" fill="rgb(255,255,255)"/>
<polygon points="178.7,591.2 184.7,591.2 184.7,597.2 178.7,597.2" fill="rgb(255,255,255)"/>
<polygon points="187.7,591.2 193.7,591.2 193.7,597.2 187.7,597.2" fill="rgb(255,255,255)"/>
<polygon points="193.7,591.2 199.7,591.2 199.7,597.2 193.7,597.2" fill="rgb(255,255,255)"/>
<polygon points="199.7,591.2 205.7,591.2 205.7,597.2 199.7,597.2" fill="rgb(255,255,255)"/>
<polygon points="205.7,591.2 211.7,591.2 211.7,597.2 205.7,597.2" fill="rgb(255,255,255)"/>
<polygon points="211.7,591.2 217.7,591.2 217.7,597.2 211.7,597.2" fill="rgb(255,255,255)"/>
<polygon points="217.7,591.2 223.7,591.2 223.7,597.2 217.7,597.2" fill="rgb(255,255,255)"/>
<polygon points="223.7,591.2 229.7,591.2 229.7,597.2 223.7,597.2" fill="rgb(255,255,255)"/>
<polygon points="229.7,591.2 235.7,591.2 235.7,597.2 229.7,597.2" fill="rgb(255,255,255)"/>
<polygon points="238.7,591.2 244.7,591.2 244.7,597.2 238.7,597.2" fill="rgb(0,0,255)"/>
<polygon points="244.7,591.2 250.7,591.2 250.7,597.2 244.7,597.2" fill="rgb(212,212,255)"/>
<polygon points="250.7,591.2 256.7,591.2 256.7,597.2 250.7,597.2" fill="rgb(255,213,213)"/>
<polygon points="256.7,591.2 262.7,591.2 262.7,597.2 256.7,597.2" fill="rgb(255,222,222)"/>
<polygon points="262.7,591.2 268.7,591.2 268.7,597.2 262.7,597.2" fill="rgb(0,0,255)"/>
<polygon points="268.7,591.2 274.7,591.2 274.7,597.2 268.7,597.2" fill="rgb(0,0,255)"/>
<polygon points="274.7,591.2 280.7,591.2 280.7,597.2 274.7,597.2" fill="rgb(0,0,255)"/>
<polygon points="280.7,591.2 286.7,591.2 286.7,597.2 280.7,597.2" fill="rgb(214,214,255)"/>
<polygon points="286.7,591.2 292.7,591.2 292.7,597.2 286.7,597.2" fill="rgb(0,0,255)"/>
<polygon points="292.7,591.2 298.7,591.2 298.7,597.2 292.7,597.2" fill="rgb(0,0,255)"/>
<polygon points="298.7,591.2 304.7,591.2 304.7,597.2 298.7,597.2" fill="rgb(0,0,255)"/>
<polygon points="304.7,591.2 310.7,591.2 310.7,597.2 304.7,597.2" fill="rgb(0,0,255)"/>
<polygon points="310.7,591.2 316.7,591.2 316.7,597.2 310.7,597.2" fill="rgb(0,0,255)"/>
<polygon points="316.7,591.2 322.7,591.2 322.7,597.2 316.7,597.2" fill="rgb(0,0,255)"/>
<polygon points="142.7,438.2 184.7,438.2 184.7,546.2 142.7,546.2" fill="none" stroke="black" stroke-width="0.5"/>
<polygon points="187.7,438.2 235.7,438.2 235.7,546.2 187.7,546.2" fill="none" stroke="black" stroke-width="0.5"/>
<polygon points="238.7,438.2 322.7,438.2 322.7,546.2 238.7,546.2" fill="none" stroke="black" stroke-width="0.5"/>
<polygon points="142.7,549.2 184.7,549.2 184.7,597.2 142.7,597.2" fill="none" stroke="black" stroke-width="0.5"/>
<polygon points="187.7,549.2 235.7,549.2 235.7,597.2 187.7,597.2" fill="none" stroke="black" stroke-width="0.5"/>
<polygon points="238.7,549.2 322.7,549.2 322.7,597.2 238.7,597.2" fill="none" stroke="black" stroke-width="0.5"/>
<text xml:space="preserve" x="191.35" y="629.867" font-family="Arial" font-size="7" text-anchor="middle">enrichments</text>
<polygon points="81.35,637.2 101.35,637.2 101.35,657.2 81.35,657.2" fill="rgb(255,255,255)"/><polygon points="81.35,637.2 101.35,637.2 101.35,657.2 81.35,657.2" fill="none" stroke="black" stroke-width="0.5"/><text xml:space="preserve" x="91.35" y="649.2" font-family="Arial" font-size="5" fill="rgb(0,0,0)" text-anchor="middle">0.0</text>
<polygon points="101.35,637.2 121.35,637.2 121.35,657.2 101.35,657.2" fill="rgb(216,178,216)"/><polygon points="101.35,637.2 121.35,637.2 121.35,657.2 101.35,657.2" fill="none" stroke="black" stroke-width="0.5"/><text xml:space="preserve" x="111.35" y="649.2" font-family="Arial" font-size="5" fill="rgb(0,0,0)" text-anchor="middle">0.3</text>
<polygon points="121.35,637.2 141.35,637.2 141.35,657.2 121.35,657.2" fill="rgb(178,102,178)"/><polygon points="121.35,637.2 141.35,637.2 141.35,657.2 121.35,657.2" fill="none" stroke="black" stroke-width="0.5"/><text xml:space="preserve" x="131.35" y="649.2" font-family="Arial" font-size="5" fill="rgb(0,0,0)" text-anchor="middle">0.6</text>
<polygon points="141.35,637.2 161.35,637.2 161.35,657.2 141.35,657.2" fill="rgb(140,25,140)"/><polygon points="141.35,637.2 161.35,637.2 161.35,657.2 141.35,657.2" fill="none" stroke="black" stroke-width="0.5"/><text xml:space="preserve" x="151.35" y="649.2" font-family="Arial" font-size="5" fill="rgb(255,255,255)" text-anchor="middle">0.9</text>
<polygon points="161.35,637.2 181.35,637.2 181.35,657.2 161.35,657.2" fill="rgb(102,50,153)"/><polygon points="161.35,637.2 181.35,637.2 181.35,657.2 161.35,657.2" fill="none" stroke="black" stroke-width="0.5"/><text xml:space="preserve" x="171.35" y="649.2" font-family="Arial" font-size="5" fill="rgb(255,255,255)" text-anchor="middle">1.2</text>
<polygon points="181.35,637.2 201.35,637.2 201.35,657.2 181.35,657.2" fill="rgb(64,127,191)"/><polygon points="181.35,637.2 201.35,637.2 201.35,657.2 181.35,657.2" fill="none" stroke="black" stroke-width="0.5"/><text xml:space="preserve" x="191.35" y="649.2" font-family="Arial" font-size="5" fill="rgb(255,255,255)" text-anchor="middle">1.5</text>
<polygon points="201.35,637.2 221.35,637.2 221.35,657.2 201.35,657.2" fill="rgb(25,204,229)"/><polygon points="201.35,637.2 221.35,637.2 221.35,657.2 201.35,657.2" fill="none" stroke="black" stroke-width="0.5"/><text xml:space="preserve" x="211.35" y="649.2" font-family="Arial" font-size="5" fill="rgb(0,0,0)" text-anchor="middle">1.8</text>
<polygon points="221.35,637.2 241.35,637.2 241.35,657.2 221.35,657.2" fill="rgb(0,239,239)"/><polygon points="221.35,637.2 241.35,637.2 241.35,657.2 221.35,657.2" fill="none" stroke="black" stroke-width="0.5"/><text xml:space="preserve" x="231.35" y="649.2" font-family="Arial" font-size="5" fill="rgb(0,0,0)" text-anchor="middle">2.1</text>
<polygon points="241.35,637.2 261.35,637.2 261.35,657.2 241.35,657.2" fill="rgb(0,193,193)"/><polygon points="241.35,637.2 261.35,637.2 261.35,657.2 241.35,657.2" fill="none" stroke="black" stroke-width="0.5"/><text xml:space="preserve" x="251.35" y="649.2" font-family="Arial" font-size="5" fill="rgb(0,0,0)" text-anchor="middle">2.4</text>
<polygon points="261.35,637.2 281.35,637.2 281.35,657.2 261.35,657.2" fill="rgb(0,146,146)"/><polygon points="261.35,637.2 281.35,637.2 281.35,657.2 261.35,657.2" fill="none" stroke="black" stroke-width="0.5"/><text xml:space="preserve" x="271.35" y="649.2" font-family="Arial" font-size="5" fill="rgb(255,255,255)" text-anchor="middle">2.7</text>
<polygon points="281.35,637.2 301.35,637.2 301.35,657.2 281.35,657.2" fill="rgb(0,100,100)"/><polygon points="281.35,637.2 301.35,637.2 301.35,657.2 281.35,657.2" fill="none" stroke="black" stroke-width="0.5"/><text xml:space="preserve" x="291.35" y="649.2" font-family="Arial" font-size="5" fill="rgb(255,255,255)" text-anchor="middle">3.0</text>
<text xml:space="preserve" x="191.35" y="689.867" font-family="Arial" font-size="7" text-anchor="middle">expression</text>
<polygon points="81.35,697.2 101.35,697.2 101.35,717.2 81.35,717.2" fill="rgb(0,0,255)"/><polygon points="81.35,697.2 101.35,697.2 101.35,717.2 81.35,717.2" fill="none" stroke="black" stroke-width="0.5"/><text xml:space="preserve" x="91.35" y="709.2" font-family="Arial" font-size="5" fill="rgb(255,255,255)" text-anchor="middle">0.0</text>
<polygon points="101.35,697.2 121.35,697.2 121.35,717.2 101.35,717.2" fill="rgb(255,211,211)"/><polygon points="101.35,697.2 121.35,697.2 121.35,717.2 101.35,717.2" fill="none" stroke="black" stroke-width="0.5"/><text xml:space="preserve" x="111.35" y="709.2" font-family="Arial" font-size="5" fill="rgb(0,0,0)" text-anchor="middle">0.6</text>
<polygon points="121.35,697.2 141.35,697.2 141.35,717.2 121.35,717.2" fill="rgb(255,158,158)"/><polygon points="121.35,697.2 141.35,697.2 141.35,717.2 121.35,717.2" fill="none" stroke="black" stroke-width="0.5"/><text xml:space="preserve" x="131.35" y="709.2" font-family="Arial" font-size="5" fill="rgb(0,0,0)" text-anchor="middle">1.2</text>
<polygon points="141.35,697.2 161.35,697.2 161.35,717.2 141.35,717.2" fill="rgb(255,105,105)"/><polygon points="141.35,697.2 161.35,697.2 161.35,717.2 141.35,717.2" fill="none" stroke="black" stroke-width="0.5"/><text xml:space="preserve" x="151.35" y="709.2" font-family="Arial" font-size="5" fill="rgb(0,0,0)" text-anchor="middle">1.8</text>
<polygon points="161.35,697.2 181.35,697.2 181.35,717.2 161.35,717.2" fill="rgb(255,52,52)"/><polygon points="161.35,697.2 181.35,697.2 181.35,717.2 161.35,717.2" fill="none" stroke="black" stroke-width="0.5"/><text xml:space="preserve" x="171.35" y="709.2" font-family="Arial" font-size="5" fill="rgb(255,255,255)" text-anchor="middle">2.4</text>
<polygon points="181.35,697.2 201.35,697.2 201.35,717.2 181.35,717.2" fill="rgb(255,0,0)"/><polygon points="181.35,697.2 201.35,697.2 201.35,717.2 181.35,717.2" fill="none" stroke="black" stroke-width="0.5"/><text xml:space="preserve" x="191.35" y="709.2" font-family="Arial" font-size="5" fill="rgb(255,255,255)" text-anchor="middle">3.0</text>
<polygon points="201.35,697.2 221.35,697.2 221.35,717.2 201.35,717.2" fill="rgb(231,0,0)"/><polygon points="201.35,697.2 221.35,697.2 221.35,717.2 201.35,717.2" fill="none" stroke="black" stroke-width="0.5"/><text xml:space="preserve" x="211.35" y="709.2" font-family="Arial" font-size="5" fill="rgb(255,255,255)" text-anchor="middle">3.6</text>
<polygon points="221.35,697.2 241.35,697.2 241.35,717.2 221.35,717.2" fill="rgb(208,0,0)"/><polygon points="221.35,697.2 241.35,697.2 241.35,717.2 221.35,717.2" fill="none" stroke="black" stroke-width="0.5"/><text xml:space="preserve" x="231.35" y="709.2" font-family="Arial" font-size="5" fill="rgb(255,255,255)" text-anchor="middle">4.2</text>
<polygon points="241.35,697.2 261.35,697.2 261.35,717.2 241.35,717.2" fill="rgb(185,0,0)"/><polygon points="241.35,697.2 261.35,697.2 261.35,717.2 241.35,717.2" fill="none" stroke="black" stroke-width="0.5"/><text xml:space="preserve" x="251.35" y="709.2" font-family="Arial" font-size="5" fill="rgb(255,255,255)" text-anchor="middle">4.8</text>
<polygon points="261.35,697.2 281.35,697.2 281.35,717.2 261.35,717.2" fill="rgb(162,0,0)"/><polygon points="261.35,697.2 281.35,697.2 281.35,717.2 261.35,717.2" fill="none" stroke="black" stroke-width="0.5"/><text xml:space="preserve" x="271.35" y="709.2" font-family="Arial" font-size="5" fill="rgb(255,255,255)" text-anchor="middle">5.4</text>
<polygon points="281.35,697.2 301.35,697.2 301.35,717.2 281.35,717.2" fill="rgb(139,0,0)"/><polygon points="281.35,697.2 301.35,697.2 301.35,717.2 281.35,717.2" fill="none" stroke="black" stroke-width="0.5"/><text xml:space="preserve" x="291.35" y="709.2" font-family="Arial" font-size="5" fill="rgb(255,255,255)" text-anchor="middle">6.0</text>
</svg>
