<?xml version="1.0" standalone="no"?><!DOCTYPE svg PUBLIC "-//W3C//DTD SVG 1.1//EN" "http://www.w3.org/Graphics/SVG/1.1/DTD/svg11.dtd">
<svg width="386.3" height="349.3" version="1.1" xmlns="http://www.w3.org/2000/svg">
<text xml:space="preserve" x="142.3" y="151.967" font-family="Arial" font-size="7" text-anchor="end">Dlat</text>
<text xml:space="preserve" x="142.3" y="157.967" font-family="Arial" font-size="7" text-anchor="end">Idh3a</text>
<text xml:space="preserve" x="142.3" y="163.967" font-family="Arial" font-size="7" text-anchor="end">Grsf1</text>
<text xml:space="preserve" x="142.3" y="169.967" font-family="Arial" font-size="7" text-anchor="end">Eef1e1</text>
<text xml:space="preserve" x="142.3" y="175.967" font-family="Arial" font-size="7" text-anchor="end">Fam49b</text>
<text xml:space="preserve" x="142.3" y="181.967" font-family="Arial" font-size="7" text-anchor="end">Vdac2</text>
<text xml:space="preserve" x="142.3" y="187.967" font-family="Arial" font-size="7" text-anchor="end">Rrs1</text>
<text xml:space="preserve" x="142.3" y="196.967" font-family="Arial" font-size="7" text-anchor="end">Elk1_nca:2</text>
<text xml:space="preserve" x="142.3" y="202.967" font-family="Arial" font-size="7" text-anchor="end">Hoxd8_nca:2</text>
<text xml:space="preserve" x="142.3" y="208.967" font-family="Arial" font-size="7" text-anchor="end">Klf3_nca:2</text>
<text xml:space="preserve" x="151.967" y="142.3" font-family="Arial" font-size="7" transform="rotate(270 151.967 142.3)">Elk1_nca:2</text>
<text xml:space="preserve" x="157.967" y="142.3" font-family="Arial" font-size="7" transform="rotate(270 157.967 142.3)">Klf3_nca:2</text>
<text xml:space="preserve" x="163.967" y="142.3" font-family="Arial" font-size="7" transform="rotate(270 163.967 142.3)">Hoxd8_nca:2</text>
<text xml:space="preserve" x="172.967" y="142.3" font-family="Arial" font-size="7" transform="rotate(270 172.967 142.3)">C2</text>
<text xml:space="preserve" x="178.967" y="142.3" font-family="Arial" font-size="7" transform="rotate(270 178.967 142.3)">C7</text>
<text xml:space="preserve" x="184.967" y="142.3" font-family="Arial" font-size="7" transform="rotate(270 184.967 142.3)">C3</text>
<text xml:space="preserve" x="190.967" y="142.3" font-family="Arial" font-size="7" transform="rotate(270 190.967 142.3)">C5</text>
<text xml:space="preserve" x="196.967" y="142.3" font-family="Arial" font-size="7" transform="rotate(270 196.967 142.3)">C12</text>
<text xml:space="preserve" x="202.967" y="142.3" font-family="Arial" font-size="7" transform="rotate(270 202.967 142.3)">C13</text>
<text xml:space="preserve" x="208.967" y="142.3" font-family="Arial" font-size="7" transform="rotate(270 208.967 142.3)">C14</text>
<text xml:space="preserve" x="214.967" y="142.3" font-family="Arial" font-size="7" transform="rotate(270 214.967 142.3)">C11</text>
<text xml:space="preserve" x="220.967" y="142.3" font-family="Arial" font-size="7" transform="rotate(270 220.967 142.3)">C4</text>
<text xml:space="preserve" x="226.967" y="142.3" font-family="Arial" font-size="7" transform="rotate(270 226.967 142.3)">C8</text>
<text xml:space="preserve" x="232.967" y="142.3" font-family="Arial" font-size="7" transform="rotate(270 232.967 142.3)">C6</text>
<text xml:space="preserve" x="238.967" y="142.3" font-family="Arial" font-size="7" transform="rotate(270 238.967 142.3)">C10</text>
<text xml:space="preserve" x="244.967" y="142.3" font-family="Arial" font-size="7" transform="rotate(270 244.967 142.3)">C9</text>
<text xml:space="preserve" x="250.967" y="142.3" font-family="Arial" font-size="7" transform="rotate(270 250.967 142.3)">C1</text>
<polygon points="146.3,146.3 152.3,146.3 152.3,152.3 146.3,152.3" fill="rgb(0,255,255)"/>
<polygon points="152.3,146.3 158.3,146.3 158.3,152.3 152.3,152.3" fill="rgb(255,255,255)"/>
<polygon points="158.3,146.3 164.3,146.3 164.3,152.3 158.3,152.3" fill="rgb(0,255,255)"/>
<polygon points="167.3,146.3 173.3,146.3 173.3,152.3 167.3,152.3" fill="rgb(255,161,161)"/>
<polygon points="173.3,146.3 179.3,146.3 179.3,152.3 173.3,152.3" fill="rgb(255,148,148)"/>
<polygon points="179.3,146.3 185.3,146.3 185.3,152.3 179.3,152.3" fill="rgb(255,164,164)"/>
<polygon points="185.3,146.3 191.3,146.3 191.3,152.3 185.3,152.3" fill="rgb(255,115,115)"/>
<polygon points="191.3,146.3 197.3,146.3 197.3,152.3 191.3,152.3" fill="rgb(254,211,211)"/>
<polygon points="197.3,146.3 203.3,146.3 203.3,152.3 197.3,152.3" fill="rgb(255,208,208)"/>
<polygon points="203.3,146.3 209.3,146.3 209.3,152.3 203.3,152.3" fill="rgb(255,226,226)"/>
<polygon points="209.3,146.3 215.3,146.3 215.3,152.3 209.3,152.3" fill="rgb(255,187,187)"/>
<polygon points="215.3,146.3 221.3,146.3 221.3,152.3 215.3,152.3" fill="rgb(255,204,204)"/>
<polygon points="221.3,146.3 227.3,146.3 227.3,152.3 221.3,152.3" fill="rgb(255,160,160)"/>
<polygon points="227.3,146.3 233.3,146.3 233.3,152.3 227.3,152.3" fill="rgb(255,121,121)"/>
<polygon points="233.3,146.3 239.3,146.3 239.3,152.3 233.3,152.3" fill="rgb(255,188,188)"/>
<polygon points="239.3,146.3 245.3,146.3 245.3,152.3 239.3,152.3" fill="rgb(255,157,157)"/>
<polygon points="245.3,146.3 251.3,146.3 251.3,152.3 245.3,152.3" fill="rgb(255,161,161)"/>
<polygon points="146.3,152.3 152.3,152.3 152.3,158.3 146.3,158.3" fill="rgb(0,255,255)"/>
<polygon points="152.3,152.3 158.3,152.3 158.3,158.3 152.3,158.3" fill="rgb(0,255,255)"/>
<polygon points="158.3,152.3 164.3,152.3 164.3,158.3 158.3,158.3" fill="rgb(0,255,255)"/>
<polygon points="167.3,152.3 173.3,152.3 173.3,158.3 167.3,158.3" fill="rgb(255,128,128)"/>
<polygon points="173.3,152.3 179.3,152.3 179.3,158.3 173.3,158.3" fill="rgb(255,112,112)"/>
<polygon points="179.3,152.3 185.3,152.3 185.3,158.3 179.3,158.3" fill="rgb(255,129,129)"/>
<polygon points="185.3,152.3 191.3,152.3 191.3,158.3 185.3,158.3" fill="rgb(255,70,70)"/>
<polygon points="191.3,152.3 197.3,152.3 197.3,158.3 191.3,158.3" fill="rgb(255,205,205)"/>
<polygon points="197.3,152.3 203.3,152.3 203.3,158.3 197.3,158.3" fill="rgb(255,214,214)"/>
<polygon points="203.3,152.3 209.3,152.3 209.3,158.3 203.3,158.3" fill="rgb(255,204,204)"/>
<polygon points="209.3,152.3 215.3,152.3 215.3,158.3 209.3,158.3" fill="rgb(255,181,181)"/>
<polygon points="215.3,152.3 221.3,152.3 221.3,158.3 215.3,158.3" fill="rgb(255,197,197)"/>
<polygon points="221.3,152.3 227.3,152.3 227.3,158.3 221.3,158.3" fill="rgb(255,127,127)"/>
<polygon points="227.3,152.3 233.3,152.3 233.3,158.3 227.3,158.3" fill="rgb(255,69,69)"/>
<polygon points="233.3,152.3 239.3,152.3 239.3,158.3 233.3,158.3" fill="rgb(255,138,138)"/>
<polygon points="239.3,152.3 245.3,152.3 245.3,158.3 239.3,158.3" fill="rgb(255,120,120)"/>
<polygon points="245.3,152.3 251.3,152.3 251.3,158.3 245.3,158.3" fill="rgb(255,112,112)"/>
<polygon points="146.3,158.3 152.3,158.3 152.3,164.3 146.3,164.3" fill="rgb(0,255,255)"/>
<polygon points="152.3,158.3 158.3,158.3 158.3,164.3 152.3,164.3" fill="rgb(0,255,255)"/>
<polygon points="158.3,158.3 164.3,158.3 164.3,164.3 158.3,164.3" fill="rgb(0,255,255)"/>
<polygon points="167.3,158.3 173.3,158.3 173.3,164.3 167.3,164.3" fill="rgb(255,172,172)"/>
<polygon points="173.3,158.3 179.3,158.3 179.3,164.3 173.3,164.3" fill="rgb(255,161,161)"/>
<polygon points="179.3,158.3 185.3,158.3 185.3,164.3 179.3,164.3" fill="rgb(255,166,166)"/>
<polygon points="185.3,158.3 191.3,158.3 191.3,164.3 185.3,164.3" fill="rgb(255,115,115)"/>
<polygon points="191.3,158.3 197.3,158.3 197.3,164.3 191.3,164.3" fill="rgb(255,218,218)"/>
<polygon points="197.3,158.3 203.3,158.3 203.3,164.3 197.3,164.3" fill="rgb(255,193,193)"/>
<polygon points="203.3,158.3 209.3,158.3 209.3,164.3 203.3,164.3" fill="rgb(255,210,210)"/>
<polygon points="209.3,158.3 215.3,158.3 215.3,164.3 209.3,164.3" fill="rgb(255,162,162)"/>
<polygon points="215.3,158.3 221.3,158.3 221.3,164.3 215.3,164.3" fill="rgb(255,183,183)"/>
<polygon points="221.3,158.3 227.3,158.3 227.3,164.3 221.3,164.3" fill="rgb(255,123,123)"/>
<polygon points="227.3,158.3 233.3,158.3 233.3,164.3 227.3,164.3" fill="rgb(255,86,86)"/>
<polygon points="233.3,158.3 239.3,158.3 239.3,164.3 233.3,164.3" fill="rgb(255,162,162)"/>
<polygon points="239.3,158.3 245.3,158.3 245.3,164.3 239.3,164.3" fill="rgb(255,139,139)"/>
<polygon points="245.3,158.3 251.3,158.3 251.3,164.3 245.3,164.3" fill="rgb(255,154,154)"/>
<polygon points="146.3,164.3 152.3,164.3 152.3,170.3 146.3,170.3" fill="rgb(0,255,255)"/>
<polygon points="152.3,164.3 158.3,164.3 158.3,170.3 152.3,170.3" fill="rgb(0,255,255)"/>
<polygon points="158.3,164.3 164.3,164.3 164.3,170.3 158.3,170.3" fill="rgb(255,255,255)"/>
<polygon points="167.3,164.3 173.3,164.3 173.3,170.3 167.3,170.3" fill="rgb(255,171,171)"/>
<polygon points="173.3,164.3 179.3,164.3 179.3,170.3 173.3,170.3" fill="rgb(255,156,156)"/>
<polygon points="179.3,164.3 185.3,164.3 185.3,170.3 179.3,170.3" fill="rgb(255,157,157)"/>
<polygon points="185.3,164.3 191.3,164.3 191.3,170.3 185.3,170.3" fill="rgb(255,108,108)"/>
<polygon points="191.3,164.3 197.3,164.3 197.3,170.3 191.3,170.3" fill="rgb(255,214,214)"/>
<polygon points="197.3,164.3 203.3,164.3 203.3,170.3 197.3,170.3" fill="rgb(255,239,239)"/>
<polygon points="203.3,164.3 209.3,164.3 209.3,170.3 203.3,170.3" fill="rgb(255,215,215)"/>
<polygon points="209.3,164.3 215.3,164.3 215.3,170.3 209.3,170.3" fill="rgb(255,188,188)"/>
<polygon points="215.3,164.3 221.3,164.3 221.3,170.3 215.3,170.3" fill="rgb(254,207,207)"/>
<polygon points="221.3,164.3 227.3,164.3 227.3,170.3 221.3,170.3" fill="rgb(255,164,164)"/>
<polygon points="227.3,164.3 233.3,164.3 233.3,170.3 227.3,170.3" fill="rgb(255,127,127)"/>
<polygon points="233.3,164.3 239.3,164.3 239.3,170.3 233.3,170.3" fill="rgb(255,172,172)"/>
<polygon points="239.3,164.3 245.3,164.3 245.3,170.3 239.3,170.3" fill="rgb(255,159,159)"/>
<polygon points="245.3,164.3 251.3,164.3 251.3,170.3 245.3,170.3" fill="rgb(255,133,133)"/>
<polygon points="146.3,170.3 152.3,170.3 152.3,176.3 146.3,176.3" fill="rgb(0,255,255)"/>
<polygon points="152.3,170.3 158.3,170.3 158.3,176.3 152.3,176.3" fill="rgb(0,255,255)"/>
<polygon points="158.3,170.3 164.3,170.3 164.3,176.3 158.3,176.3" fill="rgb(255,255,255)"/>
<polygon points="167.3,170.3 173.3,170.3 173.3,176.3 167.3,176.3" fill="rgb(255,182,182)"/>
<polygon points="173.3,170.3 179.3,170.3 179.3,176.3 173.3,176.3" fill="rgb(255,174,174)"/>
<polygon points="179.3,170.3 185.3,170.3 185.3,176.3 179.3,176.3" fill="rgb(255,180,180)"/>
<polygon points="185.3,170.3 191.3,170.3 191.3,176.3 185.3,176.3" fill="rgb(255,144,144)"/>
<polygon points="191.3,170.3 197.3,170.3 197.3,176.3 191.3,176.3" fill="rgb(255,237,237)"/>
<polygon points="197.3,170.3 203.3,170.3 203.3,176.3 197.3,176.3" fill="rgb(255,230,230)"/>
<polygon points="203.3,170.3 209.3,170.3 209.3,176.3 203.3,176.3" fill="rgb(254,238,238)"/>
<polygon points="209.3,170.3 215.3,170.3 215.3,176.3 209.3,176.3" fill="rgb(255,195,195)"/>
<polygon points="215.3,170.3 221.3,170.3 221.3,176.3 215.3,176.3" fill="rgb(255,216,216)"/>
<polygon points="221.3,170.3 227.3,170.3 227.3,176.3 221.3,176.3" fill="rgb(255,176,176)"/>
<polygon points="227.3,170.3 233.3,170.3 233.3,176.3 227.3,176.3" fill="rgb(255,141,141)"/>
<polygon points="233.3,170.3 239.3,170.3 239.3,176.3 233.3,176.3" fill="rgb(255,185,185)"/>
<polygon points="239.3,170.3 245.3,170.3 245.3,176.3 239.3,176.3" fill="rgb(255,168,168)"/>
<polygon points="245.3,170.3 251.3,170.3 251.3,176.3 245.3,176.3" fill="rgb(255,125,125)"/>
<polygon points="146.3,176.3 152.3,176.3 152.3,182.3 146.3,182.3" fill="rgb(0,255,255)"/>
<polygon points="152.3,176.3 158.3,176.3 158.3,182.3 152.3,182.3" fill="rgb(0,255,255)"/>
<polygon points="158.3,176.3 164.3,176.3 164.3,182.3 158.3,182.3" fill="rgb(255,255,255)"/>
<polygon points="167.3,176.3 173.3,176.3 173.3,182.3 167.3,182.3" fill="rgb(255,87,87)"/>
<polygon points="173.3,176.3 179.3,176.3 179.3,182.3 173.3,182.3" fill="rgb(255,87,87)"/>
<polygon points="179.3,176.3 185.3,176.3 185.3,182.3 179.3,182.3" fill="rgb(255,90,90)"/>
<polygon points="185.3,176.3 191.3,176.3 191.3,182.3 185.3,182.3" fill="rgb(255,44,44)"/>
<polygon points="191.3,176.3 197.3,176.3 197.3,182.3 191.3,182.3" fill="rgb(255,140,140)"/>
<polygon points="197.3,176.3 203.3,176.3 203.3,182.3 197.3,182.3" fill="rgb(255,130,130)"/>
<polygon points="203.3,176.3 209.3,176.3 209.3,182.3 203.3,182.3" fill="rgb(255,146,146)"/>
<polygon points="209.3,176.3 215.3,176.3 215.3,182.3 209.3,182.3" fill="rgb(255,122,122)"/>
<polygon points="215.3,176.3 221.3,176.3 221.3,182.3 215.3,182.3" fill="rgb(255,128,128)"/>
<polygon points="221.3,176.3 227.3,176.3 227.3,182.3 221.3,182.3" fill="rgb(255,83,83)"/>
<polygon points="227.3,176.3 233.3,176.3 233.3,182.3 227.3,182.3" fill="rgb(255,54,54)"/>
<polygon points="233.3,176.3 239.3,176.3 239.3,182.3 233.3,182.3" fill="rgb(255,95,95)"/>
<polygon points="239.3,176.3 245.3,176.3 245.3,182.3 239.3,182.3" fill="rgb(255,65,65)"/>
<polygon points="245.3,176.3 251.3,176.3 251.3,182.3 245.3,182.3" fill="rgb(255,65,65)"/>
<polygon points="146.3,182.3 152.3,182.3 152.3,188.3 146.3,188.3" fill="rgb(0,255,255)"/>
<polygon points="152.3,182.3 158.3,182.3 158.3,188.3 152.3,188.3" fill="rgb(255,255,255)"/>
<polygon points="158.3,182.3 164.3,182.3 164.3,188.3 158.3,188.3" fill="rgb(255,255,255)"/>
<polygon points="167.3,182.3 173.3,182.3 173.3,188.3 167.3,188.3" fill="rgb(254,198,198)"/>
<polygon points="173.3,182.3 179.3,182.3 179.3,188.3 173.3,188.3" fill="rgb(255,168,168)"/>
<polygon points="179.3,182.3 185.3,182.3 185.3,188.3 179.3,188.3" fill="rgb(255,185,185)"/>
<polygon points="185.3,182.3 191.3,182.3 191.3,188.3 185.3,188.3" fill="rgb(255,135,135)"/>
<polygon points="191.3,182.3 197.3,182.3 197.3,188.3 191.3,188.3" fill="rgb(255,232,232)"/>
<polygon points="197.3,182.3 203.3,182.3 203.3,188.3 197.3,188.3" fill="rgb(255,236,236)"/>
<polygon points="203.3,182.3 209.3,182.3 209.3,188.3 203.3,188.3" fill="rgb(255,239,239)"/>
<polygon points="209.3,182.3 215.3,182.3 215.3,188.3 209.3,188.3" fill="rgb(255,207,207)"/>
<polygon points="215.3,182.3 221.3,182.3 221.3,188.3 215.3,188.3" fill="rgb(255,224,224)"/>
<polygon points="221.3,182.3 227.3,182.3 227.3,188.3 221.3,188.3" fill="rgb(255,189,189)"/>
<polygon points="227.3,182.3 233.3,182.3 233.3,188.3 227.3,188.3" fill="rgb(255,137,137)"/>
<polygon points="233.3,182.3 239.3,182.3 239.3,188.3 233.3,188.3" fill="rgb(255,187,187)"/>
<polygon points="239.3,182.3 245.3,182.3 245.3,188.3 239.3,188.3" fill="rgb(255,181,181)"/>
<polygon points="245.3,182.3 251.3,182.3 251.3,188.3 245.3,188.3" fill="rgb(255,156,156)"/>
<polygon points="146.3,191.3 152.3,191.3 152.3,197.3 146.3,197.3" fill="rgb(255,255,255)"/>
<polygon points="152.3,191.3 158.3,191.3 158.3,197.3 152.3,197.3" fill="rgb(255,255,255)"/>
<polygon points="158.3,191.3 164.3,191.3 164.3,197.3 158.3,197.3" fill="rgb(255,255,255)"/>
<polygon points="167.3,191.3 173.3,191.3 173.3,197.3 167.3,197.3" fill="rgb(0,0,255)"/>
<polygon points="173.3,191.3 179.3,191.3 179.3,197.3 173.3,197.3" fill="rgb(133,133,255)"/>
<polygon points="179.3,191.3 185.3,191.3 185.3,197.3 179.3,197.3" fill="rgb(255,243,243)"/>
<polygon points="185.3,191.3 191.3,191.3 191.3,197.3 185.3,197.3" fill="rgb(255,204,204)"/>
<polygon points="191.3,191.3 197.3,191.3 197.3,197.3 191.3,197.3" fill="rgb(0,0,255)"/>
<polygon points="197.3,191.3 203.3,191.3 203.3,197.3 197.3,197.3" fill="rgb(0,0,255)"/>
<polygon points="203.3,191.3 209.3,191.3 209.3,197.3 203.3,197.3" fill="rgb(0,0,255)"/>
<polygon points="209.3,191.3 215.3,191.3 215.3,197.3 209.3,197.3" fill="rgb(0,0,255)"/>
<polygon points="215.3,191.3 221.3,191.3 221.3,197.3 215.3,197.3" fill="rgb(0,0,255)"/>
<polygon points="221.3,191.3 227.3,191.3 227.3,197.3 221.3,197.3" fill="rgb(211,211,255)"/>
<polygon points="227.3,191.3 233.3,191.3 233.3,197.3 227.3,197.3" fill="rgb(254,227,227)"/>
<polygon points="233.3,191.3 239.3,191.3 239.3,197.3 233.3,197.3" fill="rgb(0,0,255)"/>
<polygon points="239.3,191.3 245.3,191.3 245.3,197.3 239.3,197.3" fill="rgb(0,0,255)"/>
<polygon points="245.3,191.3 251.3,191.3 251.3,197.3 245.3,197.3" fill="rgb(255,238,238)"/>
<polygon points="146.3,197.3 152.3,197.3 152.3,203.3 146.3,203.3" fill="rgb(255,255,255)"/>
<polygon points="152.3,197.3 158.3,197.3 158.3,203.3 152.3,203.3" fill="rgb(255,255,255)"/>
<polygon points="158.3,197.3 164.3,197.3 164.3,203.3 158.3,203.3" fill="rgb(255,255,255)"/>
<polygon points="167.3,197.3 173.3,197.3 173.3,203.3 167.3,203.3" fill="rgb(255,253,253)"/>
<polygon points="173.3,197.3 179.3,197.3 179.3,203.3 173.3,203.3" fill="rgb(255,242,242)"/>
<polygon points="179.3,197.3 185.3,197.3 185.3,203.3 179.3,203.3" fill="rgb(62,62,255)"/>
<polygon points="185.3,197.3 191.3,197.3 191.3,203.3 185.3,203.3" fill="rgb(255,249,249)"/>
<polygon points="191.3,197.3 197.3,197.3 197.3,203.3 191.3,203.3" fill="rgb(0,0,255)"/>
<polygon points="197.3,197.3 203.3,197.3 203.3,203.3 197.3,203.3" fill="rgb(0,0,255)"/>
<polygon points="203.3,197.3 209.3,197.3 209.3,203.3 203.3,203.3" fill="rgb(0,0,255)"/>
<polygon points="209.3,197.3 215.3,197.3 215.3,203.3 209.3,203.3" fill="rgb(0,0,255)"/>
<polygon points="215.3,197.3 221.3,197.3 221.3,203.3 215.3,203.3" fill="rgb(0,0,255)"/>
<polygon points="221.3,197.3 227.3,197.3 227.3,203.3 221.3,203.3" fill="rgb(255,240,240)"/>
<polygon points="227.3,197.3 233.3,197.3 233.3,203.3 227.3,203.3" fill="rgb(254,203,203)"/>
<polygon points="233.3,197.3 239.3,197.3 239.3,203.3 233.3,203.3" fill="rgb(255,252,252)"/>
<polygon points="239.3,197.3 245.3,197.3 245.3,203.3 239.3,203.3" fill="rgb(255,250,250)"/>
<polygon points="245.3,197.3 251.3,197.3 251.3,203.3 245.3,203.3" fill="rgb(0,0,255)"/>
<polygon points="146.3,203.3 152.3,203.3 152.3,209.3 146.3,209.3" fill="rgb(255,255,255)"/>
<polygon points="152.3,203.3 158.3,203.3 158.3,209.3 152.3,209.3" fill="rgb(255,255,255)"/>
<polygon points="158.3,203.3 164.3,203.3 164.3,209.3 158.3,209.3" fill="rgb(255,255,255)"/>
<polygon points="167.3,203.3 173.3,203.3 173.3,209.3 167.3,209.3" fill="rgb(0,0,255)"/>
<polygon points="173.3,203.3 179.3,203.3 179.3,209.3 173.3,209.3" fill="rgb(0,0,255)"/>
<polygon points="179.3,203.3 185.3,203.3 185.3,209.3 179.3,209.3" fill="rgb(255,251,251)"/>
<polygon points="185.3,203.3 191.3,203.3 191.3,209.3 185.3,209.3" fill="rgb(0,0,255)"/>
<polygon points="191.3,203.3 197.3,203.3 197.3,209.3 191.3,209.3" fill="rgb(255,240,240)"/>
<polygon points="197.3,203.3 203.3,203.3 203.3,209.3 197.3,209.3" fill="rgb(255,182,182)"/>
<polygon points="203.3,203.3 209.3,203.3 209.3,209.3 203.3,209.3" fill="rgb(0,0,255)"/>
<polygon points="209.3,203.3 215.3,203.3 215.3,209.3 209.3,209.3" fill="rgb(255,231,231)"/>
<polygon points="215.3,203.3 221.3,203.3 221.3,209.3 215.3,209.3" fill="rgb(255,232,232)"/>
<polygon points="221.3,203.3 227.3,203.3 227.3,209.3 221.3,209.3" fill="rgb(0,0,255)"/>
<polygon points="227.3,203.3 233.3,203.3 233.3,209.3 227.3,209.3" fill="rgb(0,0,255)"/>
<polygon points="233.3,203.3 239.3,203.3 239.3,209.3 233.3,209.3" fill="rgb(0,0,255)"/>
<polygon points="239.3,203.3 245.3,203.3 245.3,209.3 239.3,209.3" fill="rgb(0,0,255)"/>
<polygon points="245.3,203.3 251.3,203.3 251.3,209.3 245.3,209.3" fill="rgb(0,0,255)"/>
<polygon points="146.3,146.3 164.3,146.3 164.3,188.3 146.3,188.3" fill="none" stroke="black" stroke-width="0.5"/>
<polygon points="167.3,146.3 251.3,146.3 251.3,188.3 167.3,188.3" fill="none" stroke="black" stroke-width="0.5"/>
<polygon points="146.3,191.3 164.3,191.3 164.3,209.3 146.3,209.3" fill="none" stroke="black" stroke-width="0.5"/>
<polygon points="167.3,191.3 251.3,191.3 251.3,209.3 167.3,209.3" fill="none" stroke="black" stroke-width="0.5"/>
<text xml:space="preserve" x="193.15" y="241.967" font-family="Arial" font-size="7" text-anchor="middle">enrichments</text>
<polygon points="83.15,249.3 103.15,249.3 103.15,269.3 83.15,269.3" fill="rgb(255,255,255)"/><polygon points="83.15,249.3 103.15,249.3 103.15,269.3 83.15,269.3" fill="none" stroke="black" stroke-width="0.5"/><text xml:space="preserve" x="93.15" y="261.3" font-family="Arial" font-size="5" fill="rgb(0,0,0)" text-anchor="middle">0.0</text>
<polygon points="103.15,249.3 123.15,249.3 123.15,269.3 103.15,269.3" fill="rgb(216,178,216)"/><polygon points="103.15,249.3 123.15,249.3 123.15,269.3 103.15,269.3" fill="none" stroke="black" stroke-width="0.5"/><text xml:space="preserve" x="113.15" y="261.3" font-family="Arial" font-size="5" fill="rgb(0,0,0)" text-anchor="middle">0.3</text>
<polygon points="123.15,249.3 143.15,249.3 143.15,269.3 123.15,269.3" fill="rgb(178,102,178)"/><polygon points="123.15,249.3 143.15,249.3 143.15,269.3 123.15,269.3" fill="none" stroke="black" stroke-width="0.5"/><text xml:space="preserve" x="133.15" y="261.3" font-family="Arial" font-size="5" fill="rgb(0,0,0)" text-anchor="middle">0.6</text>
<polygon points="143.15,249.3 163.15,249.3 163.15,269.3 143.15,269.3" fill="rgb(140,25,140)"/><polygon points="143.15,249.3 163.15,249.3 163.15,269.3 143.15,269.3" fill="none" stroke="black" stroke-width="0.5"/><text xml:space="preserve" x="153.15" y="261.3" font-family="Arial" font-size="5" fill="rgb(255,255,255)" text-anchor="middle">0.9</text>
<polygon points="163.15,249.3 183.15,249.3 183.15,269.3 163.15,269.3" fill="rgb(102,50,153)"/><polygon points="163.15,249.3 183.15,249.3 183.15,269.3 163.15,269.3" fill="none" stroke="black" stroke-width="0.5"/><text xml:space="preserve" x="173.15" y="261.3" font-family="Arial" font-size="5" fill="rgb(255,255,255)" text-anchor="middle">1.2</text>
<polygon points="183.15,249.3 203.15,249.3 203.15,269.3 183.15,269.3" fill="rgb(64,127,191)"/><polygon points="183.15,249.3 203.15,249.3 203.15,269.3 183.15,269.3" fill="none" stroke="black" stroke-width="0.5"/><text xml:space="preserve" x="193.15" y="261.3" font-family="Arial" font-size="5" fill="rgb(255,255,255)" text-anchor="middle">1.5</text>
<polygon points="203.15,249.3 223.15,249.3 223.15,269.3 203.15,269.3" fill="rgb(25,204,229)"/><polygon points="203.15,249.3 223.15,249.3 223.15,269.3 203.15,269.3" fill="none" stroke="black" stroke-width="0.5"/><text xml:space="preserve" x="213.15" y="261.3" font-family="Arial" font-size="5" fill="rgb(0,0,0)" text-anchor="middle">1.8</text>
<polygon points="223.15,249.3 243.15,249.3 243.15,269.3 223.15,269.3" fill="rgb(0,239,239)"/><polygon points="223.15,249.3 243.15,249.3 243.15,269.3 223.15,269.3" fill="none" stroke="black" stroke-width="0.5"/><text xml:space="preserve" x="233.15" y="261.3" font-family="Arial" font-size="5" fill="rgb(0,0,0)" text-anchor="middle">2.1</text>
<polygon points="243.15,249.3 263.15,249.3 263.15,269.3 243.15,269.3" fill="rgb(0,193,193)"/><polygon points="243.15,249.3 263.15,249.3 263.15,269.3 243.15,269.3" fill="none" stroke="black" stroke-width="0.5"/><text xml:space="preserve" x="253.15" y="261.3" font-family="Arial" font-size="5" fill="rgb(0,0,0)" text-anchor="middle">2.4</text>
<polygon points="263.15,249.3 283.15,249.3 283.15,269.3 263.15,269.3" fill="rgb(0,146,146)"/><polygon points="263.15,249.3 283.15,249.3 283.15,269.3 263.15,269.3" fill="none" stroke="black" stroke-width="0.5"/><text xml:space="preserve" x="273.15" y="261.3" font-family="Arial" font-size="5" fill="rgb(255,255,255)" text-anchor="middle">2.7</text>
<polygon points="283.15,249.3 303.15,249.3 303.15,269.3 283.15,269.3" fill="rgb(0,100,100)"/><polygon points="283.15,249.3 303.15,249.3 303.15,269.3 283.15,269.3" fill="none" stroke="black" stroke-width="0.5"/><text xml:space="preserve" x="293.15" y="261.3" font-family="Arial" font-size="5" fill="rgb(255,255,255)" text-anchor="middle">3.0</text>
<text xml:space="preserve" x="193.15" y="301.967" font-family="Arial" font-size="7" text-anchor="middle">expression</text>
<polygon points="83.15,309.3 103.15,309.3 103.15,329.3 83.15,329.3" fill="rgb(0,0,255)"/><polygon points="83.15,309.3 103.15,309.3 103.15,329.3 83.15,329.3" fill="none" stroke="black" stroke-width="0.5"/><text xml:space="preserve" x="93.15" y="321.3" font-family="Arial" font-size="5" fill="rgb(255,255,255)" text-anchor="middle">0.0</text>
<polygon points="103.15,309.3 123.15,309.3 123.15,329.3 103.15,329.3" fill="rgb(255,211,211)"/><polygon points="103.15,309.3 123.15,309.3 123.15,329.3 103.15,329.3" fill="none" stroke="black" stroke-width="0.5"/><text xml:space="preserve" x="113.15" y="321.3" font-family="Arial" font-size="5" fill="rgb(0,0,0)" text-anchor="middle">0.6</text>
<polygon points="123.15,309.3 143.15,309.3 143.15,329.3 123.15,329.3" fill="rgb(255,158,158)"/><polygon points="123.15,309.3 143.15,309.3 143.15,329.3 123.15,329.3" fill="none" stroke="black" stroke-width="0.5"/><text xml:space="preserve" x="133.15" y="321.3" font-family="Arial" font-size="5" fill="rgb(0,0,0)" text-anchor="middle">1.2</text>
<polygon points="143.15,309.3 163.15,309.3 163.15,329.3 143.15,329.3" fill="rgb(255,105,105)"/><polygon points="143.15,309.3 163.15,309.3 163.15,329.3 143.15,329.3" fill="none" stroke="black" stroke-width="0.5"/><text xml:space="preserve" x="153.15" y="321.3" font-family="Arial" font-size="5" fill="rgb(0,0,0)" text-anchor="middle">1.8</text>
<polygon points="163.15,309.3 183.15,309.3 183.15,329.3 163.15,329.3" fill="rgb(255,52,52)"/><polygon points="163.15,309.3 183.15,309.3 183.15,329.3 163.15,329.3" fill="none" stroke="black" stroke-width="0.5"/><text xml:space="preserve" x="173.15" y="321.3" font-family="Arial" font-size="5" fill="rgb(255,255,255)" text-anchor="middle">2.4</text>
<polygon points="183.15,309.3 203.15,309.3 203.15,329.3 183.15,329.3" fill="rgb(255,0,0)"/><polygon points="183.15,309.3 203.15,309.3 203.15,329.3 183.15,329.3" fill="none" stroke="black" stroke-width="0.5"/><text xml:space="preserve" x="193.15" y="321.3" font-family="Arial" font-size="5" fill="rgb(255,255,255)" text-anchor="middle">3.0</text>
<polygon points="203.15,309.3 223.15,309.3 223.15,329.3 203.15,329.3" fill="rgb(231,0,0)"/><polygon points="203.15,309.3 223.15,309.3 223.15,329.3 203.15,329.3" fill="none" stroke="black" stroke-width="0.5"/><text xml:space="preserve" x="213.15" y="321.3" font-family="Arial" font-size="5" fill="rgb(255,255,255)" text-anchor="middle">3.6</text>
<polygon points="223.15,309.3 243.15,309.3 243.15,329.3 223.15,329.3" fill="rgb(208,0,0)"/><polygon points="223.15,309.3 243.15,309.3 243.15,329.3 223.15,329.3" fill="none" stroke="black" stroke-width="0.5"/><text xml:space="preserve" x="233.15" y="321.3" font-family="Arial" font-size="5" fill="rgb(255,255,255)" text-anchor="middle">4.2</text>
<polygon points="243.15,309.3 263.15,309.3 263.15,329.3 243.15,329.3" fill="rgb(185,0,0)"/><polygon points="243.15,309.3 263.15,309.3 263.15,329.3 243.15,329.3" fill="none" stroke="black" stroke-width="0.5"/><text xml:space="preserve" x="253.15" y="321.3" font-family="Arial" font-size="5" fill="rgb(255,255,255)" text-anchor="middle">4.8</text>
<polygon points="263.15,309.3 283.15,309.3 283.15,329.3 263.15,329.3" fill="rgb(162,0,0)"/><polygon points="263.15,309.3 283.15,309.3 283.15,329.3 263.15,329.3" fill="none" stroke="black" stroke-width="0.5"/><text xml:space="preserve" x="273.15" y="321.3" font-family="Arial" font-size="5" fill="rgb(255,255,255)" text-anchor="middle">5.4</text>
<polygon points="283.15,309.3 303.15,309.3 303.15,329.3 283.15,329.3" fill="rgb(139,0,0)"/><polygon points="283.15,309.3 303.15,309.3 303.15,329.3 283.15,329.3" fill="none" stroke="black" stroke-width="0.5"/><text xml:space="preserve" x="293.15" y="321.3" font-family="Arial" font-size="5" fill="rgb(255,255,255)" text-anchor="middle">6.0</text>
</svg>
