<?xml version="1.0" standalone="no"?><!DOCTYPE svg PUBLIC "-//W3C//DTD SVG 1.1//EN" "http://www.w3.org/Graphics/SVG/1.1/DTD/svg11.dtd">
<svg width="380.8" height="876.1" version="1.1" xmlns="http://www.w3.org/2000/svg">
<text xml:space="preserve" x="128.8" y="618.767" font-family="Arial" font-size="7" text-anchor="end">Adsl</text>
<text xml:space="preserve" x="128.8" y="624.767" font-family="Arial" font-size="7" text-anchor="end">Nolc1</text>
<text xml:space="preserve" x="128.8" y="630.767" font-family="Arial" font-size="7" text-anchor="end">Rabggtb</text>
<text xml:space="preserve" x="128.8" y="636.767" font-family="Arial" font-size="7" text-anchor="end">Stip1</text>
<text xml:space="preserve" x="128.8" y="642.767" font-family="Arial" font-size="7" text-anchor="end">Pfas</text>
<text xml:space="preserve" x="128.8" y="648.767" font-family="Arial" font-size="7" text-anchor="end">Noc2l</text>
<text xml:space="preserve" x="128.8" y="654.767" font-family="Arial" font-size="7" text-anchor="end">Thop1</text>
<text xml:space="preserve" x="128.8" y="660.767" font-family="Arial" font-size="7" text-anchor="end">Atad3a</text>
<text xml:space="preserve" x="128.8" y="666.767" font-family="Arial" font-size="7" text-anchor="end">Gnl3</text>
<text xml:space="preserve" x="128.8" y="672.767" font-family="Arial" font-size="7" text-anchor="end">Kat2a</text>
<text xml:space="preserve" x="128.8" y="678.767" font-family="Arial" font-size="7" text-anchor="end">Ddx27</text>
<text xml:space="preserve" x="128.8" y="684.767" font-family="Arial" font-size="7" text-anchor="end">Prmt5</text>
<text xml:space="preserve" x="128.8" y="690.767" font-family="Arial" font-size="7" text-anchor="end">Wdr5</text>
<text xml:space="preserve" x="128.8" y="696.767" font-family="Arial" font-size="7" text-anchor="end">Tcof1</text>
<text xml:space="preserve" x="128.8" y="702.767" font-family="Arial" font-size="7" text-anchor="end">Pes1</text>
<text xml:space="preserve" x="128.8" y="708.767" font-family="Arial" font-size="7" text-anchor="end">Fkbp4</text>
<text xml:space="preserve" x="128.8" y="714.767" font-family="Arial" font-size="7" text-anchor="end">Ak2</text>
<text xml:space="preserve" x="128.8" y="723.767" font-family="Arial" font-size="7" text-anchor="end">Hsf4_nca:2</text>
<text xml:space="preserve" x="128.8" y="729.767" font-family="Arial" font-size="7" text-anchor="end">Max_nca:2</text>
<text xml:space="preserve" x="128.8" y="735.767" font-family="Arial" font-size="7" text-anchor="end">Tcfl5_nca:2</text>
<text xml:space="preserve" x="138.467" y="609.1" font-family="Arial" font-size="7" transform="rotate(270 138.467 609.1)">nucleobase-containing_small_molecule_metabolic_process:1</text>
<text xml:space="preserve" x="144.467" y="609.1" font-family="Arial" font-size="7" transform="rotate(270 144.467 609.1)">ribonucleotide_metabolic_process:1</text>
<text xml:space="preserve" x="150.467" y="609.1" font-family="Arial" font-size="7" transform="rotate(270 150.467 609.1)">purine_ribonucleotide_metabolic_process:1</text>
<text xml:space="preserve" x="156.467" y="609.1" font-family="Arial" font-size="7" transform="rotate(270 156.467 609.1)">purine_nucleotide_metabolic_process:1</text>
<text xml:space="preserve" x="162.467" y="609.1" font-family="Arial" font-size="7" transform="rotate(270 162.467 609.1)">nucleoside_phosphate_metabolic_process:1</text>
<text xml:space="preserve" x="168.467" y="609.1" font-family="Arial" font-size="7" transform="rotate(270 168.467 609.1)">purine-containing_compound_metabolic_process:1</text>
<text xml:space="preserve" x="174.467" y="609.1" font-family="Arial" font-size="7" transform="rotate(270 174.467 609.1)">nucleotide_metabolic_process:1</text>
<text xml:space="preserve" x="180.467" y="609.1" font-family="Arial" font-size="7" transform="rotate(270 180.467 609.1)">nucleotide_biosynthetic_process:1</text>
<text xml:space="preserve" x="186.467" y="609.1" font-family="Arial" font-size="7" transform="rotate(270 186.467 609.1)">purine_nucleotide_biosynthetic_process:1</text>
<text xml:space="preserve" x="192.467" y="609.1" font-family="Arial" font-size="7" transform="rotate(270 192.467 609.1)">nucleoside_monophosphate_metabolic_process:1</text>
<text xml:space="preserve" x="198.467" y="609.1" font-family="Arial" font-size="7" transform="rotate(270 198.467 609.1)">ribonucleotide_biosynthetic_process:1</text>
<text xml:space="preserve" x="204.467" y="609.1" font-family="Arial" font-size="7" transform="rotate(270 204.467 609.1)">ribonucleoside_monophosphate_metabolic_process:1</text>
<text xml:space="preserve" x="210.467" y="609.1" font-family="Arial" font-size="7" transform="rotate(270 210.467 609.1)">purine-containing_compound_biosynthetic_process:1</text>
<text xml:space="preserve" x="216.467" y="609.1" font-family="Arial" font-size="7" transform="rotate(270 216.467 609.1)">purine_ribonucleotide_biosynthetic_process:1</text>
<text xml:space="preserve" x="222.467" y="609.1" font-family="Arial" font-size="7" transform="rotate(270 222.467 609.1)">purine_ribonucleoside_monophosphate_metabolic_process:1</text>
<text xml:space="preserve" x="228.467" y="609.1" font-family="Arial" font-size="7" transform="rotate(270 228.467 609.1)">nucleobase-containing_compound_biosynthetic_process:1</text>
<text xml:space="preserve" x="234.467" y="609.1" font-family="Arial" font-size="7" transform="rotate(270 234.467 609.1)">purine_nucleoside_monophosphate_metabolic_process:1</text>
<text xml:space="preserve" x="240.467" y="609.1" font-family="Arial" font-size="7" transform="rotate(270 240.467 609.1)">heterocycle_biosynthetic_process:1</text>
<text xml:space="preserve" x="246.467" y="609.1" font-family="Arial" font-size="7" transform="rotate(270 246.467 609.1)">cellular_nitrogen_compound_biosynthetic_process:1</text>
<text xml:space="preserve" x="252.467" y="609.1" font-family="Arial" font-size="7" transform="rotate(270 252.467 609.1)">peptidyl-amino_acid_modification:1</text>
<text xml:space="preserve" x="261.467" y="609.1" font-family="Arial" font-size="7" transform="rotate(270 261.467 609.1)">Hsf4_nca:2</text>
<text xml:space="preserve" x="267.467" y="609.1" font-family="Arial" font-size="7" transform="rotate(270 267.467 609.1)">Tcfl5_nca:2</text>
<text xml:space="preserve" x="273.467" y="609.1" font-family="Arial" font-size="7" transform="rotate(270 273.467 609.1)">Max_nca:2</text>
<text xml:space="preserve" x="282.467" y="609.1" font-family="Arial" font-size="7" transform="rotate(270 282.467 609.1)">C2</text>
<text xml:space="preserve" x="288.467" y="609.1" font-family="Arial" font-size="7" transform="rotate(270 288.467 609.1)">C7</text>
<text xml:space="preserve" x="294.467" y="609.1" font-family="Arial" font-size="7" transform="rotate(270 294.467 609.1)">C3</text>
<text xml:space="preserve" x="300.467" y="609.1" font-family="Arial" font-size="7" transform="rotate(270 300.467 609.1)">C5</text>
<text xml:space="preserve" x="306.467" y="609.1" font-family="Arial" font-size="7" transform="rotate(270 306.467 609.1)">C12</text>
<text xml:space="preserve" x="312.467" y="609.1" font-family="Arial" font-size="7" transform="rotate(270 312.467 609.1)">C13</text>
<text xml:space="preserve" x="318.467" y="609.1" font-family="Arial" font-size="7" transform="rotate(270 318.467 609.1)">C14</text>
<text xml:space="preserve" x="324.467" y="609.1" font-family="Arial" font-size="7" transform="rotate(270 324.467 609.1)">C11</text>
<text xml:space="preserve" x="330.467" y="609.1" font-family="Arial" font-size="7" transform="rotate(270 330.467 609.1)">C4</text>
<text xml:space="preserve" x="336.467" y="609.1" font-family="Arial" font-size="7" transform="rotate(270 336.467 609.1)">C8</text>
<text xml:space="preserve" x="342.467" y="609.1" font-family="Arial" font-size="7" transform="rotate(270 342.467 609.1)">C6</text>
<text xml:space="preserve" x="348.467" y="609.1" font-family="Arial" font-size="7" transform="rotate(270 348.467 609.1)">C10</text>
<text xml:space="preserve" x="354.467" y="609.1" font-family="Arial" font-size="7" transform="rotate(270 354.467 609.1)">C9</text>
<text xml:space="preserve" x="360.467" y="609.1" font-family="Arial" font-size="7" transform="rotate(270 360.467 609.1)">C1</text>
<polygon points="132.8,613.1 138.8,613.1 138.8,619.1 132.8,619.1" fill="rgb(128,0,128)"/>
<polygon points="138.8,613.1 144.8,613.1 144.8,619.1 138.8,619.1" fill="rgb(128,0,128)"/>
<polygon points="144.8,613.1 150.8,613.1 150.8,619.1 144.8,619.1" fill="rgb(128,0,128)"/>
<polygon points="150.8,613.1 156.8,613.1 156.8,619.1 150.8,619.1" fill="rgb(128,0,128)"/>
<polygon points="156.8,613.1 162.8,613.1 162.8,619.1 156.8,619.1" fill="rgb(128,0,128)"/>
<polygon points="162.8,613.1 168.8,613.1 168.8,619.1 162.8,619.1" fill="rgb(128,0,128)"/>
<polygon points="168.8,613.1 174.8,613.1 174.8,619.1 168.8,619.1" fill="rgb(128,0,128)"/>
<polygon points="174.8,613.1 180.8,613.1 180.8,619.1 174.8,619.1" fill="rgb(128,0,128)"/>
<polygon points="180.8,613.1 186.8,613.1 186.8,619.1 180.8,619.1" fill="rgb(128,0,128)"/>
<polygon points="186.8,613.1 192.8,613.1 192.8,619.1 186.8,619.1" fill="rgb(128,0,128)"/>
<polygon points="192.8,613.1 198.8,613.1 198.8,619.1 192.8,619.1" fill="rgb(128,0,128)"/>
<polygon points="198.8,613.1 204.8,613.1 204.8,619.1 198.8,619.1" fill="rgb(128,0,128)"/>
<polygon points="204.8,613.1 210.8,613.1 210.8,619.1 204.8,619.1" fill="rgb(128,0,128)"/>
<polygon points="210.8,613.1 216.8,613.1 216.8,619.1 210.8,619.1" fill="rgb(128,0,128)"/>
<polygon points="216.8,613.1 222.8,613.1 222.8,619.1 216.8,619.1" fill="rgb(128,0,128)"/>
<polygon points="222.8,613.1 228.8,613.1 228.8,619.1 222.8,619.1" fill="rgb(128,0,128)"/>
<polygon points="228.8,613.1 234.8,613.1 234.8,619.1 228.8,619.1" fill="rgb(128,0,128)"/>
<polygon points="234.8,613.1 240.8,613.1 240.8,619.1 234.8,619.1" fill="rgb(128,0,128)"/>
<polygon points="240.8,613.1 246.8,613.1 246.8,619.1 240.8,619.1" fill="rgb(128,0,128)"/>
<polygon points="246.8,613.1 252.8,613.1 252.8,619.1 246.8,619.1" fill="rgb(255,255,255)"/>
<polygon points="255.8,613.1 261.8,613.1 261.8,619.1 255.8,619.1" fill="rgb(0,255,255)"/>
<polygon points="261.8,613.1 267.8,613.1 267.8,619.1 261.8,619.1" fill="rgb(0,255,255)"/>
<polygon points="267.8,613.1 273.8,613.1 273.8,619.1 267.8,619.1" fill="rgb(255,255,255)"/>
<polygon points="276.8,613.1 282.8,613.1 282.8,619.1 276.8,619.1" fill="rgb(255,195,195)"/>
<polygon points="282.8,613.1 288.8,613.1 288.8,619.1 282.8,619.1" fill="rgb(255,181,181)"/>
<polygon points="288.8,613.1 294.8,613.1 294.8,619.1 288.8,619.1" fill="rgb(255,174,174)"/>
<polygon points="294.8,613.1 300.8,613.1 300.8,619.1 294.8,619.1" fill="rgb(255,145,145)"/>
<polygon points="300.8,613.1 306.8,613.1 306.8,619.1 300.8,619.1" fill="rgb(255,213,213)"/>
<polygon points="306.8,613.1 312.8,613.1 312.8,619.1 306.8,619.1" fill="rgb(255,238,238)"/>
<polygon points="312.8,613.1 318.8,613.1 318.8,619.1 312.8,619.1" fill="rgb(255,224,224)"/>
<polygon points="318.8,613.1 324.8,613.1 324.8,619.1 318.8,619.1" fill="rgb(255,206,206)"/>
<polygon points="324.8,613.1 330.8,613.1 330.8,619.1 324.8,619.1" fill="rgb(255,220,220)"/>
<polygon points="330.8,613.1 336.8,613.1 336.8,619.1 330.8,619.1" fill="rgb(255,180,180)"/>
<polygon points="336.8,613.1 342.8,613.1 342.8,619.1 336.8,619.1" fill="rgb(255,133,133)"/>
<polygon points="342.8,613.1 348.8,613.1 348.8,619.1 342.8,619.1" fill="rgb(255,184,184)"/>
<polygon points="348.8,613.1 354.8,613.1 354.8,619.1 348.8,619.1" fill="rgb(254,150,150)"/>
<polygon points="354.8,613.1 360.8,613.1 360.8,619.1 354.8,619.1" fill="rgb(255,148,148)"/>
<polygon points="132.8,619.1 138.8,619.1 138.8,625.1 132.8,625.1" fill="rgb(255,255,255)"/>
<polygon points="138.8,619.1 144.8,619.1 144.8,625.1 138.8,625.1" fill="rgb(255,255,255)"/>
<polygon points="144.8,619.1 150.8,619.1 150.8,625.1 144.8,625.1" fill="rgb(255,255,255)"/>
<polygon points="150.8,619.1 156.8,619.1 156.8,625.1 150.8,625.1" fill="rgb(255,255,255)"/>
<polygon points="156.8,619.1 162.8,619.1 162.8,625.1 156.8,625.1" fill="rgb(255,255,255)"/>
<polygon points="162.8,619.1 168.8,619.1 168.8,625.1 162.8,625.1" fill="rgb(255,255,255)"/>
<polygon points="168.8,619.1 174.8,619.1 174.8,625.1 168.8,625.1" fill="rgb(255,255,255)"/>
<polygon points="174.8,619.1 180.8,619.1 180.8,625.1 174.8,625.1" fill="rgb(255,255,255)"/>
<polygon points="180.8,619.1 186.8,619.1 186.8,625.1 180.8,625.1" fill="rgb(255,255,255)"/>
<polygon points="186.8,619.1 192.8,619.1 192.8,625.1 186.8,625.1" fill="rgb(255,255,255)"/>
<polygon points="192.8,619.1 198.8,619.1 198.8,625.1 192.8,625.1" fill="rgb(255,255,255)"/>
<polygon points="198.8,619.1 204.8,619.1 204.8,625.1 198.8,625.1" fill="rgb(255,255,255)"/>
<polygon points="204.8,619.1 210.8,619.1 210.8,625.1 204.8,625.1" fill="rgb(255,255,255)"/>
<polygon points="210.8,619.1 216.8,619.1 216.8,625.1 210.8,625.1" fill="rgb(255,255,255)"/>
<polygon points="216.8,619.1 222.8,619.1 222.8,625.1 216.8,625.1" fill="rgb(255,255,255)"/>
<polygon points="222.8,619.1 228.8,619.1 228.8,625.1 222.8,625.1" fill="rgb(255,255,255)"/>
<polygon points="228.8,619.1 234.8,619.1 234.8,625.1 228.8,625.1" fill="rgb(255,255,255)"/>
<polygon points="234.8,619.1 240.8,619.1 240.8,625.1 234.8,625.1" fill="rgb(255,255,255)"/>
<polygon points="240.8,619.1 246.8,619.1 246.8,625.1 240.8,625.1" fill="rgb(255,255,255)"/>
<polygon points="246.8,619.1 252.8,619.1 252.8,625.1 246.8,625.1" fill="rgb(255,255,255)"/>
<polygon points="255.8,619.1 261.8,619.1 261.8,625.1 255.8,625.1" fill="rgb(0,255,255)"/>
<polygon points="261.8,619.1 267.8,619.1 267.8,625.1 261.8,625.1" fill="rgb(0,255,255)"/>
<polygon points="267.8,619.1 273.8,619.1 273.8,625.1 267.8,625.1" fill="rgb(255,255,255)"/>
<polygon points="276.8,619.1 282.8,619.1 282.8,625.1 276.8,625.1" fill="rgb(254,183,183)"/>
<polygon points="282.8,619.1 288.8,619.1 288.8,625.1 282.8,625.1" fill="rgb(255,167,167)"/>
<polygon points="288.8,619.1 294.8,619.1 294.8,625.1 288.8,625.1" fill="rgb(255,153,153)"/>
<polygon points="294.8,619.1 300.8,619.1 300.8,625.1 294.8,625.1" fill="rgb(255,113,113)"/>
<polygon points="300.8,619.1 306.8,619.1 306.8,625.1 300.8,625.1" fill="rgb(255,214,214)"/>
<polygon points="306.8,619.1 312.8,619.1 312.8,625.1 306.8,625.1" fill="rgb(255,231,231)"/>
<polygon points="312.8,619.1 318.8,619.1 318.8,625.1 312.8,625.1" fill="rgb(255,220,220)"/>
<polygon points="318.8,619.1 324.8,619.1 324.8,625.1 318.8,625.1" fill="rgb(255,191,191)"/>
<polygon points="324.8,619.1 330.8,619.1 330.8,625.1 324.8,625.1" fill="rgb(255,208,208)"/>
<polygon points="330.8,619.1 336.8,619.1 336.8,625.1 330.8,625.1" fill="rgb(255,167,167)"/>
<polygon points="336.8,619.1 342.8,619.1 342.8,625.1 336.8,625.1" fill="rgb(255,114,114)"/>
<polygon points="342.8,619.1 348.8,619.1 348.8,625.1 342.8,625.1" fill="rgb(255,138,138)"/>
<polygon points="348.8,619.1 354.8,619.1 354.8,625.1 348.8,625.1" fill="rgb(255,115,115)"/>
<polygon points="354.8,619.1 360.8,619.1 360.8,625.1 354.8,625.1" fill="rgb(255,97,97)"/>
<polygon points="132.8,625.1 138.8,625.1 138.8,631.1 132.8,631.1" fill="rgb(255,255,255)"/>
<polygon points="138.8,625.1 144.8,625.1 144.8,631.1 138.8,631.1" fill="rgb(255,255,255)"/>
<polygon points="144.8,625.1 150.8,625.1 150.8,631.1 144.8,631.1" fill="rgb(255,255,255)"/>
<polygon points="150.8,625.1 156.8,625.1 156.8,631.1 150.8,631.1" fill="rgb(255,255,255)"/>
<polygon points="156.8,625.1 162.8,625.1 162.8,631.1 156.8,631.1" fill="rgb(255,255,255)"/>
<polygon points="162.8,625.1 168.8,625.1 168.8,631.1 162.8,631.1" fill="rgb(255,255,255)"/>
<polygon points="168.8,625.1 174.8,625.1 174.8,631.1 168.8,631.1" fill="rgb(255,255,255)"/>
<polygon points="174.8,625.1 180.8,625.1 180.8,631.1 174.8,631.1" fill="rgb(255,255,255)"/>
<polygon points="180.8,625.1 186.8,625.1 186.8,631.1 180.8,631.1" fill="rgb(255,255,255)"/>
<polygon points="186.8,625.1 192.8,625.1 192.8,631.1 186.8,631.1" fill="rgb(255,255,255)"/>
<polygon points="192.8,625.1 198.8,625.1 198.8,631.1 192.8,631.1" fill="rgb(255,255,255)"/>
<polygon points="198.8,625.1 204.8,625.1 204.8,631.1 198.8,631.1" fill="rgb(255,255,255)"/>
<polygon points="204.8,625.1 210.8,625.1 210.8,631.1 204.8,631.1" fill="rgb(255,255,255)"/>
<polygon points="210.8,625.1 216.8,625.1 216.8,631.1 210.8,631.1" fill="rgb(255,255,255)"/>
<polygon points="216.8,625.1 222.8,625.1 222.8,631.1 216.8,631.1" fill="rgb(255,255,255)"/>
<polygon points="222.8,625.1 228.8,625.1 228.8,631.1 222.8,631.1" fill="rgb(255,255,255)"/>
<polygon points="228.8,625.1 234.8,625.1 234.8,631.1 228.8,631.1" fill="rgb(255,255,255)"/>
<polygon points="234.8,625.1 240.8,625.1 240.8,631.1 234.8,631.1" fill="rgb(255,255,255)"/>
<polygon points="240.8,625.1 246.8,625.1 246.8,631.1 240.8,631.1" fill="rgb(255,255,255)"/>
<polygon points="246.8,625.1 252.8,625.1 252.8,631.1 246.8,631.1" fill="rgb(255,255,255)"/>
<polygon points="255.8,625.1 261.8,625.1 261.8,631.1 255.8,631.1" fill="rgb(0,255,255)"/>
<polygon points="261.8,625.1 267.8,625.1 267.8,631.1 261.8,631.1" fill="rgb(0,255,255)"/>
<polygon points="267.8,625.1 273.8,625.1 273.8,631.1 267.8,631.1" fill="rgb(255,255,255)"/>
<polygon points="276.8,625.1 282.8,625.1 282.8,631.1 276.8,631.1" fill="rgb(254,178,178)"/>
<polygon points="282.8,625.1 288.8,625.1 288.8,631.1 282.8,631.1" fill="rgb(255,172,172)"/>
<polygon points="288.8,625.1 294.8,625.1 294.8,631.1 288.8,631.1" fill="rgb(255,154,154)"/>
<polygon points="294.8,625.1 300.8,625.1 300.8,631.1 294.8,631.1" fill="rgb(255,138,138)"/>
<polygon points="300.8,625.1 306.8,625.1 306.8,631.1 300.8,631.1" fill="rgb(255,194,194)"/>
<polygon points="306.8,625.1 312.8,625.1 312.8,631.1 306.8,631.1" fill="rgb(254,197,197)"/>
<polygon points="312.8,625.1 318.8,625.1 318.8,631.1 312.8,631.1" fill="rgb(255,185,185)"/>
<polygon points="318.8,625.1 324.8,625.1 324.8,631.1 318.8,631.1" fill="rgb(255,184,184)"/>
<polygon points="324.8,625.1 330.8,625.1 330.8,631.1 324.8,631.1" fill="rgb(255,190,190)"/>
<polygon points="330.8,625.1 336.8,625.1 336.8,631.1 330.8,631.1" fill="rgb(255,147,147)"/>
<polygon points="336.8,625.1 342.8,625.1 342.8,631.1 336.8,631.1" fill="rgb(255,114,114)"/>
<polygon points="342.8,625.1 348.8,625.1 348.8,631.1 342.8,631.1" fill="rgb(255,157,157)"/>
<polygon points="348.8,625.1 354.8,625.1 354.8,631.1 348.8,631.1" fill="rgb(255,114,114)"/>
<polygon points="354.8,625.1 360.8,625.1 360.8,631.1 354.8,631.1" fill="rgb(255,121,121)"/>
<polygon points="132.8,631.1 138.8,631.1 138.8,637.1 132.8,637.1" fill="rgb(255,255,255)"/>
<polygon points="138.8,631.1 144.8,631.1 144.8,637.1 138.8,637.1" fill="rgb(255,255,255)"/>
<polygon points="144.8,631.1 150.8,631.1 150.8,637.1 144.8,637.1" fill="rgb(255,255,255)"/>
<polygon points="150.8,631.1 156.8,631.1 156.8,637.1 150.8,637.1" fill="rgb(255,255,255)"/>
<polygon points="156.8,631.1 162.8,631.1 162.8,637.1 156.8,637.1" fill="rgb(255,255,255)"/>
<polygon points="162.8,631.1 168.8,631.1 168.8,637.1 162.8,637.1" fill="rgb(255,255,255)"/>
<polygon points="168.8,631.1 174.8,631.1 174.8,637.1 168.8,637.1" fill="rgb(255,255,255)"/>
<polygon points="174.8,631.1 180.8,631.1 180.8,637.1 174.8,637.1" fill="rgb(255,255,255)"/>
<polygon points="180.8,631.1 186.8,631.1 186.8,637.1 180.8,637.1" fill="rgb(255,255,255)"/>
<polygon points="186.8,631.1 192.8,631.1 192.8,637.1 186.8,637.1" fill="rgb(255,255,255)"/>
<polygon points="192.8,631.1 198.8,631.1 198.8,637.1 192.8,637.1" fill="rgb(255,255,255)"/>
<polygon points="198.8,631.1 204.8,631.1 204.8,637.1 198.8,637.1" fill="rgb(255,255,255)"/>
<polygon points="204.8,631.1 210.8,631.1 210.8,637.1 204.8,637.1" fill="rgb(255,255,255)"/>
<polygon points="210.8,631.1 216.8,631.1 216.8,637.1 210.8,637.1" fill="rgb(255,255,255)"/>
<polygon points="216.8,631.1 222.8,631.1 222.8,637.1 216.8,637.1" fill="rgb(255,255,255)"/>
<polygon points="222.8,631.1 228.8,631.1 228.8,637.1 222.8,637.1" fill="rgb(255,255,255)"/>
<polygon points="228.8,631.1 234.8,631.1 234.8,637.1 228.8,637.1" fill="rgb(255,255,255)"/>
<polygon points="234.8,631.1 240.8,631.1 240.8,637.1 234.8,637.1" fill="rgb(255,255,255)"/>
<polygon points="240.8,631.1 246.8,631.1 246.8,637.1 240.8,637.1" fill="rgb(255,255,255)"/>
<polygon points="246.8,631.1 252.8,631.1 252.8,637.1 246.8,637.1" fill="rgb(255,255,255)"/>
<polygon points="255.8,631.1 261.8,631.1 261.8,637.1 255.8,637.1" fill="rgb(0,255,255)"/>
<polygon points="261.8,631.1 267.8,631.1 267.8,637.1 261.8,637.1" fill="rgb(0,255,255)"/>
<polygon points="267.8,631.1 273.8,631.1 273.8,637.1 267.8,637.1" fill="rgb(255,255,255)"/>
<polygon points="276.8,631.1 282.8,631.1 282.8,637.1 276.8,637.1" fill="rgb(254,154,154)"/>
<polygon points="282.8,631.1 288.8,631.1 288.8,637.1 282.8,637.1" fill="rgb(255,139,139)"/>
<polygon points="288.8,631.1 294.8,631.1 294.8,637.1 288.8,637.1" fill="rgb(255,114,114)"/>
<polygon points="294.8,631.1 300.8,631.1 300.8,637.1 294.8,637.1" fill="rgb(255,80,80)"/>
<polygon points="300.8,631.1 306.8,631.1 306.8,637.1 300.8,637.1" fill="rgb(254,179,179)"/>
<polygon points="306.8,631.1 312.8,631.1 312.8,637.1 306.8,637.1" fill="rgb(255,195,195)"/>
<polygon points="312.8,631.1 318.8,631.1 318.8,637.1 312.8,637.1" fill="rgb(255,176,176)"/>
<polygon points="318.8,631.1 324.8,631.1 324.8,637.1 318.8,637.1" fill="rgb(255,156,156)"/>
<polygon points="324.8,631.1 330.8,631.1 330.8,637.1 324.8,637.1" fill="rgb(255,189,189)"/>
<polygon points="330.8,631.1 336.8,631.1 336.8,637.1 330.8,637.1" fill="rgb(255,127,127)"/>
<polygon points="336.8,631.1 342.8,631.1 342.8,637.1 336.8,637.1" fill="rgb(255,85,85)"/>
<polygon points="342.8,631.1 348.8,631.1 348.8,637.1 342.8,637.1" fill="rgb(255,134,134)"/>
<polygon points="348.8,631.1 354.8,631.1 354.8,637.1 348.8,637.1" fill="rgb(255,99,99)"/>
<polygon points="354.8,631.1 360.8,631.1 360.8,637.1 354.8,637.1" fill="rgb(255,61,61)"/>
<polygon points="132.8,637.1 138.8,637.1 138.8,643.1 132.8,643.1" fill="rgb(128,0,128)"/>
<polygon points="138.8,637.1 144.8,637.1 144.8,643.1 138.8,643.1" fill="rgb(128,0,128)"/>
<polygon points="144.8,637.1 150.8,637.1 150.8,643.1 144.8,643.1" fill="rgb(128,0,128)"/>
<polygon points="150.8,637.1 156.8,637.1 156.8,643.1 150.8,643.1" fill="rgb(128,0,128)"/>
<polygon points="156.8,637.1 162.8,637.1 162.8,643.1 156.8,643.1" fill="rgb(128,0,128)"/>
<polygon points="162.8,637.1 168.8,637.1 168.8,643.1 162.8,643.1" fill="rgb(128,0,128)"/>
<polygon points="168.8,637.1 174.8,637.1 174.8,643.1 168.8,643.1" fill="rgb(128,0,128)"/>
<polygon points="174.8,637.1 180.8,637.1 180.8,643.1 174.8,643.1" fill="rgb(128,0,128)"/>
<polygon points="180.8,637.1 186.8,637.1 186.8,643.1 180.8,643.1" fill="rgb(128,0,128)"/>
<polygon points="186.8,637.1 192.8,637.1 192.8,643.1 186.8,643.1" fill="rgb(128,0,128)"/>
<polygon points="192.8,637.1 198.8,637.1 198.8,643.1 192.8,643.1" fill="rgb(128,0,128)"/>
<polygon points="198.8,637.1 204.8,637.1 204.8,643.1 198.8,643.1" fill="rgb(128,0,128)"/>
<polygon points="204.8,637.1 210.8,637.1 210.8,643.1 204.8,643.1" fill="rgb(128,0,128)"/>
<polygon points="210.8,637.1 216.8,637.1 216.8,643.1 210.8,643.1" fill="rgb(128,0,128)"/>
<polygon points="216.8,637.1 222.8,637.1 222.8,643.1 216.8,643.1" fill="rgb(128,0,128)"/>
<polygon points="222.8,637.1 228.8,637.1 228.8,643.1 222.8,643.1" fill="rgb(128,0,128)"/>
<polygon points="228.8,637.1 234.8,637.1 234.8,643.1 228.8,643.1" fill="rgb(128,0,128)"/>
<polygon points="234.8,637.1 240.8,637.1 240.8,643.1 234.8,643.1" fill="rgb(128,0,128)"/>
<polygon points="240.8,637.1 246.8,637.1 246.8,643.1 240.8,643.1" fill="rgb(128,0,128)"/>
<polygon points="246.8,637.1 252.8,637.1 252.8,643.1 246.8,643.1" fill="rgb(255,255,255)"/>
<polygon points="255.8,637.1 261.8,637.1 261.8,643.1 255.8,643.1" fill="rgb(0,255,255)"/>
<polygon points="261.8,637.1 267.8,637.1 267.8,643.1 261.8,643.1" fill="rgb(0,255,255)"/>
<polygon points="267.8,637.1 273.8,637.1 273.8,643.1 267.8,643.1" fill="rgb(255,255,255)"/>
<polygon points="276.8,637.1 282.8,637.1 282.8,643.1 276.8,643.1" fill="rgb(255,227,227)"/>
<polygon points="282.8,637.1 288.8,637.1 288.8,643.1 282.8,643.1" fill="rgb(254,197,197)"/>
<polygon points="288.8,637.1 294.8,637.1 294.8,643.1 288.8,643.1" fill="rgb(255,203,203)"/>
<polygon points="294.8,637.1 300.8,637.1 300.8,643.1 294.8,643.1" fill="rgb(255,174,174)"/>
<polygon points="300.8,637.1 306.8,637.1 306.8,643.1 300.8,643.1" fill="rgb(255,236,236)"/>
<polygon points="306.8,637.1 312.8,637.1 312.8,643.1 306.8,643.1" fill="rgb(255,248,248)"/>
<polygon points="312.8,637.1 318.8,637.1 318.8,643.1 312.8,643.1" fill="rgb(255,248,248)"/>
<polygon points="318.8,637.1 324.8,637.1 324.8,643.1 318.8,643.1" fill="rgb(255,233,233)"/>
<polygon points="324.8,637.1 330.8,637.1 330.8,643.1 324.8,643.1" fill="rgb(255,241,241)"/>
<polygon points="330.8,637.1 336.8,637.1 336.8,643.1 330.8,643.1" fill="rgb(255,207,207)"/>
<polygon points="336.8,637.1 342.8,637.1 342.8,643.1 336.8,643.1" fill="rgb(255,158,158)"/>
<polygon points="342.8,637.1 348.8,637.1 348.8,643.1 342.8,643.1" fill="rgb(255,198,198)"/>
<polygon points="348.8,637.1 354.8,637.1 354.8,643.1 348.8,643.1" fill="rgb(255,170,170)"/>
<polygon points="354.8,637.1 360.8,637.1 360.8,643.1 354.8,643.1" fill="rgb(255,130,130)"/>
<polygon points="132.8,643.1 138.8,643.1 138.8,649.1 132.8,649.1" fill="rgb(255,255,255)"/>
<polygon points="138.8,643.1 144.8,643.1 144.8,649.1 138.8,649.1" fill="rgb(255,255,255)"/>
<polygon points="144.8,643.1 150.8,643.1 150.8,649.1 144.8,649.1" fill="rgb(255,255,255)"/>
<polygon points="150.8,643.1 156.8,643.1 156.8,649.1 150.8,649.1" fill="rgb(255,255,255)"/>
<polygon points="156.8,643.1 162.8,643.1 162.8,649.1 156.8,649.1" fill="rgb(255,255,255)"/>
<polygon points="162.8,643.1 168.8,643.1 168.8,649.1 162.8,649.1" fill="rgb(255,255,255)"/>
<polygon points="168.8,643.1 174.8,643.1 174.8,649.1 168.8,649.1" fill="rgb(255,255,255)"/>
<polygon points="174.8,643.1 180.8,643.1 180.8,649.1 174.8,649.1" fill="rgb(255,255,255)"/>
<polygon points="180.8,643.1 186.8,643.1 186.8,649.1 180.8,649.1" fill="rgb(255,255,255)"/>
<polygon points="186.8,643.1 192.8,643.1 192.8,649.1 186.8,649.1" fill="rgb(255,255,255)"/>
<polygon points="192.8,643.1 198.8,643.1 198.8,649.1 192.8,649.1" fill="rgb(255,255,255)"/>
<polygon points="198.8,643.1 204.8,643.1 204.8,649.1 198.8,649.1" fill="rgb(255,255,255)"/>
<polygon points="204.8,643.1 210.8,643.1 210.8,649.1 204.8,649.1" fill="rgb(255,255,255)"/>
<polygon points="210.8,643.1 216.8,643.1 216.8,649.1 210.8,649.1" fill="rgb(255,255,255)"/>
<polygon points="216.8,643.1 222.8,643.1 222.8,649.1 216.8,649.1" fill="rgb(255,255,255)"/>
<polygon points="222.8,643.1 228.8,643.1 228.8,649.1 222.8,649.1" fill="rgb(255,255,255)"/>
<polygon points="228.8,643.1 234.8,643.1 234.8,649.1 228.8,649.1" fill="rgb(255,255,255)"/>
<polygon points="234.8,643.1 240.8,643.1 240.8,649.1 234.8,649.1" fill="rgb(255,255,255)"/>
<polygon points="240.8,643.1 246.8,643.1 246.8,649.1 240.8,649.1" fill="rgb(255,255,255)"/>
<polygon points="246.8,643.1 252.8,643.1 252.8,649.1 246.8,649.1" fill="rgb(255,255,255)"/>
<polygon points="255.8,643.1 261.8,643.1 261.8,649.1 255.8,649.1" fill="rgb(0,255,255)"/>
<polygon points="261.8,643.1 267.8,643.1 267.8,649.1 261.8,649.1" fill="rgb(0,255,255)"/>
<polygon points="267.8,643.1 273.8,643.1 273.8,649.1 267.8,649.1" fill="rgb(0,255,255)"/>
<polygon points="276.8,643.1 282.8,643.1 282.8,649.1 276.8,649.1" fill="rgb(255,197,197)"/>
<polygon points="282.8,643.1 288.8,643.1 288.8,649.1 282.8,649.1" fill="rgb(255,183,183)"/>
<polygon points="288.8,643.1 294.8,643.1 294.8,649.1 288.8,649.1" fill="rgb(254,173,173)"/>
<polygon points="294.8,643.1 300.8,643.1 300.8,649.1 294.8,649.1" fill="rgb(255,151,151)"/>
<polygon points="300.8,643.1 306.8,643.1 306.8,649.1 300.8,649.1" fill="rgb(255,209,209)"/>
<polygon points="306.8,643.1 312.8,643.1 312.8,649.1 306.8,649.1" fill="rgb(255,226,226)"/>
<polygon points="312.8,643.1 318.8,643.1 318.8,649.1 312.8,649.1" fill="rgb(255,224,224)"/>
<polygon points="318.8,643.1 324.8,643.1 324.8,649.1 318.8,649.1" fill="rgb(255,197,197)"/>
<polygon points="324.8,643.1 330.8,643.1 330.8,649.1 324.8,649.1" fill="rgb(254,214,214)"/>
<polygon points="330.8,643.1 336.8,643.1 336.8,649.1 330.8,649.1" fill="rgb(255,182,182)"/>
<polygon points="336.8,643.1 342.8,643.1 342.8,649.1 336.8,649.1" fill="rgb(255,149,149)"/>
<polygon points="342.8,643.1 348.8,643.1 348.8,649.1 342.8,649.1" fill="rgb(255,178,178)"/>
<polygon points="348.8,643.1 354.8,643.1 354.8,649.1 348.8,649.1" fill="rgb(255,143,143)"/>
<polygon points="354.8,643.1 360.8,643.1 360.8,649.1 354.8,649.1" fill="rgb(255,150,150)"/>
<polygon points="132.8,649.1 138.8,649.1 138.8,655.1 132.8,655.1" fill="rgb(255,255,255)"/>
<polygon points="138.8,649.1 144.8,649.1 144.8,655.1 138.8,655.1" fill="rgb(255,255,255)"/>
<polygon points="144.8,649.1 150.8,649.1 150.8,655.1 144.8,655.1" fill="rgb(255,255,255)"/>
<polygon points="150.8,649.1 156.8,649.1 156.8,655.1 150.8,655.1" fill="rgb(255,255,255)"/>
<polygon points="156.8,649.1 162.8,649.1 162.8,655.1 156.8,655.1" fill="rgb(255,255,255)"/>
<polygon points="162.8,649.1 168.8,649.1 168.8,655.1 162.8,655.1" fill="rgb(255,255,255)"/>
<polygon points="168.8,649.1 174.8,649.1 174.8,655.1 168.8,655.1" fill="rgb(255,255,255)"/>
<polygon points="174.8,649.1 180.8,649.1 180.8,655.1 174.8,655.1" fill="rgb(255,255,255)"/>
<polygon points="180.8,649.1 186.8,649.1 186.8,655.1 180.8,655.1" fill="rgb(255,255,255)"/>
<polygon points="186.8,649.1 192.8,649.1 192.8,655.1 186.8,655.1" fill="rgb(255,255,255)"/>
<polygon points="192.8,649.1 198.8,649.1 198.8,655.1 192.8,655.1" fill="rgb(255,255,255)"/>
<polygon points="198.8,649.1 204.8,649.1 204.8,655.1 198.8,655.1" fill="rgb(255,255,255)"/>
<polygon points="204.8,649.1 210.8,649.1 210.8,655.1 204.8,655.1" fill="rgb(255,255,255)"/>
<polygon points="210.8,649.1 216.8,649.1 216.8,655.1 210.8,655.1" fill="rgb(255,255,255)"/>
<polygon points="216.8,649.1 222.8,649.1 222.8,655.1 216.8,655.1" fill="rgb(255,255,255)"/>
<polygon points="222.8,649.1 228.8,649.1 228.8,655.1 222.8,655.1" fill="rgb(255,255,255)"/>
<polygon points="228.8,649.1 234.8,649.1 234.8,655.1 228.8,655.1" fill="rgb(255,255,255)"/>
<polygon points="234.8,649.1 240.8,649.1 240.8,655.1 234.8,655.1" fill="rgb(255,255,255)"/>
<polygon points="240.8,649.1 246.8,649.1 246.8,655.1 240.8,655.1" fill="rgb(255,255,255)"/>
<polygon points="246.8,649.1 252.8,649.1 252.8,655.1 246.8,655.1" fill="rgb(255,255,255)"/>
<polygon points="255.8,649.1 261.8,649.1 261.8,655.1 255.8,655.1" fill="rgb(0,255,255)"/>
<polygon points="261.8,649.1 267.8,649.1 267.8,655.1 261.8,655.1" fill="rgb(0,255,255)"/>
<polygon points="267.8,649.1 273.8,649.1 273.8,655.1 267.8,655.1" fill="rgb(0,255,255)"/>
<polygon points="276.8,649.1 282.8,649.1 282.8,655.1 276.8,655.1" fill="rgb(255,223,223)"/>
<polygon points="282.8,649.1 288.8,649.1 288.8,655.1 282.8,655.1" fill="rgb(255,221,221)"/>
<polygon points="288.8,649.1 294.8,649.1 294.8,655.1 288.8,655.1" fill="rgb(255,205,205)"/>
<polygon points="294.8,649.1 300.8,649.1 300.8,655.1 294.8,655.1" fill="rgb(254,177,177)"/>
<polygon points="300.8,649.1 306.8,649.1 306.8,655.1 300.8,655.1" fill="rgb(255,239,239)"/>
<polygon points="306.8,649.1 312.8,649.1 312.8,655.1 306.8,655.1" fill="rgb(255,242,242)"/>
<polygon points="312.8,649.1 318.8,649.1 318.8,655.1 312.8,655.1" fill="rgb(255,227,227)"/>
<polygon points="318.8,649.1 324.8,649.1 324.8,655.1 318.8,655.1" fill="rgb(255,204,204)"/>
<polygon points="324.8,649.1 330.8,649.1 330.8,655.1 324.8,655.1" fill="rgb(255,232,232)"/>
<polygon points="330.8,649.1 336.8,649.1 336.8,655.1 330.8,655.1" fill="rgb(255,201,201)"/>
<polygon points="336.8,649.1 342.8,649.1 342.8,655.1 336.8,655.1" fill="rgb(255,175,175)"/>
<polygon points="342.8,649.1 348.8,649.1 348.8,655.1 342.8,655.1" fill="rgb(255,198,198)"/>
<polygon points="348.8,649.1 354.8,649.1 354.8,655.1 348.8,655.1" fill="rgb(255,172,172)"/>
<polygon points="354.8,649.1 360.8,649.1 360.8,655.1 354.8,655.1" fill="rgb(255,180,180)"/>
<polygon points="132.8,655.1 138.8,655.1 138.8,661.1 132.8,661.1" fill="rgb(255,255,255)"/>
<polygon points="138.8,655.1 144.8,655.1 144.8,661.1 138.8,661.1" fill="rgb(255,255,255)"/>
<polygon points="144.8,655.1 150.8,655.1 150.8,661.1 144.8,661.1" fill="rgb(255,255,255)"/>
<polygon points="150.8,655.1 156.8,655.1 156.8,661.1 150.8,661.1" fill="rgb(255,255,255)"/>
<polygon points="156.8,655.1 162.8,655.1 162.8,661.1 156.8,661.1" fill="rgb(255,255,255)"/>
<polygon points="162.8,655.1 168.8,655.1 168.8,661.1 162.8,661.1" fill="rgb(255,255,255)"/>
<polygon points="168.8,655.1 174.8,655.1 174.8,661.1 168.8,661.1" fill="rgb(255,255,255)"/>
<polygon points="174.8,655.1 180.8,655.1 180.8,661.1 174.8,661.1" fill="rgb(255,255,255)"/>
<polygon points="180.8,655.1 186.8,655.1 186.8,661.1 180.8,661.1" fill="rgb(255,255,255)"/>
<polygon points="186.8,655.1 192.8,655.1 192.8,661.1 186.8,661.1" fill="rgb(255,255,255)"/>
<polygon points="192.8,655.1 198.8,655.1 198.8,661.1 192.8,661.1" fill="rgb(255,255,255)"/>
<polygon points="198.8,655.1 204.8,655.1 204.8,661.1 198.8,661.1" fill="rgb(255,255,255)"/>
<polygon points="204.8,655.1 210.8,655.1 210.8,661.1 204.8,661.1" fill="rgb(255,255,255)"/>
<polygon points="210.8,655.1 216.8,655.1 216.8,661.1 210.8,661.1" fill="rgb(255,255,255)"/>
<polygon points="216.8,655.1 222.8,655.1 222.8,661.1 216.8,661.1" fill="rgb(255,255,255)"/>
<polygon points="222.8,655.1 228.8,655.1 228.8,661.1 222.8,661.1" fill="rgb(255,255,255)"/>
<polygon points="228.8,655.1 234.8,655.1 234.8,661.1 228.8,661.1" fill="rgb(255,255,255)"/>
<polygon points="234.8,655.1 240.8,655.1 240.8,661.1 234.8,661.1" fill="rgb(255,255,255)"/>
<polygon points="240.8,655.1 246.8,655.1 246.8,661.1 240.8,661.1" fill="rgb(255,255,255)"/>
<polygon points="246.8,655.1 252.8,655.1 252.8,661.1 246.8,661.1" fill="rgb(255,255,255)"/>
<polygon points="255.8,655.1 261.8,655.1 261.8,661.1 255.8,661.1" fill="rgb(0,255,255)"/>
<polygon points="261.8,655.1 267.8,655.1 267.8,661.1 261.8,661.1" fill="rgb(0,255,255)"/>
<polygon points="267.8,655.1 273.8,655.1 273.8,661.1 267.8,661.1" fill="rgb(0,255,255)"/>
<polygon points="276.8,655.1 282.8,655.1 282.8,661.1 276.8,661.1" fill="rgb(254,208,208)"/>
<polygon points="282.8,655.1 288.8,655.1 288.8,661.1 282.8,661.1" fill="rgb(255,196,196)"/>
<polygon points="288.8,655.1 294.8,655.1 294.8,661.1 288.8,661.1" fill="rgb(255,181,181)"/>
<polygon points="294.8,655.1 300.8,655.1 300.8,661.1 294.8,661.1" fill="rgb(255,154,154)"/>
<polygon points="300.8,655.1 306.8,655.1 306.8,661.1 300.8,661.1" fill="rgb(255,223,223)"/>
<polygon points="306.8,655.1 312.8,655.1 312.8,661.1 306.8,661.1" fill="rgb(255,237,237)"/>
<polygon points="312.8,655.1 318.8,655.1 318.8,661.1 312.8,661.1" fill="rgb(255,230,230)"/>
<polygon points="318.8,655.1 324.8,655.1 324.8,661.1 318.8,661.1" fill="rgb(255,190,190)"/>
<polygon points="324.8,655.1 330.8,655.1 330.8,661.1 324.8,661.1" fill="rgb(254,219,219)"/>
<polygon points="330.8,655.1 336.8,655.1 336.8,661.1 330.8,661.1" fill="rgb(254,172,172)"/>
<polygon points="336.8,655.1 342.8,655.1 342.8,661.1 336.8,661.1" fill="rgb(255,130,130)"/>
<polygon points="342.8,655.1 348.8,655.1 348.8,661.1 342.8,661.1" fill="rgb(255,185,185)"/>
<polygon points="348.8,655.1 354.8,655.1 354.8,661.1 348.8,661.1" fill="rgb(255,163,163)"/>
<polygon points="354.8,655.1 360.8,655.1 360.8,661.1 354.8,661.1" fill="rgb(255,169,169)"/>
<polygon points="132.8,661.1 138.8,661.1 138.8,667.1 132.8,667.1" fill="rgb(128,0,128)"/>
<polygon points="138.8,661.1 144.8,661.1 144.8,667.1 138.8,667.1" fill="rgb(128,0,128)"/>
<polygon points="144.8,661.1 150.8,661.1 150.8,667.1 144.8,667.1" fill="rgb(128,0,128)"/>
<polygon points="150.8,661.1 156.8,661.1 156.8,667.1 150.8,667.1" fill="rgb(128,0,128)"/>
<polygon points="156.8,661.1 162.8,661.1 162.8,667.1 156.8,667.1" fill="rgb(128,0,128)"/>
<polygon points="162.8,661.1 168.8,661.1 168.8,667.1 162.8,667.1" fill="rgb(128,0,128)"/>
<polygon points="168.8,661.1 174.8,661.1 174.8,667.1 168.8,667.1" fill="rgb(128,0,128)"/>
<polygon points="174.8,661.1 180.8,661.1 180.8,667.1 174.8,667.1" fill="rgb(255,255,255)"/>
<polygon points="180.8,661.1 186.8,661.1 186.8,667.1 180.8,667.1" fill="rgb(255,255,255)"/>
<polygon points="186.8,661.1 192.8,661.1 192.8,667.1 186.8,667.1" fill="rgb(255,255,255)"/>
<polygon points="192.8,661.1 198.8,661.1 198.8,667.1 192.8,667.1" fill="rgb(255,255,255)"/>
<polygon points="198.8,661.1 204.8,661.1 204.8,667.1 198.8,667.1" fill="rgb(255,255,255)"/>
<polygon points="204.8,661.1 210.8,661.1 210.8,667.1 204.8,667.1" fill="rgb(255,255,255)"/>
<polygon points="210.8,661.1 216.8,661.1 216.8,667.1 210.8,667.1" fill="rgb(255,255,255)"/>
<polygon points="216.8,661.1 222.8,661.1 222.8,667.1 216.8,667.1" fill="rgb(255,255,255)"/>
<polygon points="222.8,661.1 228.8,661.1 228.8,667.1 222.8,667.1" fill="rgb(255,255,255)"/>
<polygon points="228.8,661.1 234.8,661.1 234.8,667.1 228.8,667.1" fill="rgb(255,255,255)"/>
<polygon points="234.8,661.1 240.8,661.1 240.8,667.1 234.8,667.1" fill="rgb(255,255,255)"/>
<polygon points="240.8,661.1 246.8,661.1 246.8,667.1 240.8,667.1" fill="rgb(255,255,255)"/>
<polygon points="246.8,661.1 252.8,661.1 252.8,667.1 246.8,667.1" fill="rgb(255,255,255)"/>
<polygon points="255.8,661.1 261.8,661.1 261.8,667.1 255.8,667.1" fill="rgb(0,255,255)"/>
<polygon points="261.8,661.1 267.8,661.1 267.8,667.1 261.8,667.1" fill="rgb(255,255,255)"/>
<polygon points="267.8,661.1 273.8,661.1 273.8,667.1 267.8,667.1" fill="rgb(0,255,255)"/>
<polygon points="276.8,661.1 282.8,661.1 282.8,667.1 276.8,667.1" fill="rgb(255,168,168)"/>
<polygon points="282.8,661.1 288.8,661.1 288.8,667.1 282.8,667.1" fill="rgb(255,157,157)"/>
<polygon points="288.8,661.1 294.8,661.1 294.8,667.1 288.8,667.1" fill="rgb(255,140,140)"/>
<polygon points="294.8,661.1 300.8,661.1 300.8,667.1 294.8,667.1" fill="rgb(255,131,131)"/>
<polygon points="300.8,661.1 306.8,661.1 306.8,667.1 300.8,667.1" fill="rgb(255,195,195)"/>
<polygon points="306.8,661.1 312.8,661.1 312.8,667.1 306.8,667.1" fill="rgb(255,198,198)"/>
<polygon points="312.8,661.1 318.8,661.1 318.8,667.1 312.8,667.1" fill="rgb(255,168,168)"/>
<polygon points="318.8,661.1 324.8,661.1 324.8,667.1 318.8,667.1" fill="rgb(255,163,163)"/>
<polygon points="324.8,661.1 330.8,661.1 330.8,667.1 324.8,667.1" fill="rgb(255,175,175)"/>
<polygon points="330.8,661.1 336.8,661.1 336.8,667.1 330.8,667.1" fill="rgb(255,154,154)"/>
<polygon points="336.8,661.1 342.8,661.1 342.8,667.1 336.8,667.1" fill="rgb(255,116,116)"/>
<polygon points="342.8,661.1 348.8,661.1 348.8,667.1 342.8,667.1" fill="rgb(255,122,122)"/>
<polygon points="348.8,661.1 354.8,661.1 354.8,667.1 348.8,667.1" fill="rgb(255,92,92)"/>
<polygon points="354.8,661.1 360.8,661.1 360.8,667.1 354.8,667.1" fill="rgb(255,91,91)"/>
<polygon points="132.8,667.1 138.8,667.1 138.8,673.1 132.8,673.1" fill="rgb(255,255,255)"/>
<polygon points="138.8,667.1 144.8,667.1 144.8,673.1 138.8,673.1" fill="rgb(255,255,255)"/>
<polygon points="144.8,667.1 150.8,667.1 150.8,673.1 144.8,673.1" fill="rgb(255,255,255)"/>
<polygon points="150.8,667.1 156.8,667.1 156.8,673.1 150.8,673.1" fill="rgb(255,255,255)"/>
<polygon points="156.8,667.1 162.8,667.1 162.8,673.1 156.8,673.1" fill="rgb(255,255,255)"/>
<polygon points="162.8,667.1 168.8,667.1 168.8,673.1 162.8,673.1" fill="rgb(255,255,255)"/>
<polygon points="168.8,667.1 174.8,667.1 174.8,673.1 168.8,673.1" fill="rgb(255,255,255)"/>
<polygon points="174.8,667.1 180.8,667.1 180.8,673.1 174.8,673.1" fill="rgb(255,255,255)"/>
<polygon points="180.8,667.1 186.8,667.1 186.8,673.1 180.8,673.1" fill="rgb(255,255,255)"/>
<polygon points="186.8,667.1 192.8,667.1 192.8,673.1 186.8,673.1" fill="rgb(255,255,255)"/>
<polygon points="192.8,667.1 198.8,667.1 198.8,673.1 192.8,673.1" fill="rgb(255,255,255)"/>
<polygon points="198.8,667.1 204.8,667.1 204.8,673.1 198.8,673.1" fill="rgb(255,255,255)"/>
<polygon points="204.8,667.1 210.8,667.1 210.8,673.1 204.8,673.1" fill="rgb(255,255,255)"/>
<polygon points="210.8,667.1 216.8,667.1 216.8,673.1 210.8,673.1" fill="rgb(255,255,255)"/>
<polygon points="216.8,667.1 222.8,667.1 222.8,673.1 216.8,673.1" fill="rgb(255,255,255)"/>
<polygon points="222.8,667.1 228.8,667.1 228.8,673.1 222.8,673.1" fill="rgb(255,255,255)"/>
<polygon points="228.8,667.1 234.8,667.1 234.8,673.1 228.8,673.1" fill="rgb(255,255,255)"/>
<polygon points="234.8,667.1 240.8,667.1 240.8,673.1 234.8,673.1" fill="rgb(255,255,255)"/>
<polygon points="240.8,667.1 246.8,667.1 246.8,673.1 240.8,673.1" fill="rgb(255,255,255)"/>
<polygon points="246.8,667.1 252.8,667.1 252.8,673.1 246.8,673.1" fill="rgb(128,0,128)"/>
<polygon points="255.8,667.1 261.8,667.1 261.8,673.1 255.8,673.1" fill="rgb(0,255,255)"/>
<polygon points="261.8,667.1 267.8,667.1 267.8,673.1 261.8,673.1" fill="rgb(255,255,255)"/>
<polygon points="267.8,667.1 273.8,667.1 273.8,673.1 267.8,673.1" fill="rgb(0,255,255)"/>
<polygon points="276.8,667.1 282.8,667.1 282.8,673.1 276.8,673.1" fill="rgb(255,226,226)"/>
<polygon points="282.8,667.1 288.8,667.1 288.8,673.1 282.8,673.1" fill="rgb(255,220,220)"/>
<polygon points="288.8,667.1 294.8,667.1 294.8,673.1 288.8,673.1" fill="rgb(255,204,204)"/>
<polygon points="294.8,667.1 300.8,667.1 300.8,673.1 294.8,673.1" fill="rgb(255,187,187)"/>
<polygon points="300.8,667.1 306.8,667.1 306.8,673.1 300.8,673.1" fill="rgb(255,231,231)"/>
<polygon points="306.8,667.1 312.8,667.1 312.8,673.1 306.8,673.1" fill="rgb(255,239,239)"/>
<polygon points="312.8,667.1 318.8,667.1 318.8,673.1 312.8,673.1" fill="rgb(255,237,237)"/>
<polygon points="318.8,667.1 324.8,667.1 324.8,673.1 318.8,673.1" fill="rgb(255,223,223)"/>
<polygon points="324.8,667.1 330.8,667.1 330.8,673.1 324.8,673.1" fill="rgb(255,239,239)"/>
<polygon points="330.8,667.1 336.8,667.1 336.8,673.1 330.8,673.1" fill="rgb(255,209,209)"/>
<polygon points="336.8,667.1 342.8,667.1 342.8,673.1 336.8,673.1" fill="rgb(255,183,183)"/>
<polygon points="342.8,667.1 348.8,667.1 348.8,673.1 342.8,673.1" fill="rgb(255,216,216)"/>
<polygon points="348.8,667.1 354.8,667.1 354.8,673.1 348.8,673.1" fill="rgb(255,192,192)"/>
<polygon points="354.8,667.1 360.8,667.1 360.8,673.1 354.8,673.1" fill="rgb(255,189,189)"/>
<polygon points="132.8,673.1 138.8,673.1 138.8,679.1 132.8,679.1" fill="rgb(255,255,255)"/>
<polygon points="138.8,673.1 144.8,673.1 144.8,679.1 138.8,679.1" fill="rgb(255,255,255)"/>
<polygon points="144.8,673.1 150.8,673.1 150.8,679.1 144.8,679.1" fill="rgb(255,255,255)"/>
<polygon points="150.8,673.1 156.8,673.1 156.8,679.1 150.8,679.1" fill="rgb(255,255,255)"/>
<polygon points="156.8,673.1 162.8,673.1 162.8,679.1 156.8,679.1" fill="rgb(255,255,255)"/>
<polygon points="162.8,673.1 168.8,673.1 168.8,679.1 162.8,679.1" fill="rgb(255,255,255)"/>
<polygon points="168.8,673.1 174.8,673.1 174.8,679.1 168.8,679.1" fill="rgb(255,255,255)"/>
<polygon points="174.8,673.1 180.8,673.1 180.8,679.1 174.8,679.1" fill="rgb(255,255,255)"/>
<polygon points="180.8,673.1 186.8,673.1 186.8,679.1 180.8,679.1" fill="rgb(255,255,255)"/>
<polygon points="186.8,673.1 192.8,673.1 192.8,679.1 186.8,679.1" fill="rgb(255,255,255)"/>
<polygon points="192.8,673.1 198.8,673.1 198.8,679.1 192.8,679.1" fill="rgb(255,255,255)"/>
<polygon points="198.8,673.1 204.8,673.1 204.8,679.1 198.8,679.1" fill="rgb(255,255,255)"/>
<polygon points="204.8,673.1 210.8,673.1 210.8,679.1 204.8,679.1" fill="rgb(255,255,255)"/>
<polygon points="210.8,673.1 216.8,673.1 216.8,679.1 210.8,679.1" fill="rgb(255,255,255)"/>
<polygon points="216.8,673.1 222.8,673.1 222.8,679.1 216.8,679.1" fill="rgb(255,255,255)"/>
<polygon points="222.8,673.1 228.8,673.1 228.8,679.1 222.8,679.1" fill="rgb(255,255,255)"/>
<polygon points="228.8,673.1 234.8,673.1 234.8,679.1 228.8,679.1" fill="rgb(255,255,255)"/>
<polygon points="234.8,673.1 240.8,673.1 240.8,679.1 234.8,679.1" fill="rgb(255,255,255)"/>
<polygon points="240.8,673.1 246.8,673.1 246.8,679.1 240.8,679.1" fill="rgb(255,255,255)"/>
<polygon points="246.8,673.1 252.8,673.1 252.8,679.1 246.8,679.1" fill="rgb(255,255,255)"/>
<polygon points="255.8,673.1 261.8,673.1 261.8,679.1 255.8,679.1" fill="rgb(0,255,255)"/>
<polygon points="261.8,673.1 267.8,673.1 267.8,679.1 261.8,679.1" fill="rgb(255,255,255)"/>
<polygon points="267.8,673.1 273.8,673.1 273.8,679.1 267.8,679.1" fill="rgb(255,255,255)"/>
<polygon points="276.8,673.1 282.8,673.1 282.8,679.1 276.8,679.1" fill="rgb(255,215,215)"/>
<polygon points="282.8,673.1 288.8,673.1 288.8,679.1 282.8,679.1" fill="rgb(255,201,201)"/>
<polygon points="288.8,673.1 294.8,673.1 294.8,679.1 288.8,679.1" fill="rgb(255,202,202)"/>
<polygon points="294.8,673.1 300.8,673.1 300.8,679.1 294.8,679.1" fill="rgb(255,168,168)"/>
<polygon points="300.8,673.1 306.8,673.1 306.8,679.1 300.8,679.1" fill="rgb(255,241,241)"/>
<polygon points="306.8,673.1 312.8,673.1 312.8,679.1 306.8,679.1" fill="rgb(255,243,243)"/>
<polygon points="312.8,673.1 318.8,673.1 318.8,679.1 312.8,679.1" fill="rgb(255,236,236)"/>
<polygon points="318.8,673.1 324.8,673.1 324.8,679.1 318.8,679.1" fill="rgb(255,217,217)"/>
<polygon points="324.8,673.1 330.8,673.1 330.8,679.1 324.8,679.1" fill="rgb(255,231,231)"/>
<polygon points="330.8,673.1 336.8,673.1 336.8,679.1 330.8,679.1" fill="rgb(255,200,200)"/>
<polygon points="336.8,673.1 342.8,673.1 342.8,679.1 336.8,679.1" fill="rgb(255,170,170)"/>
<polygon points="342.8,673.1 348.8,673.1 348.8,679.1 342.8,679.1" fill="rgb(255,204,204)"/>
<polygon points="348.8,673.1 354.8,673.1 354.8,679.1 348.8,679.1" fill="rgb(255,174,174)"/>
<polygon points="354.8,673.1 360.8,673.1 360.8,679.1 354.8,679.1" fill="rgb(255,167,167)"/>
<polygon points="132.8,679.1 138.8,679.1 138.8,685.1 132.8,685.1" fill="rgb(255,255,255)"/>
<polygon points="138.8,679.1 144.8,679.1 144.8,685.1 138.8,685.1" fill="rgb(255,255,255)"/>
<polygon points="144.8,679.1 150.8,679.1 150.8,685.1 144.8,685.1" fill="rgb(255,255,255)"/>
<polygon points="150.8,679.1 156.8,679.1 156.8,685.1 150.8,685.1" fill="rgb(255,255,255)"/>
<polygon points="156.8,679.1 162.8,679.1 162.8,685.1 156.8,685.1" fill="rgb(255,255,255)"/>
<polygon points="162.8,679.1 168.8,679.1 168.8,685.1 162.8,685.1" fill="rgb(255,255,255)"/>
<polygon points="168.8,679.1 174.8,679.1 174.8,685.1 168.8,685.1" fill="rgb(255,255,255)"/>
<polygon points="174.8,679.1 180.8,679.1 180.8,685.1 174.8,685.1" fill="rgb(255,255,255)"/>
<polygon points="180.8,679.1 186.8,679.1 186.8,685.1 180.8,685.1" fill="rgb(255,255,255)"/>
<polygon points="186.8,679.1 192.8,679.1 192.8,685.1 186.8,685.1" fill="rgb(255,255,255)"/>
<polygon points="192.8,679.1 198.8,679.1 198.8,685.1 192.8,685.1" fill="rgb(255,255,255)"/>
<polygon points="198.8,679.1 204.8,679.1 204.8,685.1 198.8,685.1" fill="rgb(255,255,255)"/>
<polygon points="204.8,679.1 210.8,679.1 210.8,685.1 204.8,685.1" fill="rgb(255,255,255)"/>
<polygon points="210.8,679.1 216.8,679.1 216.8,685.1 210.8,685.1" fill="rgb(255,255,255)"/>
<polygon points="216.8,679.1 222.8,679.1 222.8,685.1 216.8,685.1" fill="rgb(255,255,255)"/>
<polygon points="222.8,679.1 228.8,679.1 228.8,685.1 222.8,685.1" fill="rgb(255,255,255)"/>
<polygon points="228.8,679.1 234.8,679.1 234.8,685.1 228.8,685.1" fill="rgb(255,255,255)"/>
<polygon points="234.8,679.1 240.8,679.1 240.8,685.1 234.8,685.1" fill="rgb(255,255,255)"/>
<polygon points="240.8,679.1 246.8,679.1 246.8,685.1 240.8,685.1" fill="rgb(255,255,255)"/>
<polygon points="246.8,679.1 252.8,679.1 252.8,685.1 246.8,685.1" fill="rgb(128,0,128)"/>
<polygon points="255.8,679.1 261.8,679.1 261.8,685.1 255.8,685.1" fill="rgb(0,255,255)"/>
<polygon points="261.8,679.1 267.8,679.1 267.8,685.1 261.8,685.1" fill="rgb(255,255,255)"/>
<polygon points="267.8,679.1 273.8,679.1 273.8,685.1 267.8,685.1" fill="rgb(255,255,255)"/>
<polygon points="276.8,679.1 282.8,679.1 282.8,685.1 276.8,685.1" fill="rgb(254,200,200)"/>
<polygon points="282.8,679.1 288.8,679.1 288.8,685.1 282.8,685.1" fill="rgb(255,191,191)"/>
<polygon points="288.8,679.1 294.8,679.1 294.8,685.1 288.8,685.1" fill="rgb(255,189,189)"/>
<polygon points="294.8,679.1 300.8,679.1 300.8,685.1 294.8,685.1" fill="rgb(255,155,155)"/>
<polygon points="300.8,679.1 306.8,679.1 306.8,685.1 300.8,685.1" fill="rgb(255,229,229)"/>
<polygon points="306.8,679.1 312.8,679.1 312.8,685.1 306.8,685.1" fill="rgb(255,229,229)"/>
<polygon points="312.8,679.1 318.8,679.1 318.8,685.1 312.8,685.1" fill="rgb(255,215,215)"/>
<polygon points="318.8,679.1 324.8,679.1 324.8,685.1 318.8,685.1" fill="rgb(255,205,205)"/>
<polygon points="324.8,679.1 330.8,679.1 330.8,685.1 324.8,685.1" fill="rgb(255,223,223)"/>
<polygon points="330.8,679.1 336.8,679.1 336.8,685.1 330.8,685.1" fill="rgb(254,192,192)"/>
<polygon points="336.8,679.1 342.8,679.1 342.8,685.1 336.8,685.1" fill="rgb(255,155,155)"/>
<polygon points="342.8,679.1 348.8,679.1 348.8,685.1 342.8,685.1" fill="rgb(255,174,174)"/>
<polygon points="348.8,679.1 354.8,679.1 354.8,685.1 348.8,685.1" fill="rgb(255,165,165)"/>
<polygon points="354.8,679.1 360.8,679.1 360.8,685.1 354.8,685.1" fill="rgb(254,143,143)"/>
<polygon points="132.8,685.1 138.8,685.1 138.8,691.1 132.8,691.1" fill="rgb(255,255,255)"/>
<polygon points="138.8,685.1 144.8,685.1 144.8,691.1 138.8,691.1" fill="rgb(255,255,255)"/>
<polygon points="144.8,685.1 150.8,685.1 150.8,691.1 144.8,691.1" fill="rgb(255,255,255)"/>
<polygon points="150.8,685.1 156.8,685.1 156.8,691.1 150.8,691.1" fill="rgb(255,255,255)"/>
<polygon points="156.8,685.1 162.8,685.1 162.8,691.1 156.8,691.1" fill="rgb(255,255,255)"/>
<polygon points="162.8,685.1 168.8,685.1 168.8,691.1 162.8,691.1" fill="rgb(255,255,255)"/>
<polygon points="168.8,685.1 174.8,685.1 174.8,691.1 168.8,691.1" fill="rgb(255,255,255)"/>
<polygon points="174.8,685.1 180.8,685.1 180.8,691.1 174.8,691.1" fill="rgb(255,255,255)"/>
<polygon points="180.8,685.1 186.8,685.1 186.8,691.1 180.8,691.1" fill="rgb(255,255,255)"/>
<polygon points="186.8,685.1 192.8,685.1 192.8,691.1 186.8,691.1" fill="rgb(255,255,255)"/>
<polygon points="192.8,685.1 198.8,685.1 198.8,691.1 192.8,691.1" fill="rgb(255,255,255)"/>
<polygon points="198.8,685.1 204.8,685.1 204.8,691.1 198.8,691.1" fill="rgb(255,255,255)"/>
<polygon points="204.8,685.1 210.8,685.1 210.8,691.1 204.8,691.1" fill="rgb(255,255,255)"/>
<polygon points="210.8,685.1 216.8,685.1 216.8,691.1 210.8,691.1" fill="rgb(255,255,255)"/>
<polygon points="216.8,685.1 222.8,685.1 222.8,691.1 216.8,691.1" fill="rgb(255,255,255)"/>
<polygon points="222.8,685.1 228.8,685.1 228.8,691.1 222.8,691.1" fill="rgb(255,255,255)"/>
<polygon points="228.8,685.1 234.8,685.1 234.8,691.1 228.8,691.1" fill="rgb(255,255,255)"/>
<polygon points="234.8,685.1 240.8,685.1 240.8,691.1 234.8,691.1" fill="rgb(255,255,255)"/>
<polygon points="240.8,685.1 246.8,685.1 246.8,691.1 240.8,691.1" fill="rgb(255,255,255)"/>
<polygon points="246.8,685.1 252.8,685.1 252.8,691.1 246.8,691.1" fill="rgb(128,0,128)"/>
<polygon points="255.8,685.1 261.8,685.1 261.8,691.1 255.8,691.1" fill="rgb(0,255,255)"/>
<polygon points="261.8,685.1 267.8,685.1 267.8,691.1 261.8,691.1" fill="rgb(255,255,255)"/>
<polygon points="267.8,685.1 273.8,685.1 273.8,691.1 267.8,691.1" fill="rgb(255,255,255)"/>
<polygon points="276.8,685.1 282.8,685.1 282.8,691.1 276.8,691.1" fill="rgb(255,213,213)"/>
<polygon points="282.8,685.1 288.8,685.1 288.8,691.1 282.8,691.1" fill="rgb(255,198,198)"/>
<polygon points="288.8,685.1 294.8,685.1 294.8,691.1 288.8,691.1" fill="rgb(255,196,196)"/>
<polygon points="294.8,685.1 300.8,685.1 300.8,691.1 294.8,691.1" fill="rgb(255,174,174)"/>
<polygon points="300.8,685.1 306.8,685.1 306.8,691.1 300.8,691.1" fill="rgb(255,231,231)"/>
<polygon points="306.8,685.1 312.8,685.1 312.8,691.1 306.8,691.1" fill="rgb(254,233,233)"/>
<polygon points="312.8,685.1 318.8,685.1 318.8,691.1 312.8,691.1" fill="rgb(255,230,230)"/>
<polygon points="318.8,685.1 324.8,685.1 324.8,691.1 318.8,691.1" fill="rgb(255,216,216)"/>
<polygon points="324.8,685.1 330.8,685.1 330.8,691.1 324.8,691.1" fill="rgb(254,222,222)"/>
<polygon points="330.8,685.1 336.8,685.1 336.8,691.1 330.8,691.1" fill="rgb(255,186,186)"/>
<polygon points="336.8,685.1 342.8,685.1 342.8,691.1 336.8,691.1" fill="rgb(255,139,139)"/>
<polygon points="342.8,685.1 348.8,685.1 348.8,691.1 342.8,691.1" fill="rgb(255,171,171)"/>
<polygon points="348.8,685.1 354.8,685.1 354.8,691.1 348.8,691.1" fill="rgb(255,127,127)"/>
<polygon points="354.8,685.1 360.8,685.1 360.8,691.1 354.8,691.1" fill="rgb(255,138,138)"/>
<polygon points="132.8,691.1 138.8,691.1 138.8,697.1 132.8,697.1" fill="rgb(255,255,255)"/>
<polygon points="138.8,691.1 144.8,691.1 144.8,697.1 138.8,697.1" fill="rgb(255,255,255)"/>
<polygon points="144.8,691.1 150.8,691.1 150.8,697.1 144.8,697.1" fill="rgb(255,255,255)"/>
<polygon points="150.8,691.1 156.8,691.1 156.8,697.1 150.8,697.1" fill="rgb(255,255,255)"/>
<polygon points="156.8,691.1 162.8,691.1 162.8,697.1 156.8,697.1" fill="rgb(255,255,255)"/>
<polygon points="162.8,691.1 168.8,691.1 168.8,697.1 162.8,697.1" fill="rgb(255,255,255)"/>
<polygon points="168.8,691.1 174.8,691.1 174.8,697.1 168.8,697.1" fill="rgb(255,255,255)"/>
<polygon points="174.8,691.1 180.8,691.1 180.8,697.1 174.8,697.1" fill="rgb(255,255,255)"/>
<polygon points="180.8,691.1 186.8,691.1 186.8,697.1 180.8,697.1" fill="rgb(255,255,255)"/>
<polygon points="186.8,691.1 192.8,691.1 192.8,697.1 186.8,697.1" fill="rgb(255,255,255)"/>
<polygon points="192.8,691.1 198.8,691.1 198.8,697.1 192.8,697.1" fill="rgb(255,255,255)"/>
<polygon points="198.8,691.1 204.8,691.1 204.8,697.1 198.8,697.1" fill="rgb(255,255,255)"/>
<polygon points="204.8,691.1 210.8,691.1 210.8,697.1 204.8,697.1" fill="rgb(255,255,255)"/>
<polygon points="210.8,691.1 216.8,691.1 216.8,697.1 210.8,697.1" fill="rgb(255,255,255)"/>
<polygon points="216.8,691.1 222.8,691.1 222.8,697.1 216.8,697.1" fill="rgb(255,255,255)"/>
<polygon points="222.8,691.1 228.8,691.1 228.8,697.1 222.8,697.1" fill="rgb(255,255,255)"/>
<polygon points="228.8,691.1 234.8,691.1 234.8,697.1 228.8,697.1" fill="rgb(255,255,255)"/>
<polygon points="234.8,691.1 240.8,691.1 240.8,697.1 234.8,697.1" fill="rgb(255,255,255)"/>
<polygon points="240.8,691.1 246.8,691.1 246.8,697.1 240.8,697.1" fill="rgb(255,255,255)"/>
<polygon points="246.8,691.1 252.8,691.1 252.8,697.1 246.8,697.1" fill="rgb(255,255,255)"/>
<polygon points="255.8,691.1 261.8,691.1 261.8,697.1 255.8,697.1" fill="rgb(0,255,255)"/>
<polygon points="261.8,691.1 267.8,691.1 267.8,697.1 261.8,697.1" fill="rgb(255,255,255)"/>
<polygon points="267.8,691.1 273.8,691.1 273.8,697.1 267.8,697.1" fill="rgb(255,255,255)"/>
<polygon points="276.8,691.1 282.8,691.1 282.8,697.1 276.8,697.1" fill="rgb(255,220,220)"/>
<polygon points="282.8,691.1 288.8,691.1 288.8,697.1 282.8,697.1" fill="rgb(255,183,183)"/>
<polygon points="288.8,691.1 294.8,691.1 294.8,697.1 288.8,697.1" fill="rgb(255,179,179)"/>
<polygon points="294.8,691.1 300.8,691.1 300.8,697.1 294.8,697.1" fill="rgb(255,157,157)"/>
<polygon points="300.8,691.1 306.8,691.1 306.8,697.1 300.8,697.1" fill="rgb(254,221,221)"/>
<polygon points="306.8,691.1 312.8,691.1 312.8,697.1 306.8,697.1" fill="rgb(255,247,247)"/>
<polygon points="312.8,691.1 318.8,691.1 318.8,697.1 312.8,697.1" fill="rgb(255,229,229)"/>
<polygon points="318.8,691.1 324.8,691.1 324.8,697.1 318.8,697.1" fill="rgb(255,233,233)"/>
<polygon points="324.8,691.1 330.8,691.1 330.8,697.1 324.8,697.1" fill="rgb(255,238,238)"/>
<polygon points="330.8,691.1 336.8,691.1 336.8,697.1 330.8,697.1" fill="rgb(255,206,206)"/>
<polygon points="336.8,691.1 342.8,691.1 342.8,697.1 336.8,697.1" fill="rgb(255,148,148)"/>
<polygon points="342.8,691.1 348.8,691.1 348.8,697.1 342.8,697.1" fill="rgb(255,187,187)"/>
<polygon points="348.8,691.1 354.8,691.1 354.8,697.1 348.8,697.1" fill="rgb(255,152,152)"/>
<polygon points="354.8,691.1 360.8,691.1 360.8,697.1 354.8,697.1" fill="rgb(254,128,128)"/>
<polygon points="132.8,697.1 138.8,697.1 138.8,703.1 132.8,703.1" fill="rgb(255,255,255)"/>
<polygon points="138.8,697.1 144.8,697.1 144.8,703.1 138.8,703.1" fill="rgb(255,255,255)"/>
<polygon points="144.8,697.1 150.8,697.1 150.8,703.1 144.8,703.1" fill="rgb(255,255,255)"/>
<polygon points="150.8,697.1 156.8,697.1 156.8,703.1 150.8,703.1" fill="rgb(255,255,255)"/>
<polygon points="156.8,697.1 162.8,697.1 162.8,703.1 156.8,703.1" fill="rgb(255,255,255)"/>
<polygon points="162.8,697.1 168.8,697.1 168.8,703.1 162.8,703.1" fill="rgb(255,255,255)"/>
<polygon points="168.8,697.1 174.8,697.1 174.8,703.1 168.8,703.1" fill="rgb(255,255,255)"/>
<polygon points="174.8,697.1 180.8,697.1 180.8,703.1 174.8,703.1" fill="rgb(255,255,255)"/>
<polygon points="180.8,697.1 186.8,697.1 186.8,703.1 180.8,703.1" fill="rgb(255,255,255)"/>
<polygon points="186.8,697.1 192.8,697.1 192.8,703.1 186.8,703.1" fill="rgb(255,255,255)"/>
<polygon points="192.8,697.1 198.8,697.1 198.8,703.1 192.8,703.1" fill="rgb(255,255,255)"/>
<polygon points="198.8,697.1 204.8,697.1 204.8,703.1 198.8,703.1" fill="rgb(255,255,255)"/>
<polygon points="204.8,697.1 210.8,697.1 210.8,703.1 204.8,703.1" fill="rgb(255,255,255)"/>
<polygon points="210.8,697.1 216.8,697.1 216.8,703.1 210.8,703.1" fill="rgb(255,255,255)"/>
<polygon points="216.8,697.1 222.8,697.1 222.8,703.1 216.8,703.1" fill="rgb(255,255,255)"/>
<polygon points="222.8,697.1 228.8,697.1 228.8,703.1 222.8,703.1" fill="rgb(255,255,255)"/>
<polygon points="228.8,697.1 234.8,697.1 234.8,703.1 228.8,703.1" fill="rgb(255,255,255)"/>
<polygon points="234.8,697.1 240.8,697.1 240.8,703.1 234.8,703.1" fill="rgb(255,255,255)"/>
<polygon points="240.8,697.1 246.8,697.1 246.8,703.1 240.8,703.1" fill="rgb(255,255,255)"/>
<polygon points="246.8,697.1 252.8,697.1 252.8,703.1 246.8,703.1" fill="rgb(255,255,255)"/>
<polygon points="255.8,697.1 261.8,697.1 261.8,703.1 255.8,703.1" fill="rgb(0,255,255)"/>
<polygon points="261.8,697.1 267.8,697.1 267.8,703.1 261.8,703.1" fill="rgb(255,255,255)"/>
<polygon points="267.8,697.1 273.8,697.1 273.8,703.1 267.8,703.1" fill="rgb(255,255,255)"/>
<polygon points="276.8,697.1 282.8,697.1 282.8,703.1 276.8,703.1" fill="rgb(255,186,186)"/>
<polygon points="282.8,697.1 288.8,697.1 288.8,703.1 282.8,703.1" fill="rgb(255,178,178)"/>
<polygon points="288.8,697.1 294.8,697.1 294.8,703.1 288.8,703.1" fill="rgb(255,168,168)"/>
<polygon points="294.8,697.1 300.8,697.1 300.8,703.1 294.8,703.1" fill="rgb(255,140,140)"/>
<polygon points="300.8,697.1 306.8,697.1 306.8,703.1 300.8,703.1" fill="rgb(255,213,213)"/>
<polygon points="306.8,697.1 312.8,697.1 312.8,703.1 306.8,703.1" fill="rgb(254,214,214)"/>
<polygon points="312.8,697.1 318.8,697.1 318.8,703.1 312.8,703.1" fill="rgb(255,210,210)"/>
<polygon points="318.8,697.1 324.8,697.1 324.8,703.1 318.8,703.1" fill="rgb(254,188,188)"/>
<polygon points="324.8,697.1 330.8,697.1 330.8,703.1 324.8,703.1" fill="rgb(255,203,203)"/>
<polygon points="330.8,697.1 336.8,697.1 336.8,703.1 330.8,703.1" fill="rgb(255,171,171)"/>
<polygon points="336.8,697.1 342.8,697.1 342.8,703.1 336.8,703.1" fill="rgb(254,140,140)"/>
<polygon points="342.8,697.1 348.8,697.1 348.8,703.1 342.8,703.1" fill="rgb(255,173,173)"/>
<polygon points="348.8,697.1 354.8,697.1 354.8,703.1 348.8,703.1" fill="rgb(255,149,149)"/>
<polygon points="354.8,697.1 360.8,697.1 360.8,703.1 354.8,703.1" fill="rgb(255,133,133)"/>
<polygon points="132.8,703.1 138.8,703.1 138.8,709.1 132.8,709.1" fill="rgb(255,255,255)"/>
<polygon points="138.8,703.1 144.8,703.1 144.8,709.1 138.8,709.1" fill="rgb(255,255,255)"/>
<polygon points="144.8,703.1 150.8,703.1 150.8,709.1 144.8,709.1" fill="rgb(255,255,255)"/>
<polygon points="150.8,703.1 156.8,703.1 156.8,709.1 150.8,709.1" fill="rgb(255,255,255)"/>
<polygon points="156.8,703.1 162.8,703.1 162.8,709.1 156.8,709.1" fill="rgb(255,255,255)"/>
<polygon points="162.8,703.1 168.8,703.1 168.8,709.1 162.8,709.1" fill="rgb(255,255,255)"/>
<polygon points="168.8,703.1 174.8,703.1 174.8,709.1 168.8,709.1" fill="rgb(255,255,255)"/>
<polygon points="174.8,703.1 180.8,703.1 180.8,709.1 174.8,709.1" fill="rgb(255,255,255)"/>
<polygon points="180.8,703.1 186.8,703.1 186.8,709.1 180.8,709.1" fill="rgb(255,255,255)"/>
<polygon points="186.8,703.1 192.8,703.1 192.8,709.1 186.8,709.1" fill="rgb(255,255,255)"/>
<polygon points="192.8,703.1 198.8,703.1 198.8,709.1 192.8,709.1" fill="rgb(255,255,255)"/>
<polygon points="198.8,703.1 204.8,703.1 204.8,709.1 198.8,709.1" fill="rgb(255,255,255)"/>
<polygon points="204.8,703.1 210.8,703.1 210.8,709.1 204.8,709.1" fill="rgb(255,255,255)"/>
<polygon points="210.8,703.1 216.8,703.1 216.8,709.1 210.8,709.1" fill="rgb(255,255,255)"/>
<polygon points="216.8,703.1 222.8,703.1 222.8,709.1 216.8,709.1" fill="rgb(255,255,255)"/>
<polygon points="222.8,703.1 228.8,703.1 228.8,709.1 222.8,709.1" fill="rgb(255,255,255)"/>
<polygon points="228.8,703.1 234.8,703.1 234.8,709.1 228.8,709.1" fill="rgb(255,255,255)"/>
<polygon points="234.8,703.1 240.8,703.1 240.8,709.1 234.8,709.1" fill="rgb(255,255,255)"/>
<polygon points="240.8,703.1 246.8,703.1 246.8,709.1 240.8,709.1" fill="rgb(255,255,255)"/>
<polygon points="246.8,703.1 252.8,703.1 252.8,709.1 246.8,709.1" fill="rgb(128,0,128)"/>
<polygon points="255.8,703.1 261.8,703.1 261.8,709.1 255.8,709.1" fill="rgb(0,255,255)"/>
<polygon points="261.8,703.1 267.8,703.1 267.8,709.1 261.8,709.1" fill="rgb(255,255,255)"/>
<polygon points="267.8,703.1 273.8,703.1 273.8,709.1 267.8,709.1" fill="rgb(255,255,255)"/>
<polygon points="276.8,703.1 282.8,703.1 282.8,709.1 276.8,709.1" fill="rgb(255,179,179)"/>
<polygon points="282.8,703.1 288.8,703.1 288.8,709.1 282.8,709.1" fill="rgb(255,165,165)"/>
<polygon points="288.8,703.1 294.8,703.1 294.8,709.1 288.8,709.1" fill="rgb(255,133,133)"/>
<polygon points="294.8,703.1 300.8,703.1 300.8,709.1 294.8,709.1" fill="rgb(255,124,124)"/>
<polygon points="300.8,703.1 306.8,703.1 306.8,709.1 300.8,709.1" fill="rgb(255,197,197)"/>
<polygon points="306.8,703.1 312.8,703.1 312.8,709.1 306.8,709.1" fill="rgb(255,207,207)"/>
<polygon points="312.8,703.1 318.8,703.1 318.8,709.1 312.8,709.1" fill="rgb(255,176,176)"/>
<polygon points="318.8,703.1 324.8,703.1 324.8,709.1 318.8,709.1" fill="rgb(255,175,175)"/>
<polygon points="324.8,703.1 330.8,703.1 330.8,709.1 324.8,709.1" fill="rgb(255,192,192)"/>
<polygon points="330.8,703.1 336.8,703.1 336.8,709.1 330.8,709.1" fill="rgb(255,156,156)"/>
<polygon points="336.8,703.1 342.8,703.1 342.8,709.1 336.8,709.1" fill="rgb(255,94,94)"/>
<polygon points="342.8,703.1 348.8,703.1 348.8,709.1 342.8,709.1" fill="rgb(255,101,101)"/>
<polygon points="348.8,703.1 354.8,703.1 354.8,709.1 348.8,709.1" fill="rgb(255,75,75)"/>
<polygon points="354.8,703.1 360.8,703.1 360.8,709.1 354.8,709.1" fill="rgb(255,31,31)"/>
<polygon points="132.8,709.1 138.8,709.1 138.8,715.1 132.8,715.1" fill="rgb(128,0,128)"/>
<polygon points="138.8,709.1 144.8,709.1 144.8,715.1 138.8,715.1" fill="rgb(128,0,128)"/>
<polygon points="144.8,709.1 150.8,709.1 150.8,715.1 144.8,715.1" fill="rgb(128,0,128)"/>
<polygon points="150.8,709.1 156.8,709.1 156.8,715.1 150.8,715.1" fill="rgb(128,0,128)"/>
<polygon points="156.8,709.1 162.8,709.1 162.8,715.1 156.8,715.1" fill="rgb(128,0,128)"/>
<polygon points="162.8,709.1 168.8,709.1 168.8,715.1 162.8,715.1" fill="rgb(128,0,128)"/>
<polygon points="168.8,709.1 174.8,709.1 174.8,715.1 168.8,715.1" fill="rgb(128,0,128)"/>
<polygon points="174.8,709.1 180.8,709.1 180.8,715.1 174.8,715.1" fill="rgb(128,0,128)"/>
<polygon points="180.8,709.1 186.8,709.1 186.8,715.1 180.8,715.1" fill="rgb(128,0,128)"/>
<polygon points="186.8,709.1 192.8,709.1 192.8,715.1 186.8,715.1" fill="rgb(128,0,128)"/>
<polygon points="192.8,709.1 198.8,709.1 198.8,715.1 192.8,715.1" fill="rgb(128,0,128)"/>
<polygon points="198.8,709.1 204.8,709.1 204.8,715.1 198.8,715.1" fill="rgb(128,0,128)"/>
<polygon points="204.8,709.1 210.8,709.1 210.8,715.1 204.8,715.1" fill="rgb(128,0,128)"/>
<polygon points="210.8,709.1 216.8,709.1 216.8,715.1 210.8,715.1" fill="rgb(128,0,128)"/>
<polygon points="216.8,709.1 222.8,709.1 222.8,715.1 216.8,715.1" fill="rgb(128,0,128)"/>
<polygon points="222.8,709.1 228.8,709.1 228.8,715.1 222.8,715.1" fill="rgb(128,0,128)"/>
<polygon points="228.8,709.1 234.8,709.1 234.8,715.1 228.8,715.1" fill="rgb(128,0,128)"/>
<polygon points="234.8,709.1 240.8,709.1 240.8,715.1 234.8,715.1" fill="rgb(128,0,128)"/>
<polygon points="240.8,709.1 246.8,709.1 246.8,715.1 240.8,715.1" fill="rgb(128,0,128)"/>
<polygon points="246.8,709.1 252.8,709.1 252.8,715.1 246.8,715.1" fill="rgb(255,255,255)"/>
<polygon points="255.8,709.1 261.8,709.1 261.8,715.1 255.8,715.1" fill="rgb(0,255,255)"/>
<polygon points="261.8,709.1 267.8,709.1 267.8,715.1 261.8,715.1" fill="rgb(255,255,255)"/>
<polygon points="267.8,709.1 273.8,709.1 273.8,715.1 267.8,715.1" fill="rgb(255,255,255)"/>
<polygon points="276.8,709.1 282.8,709.1 282.8,715.1 276.8,715.1" fill="rgb(255,146,146)"/>
<polygon points="282.8,709.1 288.8,709.1 288.8,715.1 282.8,715.1" fill="rgb(255,126,126)"/>
<polygon points="288.8,709.1 294.8,709.1 294.8,715.1 288.8,715.1" fill="rgb(255,129,129)"/>
<polygon points="294.8,709.1 300.8,709.1 300.8,715.1 294.8,715.1" fill="rgb(255,107,107)"/>
<polygon points="300.8,709.1 306.8,709.1 306.8,715.1 300.8,715.1" fill="rgb(255,191,191)"/>
<polygon points="306.8,709.1 312.8,709.1 312.8,715.1 306.8,715.1" fill="rgb(255,207,207)"/>
<polygon points="312.8,709.1 318.8,709.1 318.8,715.1 312.8,715.1" fill="rgb(255,198,198)"/>
<polygon points="318.8,709.1 324.8,709.1 324.8,715.1 318.8,715.1" fill="rgb(255,182,182)"/>
<polygon points="324.8,709.1 330.8,709.1 330.8,715.1 324.8,715.1" fill="rgb(255,197,197)"/>
<polygon points="330.8,709.1 336.8,709.1 336.8,715.1 330.8,715.1" fill="rgb(254,155,155)"/>
<polygon points="336.8,709.1 342.8,709.1 342.8,715.1 336.8,715.1" fill="rgb(255,100,100)"/>
<polygon points="342.8,709.1 348.8,709.1 348.8,715.1 342.8,715.1" fill="rgb(255,127,127)"/>
<polygon points="348.8,709.1 354.8,709.1 354.8,715.1 348.8,715.1" fill="rgb(255,121,121)"/>
<polygon points="354.8,709.1 360.8,709.1 360.8,715.1 354.8,715.1" fill="rgb(255,107,107)"/>
<polygon points="132.8,718.1 138.8,718.1 138.8,724.1 132.8,724.1" fill="rgb(255,255,255)"/>
<polygon points="138.8,718.1 144.8,718.1 144.8,724.1 138.8,724.1" fill="rgb(255,255,255)"/>
<polygon points="144.8,718.1 150.8,718.1 150.8,724.1 144.8,724.1" fill="rgb(255,255,255)"/>
<polygon points="150.8,718.1 156.8,718.1 156.8,724.1 150.8,724.1" fill="rgb(255,255,255)"/>
<polygon points="156.8,718.1 162.8,718.1 162.8,724.1 156.8,724.1" fill="rgb(255,255,255)"/>
<polygon points="162.8,718.1 168.8,718.1 168.8,724.1 162.8,724.1" fill="rgb(255,255,255)"/>
<polygon points="168.8,718.1 174.8,718.1 174.8,724.1 168.8,724.1" fill="rgb(255,255,255)"/>
<polygon points="174.8,718.1 180.8,718.1 180.8,724.1 174.8,724.1" fill="rgb(255,255,255)"/>
<polygon points="180.8,718.1 186.8,718.1 186.8,724.1 180.8,724.1" fill="rgb(255,255,255)"/>
<polygon points="186.8,718.1 192.8,718.1 192.8,724.1 186.8,724.1" fill="rgb(255,255,255)"/>
<polygon points="192.8,718.1 198.8,718.1 198.8,724.1 192.8,724.1" fill="rgb(255,255,255)"/>
<polygon points="198.8,718.1 204.8,718.1 204.8,724.1 198.8,724.1" fill="rgb(255,255,255)"/>
<polygon points="204.8,718.1 210.8,718.1 210.8,724.1 204.8,724.1" fill="rgb(255,255,255)"/>
<polygon points="210.8,718.1 216.8,718.1 216.8,724.1 210.8,724.1" fill="rgb(255,255,255)"/>
<polygon points="216.8,718.1 222.8,718.1 222.8,724.1 216.8,724.1" fill="rgb(255,255,255)"/>
<polygon points="222.8,718.1 228.8,718.1 228.8,724.1 222.8,724.1" fill="rgb(255,255,255)"/>
<polygon points="228.8,718.1 234.8,718.1 234.8,724.1 228.8,724.1" fill="rgb(255,255,255)"/>
<polygon points="234.8,718.1 240.8,718.1 240.8,724.1 234.8,724.1" fill="rgb(255,255,255)"/>
<polygon points="240.8,718.1 246.8,718.1 246.8,724.1 240.8,724.1" fill="rgb(255,255,255)"/>
<polygon points="246.8,718.1 252.8,718.1 252.8,724.1 246.8,724.1" fill="rgb(255,255,255)"/>
<polygon points="255.8,718.1 261.8,718.1 261.8,724.1 255.8,724.1" fill="rgb(255,255,255)"/>
<polygon points="261.8,718.1 267.8,718.1 267.8,724.1 261.8,724.1" fill="rgb(255,255,255)"/>
<polygon points="267.8,718.1 273.8,718.1 273.8,724.1 267.8,724.1" fill="rgb(255,255,255)"/>
<polygon points="276.8,718.1 282.8,718.1 282.8,724.1 276.8,724.1" fill="rgb(0,0,255)"/>
<polygon points="282.8,718.1 288.8,718.1 288.8,724.1 282.8,724.1" fill="rgb(0,0,255)"/>
<polygon points="288.8,718.1 294.8,718.1 294.8,724.1 288.8,724.1" fill="rgb(255,241,241)"/>
<polygon points="294.8,718.1 300.8,718.1 300.8,724.1 294.8,724.1" fill="rgb(255,205,205)"/>
<polygon points="300.8,718.1 306.8,718.1 306.8,724.1 300.8,724.1" fill="rgb(0,0,255)"/>
<polygon points="306.8,718.1 312.8,718.1 312.8,724.1 306.8,724.1" fill="rgb(0,0,255)"/>
<polygon points="312.8,718.1 318.8,718.1 318.8,724.1 312.8,724.1" fill="rgb(0,0,255)"/>
<polygon points="318.8,718.1 324.8,718.1 324.8,724.1 318.8,724.1" fill="rgb(0,0,255)"/>
<polygon points="324.8,718.1 330.8,718.1 330.8,724.1 324.8,724.1" fill="rgb(0,0,255)"/>
<polygon points="330.8,718.1 336.8,718.1 336.8,724.1 330.8,724.1" fill="rgb(205,205,255)"/>
<polygon points="336.8,718.1 342.8,718.1 342.8,724.1 336.8,724.1" fill="rgb(255,169,169)"/>
<polygon points="342.8,718.1 348.8,718.1 348.8,724.1 342.8,724.1" fill="rgb(255,216,216)"/>
<polygon points="348.8,718.1 354.8,718.1 354.8,724.1 348.8,724.1" fill="rgb(255,156,156)"/>
<polygon points="354.8,718.1 360.8,718.1 360.8,724.1 354.8,724.1" fill="rgb(255,105,105)"/>
<polygon points="132.8,724.1 138.8,724.1 138.8,730.1 132.8,730.1" fill="rgb(255,255,255)"/>
<polygon points="138.8,724.1 144.8,724.1 144.8,730.1 138.8,730.1" fill="rgb(255,255,255)"/>
<polygon points="144.8,724.1 150.8,724.1 150.8,730.1 144.8,730.1" fill="rgb(255,255,255)"/>
<polygon points="150.8,724.1 156.8,724.1 156.8,730.1 150.8,730.1" fill="rgb(255,255,255)"/>
<polygon points="156.8,724.1 162.8,724.1 162.8,730.1 156.8,730.1" fill="rgb(255,255,255)"/>
<polygon points="162.8,724.1 168.8,724.1 168.8,730.1 162.8,730.1" fill="rgb(255,255,255)"/>
<polygon points="168.8,724.1 174.8,724.1 174.8,730.1 168.8,730.1" fill="rgb(255,255,255)"/>
<polygon points="174.8,724.1 180.8,724.1 180.8,730.1 174.8,730.1" fill="rgb(255,255,255)"/>
<polygon points="180.8,724.1 186.8,724.1 186.8,730.1 180.8,730.1" fill="rgb(255,255,255)"/>
<polygon points="186.8,724.1 192.8,724.1 192.8,730.1 186.8,730.1" fill="rgb(255,255,255)"/>
<polygon points="192.8,724.1 198.8,724.1 198.8,730.1 192.8,730.1" fill="rgb(255,255,255)"/>
<polygon points="198.8,724.1 204.8,724.1 204.8,730.1 198.8,730.1" fill="rgb(255,255,255)"/>
<polygon points="204.8,724.1 210.8,724.1 210.8,730.1 204.8,730.1" fill="rgb(255,255,255)"/>
<polygon points="210.8,724.1 216.8,724.1 216.8,730.1 210.8,730.1" fill="rgb(255,255,255)"/>
<polygon points="216.8,724.1 222.8,724.1 222.8,730.1 216.8,730.1" fill="rgb(255,255,255)"/>
<polygon points="222.8,724.1 228.8,724.1 228.8,730.1 222.8,730.1" fill="rgb(255,255,255)"/>
<polygon points="228.8,724.1 234.8,724.1 234.8,730.1 228.8,730.1" fill="rgb(255,255,255)"/>
<polygon points="234.8,724.1 240.8,724.1 240.8,730.1 234.8,730.1" fill="rgb(255,255,255)"/>
<polygon points="240.8,724.1 246.8,724.1 246.8,730.1 240.8,730.1" fill="rgb(255,255,255)"/>
<polygon points="246.8,724.1 252.8,724.1 252.8,730.1 246.8,730.1" fill="rgb(255,255,255)"/>
<polygon points="255.8,724.1 261.8,724.1 261.8,730.1 255.8,730.1" fill="rgb(255,255,255)"/>
<polygon points="261.8,724.1 267.8,724.1 267.8,730.1 261.8,730.1" fill="rgb(255,255,255)"/>
<polygon points="267.8,724.1 273.8,724.1 273.8,730.1 267.8,730.1" fill="rgb(255,255,255)"/>
<polygon points="276.8,724.1 282.8,724.1 282.8,730.1 276.8,730.1" fill="rgb(0,0,255)"/>
<polygon points="282.8,724.1 288.8,724.1 288.8,730.1 282.8,730.1" fill="rgb(0,0,255)"/>
<polygon points="288.8,724.1 294.8,724.1 294.8,730.1 288.8,730.1" fill="rgb(255,251,251)"/>
<polygon points="294.8,724.1 300.8,724.1 300.8,730.1 294.8,730.1" fill="rgb(255,200,200)"/>
<polygon points="300.8,724.1 306.8,724.1 306.8,730.1 300.8,730.1" fill="rgb(0,0,255)"/>
<polygon points="306.8,724.1 312.8,724.1 312.8,730.1 306.8,730.1" fill="rgb(0,0,255)"/>
<polygon points="312.8,724.1 318.8,724.1 318.8,730.1 312.8,730.1" fill="rgb(0,0,255)"/>
<polygon points="318.8,724.1 324.8,724.1 324.8,730.1 318.8,730.1" fill="rgb(0,0,255)"/>
<polygon points="324.8,724.1 330.8,724.1 330.8,730.1 324.8,730.1" fill="rgb(0,0,255)"/>
<polygon points="330.8,724.1 336.8,724.1 336.8,730.1 330.8,730.1" fill="rgb(255,238,238)"/>
<polygon points="336.8,724.1 342.8,724.1 342.8,730.1 336.8,730.1" fill="rgb(255,189,189)"/>
<polygon points="342.8,724.1 348.8,724.1 348.8,730.1 342.8,730.1" fill="rgb(0,0,255)"/>
<polygon points="348.8,724.1 354.8,724.1 354.8,730.1 348.8,730.1" fill="rgb(255,226,226)"/>
<polygon points="354.8,724.1 360.8,724.1 360.8,730.1 354.8,730.1" fill="rgb(254,246,246)"/>
<polygon points="132.8,730.1 138.8,730.1 138.8,736.1 132.8,736.1" fill="rgb(255,255,255)"/>
<polygon points="138.8,730.1 144.8,730.1 144.8,736.1 138.8,736.1" fill="rgb(255,255,255)"/>
<polygon points="144.8,730.1 150.8,730.1 150.8,736.1 144.8,736.1" fill="rgb(255,255,255)"/>
<polygon points="150.8,730.1 156.8,730.1 156.8,736.1 150.8,736.1" fill="rgb(255,255,255)"/>
<polygon points="156.8,730.1 162.8,730.1 162.8,736.1 156.8,736.1" fill="rgb(255,255,255)"/>
<polygon points="162.8,730.1 168.8,730.1 168.8,736.1 162.8,736.1" fill="rgb(255,255,255)"/>
<polygon points="168.8,730.1 174.8,730.1 174.8,736.1 168.8,736.1" fill="rgb(255,255,255)"/>
<polygon points="174.8,730.1 180.8,730.1 180.8,736.1 174.8,736.1" fill="rgb(255,255,255)"/>
<polygon points="180.8,730.1 186.8,730.1 186.8,736.1 180.8,736.1" fill="rgb(255,255,255)"/>
<polygon points="186.8,730.1 192.8,730.1 192.8,736.1 186.8,736.1" fill="rgb(255,255,255)"/>
<polygon points="192.8,730.1 198.8,730.1 198.8,736.1 192.8,736.1" fill="rgb(255,255,255)"/>
<polygon points="198.8,730.1 204.8,730.1 204.8,736.1 198.8,736.1" fill="rgb(255,255,255)"/>
<polygon points="204.8,730.1 210.8,730.1 210.8,736.1 204.8,736.1" fill="rgb(255,255,255)"/>
<polygon points="210.8,730.1 216.8,730.1 216.8,736.1 210.8,736.1" fill="rgb(255,255,255)"/>
<polygon points="216.8,730.1 222.8,730.1 222.8,736.1 216.8,736.1" fill="rgb(255,255,255)"/>
<polygon points="222.8,730.1 228.8,730.1 228.8,736.1 222.8,736.1" fill="rgb(255,255,255)"/>
<polygon points="228.8,730.1 234.8,730.1 234.8,736.1 228.8,736.1" fill="rgb(255,255,255)"/>
<polygon points="234.8,730.1 240.8,730.1 240.8,736.1 234.8,736.1" fill="rgb(255,255,255)"/>
<polygon points="240.8,730.1 246.8,730.1 246.8,736.1 240.8,736.1" fill="rgb(255,255,255)"/>
<polygon points="246.8,730.1 252.8,730.1 252.8,736.1 246.8,736.1" fill="rgb(255,255,255)"/>
<polygon points="255.8,730.1 261.8,730.1 261.8,736.1 255.8,736.1" fill="rgb(255,255,255)"/>
<polygon points="261.8,730.1 267.8,730.1 267.8,736.1 261.8,736.1" fill="rgb(255,255,255)"/>
<polygon points="267.8,730.1 273.8,730.1 273.8,736.1 267.8,736.1" fill="rgb(255,255,255)"/>
<polygon points="276.8,730.1 282.8,730.1 282.8,736.1 276.8,736.1" fill="rgb(0,0,255)"/>
<polygon points="282.8,730.1 288.8,730.1 288.8,736.1 282.8,736.1" fill="rgb(127,127,255)"/>
<polygon points="288.8,730.1 294.8,730.1 294.8,736.1 288.8,736.1" fill="rgb(254,241,241)"/>
<polygon points="294.8,730.1 300.8,730.1 300.8,736.1 294.8,736.1" fill="rgb(255,195,195)"/>
<polygon points="300.8,730.1 306.8,730.1 306.8,736.1 300.8,736.1" fill="rgb(0,0,255)"/>
<polygon points="306.8,730.1 312.8,730.1 312.8,736.1 306.8,736.1" fill="rgb(0,0,255)"/>
<polygon points="312.8,730.1 318.8,730.1 318.8,736.1 312.8,736.1" fill="rgb(0,0,255)"/>
<polygon points="318.8,730.1 324.8,730.1 324.8,736.1 318.8,736.1" fill="rgb(0,0,255)"/>
<polygon points="324.8,730.1 330.8,730.1 330.8,736.1 324.8,736.1" fill="rgb(0,0,255)"/>
<polygon points="330.8,730.1 336.8,730.1 336.8,736.1 330.8,736.1" fill="rgb(0,0,255)"/>
<polygon points="336.8,730.1 342.8,730.1 342.8,736.1 336.8,736.1" fill="rgb(255,204,204)"/>
<polygon points="342.8,730.1 348.8,730.1 348.8,736.1 342.8,736.1" fill="rgb(255,251,251)"/>
<polygon points="348.8,730.1 354.8,730.1 354.8,736.1 348.8,736.1" fill="rgb(255,238,238)"/>
<polygon points="354.8,730.1 360.8,730.1 360.8,736.1 354.8,736.1" fill="rgb(254,231,231)"/>
<polygon points="132.8,613.1 252.8,613.1 252.8,715.1 132.8,715.1" fill="none" stroke="black" stroke-width="0.5"/>
<polygon points="255.8,613.1 273.8,613.1 273.8,715.1 255.8,715.1" fill="none" stroke="black" stroke-width="0.5"/>
<polygon points="276.8,613.1 360.8,613.1 360.8,715.1 276.8,715.1" fill="none" stroke="black" stroke-width="0.5"/>
<polygon points="132.8,718.1 252.8,718.1 252.8,736.1 132.8,736.1" fill="none" stroke="black" stroke-width="0.5"/>
<polygon points="255.8,718.1 273.8,718.1 273.8,736.1 255.8,736.1" fill="none" stroke="black" stroke-width="0.5"/>
<polygon points="276.8,718.1 360.8,718.1 360.8,736.1 276.8,736.1" fill="none" stroke="black" stroke-width="0.5"/>
<text xml:space="preserve" x="190.4" y="768.767" font-family="Arial" font-size="7" text-anchor="middle">enrichments</text>
<polygon points="80.4,776.1 100.4,776.1 100.4,796.1 80.4,796.1" fill="rgb(255,255,255)"/><polygon points="80.4,776.1 100.4,776.1 100.4,796.1 80.4,796.1" fill="none" stroke="black" stroke-width="0.5"/><text xml:space="preserve" x="90.4" y="788.1" font-family="Arial" font-size="5" fill="rgb(0,0,0)" text-anchor="middle">0.0</text>
<polygon points="100.4,776.1 120.4,776.1 120.4,796.1 100.4,796.1" fill="rgb(216,178,216)"/><polygon points="100.4,776.1 120.4,776.1 120.4,796.1 100.4,796.1" fill="none" stroke="black" stroke-width="0.5"/><text xml:space="preserve" x="110.4" y="788.1" font-family="Arial" font-size="5" fill="rgb(0,0,0)" text-anchor="middle">0.3</text>
<polygon points="120.4,776.1 140.4,776.1 140.4,796.1 120.4,796.1" fill="rgb(178,102,178)"/><polygon points="120.4,776.1 140.4,776.1 140.4,796.1 120.4,796.1" fill="none" stroke="black" stroke-width="0.5"/><text xml:space="preserve" x="130.4" y="788.1" font-family="Arial" font-size="5" fill="rgb(0,0,0)" text-anchor="middle">0.6</text>
<polygon points="140.4,776.1 160.4,776.1 160.4,796.1 140.4,796.1" fill="rgb(140,25,140)"/><polygon points="140.4,776.1 160.4,776.1 160.4,796.1 140.4,796.1" fill="none" stroke="black" stroke-width="0.5"/><text xml:space="preserve" x="150.4" y="788.1" font-family="Arial" font-size="5" fill="rgb(255,255,255)" text-anchor="middle">0.9</text>
<polygon points="160.4,776.1 180.4,776.1 180.4,796.1 160.4,796.1" fill="rgb(102,50,153)"/><polygon points="160.4,776.1 180.4,776.1 180.4,796.1 160.4,796.1" fill="none" stroke="black" stroke-width="0.5"/><text xml:space="preserve" x="170.4" y="788.1" font-family="Arial" font-size="5" fill="rgb(255,255,255)" text-anchor="middle">1.2</text>
<polygon points="180.4,776.1 200.4,776.1 200.4,796.1 180.4,796.1" fill="rgb(64,127,191)"/><polygon points="180.4,776.1 200.4,776.1 200.4,796.1 180.4,796.1" fill="none" stroke="black" stroke-width="0.5"/><text xml:space="preserve" x="190.4" y="788.1" font-family="Arial" font-size="5" fill="rgb(255,255,255)" text-anchor="middle">1.5</text>
<polygon points="200.4,776.1 220.4,776.1 220.4,796.1 200.4,796.1" fill="rgb(25,204,229)"/><polygon points="200.4,776.1 220.4,776.1 220.4,796.1 200.4,796.1" fill="none" stroke="black" stroke-width="0.5"/><text xml:space="preserve" x="210.4" y="788.1" font-family="Arial" font-size="5" fill="rgb(0,0,0)" text-anchor="middle">1.8</text>
<polygon points="220.4,776.1 240.4,776.1 240.4,796.1 220.4,796.1" fill="rgb(0,239,239)"/><polygon points="220.4,776.1 240.4,776.1 240.4,796.1 220.4,796.1" fill="none" stroke="black" stroke-width="0.5"/><text xml:space="preserve" x="230.4" y="788.1" font-family="Arial" font-size="5" fill="rgb(0,0,0)" text-anchor="middle">2.1</text>
<polygon points="240.4,776.1 260.4,776.1 260.4,796.1 240.4,796.1" fill="rgb(0,193,193)"/><polygon points="240.4,776.1 260.4,776.1 260.4,796.1 240.4,796.1" fill="none" stroke="black" stroke-width="0.5"/><text xml:space="preserve" x="250.4" y="788.1" font-family="Arial" font-size="5" fill="rgb(0,0,0)" text-anchor="middle">2.4</text>
<polygon points="260.4,776.1 280.4,776.1 280.4,796.1 260.4,796.1" fill="rgb(0,146,146)"/><polygon points="260.4,776.1 280.4,776.1 280.4,796.1 260.4,796.1" fill="none" stroke="black" stroke-width="0.5"/><text xml:space="preserve" x="270.4" y="788.1" font-family="Arial" font-size="5" fill="rgb(255,255,255)" text-anchor="middle">2.7</text>
<polygon points="280.4,776.1 300.4,776.1 300.4,796.1 280.4,796.1" fill="rgb(0,100,100)"/><polygon points="280.4,776.1 300.4,776.1 300.4,796.1 280.4,796.1" fill="none" stroke="black" stroke-width="0.5"/><text xml:space="preserve" x="290.4" y="788.1" font-family="Arial" font-size="5" fill="rgb(255,255,255)" text-anchor="middle">3.0</text>
<text xml:space="preserve" x="190.4" y="828.767" font-family="Arial" font-size="7" text-anchor="middle">expression</text>
<polygon points="80.4,836.1 100.4,836.1 100.4,856.1 80.4,856.1" fill="rgb(0,0,255)"/><polygon points="80.4,836.1 100.4,836.1 100.4,856.1 80.4,856.1" fill="none" stroke="black" stroke-width="0.5"/><text xml:space="preserve" x="90.4" y="848.1" font-family="Arial" font-size="5" fill="rgb(255,255,255)" text-anchor="middle">0.0</text>
<polygon points="100.4,836.1 120.4,836.1 120.4,856.1 100.4,856.1" fill="rgb(255,211,211)"/><polygon points="100.4,836.1 120.4,836.1 120.4,856.1 100.4,856.1" fill="none" stroke="black" stroke-width="0.5"/><text xml:space="preserve" x="110.4" y="848.1" font-family="Arial" font-size="5" fill="rgb(0,0,0)" text-anchor="middle">0.6</text>
<polygon points="120.4,836.1 140.4,836.1 140.4,856.1 120.4,856.1" fill="rgb(255,158,158)"/><polygon points="120.4,836.1 140.4,836.1 140.4,856.1 120.4,856.1" fill="none" stroke="black" stroke-width="0.5"/><text xml:space="preserve" x="130.4" y="848.1" font-family="Arial" font-size="5" fill="rgb(0,0,0)" text-anchor="middle">1.2</text>
<polygon points="140.4,836.1 160.4,836.1 160.4,856.1 140.4,856.1" fill="rgb(255,105,105)"/><polygon points="140.4,836.1 160.4,836.1 160.4,856.1 140.4,856.1" fill="none" stroke="black" stroke-width="0.5"/><text xml:space="preserve" x="150.4" y="848.1" font-family="Arial" font-size="5" fill="rgb(0,0,0)" text-anchor="middle">1.8</text>
<polygon points="160.4,836.1 180.4,836.1 180.4,856.1 160.4,856.1" fill="rgb(255,52,52)"/><polygon points="160.4,836.1 180.4,836.1 180.4,856.1 160.4,856.1" fill="none" stroke="black" stroke-width="0.5"/><text xml:space="preserve" x="170.4" y="848.1" font-family="Arial" font-size="5" fill="rgb(255,255,255)" text-anchor="middle">2.4</text>
<polygon points="180.4,836.1 200.4,836.1 200.4,856.1 180.4,856.1" fill="rgb(255,0,0)"/><polygon points="180.4,836.1 200.4,836.1 200.4,856.1 180.4,856.1" fill="none" stroke="black" stroke-width="0.5"/><text xml:space="preserve" x="190.4" y="848.1" font-family="Arial" font-size="5" fill="rgb(255,255,255)" text-anchor="middle">3.0</text>
<polygon points="200.4,836.1 220.4,836.1 220.4,856.1 200.4,856.1" fill="rgb(231,0,0)"/><polygon points="200.4,836.1 220.4,836.1 220.4,856.1 200.4,856.1" fill="none" stroke="black" stroke-width="0.5"/><text xml:space="preserve" x="210.4" y="848.1" font-family="Arial" font-size="5" fill="rgb(255,255,255)" text-anchor="middle">3.6</text>
<polygon points="220.4,836.1 240.4,836.1 240.4,856.1 220.4,856.1" fill="rgb(208,0,0)"/><polygon points="220.4,836.1 240.4,836.1 240.4,856.1 220.4,856.1" fill="none" stroke="black" stroke-width="0.5"/><text xml:space="preserve" x="230.4" y="848.1" font-family="Arial" font-size="5" fill="rgb(255,255,255)" text-anchor="middle">4.2</text>
<polygon points="240.4,836.1 260.4,836.1 260.4,856.1 240.4,856.1" fill="rgb(185,0,0)"/><polygon points="240.4,836.1 260.4,836.1 260.4,856.1 240.4,856.1" fill="none" stroke="black" stroke-width="0.5"/><text xml:space="preserve" x="250.4" y="848.1" font-family="Arial" font-size="5" fill="rgb(255,255,255)" text-anchor="middle">4.8</text>
<polygon points="260.4,836.1 280.4,836.1 280.4,856.1 260.4,856.1" fill="rgb(162,0,0)"/><polygon points="260.4,836.1 280.4,836.1 280.4,856.1 260.4,856.1" fill="none" stroke="black" stroke-width="0.5"/><text xml:space="preserve" x="270.4" y="848.1" font-family="Arial" font-size="5" fill="rgb(255,255,255)" text-anchor="middle">5.4</text>
<polygon points="280.4,836.1 300.4,836.1 300.4,856.1 280.4,856.1" fill="rgb(139,0,0)"/><polygon points="280.4,836.1 300.4,836.1 300.4,856.1 280.4,856.1" fill="none" stroke="black" stroke-width="0.5"/><text xml:space="preserve" x="290.4" y="848.1" font-family="Arial" font-size="5" fill="rgb(255,255,255)" text-anchor="middle">6.0</text>
</svg>
