<?xml version="1.0" standalone="no"?><!DOCTYPE svg PUBLIC "-//W3C//DTD SVG 1.1//EN" "http://www.w3.org/Graphics/SVG/1.1/DTD/svg11.dtd">
<svg width="370.1" height="459.1" version="1.1" xmlns="http://www.w3.org/2000/svg">
<text xml:space="preserve" x="126.1" y="135.767" font-family="Arial" font-size="7" text-anchor="end">Aebp1</text>
<text xml:space="preserve" x="126.1" y="141.767" font-family="Arial" font-size="7" text-anchor="end">Angptl2</text>
<text xml:space="preserve" x="126.1" y="147.767" font-family="Arial" font-size="7" text-anchor="end">Cspg4</text>
<text xml:space="preserve" x="126.1" y="153.767" font-family="Arial" font-size="7" text-anchor="end">Cd248</text>
<text xml:space="preserve" x="126.1" y="159.767" font-family="Arial" font-size="7" text-anchor="end">Mfge8</text>
<text xml:space="preserve" x="126.1" y="165.767" font-family="Arial" font-size="7" text-anchor="end">Mrc2</text>
<text xml:space="preserve" x="126.1" y="171.767" font-family="Arial" font-size="7" text-anchor="end">Qsox1</text>
<text xml:space="preserve" x="126.1" y="177.767" font-family="Arial" font-size="7" text-anchor="end">Wisp2</text>
<text xml:space="preserve" x="126.1" y="183.767" font-family="Arial" font-size="7" text-anchor="end">Tmed3</text>
<text xml:space="preserve" x="126.1" y="189.767" font-family="Arial" font-size="7" text-anchor="end">Thbd</text>
<text xml:space="preserve" x="126.1" y="195.767" font-family="Arial" font-size="7" text-anchor="end">Vasn</text>
<text xml:space="preserve" x="126.1" y="201.767" font-family="Arial" font-size="7" text-anchor="end">H13</text>
<text xml:space="preserve" x="126.1" y="207.767" font-family="Arial" font-size="7" text-anchor="end">Ltbp1</text>
<text xml:space="preserve" x="126.1" y="213.767" font-family="Arial" font-size="7" text-anchor="end">Prrx2</text>
<text xml:space="preserve" x="126.1" y="219.767" font-family="Arial" font-size="7" text-anchor="end">Slc39a13</text>
<text xml:space="preserve" x="126.1" y="225.767" font-family="Arial" font-size="7" text-anchor="end">Fads3</text>
<text xml:space="preserve" x="126.1" y="231.767" font-family="Arial" font-size="7" text-anchor="end">Loxl1</text>
<text xml:space="preserve" x="126.1" y="237.767" font-family="Arial" font-size="7" text-anchor="end">Lrrc32</text>
<text xml:space="preserve" x="126.1" y="243.767" font-family="Arial" font-size="7" text-anchor="end">Crlf1</text>
<text xml:space="preserve" x="126.1" y="249.767" font-family="Arial" font-size="7" text-anchor="end">Map6</text>
<text xml:space="preserve" x="126.1" y="255.767" font-family="Arial" font-size="7" text-anchor="end">Oaf</text>
<text xml:space="preserve" x="126.1" y="261.767" font-family="Arial" font-size="7" text-anchor="end">Gpx8</text>
<text xml:space="preserve" x="126.1" y="267.767" font-family="Arial" font-size="7" text-anchor="end">Itm2c</text>
<text xml:space="preserve" x="126.1" y="273.767" font-family="Arial" font-size="7" text-anchor="end">Ltbp3</text>
<text xml:space="preserve" x="126.1" y="279.767" font-family="Arial" font-size="7" text-anchor="end">Gsn</text>
<text xml:space="preserve" x="126.1" y="285.767" font-family="Arial" font-size="7" text-anchor="end">Mxra8</text>
<text xml:space="preserve" x="126.1" y="291.767" font-family="Arial" font-size="7" text-anchor="end">Selm</text>
<text xml:space="preserve" x="126.1" y="297.767" font-family="Arial" font-size="7" text-anchor="end">Nbl1</text>
<text xml:space="preserve" x="126.1" y="303.767" font-family="Arial" font-size="7" text-anchor="end">Efemp2</text>
<text xml:space="preserve" x="126.1" y="312.767" font-family="Arial" font-size="7" text-anchor="end">Ctcfl_nca:2</text>
<text xml:space="preserve" x="126.1" y="318.767" font-family="Arial" font-size="7" text-anchor="end">Klf3_nca:2</text>
<text xml:space="preserve" x="135.767" y="126.1" font-family="Arial" font-size="7" transform="rotate(270 135.767 126.1)">Ctcfl_nca:2</text>
<text xml:space="preserve" x="141.767" y="126.1" font-family="Arial" font-size="7" transform="rotate(270 141.767 126.1)">Klf3_nca:2</text>
<text xml:space="preserve" x="150.767" y="126.1" font-family="Arial" font-size="7" transform="rotate(270 150.767 126.1)">C2</text>
<text xml:space="preserve" x="156.767" y="126.1" font-family="Arial" font-size="7" transform="rotate(270 156.767 126.1)">C7</text>
<text xml:space="preserve" x="162.767" y="126.1" font-family="Arial" font-size="7" transform="rotate(270 162.767 126.1)">C3</text>
<text xml:space="preserve" x="168.767" y="126.1" font-family="Arial" font-size="7" transform="rotate(270 168.767 126.1)">C5</text>
<text xml:space="preserve" x="174.767" y="126.1" font-family="Arial" font-size="7" transform="rotate(270 174.767 126.1)">C12</text>
<text xml:space="preserve" x="180.767" y="126.1" font-family="Arial" font-size="7" transform="rotate(270 180.767 126.1)">C13</text>
<text xml:space="preserve" x="186.767" y="126.1" font-family="Arial" font-size="7" transform="rotate(270 186.767 126.1)">C14</text>
<text xml:space="preserve" x="192.767" y="126.1" font-family="Arial" font-size="7" transform="rotate(270 192.767 126.1)">C11</text>
<text xml:space="preserve" x="198.767" y="126.1" font-family="Arial" font-size="7" transform="rotate(270 198.767 126.1)">C4</text>
<text xml:space="preserve" x="204.767" y="126.1" font-family="Arial" font-size="7" transform="rotate(270 204.767 126.1)">C8</text>
<text xml:space="preserve" x="210.767" y="126.1" font-family="Arial" font-size="7" transform="rotate(270 210.767 126.1)">C6</text>
<text xml:space="preserve" x="216.767" y="126.1" font-family="Arial" font-size="7" transform="rotate(270 216.767 126.1)">C10</text>
<text xml:space="preserve" x="222.767" y="126.1" font-family="Arial" font-size="7" transform="rotate(270 222.767 126.1)">C9</text>
<text xml:space="preserve" x="228.767" y="126.1" font-family="Arial" font-size="7" transform="rotate(270 228.767 126.1)">C1</text>
<polygon points="130.1,130.1 136.1,130.1 136.1,136.1 130.1,136.1" fill="rgb(0,255,255)"/>
<polygon points="136.1,130.1 142.1,130.1 142.1,136.1 136.1,136.1" fill="rgb(255,255,255)"/>
<polygon points="145.1,130.1 151.1,130.1 151.1,136.1 145.1,136.1" fill="rgb(255,105,105)"/>
<polygon points="151.1,130.1 157.1,130.1 157.1,136.1 151.1,136.1" fill="rgb(255,133,133)"/>
<polygon points="157.1,130.1 163.1,130.1 163.1,136.1 157.1,136.1" fill="rgb(255,178,178)"/>
<polygon points="163.1,130.1 169.1,130.1 169.1,136.1 163.1,136.1" fill="rgb(255,166,166)"/>
<polygon points="169.1,130.1 175.1,130.1 175.1,136.1 169.1,136.1" fill="rgb(255,149,149)"/>
<polygon points="175.1,130.1 181.1,130.1 181.1,136.1 175.1,136.1" fill="rgb(255,117,117)"/>
<polygon points="181.1,130.1 187.1,130.1 187.1,136.1 181.1,136.1" fill="rgb(255,244,244)"/>
<polygon points="187.1,130.1 193.1,130.1 193.1,136.1 187.1,136.1" fill="rgb(255,203,203)"/>
<polygon points="193.1,130.1 199.1,130.1 199.1,136.1 193.1,136.1" fill="rgb(255,224,224)"/>
<polygon points="199.1,130.1 205.1,130.1 205.1,136.1 199.1,136.1" fill="rgb(255,192,192)"/>
<polygon points="205.1,130.1 211.1,130.1 211.1,136.1 205.1,136.1" fill="rgb(255,238,238)"/>
<polygon points="211.1,130.1 217.1,130.1 217.1,136.1 211.1,136.1" fill="rgb(204,204,255)"/>
<polygon points="217.1,130.1 223.1,130.1 223.1,136.1 217.1,136.1" fill="rgb(190,190,255)"/>
<polygon points="223.1,130.1 229.1,130.1 229.1,136.1 223.1,136.1" fill="rgb(91,91,255)"/>
<polygon points="130.1,136.1 136.1,136.1 136.1,142.1 130.1,142.1" fill="rgb(0,255,255)"/>
<polygon points="136.1,136.1 142.1,136.1 142.1,142.1 136.1,142.1" fill="rgb(255,255,255)"/>
<polygon points="145.1,136.1 151.1,136.1 151.1,142.1 145.1,142.1" fill="rgb(255,180,180)"/>
<polygon points="151.1,136.1 157.1,136.1 157.1,142.1 151.1,142.1" fill="rgb(255,181,181)"/>
<polygon points="157.1,136.1 163.1,136.1 163.1,142.1 157.1,142.1" fill="rgb(254,229,229)"/>
<polygon points="163.1,136.1 169.1,136.1 169.1,142.1 163.1,142.1" fill="rgb(255,252,252)"/>
<polygon points="169.1,136.1 175.1,136.1 175.1,142.1 169.1,142.1" fill="rgb(255,234,234)"/>
<polygon points="175.1,136.1 181.1,136.1 181.1,142.1 175.1,142.1" fill="rgb(255,192,192)"/>
<polygon points="181.1,136.1 187.1,136.1 187.1,142.1 181.1,142.1" fill="rgb(164,164,255)"/>
<polygon points="187.1,136.1 193.1,136.1 193.1,142.1 187.1,142.1" fill="rgb(255,247,247)"/>
<polygon points="193.1,136.1 199.1,136.1 199.1,142.1 193.1,142.1" fill="rgb(255,247,247)"/>
<polygon points="199.1,136.1 205.1,136.1 205.1,142.1 199.1,142.1" fill="rgb(255,244,244)"/>
<polygon points="205.1,136.1 211.1,136.1 211.1,142.1 205.1,142.1" fill="rgb(248,248,255)"/>
<polygon points="211.1,136.1 217.1,136.1 217.1,142.1 211.1,142.1" fill="rgb(224,224,255)"/>
<polygon points="217.1,136.1 223.1,136.1 223.1,142.1 217.1,142.1" fill="rgb(126,126,255)"/>
<polygon points="223.1,136.1 229.1,136.1 229.1,142.1 223.1,142.1" fill="rgb(33,33,255)"/>
<polygon points="130.1,142.1 136.1,142.1 136.1,148.1 130.1,148.1" fill="rgb(0,255,255)"/>
<polygon points="136.1,142.1 142.1,142.1 142.1,148.1 136.1,148.1" fill="rgb(255,255,255)"/>
<polygon points="145.1,142.1 151.1,142.1 151.1,148.1 145.1,148.1" fill="rgb(255,181,181)"/>
<polygon points="151.1,142.1 157.1,142.1 157.1,148.1 151.1,148.1" fill="rgb(255,180,180)"/>
<polygon points="157.1,142.1 163.1,142.1 163.1,148.1 157.1,148.1" fill="rgb(255,235,235)"/>
<polygon points="163.1,142.1 169.1,142.1 169.1,148.1 163.1,148.1" fill="rgb(255,246,246)"/>
<polygon points="169.1,142.1 175.1,142.1 175.1,148.1 169.1,148.1" fill="rgb(255,231,231)"/>
<polygon points="175.1,142.1 181.1,142.1 181.1,148.1 175.1,148.1" fill="rgb(255,229,229)"/>
<polygon points="181.1,142.1 187.1,142.1 187.1,148.1 181.1,148.1" fill="rgb(108,108,255)"/>
<polygon points="187.1,142.1 193.1,142.1 193.1,148.1 187.1,148.1" fill="rgb(95,95,255)"/>
<polygon points="193.1,142.1 199.1,142.1 199.1,148.1 193.1,148.1" fill="rgb(219,219,255)"/>
<polygon points="199.1,142.1 205.1,142.1 205.1,148.1 199.1,148.1" fill="rgb(255,247,247)"/>
<polygon points="205.1,142.1 211.1,142.1 211.1,148.1 205.1,148.1" fill="rgb(204,204,255)"/>
<polygon points="211.1,142.1 217.1,142.1 217.1,148.1 211.1,148.1" fill="rgb(49,49,254)"/>
<polygon points="217.1,142.1 223.1,142.1 223.1,148.1 217.1,148.1" fill="rgb(31,31,255)"/>
<polygon points="223.1,142.1 229.1,142.1 229.1,148.1 223.1,148.1" fill="rgb(6,6,255)"/>
<polygon points="130.1,148.1 136.1,148.1 136.1,154.1 130.1,154.1" fill="rgb(0,255,255)"/>
<polygon points="136.1,148.1 142.1,148.1 142.1,154.1 136.1,154.1" fill="rgb(255,255,255)"/>
<polygon points="145.1,148.1 151.1,148.1 151.1,154.1 145.1,154.1" fill="rgb(255,128,128)"/>
<polygon points="151.1,148.1 157.1,148.1 157.1,154.1 151.1,154.1" fill="rgb(255,147,147)"/>
<polygon points="157.1,148.1 163.1,148.1 163.1,154.1 157.1,154.1" fill="rgb(255,205,205)"/>
<polygon points="163.1,148.1 169.1,148.1 169.1,154.1 163.1,154.1" fill="rgb(255,252,252)"/>
<polygon points="169.1,148.1 175.1,148.1 175.1,154.1 169.1,154.1" fill="rgb(255,183,183)"/>
<polygon points="175.1,148.1 181.1,148.1 181.1,154.1 175.1,154.1" fill="rgb(255,148,148)"/>
<polygon points="181.1,148.1 187.1,148.1 187.1,154.1 181.1,154.1" fill="rgb(225,225,255)"/>
<polygon points="187.1,148.1 193.1,148.1 193.1,154.1 187.1,154.1" fill="rgb(254,250,250)"/>
<polygon points="193.1,148.1 199.1,148.1 199.1,154.1 193.1,154.1" fill="rgb(254,250,250)"/>
<polygon points="199.1,148.1 205.1,148.1 205.1,154.1 199.1,154.1" fill="rgb(255,248,248)"/>
<polygon points="205.1,148.1 211.1,148.1 211.1,154.1 205.1,154.1" fill="rgb(89,89,255)"/>
<polygon points="211.1,148.1 217.1,148.1 217.1,154.1 211.1,154.1" fill="rgb(52,52,254)"/>
<polygon points="217.1,148.1 223.1,148.1 223.1,154.1 217.1,154.1" fill="rgb(86,86,255)"/>
<polygon points="223.1,148.1 229.1,148.1 229.1,154.1 223.1,154.1" fill="rgb(11,11,255)"/>
<polygon points="130.1,154.1 136.1,154.1 136.1,160.1 130.1,160.1" fill="rgb(0,255,255)"/>
<polygon points="136.1,154.1 142.1,154.1 142.1,160.1 136.1,160.1" fill="rgb(255,255,255)"/>
<polygon points="145.1,154.1 151.1,154.1 151.1,160.1 145.1,160.1" fill="rgb(255,114,114)"/>
<polygon points="151.1,154.1 157.1,154.1 157.1,160.1 151.1,160.1" fill="rgb(255,130,130)"/>
<polygon points="157.1,154.1 163.1,154.1 163.1,160.1 157.1,160.1" fill="rgb(255,183,183)"/>
<polygon points="163.1,154.1 169.1,154.1 169.1,160.1 163.1,160.1" fill="rgb(255,183,183)"/>
<polygon points="169.1,154.1 175.1,154.1 175.1,160.1 169.1,160.1" fill="rgb(255,172,172)"/>
<polygon points="175.1,154.1 181.1,154.1 181.1,160.1 175.1,160.1" fill="rgb(255,146,146)"/>
<polygon points="181.1,154.1 187.1,154.1 187.1,160.1 181.1,160.1" fill="rgb(255,234,234)"/>
<polygon points="187.1,154.1 193.1,154.1 193.1,160.1 187.1,160.1" fill="rgb(255,192,192)"/>
<polygon points="193.1,154.1 199.1,154.1 199.1,160.1 193.1,160.1" fill="rgb(255,203,203)"/>
<polygon points="199.1,154.1 205.1,154.1 205.1,160.1 199.1,160.1" fill="rgb(255,183,183)"/>
<polygon points="205.1,154.1 211.1,154.1 211.1,160.1 205.1,160.1" fill="rgb(255,203,203)"/>
<polygon points="211.1,154.1 217.1,154.1 217.1,160.1 211.1,160.1" fill="rgb(255,229,229)"/>
<polygon points="217.1,154.1 223.1,154.1 223.1,160.1 217.1,160.1" fill="rgb(255,190,190)"/>
<polygon points="223.1,154.1 229.1,154.1 229.1,160.1 223.1,160.1" fill="rgb(255,219,219)"/>
<polygon points="130.1,160.1 136.1,160.1 136.1,166.1 130.1,166.1" fill="rgb(0,255,255)"/>
<polygon points="136.1,160.1 142.1,160.1 142.1,166.1 136.1,166.1" fill="rgb(255,255,255)"/>
<polygon points="145.1,160.1 151.1,160.1 151.1,166.1 145.1,166.1" fill="rgb(254,204,204)"/>
<polygon points="151.1,160.1 157.1,160.1 157.1,166.1 151.1,166.1" fill="rgb(254,213,213)"/>
<polygon points="157.1,160.1 163.1,160.1 163.1,166.1 157.1,166.1" fill="rgb(255,239,239)"/>
<polygon points="163.1,160.1 169.1,160.1 169.1,166.1 163.1,166.1" fill="rgb(255,252,252)"/>
<polygon points="169.1,160.1 175.1,160.1 175.1,166.1 169.1,166.1" fill="rgb(255,232,232)"/>
<polygon points="175.1,160.1 181.1,160.1 181.1,166.1 175.1,166.1" fill="rgb(255,190,190)"/>
<polygon points="181.1,160.1 187.1,160.1 187.1,166.1 181.1,166.1" fill="rgb(157,157,255)"/>
<polygon points="187.1,160.1 193.1,160.1 193.1,166.1 187.1,166.1" fill="rgb(255,252,252)"/>
<polygon points="193.1,160.1 199.1,160.1 199.1,166.1 193.1,166.1" fill="rgb(255,249,249)"/>
<polygon points="199.1,160.1 205.1,160.1 205.1,166.1 199.1,166.1" fill="rgb(255,250,250)"/>
<polygon points="205.1,160.1 211.1,160.1 211.1,166.1 205.1,166.1" fill="rgb(189,189,255)"/>
<polygon points="211.1,160.1 217.1,160.1 217.1,166.1 211.1,166.1" fill="rgb(89,89,255)"/>
<polygon points="217.1,160.1 223.1,160.1 223.1,166.1 217.1,166.1" fill="rgb(58,58,255)"/>
<polygon points="223.1,160.1 229.1,160.1 229.1,166.1 223.1,166.1" fill="rgb(50,50,255)"/>
<polygon points="130.1,166.1 136.1,166.1 136.1,172.1 130.1,172.1" fill="rgb(0,255,255)"/>
<polygon points="136.1,166.1 142.1,166.1 142.1,172.1 136.1,172.1" fill="rgb(255,255,255)"/>
<polygon points="145.1,166.1 151.1,166.1 151.1,172.1 145.1,172.1" fill="rgb(255,155,155)"/>
<polygon points="151.1,166.1 157.1,166.1 157.1,172.1 151.1,172.1" fill="rgb(255,164,164)"/>
<polygon points="157.1,166.1 163.1,166.1 163.1,172.1 157.1,172.1" fill="rgb(255,212,212)"/>
<polygon points="163.1,166.1 169.1,166.1 169.1,172.1 163.1,172.1" fill="rgb(255,218,218)"/>
<polygon points="169.1,166.1 175.1,166.1 175.1,172.1 169.1,172.1" fill="rgb(255,190,190)"/>
<polygon points="175.1,166.1 181.1,166.1 181.1,172.1 175.1,172.1" fill="rgb(255,182,182)"/>
<polygon points="181.1,166.1 187.1,166.1 187.1,172.1 181.1,172.1" fill="rgb(254,247,247)"/>
<polygon points="187.1,166.1 193.1,166.1 193.1,172.1 187.1,172.1" fill="rgb(255,228,228)"/>
<polygon points="193.1,166.1 199.1,166.1 199.1,172.1 193.1,172.1" fill="rgb(255,229,229)"/>
<polygon points="199.1,166.1 205.1,166.1 205.1,172.1 199.1,172.1" fill="rgb(255,229,229)"/>
<polygon points="205.1,166.1 211.1,166.1 211.1,172.1 205.1,172.1" fill="rgb(255,243,243)"/>
<polygon points="211.1,166.1 217.1,166.1 217.1,172.1 211.1,172.1" fill="rgb(255,249,249)"/>
<polygon points="217.1,166.1 223.1,166.1 223.1,172.1 217.1,172.1" fill="rgb(144,144,255)"/>
<polygon points="223.1,166.1 229.1,166.1 229.1,172.1 223.1,172.1" fill="rgb(186,186,255)"/>
<polygon points="130.1,172.1 136.1,172.1 136.1,178.1 130.1,178.1" fill="rgb(0,255,255)"/>
<polygon points="136.1,172.1 142.1,172.1 142.1,178.1 136.1,178.1" fill="rgb(255,255,255)"/>
<polygon points="145.1,172.1 151.1,172.1 151.1,178.1 145.1,178.1" fill="rgb(255,208,208)"/>
<polygon points="151.1,172.1 157.1,172.1 157.1,178.1 151.1,178.1" fill="rgb(255,215,215)"/>
<polygon points="157.1,172.1 163.1,172.1 163.1,178.1 157.1,178.1" fill="rgb(255,239,239)"/>
<polygon points="163.1,172.1 169.1,172.1 169.1,178.1 163.1,178.1" fill="rgb(120,120,254)"/>
<polygon points="169.1,172.1 175.1,172.1 175.1,178.1 169.1,178.1" fill="rgb(255,229,229)"/>
<polygon points="175.1,172.1 181.1,172.1 181.1,178.1 175.1,178.1" fill="rgb(254,175,175)"/>
<polygon points="181.1,172.1 187.1,172.1 187.1,178.1 181.1,178.1" fill="rgb(0,0,255)"/>
<polygon points="187.1,172.1 193.1,172.1 193.1,178.1 187.1,178.1" fill="rgb(51,51,255)"/>
<polygon points="193.1,172.1 199.1,172.1 199.1,178.1 193.1,178.1" fill="rgb(209,209,255)"/>
<polygon points="199.1,172.1 205.1,172.1 205.1,178.1 199.1,178.1" fill="rgb(34,34,255)"/>
<polygon points="205.1,172.1 211.1,172.1 211.1,178.1 205.1,178.1" fill="rgb(0,0,255)"/>
<polygon points="211.1,172.1 217.1,172.1 217.1,178.1 211.1,178.1" fill="rgb(0,0,255)"/>
<polygon points="217.1,172.1 223.1,172.1 223.1,178.1 217.1,178.1" fill="rgb(10,10,255)"/>
<polygon points="223.1,172.1 229.1,172.1 229.1,178.1 223.1,178.1" fill="rgb(8,8,255)"/>
<polygon points="130.1,178.1 136.1,178.1 136.1,184.1 130.1,184.1" fill="rgb(0,255,255)"/>
<polygon points="136.1,178.1 142.1,178.1 142.1,184.1 136.1,184.1" fill="rgb(255,255,255)"/>
<polygon points="145.1,178.1 151.1,178.1 151.1,184.1 145.1,184.1" fill="rgb(255,150,150)"/>
<polygon points="151.1,178.1 157.1,178.1 157.1,184.1 151.1,184.1" fill="rgb(255,168,168)"/>
<polygon points="157.1,178.1 163.1,178.1 163.1,184.1 157.1,184.1" fill="rgb(255,200,200)"/>
<polygon points="163.1,178.1 169.1,178.1 169.1,184.1 163.1,184.1" fill="rgb(255,200,200)"/>
<polygon points="169.1,178.1 175.1,178.1 175.1,184.1 169.1,184.1" fill="rgb(254,202,202)"/>
<polygon points="175.1,178.1 181.1,178.1 181.1,184.1 175.1,184.1" fill="rgb(255,153,153)"/>
<polygon points="181.1,178.1 187.1,178.1 187.1,184.1 181.1,184.1" fill="rgb(255,223,223)"/>
<polygon points="187.1,178.1 193.1,178.1 193.1,184.1 187.1,184.1" fill="rgb(255,186,186)"/>
<polygon points="193.1,178.1 199.1,178.1 199.1,184.1 193.1,184.1" fill="rgb(255,199,199)"/>
<polygon points="199.1,178.1 205.1,178.1 205.1,184.1 199.1,184.1" fill="rgb(255,199,199)"/>
<polygon points="205.1,178.1 211.1,178.1 211.1,184.1 205.1,184.1" fill="rgb(255,212,212)"/>
<polygon points="211.1,178.1 217.1,178.1 217.1,184.1 211.1,184.1" fill="rgb(255,224,224)"/>
<polygon points="217.1,178.1 223.1,178.1 223.1,184.1 217.1,184.1" fill="rgb(255,236,236)"/>
<polygon points="223.1,178.1 229.1,178.1 229.1,184.1 223.1,184.1" fill="rgb(254,247,247)"/>
<polygon points="130.1,184.1 136.1,184.1 136.1,190.1 130.1,190.1" fill="rgb(0,255,255)"/>
<polygon points="136.1,184.1 142.1,184.1 142.1,190.1 136.1,190.1" fill="rgb(255,255,255)"/>
<polygon points="145.1,184.1 151.1,184.1 151.1,190.1 145.1,190.1" fill="rgb(255,160,160)"/>
<polygon points="151.1,184.1 157.1,184.1 157.1,190.1 151.1,190.1" fill="rgb(255,197,197)"/>
<polygon points="157.1,184.1 163.1,184.1 163.1,190.1 157.1,190.1" fill="rgb(255,231,231)"/>
<polygon points="163.1,184.1 169.1,184.1 169.1,190.1 163.1,190.1" fill="rgb(254,245,245)"/>
<polygon points="169.1,184.1 175.1,184.1 175.1,190.1 169.1,190.1" fill="rgb(255,238,238)"/>
<polygon points="175.1,184.1 181.1,184.1 181.1,190.1 175.1,190.1" fill="rgb(255,187,187)"/>
<polygon points="181.1,184.1 187.1,184.1 187.1,190.1 181.1,190.1" fill="rgb(254,253,253)"/>
<polygon points="187.1,184.1 193.1,184.1 193.1,190.1 187.1,190.1" fill="rgb(254,230,230)"/>
<polygon points="193.1,184.1 199.1,184.1 199.1,190.1 193.1,190.1" fill="rgb(255,230,230)"/>
<polygon points="199.1,184.1 205.1,184.1 205.1,190.1 199.1,190.1" fill="rgb(255,245,245)"/>
<polygon points="205.1,184.1 211.1,184.1 211.1,190.1 205.1,190.1" fill="rgb(255,254,254)"/>
<polygon points="211.1,184.1 217.1,184.1 217.1,190.1 211.1,190.1" fill="rgb(189,189,255)"/>
<polygon points="217.1,184.1 223.1,184.1 223.1,190.1 217.1,190.1" fill="rgb(35,35,255)"/>
<polygon points="223.1,184.1 229.1,184.1 229.1,190.1 223.1,190.1" fill="rgb(0,0,255)"/>
<polygon points="130.1,190.1 136.1,190.1 136.1,196.1 130.1,196.1" fill="rgb(0,255,255)"/>
<polygon points="136.1,190.1 142.1,190.1 142.1,196.1 136.1,196.1" fill="rgb(255,255,255)"/>
<polygon points="145.1,190.1 151.1,190.1 151.1,196.1 145.1,196.1" fill="rgb(255,157,157)"/>
<polygon points="151.1,190.1 157.1,190.1 157.1,196.1 151.1,196.1" fill="rgb(255,157,157)"/>
<polygon points="157.1,190.1 163.1,190.1 163.1,196.1 157.1,196.1" fill="rgb(255,217,217)"/>
<polygon points="163.1,190.1 169.1,190.1 169.1,196.1 163.1,196.1" fill="rgb(255,241,241)"/>
<polygon points="169.1,190.1 175.1,190.1 175.1,196.1 169.1,196.1" fill="rgb(255,225,225)"/>
<polygon points="175.1,190.1 181.1,190.1 181.1,196.1 175.1,196.1" fill="rgb(255,181,181)"/>
<polygon points="181.1,190.1 187.1,190.1 187.1,196.1 181.1,196.1" fill="rgb(255,253,253)"/>
<polygon points="187.1,190.1 193.1,190.1 193.1,196.1 187.1,196.1" fill="rgb(255,238,238)"/>
<polygon points="193.1,190.1 199.1,190.1 199.1,196.1 193.1,196.1" fill="rgb(255,244,244)"/>
<polygon points="199.1,190.1 205.1,190.1 205.1,196.1 199.1,196.1" fill="rgb(255,251,251)"/>
<polygon points="205.1,190.1 211.1,190.1 211.1,196.1 205.1,196.1" fill="rgb(162,162,255)"/>
<polygon points="211.1,190.1 217.1,190.1 217.1,196.1 211.1,196.1" fill="rgb(93,93,255)"/>
<polygon points="217.1,190.1 223.1,190.1 223.1,196.1 217.1,196.1" fill="rgb(87,87,255)"/>
<polygon points="223.1,190.1 229.1,190.1 229.1,196.1 223.1,196.1" fill="rgb(169,169,255)"/>
<polygon points="130.1,196.1 136.1,196.1 136.1,202.1 130.1,202.1" fill="rgb(0,255,255)"/>
<polygon points="136.1,196.1 142.1,196.1 142.1,202.1 136.1,202.1" fill="rgb(255,255,255)"/>
<polygon points="145.1,196.1 151.1,196.1 151.1,202.1 145.1,202.1" fill="rgb(255,93,93)"/>
<polygon points="151.1,196.1 157.1,196.1 157.1,202.1 151.1,202.1" fill="rgb(255,120,120)"/>
<polygon points="157.1,196.1 163.1,196.1 163.1,202.1 157.1,202.1" fill="rgb(255,170,170)"/>
<polygon points="163.1,196.1 169.1,196.1 169.1,202.1 163.1,202.1" fill="rgb(255,157,157)"/>
<polygon points="169.1,196.1 175.1,196.1 175.1,202.1 169.1,202.1" fill="rgb(255,168,168)"/>
<polygon points="175.1,196.1 181.1,196.1 181.1,202.1 175.1,202.1" fill="rgb(255,159,159)"/>
<polygon points="181.1,196.1 187.1,196.1 187.1,202.1 181.1,202.1" fill="rgb(255,187,187)"/>
<polygon points="187.1,196.1 193.1,196.1 193.1,202.1 187.1,202.1" fill="rgb(255,143,143)"/>
<polygon points="193.1,196.1 199.1,196.1 199.1,202.1 193.1,202.1" fill="rgb(255,172,172)"/>
<polygon points="199.1,196.1 205.1,196.1 205.1,202.1 199.1,202.1" fill="rgb(255,157,157)"/>
<polygon points="205.1,196.1 211.1,196.1 211.1,202.1 205.1,202.1" fill="rgb(255,161,161)"/>
<polygon points="211.1,196.1 217.1,196.1 217.1,202.1 211.1,202.1" fill="rgb(255,195,195)"/>
<polygon points="217.1,196.1 223.1,196.1 223.1,202.1 217.1,202.1" fill="rgb(255,203,203)"/>
<polygon points="223.1,196.1 229.1,196.1 229.1,202.1 223.1,202.1" fill="rgb(255,212,212)"/>
<polygon points="130.1,202.1 136.1,202.1 136.1,208.1 130.1,208.1" fill="rgb(0,255,255)"/>
<polygon points="136.1,202.1 142.1,202.1 142.1,208.1 136.1,208.1" fill="rgb(255,255,255)"/>
<polygon points="145.1,202.1 151.1,202.1 151.1,208.1 145.1,208.1" fill="rgb(255,38,38)"/>
<polygon points="151.1,202.1 157.1,202.1 157.1,208.1 151.1,208.1" fill="rgb(255,38,38)"/>
<polygon points="157.1,202.1 163.1,202.1 163.1,208.1 157.1,208.1" fill="rgb(255,144,144)"/>
<polygon points="163.1,202.1 169.1,202.1 169.1,208.1 163.1,208.1" fill="rgb(255,207,207)"/>
<polygon points="169.1,202.1 175.1,202.1 175.1,208.1 169.1,208.1" fill="rgb(255,163,163)"/>
<polygon points="175.1,202.1 181.1,202.1 181.1,208.1 175.1,208.1" fill="rgb(255,193,193)"/>
<polygon points="181.1,202.1 187.1,202.1 187.1,208.1 181.1,208.1" fill="rgb(255,254,254)"/>
<polygon points="187.1,202.1 193.1,202.1 193.1,208.1 187.1,208.1" fill="rgb(255,202,202)"/>
<polygon points="193.1,202.1 199.1,202.1 199.1,208.1 193.1,208.1" fill="rgb(254,233,233)"/>
<polygon points="199.1,202.1 205.1,202.1 205.1,208.1 199.1,208.1" fill="rgb(255,245,245)"/>
<polygon points="205.1,202.1 211.1,202.1 211.1,208.1 205.1,208.1" fill="rgb(255,244,244)"/>
<polygon points="211.1,202.1 217.1,202.1 217.1,208.1 211.1,208.1" fill="rgb(255,241,241)"/>
<polygon points="217.1,202.1 223.1,202.1 223.1,208.1 217.1,208.1" fill="rgb(243,243,255)"/>
<polygon points="223.1,202.1 229.1,202.1 229.1,208.1 223.1,208.1" fill="rgb(255,251,251)"/>
<polygon points="130.1,208.1 136.1,208.1 136.1,214.1 130.1,214.1" fill="rgb(0,255,255)"/>
<polygon points="136.1,208.1 142.1,208.1 142.1,214.1 136.1,214.1" fill="rgb(255,255,255)"/>
<polygon points="145.1,208.1 151.1,208.1 151.1,214.1 145.1,214.1" fill="rgb(255,149,149)"/>
<polygon points="151.1,208.1 157.1,208.1 157.1,214.1 151.1,214.1" fill="rgb(255,164,164)"/>
<polygon points="157.1,208.1 163.1,208.1 163.1,214.1 157.1,214.1" fill="rgb(255,171,171)"/>
<polygon points="163.1,208.1 169.1,208.1 169.1,214.1 163.1,214.1" fill="rgb(255,205,205)"/>
<polygon points="169.1,208.1 175.1,208.1 175.1,214.1 169.1,214.1" fill="rgb(255,165,165)"/>
<polygon points="175.1,208.1 181.1,208.1 181.1,214.1 175.1,214.1" fill="rgb(255,116,116)"/>
<polygon points="181.1,208.1 187.1,208.1 187.1,214.1 181.1,214.1" fill="rgb(255,241,241)"/>
<polygon points="187.1,208.1 193.1,208.1 193.1,214.1 187.1,214.1" fill="rgb(255,216,216)"/>
<polygon points="193.1,208.1 199.1,208.1 199.1,214.1 193.1,214.1" fill="rgb(255,209,209)"/>
<polygon points="199.1,208.1 205.1,208.1 205.1,214.1 199.1,214.1" fill="rgb(255,227,227)"/>
<polygon points="205.1,208.1 211.1,208.1 211.1,214.1 205.1,214.1" fill="rgb(213,213,255)"/>
<polygon points="211.1,208.1 217.1,208.1 217.1,214.1 211.1,214.1" fill="rgb(254,254,254)"/>
<polygon points="217.1,208.1 223.1,208.1 223.1,214.1 217.1,214.1" fill="rgb(44,44,255)"/>
<polygon points="223.1,208.1 229.1,208.1 229.1,214.1 223.1,214.1" fill="rgb(129,129,255)"/>
<polygon points="130.1,214.1 136.1,214.1 136.1,220.1 130.1,220.1" fill="rgb(0,255,255)"/>
<polygon points="136.1,214.1 142.1,214.1 142.1,220.1 136.1,220.1" fill="rgb(255,255,255)"/>
<polygon points="145.1,214.1 151.1,214.1 151.1,220.1 145.1,220.1" fill="rgb(255,194,194)"/>
<polygon points="151.1,214.1 157.1,214.1 157.1,220.1 151.1,220.1" fill="rgb(255,206,206)"/>
<polygon points="157.1,214.1 163.1,214.1 163.1,220.1 157.1,220.1" fill="rgb(255,233,233)"/>
<polygon points="163.1,214.1 169.1,214.1 169.1,220.1 163.1,220.1" fill="rgb(254,243,243)"/>
<polygon points="169.1,214.1 175.1,214.1 175.1,220.1 169.1,220.1" fill="rgb(255,237,237)"/>
<polygon points="175.1,214.1 181.1,214.1 181.1,220.1 175.1,220.1" fill="rgb(255,212,212)"/>
<polygon points="181.1,214.1 187.1,214.1 187.1,220.1 181.1,220.1" fill="rgb(174,174,255)"/>
<polygon points="187.1,214.1 193.1,214.1 193.1,220.1 187.1,220.1" fill="rgb(255,241,241)"/>
<polygon points="193.1,214.1 199.1,214.1 199.1,220.1 193.1,220.1" fill="rgb(255,244,244)"/>
<polygon points="199.1,214.1 205.1,214.1 205.1,220.1 199.1,220.1" fill="rgb(254,246,246)"/>
<polygon points="205.1,214.1 211.1,214.1 211.1,220.1 205.1,220.1" fill="rgb(255,254,254)"/>
<polygon points="211.1,214.1 217.1,214.1 217.1,220.1 211.1,220.1" fill="rgb(197,197,255)"/>
<polygon points="217.1,214.1 223.1,214.1 223.1,220.1 217.1,220.1" fill="rgb(115,115,255)"/>
<polygon points="223.1,214.1 229.1,214.1 229.1,220.1 223.1,220.1" fill="rgb(150,150,255)"/>
<polygon points="130.1,220.1 136.1,220.1 136.1,226.1 130.1,226.1" fill="rgb(0,255,255)"/>
<polygon points="136.1,220.1 142.1,220.1 142.1,226.1 136.1,226.1" fill="rgb(255,255,255)"/>
<polygon points="145.1,220.1 151.1,220.1 151.1,226.1 145.1,226.1" fill="rgb(255,152,152)"/>
<polygon points="151.1,220.1 157.1,220.1 157.1,226.1 151.1,226.1" fill="rgb(255,162,162)"/>
<polygon points="157.1,220.1 163.1,220.1 163.1,226.1 157.1,226.1" fill="rgb(255,209,209)"/>
<polygon points="163.1,220.1 169.1,220.1 169.1,226.1 163.1,226.1" fill="rgb(255,210,210)"/>
<polygon points="169.1,220.1 175.1,220.1 175.1,226.1 169.1,226.1" fill="rgb(255,207,207)"/>
<polygon points="175.1,220.1 181.1,220.1 181.1,226.1 175.1,226.1" fill="rgb(255,201,201)"/>
<polygon points="181.1,220.1 187.1,220.1 187.1,226.1 181.1,226.1" fill="rgb(191,191,255)"/>
<polygon points="187.1,220.1 193.1,220.1 193.1,226.1 187.1,226.1" fill="rgb(255,231,231)"/>
<polygon points="193.1,220.1 199.1,220.1 199.1,226.1 193.1,226.1" fill="rgb(255,246,246)"/>
<polygon points="199.1,220.1 205.1,220.1 205.1,226.1 199.1,226.1" fill="rgb(254,249,249)"/>
<polygon points="205.1,220.1 211.1,220.1 211.1,226.1 205.1,226.1" fill="rgb(254,253,253)"/>
<polygon points="211.1,220.1 217.1,220.1 217.1,226.1 211.1,226.1" fill="rgb(142,142,255)"/>
<polygon points="217.1,220.1 223.1,220.1 223.1,226.1 217.1,226.1" fill="rgb(65,65,255)"/>
<polygon points="223.1,220.1 229.1,220.1 229.1,226.1 223.1,226.1" fill="rgb(29,29,255)"/>
<polygon points="130.1,226.1 136.1,226.1 136.1,232.1 130.1,232.1" fill="rgb(0,255,255)"/>
<polygon points="136.1,226.1 142.1,226.1 142.1,232.1 136.1,232.1" fill="rgb(255,255,255)"/>
<polygon points="145.1,226.1 151.1,226.1 151.1,232.1 145.1,232.1" fill="rgb(255,78,78)"/>
<polygon points="151.1,226.1 157.1,226.1 157.1,232.1 151.1,232.1" fill="rgb(255,81,81)"/>
<polygon points="157.1,226.1 163.1,226.1 163.1,232.1 157.1,232.1" fill="rgb(254,160,160)"/>
<polygon points="163.1,226.1 169.1,226.1 169.1,232.1 163.1,232.1" fill="rgb(254,221,221)"/>
<polygon points="169.1,226.1 175.1,226.1 175.1,232.1 169.1,232.1" fill="rgb(255,147,147)"/>
<polygon points="175.1,226.1 181.1,226.1 181.1,232.1 175.1,232.1" fill="rgb(255,117,117)"/>
<polygon points="181.1,226.1 187.1,226.1 187.1,232.1 181.1,232.1" fill="rgb(255,252,252)"/>
<polygon points="187.1,226.1 193.1,226.1 193.1,232.1 187.1,232.1" fill="rgb(255,218,218)"/>
<polygon points="193.1,226.1 199.1,226.1 199.1,232.1 193.1,232.1" fill="rgb(255,223,223)"/>
<polygon points="199.1,226.1 205.1,226.1 205.1,232.1 199.1,232.1" fill="rgb(255,243,243)"/>
<polygon points="205.1,226.1 211.1,226.1 211.1,232.1 205.1,232.1" fill="rgb(149,149,255)"/>
<polygon points="211.1,226.1 217.1,226.1 217.1,232.1 211.1,232.1" fill="rgb(80,80,255)"/>
<polygon points="217.1,226.1 223.1,226.1 223.1,232.1 217.1,232.1" fill="rgb(38,38,255)"/>
<polygon points="223.1,226.1 229.1,226.1 229.1,232.1 223.1,232.1" fill="rgb(134,134,255)"/>
<polygon points="130.1,232.1 136.1,232.1 136.1,238.1 130.1,238.1" fill="rgb(0,255,255)"/>
<polygon points="136.1,232.1 142.1,232.1 142.1,238.1 136.1,238.1" fill="rgb(255,255,255)"/>
<polygon points="145.1,232.1 151.1,232.1 151.1,238.1 145.1,238.1" fill="rgb(255,156,156)"/>
<polygon points="151.1,232.1 157.1,232.1 157.1,238.1 151.1,238.1" fill="rgb(254,175,175)"/>
<polygon points="157.1,232.1 163.1,232.1 163.1,238.1 157.1,238.1" fill="rgb(255,236,236)"/>
<polygon points="163.1,232.1 169.1,232.1 169.1,238.1 163.1,238.1" fill="rgb(97,97,255)"/>
<polygon points="169.1,232.1 175.1,232.1 175.1,238.1 169.1,238.1" fill="rgb(255,227,227)"/>
<polygon points="175.1,232.1 181.1,232.1 181.1,238.1 175.1,238.1" fill="rgb(254,222,222)"/>
<polygon points="181.1,232.1 187.1,232.1 187.1,238.1 181.1,238.1" fill="rgb(0,0,255)"/>
<polygon points="187.1,232.1 193.1,232.1 193.1,238.1 187.1,238.1" fill="rgb(255,253,253)"/>
<polygon points="193.1,232.1 199.1,232.1 199.1,238.1 193.1,238.1" fill="rgb(254,254,254)"/>
<polygon points="199.1,232.1 205.1,232.1 205.1,238.1 199.1,238.1" fill="rgb(68,68,255)"/>
<polygon points="205.1,232.1 211.1,232.1 211.1,238.1 205.1,238.1" fill="rgb(0,0,255)"/>
<polygon points="211.1,232.1 217.1,232.1 217.1,238.1 211.1,238.1" fill="rgb(0,0,255)"/>
<polygon points="217.1,232.1 223.1,232.1 223.1,238.1 217.1,238.1" fill="rgb(16,16,255)"/>
<polygon points="223.1,232.1 229.1,232.1 229.1,238.1 223.1,238.1" fill="rgb(7,7,255)"/>
<polygon points="130.1,238.1 136.1,238.1 136.1,244.1 130.1,244.1" fill="rgb(0,255,255)"/>
<polygon points="136.1,238.1 142.1,238.1 142.1,244.1 136.1,244.1" fill="rgb(255,255,255)"/>
<polygon points="145.1,238.1 151.1,238.1 151.1,244.1 145.1,244.1" fill="rgb(255,131,131)"/>
<polygon points="151.1,238.1 157.1,238.1 157.1,244.1 151.1,244.1" fill="rgb(255,140,140)"/>
<polygon points="157.1,238.1 163.1,238.1 163.1,244.1 157.1,244.1" fill="rgb(255,232,232)"/>
<polygon points="163.1,238.1 169.1,238.1 169.1,244.1 163.1,244.1" fill="rgb(231,231,255)"/>
<polygon points="169.1,238.1 175.1,238.1 175.1,244.1 169.1,244.1" fill="rgb(255,192,192)"/>
<polygon points="175.1,238.1 181.1,238.1 181.1,244.1 175.1,244.1" fill="rgb(255,198,198)"/>
<polygon points="181.1,238.1 187.1,238.1 187.1,244.1 181.1,244.1" fill="rgb(30,30,255)"/>
<polygon points="187.1,238.1 193.1,238.1 193.1,244.1 187.1,244.1" fill="rgb(133,133,255)"/>
<polygon points="193.1,238.1 199.1,238.1 199.1,244.1 193.1,244.1" fill="rgb(158,158,255)"/>
<polygon points="199.1,238.1 205.1,238.1 205.1,244.1 199.1,244.1" fill="rgb(44,44,255)"/>
<polygon points="205.1,238.1 211.1,238.1 211.1,244.1 205.1,244.1" fill="rgb(29,29,254)"/>
<polygon points="211.1,238.1 217.1,238.1 217.1,244.1 211.1,244.1" fill="rgb(0,0,255)"/>
<polygon points="217.1,238.1 223.1,238.1 223.1,244.1 217.1,244.1" fill="rgb(52,52,255)"/>
<polygon points="223.1,238.1 229.1,238.1 229.1,244.1 223.1,244.1" fill="rgb(254,253,253)"/>
<polygon points="130.1,244.1 136.1,244.1 136.1,250.1 130.1,250.1" fill="rgb(255,255,255)"/>
<polygon points="136.1,244.1 142.1,244.1 142.1,250.1 136.1,250.1" fill="rgb(255,255,255)"/>
<polygon points="145.1,244.1 151.1,244.1 151.1,250.1 145.1,250.1" fill="rgb(255,171,171)"/>
<polygon points="151.1,244.1 157.1,244.1 157.1,250.1 151.1,250.1" fill="rgb(255,179,179)"/>
<polygon points="157.1,244.1 163.1,244.1 163.1,250.1 157.1,250.1" fill="rgb(255,206,206)"/>
<polygon points="163.1,244.1 169.1,244.1 169.1,250.1 163.1,250.1" fill="rgb(255,207,207)"/>
<polygon points="169.1,244.1 175.1,244.1 175.1,250.1 169.1,250.1" fill="rgb(255,215,215)"/>
<polygon points="175.1,244.1 181.1,244.1 181.1,250.1 175.1,250.1" fill="rgb(254,208,208)"/>
<polygon points="181.1,244.1 187.1,244.1 187.1,250.1 181.1,250.1" fill="rgb(32,32,255)"/>
<polygon points="187.1,244.1 193.1,244.1 193.1,250.1 187.1,250.1" fill="rgb(255,236,236)"/>
<polygon points="193.1,244.1 199.1,244.1 199.1,250.1 193.1,250.1" fill="rgb(255,239,239)"/>
<polygon points="199.1,244.1 205.1,244.1 205.1,250.1 199.1,250.1" fill="rgb(254,246,246)"/>
<polygon points="205.1,244.1 211.1,244.1 211.1,250.1 205.1,250.1" fill="rgb(255,253,253)"/>
<polygon points="211.1,244.1 217.1,244.1 217.1,250.1 211.1,250.1" fill="rgb(208,208,255)"/>
<polygon points="217.1,244.1 223.1,244.1 223.1,250.1 217.1,250.1" fill="rgb(161,161,255)"/>
<polygon points="223.1,244.1 229.1,244.1 229.1,250.1 223.1,250.1" fill="rgb(255,254,254)"/>
<polygon points="130.1,250.1 136.1,250.1 136.1,256.1 130.1,256.1" fill="rgb(255,255,255)"/>
<polygon points="136.1,250.1 142.1,250.1 142.1,256.1 136.1,256.1" fill="rgb(255,255,255)"/>
<polygon points="145.1,250.1 151.1,250.1 151.1,256.1 145.1,256.1" fill="rgb(255,141,141)"/>
<polygon points="151.1,250.1 157.1,250.1 157.1,256.1 151.1,256.1" fill="rgb(255,158,158)"/>
<polygon points="157.1,250.1 163.1,250.1 163.1,256.1 157.1,256.1" fill="rgb(255,178,178)"/>
<polygon points="163.1,250.1 169.1,250.1 169.1,256.1 163.1,256.1" fill="rgb(255,231,231)"/>
<polygon points="169.1,250.1 175.1,250.1 175.1,256.1 169.1,256.1" fill="rgb(255,209,209)"/>
<polygon points="175.1,250.1 181.1,250.1 181.1,256.1 175.1,256.1" fill="rgb(255,206,206)"/>
<polygon points="181.1,250.1 187.1,250.1 187.1,256.1 181.1,256.1" fill="rgb(51,51,255)"/>
<polygon points="187.1,250.1 193.1,250.1 193.1,256.1 187.1,256.1" fill="rgb(255,248,248)"/>
<polygon points="193.1,250.1 199.1,250.1 199.1,256.1 193.1,256.1" fill="rgb(255,253,253)"/>
<polygon points="199.1,250.1 205.1,250.1 205.1,256.1 199.1,256.1" fill="rgb(255,249,249)"/>
<polygon points="205.1,250.1 211.1,250.1 211.1,256.1 205.1,256.1" fill="rgb(255,250,250)"/>
<polygon points="211.1,250.1 217.1,250.1 217.1,256.1 211.1,256.1" fill="rgb(60,60,255)"/>
<polygon points="217.1,250.1 223.1,250.1 223.1,256.1 217.1,256.1" fill="rgb(120,120,255)"/>
<polygon points="223.1,250.1 229.1,250.1 229.1,256.1 223.1,256.1" fill="rgb(37,37,255)"/>
<polygon points="130.1,256.1 136.1,256.1 136.1,262.1 130.1,262.1" fill="rgb(255,255,255)"/>
<polygon points="136.1,256.1 142.1,256.1 142.1,262.1 136.1,262.1" fill="rgb(255,255,255)"/>
<polygon points="145.1,256.1 151.1,256.1 151.1,262.1 145.1,262.1" fill="rgb(255,91,91)"/>
<polygon points="151.1,256.1 157.1,256.1 157.1,262.1 151.1,262.1" fill="rgb(255,94,94)"/>
<polygon points="157.1,256.1 163.1,256.1 163.1,262.1 157.1,262.1" fill="rgb(254,156,156)"/>
<polygon points="163.1,256.1 169.1,256.1 169.1,262.1 163.1,262.1" fill="rgb(255,166,166)"/>
<polygon points="169.1,256.1 175.1,256.1 175.1,262.1 169.1,262.1" fill="rgb(255,160,160)"/>
<polygon points="175.1,256.1 181.1,256.1 181.1,262.1 175.1,262.1" fill="rgb(255,131,131)"/>
<polygon points="181.1,256.1 187.1,256.1 187.1,262.1 181.1,262.1" fill="rgb(255,227,227)"/>
<polygon points="187.1,256.1 193.1,256.1 193.1,262.1 187.1,262.1" fill="rgb(255,180,180)"/>
<polygon points="193.1,256.1 199.1,256.1 199.1,262.1 193.1,262.1" fill="rgb(254,191,191)"/>
<polygon points="199.1,256.1 205.1,256.1 205.1,262.1 199.1,262.1" fill="rgb(255,210,210)"/>
<polygon points="205.1,256.1 211.1,256.1 211.1,262.1 205.1,262.1" fill="rgb(255,235,235)"/>
<polygon points="211.1,256.1 217.1,256.1 217.1,262.1 211.1,262.1" fill="rgb(255,242,242)"/>
<polygon points="217.1,256.1 223.1,256.1 223.1,262.1 217.1,262.1" fill="rgb(255,253,253)"/>
<polygon points="223.1,256.1 229.1,256.1 229.1,262.1 223.1,262.1" fill="rgb(255,252,252)"/>
<polygon points="130.1,262.1 136.1,262.1 136.1,268.1 130.1,268.1" fill="rgb(255,255,255)"/>
<polygon points="136.1,262.1 142.1,262.1 142.1,268.1 136.1,268.1" fill="rgb(0,255,255)"/>
<polygon points="145.1,262.1 151.1,262.1 151.1,268.1 145.1,268.1" fill="rgb(255,145,145)"/>
<polygon points="151.1,262.1 157.1,262.1 157.1,268.1 151.1,268.1" fill="rgb(255,162,162)"/>
<polygon points="157.1,262.1 163.1,262.1 163.1,268.1 157.1,268.1" fill="rgb(255,184,184)"/>
<polygon points="163.1,262.1 169.1,262.1 169.1,268.1 163.1,268.1" fill="rgb(255,204,204)"/>
<polygon points="169.1,262.1 175.1,262.1 175.1,268.1 169.1,268.1" fill="rgb(255,155,155)"/>
<polygon points="175.1,262.1 181.1,262.1 181.1,268.1 175.1,268.1" fill="rgb(255,90,90)"/>
<polygon points="181.1,262.1 187.1,262.1 187.1,268.1 181.1,268.1" fill="rgb(255,185,185)"/>
<polygon points="187.1,262.1 193.1,262.1 193.1,268.1 187.1,268.1" fill="rgb(255,134,134)"/>
<polygon points="193.1,262.1 199.1,262.1 199.1,268.1 193.1,268.1" fill="rgb(254,142,142)"/>
<polygon points="199.1,262.1 205.1,262.1 205.1,268.1 199.1,268.1" fill="rgb(255,177,177)"/>
<polygon points="205.1,262.1 211.1,262.1 211.1,268.1 205.1,268.1" fill="rgb(255,213,213)"/>
<polygon points="211.1,262.1 217.1,262.1 217.1,268.1 211.1,268.1" fill="rgb(255,211,211)"/>
<polygon points="217.1,262.1 223.1,262.1 223.1,268.1 217.1,268.1" fill="rgb(255,224,224)"/>
<polygon points="223.1,262.1 229.1,262.1 229.1,268.1 223.1,268.1" fill="rgb(255,225,225)"/>
<polygon points="130.1,268.1 136.1,268.1 136.1,274.1 130.1,274.1" fill="rgb(255,255,255)"/>
<polygon points="136.1,268.1 142.1,268.1 142.1,274.1 136.1,274.1" fill="rgb(0,255,255)"/>
<polygon points="145.1,268.1 151.1,268.1 151.1,274.1 145.1,274.1" fill="rgb(255,175,175)"/>
<polygon points="151.1,268.1 157.1,268.1 157.1,274.1 151.1,274.1" fill="rgb(255,182,182)"/>
<polygon points="157.1,268.1 163.1,268.1 163.1,274.1 157.1,274.1" fill="rgb(255,214,214)"/>
<polygon points="163.1,268.1 169.1,268.1 169.1,274.1 163.1,274.1" fill="rgb(255,233,233)"/>
<polygon points="169.1,268.1 175.1,268.1 175.1,274.1 169.1,274.1" fill="rgb(255,191,191)"/>
<polygon points="175.1,268.1 181.1,268.1 181.1,274.1 175.1,274.1" fill="rgb(255,140,140)"/>
<polygon points="181.1,268.1 187.1,268.1 187.1,274.1 181.1,274.1" fill="rgb(255,230,230)"/>
<polygon points="187.1,268.1 193.1,268.1 193.1,274.1 187.1,274.1" fill="rgb(255,187,187)"/>
<polygon points="193.1,268.1 199.1,268.1 199.1,274.1 193.1,274.1" fill="rgb(255,197,197)"/>
<polygon points="199.1,268.1 205.1,268.1 205.1,274.1 199.1,274.1" fill="rgb(255,225,225)"/>
<polygon points="205.1,268.1 211.1,268.1 211.1,274.1 205.1,274.1" fill="rgb(254,241,241)"/>
<polygon points="211.1,268.1 217.1,268.1 217.1,274.1 211.1,274.1" fill="rgb(255,239,239)"/>
<polygon points="217.1,268.1 223.1,268.1 223.1,274.1 217.1,274.1" fill="rgb(255,253,253)"/>
<polygon points="223.1,268.1 229.1,268.1 229.1,274.1 223.1,274.1" fill="rgb(163,163,255)"/>
<polygon points="130.1,274.1 136.1,274.1 136.1,280.1 130.1,280.1" fill="rgb(0,255,255)"/>
<polygon points="136.1,274.1 142.1,274.1 142.1,280.1 136.1,280.1" fill="rgb(0,255,255)"/>
<polygon points="145.1,274.1 151.1,274.1 151.1,280.1 145.1,280.1" fill="rgb(255,94,94)"/>
<polygon points="151.1,274.1 157.1,274.1 157.1,280.1 151.1,280.1" fill="rgb(255,126,126)"/>
<polygon points="157.1,274.1 163.1,274.1 163.1,280.1 157.1,280.1" fill="rgb(255,184,184)"/>
<polygon points="163.1,274.1 169.1,274.1 169.1,280.1 163.1,280.1" fill="rgb(255,219,219)"/>
<polygon points="169.1,274.1 175.1,274.1 175.1,280.1 169.1,280.1" fill="rgb(255,95,95)"/>
<polygon points="175.1,274.1 181.1,274.1 181.1,280.1 175.1,280.1" fill="rgb(255,73,73)"/>
<polygon points="181.1,274.1 187.1,274.1 187.1,280.1 181.1,280.1" fill="rgb(255,149,149)"/>
<polygon points="187.1,274.1 193.1,274.1 193.1,280.1 187.1,280.1" fill="rgb(255,119,119)"/>
<polygon points="193.1,274.1 199.1,274.1 199.1,280.1 193.1,280.1" fill="rgb(255,117,117)"/>
<polygon points="199.1,274.1 205.1,274.1 205.1,280.1 199.1,280.1" fill="rgb(255,186,186)"/>
<polygon points="205.1,274.1 211.1,274.1 211.1,280.1 205.1,280.1" fill="rgb(255,244,244)"/>
<polygon points="211.1,274.1 217.1,274.1 217.1,280.1 211.1,280.1" fill="rgb(255,232,232)"/>
<polygon points="217.1,274.1 223.1,274.1 223.1,280.1 217.1,280.1" fill="rgb(255,246,246)"/>
<polygon points="223.1,274.1 229.1,274.1 229.1,280.1 223.1,280.1" fill="rgb(214,214,255)"/>
<polygon points="130.1,280.1 136.1,280.1 136.1,286.1 130.1,286.1" fill="rgb(0,255,255)"/>
<polygon points="136.1,280.1 142.1,280.1 142.1,286.1 136.1,286.1" fill="rgb(0,255,255)"/>
<polygon points="145.1,280.1 151.1,280.1 151.1,286.1 145.1,286.1" fill="rgb(255,155,155)"/>
<polygon points="151.1,280.1 157.1,280.1 157.1,286.1 151.1,286.1" fill="rgb(255,182,182)"/>
<polygon points="157.1,280.1 163.1,280.1 163.1,286.1 157.1,286.1" fill="rgb(255,202,202)"/>
<polygon points="163.1,280.1 169.1,280.1 169.1,286.1 163.1,286.1" fill="rgb(255,236,236)"/>
<polygon points="169.1,280.1 175.1,280.1 175.1,286.1 169.1,286.1" fill="rgb(255,174,174)"/>
<polygon points="175.1,280.1 181.1,280.1 181.1,286.1 175.1,286.1" fill="rgb(255,78,78)"/>
<polygon points="181.1,280.1 187.1,280.1 187.1,286.1 181.1,286.1" fill="rgb(254,242,242)"/>
<polygon points="187.1,280.1 193.1,280.1 193.1,286.1 187.1,286.1" fill="rgb(255,184,184)"/>
<polygon points="193.1,280.1 199.1,280.1 199.1,286.1 193.1,286.1" fill="rgb(254,197,197)"/>
<polygon points="199.1,280.1 205.1,280.1 205.1,286.1 199.1,286.1" fill="rgb(255,223,223)"/>
<polygon points="205.1,280.1 211.1,280.1 211.1,286.1 205.1,286.1" fill="rgb(198,198,255)"/>
<polygon points="211.1,280.1 217.1,280.1 217.1,286.1 211.1,286.1" fill="rgb(124,124,255)"/>
<polygon points="217.1,280.1 223.1,280.1 223.1,286.1 217.1,286.1" fill="rgb(166,166,255)"/>
<polygon points="223.1,280.1 229.1,280.1 229.1,286.1 223.1,286.1" fill="rgb(255,253,253)"/>
<polygon points="130.1,286.1 136.1,286.1 136.1,292.1 130.1,292.1" fill="rgb(0,255,255)"/>
<polygon points="136.1,286.1 142.1,286.1 142.1,292.1 136.1,292.1" fill="rgb(0,255,255)"/>
<polygon points="145.1,286.1 151.1,286.1 151.1,292.1 145.1,292.1" fill="rgb(255,182,182)"/>
<polygon points="151.1,286.1 157.1,286.1 157.1,292.1 151.1,292.1" fill="rgb(255,200,200)"/>
<polygon points="157.1,286.1 163.1,286.1 163.1,292.1 157.1,292.1" fill="rgb(255,222,222)"/>
<polygon points="163.1,286.1 169.1,286.1 169.1,292.1 163.1,292.1" fill="rgb(255,231,231)"/>
<polygon points="169.1,286.1 175.1,286.1 175.1,292.1 169.1,292.1" fill="rgb(255,192,192)"/>
<polygon points="175.1,286.1 181.1,286.1 181.1,292.1 175.1,292.1" fill="rgb(255,169,169)"/>
<polygon points="181.1,286.1 187.1,286.1 187.1,292.1 181.1,292.1" fill="rgb(255,231,231)"/>
<polygon points="187.1,286.1 193.1,286.1 193.1,292.1 187.1,292.1" fill="rgb(254,220,220)"/>
<polygon points="193.1,286.1 199.1,286.1 199.1,292.1 193.1,292.1" fill="rgb(255,211,211)"/>
<polygon points="199.1,286.1 205.1,286.1 205.1,292.1 199.1,292.1" fill="rgb(255,231,231)"/>
<polygon points="205.1,286.1 211.1,286.1 211.1,292.1 205.1,292.1" fill="rgb(255,240,240)"/>
<polygon points="211.1,286.1 217.1,286.1 217.1,292.1 211.1,292.1" fill="rgb(254,243,243)"/>
<polygon points="217.1,286.1 223.1,286.1 223.1,292.1 217.1,292.1" fill="rgb(255,243,243)"/>
<polygon points="223.1,286.1 229.1,286.1 229.1,292.1 223.1,292.1" fill="rgb(255,242,242)"/>
<polygon points="130.1,292.1 136.1,292.1 136.1,298.1 130.1,298.1" fill="rgb(0,255,255)"/>
<polygon points="136.1,292.1 142.1,292.1 142.1,298.1 136.1,298.1" fill="rgb(0,255,255)"/>
<polygon points="145.1,292.1 151.1,292.1 151.1,298.1 145.1,298.1" fill="rgb(255,187,187)"/>
<polygon points="151.1,292.1 157.1,292.1 157.1,298.1 151.1,298.1" fill="rgb(255,199,199)"/>
<polygon points="157.1,292.1 163.1,292.1 163.1,298.1 157.1,298.1" fill="rgb(255,237,237)"/>
<polygon points="163.1,292.1 169.1,292.1 169.1,298.1 163.1,298.1" fill="rgb(255,248,248)"/>
<polygon points="169.1,292.1 175.1,292.1 175.1,298.1 169.1,298.1" fill="rgb(254,214,214)"/>
<polygon points="175.1,292.1 181.1,292.1 181.1,298.1 175.1,298.1" fill="rgb(255,173,173)"/>
<polygon points="181.1,292.1 187.1,292.1 187.1,298.1 181.1,298.1" fill="rgb(255,244,244)"/>
<polygon points="187.1,292.1 193.1,292.1 193.1,298.1 187.1,298.1" fill="rgb(255,224,224)"/>
<polygon points="193.1,292.1 199.1,292.1 199.1,298.1 193.1,298.1" fill="rgb(255,227,227)"/>
<polygon points="199.1,292.1 205.1,292.1 205.1,298.1 199.1,298.1" fill="rgb(254,249,249)"/>
<polygon points="205.1,292.1 211.1,292.1 211.1,298.1 205.1,298.1" fill="rgb(109,109,255)"/>
<polygon points="211.1,292.1 217.1,292.1 217.1,298.1 211.1,298.1" fill="rgb(136,136,255)"/>
<polygon points="217.1,292.1 223.1,292.1 223.1,298.1 217.1,298.1" fill="rgb(41,41,255)"/>
<polygon points="223.1,292.1 229.1,292.1 229.1,298.1 223.1,298.1" fill="rgb(53,53,255)"/>
<polygon points="130.1,298.1 136.1,298.1 136.1,304.1 130.1,304.1" fill="rgb(0,255,255)"/>
<polygon points="136.1,298.1 142.1,298.1 142.1,304.1 136.1,304.1" fill="rgb(0,255,255)"/>
<polygon points="145.1,298.1 151.1,298.1 151.1,304.1 145.1,304.1" fill="rgb(255,102,102)"/>
<polygon points="151.1,298.1 157.1,298.1 157.1,304.1 151.1,304.1" fill="rgb(255,117,117)"/>
<polygon points="157.1,298.1 163.1,298.1 163.1,304.1 157.1,304.1" fill="rgb(255,173,173)"/>
<polygon points="163.1,298.1 169.1,298.1 169.1,304.1 163.1,304.1" fill="rgb(255,199,199)"/>
<polygon points="169.1,298.1 175.1,298.1 175.1,304.1 169.1,304.1" fill="rgb(255,158,158)"/>
<polygon points="175.1,298.1 181.1,298.1 181.1,304.1 175.1,304.1" fill="rgb(255,125,125)"/>
<polygon points="181.1,298.1 187.1,298.1 187.1,304.1 181.1,304.1" fill="rgb(255,222,222)"/>
<polygon points="187.1,298.1 193.1,298.1 193.1,304.1 187.1,304.1" fill="rgb(255,186,186)"/>
<polygon points="193.1,298.1 199.1,298.1 199.1,304.1 193.1,304.1" fill="rgb(255,199,199)"/>
<polygon points="199.1,298.1 205.1,298.1 205.1,304.1 199.1,304.1" fill="rgb(255,209,209)"/>
<polygon points="205.1,298.1 211.1,298.1 211.1,304.1 205.1,304.1" fill="rgb(254,226,226)"/>
<polygon points="211.1,298.1 217.1,298.1 217.1,304.1 211.1,304.1" fill="rgb(255,233,233)"/>
<polygon points="217.1,298.1 223.1,298.1 223.1,304.1 217.1,304.1" fill="rgb(255,246,246)"/>
<polygon points="223.1,298.1 229.1,298.1 229.1,304.1 223.1,304.1" fill="rgb(255,250,250)"/>
<polygon points="130.1,307.1 136.1,307.1 136.1,313.1 130.1,313.1" fill="rgb(255,255,255)"/>
<polygon points="136.1,307.1 142.1,307.1 142.1,313.1 136.1,313.1" fill="rgb(255,255,255)"/>
<polygon points="145.1,307.1 151.1,307.1 151.1,313.1 145.1,313.1" fill="rgb(255,186,186)"/>
<polygon points="151.1,307.1 157.1,307.1 157.1,313.1 151.1,313.1" fill="rgb(255,214,214)"/>
<polygon points="157.1,307.1 163.1,307.1 163.1,313.1 157.1,313.1" fill="rgb(0,0,255)"/>
<polygon points="163.1,307.1 169.1,307.1 169.1,313.1 163.1,313.1" fill="rgb(0,0,255)"/>
<polygon points="169.1,307.1 175.1,307.1 175.1,313.1 169.1,313.1" fill="rgb(255,233,233)"/>
<polygon points="175.1,307.1 181.1,307.1 181.1,313.1 175.1,313.1" fill="rgb(255,215,215)"/>
<polygon points="181.1,307.1 187.1,307.1 187.1,313.1 181.1,313.1" fill="rgb(0,0,255)"/>
<polygon points="187.1,307.1 193.1,307.1 193.1,313.1 187.1,313.1" fill="rgb(0,0,255)"/>
<polygon points="193.1,307.1 199.1,307.1 199.1,313.1 193.1,313.1" fill="rgb(0,0,255)"/>
<polygon points="199.1,307.1 205.1,307.1 205.1,313.1 199.1,313.1" fill="rgb(0,0,255)"/>
<polygon points="205.1,307.1 211.1,307.1 211.1,313.1 205.1,313.1" fill="rgb(0,0,255)"/>
<polygon points="211.1,307.1 217.1,307.1 217.1,313.1 211.1,313.1" fill="rgb(0,0,255)"/>
<polygon points="217.1,307.1 223.1,307.1 223.1,313.1 217.1,313.1" fill="rgb(0,0,255)"/>
<polygon points="223.1,307.1 229.1,307.1 229.1,313.1 223.1,313.1" fill="rgb(0,0,255)"/>
<polygon points="130.1,313.1 136.1,313.1 136.1,319.1 130.1,319.1" fill="rgb(255,255,255)"/>
<polygon points="136.1,313.1 142.1,313.1 142.1,319.1 136.1,319.1" fill="rgb(255,255,255)"/>
<polygon points="145.1,313.1 151.1,313.1 151.1,319.1 145.1,319.1" fill="rgb(0,0,255)"/>
<polygon points="151.1,313.1 157.1,313.1 157.1,319.1 151.1,319.1" fill="rgb(0,0,255)"/>
<polygon points="157.1,313.1 163.1,313.1 163.1,319.1 157.1,319.1" fill="rgb(255,251,251)"/>
<polygon points="163.1,313.1 169.1,313.1 169.1,319.1 163.1,319.1" fill="rgb(0,0,255)"/>
<polygon points="169.1,313.1 175.1,313.1 175.1,319.1 169.1,319.1" fill="rgb(255,240,240)"/>
<polygon points="175.1,313.1 181.1,313.1 181.1,319.1 175.1,319.1" fill="rgb(255,182,182)"/>
<polygon points="181.1,313.1 187.1,313.1 187.1,319.1 181.1,319.1" fill="rgb(0,0,255)"/>
<polygon points="187.1,313.1 193.1,313.1 193.1,319.1 187.1,319.1" fill="rgb(255,231,231)"/>
<polygon points="193.1,313.1 199.1,313.1 199.1,319.1 193.1,319.1" fill="rgb(255,232,232)"/>
<polygon points="199.1,313.1 205.1,313.1 205.1,319.1 199.1,319.1" fill="rgb(0,0,255)"/>
<polygon points="205.1,313.1 211.1,313.1 211.1,319.1 205.1,319.1" fill="rgb(0,0,255)"/>
<polygon points="211.1,313.1 217.1,313.1 217.1,319.1 211.1,319.1" fill="rgb(0,0,255)"/>
<polygon points="217.1,313.1 223.1,313.1 223.1,319.1 217.1,319.1" fill="rgb(0,0,255)"/>
<polygon points="223.1,313.1 229.1,313.1 229.1,319.1 223.1,319.1" fill="rgb(0,0,255)"/>
<polygon points="130.1,130.1 142.1,130.1 142.1,304.1 130.1,304.1" fill="none" stroke="black" stroke-width="0.5"/>
<polygon points="145.1,130.1 229.1,130.1 229.1,304.1 145.1,304.1" fill="none" stroke="black" stroke-width="0.5"/>
<polygon points="130.1,307.1 142.1,307.1 142.1,319.1 130.1,319.1" fill="none" stroke="black" stroke-width="0.5"/>
<polygon points="145.1,307.1 229.1,307.1 229.1,319.1 145.1,319.1" fill="none" stroke="black" stroke-width="0.5"/>
<text xml:space="preserve" x="185.05" y="351.767" font-family="Arial" font-size="7" text-anchor="middle">enrichments</text>
<polygon points="75.05,359.1 95.05,359.1 95.05,379.1 75.05,379.1" fill="rgb(255,255,255)"/><polygon points="75.05,359.1 95.05,359.1 95.05,379.1 75.05,379.1" fill="none" stroke="black" stroke-width="0.5"/><text xml:space="preserve" x="85.05" y="371.1" font-family="Arial" font-size="5" fill="rgb(0,0,0)" text-anchor="middle">0.0</text>
<polygon points="95.05,359.1 115.05,359.1 115.05,379.1 95.05,379.1" fill="rgb(216,178,216)"/><polygon points="95.05,359.1 115.05,359.1 115.05,379.1 95.05,379.1" fill="none" stroke="black" stroke-width="0.5"/><text xml:space="preserve" x="105.05" y="371.1" font-family="Arial" font-size="5" fill="rgb(0,0,0)" text-anchor="middle">0.3</text>
<polygon points="115.05,359.1 135.05,359.1 135.05,379.1 115.05,379.1" fill="rgb(178,102,178)"/><polygon points="115.05,359.1 135.05,359.1 135.05,379.1 115.05,379.1" fill="none" stroke="black" stroke-width="0.5"/><text xml:space="preserve" x="125.05" y="371.1" font-family="Arial" font-size="5" fill="rgb(0,0,0)" text-anchor="middle">0.6</text>
<polygon points="135.05,359.1 155.05,359.1 155.05,379.1 135.05,379.1" fill="rgb(140,25,140)"/><polygon points="135.05,359.1 155.05,359.1 155.05,379.1 135.05,379.1" fill="none" stroke="black" stroke-width="0.5"/><text xml:space="preserve" x="145.05" y="371.1" font-family="Arial" font-size="5" fill="rgb(255,255,255)" text-anchor="middle">0.9</text>
<polygon points="155.05,359.1 175.05,359.1 175.05,379.1 155.05,379.1" fill="rgb(102,50,153)"/><polygon points="155.05,359.1 175.05,359.1 175.05,379.1 155.05,379.1" fill="none" stroke="black" stroke-width="0.5"/><text xml:space="preserve" x="165.05" y="371.1" font-family="Arial" font-size="5" fill="rgb(255,255,255)" text-anchor="middle">1.2</text>
<polygon points="175.05,359.1 195.05,359.1 195.05,379.1 175.05,379.1" fill="rgb(64,127,191)"/><polygon points="175.05,359.1 195.05,359.1 195.05,379.1 175.05,379.1" fill="none" stroke="black" stroke-width="0.5"/><text xml:space="preserve" x="185.05" y="371.1" font-family="Arial" font-size="5" fill="rgb(255,255,255)" text-anchor="middle">1.5</text>
<polygon points="195.05,359.1 215.05,359.1 215.05,379.1 195.05,379.1" fill="rgb(25,204,229)"/><polygon points="195.05,359.1 215.05,359.1 215.05,379.1 195.05,379.1" fill="none" stroke="black" stroke-width="0.5"/><text xml:space="preserve" x="205.05" y="371.1" font-family="Arial" font-size="5" fill="rgb(0,0,0)" text-anchor="middle">1.8</text>
<polygon points="215.05,359.1 235.05,359.1 235.05,379.1 215.05,379.1" fill="rgb(0,239,239)"/><polygon points="215.05,359.1 235.05,359.1 235.05,379.1 215.05,379.1" fill="none" stroke="black" stroke-width="0.5"/><text xml:space="preserve" x="225.05" y="371.1" font-family="Arial" font-size="5" fill="rgb(0,0,0)" text-anchor="middle">2.1</text>
<polygon points="235.05,359.1 255.05,359.1 255.05,379.1 235.05,379.1" fill="rgb(0,193,193)"/><polygon points="235.05,359.1 255.05,359.1 255.05,379.1 235.05,379.1" fill="none" stroke="black" stroke-width="0.5"/><text xml:space="preserve" x="245.05" y="371.1" font-family="Arial" font-size="5" fill="rgb(0,0,0)" text-anchor="middle">2.4</text>
<polygon points="255.05,359.1 275.05,359.1 275.05,379.1 255.05,379.1" fill="rgb(0,146,146)"/><polygon points="255.05,359.1 275.05,359.1 275.05,379.1 255.05,379.1" fill="none" stroke="black" stroke-width="0.5"/><text xml:space="preserve" x="265.05" y="371.1" font-family="Arial" font-size="5" fill="rgb(255,255,255)" text-anchor="middle">2.7</text>
<polygon points="275.05,359.1 295.05,359.1 295.05,379.1 275.05,379.1" fill="rgb(0,100,100)"/><polygon points="275.05,359.1 295.05,359.1 295.05,379.1 275.05,379.1" fill="none" stroke="black" stroke-width="0.5"/><text xml:space="preserve" x="285.05" y="371.1" font-family="Arial" font-size="5" fill="rgb(255,255,255)" text-anchor="middle">3.0</text>
<text xml:space="preserve" x="185.05" y="411.767" font-family="Arial" font-size="7" text-anchor="middle">expression</text>
<polygon points="75.05,419.1 95.05,419.1 95.05,439.1 75.05,439.1" fill="rgb(0,0,255)"/><polygon points="75.05,419.1 95.05,419.1 95.05,439.1 75.05,439.1" fill="none" stroke="black" stroke-width="0.5"/><text xml:space="preserve" x="85.05" y="431.1" font-family="Arial" font-size="5" fill="rgb(255,255,255)" text-anchor="middle">0.0</text>
<polygon points="95.05,419.1 115.05,419.1 115.05,439.1 95.05,439.1" fill="rgb(255,211,211)"/><polygon points="95.05,419.1 115.05,419.1 115.05,439.1 95.05,439.1" fill="none" stroke="black" stroke-width="0.5"/><text xml:space="preserve" x="105.05" y="431.1" font-family="Arial" font-size="5" fill="rgb(0,0,0)" text-anchor="middle">0.6</text>
<polygon points="115.05,419.1 135.05,419.1 135.05,439.1 115.05,439.1" fill="rgb(255,158,158)"/><polygon points="115.05,419.1 135.05,419.1 135.05,439.1 115.05,439.1" fill="none" stroke="black" stroke-width="0.5"/><text xml:space="preserve" x="125.05" y="431.1" font-family="Arial" font-size="5" fill="rgb(0,0,0)" text-anchor="middle">1.2</text>
<polygon points="135.05,419.1 155.05,419.1 155.05,439.1 135.05,439.1" fill="rgb(255,105,105)"/><polygon points="135.05,419.1 155.05,419.1 155.05,439.1 135.05,439.1" fill="none" stroke="black" stroke-width="0.5"/><text xml:space="preserve" x="145.05" y="431.1" font-family="Arial" font-size="5" fill="rgb(0,0,0)" text-anchor="middle">1.8</text>
<polygon points="155.05,419.1 175.05,419.1 175.05,439.1 155.05,439.1" fill="rgb(255,52,52)"/><polygon points="155.05,419.1 175.05,419.1 175.05,439.1 155.05,439.1" fill="none" stroke="black" stroke-width="0.5"/><text xml:space="preserve" x="165.05" y="431.1" font-family="Arial" font-size="5" fill="rgb(255,255,255)" text-anchor="middle">2.4</text>
<polygon points="175.05,419.1 195.05,419.1 195.05,439.1 175.05,439.1" fill="rgb(255,0,0)"/><polygon points="175.05,419.1 195.05,419.1 195.05,439.1 175.05,439.1" fill="none" stroke="black" stroke-width="0.5"/><text xml:space="preserve" x="185.05" y="431.1" font-family="Arial" font-size="5" fill="rgb(255,255,255)" text-anchor="middle">3.0</text>
<polygon points="195.05,419.1 215.05,419.1 215.05,439.1 195.05,439.1" fill="rgb(231,0,0)"/><polygon points="195.05,419.1 215.05,419.1 215.05,439.1 195.05,439.1" fill="none" stroke="black" stroke-width="0.5"/><text xml:space="preserve" x="205.05" y="431.1" font-family="Arial" font-size="5" fill="rgb(255,255,255)" text-anchor="middle">3.6</text>
<polygon points="215.05,419.1 235.05,419.1 235.05,439.1 215.05,439.1" fill="rgb(208,0,0)"/><polygon points="215.05,419.1 235.05,419.1 235.05,439.1 215.05,439.1" fill="none" stroke="black" stroke-width="0.5"/><text xml:space="preserve" x="225.05" y="431.1" font-family="Arial" font-size="5" fill="rgb(255,255,255)" text-anchor="middle">4.2</text>
<polygon points="235.05,419.1 255.05,419.1 255.05,439.1 235.05,439.1" fill="rgb(185,0,0)"/><polygon points="235.05,419.1 255.05,419.1 255.05,439.1 235.05,439.1" fill="none" stroke="black" stroke-width="0.5"/><text xml:space="preserve" x="245.05" y="431.1" font-family="Arial" font-size="5" fill="rgb(255,255,255)" text-anchor="middle">4.8</text>
<polygon points="255.05,419.1 275.05,419.1 275.05,439.1 255.05,439.1" fill="rgb(162,0,0)"/><polygon points="255.05,419.1 275.05,419.1 275.05,439.1 255.05,439.1" fill="none" stroke="black" stroke-width="0.5"/><text xml:space="preserve" x="265.05" y="431.1" font-family="Arial" font-size="5" fill="rgb(255,255,255)" text-anchor="middle">5.4</text>
<polygon points="275.05,419.1 295.05,419.1 295.05,439.1 275.05,439.1" fill="rgb(139,0,0)"/><polygon points="275.05,419.1 295.05,419.1 295.05,439.1 275.05,439.1" fill="none" stroke="black" stroke-width="0.5"/><text xml:space="preserve" x="285.05" y="431.1" font-family="Arial" font-size="5" fill="rgb(255,255,255)" text-anchor="middle">6.0</text>
</svg>
