<?xml version="1.0" standalone="no"?><!DOCTYPE svg PUBLIC "-//W3C//DTD SVG 1.1//EN" "http://www.w3.org/Graphics/SVG/1.1/DTD/svg11.dtd">
<svg width="382.1" height="567.1" version="1.1" xmlns="http://www.w3.org/2000/svg">
<text xml:space="preserve" x="138.1" y="147.767" font-family="Arial" font-size="7" text-anchor="end">Abce1</text>
<text xml:space="preserve" x="138.1" y="153.767" font-family="Arial" font-size="7" text-anchor="end">Etf1</text>
<text xml:space="preserve" x="138.1" y="159.767" font-family="Arial" font-size="7" text-anchor="end">Rrp12</text>
<text xml:space="preserve" x="138.1" y="165.767" font-family="Arial" font-size="7" text-anchor="end">Iars</text>
<text xml:space="preserve" x="138.1" y="171.767" font-family="Arial" font-size="7" text-anchor="end">Dnaja2</text>
<text xml:space="preserve" x="138.1" y="177.767" font-family="Arial" font-size="7" text-anchor="end">Pno1</text>
<text xml:space="preserve" x="138.1" y="183.767" font-family="Arial" font-size="7" text-anchor="end">Cnbp</text>
<text xml:space="preserve" x="138.1" y="189.767" font-family="Arial" font-size="7" text-anchor="end">Ppa1</text>
<text xml:space="preserve" x="138.1" y="195.767" font-family="Arial" font-size="7" text-anchor="end">Chchd4</text>
<text xml:space="preserve" x="138.1" y="201.767" font-family="Arial" font-size="7" text-anchor="end">Fam136a</text>
<text xml:space="preserve" x="138.1" y="207.767" font-family="Arial" font-size="7" text-anchor="end">Nip7</text>
<text xml:space="preserve" x="138.1" y="213.767" font-family="Arial" font-size="7" text-anchor="end">Ddx21</text>
<text xml:space="preserve" x="138.1" y="219.767" font-family="Arial" font-size="7" text-anchor="end">Clns1a</text>
<text xml:space="preserve" x="138.1" y="225.767" font-family="Arial" font-size="7" text-anchor="end">Nop16</text>
<text xml:space="preserve" x="138.1" y="231.767" font-family="Arial" font-size="7" text-anchor="end">Ola1</text>
<text xml:space="preserve" x="138.1" y="237.767" font-family="Arial" font-size="7" text-anchor="end">Nsun2</text>
<text xml:space="preserve" x="138.1" y="243.767" font-family="Arial" font-size="7" text-anchor="end">Rsl1d1</text>
<text xml:space="preserve" x="138.1" y="249.767" font-family="Arial" font-size="7" text-anchor="end">Wdr77</text>
<text xml:space="preserve" x="138.1" y="255.767" font-family="Arial" font-size="7" text-anchor="end">Pa2g4</text>
<text xml:space="preserve" x="138.1" y="261.767" font-family="Arial" font-size="7" text-anchor="end">Cct2</text>
<text xml:space="preserve" x="138.1" y="267.767" font-family="Arial" font-size="7" text-anchor="end">Ppid</text>
<text xml:space="preserve" x="138.1" y="273.767" font-family="Arial" font-size="7" text-anchor="end">Hspd1</text>
<text xml:space="preserve" x="138.1" y="279.767" font-family="Arial" font-size="7" text-anchor="end">Eif2s1</text>
<text xml:space="preserve" x="138.1" y="285.767" font-family="Arial" font-size="7" text-anchor="end">Serbp1</text>
<text xml:space="preserve" x="138.1" y="291.767" font-family="Arial" font-size="7" text-anchor="end">Cpox</text>
<text xml:space="preserve" x="138.1" y="297.767" font-family="Arial" font-size="7" text-anchor="end">Cdv3</text>
<text xml:space="preserve" x="138.1" y="303.767" font-family="Arial" font-size="7" text-anchor="end">Eif4e</text>
<text xml:space="preserve" x="138.1" y="309.767" font-family="Arial" font-size="7" text-anchor="end">Isy1</text>
<text xml:space="preserve" x="138.1" y="315.767" font-family="Arial" font-size="7" text-anchor="end">Rrn3</text>
<text xml:space="preserve" x="138.1" y="321.767" font-family="Arial" font-size="7" text-anchor="end">Stk4</text>
<text xml:space="preserve" x="138.1" y="327.767" font-family="Arial" font-size="7" text-anchor="end">Tomm22</text>
<text xml:space="preserve" x="138.1" y="333.767" font-family="Arial" font-size="7" text-anchor="end">Rpl7l1</text>
<text xml:space="preserve" x="138.1" y="339.767" font-family="Arial" font-size="7" text-anchor="end">Gspt1</text>
<text xml:space="preserve" x="138.1" y="345.767" font-family="Arial" font-size="7" text-anchor="end">Elavl1</text>
<text xml:space="preserve" x="138.1" y="351.767" font-family="Arial" font-size="7" text-anchor="end">Adss</text>
<text xml:space="preserve" x="138.1" y="357.767" font-family="Arial" font-size="7" text-anchor="end">Got1</text>
<text xml:space="preserve" x="138.1" y="363.767" font-family="Arial" font-size="7" text-anchor="end">Heatr1</text>
<text xml:space="preserve" x="138.1" y="369.767" font-family="Arial" font-size="7" text-anchor="end">Mak16</text>
<text xml:space="preserve" x="138.1" y="375.767" font-family="Arial" font-size="7" text-anchor="end">Yrdc</text>
<text xml:space="preserve" x="138.1" y="381.767" font-family="Arial" font-size="7" text-anchor="end">Tomm70a</text>
<text xml:space="preserve" x="138.1" y="387.767" font-family="Arial" font-size="7" text-anchor="end">Gtpbp4</text>
<text xml:space="preserve" x="138.1" y="393.767" font-family="Arial" font-size="7" text-anchor="end">Cct6a</text>
<text xml:space="preserve" x="138.1" y="402.767" font-family="Arial" font-size="7" text-anchor="end">Elk1_nca:2</text>
<text xml:space="preserve" x="138.1" y="408.767" font-family="Arial" font-size="7" text-anchor="end">Fos_nca:2</text>
<text xml:space="preserve" x="138.1" y="414.767" font-family="Arial" font-size="7" text-anchor="end">Hsf4_nca:2</text>
<text xml:space="preserve" x="138.1" y="420.767" font-family="Arial" font-size="7" text-anchor="end">Jun_nca:2</text>
<text xml:space="preserve" x="138.1" y="426.767" font-family="Arial" font-size="7" text-anchor="end">Nr2c2_nca:2</text>
<text xml:space="preserve" x="147.767" y="138.1" font-family="Arial" font-size="7" transform="rotate(270 147.767 138.1)">Elk1_nca:2</text>
<text xml:space="preserve" x="153.767" y="138.1" font-family="Arial" font-size="7" transform="rotate(270 153.767 138.1)">Hsf4_nca:2</text>
<text xml:space="preserve" x="159.767" y="138.1" font-family="Arial" font-size="7" transform="rotate(270 159.767 138.1)">Nr2c2_nca:2</text>
<text xml:space="preserve" x="165.767" y="138.1" font-family="Arial" font-size="7" transform="rotate(270 165.767 138.1)">Fos_nca:2</text>
<text xml:space="preserve" x="171.767" y="138.1" font-family="Arial" font-size="7" transform="rotate(270 171.767 138.1)">Jun_nca:2</text>
<text xml:space="preserve" x="180.767" y="138.1" font-family="Arial" font-size="7" transform="rotate(270 180.767 138.1)">C2</text>
<text xml:space="preserve" x="186.767" y="138.1" font-family="Arial" font-size="7" transform="rotate(270 186.767 138.1)">C7</text>
<text xml:space="preserve" x="192.767" y="138.1" font-family="Arial" font-size="7" transform="rotate(270 192.767 138.1)">C3</text>
<text xml:space="preserve" x="198.767" y="138.1" font-family="Arial" font-size="7" transform="rotate(270 198.767 138.1)">C5</text>
<text xml:space="preserve" x="204.767" y="138.1" font-family="Arial" font-size="7" transform="rotate(270 204.767 138.1)">C12</text>
<text xml:space="preserve" x="210.767" y="138.1" font-family="Arial" font-size="7" transform="rotate(270 210.767 138.1)">C13</text>
<text xml:space="preserve" x="216.767" y="138.1" font-family="Arial" font-size="7" transform="rotate(270 216.767 138.1)">C14</text>
<text xml:space="preserve" x="222.767" y="138.1" font-family="Arial" font-size="7" transform="rotate(270 222.767 138.1)">C11</text>
<text xml:space="preserve" x="228.767" y="138.1" font-family="Arial" font-size="7" transform="rotate(270 228.767 138.1)">C4</text>
<text xml:space="preserve" x="234.767" y="138.1" font-family="Arial" font-size="7" transform="rotate(270 234.767 138.1)">C8</text>
<text xml:space="preserve" x="240.767" y="138.1" font-family="Arial" font-size="7" transform="rotate(270 240.767 138.1)">C6</text>
<text xml:space="preserve" x="246.767" y="138.1" font-family="Arial" font-size="7" transform="rotate(270 246.767 138.1)">C10</text>
<text xml:space="preserve" x="252.767" y="138.1" font-family="Arial" font-size="7" transform="rotate(270 252.767 138.1)">C9</text>
<text xml:space="preserve" x="258.767" y="138.1" font-family="Arial" font-size="7" transform="rotate(270 258.767 138.1)">C1</text>
<polygon points="142.1,142.1 148.1,142.1 148.1,148.1 142.1,148.1" fill="rgb(0,255,255)"/>
<polygon points="148.1,142.1 154.1,142.1 154.1,148.1 148.1,148.1" fill="rgb(255,255,255)"/>
<polygon points="154.1,142.1 160.1,142.1 160.1,148.1 154.1,148.1" fill="rgb(255,255,255)"/>
<polygon points="160.1,142.1 166.1,142.1 166.1,148.1 160.1,148.1" fill="rgb(0,255,255)"/>
<polygon points="166.1,142.1 172.1,142.1 172.1,148.1 166.1,148.1" fill="rgb(0,255,255)"/>
<polygon points="175.1,142.1 181.1,142.1 181.1,148.1 175.1,148.1" fill="rgb(255,112,112)"/>
<polygon points="181.1,142.1 187.1,142.1 187.1,148.1 181.1,148.1" fill="rgb(255,87,87)"/>
<polygon points="187.1,142.1 193.1,142.1 193.1,148.1 187.1,148.1" fill="rgb(255,90,90)"/>
<polygon points="193.1,142.1 199.1,142.1 199.1,148.1 193.1,148.1" fill="rgb(255,58,58)"/>
<polygon points="199.1,142.1 205.1,142.1 205.1,148.1 199.1,148.1" fill="rgb(255,181,181)"/>
<polygon points="205.1,142.1 211.1,142.1 211.1,148.1 205.1,148.1" fill="rgb(255,187,187)"/>
<polygon points="211.1,142.1 217.1,142.1 217.1,148.1 211.1,148.1" fill="rgb(255,210,210)"/>
<polygon points="217.1,142.1 223.1,142.1 223.1,148.1 217.1,148.1" fill="rgb(255,134,134)"/>
<polygon points="223.1,142.1 229.1,142.1 229.1,148.1 223.1,148.1" fill="rgb(254,166,166)"/>
<polygon points="229.1,142.1 235.1,142.1 235.1,148.1 229.1,148.1" fill="rgb(255,135,135)"/>
<polygon points="235.1,142.1 241.1,142.1 241.1,148.1 235.1,148.1" fill="rgb(255,78,78)"/>
<polygon points="241.1,142.1 247.1,142.1 247.1,148.1 241.1,148.1" fill="rgb(255,135,135)"/>
<polygon points="247.1,142.1 253.1,142.1 253.1,148.1 247.1,148.1" fill="rgb(255,116,116)"/>
<polygon points="253.1,142.1 259.1,142.1 259.1,148.1 253.1,148.1" fill="rgb(255,37,37)"/>
<polygon points="142.1,148.1 148.1,148.1 148.1,154.1 142.1,154.1" fill="rgb(0,255,255)"/>
<polygon points="148.1,148.1 154.1,148.1 154.1,154.1 148.1,154.1" fill="rgb(255,255,255)"/>
<polygon points="154.1,148.1 160.1,148.1 160.1,154.1 154.1,154.1" fill="rgb(255,255,255)"/>
<polygon points="160.1,148.1 166.1,148.1 166.1,154.1 160.1,154.1" fill="rgb(0,255,255)"/>
<polygon points="166.1,148.1 172.1,148.1 172.1,154.1 166.1,154.1" fill="rgb(0,255,255)"/>
<polygon points="175.1,148.1 181.1,148.1 181.1,154.1 175.1,154.1" fill="rgb(255,101,101)"/>
<polygon points="181.1,148.1 187.1,148.1 187.1,154.1 181.1,154.1" fill="rgb(255,92,92)"/>
<polygon points="187.1,148.1 193.1,148.1 193.1,154.1 187.1,154.1" fill="rgb(255,84,84)"/>
<polygon points="193.1,148.1 199.1,148.1 199.1,154.1 193.1,154.1" fill="rgb(255,35,35)"/>
<polygon points="199.1,148.1 205.1,148.1 205.1,154.1 199.1,154.1" fill="rgb(255,171,171)"/>
<polygon points="205.1,148.1 211.1,148.1 211.1,154.1 205.1,154.1" fill="rgb(255,160,160)"/>
<polygon points="211.1,148.1 217.1,148.1 217.1,154.1 211.1,154.1" fill="rgb(255,199,199)"/>
<polygon points="217.1,148.1 223.1,148.1 223.1,154.1 217.1,154.1" fill="rgb(255,125,125)"/>
<polygon points="223.1,148.1 229.1,148.1 229.1,154.1 223.1,154.1" fill="rgb(255,166,166)"/>
<polygon points="229.1,148.1 235.1,148.1 235.1,154.1 229.1,154.1" fill="rgb(255,112,112)"/>
<polygon points="235.1,148.1 241.1,148.1 241.1,154.1 235.1,154.1" fill="rgb(255,61,61)"/>
<polygon points="241.1,148.1 247.1,148.1 247.1,154.1 241.1,154.1" fill="rgb(255,136,136)"/>
<polygon points="247.1,148.1 253.1,148.1 253.1,154.1 247.1,154.1" fill="rgb(255,103,103)"/>
<polygon points="253.1,148.1 259.1,148.1 259.1,154.1 253.1,154.1" fill="rgb(255,24,24)"/>
<polygon points="142.1,154.1 148.1,154.1 148.1,160.1 142.1,160.1" fill="rgb(255,255,255)"/>
<polygon points="148.1,154.1 154.1,154.1 154.1,160.1 148.1,160.1" fill="rgb(255,255,255)"/>
<polygon points="154.1,154.1 160.1,154.1 160.1,160.1 154.1,160.1" fill="rgb(255,255,255)"/>
<polygon points="160.1,154.1 166.1,154.1 166.1,160.1 160.1,160.1" fill="rgb(0,255,255)"/>
<polygon points="166.1,154.1 172.1,154.1 172.1,160.1 166.1,160.1" fill="rgb(0,255,255)"/>
<polygon points="175.1,154.1 181.1,154.1 181.1,160.1 175.1,160.1" fill="rgb(255,228,228)"/>
<polygon points="181.1,154.1 187.1,154.1 187.1,160.1 181.1,160.1" fill="rgb(255,215,215)"/>
<polygon points="187.1,154.1 193.1,154.1 193.1,160.1 187.1,160.1" fill="rgb(255,225,225)"/>
<polygon points="193.1,154.1 199.1,154.1 199.1,160.1 193.1,160.1" fill="rgb(255,187,187)"/>
<polygon points="199.1,154.1 205.1,154.1 205.1,160.1 199.1,160.1" fill="rgb(255,246,246)"/>
<polygon points="205.1,154.1 211.1,154.1 211.1,160.1 205.1,160.1" fill="rgb(253,253,255)"/>
<polygon points="211.1,154.1 217.1,154.1 217.1,160.1 211.1,160.1" fill="rgb(186,186,255)"/>
<polygon points="217.1,154.1 223.1,154.1 223.1,160.1 217.1,160.1" fill="rgb(255,245,245)"/>
<polygon points="223.1,154.1 229.1,154.1 229.1,160.1 223.1,160.1" fill="rgb(255,254,254)"/>
<polygon points="229.1,154.1 235.1,154.1 235.1,160.1 229.1,160.1" fill="rgb(255,239,239)"/>
<polygon points="235.1,154.1 241.1,154.1 241.1,160.1 235.1,160.1" fill="rgb(255,208,208)"/>
<polygon points="241.1,154.1 247.1,154.1 247.1,160.1 241.1,160.1" fill="rgb(255,241,241)"/>
<polygon points="247.1,154.1 253.1,154.1 253.1,160.1 247.1,160.1" fill="rgb(255,218,218)"/>
<polygon points="253.1,154.1 259.1,154.1 259.1,160.1 253.1,160.1" fill="rgb(255,187,187)"/>
<polygon points="142.1,160.1 148.1,160.1 148.1,166.1 142.1,166.1" fill="rgb(255,255,255)"/>
<polygon points="148.1,160.1 154.1,160.1 154.1,166.1 148.1,166.1" fill="rgb(255,255,255)"/>
<polygon points="154.1,160.1 160.1,160.1 160.1,166.1 154.1,166.1" fill="rgb(255,255,255)"/>
<polygon points="160.1,160.1 166.1,160.1 166.1,166.1 160.1,166.1" fill="rgb(0,255,255)"/>
<polygon points="166.1,160.1 172.1,160.1 172.1,166.1 166.1,166.1" fill="rgb(255,255,255)"/>
<polygon points="175.1,160.1 181.1,160.1 181.1,166.1 175.1,166.1" fill="rgb(254,147,147)"/>
<polygon points="181.1,160.1 187.1,160.1 187.1,166.1 181.1,166.1" fill="rgb(255,140,140)"/>
<polygon points="187.1,160.1 193.1,160.1 193.1,166.1 187.1,166.1" fill="rgb(255,145,145)"/>
<polygon points="193.1,160.1 199.1,160.1 199.1,166.1 193.1,166.1" fill="rgb(255,111,111)"/>
<polygon points="199.1,160.1 205.1,160.1 205.1,166.1 199.1,166.1" fill="rgb(255,216,216)"/>
<polygon points="205.1,160.1 211.1,160.1 211.1,166.1 205.1,166.1" fill="rgb(255,209,209)"/>
<polygon points="211.1,160.1 217.1,160.1 217.1,166.1 211.1,166.1" fill="rgb(255,221,221)"/>
<polygon points="217.1,160.1 223.1,160.1 223.1,166.1 217.1,166.1" fill="rgb(255,167,167)"/>
<polygon points="223.1,160.1 229.1,160.1 229.1,166.1 223.1,166.1" fill="rgb(255,200,200)"/>
<polygon points="229.1,160.1 235.1,160.1 235.1,166.1 229.1,166.1" fill="rgb(255,154,154)"/>
<polygon points="235.1,160.1 241.1,160.1 241.1,166.1 235.1,166.1" fill="rgb(255,119,119)"/>
<polygon points="241.1,160.1 247.1,160.1 247.1,166.1 241.1,166.1" fill="rgb(255,170,170)"/>
<polygon points="247.1,160.1 253.1,160.1 253.1,166.1 247.1,166.1" fill="rgb(255,139,139)"/>
<polygon points="253.1,160.1 259.1,160.1 259.1,166.1 253.1,166.1" fill="rgb(255,101,101)"/>
<polygon points="142.1,166.1 148.1,166.1 148.1,172.1 142.1,172.1" fill="rgb(0,255,255)"/>
<polygon points="148.1,166.1 154.1,166.1 154.1,172.1 148.1,172.1" fill="rgb(255,255,255)"/>
<polygon points="154.1,166.1 160.1,166.1 160.1,172.1 154.1,172.1" fill="rgb(255,255,255)"/>
<polygon points="160.1,166.1 166.1,166.1 166.1,172.1 160.1,172.1" fill="rgb(0,255,255)"/>
<polygon points="166.1,166.1 172.1,166.1 172.1,172.1 166.1,172.1" fill="rgb(255,255,255)"/>
<polygon points="175.1,166.1 181.1,166.1 181.1,172.1 175.1,172.1" fill="rgb(255,94,94)"/>
<polygon points="181.1,166.1 187.1,166.1 187.1,172.1 181.1,172.1" fill="rgb(255,84,84)"/>
<polygon points="187.1,166.1 193.1,166.1 193.1,172.1 187.1,172.1" fill="rgb(255,78,78)"/>
<polygon points="193.1,166.1 199.1,166.1 199.1,172.1 193.1,172.1" fill="rgb(255,35,35)"/>
<polygon points="199.1,166.1 205.1,166.1 205.1,172.1 199.1,172.1" fill="rgb(255,147,147)"/>
<polygon points="205.1,166.1 211.1,166.1 211.1,172.1 205.1,172.1" fill="rgb(255,140,140)"/>
<polygon points="211.1,166.1 217.1,166.1 217.1,172.1 211.1,172.1" fill="rgb(255,148,148)"/>
<polygon points="217.1,166.1 223.1,166.1 223.1,172.1 217.1,172.1" fill="rgb(255,114,114)"/>
<polygon points="223.1,166.1 229.1,166.1 229.1,172.1 223.1,172.1" fill="rgb(255,131,131)"/>
<polygon points="229.1,166.1 235.1,166.1 235.1,172.1 229.1,172.1" fill="rgb(255,107,107)"/>
<polygon points="235.1,166.1 241.1,166.1 241.1,172.1 235.1,172.1" fill="rgb(255,55,55)"/>
<polygon points="241.1,166.1 247.1,166.1 247.1,172.1 241.1,172.1" fill="rgb(255,117,117)"/>
<polygon points="247.1,166.1 253.1,166.1 253.1,172.1 247.1,172.1" fill="rgb(255,110,110)"/>
<polygon points="253.1,166.1 259.1,166.1 259.1,172.1 253.1,172.1" fill="rgb(255,18,18)"/>
<polygon points="142.1,172.1 148.1,172.1 148.1,178.1 142.1,178.1" fill="rgb(0,255,255)"/>
<polygon points="148.1,172.1 154.1,172.1 154.1,178.1 148.1,178.1" fill="rgb(255,255,255)"/>
<polygon points="154.1,172.1 160.1,172.1 160.1,178.1 154.1,178.1" fill="rgb(255,255,255)"/>
<polygon points="160.1,172.1 166.1,172.1 166.1,178.1 160.1,178.1" fill="rgb(0,255,255)"/>
<polygon points="166.1,172.1 172.1,172.1 172.1,178.1 166.1,178.1" fill="rgb(255,255,255)"/>
<polygon points="175.1,172.1 181.1,172.1 181.1,178.1 175.1,178.1" fill="rgb(255,156,156)"/>
<polygon points="181.1,172.1 187.1,172.1 187.1,178.1 181.1,178.1" fill="rgb(255,131,131)"/>
<polygon points="187.1,172.1 193.1,172.1 193.1,178.1 187.1,178.1" fill="rgb(255,151,151)"/>
<polygon points="193.1,172.1 199.1,172.1 199.1,178.1 193.1,178.1" fill="rgb(255,96,96)"/>
<polygon points="199.1,172.1 205.1,172.1 205.1,178.1 199.1,178.1" fill="rgb(255,204,204)"/>
<polygon points="205.1,172.1 211.1,172.1 211.1,178.1 205.1,178.1" fill="rgb(255,218,218)"/>
<polygon points="211.1,172.1 217.1,172.1 217.1,178.1 211.1,178.1" fill="rgb(255,232,232)"/>
<polygon points="217.1,172.1 223.1,172.1 223.1,178.1 217.1,178.1" fill="rgb(255,201,201)"/>
<polygon points="223.1,172.1 229.1,172.1 229.1,178.1 223.1,178.1" fill="rgb(255,219,219)"/>
<polygon points="229.1,172.1 235.1,172.1 235.1,178.1 229.1,178.1" fill="rgb(255,180,180)"/>
<polygon points="235.1,172.1 241.1,172.1 241.1,178.1 235.1,178.1" fill="rgb(255,126,126)"/>
<polygon points="241.1,172.1 247.1,172.1 247.1,178.1 241.1,178.1" fill="rgb(255,172,172)"/>
<polygon points="247.1,172.1 253.1,172.1 253.1,178.1 247.1,178.1" fill="rgb(255,154,154)"/>
<polygon points="253.1,172.1 259.1,172.1 259.1,178.1 253.1,178.1" fill="rgb(255,99,99)"/>
<polygon points="142.1,178.1 148.1,178.1 148.1,184.1 142.1,184.1" fill="rgb(0,255,255)"/>
<polygon points="148.1,178.1 154.1,178.1 154.1,184.1 148.1,184.1" fill="rgb(255,255,255)"/>
<polygon points="154.1,178.1 160.1,178.1 160.1,184.1 154.1,184.1" fill="rgb(255,255,255)"/>
<polygon points="160.1,178.1 166.1,178.1 166.1,184.1 160.1,184.1" fill="rgb(0,255,255)"/>
<polygon points="166.1,178.1 172.1,178.1 172.1,184.1 166.1,184.1" fill="rgb(255,255,255)"/>
<polygon points="175.1,178.1 181.1,178.1 181.1,184.1 175.1,184.1" fill="rgb(255,14,14)"/>
<polygon points="181.1,178.1 187.1,178.1 187.1,184.1 181.1,184.1" fill="rgb(246,0,0)"/>
<polygon points="187.1,178.1 193.1,178.1 193.1,184.1 187.1,184.1" fill="rgb(238,0,0)"/>
<polygon points="193.1,178.1 199.1,178.1 199.1,184.1 193.1,184.1" fill="rgb(213,0,0)"/>
<polygon points="199.1,178.1 205.1,178.1 205.1,184.1 199.1,184.1" fill="rgb(255,71,71)"/>
<polygon points="205.1,178.1 211.1,178.1 211.1,184.1 205.1,184.1" fill="rgb(255,69,69)"/>
<polygon points="211.1,178.1 217.1,178.1 217.1,184.1 211.1,184.1" fill="rgb(255,38,38)"/>
<polygon points="217.1,178.1 223.1,178.1 223.1,184.1 217.1,184.1" fill="rgb(255,9,9)"/>
<polygon points="223.1,178.1 229.1,178.1 229.1,184.1 223.1,184.1" fill="rgb(255,25,25)"/>
<polygon points="229.1,178.1 235.1,178.1 235.1,184.1 229.1,184.1" fill="rgb(255,1,1)"/>
<polygon points="235.1,178.1 241.1,178.1 241.1,184.1 235.1,184.1" fill="rgb(213,0,0)"/>
<polygon points="241.1,178.1 247.1,178.1 247.1,184.1 241.1,184.1" fill="rgb(237,0,0)"/>
<polygon points="247.1,178.1 253.1,178.1 253.1,184.1 247.1,184.1" fill="rgb(238,0,0)"/>
<polygon points="253.1,178.1 259.1,178.1 259.1,184.1 253.1,184.1" fill="rgb(214,0,0)"/>
<polygon points="142.1,184.1 148.1,184.1 148.1,190.1 142.1,190.1" fill="rgb(0,255,255)"/>
<polygon points="148.1,184.1 154.1,184.1 154.1,190.1 148.1,190.1" fill="rgb(0,255,255)"/>
<polygon points="154.1,184.1 160.1,184.1 160.1,190.1 154.1,190.1" fill="rgb(255,255,255)"/>
<polygon points="160.1,184.1 166.1,184.1 166.1,190.1 160.1,190.1" fill="rgb(0,255,255)"/>
<polygon points="166.1,184.1 172.1,184.1 172.1,190.1 166.1,190.1" fill="rgb(255,255,255)"/>
<polygon points="175.1,184.1 181.1,184.1 181.1,190.1 175.1,190.1" fill="rgb(255,166,166)"/>
<polygon points="181.1,184.1 187.1,184.1 187.1,190.1 181.1,190.1" fill="rgb(255,150,150)"/>
<polygon points="187.1,184.1 193.1,184.1 193.1,190.1 187.1,190.1" fill="rgb(255,144,144)"/>
<polygon points="193.1,184.1 199.1,184.1 199.1,190.1 193.1,190.1" fill="rgb(255,105,105)"/>
<polygon points="199.1,184.1 205.1,184.1 205.1,190.1 199.1,190.1" fill="rgb(255,207,207)"/>
<polygon points="205.1,184.1 211.1,184.1 211.1,190.1 205.1,190.1" fill="rgb(255,243,243)"/>
<polygon points="211.1,184.1 217.1,184.1 217.1,190.1 211.1,190.1" fill="rgb(254,231,231)"/>
<polygon points="217.1,184.1 223.1,184.1 223.1,190.1 217.1,190.1" fill="rgb(255,224,224)"/>
<polygon points="223.1,184.1 229.1,184.1 229.1,190.1 223.1,190.1" fill="rgb(255,233,233)"/>
<polygon points="229.1,184.1 235.1,184.1 235.1,190.1 229.1,190.1" fill="rgb(255,193,193)"/>
<polygon points="235.1,184.1 241.1,184.1 241.1,190.1 235.1,190.1" fill="rgb(255,130,130)"/>
<polygon points="241.1,184.1 247.1,184.1 247.1,190.1 241.1,190.1" fill="rgb(255,179,179)"/>
<polygon points="247.1,184.1 253.1,184.1 253.1,190.1 247.1,190.1" fill="rgb(255,155,155)"/>
<polygon points="253.1,184.1 259.1,184.1 259.1,190.1 253.1,190.1" fill="rgb(255,84,84)"/>
<polygon points="142.1,190.1 148.1,190.1 148.1,196.1 142.1,196.1" fill="rgb(0,255,255)"/>
<polygon points="148.1,190.1 154.1,190.1 154.1,196.1 148.1,196.1" fill="rgb(0,255,255)"/>
<polygon points="154.1,190.1 160.1,190.1 160.1,196.1 154.1,196.1" fill="rgb(255,255,255)"/>
<polygon points="160.1,190.1 166.1,190.1 166.1,196.1 160.1,196.1" fill="rgb(255,255,255)"/>
<polygon points="166.1,190.1 172.1,190.1 172.1,196.1 166.1,196.1" fill="rgb(255,255,255)"/>
<polygon points="175.1,190.1 181.1,190.1 181.1,196.1 175.1,196.1" fill="rgb(255,226,226)"/>
<polygon points="181.1,190.1 187.1,190.1 187.1,196.1 181.1,196.1" fill="rgb(255,216,216)"/>
<polygon points="187.1,190.1 193.1,190.1 193.1,196.1 187.1,196.1" fill="rgb(255,200,200)"/>
<polygon points="193.1,190.1 199.1,190.1 199.1,196.1 193.1,196.1" fill="rgb(255,147,147)"/>
<polygon points="199.1,190.1 205.1,190.1 205.1,196.1 199.1,196.1" fill="rgb(255,239,239)"/>
<polygon points="205.1,190.1 211.1,190.1 211.1,196.1 205.1,196.1" fill="rgb(222,222,255)"/>
<polygon points="211.1,190.1 217.1,190.1 217.1,196.1 211.1,196.1" fill="rgb(255,232,232)"/>
<polygon points="217.1,190.1 223.1,190.1 223.1,196.1 217.1,196.1" fill="rgb(255,222,222)"/>
<polygon points="223.1,190.1 229.1,190.1 229.1,196.1 223.1,196.1" fill="rgb(255,238,238)"/>
<polygon points="229.1,190.1 235.1,190.1 235.1,196.1 229.1,196.1" fill="rgb(255,191,191)"/>
<polygon points="235.1,190.1 241.1,190.1 241.1,196.1 235.1,196.1" fill="rgb(255,146,146)"/>
<polygon points="241.1,190.1 247.1,190.1 247.1,196.1 241.1,196.1" fill="rgb(255,197,197)"/>
<polygon points="247.1,190.1 253.1,190.1 253.1,196.1 247.1,196.1" fill="rgb(255,175,175)"/>
<polygon points="253.1,190.1 259.1,190.1 259.1,196.1 253.1,196.1" fill="rgb(255,163,163)"/>
<polygon points="142.1,196.1 148.1,196.1 148.1,202.1 142.1,202.1" fill="rgb(0,255,255)"/>
<polygon points="148.1,196.1 154.1,196.1 154.1,202.1 148.1,202.1" fill="rgb(0,255,255)"/>
<polygon points="154.1,196.1 160.1,196.1 160.1,202.1 154.1,202.1" fill="rgb(255,255,255)"/>
<polygon points="160.1,196.1 166.1,196.1 166.1,202.1 160.1,202.1" fill="rgb(255,255,255)"/>
<polygon points="166.1,196.1 172.1,196.1 172.1,202.1 166.1,202.1" fill="rgb(255,255,255)"/>
<polygon points="175.1,196.1 181.1,196.1 181.1,202.1 175.1,202.1" fill="rgb(255,222,222)"/>
<polygon points="181.1,196.1 187.1,196.1 187.1,202.1 181.1,202.1" fill="rgb(255,214,214)"/>
<polygon points="187.1,196.1 193.1,196.1 193.1,202.1 187.1,202.1" fill="rgb(255,201,201)"/>
<polygon points="193.1,196.1 199.1,196.1 199.1,202.1 193.1,202.1" fill="rgb(255,166,166)"/>
<polygon points="199.1,196.1 205.1,196.1 205.1,202.1 199.1,202.1" fill="rgb(255,243,243)"/>
<polygon points="205.1,196.1 211.1,196.1 211.1,202.1 205.1,202.1" fill="rgb(254,248,248)"/>
<polygon points="211.1,196.1 217.1,196.1 217.1,202.1 211.1,202.1" fill="rgb(255,241,241)"/>
<polygon points="217.1,196.1 223.1,196.1 223.1,202.1 217.1,202.1" fill="rgb(255,228,228)"/>
<polygon points="223.1,196.1 229.1,196.1 229.1,202.1 223.1,202.1" fill="rgb(254,235,235)"/>
<polygon points="229.1,196.1 235.1,196.1 235.1,202.1 229.1,202.1" fill="rgb(255,213,213)"/>
<polygon points="235.1,196.1 241.1,196.1 241.1,202.1 235.1,202.1" fill="rgb(255,177,177)"/>
<polygon points="241.1,196.1 247.1,196.1 247.1,202.1 241.1,202.1" fill="rgb(254,216,216)"/>
<polygon points="247.1,196.1 253.1,196.1 253.1,202.1 247.1,202.1" fill="rgb(254,200,200)"/>
<polygon points="253.1,196.1 259.1,196.1 259.1,202.1 253.1,202.1" fill="rgb(254,159,159)"/>
<polygon points="142.1,202.1 148.1,202.1 148.1,208.1 142.1,208.1" fill="rgb(0,255,255)"/>
<polygon points="148.1,202.1 154.1,202.1 154.1,208.1 148.1,208.1" fill="rgb(0,255,255)"/>
<polygon points="154.1,202.1 160.1,202.1 160.1,208.1 154.1,208.1" fill="rgb(255,255,255)"/>
<polygon points="160.1,202.1 166.1,202.1 166.1,208.1 160.1,208.1" fill="rgb(255,255,255)"/>
<polygon points="166.1,202.1 172.1,202.1 172.1,208.1 166.1,208.1" fill="rgb(255,255,255)"/>
<polygon points="175.1,202.1 181.1,202.1 181.1,208.1 175.1,208.1" fill="rgb(255,189,189)"/>
<polygon points="181.1,202.1 187.1,202.1 187.1,208.1 181.1,208.1" fill="rgb(255,178,178)"/>
<polygon points="187.1,202.1 193.1,202.1 193.1,208.1 187.1,208.1" fill="rgb(255,175,175)"/>
<polygon points="193.1,202.1 199.1,202.1 199.1,208.1 193.1,208.1" fill="rgb(255,133,133)"/>
<polygon points="199.1,202.1 205.1,202.1 205.1,208.1 199.1,208.1" fill="rgb(255,227,227)"/>
<polygon points="205.1,202.1 211.1,202.1 211.1,208.1 205.1,208.1" fill="rgb(255,225,225)"/>
<polygon points="211.1,202.1 217.1,202.1 217.1,208.1 211.1,208.1" fill="rgb(255,216,216)"/>
<polygon points="217.1,202.1 223.1,202.1 223.1,208.1 217.1,208.1" fill="rgb(255,204,204)"/>
<polygon points="223.1,202.1 229.1,202.1 229.1,208.1 223.1,208.1" fill="rgb(255,210,210)"/>
<polygon points="229.1,202.1 235.1,202.1 235.1,208.1 229.1,208.1" fill="rgb(255,180,180)"/>
<polygon points="235.1,202.1 241.1,202.1 241.1,208.1 235.1,208.1" fill="rgb(255,135,135)"/>
<polygon points="241.1,202.1 247.1,202.1 247.1,208.1 241.1,208.1" fill="rgb(255,176,176)"/>
<polygon points="247.1,202.1 253.1,202.1 253.1,208.1 247.1,208.1" fill="rgb(255,129,129)"/>
<polygon points="253.1,202.1 259.1,202.1 259.1,208.1 253.1,208.1" fill="rgb(255,105,105)"/>
<polygon points="142.1,208.1 148.1,208.1 148.1,214.1 142.1,214.1" fill="rgb(0,255,255)"/>
<polygon points="148.1,208.1 154.1,208.1 154.1,214.1 148.1,214.1" fill="rgb(0,255,255)"/>
<polygon points="154.1,208.1 160.1,208.1 160.1,214.1 154.1,214.1" fill="rgb(255,255,255)"/>
<polygon points="160.1,208.1 166.1,208.1 166.1,214.1 160.1,214.1" fill="rgb(255,255,255)"/>
<polygon points="166.1,208.1 172.1,208.1 172.1,214.1 166.1,214.1" fill="rgb(255,255,255)"/>
<polygon points="175.1,208.1 181.1,208.1 181.1,214.1 175.1,214.1" fill="rgb(255,159,159)"/>
<polygon points="181.1,208.1 187.1,208.1 187.1,214.1 181.1,214.1" fill="rgb(255,135,135)"/>
<polygon points="187.1,208.1 193.1,208.1 193.1,214.1 187.1,214.1" fill="rgb(255,131,131)"/>
<polygon points="193.1,208.1 199.1,208.1 199.1,214.1 193.1,214.1" fill="rgb(255,81,81)"/>
<polygon points="199.1,208.1 205.1,208.1 205.1,214.1 199.1,214.1" fill="rgb(255,200,200)"/>
<polygon points="205.1,208.1 211.1,208.1 211.1,214.1 205.1,214.1" fill="rgb(255,223,223)"/>
<polygon points="211.1,208.1 217.1,208.1 217.1,214.1 211.1,214.1" fill="rgb(255,237,237)"/>
<polygon points="217.1,208.1 223.1,208.1 223.1,214.1 217.1,214.1" fill="rgb(255,182,182)"/>
<polygon points="223.1,208.1 229.1,208.1 229.1,214.1 223.1,214.1" fill="rgb(255,208,208)"/>
<polygon points="229.1,208.1 235.1,208.1 235.1,214.1 229.1,214.1" fill="rgb(255,158,158)"/>
<polygon points="235.1,208.1 241.1,208.1 241.1,214.1 235.1,214.1" fill="rgb(255,86,86)"/>
<polygon points="241.1,208.1 247.1,208.1 247.1,214.1 241.1,214.1" fill="rgb(255,158,158)"/>
<polygon points="247.1,208.1 253.1,208.1 253.1,214.1 247.1,214.1" fill="rgb(255,132,132)"/>
<polygon points="253.1,208.1 259.1,208.1 259.1,214.1 253.1,214.1" fill="rgb(255,64,64)"/>
<polygon points="142.1,214.1 148.1,214.1 148.1,220.1 142.1,220.1" fill="rgb(0,255,255)"/>
<polygon points="148.1,214.1 154.1,214.1 154.1,220.1 148.1,220.1" fill="rgb(0,255,255)"/>
<polygon points="154.1,214.1 160.1,214.1 160.1,220.1 154.1,220.1" fill="rgb(255,255,255)"/>
<polygon points="160.1,214.1 166.1,214.1 166.1,220.1 160.1,220.1" fill="rgb(255,255,255)"/>
<polygon points="166.1,214.1 172.1,214.1 172.1,220.1 166.1,220.1" fill="rgb(255,255,255)"/>
<polygon points="175.1,214.1 181.1,214.1 181.1,220.1 175.1,220.1" fill="rgb(255,168,168)"/>
<polygon points="181.1,214.1 187.1,214.1 187.1,220.1 181.1,220.1" fill="rgb(255,154,154)"/>
<polygon points="187.1,214.1 193.1,214.1 193.1,220.1 187.1,220.1" fill="rgb(255,150,150)"/>
<polygon points="193.1,214.1 199.1,214.1 199.1,220.1 193.1,220.1" fill="rgb(255,127,127)"/>
<polygon points="199.1,214.1 205.1,214.1 205.1,220.1 199.1,220.1" fill="rgb(255,210,210)"/>
<polygon points="205.1,214.1 211.1,214.1 211.1,220.1 205.1,220.1" fill="rgb(255,210,210)"/>
<polygon points="211.1,214.1 217.1,214.1 217.1,220.1 211.1,220.1" fill="rgb(255,215,215)"/>
<polygon points="217.1,214.1 223.1,214.1 223.1,220.1 217.1,220.1" fill="rgb(255,172,172)"/>
<polygon points="223.1,214.1 229.1,214.1 229.1,220.1 223.1,220.1" fill="rgb(255,194,194)"/>
<polygon points="229.1,214.1 235.1,214.1 235.1,220.1 229.1,220.1" fill="rgb(255,169,169)"/>
<polygon points="235.1,214.1 241.1,214.1 241.1,220.1 235.1,220.1" fill="rgb(255,125,125)"/>
<polygon points="241.1,214.1 247.1,214.1 247.1,220.1 241.1,220.1" fill="rgb(255,160,160)"/>
<polygon points="247.1,214.1 253.1,214.1 253.1,220.1 247.1,220.1" fill="rgb(255,145,145)"/>
<polygon points="253.1,214.1 259.1,214.1 259.1,220.1 253.1,220.1" fill="rgb(255,91,91)"/>
<polygon points="142.1,220.1 148.1,220.1 148.1,226.1 142.1,226.1" fill="rgb(0,255,255)"/>
<polygon points="148.1,220.1 154.1,220.1 154.1,226.1 148.1,226.1" fill="rgb(0,255,255)"/>
<polygon points="154.1,220.1 160.1,220.1 160.1,226.1 154.1,226.1" fill="rgb(255,255,255)"/>
<polygon points="160.1,220.1 166.1,220.1 166.1,226.1 160.1,226.1" fill="rgb(255,255,255)"/>
<polygon points="166.1,220.1 172.1,220.1 172.1,226.1 166.1,226.1" fill="rgb(255,255,255)"/>
<polygon points="175.1,220.1 181.1,220.1 181.1,226.1 175.1,226.1" fill="rgb(255,189,189)"/>
<polygon points="181.1,220.1 187.1,220.1 187.1,226.1 181.1,226.1" fill="rgb(255,180,180)"/>
<polygon points="187.1,220.1 193.1,220.1 193.1,226.1 187.1,226.1" fill="rgb(255,169,169)"/>
<polygon points="193.1,220.1 199.1,220.1 199.1,226.1 193.1,226.1" fill="rgb(255,126,126)"/>
<polygon points="199.1,220.1 205.1,220.1 205.1,226.1 199.1,226.1" fill="rgb(255,219,219)"/>
<polygon points="205.1,220.1 211.1,220.1 211.1,226.1 205.1,226.1" fill="rgb(255,233,233)"/>
<polygon points="211.1,220.1 217.1,220.1 217.1,226.1 211.1,226.1" fill="rgb(254,206,206)"/>
<polygon points="217.1,220.1 223.1,220.1 223.1,226.1 217.1,226.1" fill="rgb(255,182,182)"/>
<polygon points="223.1,220.1 229.1,220.1 229.1,226.1 223.1,226.1" fill="rgb(255,207,207)"/>
<polygon points="229.1,220.1 235.1,220.1 235.1,226.1 229.1,226.1" fill="rgb(255,173,173)"/>
<polygon points="235.1,220.1 241.1,220.1 241.1,226.1 235.1,226.1" fill="rgb(255,134,134)"/>
<polygon points="241.1,220.1 247.1,220.1 247.1,226.1 241.1,226.1" fill="rgb(255,172,172)"/>
<polygon points="247.1,220.1 253.1,220.1 253.1,226.1 247.1,226.1" fill="rgb(255,146,146)"/>
<polygon points="253.1,220.1 259.1,220.1 259.1,226.1 253.1,226.1" fill="rgb(254,162,162)"/>
<polygon points="142.1,226.1 148.1,226.1 148.1,232.1 142.1,232.1" fill="rgb(0,255,255)"/>
<polygon points="148.1,226.1 154.1,226.1 154.1,232.1 148.1,232.1" fill="rgb(0,255,255)"/>
<polygon points="154.1,226.1 160.1,226.1 160.1,232.1 154.1,232.1" fill="rgb(255,255,255)"/>
<polygon points="160.1,226.1 166.1,226.1 166.1,232.1 160.1,232.1" fill="rgb(255,255,255)"/>
<polygon points="166.1,226.1 172.1,226.1 172.1,232.1 166.1,232.1" fill="rgb(255,255,255)"/>
<polygon points="175.1,226.1 181.1,226.1 181.1,232.1 175.1,232.1" fill="rgb(255,169,169)"/>
<polygon points="181.1,226.1 187.1,226.1 187.1,232.1 181.1,232.1" fill="rgb(255,154,154)"/>
<polygon points="187.1,226.1 193.1,226.1 193.1,232.1 187.1,232.1" fill="rgb(255,145,145)"/>
<polygon points="193.1,226.1 199.1,226.1 199.1,232.1 193.1,232.1" fill="rgb(255,112,112)"/>
<polygon points="199.1,226.1 205.1,226.1 205.1,232.1 199.1,232.1" fill="rgb(255,201,201)"/>
<polygon points="205.1,226.1 211.1,226.1 211.1,232.1 205.1,232.1" fill="rgb(255,204,204)"/>
<polygon points="211.1,226.1 217.1,226.1 217.1,232.1 211.1,232.1" fill="rgb(255,205,205)"/>
<polygon points="217.1,226.1 223.1,226.1 223.1,232.1 217.1,232.1" fill="rgb(255,154,154)"/>
<polygon points="223.1,226.1 229.1,226.1 229.1,232.1 223.1,232.1" fill="rgb(254,181,181)"/>
<polygon points="229.1,226.1 235.1,226.1 235.1,232.1 229.1,232.1" fill="rgb(255,146,146)"/>
<polygon points="235.1,226.1 241.1,226.1 241.1,232.1 235.1,232.1" fill="rgb(255,114,114)"/>
<polygon points="241.1,226.1 247.1,226.1 247.1,232.1 241.1,232.1" fill="rgb(255,152,152)"/>
<polygon points="247.1,226.1 253.1,226.1 253.1,232.1 247.1,232.1" fill="rgb(255,147,147)"/>
<polygon points="253.1,226.1 259.1,226.1 259.1,232.1 253.1,232.1" fill="rgb(255,108,108)"/>
<polygon points="142.1,232.1 148.1,232.1 148.1,238.1 142.1,238.1" fill="rgb(0,255,255)"/>
<polygon points="148.1,232.1 154.1,232.1 154.1,238.1 148.1,238.1" fill="rgb(0,255,255)"/>
<polygon points="154.1,232.1 160.1,232.1 160.1,238.1 154.1,238.1" fill="rgb(255,255,255)"/>
<polygon points="160.1,232.1 166.1,232.1 166.1,238.1 160.1,238.1" fill="rgb(255,255,255)"/>
<polygon points="166.1,232.1 172.1,232.1 172.1,238.1 166.1,238.1" fill="rgb(255,255,255)"/>
<polygon points="175.1,232.1 181.1,232.1 181.1,238.1 175.1,238.1" fill="rgb(255,146,146)"/>
<polygon points="181.1,232.1 187.1,232.1 187.1,238.1 181.1,238.1" fill="rgb(255,135,135)"/>
<polygon points="187.1,232.1 193.1,232.1 193.1,238.1 187.1,238.1" fill="rgb(255,121,121)"/>
<polygon points="193.1,232.1 199.1,232.1 199.1,238.1 193.1,238.1" fill="rgb(255,84,84)"/>
<polygon points="199.1,232.1 205.1,232.1 205.1,238.1 199.1,238.1" fill="rgb(254,197,197)"/>
<polygon points="205.1,232.1 211.1,232.1 211.1,238.1 205.1,238.1" fill="rgb(255,216,216)"/>
<polygon points="211.1,232.1 217.1,232.1 217.1,238.1 211.1,238.1" fill="rgb(255,188,188)"/>
<polygon points="217.1,232.1 223.1,232.1 223.1,238.1 217.1,238.1" fill="rgb(255,158,158)"/>
<polygon points="223.1,232.1 229.1,232.1 229.1,238.1 223.1,238.1" fill="rgb(255,190,190)"/>
<polygon points="229.1,232.1 235.1,232.1 235.1,238.1 229.1,238.1" fill="rgb(255,134,134)"/>
<polygon points="235.1,232.1 241.1,232.1 241.1,238.1 235.1,238.1" fill="rgb(255,75,75)"/>
<polygon points="241.1,232.1 247.1,232.1 247.1,238.1 241.1,238.1" fill="rgb(255,148,148)"/>
<polygon points="247.1,232.1 253.1,232.1 253.1,238.1 247.1,238.1" fill="rgb(255,104,104)"/>
<polygon points="253.1,232.1 259.1,232.1 259.1,238.1 253.1,238.1" fill="rgb(255,75,75)"/>
<polygon points="142.1,238.1 148.1,238.1 148.1,244.1 142.1,244.1" fill="rgb(0,255,255)"/>
<polygon points="148.1,238.1 154.1,238.1 154.1,244.1 148.1,244.1" fill="rgb(0,255,255)"/>
<polygon points="154.1,238.1 160.1,238.1 160.1,244.1 154.1,244.1" fill="rgb(255,255,255)"/>
<polygon points="160.1,238.1 166.1,238.1 166.1,244.1 160.1,244.1" fill="rgb(255,255,255)"/>
<polygon points="166.1,238.1 172.1,238.1 172.1,244.1 166.1,244.1" fill="rgb(255,255,255)"/>
<polygon points="175.1,238.1 181.1,238.1 181.1,244.1 175.1,244.1" fill="rgb(255,134,134)"/>
<polygon points="181.1,238.1 187.1,238.1 187.1,244.1 181.1,244.1" fill="rgb(255,122,122)"/>
<polygon points="187.1,238.1 193.1,238.1 193.1,244.1 187.1,244.1" fill="rgb(255,98,98)"/>
<polygon points="193.1,238.1 199.1,238.1 199.1,244.1 193.1,244.1" fill="rgb(255,53,53)"/>
<polygon points="199.1,238.1 205.1,238.1 205.1,244.1 199.1,244.1" fill="rgb(255,182,182)"/>
<polygon points="205.1,238.1 211.1,238.1 211.1,244.1 205.1,244.1" fill="rgb(255,183,183)"/>
<polygon points="211.1,238.1 217.1,238.1 217.1,244.1 211.1,244.1" fill="rgb(255,159,159)"/>
<polygon points="217.1,238.1 223.1,238.1 223.1,244.1 217.1,244.1" fill="rgb(255,126,126)"/>
<polygon points="223.1,238.1 229.1,238.1 229.1,244.1 223.1,244.1" fill="rgb(255,149,149)"/>
<polygon points="229.1,238.1 235.1,238.1 235.1,244.1 229.1,244.1" fill="rgb(255,110,110)"/>
<polygon points="235.1,238.1 241.1,238.1 241.1,244.1 235.1,244.1" fill="rgb(255,61,61)"/>
<polygon points="241.1,238.1 247.1,238.1 247.1,244.1 241.1,244.1" fill="rgb(255,94,94)"/>
<polygon points="247.1,238.1 253.1,238.1 253.1,244.1 247.1,244.1" fill="rgb(255,76,76)"/>
<polygon points="253.1,238.1 259.1,238.1 259.1,244.1 253.1,244.1" fill="rgb(255,49,49)"/>
<polygon points="142.1,244.1 148.1,244.1 148.1,250.1 142.1,250.1" fill="rgb(0,255,255)"/>
<polygon points="148.1,244.1 154.1,244.1 154.1,250.1 148.1,250.1" fill="rgb(0,255,255)"/>
<polygon points="154.1,244.1 160.1,244.1 160.1,250.1 154.1,250.1" fill="rgb(255,255,255)"/>
<polygon points="160.1,244.1 166.1,244.1 166.1,250.1 160.1,250.1" fill="rgb(255,255,255)"/>
<polygon points="166.1,244.1 172.1,244.1 172.1,250.1 166.1,250.1" fill="rgb(255,255,255)"/>
<polygon points="175.1,244.1 181.1,244.1 181.1,250.1 175.1,250.1" fill="rgb(255,177,177)"/>
<polygon points="181.1,244.1 187.1,244.1 187.1,250.1 181.1,250.1" fill="rgb(255,164,164)"/>
<polygon points="187.1,244.1 193.1,244.1 193.1,250.1 187.1,250.1" fill="rgb(255,159,159)"/>
<polygon points="193.1,244.1 199.1,244.1 199.1,250.1 193.1,250.1" fill="rgb(255,121,121)"/>
<polygon points="199.1,244.1 205.1,244.1 205.1,250.1 199.1,250.1" fill="rgb(255,217,217)"/>
<polygon points="205.1,244.1 211.1,244.1 211.1,250.1 205.1,250.1" fill="rgb(255,234,234)"/>
<polygon points="211.1,244.1 217.1,244.1 217.1,250.1 211.1,250.1" fill="rgb(255,219,219)"/>
<polygon points="217.1,244.1 223.1,244.1 223.1,250.1 217.1,250.1" fill="rgb(255,193,193)"/>
<polygon points="223.1,244.1 229.1,244.1 229.1,250.1 223.1,250.1" fill="rgb(254,212,212)"/>
<polygon points="229.1,244.1 235.1,244.1 235.1,250.1 229.1,250.1" fill="rgb(255,174,174)"/>
<polygon points="235.1,244.1 241.1,244.1 241.1,250.1 235.1,250.1" fill="rgb(255,120,120)"/>
<polygon points="241.1,244.1 247.1,244.1 247.1,250.1 241.1,250.1" fill="rgb(255,171,171)"/>
<polygon points="247.1,244.1 253.1,244.1 253.1,250.1 247.1,250.1" fill="rgb(255,143,143)"/>
<polygon points="253.1,244.1 259.1,244.1 259.1,250.1 253.1,250.1" fill="rgb(255,109,109)"/>
<polygon points="142.1,250.1 148.1,250.1 148.1,256.1 142.1,256.1" fill="rgb(0,255,255)"/>
<polygon points="148.1,250.1 154.1,250.1 154.1,256.1 148.1,256.1" fill="rgb(0,255,255)"/>
<polygon points="154.1,250.1 160.1,250.1 160.1,256.1 154.1,256.1" fill="rgb(255,255,255)"/>
<polygon points="160.1,250.1 166.1,250.1 166.1,256.1 160.1,256.1" fill="rgb(255,255,255)"/>
<polygon points="166.1,250.1 172.1,250.1 172.1,256.1 166.1,256.1" fill="rgb(255,255,255)"/>
<polygon points="175.1,250.1 181.1,250.1 181.1,256.1 175.1,256.1" fill="rgb(255,178,178)"/>
<polygon points="181.1,250.1 187.1,250.1 187.1,256.1 181.1,256.1" fill="rgb(255,165,165)"/>
<polygon points="187.1,250.1 193.1,250.1 193.1,256.1 187.1,256.1" fill="rgb(255,136,136)"/>
<polygon points="193.1,250.1 199.1,250.1 199.1,256.1 193.1,256.1" fill="rgb(255,92,92)"/>
<polygon points="199.1,250.1 205.1,250.1 205.1,256.1 199.1,256.1" fill="rgb(255,194,194)"/>
<polygon points="205.1,250.1 211.1,250.1 211.1,256.1 205.1,256.1" fill="rgb(255,217,217)"/>
<polygon points="211.1,250.1 217.1,250.1 217.1,256.1 211.1,256.1" fill="rgb(255,202,202)"/>
<polygon points="217.1,250.1 223.1,250.1 223.1,256.1 217.1,256.1" fill="rgb(255,171,171)"/>
<polygon points="223.1,250.1 229.1,250.1 229.1,256.1 223.1,256.1" fill="rgb(255,188,188)"/>
<polygon points="229.1,250.1 235.1,250.1 235.1,256.1 229.1,256.1" fill="rgb(255,155,155)"/>
<polygon points="235.1,250.1 241.1,250.1 241.1,256.1 235.1,256.1" fill="rgb(255,88,88)"/>
<polygon points="241.1,250.1 247.1,250.1 247.1,256.1 241.1,256.1" fill="rgb(255,125,125)"/>
<polygon points="247.1,250.1 253.1,250.1 253.1,256.1 247.1,256.1" fill="rgb(255,128,128)"/>
<polygon points="253.1,250.1 259.1,250.1 259.1,256.1 253.1,256.1" fill="rgb(255,94,94)"/>
<polygon points="142.1,256.1 148.1,256.1 148.1,262.1 142.1,262.1" fill="rgb(0,255,255)"/>
<polygon points="148.1,256.1 154.1,256.1 154.1,262.1 148.1,262.1" fill="rgb(0,255,255)"/>
<polygon points="154.1,256.1 160.1,256.1 160.1,262.1 154.1,262.1" fill="rgb(255,255,255)"/>
<polygon points="160.1,256.1 166.1,256.1 166.1,262.1 160.1,262.1" fill="rgb(255,255,255)"/>
<polygon points="166.1,256.1 172.1,256.1 172.1,262.1 166.1,262.1" fill="rgb(255,255,255)"/>
<polygon points="175.1,256.1 181.1,256.1 181.1,262.1 175.1,262.1" fill="rgb(255,64,64)"/>
<polygon points="181.1,256.1 187.1,256.1 187.1,262.1 181.1,262.1" fill="rgb(255,58,58)"/>
<polygon points="187.1,256.1 193.1,256.1 193.1,262.1 187.1,262.1" fill="rgb(255,24,24)"/>
<polygon points="193.1,256.1 199.1,256.1 199.1,262.1 193.1,262.1" fill="rgb(254,0,0)"/>
<polygon points="199.1,256.1 205.1,256.1 205.1,262.1 199.1,262.1" fill="rgb(255,94,94)"/>
<polygon points="205.1,256.1 211.1,256.1 211.1,262.1 205.1,262.1" fill="rgb(255,119,119)"/>
<polygon points="211.1,256.1 217.1,256.1 217.1,262.1 211.1,262.1" fill="rgb(255,98,98)"/>
<polygon points="217.1,256.1 223.1,256.1 223.1,262.1 217.1,262.1" fill="rgb(255,67,67)"/>
<polygon points="223.1,256.1 229.1,256.1 229.1,262.1 223.1,262.1" fill="rgb(255,84,84)"/>
<polygon points="229.1,256.1 235.1,256.1 235.1,262.1 229.1,262.1" fill="rgb(255,29,29)"/>
<polygon points="235.1,256.1 241.1,256.1 241.1,262.1 235.1,262.1" fill="rgb(255,6,6)"/>
<polygon points="241.1,256.1 247.1,256.1 247.1,262.1 241.1,262.1" fill="rgb(255,36,36)"/>
<polygon points="247.1,256.1 253.1,256.1 253.1,262.1 247.1,262.1" fill="rgb(255,13,13)"/>
<polygon points="253.1,256.1 259.1,256.1 259.1,262.1 253.1,262.1" fill="rgb(245,0,0)"/>
<polygon points="142.1,262.1 148.1,262.1 148.1,268.1 142.1,268.1" fill="rgb(0,255,255)"/>
<polygon points="148.1,262.1 154.1,262.1 154.1,268.1 148.1,268.1" fill="rgb(0,255,255)"/>
<polygon points="154.1,262.1 160.1,262.1 160.1,268.1 154.1,268.1" fill="rgb(0,255,255)"/>
<polygon points="160.1,262.1 166.1,262.1 166.1,268.1 160.1,268.1" fill="rgb(255,255,255)"/>
<polygon points="166.1,262.1 172.1,262.1 172.1,268.1 166.1,268.1" fill="rgb(255,255,255)"/>
<polygon points="175.1,262.1 181.1,262.1 181.1,268.1 175.1,268.1" fill="rgb(255,173,173)"/>
<polygon points="181.1,262.1 187.1,262.1 187.1,268.1 181.1,268.1" fill="rgb(254,157,157)"/>
<polygon points="187.1,262.1 193.1,262.1 193.1,268.1 187.1,268.1" fill="rgb(255,133,133)"/>
<polygon points="193.1,262.1 199.1,262.1 199.1,268.1 193.1,268.1" fill="rgb(255,88,88)"/>
<polygon points="199.1,262.1 205.1,262.1 205.1,268.1 199.1,268.1" fill="rgb(255,198,198)"/>
<polygon points="205.1,262.1 211.1,262.1 211.1,268.1 205.1,268.1" fill="rgb(255,211,211)"/>
<polygon points="211.1,262.1 217.1,262.1 217.1,268.1 211.1,268.1" fill="rgb(255,186,186)"/>
<polygon points="217.1,262.1 223.1,262.1 223.1,268.1 217.1,268.1" fill="rgb(255,163,163)"/>
<polygon points="223.1,262.1 229.1,262.1 229.1,268.1 223.1,268.1" fill="rgb(255,179,179)"/>
<polygon points="229.1,262.1 235.1,262.1 235.1,268.1 229.1,268.1" fill="rgb(255,139,139)"/>
<polygon points="235.1,262.1 241.1,262.1 241.1,268.1 235.1,268.1" fill="rgb(255,97,97)"/>
<polygon points="241.1,262.1 247.1,262.1 247.1,268.1 241.1,268.1" fill="rgb(255,128,128)"/>
<polygon points="247.1,262.1 253.1,262.1 253.1,268.1 247.1,268.1" fill="rgb(255,107,107)"/>
<polygon points="253.1,262.1 259.1,262.1 259.1,268.1 253.1,268.1" fill="rgb(255,67,67)"/>
<polygon points="142.1,268.1 148.1,268.1 148.1,274.1 142.1,274.1" fill="rgb(0,255,255)"/>
<polygon points="148.1,268.1 154.1,268.1 154.1,274.1 148.1,274.1" fill="rgb(0,255,255)"/>
<polygon points="154.1,268.1 160.1,268.1 160.1,274.1 154.1,274.1" fill="rgb(0,255,255)"/>
<polygon points="160.1,268.1 166.1,268.1 166.1,274.1 160.1,274.1" fill="rgb(255,255,255)"/>
<polygon points="166.1,268.1 172.1,268.1 172.1,274.1 166.1,274.1" fill="rgb(255,255,255)"/>
<polygon points="175.1,268.1 181.1,268.1 181.1,274.1 175.1,274.1" fill="rgb(255,107,107)"/>
<polygon points="181.1,268.1 187.1,268.1 187.1,274.1 181.1,274.1" fill="rgb(255,92,92)"/>
<polygon points="187.1,268.1 193.1,268.1 193.1,274.1 187.1,274.1" fill="rgb(255,58,58)"/>
<polygon points="193.1,268.1 199.1,268.1 199.1,274.1 193.1,274.1" fill="rgb(244,0,0)"/>
<polygon points="199.1,268.1 205.1,268.1 205.1,274.1 199.1,274.1" fill="rgb(255,171,171)"/>
<polygon points="205.1,268.1 211.1,268.1 211.1,274.1 205.1,274.1" fill="rgb(255,204,204)"/>
<polygon points="211.1,268.1 217.1,268.1 217.1,274.1 211.1,274.1" fill="rgb(255,181,181)"/>
<polygon points="217.1,268.1 223.1,268.1 223.1,274.1 217.1,274.1" fill="rgb(255,135,135)"/>
<polygon points="223.1,268.1 229.1,268.1 229.1,274.1 223.1,274.1" fill="rgb(254,170,170)"/>
<polygon points="229.1,268.1 235.1,268.1 235.1,274.1 229.1,274.1" fill="rgb(255,86,86)"/>
<polygon points="235.1,268.1 241.1,268.1 241.1,274.1 235.1,274.1" fill="rgb(255,1,1)"/>
<polygon points="241.1,268.1 247.1,268.1 247.1,274.1 241.1,274.1" fill="rgb(255,92,92)"/>
<polygon points="247.1,268.1 253.1,268.1 253.1,274.1 247.1,274.1" fill="rgb(255,61,61)"/>
<polygon points="253.1,268.1 259.1,268.1 259.1,274.1 253.1,274.1" fill="rgb(255,18,18)"/>
<polygon points="142.1,274.1 148.1,274.1 148.1,280.1 142.1,280.1" fill="rgb(0,255,255)"/>
<polygon points="148.1,274.1 154.1,274.1 154.1,280.1 148.1,280.1" fill="rgb(255,255,255)"/>
<polygon points="154.1,274.1 160.1,274.1 160.1,280.1 154.1,280.1" fill="rgb(0,255,255)"/>
<polygon points="160.1,274.1 166.1,274.1 166.1,280.1 160.1,280.1" fill="rgb(255,255,255)"/>
<polygon points="166.1,274.1 172.1,274.1 172.1,280.1 166.1,280.1" fill="rgb(255,255,255)"/>
<polygon points="175.1,274.1 181.1,274.1 181.1,280.1 175.1,280.1" fill="rgb(255,146,146)"/>
<polygon points="181.1,274.1 187.1,274.1 187.1,280.1 181.1,280.1" fill="rgb(254,137,137)"/>
<polygon points="187.1,274.1 193.1,274.1 193.1,280.1 187.1,280.1" fill="rgb(255,136,136)"/>
<polygon points="193.1,274.1 199.1,274.1 199.1,280.1 193.1,280.1" fill="rgb(255,109,109)"/>
<polygon points="199.1,274.1 205.1,274.1 205.1,280.1 199.1,280.1" fill="rgb(255,191,191)"/>
<polygon points="205.1,274.1 211.1,274.1 211.1,280.1 205.1,280.1" fill="rgb(255,215,215)"/>
<polygon points="211.1,274.1 217.1,274.1 217.1,280.1 211.1,280.1" fill="rgb(255,215,215)"/>
<polygon points="217.1,274.1 223.1,274.1 223.1,280.1 217.1,280.1" fill="rgb(255,177,177)"/>
<polygon points="223.1,274.1 229.1,274.1 229.1,280.1 223.1,280.1" fill="rgb(255,203,203)"/>
<polygon points="229.1,274.1 235.1,274.1 235.1,280.1 229.1,280.1" fill="rgb(255,172,172)"/>
<polygon points="235.1,274.1 241.1,274.1 241.1,280.1 235.1,280.1" fill="rgb(255,127,127)"/>
<polygon points="241.1,274.1 247.1,274.1 247.1,280.1 241.1,280.1" fill="rgb(255,147,147)"/>
<polygon points="247.1,274.1 253.1,274.1 253.1,280.1 247.1,280.1" fill="rgb(255,144,144)"/>
<polygon points="253.1,274.1 259.1,274.1 259.1,280.1 253.1,280.1" fill="rgb(255,96,96)"/>
<polygon points="142.1,280.1 148.1,280.1 148.1,286.1 142.1,286.1" fill="rgb(0,255,255)"/>
<polygon points="148.1,280.1 154.1,280.1 154.1,286.1 148.1,286.1" fill="rgb(255,255,255)"/>
<polygon points="154.1,280.1 160.1,280.1 160.1,286.1 154.1,286.1" fill="rgb(0,255,255)"/>
<polygon points="160.1,280.1 166.1,280.1 166.1,286.1 160.1,286.1" fill="rgb(255,255,255)"/>
<polygon points="166.1,280.1 172.1,280.1 172.1,286.1 166.1,286.1" fill="rgb(255,255,255)"/>
<polygon points="175.1,280.1 181.1,280.1 181.1,286.1 175.1,286.1" fill="rgb(255,22,22)"/>
<polygon points="181.1,280.1 187.1,280.1 187.1,286.1 181.1,286.1" fill="rgb(255,2,2)"/>
<polygon points="187.1,280.1 193.1,280.1 193.1,286.1 187.1,286.1" fill="rgb(239,0,0)"/>
<polygon points="193.1,280.1 199.1,280.1 199.1,286.1 193.1,286.1" fill="rgb(226,0,0)"/>
<polygon points="199.1,280.1 205.1,280.1 205.1,286.1 199.1,286.1" fill="rgb(255,43,43)"/>
<polygon points="205.1,280.1 211.1,280.1 211.1,286.1 205.1,286.1" fill="rgb(255,73,73)"/>
<polygon points="211.1,280.1 217.1,280.1 217.1,286.1 211.1,286.1" fill="rgb(255,0,0)"/>
<polygon points="217.1,280.1 223.1,280.1 223.1,286.1 217.1,286.1" fill="rgb(248,0,0)"/>
<polygon points="223.1,280.1 229.1,280.1 229.1,286.1 223.1,286.1" fill="rgb(255,5,5)"/>
<polygon points="229.1,280.1 235.1,280.1 235.1,286.1 229.1,286.1" fill="rgb(251,0,0)"/>
<polygon points="235.1,280.1 241.1,280.1 241.1,286.1 235.1,286.1" fill="rgb(224,0,0)"/>
<polygon points="241.1,280.1 247.1,280.1 247.1,286.1 241.1,286.1" fill="rgb(222,0,0)"/>
<polygon points="247.1,280.1 253.1,280.1 253.1,286.1 247.1,286.1" fill="rgb(229,0,0)"/>
<polygon points="253.1,280.1 259.1,280.1 259.1,286.1 253.1,286.1" fill="rgb(200,0,0)"/>
<polygon points="142.1,286.1 148.1,286.1 148.1,292.1 142.1,292.1" fill="rgb(0,255,255)"/>
<polygon points="148.1,286.1 154.1,286.1 154.1,292.1 148.1,292.1" fill="rgb(255,255,255)"/>
<polygon points="154.1,286.1 160.1,286.1 160.1,292.1 154.1,292.1" fill="rgb(255,255,255)"/>
<polygon points="160.1,286.1 166.1,286.1 166.1,292.1 160.1,292.1" fill="rgb(255,255,255)"/>
<polygon points="166.1,286.1 172.1,286.1 172.1,292.1 166.1,292.1" fill="rgb(255,255,255)"/>
<polygon points="175.1,286.1 181.1,286.1 181.1,292.1 175.1,292.1" fill="rgb(254,211,211)"/>
<polygon points="181.1,286.1 187.1,286.1 187.1,292.1 181.1,292.1" fill="rgb(255,201,201)"/>
<polygon points="187.1,286.1 193.1,286.1 193.1,292.1 187.1,292.1" fill="rgb(255,205,205)"/>
<polygon points="193.1,286.1 199.1,286.1 199.1,292.1 193.1,292.1" fill="rgb(255,162,162)"/>
<polygon points="199.1,286.1 205.1,286.1 205.1,292.1 199.1,292.1" fill="rgb(255,246,246)"/>
<polygon points="205.1,286.1 211.1,286.1 211.1,292.1 205.1,292.1" fill="rgb(255,246,246)"/>
<polygon points="211.1,286.1 217.1,286.1 217.1,292.1 211.1,292.1" fill="rgb(255,252,252)"/>
<polygon points="217.1,286.1 223.1,286.1 223.1,292.1 217.1,292.1" fill="rgb(255,233,233)"/>
<polygon points="223.1,286.1 229.1,286.1 229.1,292.1 223.1,292.1" fill="rgb(255,245,245)"/>
<polygon points="229.1,286.1 235.1,286.1 235.1,292.1 229.1,292.1" fill="rgb(255,210,210)"/>
<polygon points="235.1,286.1 241.1,286.1 241.1,292.1 235.1,292.1" fill="rgb(255,177,177)"/>
<polygon points="241.1,286.1 247.1,286.1 247.1,292.1 241.1,292.1" fill="rgb(255,232,232)"/>
<polygon points="247.1,286.1 253.1,286.1 253.1,292.1 247.1,292.1" fill="rgb(255,217,217)"/>
<polygon points="253.1,286.1 259.1,286.1 259.1,292.1 253.1,292.1" fill="rgb(255,200,200)"/>
<polygon points="142.1,292.1 148.1,292.1 148.1,298.1 142.1,298.1" fill="rgb(0,255,255)"/>
<polygon points="148.1,292.1 154.1,292.1 154.1,298.1 148.1,298.1" fill="rgb(255,255,255)"/>
<polygon points="154.1,292.1 160.1,292.1 160.1,298.1 154.1,298.1" fill="rgb(255,255,255)"/>
<polygon points="160.1,292.1 166.1,292.1 166.1,298.1 160.1,298.1" fill="rgb(255,255,255)"/>
<polygon points="166.1,292.1 172.1,292.1 172.1,298.1 166.1,298.1" fill="rgb(255,255,255)"/>
<polygon points="175.1,292.1 181.1,292.1 181.1,298.1 175.1,298.1" fill="rgb(255,171,171)"/>
<polygon points="181.1,292.1 187.1,292.1 187.1,298.1 181.1,298.1" fill="rgb(255,149,149)"/>
<polygon points="187.1,292.1 193.1,292.1 193.1,298.1 187.1,298.1" fill="rgb(255,165,165)"/>
<polygon points="193.1,292.1 199.1,292.1 199.1,298.1 193.1,298.1" fill="rgb(255,136,136)"/>
<polygon points="199.1,292.1 205.1,292.1 205.1,298.1 199.1,298.1" fill="rgb(254,230,230)"/>
<polygon points="205.1,292.1 211.1,292.1 211.1,298.1 205.1,298.1" fill="rgb(255,230,230)"/>
<polygon points="211.1,292.1 217.1,292.1 217.1,298.1 211.1,298.1" fill="rgb(255,243,243)"/>
<polygon points="217.1,292.1 223.1,292.1 223.1,298.1 217.1,298.1" fill="rgb(255,218,218)"/>
<polygon points="223.1,292.1 229.1,292.1 229.1,298.1 223.1,298.1" fill="rgb(255,233,233)"/>
<polygon points="229.1,292.1 235.1,292.1 235.1,298.1 229.1,298.1" fill="rgb(255,200,200)"/>
<polygon points="235.1,292.1 241.1,292.1 241.1,298.1 235.1,298.1" fill="rgb(254,146,146)"/>
<polygon points="241.1,292.1 247.1,292.1 247.1,298.1 241.1,298.1" fill="rgb(255,206,206)"/>
<polygon points="247.1,292.1 253.1,292.1 253.1,298.1 247.1,298.1" fill="rgb(255,179,179)"/>
<polygon points="253.1,292.1 259.1,292.1 259.1,298.1 253.1,298.1" fill="rgb(255,136,136)"/>
<polygon points="142.1,298.1 148.1,298.1 148.1,304.1 142.1,304.1" fill="rgb(0,255,255)"/>
<polygon points="148.1,298.1 154.1,298.1 154.1,304.1 148.1,304.1" fill="rgb(255,255,255)"/>
<polygon points="154.1,298.1 160.1,298.1 160.1,304.1 154.1,304.1" fill="rgb(255,255,255)"/>
<polygon points="160.1,298.1 166.1,298.1 166.1,304.1 160.1,304.1" fill="rgb(255,255,255)"/>
<polygon points="166.1,298.1 172.1,298.1 172.1,304.1 166.1,304.1" fill="rgb(255,255,255)"/>
<polygon points="175.1,298.1 181.1,298.1 181.1,304.1 175.1,304.1" fill="rgb(255,163,163)"/>
<polygon points="181.1,298.1 187.1,298.1 187.1,304.1 181.1,304.1" fill="rgb(255,144,144)"/>
<polygon points="187.1,298.1 193.1,298.1 193.1,304.1 187.1,304.1" fill="rgb(255,148,148)"/>
<polygon points="193.1,298.1 199.1,298.1 199.1,304.1 193.1,304.1" fill="rgb(255,122,122)"/>
<polygon points="199.1,298.1 205.1,298.1 205.1,304.1 199.1,304.1" fill="rgb(255,214,214)"/>
<polygon points="205.1,298.1 211.1,298.1 211.1,304.1 205.1,304.1" fill="rgb(255,218,218)"/>
<polygon points="211.1,298.1 217.1,298.1 217.1,304.1 211.1,304.1" fill="rgb(255,230,230)"/>
<polygon points="217.1,298.1 223.1,298.1 223.1,304.1 217.1,304.1" fill="rgb(255,192,192)"/>
<polygon points="223.1,298.1 229.1,298.1 229.1,304.1 223.1,304.1" fill="rgb(255,215,215)"/>
<polygon points="229.1,298.1 235.1,298.1 235.1,304.1 229.1,304.1" fill="rgb(255,182,182)"/>
<polygon points="235.1,298.1 241.1,298.1 241.1,304.1 235.1,304.1" fill="rgb(255,138,138)"/>
<polygon points="241.1,298.1 247.1,298.1 247.1,304.1 241.1,304.1" fill="rgb(255,185,185)"/>
<polygon points="247.1,298.1 253.1,298.1 253.1,304.1 247.1,304.1" fill="rgb(255,179,179)"/>
<polygon points="253.1,298.1 259.1,298.1 259.1,304.1 253.1,304.1" fill="rgb(255,126,126)"/>
<polygon points="142.1,304.1 148.1,304.1 148.1,310.1 142.1,310.1" fill="rgb(0,255,255)"/>
<polygon points="148.1,304.1 154.1,304.1 154.1,310.1 148.1,310.1" fill="rgb(255,255,255)"/>
<polygon points="154.1,304.1 160.1,304.1 160.1,310.1 154.1,310.1" fill="rgb(255,255,255)"/>
<polygon points="160.1,304.1 166.1,304.1 166.1,310.1 160.1,310.1" fill="rgb(255,255,255)"/>
<polygon points="166.1,304.1 172.1,304.1 172.1,310.1 166.1,310.1" fill="rgb(255,255,255)"/>
<polygon points="175.1,304.1 181.1,304.1 181.1,310.1 175.1,310.1" fill="rgb(255,212,212)"/>
<polygon points="181.1,304.1 187.1,304.1 187.1,310.1 181.1,310.1" fill="rgb(255,193,193)"/>
<polygon points="187.1,304.1 193.1,304.1 193.1,310.1 187.1,310.1" fill="rgb(255,183,183)"/>
<polygon points="193.1,304.1 199.1,304.1 199.1,310.1 193.1,310.1" fill="rgb(255,159,159)"/>
<polygon points="199.1,304.1 205.1,304.1 205.1,310.1 199.1,310.1" fill="rgb(255,227,227)"/>
<polygon points="205.1,304.1 211.1,304.1 211.1,310.1 205.1,310.1" fill="rgb(255,235,235)"/>
<polygon points="211.1,304.1 217.1,304.1 217.1,310.1 211.1,310.1" fill="rgb(255,235,235)"/>
<polygon points="217.1,304.1 223.1,304.1 223.1,310.1 217.1,310.1" fill="rgb(255,220,220)"/>
<polygon points="223.1,304.1 229.1,304.1 229.1,310.1 223.1,310.1" fill="rgb(255,227,227)"/>
<polygon points="229.1,304.1 235.1,304.1 235.1,310.1 229.1,310.1" fill="rgb(255,195,195)"/>
<polygon points="235.1,304.1 241.1,304.1 241.1,310.1 235.1,310.1" fill="rgb(255,156,156)"/>
<polygon points="241.1,304.1 247.1,304.1 247.1,310.1 241.1,310.1" fill="rgb(255,207,207)"/>
<polygon points="247.1,304.1 253.1,304.1 253.1,310.1 247.1,310.1" fill="rgb(255,184,184)"/>
<polygon points="253.1,304.1 259.1,304.1 259.1,310.1 253.1,310.1" fill="rgb(255,150,150)"/>
<polygon points="142.1,310.1 148.1,310.1 148.1,316.1 142.1,316.1" fill="rgb(0,255,255)"/>
<polygon points="148.1,310.1 154.1,310.1 154.1,316.1 148.1,316.1" fill="rgb(255,255,255)"/>
<polygon points="154.1,310.1 160.1,310.1 160.1,316.1 154.1,316.1" fill="rgb(255,255,255)"/>
<polygon points="160.1,310.1 166.1,310.1 166.1,316.1 160.1,316.1" fill="rgb(255,255,255)"/>
<polygon points="166.1,310.1 172.1,310.1 172.1,316.1 166.1,316.1" fill="rgb(255,255,255)"/>
<polygon points="175.1,310.1 181.1,310.1 181.1,316.1 175.1,316.1" fill="rgb(255,202,202)"/>
<polygon points="181.1,310.1 187.1,310.1 187.1,316.1 181.1,316.1" fill="rgb(255,189,189)"/>
<polygon points="187.1,310.1 193.1,310.1 193.1,316.1 187.1,316.1" fill="rgb(255,195,195)"/>
<polygon points="193.1,310.1 199.1,310.1 199.1,316.1 193.1,316.1" fill="rgb(255,168,168)"/>
<polygon points="199.1,310.1 205.1,310.1 205.1,316.1 199.1,316.1" fill="rgb(255,235,235)"/>
<polygon points="205.1,310.1 211.1,310.1 211.1,316.1 205.1,316.1" fill="rgb(255,234,234)"/>
<polygon points="211.1,310.1 217.1,310.1 217.1,316.1 211.1,316.1" fill="rgb(254,246,246)"/>
<polygon points="217.1,310.1 223.1,310.1 223.1,316.1 217.1,316.1" fill="rgb(255,215,215)"/>
<polygon points="223.1,310.1 229.1,310.1 229.1,316.1 223.1,316.1" fill="rgb(255,226,226)"/>
<polygon points="229.1,310.1 235.1,310.1 235.1,316.1 229.1,316.1" fill="rgb(255,206,206)"/>
<polygon points="235.1,310.1 241.1,310.1 241.1,316.1 235.1,316.1" fill="rgb(255,171,171)"/>
<polygon points="241.1,310.1 247.1,310.1 247.1,316.1 241.1,316.1" fill="rgb(255,209,209)"/>
<polygon points="247.1,310.1 253.1,310.1 253.1,316.1 247.1,316.1" fill="rgb(255,201,201)"/>
<polygon points="253.1,310.1 259.1,310.1 259.1,316.1 253.1,316.1" fill="rgb(255,136,136)"/>
<polygon points="142.1,316.1 148.1,316.1 148.1,322.1 142.1,322.1" fill="rgb(0,255,255)"/>
<polygon points="148.1,316.1 154.1,316.1 154.1,322.1 148.1,322.1" fill="rgb(255,255,255)"/>
<polygon points="154.1,316.1 160.1,316.1 160.1,322.1 154.1,322.1" fill="rgb(255,255,255)"/>
<polygon points="160.1,316.1 166.1,316.1 166.1,322.1 160.1,322.1" fill="rgb(255,255,255)"/>
<polygon points="166.1,316.1 172.1,316.1 172.1,322.1 166.1,322.1" fill="rgb(255,255,255)"/>
<polygon points="175.1,316.1 181.1,316.1 181.1,322.1 175.1,322.1" fill="rgb(254,214,214)"/>
<polygon points="181.1,316.1 187.1,316.1 187.1,322.1 181.1,322.1" fill="rgb(255,207,207)"/>
<polygon points="187.1,316.1 193.1,316.1 193.1,322.1 187.1,322.1" fill="rgb(255,217,217)"/>
<polygon points="193.1,316.1 199.1,316.1 199.1,322.1 193.1,322.1" fill="rgb(255,191,191)"/>
<polygon points="199.1,316.1 205.1,316.1 205.1,322.1 199.1,322.1" fill="rgb(255,246,246)"/>
<polygon points="205.1,316.1 211.1,316.1 211.1,322.1 205.1,322.1" fill="rgb(255,250,250)"/>
<polygon points="211.1,316.1 217.1,316.1 217.1,322.1 211.1,322.1" fill="rgb(255,251,251)"/>
<polygon points="217.1,316.1 223.1,316.1 223.1,322.1 217.1,322.1" fill="rgb(255,232,232)"/>
<polygon points="223.1,316.1 229.1,316.1 229.1,322.1 223.1,322.1" fill="rgb(254,249,249)"/>
<polygon points="229.1,316.1 235.1,316.1 235.1,322.1 229.1,322.1" fill="rgb(255,226,226)"/>
<polygon points="235.1,316.1 241.1,316.1 241.1,322.1 235.1,322.1" fill="rgb(255,208,208)"/>
<polygon points="241.1,316.1 247.1,316.1 247.1,322.1 241.1,322.1" fill="rgb(255,237,237)"/>
<polygon points="247.1,316.1 253.1,316.1 253.1,322.1 247.1,322.1" fill="rgb(255,230,230)"/>
<polygon points="253.1,316.1 259.1,316.1 259.1,322.1 253.1,322.1" fill="rgb(254,183,183)"/>
<polygon points="142.1,322.1 148.1,322.1 148.1,328.1 142.1,328.1" fill="rgb(0,255,255)"/>
<polygon points="148.1,322.1 154.1,322.1 154.1,328.1 148.1,328.1" fill="rgb(255,255,255)"/>
<polygon points="154.1,322.1 160.1,322.1 160.1,328.1 154.1,328.1" fill="rgb(255,255,255)"/>
<polygon points="160.1,322.1 166.1,322.1 166.1,328.1 160.1,328.1" fill="rgb(255,255,255)"/>
<polygon points="166.1,322.1 172.1,322.1 172.1,328.1 166.1,328.1" fill="rgb(255,255,255)"/>
<polygon points="175.1,322.1 181.1,322.1 181.1,328.1 175.1,328.1" fill="rgb(254,138,138)"/>
<polygon points="181.1,322.1 187.1,322.1 187.1,328.1 181.1,328.1" fill="rgb(255,121,121)"/>
<polygon points="187.1,322.1 193.1,322.1 193.1,328.1 187.1,328.1" fill="rgb(255,125,125)"/>
<polygon points="193.1,322.1 199.1,322.1 199.1,328.1 193.1,328.1" fill="rgb(255,71,71)"/>
<polygon points="199.1,322.1 205.1,322.1 205.1,328.1 199.1,328.1" fill="rgb(255,170,170)"/>
<polygon points="205.1,322.1 211.1,322.1 211.1,328.1 205.1,328.1" fill="rgb(255,189,189)"/>
<polygon points="211.1,322.1 217.1,322.1 217.1,328.1 211.1,328.1" fill="rgb(255,194,194)"/>
<polygon points="217.1,322.1 223.1,322.1 223.1,328.1 217.1,328.1" fill="rgb(255,160,160)"/>
<polygon points="223.1,322.1 229.1,322.1 229.1,328.1 223.1,328.1" fill="rgb(255,181,181)"/>
<polygon points="229.1,322.1 235.1,322.1 235.1,328.1 229.1,328.1" fill="rgb(255,125,125)"/>
<polygon points="235.1,322.1 241.1,322.1 241.1,328.1 235.1,328.1" fill="rgb(255,72,72)"/>
<polygon points="241.1,322.1 247.1,322.1 247.1,328.1 241.1,328.1" fill="rgb(255,146,146)"/>
<polygon points="247.1,322.1 253.1,322.1 253.1,328.1 247.1,328.1" fill="rgb(255,124,124)"/>
<polygon points="253.1,322.1 259.1,322.1 259.1,328.1 253.1,328.1" fill="rgb(255,118,118)"/>
<polygon points="142.1,328.1 148.1,328.1 148.1,334.1 142.1,334.1" fill="rgb(0,255,255)"/>
<polygon points="148.1,328.1 154.1,328.1 154.1,334.1 148.1,334.1" fill="rgb(255,255,255)"/>
<polygon points="154.1,328.1 160.1,328.1 160.1,334.1 154.1,334.1" fill="rgb(255,255,255)"/>
<polygon points="160.1,328.1 166.1,328.1 166.1,334.1 160.1,334.1" fill="rgb(255,255,255)"/>
<polygon points="166.1,328.1 172.1,328.1 172.1,334.1 166.1,334.1" fill="rgb(255,255,255)"/>
<polygon points="175.1,328.1 181.1,328.1 181.1,334.1 175.1,334.1" fill="rgb(255,182,182)"/>
<polygon points="181.1,328.1 187.1,328.1 187.1,334.1 181.1,334.1" fill="rgb(255,173,173)"/>
<polygon points="187.1,328.1 193.1,328.1 193.1,334.1 187.1,334.1" fill="rgb(255,165,165)"/>
<polygon points="193.1,328.1 199.1,328.1 199.1,334.1 193.1,334.1" fill="rgb(255,149,149)"/>
<polygon points="199.1,328.1 205.1,328.1 205.1,334.1 199.1,334.1" fill="rgb(255,226,226)"/>
<polygon points="205.1,328.1 211.1,328.1 211.1,334.1 205.1,334.1" fill="rgb(255,224,224)"/>
<polygon points="211.1,328.1 217.1,328.1 217.1,334.1 211.1,334.1" fill="rgb(255,209,209)"/>
<polygon points="217.1,328.1 223.1,328.1 223.1,334.1 217.1,334.1" fill="rgb(255,178,178)"/>
<polygon points="223.1,328.1 229.1,328.1 229.1,334.1 223.1,334.1" fill="rgb(255,204,204)"/>
<polygon points="229.1,328.1 235.1,328.1 235.1,334.1 229.1,334.1" fill="rgb(255,182,182)"/>
<polygon points="235.1,328.1 241.1,328.1 241.1,334.1 235.1,334.1" fill="rgb(255,145,145)"/>
<polygon points="241.1,328.1 247.1,328.1 247.1,334.1 241.1,334.1" fill="rgb(255,176,176)"/>
<polygon points="247.1,328.1 253.1,328.1 253.1,334.1 247.1,334.1" fill="rgb(255,154,154)"/>
<polygon points="253.1,328.1 259.1,328.1 259.1,334.1 253.1,334.1" fill="rgb(255,123,123)"/>
<polygon points="142.1,334.1 148.1,334.1 148.1,340.1 142.1,340.1" fill="rgb(0,255,255)"/>
<polygon points="148.1,334.1 154.1,334.1 154.1,340.1 148.1,340.1" fill="rgb(255,255,255)"/>
<polygon points="154.1,334.1 160.1,334.1 160.1,340.1 154.1,340.1" fill="rgb(255,255,255)"/>
<polygon points="160.1,334.1 166.1,334.1 166.1,340.1 160.1,340.1" fill="rgb(255,255,255)"/>
<polygon points="166.1,334.1 172.1,334.1 172.1,340.1 166.1,340.1" fill="rgb(255,255,255)"/>
<polygon points="175.1,334.1 181.1,334.1 181.1,340.1 175.1,340.1" fill="rgb(255,106,106)"/>
<polygon points="181.1,334.1 187.1,334.1 187.1,340.1 181.1,340.1" fill="rgb(255,82,82)"/>
<polygon points="187.1,334.1 193.1,334.1 193.1,340.1 187.1,340.1" fill="rgb(255,87,87)"/>
<polygon points="193.1,334.1 199.1,334.1 199.1,340.1 193.1,340.1" fill="rgb(255,46,46)"/>
<polygon points="199.1,334.1 205.1,334.1 205.1,340.1 199.1,340.1" fill="rgb(255,173,173)"/>
<polygon points="205.1,334.1 211.1,334.1 211.1,340.1 205.1,340.1" fill="rgb(255,175,175)"/>
<polygon points="211.1,334.1 217.1,334.1 217.1,340.1 211.1,340.1" fill="rgb(255,202,202)"/>
<polygon points="217.1,334.1 223.1,334.1 223.1,340.1 217.1,340.1" fill="rgb(255,138,138)"/>
<polygon points="223.1,334.1 229.1,334.1 229.1,340.1 223.1,340.1" fill="rgb(255,172,172)"/>
<polygon points="229.1,334.1 235.1,334.1 235.1,340.1 229.1,340.1" fill="rgb(255,133,133)"/>
<polygon points="235.1,334.1 241.1,334.1 241.1,340.1 235.1,340.1" fill="rgb(255,71,71)"/>
<polygon points="241.1,334.1 247.1,334.1 247.1,340.1 241.1,340.1" fill="rgb(255,127,127)"/>
<polygon points="247.1,334.1 253.1,334.1 253.1,340.1 247.1,340.1" fill="rgb(255,118,118)"/>
<polygon points="253.1,334.1 259.1,334.1 259.1,340.1 253.1,340.1" fill="rgb(255,60,60)"/>
<polygon points="142.1,340.1 148.1,340.1 148.1,346.1 142.1,346.1" fill="rgb(0,255,255)"/>
<polygon points="148.1,340.1 154.1,340.1 154.1,346.1 148.1,346.1" fill="rgb(255,255,255)"/>
<polygon points="154.1,340.1 160.1,340.1 160.1,346.1 154.1,346.1" fill="rgb(255,255,255)"/>
<polygon points="160.1,340.1 166.1,340.1 166.1,346.1 160.1,346.1" fill="rgb(255,255,255)"/>
<polygon points="166.1,340.1 172.1,340.1 172.1,346.1 166.1,346.1" fill="rgb(255,255,255)"/>
<polygon points="175.1,340.1 181.1,340.1 181.1,346.1 175.1,346.1" fill="rgb(255,124,124)"/>
<polygon points="181.1,340.1 187.1,340.1 187.1,346.1 181.1,346.1" fill="rgb(255,110,110)"/>
<polygon points="187.1,340.1 193.1,340.1 193.1,346.1 187.1,346.1" fill="rgb(255,118,118)"/>
<polygon points="193.1,340.1 199.1,340.1 199.1,346.1 193.1,346.1" fill="rgb(255,97,97)"/>
<polygon points="199.1,340.1 205.1,340.1 205.1,346.1 199.1,346.1" fill="rgb(255,188,188)"/>
<polygon points="205.1,340.1 211.1,340.1 211.1,346.1 205.1,346.1" fill="rgb(255,184,184)"/>
<polygon points="211.1,340.1 217.1,340.1 217.1,346.1 211.1,346.1" fill="rgb(255,205,205)"/>
<polygon points="217.1,340.1 223.1,340.1 223.1,346.1 217.1,346.1" fill="rgb(255,164,164)"/>
<polygon points="223.1,340.1 229.1,340.1 229.1,346.1 223.1,346.1" fill="rgb(255,184,184)"/>
<polygon points="229.1,340.1 235.1,340.1 235.1,346.1 229.1,346.1" fill="rgb(255,152,152)"/>
<polygon points="235.1,340.1 241.1,340.1 241.1,346.1 235.1,346.1" fill="rgb(255,110,110)"/>
<polygon points="241.1,340.1 247.1,340.1 247.1,346.1 241.1,346.1" fill="rgb(255,146,146)"/>
<polygon points="247.1,340.1 253.1,340.1 253.1,346.1 247.1,346.1" fill="rgb(255,147,147)"/>
<polygon points="253.1,340.1 259.1,340.1 259.1,346.1 253.1,346.1" fill="rgb(255,85,85)"/>
<polygon points="142.1,346.1 148.1,346.1 148.1,352.1 142.1,352.1" fill="rgb(0,255,255)"/>
<polygon points="148.1,346.1 154.1,346.1 154.1,352.1 148.1,352.1" fill="rgb(255,255,255)"/>
<polygon points="154.1,346.1 160.1,346.1 160.1,352.1 154.1,352.1" fill="rgb(255,255,255)"/>
<polygon points="160.1,346.1 166.1,346.1 166.1,352.1 160.1,352.1" fill="rgb(255,255,255)"/>
<polygon points="166.1,346.1 172.1,346.1 172.1,352.1 166.1,352.1" fill="rgb(255,255,255)"/>
<polygon points="175.1,346.1 181.1,346.1 181.1,352.1 175.1,352.1" fill="rgb(255,156,156)"/>
<polygon points="181.1,346.1 187.1,346.1 187.1,352.1 181.1,352.1" fill="rgb(254,138,138)"/>
<polygon points="187.1,346.1 193.1,346.1 193.1,352.1 187.1,352.1" fill="rgb(255,144,144)"/>
<polygon points="193.1,346.1 199.1,346.1 199.1,352.1 193.1,352.1" fill="rgb(255,130,130)"/>
<polygon points="199.1,346.1 205.1,346.1 205.1,352.1 199.1,352.1" fill="rgb(255,208,208)"/>
<polygon points="205.1,346.1 211.1,346.1 211.1,352.1 205.1,352.1" fill="rgb(255,204,204)"/>
<polygon points="211.1,346.1 217.1,346.1 217.1,352.1 211.1,352.1" fill="rgb(255,229,229)"/>
<polygon points="217.1,346.1 223.1,346.1 223.1,352.1 217.1,352.1" fill="rgb(255,165,165)"/>
<polygon points="223.1,346.1 229.1,346.1 229.1,352.1 223.1,352.1" fill="rgb(255,190,190)"/>
<polygon points="229.1,346.1 235.1,346.1 235.1,352.1 229.1,352.1" fill="rgb(255,180,180)"/>
<polygon points="235.1,346.1 241.1,346.1 241.1,352.1 235.1,352.1" fill="rgb(255,144,144)"/>
<polygon points="241.1,346.1 247.1,346.1 247.1,352.1 241.1,352.1" fill="rgb(255,183,183)"/>
<polygon points="247.1,346.1 253.1,346.1 253.1,352.1 247.1,352.1" fill="rgb(255,172,172)"/>
<polygon points="253.1,346.1 259.1,346.1 259.1,352.1 253.1,352.1" fill="rgb(255,109,109)"/>
<polygon points="142.1,352.1 148.1,352.1 148.1,358.1 142.1,358.1" fill="rgb(0,255,255)"/>
<polygon points="148.1,352.1 154.1,352.1 154.1,358.1 148.1,358.1" fill="rgb(255,255,255)"/>
<polygon points="154.1,352.1 160.1,352.1 160.1,358.1 154.1,358.1" fill="rgb(255,255,255)"/>
<polygon points="160.1,352.1 166.1,352.1 166.1,358.1 160.1,358.1" fill="rgb(255,255,255)"/>
<polygon points="166.1,352.1 172.1,352.1 172.1,358.1 166.1,358.1" fill="rgb(0,255,255)"/>
<polygon points="175.1,352.1 181.1,352.1 181.1,358.1 175.1,358.1" fill="rgb(255,214,214)"/>
<polygon points="181.1,352.1 187.1,352.1 187.1,358.1 181.1,358.1" fill="rgb(255,205,205)"/>
<polygon points="187.1,352.1 193.1,352.1 193.1,358.1 187.1,358.1" fill="rgb(255,208,208)"/>
<polygon points="193.1,352.1 199.1,352.1 199.1,358.1 193.1,358.1" fill="rgb(255,153,153)"/>
<polygon points="199.1,352.1 205.1,352.1 205.1,358.1 199.1,358.1" fill="rgb(255,235,235)"/>
<polygon points="205.1,352.1 211.1,352.1 211.1,358.1 205.1,358.1" fill="rgb(255,244,244)"/>
<polygon points="211.1,352.1 217.1,352.1 217.1,358.1 211.1,358.1" fill="rgb(255,242,242)"/>
<polygon points="217.1,352.1 223.1,352.1 223.1,358.1 217.1,358.1" fill="rgb(255,216,216)"/>
<polygon points="223.1,352.1 229.1,352.1 229.1,358.1 223.1,358.1" fill="rgb(255,237,237)"/>
<polygon points="229.1,352.1 235.1,352.1 235.1,358.1 229.1,358.1" fill="rgb(255,203,203)"/>
<polygon points="235.1,352.1 241.1,352.1 241.1,358.1 235.1,358.1" fill="rgb(255,171,171)"/>
<polygon points="241.1,352.1 247.1,352.1 247.1,358.1 241.1,358.1" fill="rgb(255,223,223)"/>
<polygon points="247.1,352.1 253.1,352.1 253.1,358.1 247.1,358.1" fill="rgb(255,167,167)"/>
<polygon points="253.1,352.1 259.1,352.1 259.1,358.1 253.1,358.1" fill="rgb(255,127,127)"/>
<polygon points="142.1,358.1 148.1,358.1 148.1,364.1 142.1,364.1" fill="rgb(0,255,255)"/>
<polygon points="148.1,358.1 154.1,358.1 154.1,364.1 148.1,364.1" fill="rgb(255,255,255)"/>
<polygon points="154.1,358.1 160.1,358.1 160.1,364.1 154.1,364.1" fill="rgb(255,255,255)"/>
<polygon points="160.1,358.1 166.1,358.1 166.1,364.1 160.1,364.1" fill="rgb(255,255,255)"/>
<polygon points="166.1,358.1 172.1,358.1 172.1,364.1 166.1,364.1" fill="rgb(0,255,255)"/>
<polygon points="175.1,358.1 181.1,358.1 181.1,364.1 175.1,364.1" fill="rgb(255,226,226)"/>
<polygon points="181.1,358.1 187.1,358.1 187.1,364.1 181.1,364.1" fill="rgb(255,218,218)"/>
<polygon points="187.1,358.1 193.1,358.1 193.1,364.1 187.1,364.1" fill="rgb(255,215,215)"/>
<polygon points="193.1,358.1 199.1,358.1 199.1,364.1 193.1,364.1" fill="rgb(255,196,196)"/>
<polygon points="199.1,358.1 205.1,358.1 205.1,364.1 199.1,364.1" fill="rgb(255,242,242)"/>
<polygon points="205.1,358.1 211.1,358.1 211.1,364.1 205.1,364.1" fill="rgb(255,251,251)"/>
<polygon points="211.1,358.1 217.1,358.1 217.1,364.1 211.1,364.1" fill="rgb(254,248,248)"/>
<polygon points="217.1,358.1 223.1,358.1 223.1,364.1 217.1,364.1" fill="rgb(255,234,234)"/>
<polygon points="223.1,358.1 229.1,358.1 229.1,364.1 223.1,364.1" fill="rgb(255,244,244)"/>
<polygon points="229.1,358.1 235.1,358.1 235.1,364.1 229.1,364.1" fill="rgb(255,229,229)"/>
<polygon points="235.1,358.1 241.1,358.1 241.1,364.1 235.1,364.1" fill="rgb(255,198,198)"/>
<polygon points="241.1,358.1 247.1,358.1 247.1,364.1 241.1,364.1" fill="rgb(255,222,222)"/>
<polygon points="247.1,358.1 253.1,358.1 253.1,364.1 247.1,364.1" fill="rgb(255,201,201)"/>
<polygon points="253.1,358.1 259.1,358.1 259.1,364.1 253.1,364.1" fill="rgb(255,159,159)"/>
<polygon points="142.1,364.1 148.1,364.1 148.1,370.1 142.1,370.1" fill="rgb(0,255,255)"/>
<polygon points="148.1,364.1 154.1,364.1 154.1,370.1 148.1,370.1" fill="rgb(255,255,255)"/>
<polygon points="154.1,364.1 160.1,364.1 160.1,370.1 154.1,370.1" fill="rgb(255,255,255)"/>
<polygon points="160.1,364.1 166.1,364.1 166.1,370.1 160.1,370.1" fill="rgb(255,255,255)"/>
<polygon points="166.1,364.1 172.1,364.1 172.1,370.1 166.1,370.1" fill="rgb(0,255,255)"/>
<polygon points="175.1,364.1 181.1,364.1 181.1,370.1 175.1,370.1" fill="rgb(255,186,186)"/>
<polygon points="181.1,364.1 187.1,364.1 187.1,370.1 181.1,370.1" fill="rgb(255,169,169)"/>
<polygon points="187.1,364.1 193.1,364.1 193.1,370.1 187.1,370.1" fill="rgb(255,163,163)"/>
<polygon points="193.1,364.1 199.1,364.1 199.1,370.1 193.1,370.1" fill="rgb(255,133,133)"/>
<polygon points="199.1,364.1 205.1,364.1 205.1,370.1 199.1,370.1" fill="rgb(255,221,221)"/>
<polygon points="205.1,364.1 211.1,364.1 211.1,370.1 205.1,370.1" fill="rgb(255,226,226)"/>
<polygon points="211.1,364.1 217.1,364.1 217.1,370.1 211.1,370.1" fill="rgb(255,229,229)"/>
<polygon points="217.1,364.1 223.1,364.1 223.1,370.1 217.1,370.1" fill="rgb(255,181,181)"/>
<polygon points="223.1,364.1 229.1,364.1 229.1,370.1 223.1,370.1" fill="rgb(255,208,208)"/>
<polygon points="229.1,364.1 235.1,364.1 235.1,370.1 229.1,370.1" fill="rgb(254,180,180)"/>
<polygon points="235.1,364.1 241.1,364.1 241.1,370.1 235.1,370.1" fill="rgb(254,136,136)"/>
<polygon points="241.1,364.1 247.1,364.1 247.1,370.1 241.1,370.1" fill="rgb(255,187,187)"/>
<polygon points="247.1,364.1 253.1,364.1 253.1,370.1 247.1,370.1" fill="rgb(255,176,176)"/>
<polygon points="253.1,364.1 259.1,364.1 259.1,370.1 253.1,370.1" fill="rgb(255,120,120)"/>
<polygon points="142.1,370.1 148.1,370.1 148.1,376.1 142.1,376.1" fill="rgb(0,255,255)"/>
<polygon points="148.1,370.1 154.1,370.1 154.1,376.1 148.1,376.1" fill="rgb(255,255,255)"/>
<polygon points="154.1,370.1 160.1,370.1 160.1,376.1 154.1,376.1" fill="rgb(255,255,255)"/>
<polygon points="160.1,370.1 166.1,370.1 166.1,376.1 160.1,376.1" fill="rgb(255,255,255)"/>
<polygon points="166.1,370.1 172.1,370.1 172.1,376.1 166.1,376.1" fill="rgb(0,255,255)"/>
<polygon points="175.1,370.1 181.1,370.1 181.1,376.1 175.1,376.1" fill="rgb(255,189,189)"/>
<polygon points="181.1,370.1 187.1,370.1 187.1,376.1 181.1,376.1" fill="rgb(255,175,175)"/>
<polygon points="187.1,370.1 193.1,370.1 193.1,376.1 187.1,376.1" fill="rgb(255,187,187)"/>
<polygon points="193.1,370.1 199.1,370.1 199.1,376.1 193.1,376.1" fill="rgb(255,139,139)"/>
<polygon points="199.1,370.1 205.1,370.1 205.1,376.1 199.1,376.1" fill="rgb(255,236,236)"/>
<polygon points="205.1,370.1 211.1,370.1 211.1,376.1 205.1,376.1" fill="rgb(255,232,232)"/>
<polygon points="211.1,370.1 217.1,370.1 217.1,376.1 211.1,376.1" fill="rgb(255,240,240)"/>
<polygon points="217.1,370.1 223.1,370.1 223.1,376.1 217.1,376.1" fill="rgb(255,215,215)"/>
<polygon points="223.1,370.1 229.1,370.1 229.1,376.1 223.1,376.1" fill="rgb(254,232,232)"/>
<polygon points="229.1,370.1 235.1,370.1 235.1,376.1 229.1,376.1" fill="rgb(255,206,206)"/>
<polygon points="235.1,370.1 241.1,370.1 241.1,376.1 235.1,376.1" fill="rgb(255,162,162)"/>
<polygon points="241.1,370.1 247.1,370.1 247.1,376.1 241.1,376.1" fill="rgb(255,212,212)"/>
<polygon points="247.1,370.1 253.1,370.1 253.1,376.1 247.1,376.1" fill="rgb(255,184,184)"/>
<polygon points="253.1,370.1 259.1,370.1 259.1,376.1 253.1,376.1" fill="rgb(255,150,150)"/>
<polygon points="142.1,376.1 148.1,376.1 148.1,382.1 142.1,382.1" fill="rgb(0,255,255)"/>
<polygon points="148.1,376.1 154.1,376.1 154.1,382.1 148.1,382.1" fill="rgb(255,255,255)"/>
<polygon points="154.1,376.1 160.1,376.1 160.1,382.1 154.1,382.1" fill="rgb(255,255,255)"/>
<polygon points="160.1,376.1 166.1,376.1 166.1,382.1 160.1,382.1" fill="rgb(255,255,255)"/>
<polygon points="166.1,376.1 172.1,376.1 172.1,382.1 166.1,382.1" fill="rgb(0,255,255)"/>
<polygon points="175.1,376.1 181.1,376.1 181.1,382.1 175.1,382.1" fill="rgb(255,139,139)"/>
<polygon points="181.1,376.1 187.1,376.1 187.1,382.1 181.1,382.1" fill="rgb(255,120,120)"/>
<polygon points="187.1,376.1 193.1,376.1 193.1,382.1 187.1,382.1" fill="rgb(255,113,113)"/>
<polygon points="193.1,376.1 199.1,376.1 199.1,382.1 193.1,382.1" fill="rgb(255,59,59)"/>
<polygon points="199.1,376.1 205.1,376.1 205.1,382.1 199.1,382.1" fill="rgb(255,191,191)"/>
<polygon points="205.1,376.1 211.1,376.1 211.1,382.1 205.1,382.1" fill="rgb(255,196,196)"/>
<polygon points="211.1,376.1 217.1,376.1 217.1,382.1 211.1,382.1" fill="rgb(255,209,209)"/>
<polygon points="217.1,376.1 223.1,376.1 223.1,382.1 217.1,382.1" fill="rgb(255,143,143)"/>
<polygon points="223.1,376.1 229.1,376.1 229.1,382.1 223.1,382.1" fill="rgb(255,182,182)"/>
<polygon points="229.1,376.1 235.1,376.1 235.1,382.1 229.1,382.1" fill="rgb(255,125,125)"/>
<polygon points="235.1,376.1 241.1,376.1 241.1,382.1 235.1,382.1" fill="rgb(255,73,73)"/>
<polygon points="241.1,376.1 247.1,376.1 247.1,382.1 241.1,382.1" fill="rgb(255,137,137)"/>
<polygon points="247.1,376.1 253.1,376.1 253.1,382.1 247.1,382.1" fill="rgb(255,111,111)"/>
<polygon points="253.1,376.1 259.1,376.1 259.1,382.1 253.1,382.1" fill="rgb(255,67,67)"/>
<polygon points="142.1,382.1 148.1,382.1 148.1,388.1 142.1,388.1" fill="rgb(0,255,255)"/>
<polygon points="148.1,382.1 154.1,382.1 154.1,388.1 148.1,388.1" fill="rgb(255,255,255)"/>
<polygon points="154.1,382.1 160.1,382.1 160.1,388.1 154.1,388.1" fill="rgb(255,255,255)"/>
<polygon points="160.1,382.1 166.1,382.1 166.1,388.1 160.1,388.1" fill="rgb(255,255,255)"/>
<polygon points="166.1,382.1 172.1,382.1 172.1,388.1 166.1,388.1" fill="rgb(0,255,255)"/>
<polygon points="175.1,382.1 181.1,382.1 181.1,388.1 175.1,388.1" fill="rgb(255,176,176)"/>
<polygon points="181.1,382.1 187.1,382.1 187.1,388.1 181.1,388.1" fill="rgb(255,165,165)"/>
<polygon points="187.1,382.1 193.1,382.1 193.1,388.1 187.1,388.1" fill="rgb(255,172,172)"/>
<polygon points="193.1,382.1 199.1,382.1 199.1,388.1 193.1,388.1" fill="rgb(255,140,140)"/>
<polygon points="199.1,382.1 205.1,382.1 205.1,388.1 199.1,388.1" fill="rgb(255,225,225)"/>
<polygon points="205.1,382.1 211.1,382.1 211.1,388.1 205.1,388.1" fill="rgb(255,219,219)"/>
<polygon points="211.1,382.1 217.1,382.1 217.1,388.1 211.1,388.1" fill="rgb(255,229,229)"/>
<polygon points="217.1,382.1 223.1,382.1 223.1,388.1 217.1,388.1" fill="rgb(255,185,185)"/>
<polygon points="223.1,382.1 229.1,382.1 229.1,388.1 223.1,388.1" fill="rgb(255,210,210)"/>
<polygon points="229.1,382.1 235.1,382.1 235.1,388.1 229.1,388.1" fill="rgb(255,184,184)"/>
<polygon points="235.1,382.1 241.1,382.1 241.1,388.1 235.1,388.1" fill="rgb(255,151,151)"/>
<polygon points="241.1,382.1 247.1,382.1 247.1,388.1 241.1,388.1" fill="rgb(255,181,181)"/>
<polygon points="247.1,382.1 253.1,382.1 253.1,388.1 247.1,388.1" fill="rgb(255,155,155)"/>
<polygon points="253.1,382.1 259.1,382.1 259.1,388.1 253.1,388.1" fill="rgb(255,116,116)"/>
<polygon points="142.1,388.1 148.1,388.1 148.1,394.1 142.1,394.1" fill="rgb(0,255,255)"/>
<polygon points="148.1,388.1 154.1,388.1 154.1,394.1 148.1,394.1" fill="rgb(0,255,255)"/>
<polygon points="154.1,388.1 160.1,388.1 160.1,394.1 154.1,394.1" fill="rgb(255,255,255)"/>
<polygon points="160.1,388.1 166.1,388.1 166.1,394.1 160.1,394.1" fill="rgb(255,255,255)"/>
<polygon points="166.1,388.1 172.1,388.1 172.1,394.1 166.1,394.1" fill="rgb(0,255,255)"/>
<polygon points="175.1,388.1 181.1,388.1 181.1,394.1 175.1,394.1" fill="rgb(255,56,56)"/>
<polygon points="181.1,388.1 187.1,388.1 187.1,394.1 181.1,394.1" fill="rgb(255,49,49)"/>
<polygon points="187.1,388.1 193.1,388.1 193.1,394.1 187.1,394.1" fill="rgb(255,6,6)"/>
<polygon points="193.1,388.1 199.1,388.1 199.1,394.1 193.1,394.1" fill="rgb(243,0,0)"/>
<polygon points="199.1,388.1 205.1,388.1 205.1,394.1 199.1,394.1" fill="rgb(255,117,117)"/>
<polygon points="205.1,388.1 211.1,388.1 211.1,394.1 205.1,394.1" fill="rgb(255,141,141)"/>
<polygon points="211.1,388.1 217.1,388.1 217.1,394.1 211.1,394.1" fill="rgb(255,122,122)"/>
<polygon points="217.1,388.1 223.1,388.1 223.1,394.1 217.1,394.1" fill="rgb(255,72,72)"/>
<polygon points="223.1,388.1 229.1,388.1 229.1,394.1 223.1,394.1" fill="rgb(255,106,106)"/>
<polygon points="229.1,388.1 235.1,388.1 235.1,394.1 229.1,394.1" fill="rgb(255,43,43)"/>
<polygon points="235.1,388.1 241.1,388.1 241.1,394.1 235.1,394.1" fill="rgb(244,0,0)"/>
<polygon points="241.1,388.1 247.1,388.1 247.1,394.1 241.1,394.1" fill="rgb(255,29,29)"/>
<polygon points="247.1,388.1 253.1,388.1 253.1,394.1 247.1,394.1" fill="rgb(252,0,0)"/>
<polygon points="253.1,388.1 259.1,388.1 259.1,394.1 253.1,394.1" fill="rgb(219,0,0)"/>
<polygon points="142.1,397.1 148.1,397.1 148.1,403.1 142.1,403.1" fill="rgb(255,255,255)"/>
<polygon points="148.1,397.1 154.1,397.1 154.1,403.1 148.1,403.1" fill="rgb(255,255,255)"/>
<polygon points="154.1,397.1 160.1,397.1 160.1,403.1 154.1,403.1" fill="rgb(255,255,255)"/>
<polygon points="160.1,397.1 166.1,397.1 166.1,403.1 160.1,403.1" fill="rgb(255,255,255)"/>
<polygon points="166.1,397.1 172.1,397.1 172.1,403.1 166.1,403.1" fill="rgb(255,255,255)"/>
<polygon points="175.1,397.1 181.1,397.1 181.1,403.1 175.1,403.1" fill="rgb(0,0,255)"/>
<polygon points="181.1,397.1 187.1,397.1 187.1,403.1 181.1,403.1" fill="rgb(133,133,255)"/>
<polygon points="187.1,397.1 193.1,397.1 193.1,403.1 187.1,403.1" fill="rgb(255,243,243)"/>
<polygon points="193.1,397.1 199.1,397.1 199.1,403.1 193.1,403.1" fill="rgb(255,204,204)"/>
<polygon points="199.1,397.1 205.1,397.1 205.1,403.1 199.1,403.1" fill="rgb(0,0,255)"/>
<polygon points="205.1,397.1 211.1,397.1 211.1,403.1 205.1,403.1" fill="rgb(0,0,255)"/>
<polygon points="211.1,397.1 217.1,397.1 217.1,403.1 211.1,403.1" fill="rgb(0,0,255)"/>
<polygon points="217.1,397.1 223.1,397.1 223.1,403.1 217.1,403.1" fill="rgb(0,0,255)"/>
<polygon points="223.1,397.1 229.1,397.1 229.1,403.1 223.1,403.1" fill="rgb(0,0,255)"/>
<polygon points="229.1,397.1 235.1,397.1 235.1,403.1 229.1,403.1" fill="rgb(211,211,255)"/>
<polygon points="235.1,397.1 241.1,397.1 241.1,403.1 235.1,403.1" fill="rgb(254,227,227)"/>
<polygon points="241.1,397.1 247.1,397.1 247.1,403.1 241.1,403.1" fill="rgb(0,0,255)"/>
<polygon points="247.1,397.1 253.1,397.1 253.1,403.1 247.1,403.1" fill="rgb(0,0,255)"/>
<polygon points="253.1,397.1 259.1,397.1 259.1,403.1 253.1,403.1" fill="rgb(255,238,238)"/>
<polygon points="142.1,403.1 148.1,403.1 148.1,409.1 142.1,409.1" fill="rgb(255,255,255)"/>
<polygon points="148.1,403.1 154.1,403.1 154.1,409.1 148.1,409.1" fill="rgb(255,255,255)"/>
<polygon points="154.1,403.1 160.1,403.1 160.1,409.1 154.1,409.1" fill="rgb(255,255,255)"/>
<polygon points="160.1,403.1 166.1,403.1 166.1,409.1 160.1,409.1" fill="rgb(255,255,255)"/>
<polygon points="166.1,403.1 172.1,403.1 172.1,409.1 166.1,409.1" fill="rgb(255,255,255)"/>
<polygon points="175.1,403.1 181.1,403.1 181.1,409.1 175.1,409.1" fill="rgb(255,252,252)"/>
<polygon points="181.1,403.1 187.1,403.1 187.1,409.1 181.1,409.1" fill="rgb(255,235,235)"/>
<polygon points="187.1,403.1 193.1,403.1 193.1,409.1 187.1,409.1" fill="rgb(255,236,236)"/>
<polygon points="193.1,403.1 199.1,403.1 199.1,409.1 193.1,409.1" fill="rgb(255,211,211)"/>
<polygon points="199.1,403.1 205.1,403.1 205.1,409.1 199.1,409.1" fill="rgb(63,63,255)"/>
<polygon points="205.1,403.1 211.1,403.1 211.1,409.1 205.1,409.1" fill="rgb(0,0,255)"/>
<polygon points="211.1,403.1 217.1,403.1 217.1,409.1 211.1,409.1" fill="rgb(0,0,255)"/>
<polygon points="217.1,403.1 223.1,403.1 223.1,409.1 217.1,409.1" fill="rgb(0,0,255)"/>
<polygon points="223.1,403.1 229.1,403.1 229.1,409.1 223.1,409.1" fill="rgb(0,0,255)"/>
<polygon points="229.1,403.1 235.1,403.1 235.1,409.1 229.1,409.1" fill="rgb(0,0,255)"/>
<polygon points="235.1,403.1 241.1,403.1 241.1,409.1 235.1,409.1" fill="rgb(255,224,224)"/>
<polygon points="241.1,403.1 247.1,403.1 247.1,409.1 241.1,409.1" fill="rgb(0,0,255)"/>
<polygon points="247.1,403.1 253.1,403.1 253.1,409.1 247.1,409.1" fill="rgb(255,252,252)"/>
<polygon points="253.1,403.1 259.1,403.1 259.1,409.1 253.1,409.1" fill="rgb(255,204,204)"/>
<polygon points="142.1,409.1 148.1,409.1 148.1,415.1 142.1,415.1" fill="rgb(255,255,255)"/>
<polygon points="148.1,409.1 154.1,409.1 154.1,415.1 148.1,415.1" fill="rgb(255,255,255)"/>
<polygon points="154.1,409.1 160.1,409.1 160.1,415.1 154.1,415.1" fill="rgb(255,255,255)"/>
<polygon points="160.1,409.1 166.1,409.1 166.1,415.1 160.1,415.1" fill="rgb(255,255,255)"/>
<polygon points="166.1,409.1 172.1,409.1 172.1,415.1 166.1,415.1" fill="rgb(255,255,255)"/>
<polygon points="175.1,409.1 181.1,409.1 181.1,415.1 175.1,415.1" fill="rgb(0,0,255)"/>
<polygon points="181.1,409.1 187.1,409.1 187.1,415.1 181.1,415.1" fill="rgb(0,0,255)"/>
<polygon points="187.1,409.1 193.1,409.1 193.1,415.1 187.1,415.1" fill="rgb(255,241,241)"/>
<polygon points="193.1,409.1 199.1,409.1 199.1,415.1 193.1,415.1" fill="rgb(255,205,205)"/>
<polygon points="199.1,409.1 205.1,409.1 205.1,415.1 199.1,415.1" fill="rgb(0,0,255)"/>
<polygon points="205.1,409.1 211.1,409.1 211.1,415.1 205.1,415.1" fill="rgb(0,0,255)"/>
<polygon points="211.1,409.1 217.1,409.1 217.1,415.1 211.1,415.1" fill="rgb(0,0,255)"/>
<polygon points="217.1,409.1 223.1,409.1 223.1,415.1 217.1,415.1" fill="rgb(0,0,255)"/>
<polygon points="223.1,409.1 229.1,409.1 229.1,415.1 223.1,415.1" fill="rgb(0,0,255)"/>
<polygon points="229.1,409.1 235.1,409.1 235.1,415.1 229.1,415.1" fill="rgb(205,205,255)"/>
<polygon points="235.1,409.1 241.1,409.1 241.1,415.1 235.1,415.1" fill="rgb(255,169,169)"/>
<polygon points="241.1,409.1 247.1,409.1 247.1,415.1 241.1,415.1" fill="rgb(255,216,216)"/>
<polygon points="247.1,409.1 253.1,409.1 253.1,415.1 247.1,415.1" fill="rgb(255,156,156)"/>
<polygon points="253.1,409.1 259.1,409.1 259.1,415.1 253.1,415.1" fill="rgb(255,105,105)"/>
<polygon points="142.1,415.1 148.1,415.1 148.1,421.1 142.1,421.1" fill="rgb(255,255,255)"/>
<polygon points="148.1,415.1 154.1,415.1 154.1,421.1 148.1,421.1" fill="rgb(255,255,255)"/>
<polygon points="154.1,415.1 160.1,415.1 160.1,421.1 154.1,421.1" fill="rgb(255,255,255)"/>
<polygon points="160.1,415.1 166.1,415.1 166.1,421.1 160.1,421.1" fill="rgb(255,255,255)"/>
<polygon points="166.1,415.1 172.1,415.1 172.1,421.1 166.1,421.1" fill="rgb(255,255,255)"/>
<polygon points="175.1,415.1 181.1,415.1 181.1,421.1 175.1,421.1" fill="rgb(255,239,239)"/>
<polygon points="181.1,415.1 187.1,415.1 187.1,421.1 181.1,421.1" fill="rgb(173,173,255)"/>
<polygon points="187.1,415.1 193.1,415.1 193.1,421.1 187.1,421.1" fill="rgb(0,0,255)"/>
<polygon points="193.1,415.1 199.1,415.1 199.1,421.1 193.1,421.1" fill="rgb(0,0,255)"/>
<polygon points="199.1,415.1 205.1,415.1 205.1,421.1 199.1,421.1" fill="rgb(255,252,252)"/>
<polygon points="205.1,415.1 211.1,415.1 211.1,421.1 205.1,421.1" fill="rgb(255,200,200)"/>
<polygon points="211.1,415.1 217.1,415.1 217.1,421.1 211.1,421.1" fill="rgb(255,241,241)"/>
<polygon points="217.1,415.1 223.1,415.1 223.1,421.1 217.1,421.1" fill="rgb(255,215,215)"/>
<polygon points="223.1,415.1 229.1,415.1 229.1,421.1 223.1,421.1" fill="rgb(254,208,208)"/>
<polygon points="229.1,415.1 235.1,415.1 235.1,421.1 229.1,421.1" fill="rgb(255,254,254)"/>
<polygon points="235.1,415.1 241.1,415.1 241.1,421.1 235.1,421.1" fill="rgb(0,0,255)"/>
<polygon points="241.1,415.1 247.1,415.1 247.1,421.1 241.1,421.1" fill="rgb(0,0,255)"/>
<polygon points="247.1,415.1 253.1,415.1 253.1,421.1 247.1,421.1" fill="rgb(0,0,255)"/>
<polygon points="253.1,415.1 259.1,415.1 259.1,421.1 253.1,421.1" fill="rgb(0,0,255)"/>
<polygon points="142.1,421.1 148.1,421.1 148.1,427.1 142.1,427.1" fill="rgb(255,255,255)"/>
<polygon points="148.1,421.1 154.1,421.1 154.1,427.1 148.1,427.1" fill="rgb(255,255,255)"/>
<polygon points="154.1,421.1 160.1,421.1 160.1,427.1 154.1,427.1" fill="rgb(255,255,255)"/>
<polygon points="160.1,421.1 166.1,421.1 166.1,427.1 160.1,427.1" fill="rgb(255,255,255)"/>
<polygon points="166.1,421.1 172.1,421.1 172.1,427.1 166.1,427.1" fill="rgb(255,255,255)"/>
<polygon points="175.1,421.1 181.1,421.1 181.1,427.1 175.1,427.1" fill="rgb(0,0,255)"/>
<polygon points="181.1,421.1 187.1,421.1 187.1,427.1 181.1,427.1" fill="rgb(0,0,255)"/>
<polygon points="187.1,421.1 193.1,421.1 193.1,427.1 187.1,427.1" fill="rgb(255,243,243)"/>
<polygon points="193.1,421.1 199.1,421.1 199.1,427.1 193.1,427.1" fill="rgb(104,104,255)"/>
<polygon points="199.1,421.1 205.1,421.1 205.1,427.1 199.1,427.1" fill="rgb(0,0,255)"/>
<polygon points="205.1,421.1 211.1,421.1 211.1,427.1 205.1,427.1" fill="rgb(0,0,255)"/>
<polygon points="211.1,421.1 217.1,421.1 217.1,427.1 211.1,427.1" fill="rgb(0,0,255)"/>
<polygon points="217.1,421.1 223.1,421.1 223.1,427.1 217.1,427.1" fill="rgb(0,0,255)"/>
<polygon points="223.1,421.1 229.1,421.1 229.1,427.1 223.1,427.1" fill="rgb(0,0,255)"/>
<polygon points="229.1,421.1 235.1,421.1 235.1,427.1 229.1,427.1" fill="rgb(0,0,255)"/>
<polygon points="235.1,421.1 241.1,421.1 241.1,427.1 235.1,427.1" fill="rgb(255,246,246)"/>
<polygon points="241.1,421.1 247.1,421.1 247.1,427.1 241.1,427.1" fill="rgb(255,207,207)"/>
<polygon points="247.1,421.1 253.1,421.1 253.1,427.1 247.1,427.1" fill="rgb(255,178,178)"/>
<polygon points="253.1,421.1 259.1,421.1 259.1,427.1 253.1,427.1" fill="rgb(255,143,143)"/>
<polygon points="142.1,142.1 172.1,142.1 172.1,394.1 142.1,394.1" fill="none" stroke="black" stroke-width="0.5"/>
<polygon points="175.1,142.1 259.1,142.1 259.1,394.1 175.1,394.1" fill="none" stroke="black" stroke-width="0.5"/>
<polygon points="142.1,397.1 172.1,397.1 172.1,427.1 142.1,427.1" fill="none" stroke="black" stroke-width="0.5"/>
<polygon points="175.1,397.1 259.1,397.1 259.1,427.1 175.1,427.1" fill="none" stroke="black" stroke-width="0.5"/>
<text xml:space="preserve" x="191.05" y="459.767" font-family="Arial" font-size="7" text-anchor="middle">enrichments</text>
<polygon points="81.05,467.1 101.05,467.1 101.05,487.1 81.05,487.1" fill="rgb(255,255,255)"/><polygon points="81.05,467.1 101.05,467.1 101.05,487.1 81.05,487.1" fill="none" stroke="black" stroke-width="0.5"/><text xml:space="preserve" x="91.05" y="479.1" font-family="Arial" font-size="5" fill="rgb(0,0,0)" text-anchor="middle">0.0</text>
<polygon points="101.05,467.1 121.05,467.1 121.05,487.1 101.05,487.1" fill="rgb(216,178,216)"/><polygon points="101.05,467.1 121.05,467.1 121.05,487.1 101.05,487.1" fill="none" stroke="black" stroke-width="0.5"/><text xml:space="preserve" x="111.05" y="479.1" font-family="Arial" font-size="5" fill="rgb(0,0,0)" text-anchor="middle">0.3</text>
<polygon points="121.05,467.1 141.05,467.1 141.05,487.1 121.05,487.1" fill="rgb(178,102,178)"/><polygon points="121.05,467.1 141.05,467.1 141.05,487.1 121.05,487.1" fill="none" stroke="black" stroke-width="0.5"/><text xml:space="preserve" x="131.05" y="479.1" font-family="Arial" font-size="5" fill="rgb(0,0,0)" text-anchor="middle">0.6</text>
<polygon points="141.05,467.1 161.05,467.1 161.05,487.1 141.05,487.1" fill="rgb(140,25,140)"/><polygon points="141.05,467.1 161.05,467.1 161.05,487.1 141.05,487.1" fill="none" stroke="black" stroke-width="0.5"/><text xml:space="preserve" x="151.05" y="479.1" font-family="Arial" font-size="5" fill="rgb(255,255,255)" text-anchor="middle">0.9</text>
<polygon points="161.05,467.1 181.05,467.1 181.05,487.1 161.05,487.1" fill="rgb(102,50,153)"/><polygon points="161.05,467.1 181.05,467.1 181.05,487.1 161.05,487.1" fill="none" stroke="black" stroke-width="0.5"/><text xml:space="preserve" x="171.05" y="479.1" font-family="Arial" font-size="5" fill="rgb(255,255,255)" text-anchor="middle">1.2</text>
<polygon points="181.05,467.1 201.05,467.1 201.05,487.1 181.05,487.1" fill="rgb(64,127,191)"/><polygon points="181.05,467.1 201.05,467.1 201.05,487.1 181.05,487.1" fill="none" stroke="black" stroke-width="0.5"/><text xml:space="preserve" x="191.05" y="479.1" font-family="Arial" font-size="5" fill="rgb(255,255,255)" text-anchor="middle">1.5</text>
<polygon points="201.05,467.1 221.05,467.1 221.05,487.1 201.05,487.1" fill="rgb(25,204,229)"/><polygon points="201.05,467.1 221.05,467.1 221.05,487.1 201.05,487.1" fill="none" stroke="black" stroke-width="0.5"/><text xml:space="preserve" x="211.05" y="479.1" font-family="Arial" font-size="5" fill="rgb(0,0,0)" text-anchor="middle">1.8</text>
<polygon points="221.05,467.1 241.05,467.1 241.05,487.1 221.05,487.1" fill="rgb(0,239,239)"/><polygon points="221.05,467.1 241.05,467.1 241.05,487.1 221.05,487.1" fill="none" stroke="black" stroke-width="0.5"/><text xml:space="preserve" x="231.05" y="479.1" font-family="Arial" font-size="5" fill="rgb(0,0,0)" text-anchor="middle">2.1</text>
<polygon points="241.05,467.1 261.05,467.1 261.05,487.1 241.05,487.1" fill="rgb(0,193,193)"/><polygon points="241.05,467.1 261.05,467.1 261.05,487.1 241.05,487.1" fill="none" stroke="black" stroke-width="0.5"/><text xml:space="preserve" x="251.05" y="479.1" font-family="Arial" font-size="5" fill="rgb(0,0,0)" text-anchor="middle">2.4</text>
<polygon points="261.05,467.1 281.05,467.1 281.05,487.1 261.05,487.1" fill="rgb(0,146,146)"/><polygon points="261.05,467.1 281.05,467.1 281.05,487.1 261.05,487.1" fill="none" stroke="black" stroke-width="0.5"/><text xml:space="preserve" x="271.05" y="479.1" font-family="Arial" font-size="5" fill="rgb(255,255,255)" text-anchor="middle">2.7</text>
<polygon points="281.05,467.1 301.05,467.1 301.05,487.1 281.05,487.1" fill="rgb(0,100,100)"/><polygon points="281.05,467.1 301.05,467.1 301.05,487.1 281.05,487.1" fill="none" stroke="black" stroke-width="0.5"/><text xml:space="preserve" x="291.05" y="479.1" font-family="Arial" font-size="5" fill="rgb(255,255,255)" text-anchor="middle">3.0</text>
<text xml:space="preserve" x="191.05" y="519.767" font-family="Arial" font-size="7" text-anchor="middle">expression</text>
<polygon points="81.05,527.1 101.05,527.1 101.05,547.1 81.05,547.1" fill="rgb(0,0,255)"/><polygon points="81.05,527.1 101.05,527.1 101.05,547.1 81.05,547.1" fill="none" stroke="black" stroke-width="0.5"/><text xml:space="preserve" x="91.05" y="539.1" font-family="Arial" font-size="5" fill="rgb(255,255,255)" text-anchor="middle">0.0</text>
<polygon points="101.05,527.1 121.05,527.1 121.05,547.1 101.05,547.1" fill="rgb(255,211,211)"/><polygon points="101.05,527.1 121.05,527.1 121.05,547.1 101.05,547.1" fill="none" stroke="black" stroke-width="0.5"/><text xml:space="preserve" x="111.05" y="539.1" font-family="Arial" font-size="5" fill="rgb(0,0,0)" text-anchor="middle">0.6</text>
<polygon points="121.05,527.1 141.05,527.1 141.05,547.1 121.05,547.1" fill="rgb(255,158,158)"/><polygon points="121.05,527.1 141.05,527.1 141.05,547.1 121.05,547.1" fill="none" stroke="black" stroke-width="0.5"/><text xml:space="preserve" x="131.05" y="539.1" font-family="Arial" font-size="5" fill="rgb(0,0,0)" text-anchor="middle">1.2</text>
<polygon points="141.05,527.1 161.05,527.1 161.05,547.1 141.05,547.1" fill="rgb(255,105,105)"/><polygon points="141.05,527.1 161.05,527.1 161.05,547.1 141.05,547.1" fill="none" stroke="black" stroke-width="0.5"/><text xml:space="preserve" x="151.05" y="539.1" font-family="Arial" font-size="5" fill="rgb(0,0,0)" text-anchor="middle">1.8</text>
<polygon points="161.05,527.1 181.05,527.1 181.05,547.1 161.05,547.1" fill="rgb(255,52,52)"/><polygon points="161.05,527.1 181.05,527.1 181.05,547.1 161.05,547.1" fill="none" stroke="black" stroke-width="0.5"/><text xml:space="preserve" x="171.05" y="539.1" font-family="Arial" font-size="5" fill="rgb(255,255,255)" text-anchor="middle">2.4</text>
<polygon points="181.05,527.1 201.05,527.1 201.05,547.1 181.05,547.1" fill="rgb(255,0,0)"/><polygon points="181.05,527.1 201.05,527.1 201.05,547.1 181.05,547.1" fill="none" stroke="black" stroke-width="0.5"/><text xml:space="preserve" x="191.05" y="539.1" font-family="Arial" font-size="5" fill="rgb(255,255,255)" text-anchor="middle">3.0</text>
<polygon points="201.05,527.1 221.05,527.1 221.05,547.1 201.05,547.1" fill="rgb(231,0,0)"/><polygon points="201.05,527.1 221.05,527.1 221.05,547.1 201.05,547.1" fill="none" stroke="black" stroke-width="0.5"/><text xml:space="preserve" x="211.05" y="539.1" font-family="Arial" font-size="5" fill="rgb(255,255,255)" text-anchor="middle">3.6</text>
<polygon points="221.05,527.1 241.05,527.1 241.05,547.1 221.05,547.1" fill="rgb(208,0,0)"/><polygon points="221.05,527.1 241.05,527.1 241.05,547.1 221.05,547.1" fill="none" stroke="black" stroke-width="0.5"/><text xml:space="preserve" x="231.05" y="539.1" font-family="Arial" font-size="5" fill="rgb(255,255,255)" text-anchor="middle">4.2</text>
<polygon points="241.05,527.1 261.05,527.1 261.05,547.1 241.05,547.1" fill="rgb(185,0,0)"/><polygon points="241.05,527.1 261.05,527.1 261.05,547.1 241.05,547.1" fill="none" stroke="black" stroke-width="0.5"/><text xml:space="preserve" x="251.05" y="539.1" font-family="Arial" font-size="5" fill="rgb(255,255,255)" text-anchor="middle">4.8</text>
<polygon points="261.05,527.1 281.05,527.1 281.05,547.1 261.05,547.1" fill="rgb(162,0,0)"/><polygon points="261.05,527.1 281.05,527.1 281.05,547.1 261.05,547.1" fill="none" stroke="black" stroke-width="0.5"/><text xml:space="preserve" x="271.05" y="539.1" font-family="Arial" font-size="5" fill="rgb(255,255,255)" text-anchor="middle">5.4</text>
<polygon points="281.05,527.1 301.05,527.1 301.05,547.1 281.05,547.1" fill="rgb(139,0,0)"/><polygon points="281.05,527.1 301.05,527.1 301.05,547.1 281.05,547.1" fill="none" stroke="black" stroke-width="0.5"/><text xml:space="preserve" x="291.05" y="539.1" font-family="Arial" font-size="5" fill="rgb(255,255,255)" text-anchor="middle">6.0</text>
</svg>
