<?xml version="1.0" standalone="no"?><!DOCTYPE svg PUBLIC "-//W3C//DTD SVG 1.1//EN" "http://www.w3.org/Graphics/SVG/1.1/DTD/svg11.dtd">
<svg width="382.7" height="333.7" version="1.1" xmlns="http://www.w3.org/2000/svg">
<text xml:space="preserve" x="138.7" y="148.367" font-family="Arial" font-size="7" text-anchor="end">Arhgdib</text>
<text xml:space="preserve" x="138.7" y="154.367" font-family="Arial" font-size="7" text-anchor="end">Capg</text>
<text xml:space="preserve" x="138.7" y="160.367" font-family="Arial" font-size="7" text-anchor="end">Sh3bgrl3</text>
<text xml:space="preserve" x="138.7" y="166.367" font-family="Arial" font-size="7" text-anchor="end">Fxyd5</text>
<text xml:space="preserve" x="138.7" y="172.367" font-family="Arial" font-size="7" text-anchor="end">Serpinb6a</text>
<text xml:space="preserve" x="138.7" y="178.367" font-family="Arial" font-size="7" text-anchor="end">Prdx5</text>
<text xml:space="preserve" x="138.7" y="187.367" font-family="Arial" font-size="7" text-anchor="end">Bach1_nca:2</text>
<text xml:space="preserve" x="138.7" y="193.367" font-family="Arial" font-size="7" text-anchor="end">Ctcfl_nca:2</text>
<text xml:space="preserve" x="148.367" y="138.7" font-family="Arial" font-size="7" transform="rotate(270 148.367 138.7)">Bach1_nca:2</text>
<text xml:space="preserve" x="154.367" y="138.7" font-family="Arial" font-size="7" transform="rotate(270 154.367 138.7)">Ctcfl_nca:2</text>
<text xml:space="preserve" x="163.367" y="138.7" font-family="Arial" font-size="7" transform="rotate(270 163.367 138.7)">C2</text>
<text xml:space="preserve" x="169.367" y="138.7" font-family="Arial" font-size="7" transform="rotate(270 169.367 138.7)">C7</text>
<text xml:space="preserve" x="175.367" y="138.7" font-family="Arial" font-size="7" transform="rotate(270 175.367 138.7)">C3</text>
<text xml:space="preserve" x="181.367" y="138.7" font-family="Arial" font-size="7" transform="rotate(270 181.367 138.7)">C5</text>
<text xml:space="preserve" x="187.367" y="138.7" font-family="Arial" font-size="7" transform="rotate(270 187.367 138.7)">C12</text>
<text xml:space="preserve" x="193.367" y="138.7" font-family="Arial" font-size="7" transform="rotate(270 193.367 138.7)">C13</text>
<text xml:space="preserve" x="199.367" y="138.7" font-family="Arial" font-size="7" transform="rotate(270 199.367 138.7)">C14</text>
<text xml:space="preserve" x="205.367" y="138.7" font-family="Arial" font-size="7" transform="rotate(270 205.367 138.7)">C11</text>
<text xml:space="preserve" x="211.367" y="138.7" font-family="Arial" font-size="7" transform="rotate(270 211.367 138.7)">C4</text>
<text xml:space="preserve" x="217.367" y="138.7" font-family="Arial" font-size="7" transform="rotate(270 217.367 138.7)">C8</text>
<text xml:space="preserve" x="223.367" y="138.7" font-family="Arial" font-size="7" transform="rotate(270 223.367 138.7)">C6</text>
<text xml:space="preserve" x="229.367" y="138.7" font-family="Arial" font-size="7" transform="rotate(270 229.367 138.7)">C10</text>
<text xml:space="preserve" x="235.367" y="138.7" font-family="Arial" font-size="7" transform="rotate(270 235.367 138.7)">C9</text>
<text xml:space="preserve" x="241.367" y="138.7" font-family="Arial" font-size="7" transform="rotate(270 241.367 138.7)">C1</text>
<polygon points="142.7,142.7 148.7,142.7 148.7,148.7 142.7,148.7" fill="rgb(0,255,255)"/>
<polygon points="148.7,142.7 154.7,142.7 154.7,148.7 148.7,148.7" fill="rgb(0,255,255)"/>
<polygon points="157.7,142.7 163.7,142.7 163.7,148.7 157.7,148.7" fill="rgb(255,116,116)"/>
<polygon points="163.7,142.7 169.7,142.7 169.7,148.7 163.7,148.7" fill="rgb(255,136,136)"/>
<polygon points="169.7,142.7 175.7,142.7 175.7,148.7 169.7,148.7" fill="rgb(255,158,158)"/>
<polygon points="175.7,142.7 181.7,142.7 181.7,148.7 175.7,148.7" fill="rgb(255,187,187)"/>
<polygon points="181.7,142.7 187.7,142.7 187.7,148.7 181.7,148.7" fill="rgb(255,138,138)"/>
<polygon points="187.7,142.7 193.7,142.7 193.7,148.7 187.7,148.7" fill="rgb(255,113,113)"/>
<polygon points="193.7,142.7 199.7,142.7 199.7,148.7 193.7,148.7" fill="rgb(255,218,218)"/>
<polygon points="199.7,142.7 205.7,142.7 205.7,148.7 199.7,148.7" fill="rgb(255,190,190)"/>
<polygon points="205.7,142.7 211.7,142.7 211.7,148.7 205.7,148.7" fill="rgb(255,176,176)"/>
<polygon points="211.7,142.7 217.7,142.7 217.7,148.7 211.7,148.7" fill="rgb(255,213,213)"/>
<polygon points="217.7,142.7 223.7,142.7 223.7,148.7 217.7,148.7" fill="rgb(255,236,236)"/>
<polygon points="223.7,142.7 229.7,142.7 229.7,148.7 223.7,148.7" fill="rgb(254,239,239)"/>
<polygon points="229.7,142.7 235.7,142.7 235.7,148.7 229.7,148.7" fill="rgb(240,240,255)"/>
<polygon points="235.7,142.7 241.7,142.7 241.7,148.7 235.7,148.7" fill="rgb(130,130,255)"/>
<polygon points="142.7,148.7 148.7,148.7 148.7,154.7 142.7,154.7" fill="rgb(0,255,255)"/>
<polygon points="148.7,148.7 154.7,148.7 154.7,154.7 148.7,154.7" fill="rgb(0,255,255)"/>
<polygon points="157.7,148.7 163.7,148.7 163.7,154.7 157.7,154.7" fill="rgb(255,201,201)"/>
<polygon points="163.7,148.7 169.7,148.7 169.7,154.7 163.7,154.7" fill="rgb(255,217,217)"/>
<polygon points="169.7,148.7 175.7,148.7 175.7,154.7 169.7,154.7" fill="rgb(255,228,228)"/>
<polygon points="175.7,148.7 181.7,148.7 181.7,154.7 175.7,154.7" fill="rgb(255,252,252)"/>
<polygon points="181.7,148.7 187.7,148.7 187.7,154.7 181.7,154.7" fill="rgb(254,214,214)"/>
<polygon points="187.7,148.7 193.7,148.7 193.7,154.7 187.7,154.7" fill="rgb(255,210,210)"/>
<polygon points="193.7,148.7 199.7,148.7 199.7,154.7 193.7,154.7" fill="rgb(255,244,244)"/>
<polygon points="199.7,148.7 205.7,148.7 205.7,154.7 199.7,154.7" fill="rgb(254,243,243)"/>
<polygon points="205.7,148.7 211.7,148.7 211.7,154.7 205.7,154.7" fill="rgb(255,242,242)"/>
<polygon points="211.7,148.7 217.7,148.7 217.7,154.7 211.7,154.7" fill="rgb(254,247,247)"/>
<polygon points="217.7,148.7 223.7,148.7 223.7,154.7 217.7,154.7" fill="rgb(69,69,255)"/>
<polygon points="223.7,148.7 229.7,148.7 229.7,154.7 223.7,154.7" fill="rgb(158,158,255)"/>
<polygon points="229.7,148.7 235.7,148.7 235.7,154.7 229.7,154.7" fill="rgb(255,252,252)"/>
<polygon points="235.7,148.7 241.7,148.7 241.7,154.7 235.7,154.7" fill="rgb(255,245,245)"/>
<polygon points="142.7,154.7 148.7,154.7 148.7,160.7 142.7,160.7" fill="rgb(0,255,255)"/>
<polygon points="148.7,154.7 154.7,154.7 154.7,160.7 148.7,160.7" fill="rgb(0,255,255)"/>
<polygon points="157.7,154.7 163.7,154.7 163.7,160.7 157.7,160.7" fill="rgb(255,116,116)"/>
<polygon points="163.7,154.7 169.7,154.7 169.7,160.7 163.7,160.7" fill="rgb(255,128,128)"/>
<polygon points="169.7,154.7 175.7,154.7 175.7,160.7 169.7,160.7" fill="rgb(255,168,168)"/>
<polygon points="175.7,154.7 181.7,154.7 181.7,160.7 175.7,160.7" fill="rgb(255,186,186)"/>
<polygon points="181.7,154.7 187.7,154.7 187.7,160.7 181.7,160.7" fill="rgb(255,149,149)"/>
<polygon points="187.7,154.7 193.7,154.7 193.7,160.7 187.7,160.7" fill="rgb(255,164,164)"/>
<polygon points="193.7,154.7 199.7,154.7 199.7,160.7 193.7,160.7" fill="rgb(255,210,210)"/>
<polygon points="199.7,154.7 205.7,154.7 205.7,160.7 199.7,160.7" fill="rgb(255,186,186)"/>
<polygon points="205.7,154.7 211.7,154.7 211.7,160.7 205.7,160.7" fill="rgb(255,202,202)"/>
<polygon points="211.7,154.7 217.7,154.7 217.7,160.7 211.7,160.7" fill="rgb(255,200,200)"/>
<polygon points="217.7,154.7 223.7,154.7 223.7,160.7 217.7,160.7" fill="rgb(254,214,214)"/>
<polygon points="223.7,154.7 229.7,154.7 229.7,160.7 223.7,160.7" fill="rgb(255,222,222)"/>
<polygon points="229.7,154.7 235.7,154.7 235.7,160.7 229.7,160.7" fill="rgb(255,211,211)"/>
<polygon points="235.7,154.7 241.7,154.7 241.7,160.7 235.7,160.7" fill="rgb(255,169,169)"/>
<polygon points="142.7,160.7 148.7,160.7 148.7,166.7 142.7,166.7" fill="rgb(0,255,255)"/>
<polygon points="148.7,160.7 154.7,160.7 154.7,166.7 148.7,166.7" fill="rgb(0,255,255)"/>
<polygon points="157.7,160.7 163.7,160.7 163.7,166.7 157.7,166.7" fill="rgb(255,187,187)"/>
<polygon points="163.7,160.7 169.7,160.7 169.7,166.7 163.7,166.7" fill="rgb(255,194,194)"/>
<polygon points="169.7,160.7 175.7,160.7 175.7,166.7 169.7,166.7" fill="rgb(254,231,231)"/>
<polygon points="175.7,160.7 181.7,160.7 181.7,166.7 175.7,166.7" fill="rgb(255,241,241)"/>
<polygon points="181.7,160.7 187.7,160.7 187.7,166.7 181.7,166.7" fill="rgb(255,221,221)"/>
<polygon points="187.7,160.7 193.7,160.7 193.7,166.7 187.7,166.7" fill="rgb(254,236,236)"/>
<polygon points="193.7,160.7 199.7,160.7 199.7,166.7 193.7,166.7" fill="rgb(30,30,255)"/>
<polygon points="199.7,160.7 205.7,160.7 205.7,166.7 199.7,166.7" fill="rgb(107,107,255)"/>
<polygon points="205.7,160.7 211.7,160.7 211.7,166.7 205.7,166.7" fill="rgb(95,95,255)"/>
<polygon points="211.7,160.7 217.7,160.7 217.7,166.7 211.7,166.7" fill="rgb(255,249,249)"/>
<polygon points="217.7,160.7 223.7,160.7 223.7,166.7 217.7,166.7" fill="rgb(166,166,255)"/>
<polygon points="223.7,160.7 229.7,160.7 229.7,166.7 223.7,166.7" fill="rgb(30,30,255)"/>
<polygon points="229.7,160.7 235.7,160.7 235.7,166.7 229.7,166.7" fill="rgb(113,113,255)"/>
<polygon points="235.7,160.7 241.7,160.7 241.7,166.7 235.7,166.7" fill="rgb(40,40,255)"/>
<polygon points="142.7,166.7 148.7,166.7 148.7,172.7 142.7,172.7" fill="rgb(0,255,255)"/>
<polygon points="148.7,166.7 154.7,166.7 154.7,172.7 148.7,172.7" fill="rgb(255,255,255)"/>
<polygon points="157.7,166.7 163.7,166.7 163.7,172.7 157.7,172.7" fill="rgb(255,88,88)"/>
<polygon points="163.7,166.7 169.7,166.7 169.7,172.7 163.7,172.7" fill="rgb(255,105,105)"/>
<polygon points="169.7,166.7 175.7,166.7 175.7,172.7 169.7,172.7" fill="rgb(255,125,125)"/>
<polygon points="175.7,166.7 181.7,166.7 181.7,172.7 175.7,172.7" fill="rgb(255,155,155)"/>
<polygon points="181.7,166.7 187.7,166.7 187.7,172.7 181.7,172.7" fill="rgb(255,103,103)"/>
<polygon points="187.7,166.7 193.7,166.7 193.7,172.7 187.7,172.7" fill="rgb(255,114,114)"/>
<polygon points="193.7,166.7 199.7,166.7 199.7,172.7 193.7,172.7" fill="rgb(255,152,152)"/>
<polygon points="199.7,166.7 205.7,166.7 205.7,172.7 199.7,172.7" fill="rgb(255,128,128)"/>
<polygon points="205.7,166.7 211.7,166.7 211.7,172.7 205.7,172.7" fill="rgb(255,127,127)"/>
<polygon points="211.7,166.7 217.7,166.7 217.7,172.7 211.7,172.7" fill="rgb(255,154,154)"/>
<polygon points="217.7,166.7 223.7,166.7 223.7,172.7 217.7,172.7" fill="rgb(255,193,193)"/>
<polygon points="223.7,166.7 229.7,166.7 229.7,172.7 223.7,172.7" fill="rgb(255,182,182)"/>
<polygon points="229.7,166.7 235.7,166.7 235.7,172.7 229.7,172.7" fill="rgb(255,198,198)"/>
<polygon points="235.7,166.7 241.7,166.7 241.7,172.7 235.7,172.7" fill="rgb(255,214,214)"/>
<polygon points="142.7,172.7 148.7,172.7 148.7,178.7 142.7,178.7" fill="rgb(0,255,255)"/>
<polygon points="148.7,172.7 154.7,172.7 154.7,178.7 148.7,178.7" fill="rgb(255,255,255)"/>
<polygon points="157.7,172.7 163.7,172.7 163.7,178.7 157.7,178.7" fill="rgb(255,157,157)"/>
<polygon points="163.7,172.7 169.7,172.7 169.7,178.7 163.7,178.7" fill="rgb(255,166,166)"/>
<polygon points="169.7,172.7 175.7,172.7 175.7,178.7 169.7,178.7" fill="rgb(255,157,157)"/>
<polygon points="175.7,172.7 181.7,172.7 181.7,178.7 175.7,178.7" fill="rgb(254,186,186)"/>
<polygon points="181.7,172.7 187.7,172.7 187.7,178.7 181.7,178.7" fill="rgb(255,139,139)"/>
<polygon points="187.7,172.7 193.7,172.7 193.7,178.7 187.7,178.7" fill="rgb(255,142,142)"/>
<polygon points="193.7,172.7 199.7,172.7 199.7,178.7 193.7,178.7" fill="rgb(255,201,201)"/>
<polygon points="199.7,172.7 205.7,172.7 205.7,178.7 199.7,178.7" fill="rgb(255,167,167)"/>
<polygon points="205.7,172.7 211.7,172.7 211.7,178.7 205.7,178.7" fill="rgb(255,175,175)"/>
<polygon points="211.7,172.7 217.7,172.7 217.7,178.7 211.7,178.7" fill="rgb(255,182,182)"/>
<polygon points="217.7,172.7 223.7,172.7 223.7,178.7 217.7,178.7" fill="rgb(255,195,195)"/>
<polygon points="223.7,172.7 229.7,172.7 229.7,178.7 223.7,178.7" fill="rgb(255,199,199)"/>
<polygon points="229.7,172.7 235.7,172.7 235.7,178.7 229.7,178.7" fill="rgb(255,208,208)"/>
<polygon points="235.7,172.7 241.7,172.7 241.7,178.7 235.7,178.7" fill="rgb(255,211,211)"/>
<polygon points="142.7,181.7 148.7,181.7 148.7,187.7 142.7,187.7" fill="rgb(255,255,255)"/>
<polygon points="148.7,181.7 154.7,181.7 154.7,187.7 148.7,187.7" fill="rgb(255,255,255)"/>
<polygon points="157.7,181.7 163.7,181.7 163.7,187.7 157.7,187.7" fill="rgb(255,252,252)"/>
<polygon points="163.7,181.7 169.7,181.7 169.7,187.7 163.7,187.7" fill="rgb(0,0,255)"/>
<polygon points="169.7,181.7 175.7,181.7 175.7,187.7 169.7,187.7" fill="rgb(255,232,232)"/>
<polygon points="175.7,181.7 181.7,181.7 181.7,187.7 175.7,187.7" fill="rgb(254,248,248)"/>
<polygon points="181.7,181.7 187.7,181.7 187.7,187.7 181.7,187.7" fill="rgb(255,241,241)"/>
<polygon points="187.7,181.7 193.7,181.7 193.7,187.7 187.7,187.7" fill="rgb(0,0,255)"/>
<polygon points="193.7,181.7 199.7,181.7 199.7,187.7 193.7,187.7" fill="rgb(0,0,255)"/>
<polygon points="199.7,181.7 205.7,181.7 205.7,187.7 199.7,187.7" fill="rgb(0,0,255)"/>
<polygon points="205.7,181.7 211.7,181.7 211.7,187.7 205.7,187.7" fill="rgb(0,0,255)"/>
<polygon points="211.7,181.7 217.7,181.7 217.7,187.7 211.7,187.7" fill="rgb(0,0,255)"/>
<polygon points="217.7,181.7 223.7,181.7 223.7,187.7 217.7,187.7" fill="rgb(0,0,255)"/>
<polygon points="223.7,181.7 229.7,181.7 229.7,187.7 223.7,187.7" fill="rgb(0,0,255)"/>
<polygon points="229.7,181.7 235.7,181.7 235.7,187.7 229.7,187.7" fill="rgb(0,0,255)"/>
<polygon points="235.7,181.7 241.7,181.7 241.7,187.7 235.7,187.7" fill="rgb(0,0,255)"/>
<polygon points="142.7,187.7 148.7,187.7 148.7,193.7 142.7,193.7" fill="rgb(255,255,255)"/>
<polygon points="148.7,187.7 154.7,187.7 154.7,193.7 148.7,193.7" fill="rgb(255,255,255)"/>
<polygon points="157.7,187.7 163.7,187.7 163.7,193.7 157.7,193.7" fill="rgb(255,186,186)"/>
<polygon points="163.7,187.7 169.7,187.7 169.7,193.7 163.7,193.7" fill="rgb(255,214,214)"/>
<polygon points="169.7,187.7 175.7,187.7 175.7,193.7 169.7,193.7" fill="rgb(0,0,255)"/>
<polygon points="175.7,187.7 181.7,187.7 181.7,193.7 175.7,193.7" fill="rgb(0,0,255)"/>
<polygon points="181.7,187.7 187.7,187.7 187.7,193.7 181.7,193.7" fill="rgb(255,233,233)"/>
<polygon points="187.7,187.7 193.7,187.7 193.7,193.7 187.7,193.7" fill="rgb(255,215,215)"/>
<polygon points="193.7,187.7 199.7,187.7 199.7,193.7 193.7,193.7" fill="rgb(0,0,255)"/>
<polygon points="199.7,187.7 205.7,187.7 205.7,193.7 199.7,193.7" fill="rgb(0,0,255)"/>
<polygon points="205.7,187.7 211.7,187.7 211.7,193.7 205.7,193.7" fill="rgb(0,0,255)"/>
<polygon points="211.7,187.7 217.7,187.7 217.7,193.7 211.7,193.7" fill="rgb(0,0,255)"/>
<polygon points="217.7,187.7 223.7,187.7 223.7,193.7 217.7,193.7" fill="rgb(0,0,255)"/>
<polygon points="223.7,187.7 229.7,187.7 229.7,193.7 223.7,193.7" fill="rgb(0,0,255)"/>
<polygon points="229.7,187.7 235.7,187.7 235.7,193.7 229.7,193.7" fill="rgb(0,0,255)"/>
<polygon points="235.7,187.7 241.7,187.7 241.7,193.7 235.7,193.7" fill="rgb(0,0,255)"/>
<polygon points="142.7,142.7 154.7,142.7 154.7,178.7 142.7,178.7" fill="none" stroke="black" stroke-width="0.5"/>
<polygon points="157.7,142.7 241.7,142.7 241.7,178.7 157.7,178.7" fill="none" stroke="black" stroke-width="0.5"/>
<polygon points="142.7,181.7 154.7,181.7 154.7,193.7 142.7,193.7" fill="none" stroke="black" stroke-width="0.5"/>
<polygon points="157.7,181.7 241.7,181.7 241.7,193.7 157.7,193.7" fill="none" stroke="black" stroke-width="0.5"/>
<text xml:space="preserve" x="191.35" y="226.367" font-family="Arial" font-size="7" text-anchor="middle">enrichments</text>
<polygon points="81.35,233.7 101.35,233.7 101.35,253.7 81.35,253.7" fill="rgb(255,255,255)"/><polygon points="81.35,233.7 101.35,233.7 101.35,253.7 81.35,253.7" fill="none" stroke="black" stroke-width="0.5"/><text xml:space="preserve" x="91.35" y="245.7" font-family="Arial" font-size="5" fill="rgb(0,0,0)" text-anchor="middle">0.0</text>
<polygon points="101.35,233.7 121.35,233.7 121.35,253.7 101.35,253.7" fill="rgb(216,178,216)"/><polygon points="101.35,233.7 121.35,233.7 121.35,253.7 101.35,253.7" fill="none" stroke="black" stroke-width="0.5"/><text xml:space="preserve" x="111.35" y="245.7" font-family="Arial" font-size="5" fill="rgb(0,0,0)" text-anchor="middle">0.3</text>
<polygon points="121.35,233.7 141.35,233.7 141.35,253.7 121.35,253.7" fill="rgb(178,102,178)"/><polygon points="121.35,233.7 141.35,233.7 141.35,253.7 121.35,253.7" fill="none" stroke="black" stroke-width="0.5"/><text xml:space="preserve" x="131.35" y="245.7" font-family="Arial" font-size="5" fill="rgb(0,0,0)" text-anchor="middle">0.6</text>
<polygon points="141.35,233.7 161.35,233.7 161.35,253.7 141.35,253.7" fill="rgb(140,25,140)"/><polygon points="141.35,233.7 161.35,233.7 161.35,253.7 141.35,253.7" fill="none" stroke="black" stroke-width="0.5"/><text xml:space="preserve" x="151.35" y="245.7" font-family="Arial" font-size="5" fill="rgb(255,255,255)" text-anchor="middle">0.9</text>
<polygon points="161.35,233.7 181.35,233.7 181.35,253.7 161.35,253.7" fill="rgb(102,50,153)"/><polygon points="161.35,233.7 181.35,233.7 181.35,253.7 161.35,253.7" fill="none" stroke="black" stroke-width="0.5"/><text xml:space="preserve" x="171.35" y="245.7" font-family="Arial" font-size="5" fill="rgb(255,255,255)" text-anchor="middle">1.2</text>
<polygon points="181.35,233.7 201.35,233.7 201.35,253.7 181.35,253.7" fill="rgb(64,127,191)"/><polygon points="181.35,233.7 201.35,233.7 201.35,253.7 181.35,253.7" fill="none" stroke="black" stroke-width="0.5"/><text xml:space="preserve" x="191.35" y="245.7" font-family="Arial" font-size="5" fill="rgb(255,255,255)" text-anchor="middle">1.5</text>
<polygon points="201.35,233.7 221.35,233.7 221.35,253.7 201.35,253.7" fill="rgb(25,204,229)"/><polygon points="201.35,233.7 221.35,233.7 221.35,253.7 201.35,253.7" fill="none" stroke="black" stroke-width="0.5"/><text xml:space="preserve" x="211.35" y="245.7" font-family="Arial" font-size="5" fill="rgb(0,0,0)" text-anchor="middle">1.8</text>
<polygon points="221.35,233.7 241.35,233.7 241.35,253.7 221.35,253.7" fill="rgb(0,239,239)"/><polygon points="221.35,233.7 241.35,233.7 241.35,253.7 221.35,253.7" fill="none" stroke="black" stroke-width="0.5"/><text xml:space="preserve" x="231.35" y="245.7" font-family="Arial" font-size="5" fill="rgb(0,0,0)" text-anchor="middle">2.1</text>
<polygon points="241.35,233.7 261.35,233.7 261.35,253.7 241.35,253.7" fill="rgb(0,193,193)"/><polygon points="241.35,233.7 261.35,233.7 261.35,253.7 241.35,253.7" fill="none" stroke="black" stroke-width="0.5"/><text xml:space="preserve" x="251.35" y="245.7" font-family="Arial" font-size="5" fill="rgb(0,0,0)" text-anchor="middle">2.4</text>
<polygon points="261.35,233.7 281.35,233.7 281.35,253.7 261.35,253.7" fill="rgb(0,146,146)"/><polygon points="261.35,233.7 281.35,233.7 281.35,253.7 261.35,253.7" fill="none" stroke="black" stroke-width="0.5"/><text xml:space="preserve" x="271.35" y="245.7" font-family="Arial" font-size="5" fill="rgb(255,255,255)" text-anchor="middle">2.7</text>
<polygon points="281.35,233.7 301.35,233.7 301.35,253.7 281.35,253.7" fill="rgb(0,100,100)"/><polygon points="281.35,233.7 301.35,233.7 301.35,253.7 281.35,253.7" fill="none" stroke="black" stroke-width="0.5"/><text xml:space="preserve" x="291.35" y="245.7" font-family="Arial" font-size="5" fill="rgb(255,255,255)" text-anchor="middle">3.0</text>
<text xml:space="preserve" x="191.35" y="286.367" font-family="Arial" font-size="7" text-anchor="middle">expression</text>
<polygon points="81.35,293.7 101.35,293.7 101.35,313.7 81.35,313.7" fill="rgb(0,0,255)"/><polygon points="81.35,293.7 101.35,293.7 101.35,313.7 81.35,313.7" fill="none" stroke="black" stroke-width="0.5"/><text xml:space="preserve" x="91.35" y="305.7" font-family="Arial" font-size="5" fill="rgb(255,255,255)" text-anchor="middle">0.0</text>
<polygon points="101.35,293.7 121.35,293.7 121.35,313.7 101.35,313.7" fill="rgb(255,211,211)"/><polygon points="101.35,293.7 121.35,293.7 121.35,313.7 101.35,313.7" fill="none" stroke="black" stroke-width="0.5"/><text xml:space="preserve" x="111.35" y="305.7" font-family="Arial" font-size="5" fill="rgb(0,0,0)" text-anchor="middle">0.6</text>
<polygon points="121.35,293.7 141.35,293.7 141.35,313.7 121.35,313.7" fill="rgb(255,158,158)"/><polygon points="121.35,293.7 141.35,293.7 141.35,313.7 121.35,313.7" fill="none" stroke="black" stroke-width="0.5"/><text xml:space="preserve" x="131.35" y="305.7" font-family="Arial" font-size="5" fill="rgb(0,0,0)" text-anchor="middle">1.2</text>
<polygon points="141.35,293.7 161.35,293.7 161.35,313.7 141.35,313.7" fill="rgb(255,105,105)"/><polygon points="141.35,293.7 161.35,293.7 161.35,313.7 141.35,313.7" fill="none" stroke="black" stroke-width="0.5"/><text xml:space="preserve" x="151.35" y="305.7" font-family="Arial" font-size="5" fill="rgb(0,0,0)" text-anchor="middle">1.8</text>
<polygon points="161.35,293.7 181.35,293.7 181.35,313.7 161.35,313.7" fill="rgb(255,52,52)"/><polygon points="161.35,293.7 181.35,293.7 181.35,313.7 161.35,313.7" fill="none" stroke="black" stroke-width="0.5"/><text xml:space="preserve" x="171.35" y="305.7" font-family="Arial" font-size="5" fill="rgb(255,255,255)" text-anchor="middle">2.4</text>
<polygon points="181.35,293.7 201.35,293.7 201.35,313.7 181.35,313.7" fill="rgb(255,0,0)"/><polygon points="181.35,293.7 201.35,293.7 201.35,313.7 181.35,313.7" fill="none" stroke="black" stroke-width="0.5"/><text xml:space="preserve" x="191.35" y="305.7" font-family="Arial" font-size="5" fill="rgb(255,255,255)" text-anchor="middle">3.0</text>
<polygon points="201.35,293.7 221.35,293.7 221.35,313.7 201.35,313.7" fill="rgb(231,0,0)"/><polygon points="201.35,293.7 221.35,293.7 221.35,313.7 201.35,313.7" fill="none" stroke="black" stroke-width="0.5"/><text xml:space="preserve" x="211.35" y="305.7" font-family="Arial" font-size="5" fill="rgb(255,255,255)" text-anchor="middle">3.6</text>
<polygon points="221.35,293.7 241.35,293.7 241.35,313.7 221.35,313.7" fill="rgb(208,0,0)"/><polygon points="221.35,293.7 241.35,293.7 241.35,313.7 221.35,313.7" fill="none" stroke="black" stroke-width="0.5"/><text xml:space="preserve" x="231.35" y="305.7" font-family="Arial" font-size="5" fill="rgb(255,255,255)" text-anchor="middle">4.2</text>
<polygon points="241.35,293.7 261.35,293.7 261.35,313.7 241.35,313.7" fill="rgb(185,0,0)"/><polygon points="241.35,293.7 261.35,293.7 261.35,313.7 241.35,313.7" fill="none" stroke="black" stroke-width="0.5"/><text xml:space="preserve" x="251.35" y="305.7" font-family="Arial" font-size="5" fill="rgb(255,255,255)" text-anchor="middle">4.8</text>
<polygon points="261.35,293.7 281.35,293.7 281.35,313.7 261.35,313.7" fill="rgb(162,0,0)"/><polygon points="261.35,293.7 281.35,293.7 281.35,313.7 261.35,313.7" fill="none" stroke="black" stroke-width="0.5"/><text xml:space="preserve" x="271.35" y="305.7" font-family="Arial" font-size="5" fill="rgb(255,255,255)" text-anchor="middle">5.4</text>
<polygon points="281.35,293.7 301.35,293.7 301.35,313.7 281.35,313.7" fill="rgb(139,0,0)"/><polygon points="281.35,293.7 301.35,293.7 301.35,313.7 281.35,313.7" fill="none" stroke="black" stroke-width="0.5"/><text xml:space="preserve" x="291.35" y="305.7" font-family="Arial" font-size="5" fill="rgb(255,255,255)" text-anchor="middle">6.0</text>
</svg>
