<?xml version="1.0" standalone="no"?><!DOCTYPE svg PUBLIC "-//W3C//DTD SVG 1.1//EN" "http://www.w3.org/Graphics/SVG/1.1/DTD/svg11.dtd">
<svg width="391.7" height="342.7" version="1.1" xmlns="http://www.w3.org/2000/svg">
<text xml:space="preserve" x="147.7" y="157.367" font-family="Arial" font-size="7" text-anchor="end">Prnp</text>
<text xml:space="preserve" x="147.7" y="163.367" font-family="Arial" font-size="7" text-anchor="end">Laptm4a</text>
<text xml:space="preserve" x="147.7" y="169.367" font-family="Arial" font-size="7" text-anchor="end">Itm2b</text>
<text xml:space="preserve" x="147.7" y="175.367" font-family="Arial" font-size="7" text-anchor="end">Emp3</text>
<text xml:space="preserve" x="147.7" y="181.367" font-family="Arial" font-size="7" text-anchor="end">Tmem59</text>
<text xml:space="preserve" x="147.7" y="190.367" font-family="Arial" font-size="7" text-anchor="end">Klf3_nca:2</text>
<text xml:space="preserve" x="147.7" y="196.367" font-family="Arial" font-size="7" text-anchor="end">Mbd2_nca:2</text>
<text xml:space="preserve" x="147.7" y="202.367" font-family="Arial" font-size="7" text-anchor="end">Zbtb7a_nca:2</text>
<text xml:space="preserve" x="157.367" y="147.7" font-family="Arial" font-size="7" transform="rotate(270 157.367 147.7)">Mbd2_nca:2</text>
<text xml:space="preserve" x="163.367" y="147.7" font-family="Arial" font-size="7" transform="rotate(270 163.367 147.7)">Klf3_nca:2</text>
<text xml:space="preserve" x="169.367" y="147.7" font-family="Arial" font-size="7" transform="rotate(270 169.367 147.7)">Zbtb7a_nca:2</text>
<text xml:space="preserve" x="178.367" y="147.7" font-family="Arial" font-size="7" transform="rotate(270 178.367 147.7)">C2</text>
<text xml:space="preserve" x="184.367" y="147.7" font-family="Arial" font-size="7" transform="rotate(270 184.367 147.7)">C7</text>
<text xml:space="preserve" x="190.367" y="147.7" font-family="Arial" font-size="7" transform="rotate(270 190.367 147.7)">C3</text>
<text xml:space="preserve" x="196.367" y="147.7" font-family="Arial" font-size="7" transform="rotate(270 196.367 147.7)">C5</text>
<text xml:space="preserve" x="202.367" y="147.7" font-family="Arial" font-size="7" transform="rotate(270 202.367 147.7)">C12</text>
<text xml:space="preserve" x="208.367" y="147.7" font-family="Arial" font-size="7" transform="rotate(270 208.367 147.7)">C13</text>
<text xml:space="preserve" x="214.367" y="147.7" font-family="Arial" font-size="7" transform="rotate(270 214.367 147.7)">C14</text>
<text xml:space="preserve" x="220.367" y="147.7" font-family="Arial" font-size="7" transform="rotate(270 220.367 147.7)">C11</text>
<text xml:space="preserve" x="226.367" y="147.7" font-family="Arial" font-size="7" transform="rotate(270 226.367 147.7)">C4</text>
<text xml:space="preserve" x="232.367" y="147.7" font-family="Arial" font-size="7" transform="rotate(270 232.367 147.7)">C8</text>
<text xml:space="preserve" x="238.367" y="147.7" font-family="Arial" font-size="7" transform="rotate(270 238.367 147.7)">C6</text>
<text xml:space="preserve" x="244.367" y="147.7" font-family="Arial" font-size="7" transform="rotate(270 244.367 147.7)">C10</text>
<text xml:space="preserve" x="250.367" y="147.7" font-family="Arial" font-size="7" transform="rotate(270 250.367 147.7)">C9</text>
<text xml:space="preserve" x="256.367" y="147.7" font-family="Arial" font-size="7" transform="rotate(270 256.367 147.7)">C1</text>
<polygon points="151.7,151.7 157.7,151.7 157.7,157.7 151.7,157.7" fill="rgb(0,255,255)"/>
<polygon points="157.7,151.7 163.7,151.7 163.7,157.7 157.7,157.7" fill="rgb(0,255,255)"/>
<polygon points="163.7,151.7 169.7,151.7 169.7,157.7 163.7,157.7" fill="rgb(255,255,255)"/>
<polygon points="172.7,151.7 178.7,151.7 178.7,157.7 172.7,157.7" fill="rgb(255,124,124)"/>
<polygon points="178.7,151.7 184.7,151.7 184.7,157.7 178.7,157.7" fill="rgb(255,137,137)"/>
<polygon points="184.7,151.7 190.7,151.7 190.7,157.7 184.7,157.7" fill="rgb(255,141,141)"/>
<polygon points="190.7,151.7 196.7,151.7 196.7,157.7 190.7,157.7" fill="rgb(255,155,155)"/>
<polygon points="196.7,151.7 202.7,151.7 202.7,157.7 196.7,157.7" fill="rgb(255,139,139)"/>
<polygon points="202.7,151.7 208.7,151.7 208.7,157.7 202.7,157.7" fill="rgb(255,67,67)"/>
<polygon points="208.7,151.7 214.7,151.7 214.7,157.7 208.7,157.7" fill="rgb(255,120,120)"/>
<polygon points="214.7,151.7 220.7,151.7 220.7,157.7 214.7,157.7" fill="rgb(255,33,33)"/>
<polygon points="220.7,151.7 226.7,151.7 226.7,157.7 220.7,157.7" fill="rgb(255,49,49)"/>
<polygon points="226.7,151.7 232.7,151.7 232.7,157.7 226.7,157.7" fill="rgb(255,130,130)"/>
<polygon points="232.7,151.7 238.7,151.7 238.7,157.7 232.7,157.7" fill="rgb(255,184,184)"/>
<polygon points="238.7,151.7 244.7,151.7 244.7,157.7 238.7,157.7" fill="rgb(255,161,161)"/>
<polygon points="244.7,151.7 250.7,151.7 250.7,157.7 244.7,157.7" fill="rgb(254,238,238)"/>
<polygon points="250.7,151.7 256.7,151.7 256.7,157.7 250.7,157.7" fill="rgb(255,253,253)"/>
<polygon points="151.7,157.7 157.7,157.7 157.7,163.7 151.7,163.7" fill="rgb(0,255,255)"/>
<polygon points="157.7,157.7 163.7,157.7 163.7,163.7 157.7,163.7" fill="rgb(0,255,255)"/>
<polygon points="163.7,157.7 169.7,157.7 169.7,163.7 163.7,163.7" fill="rgb(0,255,255)"/>
<polygon points="172.7,157.7 178.7,157.7 178.7,163.7 172.7,163.7" fill="rgb(255,46,46)"/>
<polygon points="178.7,157.7 184.7,157.7 184.7,163.7 178.7,163.7" fill="rgb(255,64,64)"/>
<polygon points="184.7,157.7 190.7,157.7 190.7,163.7 184.7,163.7" fill="rgb(255,74,74)"/>
<polygon points="190.7,157.7 196.7,157.7 196.7,163.7 190.7,163.7" fill="rgb(255,65,65)"/>
<polygon points="196.7,157.7 202.7,157.7 202.7,163.7 196.7,163.7" fill="rgb(255,78,78)"/>
<polygon points="202.7,157.7 208.7,157.7 208.7,163.7 202.7,163.7" fill="rgb(241,0,0)"/>
<polygon points="208.7,157.7 214.7,157.7 214.7,163.7 208.7,163.7" fill="rgb(255,59,59)"/>
<polygon points="214.7,157.7 220.7,157.7 220.7,163.7 214.7,163.7" fill="rgb(248,0,0)"/>
<polygon points="220.7,157.7 226.7,157.7 226.7,163.7 220.7,163.7" fill="rgb(248,0,0)"/>
<polygon points="226.7,157.7 232.7,157.7 232.7,163.7 226.7,163.7" fill="rgb(255,46,46)"/>
<polygon points="232.7,157.7 238.7,157.7 238.7,163.7 232.7,163.7" fill="rgb(255,74,74)"/>
<polygon points="238.7,157.7 244.7,157.7 244.7,163.7 238.7,163.7" fill="rgb(255,83,83)"/>
<polygon points="244.7,157.7 250.7,157.7 250.7,163.7 244.7,163.7" fill="rgb(255,131,131)"/>
<polygon points="250.7,157.7 256.7,157.7 256.7,163.7 250.7,163.7" fill="rgb(255,124,124)"/>
<polygon points="151.7,163.7 157.7,163.7 157.7,169.7 151.7,169.7" fill="rgb(0,255,255)"/>
<polygon points="157.7,163.7 163.7,163.7 163.7,169.7 157.7,169.7" fill="rgb(0,255,255)"/>
<polygon points="163.7,163.7 169.7,163.7 169.7,169.7 163.7,169.7" fill="rgb(0,255,255)"/>
<polygon points="172.7,163.7 178.7,163.7 178.7,169.7 172.7,169.7" fill="rgb(255,65,65)"/>
<polygon points="178.7,163.7 184.7,163.7 184.7,169.7 178.7,169.7" fill="rgb(255,92,92)"/>
<polygon points="184.7,163.7 190.7,163.7 190.7,169.7 184.7,169.7" fill="rgb(255,100,100)"/>
<polygon points="190.7,163.7 196.7,163.7 196.7,169.7 190.7,169.7" fill="rgb(255,143,143)"/>
<polygon points="196.7,163.7 202.7,163.7 202.7,169.7 196.7,169.7" fill="rgb(255,59,59)"/>
<polygon points="202.7,163.7 208.7,163.7 208.7,169.7 202.7,169.7" fill="rgb(228,0,0)"/>
<polygon points="208.7,163.7 214.7,163.7 214.7,169.7 208.7,169.7" fill="rgb(255,56,56)"/>
<polygon points="214.7,163.7 220.7,163.7 220.7,169.7 214.7,169.7" fill="rgb(255,17,17)"/>
<polygon points="220.7,163.7 226.7,163.7 226.7,169.7 220.7,169.7" fill="rgb(249,0,0)"/>
<polygon points="226.7,163.7 232.7,163.7 232.7,169.7 226.7,169.7" fill="rgb(255,74,74)"/>
<polygon points="232.7,163.7 238.7,163.7 238.7,169.7 232.7,169.7" fill="rgb(255,142,142)"/>
<polygon points="238.7,163.7 244.7,163.7 244.7,169.7 238.7,169.7" fill="rgb(255,97,97)"/>
<polygon points="244.7,163.7 250.7,163.7 250.7,169.7 244.7,169.7" fill="rgb(255,170,170)"/>
<polygon points="250.7,163.7 256.7,163.7 256.7,169.7 250.7,169.7" fill="rgb(255,190,190)"/>
<polygon points="151.7,169.7 157.7,169.7 157.7,175.7 151.7,175.7" fill="rgb(0,255,255)"/>
<polygon points="157.7,169.7 163.7,169.7 163.7,175.7 157.7,175.7" fill="rgb(0,255,255)"/>
<polygon points="163.7,169.7 169.7,169.7 169.7,175.7 163.7,175.7" fill="rgb(0,255,255)"/>
<polygon points="172.7,169.7 178.7,169.7 178.7,175.7 172.7,175.7" fill="rgb(255,123,123)"/>
<polygon points="178.7,169.7 184.7,169.7 184.7,175.7 178.7,175.7" fill="rgb(255,145,145)"/>
<polygon points="184.7,169.7 190.7,169.7 190.7,175.7 184.7,175.7" fill="rgb(255,104,104)"/>
<polygon points="190.7,169.7 196.7,169.7 196.7,175.7 190.7,175.7" fill="rgb(255,192,192)"/>
<polygon points="196.7,169.7 202.7,169.7 202.7,175.7 196.7,175.7" fill="rgb(255,106,106)"/>
<polygon points="202.7,169.7 208.7,169.7 208.7,175.7 202.7,175.7" fill="rgb(255,104,104)"/>
<polygon points="208.7,169.7 214.7,169.7 214.7,175.7 208.7,175.7" fill="rgb(255,104,104)"/>
<polygon points="214.7,169.7 220.7,169.7 220.7,175.7 214.7,175.7" fill="rgb(255,89,89)"/>
<polygon points="220.7,169.7 226.7,169.7 226.7,175.7 220.7,175.7" fill="rgb(255,82,82)"/>
<polygon points="226.7,169.7 232.7,169.7 232.7,175.7 226.7,175.7" fill="rgb(255,153,153)"/>
<polygon points="232.7,169.7 238.7,169.7 238.7,175.7 232.7,175.7" fill="rgb(255,215,215)"/>
<polygon points="238.7,169.7 244.7,169.7 244.7,175.7 238.7,175.7" fill="rgb(255,165,165)"/>
<polygon points="244.7,169.7 250.7,169.7 250.7,175.7 244.7,175.7" fill="rgb(255,231,231)"/>
<polygon points="250.7,169.7 256.7,169.7 256.7,175.7 250.7,175.7" fill="rgb(168,168,255)"/>
<polygon points="151.7,175.7 157.7,175.7 157.7,181.7 151.7,181.7" fill="rgb(255,255,255)"/>
<polygon points="157.7,175.7 163.7,175.7 163.7,181.7 157.7,181.7" fill="rgb(0,255,255)"/>
<polygon points="163.7,175.7 169.7,175.7 169.7,181.7 163.7,181.7" fill="rgb(0,255,255)"/>
<polygon points="172.7,175.7 178.7,175.7 178.7,181.7 172.7,181.7" fill="rgb(255,95,95)"/>
<polygon points="178.7,175.7 184.7,175.7 184.7,181.7 178.7,181.7" fill="rgb(255,106,106)"/>
<polygon points="184.7,175.7 190.7,175.7 190.7,181.7 184.7,181.7" fill="rgb(255,104,104)"/>
<polygon points="190.7,175.7 196.7,175.7 196.7,181.7 190.7,181.7" fill="rgb(255,119,119)"/>
<polygon points="196.7,175.7 202.7,175.7 202.7,181.7 196.7,181.7" fill="rgb(255,104,104)"/>
<polygon points="202.7,175.7 208.7,175.7 208.7,181.7 202.7,181.7" fill="rgb(255,5,5)"/>
<polygon points="208.7,175.7 214.7,175.7 214.7,181.7 208.7,181.7" fill="rgb(255,64,64)"/>
<polygon points="214.7,175.7 220.7,175.7 220.7,181.7 214.7,181.7" fill="rgb(252,0,0)"/>
<polygon points="220.7,175.7 226.7,175.7 226.7,181.7 220.7,181.7" fill="rgb(255,0,0)"/>
<polygon points="226.7,175.7 232.7,175.7 232.7,181.7 226.7,181.7" fill="rgb(255,102,102)"/>
<polygon points="232.7,175.7 238.7,175.7 238.7,181.7 232.7,181.7" fill="rgb(255,134,134)"/>
<polygon points="238.7,175.7 244.7,175.7 244.7,181.7 238.7,181.7" fill="rgb(255,97,97)"/>
<polygon points="244.7,175.7 250.7,175.7 250.7,181.7 244.7,181.7" fill="rgb(255,169,169)"/>
<polygon points="250.7,175.7 256.7,175.7 256.7,181.7 250.7,181.7" fill="rgb(255,161,161)"/>
<polygon points="151.7,184.7 157.7,184.7 157.7,190.7 151.7,190.7" fill="rgb(255,255,255)"/>
<polygon points="157.7,184.7 163.7,184.7 163.7,190.7 157.7,190.7" fill="rgb(255,255,255)"/>
<polygon points="163.7,184.7 169.7,184.7 169.7,190.7 163.7,190.7" fill="rgb(255,255,255)"/>
<polygon points="172.7,184.7 178.7,184.7 178.7,190.7 172.7,190.7" fill="rgb(0,0,255)"/>
<polygon points="178.7,184.7 184.7,184.7 184.7,190.7 178.7,190.7" fill="rgb(0,0,255)"/>
<polygon points="184.7,184.7 190.7,184.7 190.7,190.7 184.7,190.7" fill="rgb(255,251,251)"/>
<polygon points="190.7,184.7 196.7,184.7 196.7,190.7 190.7,190.7" fill="rgb(0,0,255)"/>
<polygon points="196.7,184.7 202.7,184.7 202.7,190.7 196.7,190.7" fill="rgb(255,240,240)"/>
<polygon points="202.7,184.7 208.7,184.7 208.7,190.7 202.7,190.7" fill="rgb(255,182,182)"/>
<polygon points="208.7,184.7 214.7,184.7 214.7,190.7 208.7,190.7" fill="rgb(0,0,255)"/>
<polygon points="214.7,184.7 220.7,184.7 220.7,190.7 214.7,190.7" fill="rgb(255,231,231)"/>
<polygon points="220.7,184.7 226.7,184.7 226.7,190.7 220.7,190.7" fill="rgb(255,232,232)"/>
<polygon points="226.7,184.7 232.7,184.7 232.7,190.7 226.7,190.7" fill="rgb(0,0,255)"/>
<polygon points="232.7,184.7 238.7,184.7 238.7,190.7 232.7,190.7" fill="rgb(0,0,255)"/>
<polygon points="238.7,184.7 244.7,184.7 244.7,190.7 238.7,190.7" fill="rgb(0,0,255)"/>
<polygon points="244.7,184.7 250.7,184.7 250.7,190.7 244.7,190.7" fill="rgb(0,0,255)"/>
<polygon points="250.7,184.7 256.7,184.7 256.7,190.7 250.7,190.7" fill="rgb(0,0,255)"/>
<polygon points="151.7,190.7 157.7,190.7 157.7,196.7 151.7,196.7" fill="rgb(255,255,255)"/>
<polygon points="157.7,190.7 163.7,190.7 163.7,196.7 157.7,196.7" fill="rgb(255,255,255)"/>
<polygon points="163.7,190.7 169.7,190.7 169.7,196.7 163.7,196.7" fill="rgb(255,255,255)"/>
<polygon points="172.7,190.7 178.7,190.7 178.7,196.7 172.7,196.7" fill="rgb(0,0,255)"/>
<polygon points="178.7,190.7 184.7,190.7 184.7,196.7 178.7,196.7" fill="rgb(0,0,255)"/>
<polygon points="184.7,190.7 190.7,190.7 190.7,196.7 184.7,196.7" fill="rgb(0,0,255)"/>
<polygon points="190.7,190.7 196.7,190.7 196.7,196.7 190.7,196.7" fill="rgb(255,252,252)"/>
<polygon points="196.7,190.7 202.7,190.7 202.7,196.7 196.7,196.7" fill="rgb(0,0,255)"/>
<polygon points="202.7,190.7 208.7,190.7 208.7,196.7 202.7,196.7" fill="rgb(106,106,255)"/>
<polygon points="208.7,190.7 214.7,190.7 214.7,196.7 208.7,196.7" fill="rgb(0,0,255)"/>
<polygon points="214.7,190.7 220.7,190.7 220.7,196.7 214.7,196.7" fill="rgb(0,0,255)"/>
<polygon points="220.7,190.7 226.7,190.7 226.7,196.7 220.7,196.7" fill="rgb(0,0,255)"/>
<polygon points="226.7,190.7 232.7,190.7 232.7,196.7 226.7,196.7" fill="rgb(255,250,250)"/>
<polygon points="232.7,190.7 238.7,190.7 238.7,196.7 232.7,196.7" fill="rgb(254,244,244)"/>
<polygon points="238.7,190.7 244.7,190.7 244.7,196.7 238.7,196.7" fill="rgb(0,0,255)"/>
<polygon points="244.7,190.7 250.7,190.7 250.7,196.7 244.7,196.7" fill="rgb(255,233,233)"/>
<polygon points="250.7,190.7 256.7,190.7 256.7,196.7 250.7,196.7" fill="rgb(255,234,234)"/>
<polygon points="151.7,196.7 157.7,196.7 157.7,202.7 151.7,202.7" fill="rgb(255,255,255)"/>
<polygon points="157.7,196.7 163.7,196.7 163.7,202.7 157.7,202.7" fill="rgb(255,255,255)"/>
<polygon points="163.7,196.7 169.7,196.7 169.7,202.7 163.7,202.7" fill="rgb(255,255,255)"/>
<polygon points="172.7,196.7 178.7,196.7 178.7,202.7 172.7,202.7" fill="rgb(255,242,242)"/>
<polygon points="178.7,196.7 184.7,196.7 184.7,202.7 178.7,202.7" fill="rgb(0,0,255)"/>
<polygon points="184.7,196.7 190.7,196.7 190.7,202.7 184.7,202.7" fill="rgb(0,0,255)"/>
<polygon points="190.7,196.7 196.7,196.7 196.7,202.7 190.7,202.7" fill="rgb(0,0,255)"/>
<polygon points="196.7,196.7 202.7,196.7 202.7,202.7 196.7,202.7" fill="rgb(221,221,255)"/>
<polygon points="202.7,196.7 208.7,196.7 208.7,202.7 202.7,202.7" fill="rgb(255,223,223)"/>
<polygon points="208.7,196.7 214.7,196.7 214.7,202.7 208.7,202.7" fill="rgb(255,240,240)"/>
<polygon points="214.7,196.7 220.7,196.7 220.7,202.7 214.7,202.7" fill="rgb(255,196,196)"/>
<polygon points="220.7,196.7 226.7,196.7 226.7,202.7 220.7,202.7" fill="rgb(255,214,214)"/>
<polygon points="226.7,196.7 232.7,196.7 232.7,202.7 226.7,202.7" fill="rgb(255,251,251)"/>
<polygon points="232.7,196.7 238.7,196.7 238.7,202.7 232.7,202.7" fill="rgb(0,0,255)"/>
<polygon points="238.7,196.7 244.7,196.7 244.7,202.7 238.7,202.7" fill="rgb(0,0,255)"/>
<polygon points="244.7,196.7 250.7,196.7 250.7,202.7 244.7,202.7" fill="rgb(0,0,255)"/>
<polygon points="250.7,196.7 256.7,196.7 256.7,202.7 250.7,202.7" fill="rgb(0,0,255)"/>
<polygon points="151.7,151.7 169.7,151.7 169.7,181.7 151.7,181.7" fill="none" stroke="black" stroke-width="0.5"/>
<polygon points="172.7,151.7 256.7,151.7 256.7,181.7 172.7,181.7" fill="none" stroke="black" stroke-width="0.5"/>
<polygon points="151.7,184.7 169.7,184.7 169.7,202.7 151.7,202.7" fill="none" stroke="black" stroke-width="0.5"/>
<polygon points="172.7,184.7 256.7,184.7 256.7,202.7 172.7,202.7" fill="none" stroke="black" stroke-width="0.5"/>
<text xml:space="preserve" x="195.85" y="235.367" font-family="Arial" font-size="7" text-anchor="middle">enrichments</text>
<polygon points="85.85,242.7 105.85,242.7 105.85,262.7 85.85,262.7" fill="rgb(255,255,255)"/><polygon points="85.85,242.7 105.85,242.7 105.85,262.7 85.85,262.7" fill="none" stroke="black" stroke-width="0.5"/><text xml:space="preserve" x="95.85" y="254.7" font-family="Arial" font-size="5" fill="rgb(0,0,0)" text-anchor="middle">0.0</text>
<polygon points="105.85,242.7 125.85,242.7 125.85,262.7 105.85,262.7" fill="rgb(216,178,216)"/><polygon points="105.85,242.7 125.85,242.7 125.85,262.7 105.85,262.7" fill="none" stroke="black" stroke-width="0.5"/><text xml:space="preserve" x="115.85" y="254.7" font-family="Arial" font-size="5" fill="rgb(0,0,0)" text-anchor="middle">0.3</text>
<polygon points="125.85,242.7 145.85,242.7 145.85,262.7 125.85,262.7" fill="rgb(178,102,178)"/><polygon points="125.85,242.7 145.85,242.7 145.85,262.7 125.85,262.7" fill="none" stroke="black" stroke-width="0.5"/><text xml:space="preserve" x="135.85" y="254.7" font-family="Arial" font-size="5" fill="rgb(0,0,0)" text-anchor="middle">0.6</text>
<polygon points="145.85,242.7 165.85,242.7 165.85,262.7 145.85,262.7" fill="rgb(140,25,140)"/><polygon points="145.85,242.7 165.85,242.7 165.85,262.7 145.85,262.7" fill="none" stroke="black" stroke-width="0.5"/><text xml:space="preserve" x="155.85" y="254.7" font-family="Arial" font-size="5" fill="rgb(255,255,255)" text-anchor="middle">0.9</text>
<polygon points="165.85,242.7 185.85,242.7 185.85,262.7 165.85,262.7" fill="rgb(102,50,153)"/><polygon points="165.85,242.7 185.85,242.7 185.85,262.7 165.85,262.7" fill="none" stroke="black" stroke-width="0.5"/><text xml:space="preserve" x="175.85" y="254.7" font-family="Arial" font-size="5" fill="rgb(255,255,255)" text-anchor="middle">1.2</text>
<polygon points="185.85,242.7 205.85,242.7 205.85,262.7 185.85,262.7" fill="rgb(64,127,191)"/><polygon points="185.85,242.7 205.85,242.7 205.85,262.7 185.85,262.7" fill="none" stroke="black" stroke-width="0.5"/><text xml:space="preserve" x="195.85" y="254.7" font-family="Arial" font-size="5" fill="rgb(255,255,255)" text-anchor="middle">1.5</text>
<polygon points="205.85,242.7 225.85,242.7 225.85,262.7 205.85,262.7" fill="rgb(25,204,229)"/><polygon points="205.85,242.7 225.85,242.7 225.85,262.7 205.85,262.7" fill="none" stroke="black" stroke-width="0.5"/><text xml:space="preserve" x="215.85" y="254.7" font-family="Arial" font-size="5" fill="rgb(0,0,0)" text-anchor="middle">1.8</text>
<polygon points="225.85,242.7 245.85,242.7 245.85,262.7 225.85,262.7" fill="rgb(0,239,239)"/><polygon points="225.85,242.7 245.85,242.7 245.85,262.7 225.85,262.7" fill="none" stroke="black" stroke-width="0.5"/><text xml:space="preserve" x="235.85" y="254.7" font-family="Arial" font-size="5" fill="rgb(0,0,0)" text-anchor="middle">2.1</text>
<polygon points="245.85,242.7 265.85,242.7 265.85,262.7 245.85,262.7" fill="rgb(0,193,193)"/><polygon points="245.85,242.7 265.85,242.7 265.85,262.7 245.85,262.7" fill="none" stroke="black" stroke-width="0.5"/><text xml:space="preserve" x="255.85" y="254.7" font-family="Arial" font-size="5" fill="rgb(0,0,0)" text-anchor="middle">2.4</text>
<polygon points="265.85,242.7 285.85,242.7 285.85,262.7 265.85,262.7" fill="rgb(0,146,146)"/><polygon points="265.85,242.7 285.85,242.7 285.85,262.7 265.85,262.7" fill="none" stroke="black" stroke-width="0.5"/><text xml:space="preserve" x="275.85" y="254.7" font-family="Arial" font-size="5" fill="rgb(255,255,255)" text-anchor="middle">2.7</text>
<polygon points="285.85,242.7 305.85,242.7 305.85,262.7 285.85,262.7" fill="rgb(0,100,100)"/><polygon points="285.85,242.7 305.85,242.7 305.85,262.7 285.85,262.7" fill="none" stroke="black" stroke-width="0.5"/><text xml:space="preserve" x="295.85" y="254.7" font-family="Arial" font-size="5" fill="rgb(255,255,255)" text-anchor="middle">3.0</text>
<text xml:space="preserve" x="195.85" y="295.367" font-family="Arial" font-size="7" text-anchor="middle">expression</text>
<polygon points="85.85,302.7 105.85,302.7 105.85,322.7 85.85,322.7" fill="rgb(0,0,255)"/><polygon points="85.85,302.7 105.85,302.7 105.85,322.7 85.85,322.7" fill="none" stroke="black" stroke-width="0.5"/><text xml:space="preserve" x="95.85" y="314.7" font-family="Arial" font-size="5" fill="rgb(255,255,255)" text-anchor="middle">0.0</text>
<polygon points="105.85,302.7 125.85,302.7 125.85,322.7 105.85,322.7" fill="rgb(255,211,211)"/><polygon points="105.85,302.7 125.85,302.7 125.85,322.7 105.85,322.7" fill="none" stroke="black" stroke-width="0.5"/><text xml:space="preserve" x="115.85" y="314.7" font-family="Arial" font-size="5" fill="rgb(0,0,0)" text-anchor="middle">0.6</text>
<polygon points="125.85,302.7 145.85,302.7 145.85,322.7 125.85,322.7" fill="rgb(255,158,158)"/><polygon points="125.85,302.7 145.85,302.7 145.85,322.7 125.85,322.7" fill="none" stroke="black" stroke-width="0.5"/><text xml:space="preserve" x="135.85" y="314.7" font-family="Arial" font-size="5" fill="rgb(0,0,0)" text-anchor="middle">1.2</text>
<polygon points="145.85,302.7 165.85,302.7 165.85,322.7 145.85,322.7" fill="rgb(255,105,105)"/><polygon points="145.85,302.7 165.85,302.7 165.85,322.7 145.85,322.7" fill="none" stroke="black" stroke-width="0.5"/><text xml:space="preserve" x="155.85" y="314.7" font-family="Arial" font-size="5" fill="rgb(0,0,0)" text-anchor="middle">1.8</text>
<polygon points="165.85,302.7 185.85,302.7 185.85,322.7 165.85,322.7" fill="rgb(255,52,52)"/><polygon points="165.85,302.7 185.85,302.7 185.85,322.7 165.85,322.7" fill="none" stroke="black" stroke-width="0.5"/><text xml:space="preserve" x="175.85" y="314.7" font-family="Arial" font-size="5" fill="rgb(255,255,255)" text-anchor="middle">2.4</text>
<polygon points="185.85,302.7 205.85,302.7 205.85,322.7 185.85,322.7" fill="rgb(255,0,0)"/><polygon points="185.85,302.7 205.85,302.7 205.85,322.7 185.85,322.7" fill="none" stroke="black" stroke-width="0.5"/><text xml:space="preserve" x="195.85" y="314.7" font-family="Arial" font-size="5" fill="rgb(255,255,255)" text-anchor="middle">3.0</text>
<polygon points="205.85,302.7 225.85,302.7 225.85,322.7 205.85,322.7" fill="rgb(231,0,0)"/><polygon points="205.85,302.7 225.85,302.7 225.85,322.7 205.85,322.7" fill="none" stroke="black" stroke-width="0.5"/><text xml:space="preserve" x="215.85" y="314.7" font-family="Arial" font-size="5" fill="rgb(255,255,255)" text-anchor="middle">3.6</text>
<polygon points="225.85,302.7 245.85,302.7 245.85,322.7 225.85,322.7" fill="rgb(208,0,0)"/><polygon points="225.85,302.7 245.85,302.7 245.85,322.7 225.85,322.7" fill="none" stroke="black" stroke-width="0.5"/><text xml:space="preserve" x="235.85" y="314.7" font-family="Arial" font-size="5" fill="rgb(255,255,255)" text-anchor="middle">4.2</text>
<polygon points="245.85,302.7 265.85,302.7 265.85,322.7 245.85,322.7" fill="rgb(185,0,0)"/><polygon points="245.85,302.7 265.85,302.7 265.85,322.7 245.85,322.7" fill="none" stroke="black" stroke-width="0.5"/><text xml:space="preserve" x="255.85" y="314.7" font-family="Arial" font-size="5" fill="rgb(255,255,255)" text-anchor="middle">4.8</text>
<polygon points="265.85,302.7 285.85,302.7 285.85,322.7 265.85,322.7" fill="rgb(162,0,0)"/><polygon points="265.85,302.7 285.85,302.7 285.85,322.7 265.85,322.7" fill="none" stroke="black" stroke-width="0.5"/><text xml:space="preserve" x="275.85" y="314.7" font-family="Arial" font-size="5" fill="rgb(255,255,255)" text-anchor="middle">5.4</text>
<polygon points="285.85,302.7 305.85,302.7 305.85,322.7 285.85,322.7" fill="rgb(139,0,0)"/><polygon points="285.85,302.7 305.85,302.7 305.85,322.7 285.85,322.7" fill="none" stroke="black" stroke-width="0.5"/><text xml:space="preserve" x="295.85" y="314.7" font-family="Arial" font-size="5" fill="rgb(255,255,255)" text-anchor="middle">6.0</text>
</svg>
