<?xml version="1.0" standalone="no"?><!DOCTYPE svg PUBLIC "-//W3C//DTD SVG 1.1//EN" "http://www.w3.org/Graphics/SVG/1.1/DTD/svg11.dtd">
<svg width="393.5" height="673.3" version="1.1" xmlns="http://www.w3.org/2000/svg">
<text xml:space="preserve" x="149.5" y="391.967" font-family="Arial" font-size="7" text-anchor="end">Canx</text>
<text xml:space="preserve" x="149.5" y="397.967" font-family="Arial" font-size="7" text-anchor="end">Hsp90b1</text>
<text xml:space="preserve" x="149.5" y="403.967" font-family="Arial" font-size="7" text-anchor="end">Calr</text>
<text xml:space="preserve" x="149.5" y="409.967" font-family="Arial" font-size="7" text-anchor="end">P4hb</text>
<text xml:space="preserve" x="149.5" y="415.967" font-family="Arial" font-size="7" text-anchor="end">Rpn1</text>
<text xml:space="preserve" x="149.5" y="421.967" font-family="Arial" font-size="7" text-anchor="end">Manf</text>
<text xml:space="preserve" x="149.5" y="427.967" font-family="Arial" font-size="7" text-anchor="end">Hspa5</text>
<text xml:space="preserve" x="149.5" y="433.967" font-family="Arial" font-size="7" text-anchor="end">Magt1</text>
<text xml:space="preserve" x="149.5" y="439.967" font-family="Arial" font-size="7" text-anchor="end">Ssr3</text>
<text xml:space="preserve" x="149.5" y="445.967" font-family="Arial" font-size="7" text-anchor="end">Ssr1</text>
<text xml:space="preserve" x="149.5" y="454.967" font-family="Arial" font-size="7" text-anchor="end">Arnt_nca:2</text>
<text xml:space="preserve" x="149.5" y="460.967" font-family="Arial" font-size="7" text-anchor="end">E2f1_nca:2</text>
<text xml:space="preserve" x="149.5" y="466.967" font-family="Arial" font-size="7" text-anchor="end">Gmeb2_nca:2</text>
<text xml:space="preserve" x="149.5" y="472.967" font-family="Arial" font-size="7" text-anchor="end">Hey1_nca:2</text>
<text xml:space="preserve" x="149.5" y="478.967" font-family="Arial" font-size="7" text-anchor="end">Hsp90b1:2</text>
<text xml:space="preserve" x="149.5" y="484.967" font-family="Arial" font-size="7" text-anchor="end">Klf13_nca:2</text>
<text xml:space="preserve" x="149.5" y="490.967" font-family="Arial" font-size="7" text-anchor="end">Mbd2_nca:2</text>
<text xml:space="preserve" x="149.5" y="496.967" font-family="Arial" font-size="7" text-anchor="end">Mitf_nca:2</text>
<text xml:space="preserve" x="149.5" y="502.967" font-family="Arial" font-size="7" text-anchor="end">Mlx_nca:2</text>
<text xml:space="preserve" x="149.5" y="508.967" font-family="Arial" font-size="7" text-anchor="end">Npas1_nca:2</text>
<text xml:space="preserve" x="149.5" y="514.967" font-family="Arial" font-size="7" text-anchor="end">Pbx1_nca:2</text>
<text xml:space="preserve" x="149.5" y="520.967" font-family="Arial" font-size="7" text-anchor="end">Stat3_nca:2</text>
<text xml:space="preserve" x="149.5" y="526.967" font-family="Arial" font-size="7" text-anchor="end">Tcfl5_nca:2</text>
<text xml:space="preserve" x="149.5" y="532.967" font-family="Arial" font-size="7" text-anchor="end">Xbp1_nca:2</text>
<text xml:space="preserve" x="159.167" y="382.3" font-family="Arial" font-size="7" transform="rotate(270 159.167 382.3)">cellular_protein_metabolic_process:1</text>
<text xml:space="preserve" x="165.167" y="382.3" font-family="Arial" font-size="7" transform="rotate(270 165.167 382.3)">protein_metabolic_process:1</text>
<text xml:space="preserve" x="171.167" y="382.3" font-family="Arial" font-size="7" transform="rotate(270 171.167 382.3)">protein_folding:1</text>
<text xml:space="preserve" x="177.167" y="382.3" font-family="Arial" font-size="7" transform="rotate(270 177.167 382.3)">neurological_system_process:1</text>
<text xml:space="preserve" x="186.167" y="382.3" font-family="Arial" font-size="7" transform="rotate(270 186.167 382.3)">Arnt_nca:2</text>
<text xml:space="preserve" x="192.167" y="382.3" font-family="Arial" font-size="7" transform="rotate(270 192.167 382.3)">Npas1_nca:2</text>
<text xml:space="preserve" x="198.167" y="382.3" font-family="Arial" font-size="7" transform="rotate(270 198.167 382.3)">Stat3_nca:2</text>
<text xml:space="preserve" x="204.167" y="382.3" font-family="Arial" font-size="7" transform="rotate(270 204.167 382.3)">Mitf_nca:2</text>
<text xml:space="preserve" x="210.167" y="382.3" font-family="Arial" font-size="7" transform="rotate(270 210.167 382.3)">Mlx_nca:2</text>
<text xml:space="preserve" x="216.167" y="382.3" font-family="Arial" font-size="7" transform="rotate(270 216.167 382.3)">Pbx1_nca:2</text>
<text xml:space="preserve" x="222.167" y="382.3" font-family="Arial" font-size="7" transform="rotate(270 222.167 382.3)">Gmeb2_nca:2</text>
<text xml:space="preserve" x="228.167" y="382.3" font-family="Arial" font-size="7" transform="rotate(270 228.167 382.3)">Tcfl5_nca:2</text>
<text xml:space="preserve" x="234.167" y="382.3" font-family="Arial" font-size="7" transform="rotate(270 234.167 382.3)">Mbd2_nca:2</text>
<text xml:space="preserve" x="240.167" y="382.3" font-family="Arial" font-size="7" transform="rotate(270 240.167 382.3)">Hsp90b1:2</text>
<text xml:space="preserve" x="246.167" y="382.3" font-family="Arial" font-size="7" transform="rotate(270 246.167 382.3)">Xbp1_nca:2</text>
<text xml:space="preserve" x="252.167" y="382.3" font-family="Arial" font-size="7" transform="rotate(270 252.167 382.3)">Klf13_nca:2</text>
<text xml:space="preserve" x="258.167" y="382.3" font-family="Arial" font-size="7" transform="rotate(270 258.167 382.3)">Hey1_nca:2</text>
<text xml:space="preserve" x="264.167" y="382.3" font-family="Arial" font-size="7" transform="rotate(270 264.167 382.3)">E2f1_nca:2</text>
<text xml:space="preserve" x="273.167" y="382.3" font-family="Arial" font-size="7" transform="rotate(270 273.167 382.3)">C2</text>
<text xml:space="preserve" x="279.167" y="382.3" font-family="Arial" font-size="7" transform="rotate(270 279.167 382.3)">C7</text>
<text xml:space="preserve" x="285.167" y="382.3" font-family="Arial" font-size="7" transform="rotate(270 285.167 382.3)">C3</text>
<text xml:space="preserve" x="291.167" y="382.3" font-family="Arial" font-size="7" transform="rotate(270 291.167 382.3)">C5</text>
<text xml:space="preserve" x="297.167" y="382.3" font-family="Arial" font-size="7" transform="rotate(270 297.167 382.3)">C12</text>
<text xml:space="preserve" x="303.167" y="382.3" font-family="Arial" font-size="7" transform="rotate(270 303.167 382.3)">C13</text>
<text xml:space="preserve" x="309.167" y="382.3" font-family="Arial" font-size="7" transform="rotate(270 309.167 382.3)">C14</text>
<text xml:space="preserve" x="315.167" y="382.3" font-family="Arial" font-size="7" transform="rotate(270 315.167 382.3)">C11</text>
<text xml:space="preserve" x="321.167" y="382.3" font-family="Arial" font-size="7" transform="rotate(270 321.167 382.3)">C4</text>
<text xml:space="preserve" x="327.167" y="382.3" font-family="Arial" font-size="7" transform="rotate(270 327.167 382.3)">C8</text>
<text xml:space="preserve" x="333.167" y="382.3" font-family="Arial" font-size="7" transform="rotate(270 333.167 382.3)">C6</text>
<text xml:space="preserve" x="339.167" y="382.3" font-family="Arial" font-size="7" transform="rotate(270 339.167 382.3)">C10</text>
<text xml:space="preserve" x="345.167" y="382.3" font-family="Arial" font-size="7" transform="rotate(270 345.167 382.3)">C9</text>
<text xml:space="preserve" x="351.167" y="382.3" font-family="Arial" font-size="7" transform="rotate(270 351.167 382.3)">C1</text>
<polygon points="153.5,386.3 159.5,386.3 159.5,392.3 153.5,392.3" fill="rgb(128,0,128)"/>
<polygon points="159.5,386.3 165.5,386.3 165.5,392.3 159.5,392.3" fill="rgb(128,0,128)"/>
<polygon points="165.5,386.3 171.5,386.3 171.5,392.3 165.5,392.3" fill="rgb(128,0,128)"/>
<polygon points="171.5,386.3 177.5,386.3 177.5,392.3 171.5,392.3" fill="rgb(128,0,128)"/>
<polygon points="180.5,386.3 186.5,386.3 186.5,392.3 180.5,392.3" fill="rgb(255,255,255)"/>
<polygon points="186.5,386.3 192.5,386.3 192.5,392.3 186.5,392.3" fill="rgb(0,255,255)"/>
<polygon points="192.5,386.3 198.5,386.3 198.5,392.3 192.5,392.3" fill="rgb(0,255,255)"/>
<polygon points="198.5,386.3 204.5,386.3 204.5,392.3 198.5,392.3" fill="rgb(0,255,255)"/>
<polygon points="204.5,386.3 210.5,386.3 210.5,392.3 204.5,392.3" fill="rgb(0,255,255)"/>
<polygon points="210.5,386.3 216.5,386.3 216.5,392.3 210.5,392.3" fill="rgb(0,255,255)"/>
<polygon points="216.5,386.3 222.5,386.3 222.5,392.3 216.5,392.3" fill="rgb(255,255,255)"/>
<polygon points="222.5,386.3 228.5,386.3 228.5,392.3 222.5,392.3" fill="rgb(255,255,255)"/>
<polygon points="228.5,386.3 234.5,386.3 234.5,392.3 228.5,392.3" fill="rgb(0,255,255)"/>
<polygon points="234.5,386.3 240.5,386.3 240.5,392.3 234.5,392.3" fill="rgb(0,255,255)"/>
<polygon points="240.5,386.3 246.5,386.3 246.5,392.3 240.5,392.3" fill="rgb(255,255,255)"/>
<polygon points="246.5,386.3 252.5,386.3 252.5,392.3 246.5,392.3" fill="rgb(0,255,255)"/>
<polygon points="252.5,386.3 258.5,386.3 258.5,392.3 252.5,392.3" fill="rgb(0,255,255)"/>
<polygon points="258.5,386.3 264.5,386.3 264.5,392.3 258.5,392.3" fill="rgb(0,255,255)"/>
<polygon points="267.5,386.3 273.5,386.3 273.5,392.3 267.5,392.3" fill="rgb(254,0,0)"/>
<polygon points="273.5,386.3 279.5,386.3 279.5,392.3 273.5,392.3" fill="rgb(252,0,0)"/>
<polygon points="279.5,386.3 285.5,386.3 285.5,392.3 279.5,392.3" fill="rgb(251,0,0)"/>
<polygon points="285.5,386.3 291.5,386.3 291.5,392.3 285.5,392.3" fill="rgb(249,0,0)"/>
<polygon points="291.5,386.3 297.5,386.3 297.5,392.3 291.5,392.3" fill="rgb(255,108,108)"/>
<polygon points="297.5,386.3 303.5,386.3 303.5,392.3 297.5,392.3" fill="rgb(255,61,61)"/>
<polygon points="303.5,386.3 309.5,386.3 309.5,392.3 303.5,392.3" fill="rgb(255,149,149)"/>
<polygon points="309.5,386.3 315.5,386.3 315.5,392.3 309.5,392.3" fill="rgb(255,17,17)"/>
<polygon points="315.5,386.3 321.5,386.3 321.5,392.3 315.5,392.3" fill="rgb(255,62,62)"/>
<polygon points="321.5,386.3 327.5,386.3 327.5,392.3 321.5,392.3" fill="rgb(255,22,22)"/>
<polygon points="327.5,386.3 333.5,386.3 333.5,392.3 327.5,392.3" fill="rgb(248,0,0)"/>
<polygon points="333.5,386.3 339.5,386.3 339.5,392.3 333.5,392.3" fill="rgb(255,78,78)"/>
<polygon points="339.5,386.3 345.5,386.3 345.5,392.3 339.5,392.3" fill="rgb(255,58,58)"/>
<polygon points="345.5,386.3 351.5,386.3 351.5,392.3 345.5,392.3" fill="rgb(255,23,23)"/>
<polygon points="153.5,392.3 159.5,392.3 159.5,398.3 153.5,398.3" fill="rgb(128,0,128)"/>
<polygon points="159.5,392.3 165.5,392.3 165.5,398.3 159.5,398.3" fill="rgb(128,0,128)"/>
<polygon points="165.5,392.3 171.5,392.3 171.5,398.3 165.5,398.3" fill="rgb(128,0,128)"/>
<polygon points="171.5,392.3 177.5,392.3 177.5,398.3 171.5,398.3" fill="rgb(255,255,255)"/>
<polygon points="180.5,392.3 186.5,392.3 186.5,398.3 180.5,398.3" fill="rgb(255,255,255)"/>
<polygon points="186.5,392.3 192.5,392.3 192.5,398.3 186.5,398.3" fill="rgb(255,255,255)"/>
<polygon points="192.5,392.3 198.5,392.3 198.5,398.3 192.5,398.3" fill="rgb(0,255,255)"/>
<polygon points="198.5,392.3 204.5,392.3 204.5,398.3 198.5,398.3" fill="rgb(0,255,255)"/>
<polygon points="204.5,392.3 210.5,392.3 210.5,398.3 204.5,398.3" fill="rgb(0,255,255)"/>
<polygon points="210.5,392.3 216.5,392.3 216.5,398.3 210.5,398.3" fill="rgb(255,255,255)"/>
<polygon points="216.5,392.3 222.5,392.3 222.5,398.3 216.5,398.3" fill="rgb(0,255,255)"/>
<polygon points="222.5,392.3 228.5,392.3 228.5,398.3 222.5,398.3" fill="rgb(0,255,255)"/>
<polygon points="228.5,392.3 234.5,392.3 234.5,398.3 228.5,398.3" fill="rgb(0,255,255)"/>
<polygon points="234.5,392.3 240.5,392.3 240.5,398.3 234.5,398.3" fill="rgb(255,255,255)"/>
<polygon points="240.5,392.3 246.5,392.3 246.5,398.3 240.5,398.3" fill="rgb(0,255,255)"/>
<polygon points="246.5,392.3 252.5,392.3 252.5,398.3 246.5,398.3" fill="rgb(0,255,255)"/>
<polygon points="252.5,392.3 258.5,392.3 258.5,398.3 252.5,398.3" fill="rgb(0,255,255)"/>
<polygon points="258.5,392.3 264.5,392.3 264.5,398.3 258.5,398.3" fill="rgb(0,255,255)"/>
<polygon points="267.5,392.3 273.5,392.3 273.5,398.3 267.5,398.3" fill="rgb(242,0,0)"/>
<polygon points="273.5,392.3 279.5,392.3 279.5,398.3 273.5,398.3" fill="rgb(241,0,0)"/>
<polygon points="279.5,392.3 285.5,392.3 285.5,398.3 279.5,398.3" fill="rgb(247,0,0)"/>
<polygon points="285.5,392.3 291.5,392.3 291.5,398.3 285.5,398.3" fill="rgb(255,48,48)"/>
<polygon points="291.5,392.3 297.5,392.3 297.5,398.3 291.5,398.3" fill="rgb(255,56,56)"/>
<polygon points="297.5,392.3 303.5,392.3 303.5,398.3 297.5,398.3" fill="rgb(255,61,61)"/>
<polygon points="303.5,392.3 309.5,392.3 309.5,398.3 303.5,398.3" fill="rgb(255,129,129)"/>
<polygon points="309.5,392.3 315.5,392.3 315.5,398.3 309.5,398.3" fill="rgb(255,69,69)"/>
<polygon points="315.5,392.3 321.5,392.3 321.5,398.3 315.5,398.3" fill="rgb(255,84,84)"/>
<polygon points="321.5,392.3 327.5,392.3 327.5,398.3 321.5,398.3" fill="rgb(255,90,90)"/>
<polygon points="327.5,392.3 333.5,392.3 333.5,398.3 327.5,398.3" fill="rgb(255,76,76)"/>
<polygon points="333.5,392.3 339.5,392.3 339.5,398.3 333.5,398.3" fill="rgb(255,82,82)"/>
<polygon points="339.5,392.3 345.5,392.3 345.5,398.3 339.5,398.3" fill="rgb(255,86,86)"/>
<polygon points="345.5,392.3 351.5,392.3 351.5,398.3 345.5,398.3" fill="rgb(255,79,79)"/>
<polygon points="153.5,398.3 159.5,398.3 159.5,404.3 153.5,404.3" fill="rgb(128,0,128)"/>
<polygon points="159.5,398.3 165.5,398.3 165.5,404.3 159.5,404.3" fill="rgb(128,0,128)"/>
<polygon points="165.5,398.3 171.5,398.3 171.5,404.3 165.5,404.3" fill="rgb(128,0,128)"/>
<polygon points="171.5,398.3 177.5,398.3 177.5,404.3 171.5,404.3" fill="rgb(255,255,255)"/>
<polygon points="180.5,398.3 186.5,398.3 186.5,404.3 180.5,404.3" fill="rgb(0,255,255)"/>
<polygon points="186.5,398.3 192.5,398.3 192.5,404.3 186.5,404.3" fill="rgb(255,255,255)"/>
<polygon points="192.5,398.3 198.5,398.3 198.5,404.3 192.5,404.3" fill="rgb(255,255,255)"/>
<polygon points="198.5,398.3 204.5,398.3 204.5,404.3 198.5,404.3" fill="rgb(0,255,255)"/>
<polygon points="204.5,398.3 210.5,398.3 210.5,404.3 204.5,404.3" fill="rgb(0,255,255)"/>
<polygon points="210.5,398.3 216.5,398.3 216.5,404.3 210.5,404.3" fill="rgb(0,255,255)"/>
<polygon points="216.5,398.3 222.5,398.3 222.5,404.3 216.5,404.3" fill="rgb(0,255,255)"/>
<polygon points="222.5,398.3 228.5,398.3 228.5,404.3 222.5,404.3" fill="rgb(0,255,255)"/>
<polygon points="228.5,398.3 234.5,398.3 234.5,404.3 228.5,404.3" fill="rgb(0,255,255)"/>
<polygon points="234.5,398.3 240.5,398.3 240.5,404.3 234.5,404.3" fill="rgb(0,255,255)"/>
<polygon points="240.5,398.3 246.5,398.3 246.5,404.3 240.5,404.3" fill="rgb(0,255,255)"/>
<polygon points="246.5,398.3 252.5,398.3 252.5,404.3 246.5,404.3" fill="rgb(0,255,255)"/>
<polygon points="252.5,398.3 258.5,398.3 258.5,404.3 252.5,404.3" fill="rgb(0,255,255)"/>
<polygon points="258.5,398.3 264.5,398.3 264.5,404.3 258.5,404.3" fill="rgb(255,255,255)"/>
<polygon points="267.5,398.3 273.5,398.3 273.5,404.3 267.5,404.3" fill="rgb(244,0,0)"/>
<polygon points="273.5,398.3 279.5,398.3 279.5,404.3 273.5,404.3" fill="rgb(247,0,0)"/>
<polygon points="279.5,398.3 285.5,398.3 285.5,404.3 279.5,404.3" fill="rgb(255,36,36)"/>
<polygon points="285.5,398.3 291.5,398.3 291.5,404.3 285.5,404.3" fill="rgb(255,25,25)"/>
<polygon points="291.5,398.3 297.5,398.3 297.5,404.3 291.5,404.3" fill="rgb(255,44,44)"/>
<polygon points="297.5,398.3 303.5,398.3 303.5,404.3 297.5,404.3" fill="rgb(255,53,53)"/>
<polygon points="303.5,398.3 309.5,398.3 309.5,404.3 303.5,404.3" fill="rgb(255,130,130)"/>
<polygon points="309.5,398.3 315.5,398.3 315.5,404.3 309.5,404.3" fill="rgb(255,82,82)"/>
<polygon points="315.5,398.3 321.5,398.3 321.5,404.3 315.5,404.3" fill="rgb(255,111,111)"/>
<polygon points="321.5,398.3 327.5,398.3 327.5,404.3 321.5,404.3" fill="rgb(255,91,91)"/>
<polygon points="327.5,398.3 333.5,398.3 333.5,404.3 327.5,404.3" fill="rgb(255,67,67)"/>
<polygon points="333.5,398.3 339.5,398.3 339.5,404.3 333.5,404.3" fill="rgb(255,115,115)"/>
<polygon points="339.5,398.3 345.5,398.3 345.5,404.3 339.5,404.3" fill="rgb(255,95,95)"/>
<polygon points="345.5,398.3 351.5,398.3 351.5,404.3 345.5,404.3" fill="rgb(255,71,71)"/>
<polygon points="153.5,404.3 159.5,404.3 159.5,410.3 153.5,410.3" fill="rgb(128,0,128)"/>
<polygon points="159.5,404.3 165.5,404.3 165.5,410.3 159.5,410.3" fill="rgb(128,0,128)"/>
<polygon points="165.5,404.3 171.5,404.3 171.5,410.3 165.5,410.3" fill="rgb(255,255,255)"/>
<polygon points="171.5,404.3 177.5,404.3 177.5,410.3 171.5,410.3" fill="rgb(255,255,255)"/>
<polygon points="180.5,404.3 186.5,404.3 186.5,410.3 180.5,410.3" fill="rgb(255,255,255)"/>
<polygon points="186.5,404.3 192.5,404.3 192.5,410.3 186.5,410.3" fill="rgb(255,255,255)"/>
<polygon points="192.5,404.3 198.5,404.3 198.5,410.3 192.5,410.3" fill="rgb(255,255,255)"/>
<polygon points="198.5,404.3 204.5,404.3 204.5,410.3 198.5,410.3" fill="rgb(255,255,255)"/>
<polygon points="204.5,404.3 210.5,404.3 210.5,410.3 204.5,410.3" fill="rgb(255,255,255)"/>
<polygon points="210.5,404.3 216.5,404.3 216.5,410.3 210.5,410.3" fill="rgb(255,255,255)"/>
<polygon points="216.5,404.3 222.5,404.3 222.5,410.3 216.5,410.3" fill="rgb(0,255,255)"/>
<polygon points="222.5,404.3 228.5,404.3 228.5,410.3 222.5,410.3" fill="rgb(0,255,255)"/>
<polygon points="228.5,404.3 234.5,404.3 234.5,410.3 228.5,410.3" fill="rgb(0,255,255)"/>
<polygon points="234.5,404.3 240.5,404.3 240.5,410.3 234.5,410.3" fill="rgb(0,255,255)"/>
<polygon points="240.5,404.3 246.5,404.3 246.5,410.3 240.5,410.3" fill="rgb(0,255,255)"/>
<polygon points="246.5,404.3 252.5,404.3 252.5,410.3 246.5,410.3" fill="rgb(0,255,255)"/>
<polygon points="252.5,404.3 258.5,404.3 258.5,410.3 252.5,410.3" fill="rgb(255,255,255)"/>
<polygon points="258.5,404.3 264.5,404.3 264.5,410.3 258.5,410.3" fill="rgb(255,255,255)"/>
<polygon points="267.5,404.3 273.5,404.3 273.5,410.3 267.5,410.3" fill="rgb(243,0,0)"/>
<polygon points="273.5,404.3 279.5,404.3 279.5,410.3 273.5,410.3" fill="rgb(252,0,0)"/>
<polygon points="279.5,404.3 285.5,404.3 285.5,410.3 279.5,410.3" fill="rgb(255,26,26)"/>
<polygon points="285.5,404.3 291.5,404.3 291.5,410.3 285.5,410.3" fill="rgb(255,53,53)"/>
<polygon points="291.5,404.3 297.5,404.3 297.5,410.3 291.5,410.3" fill="rgb(255,42,42)"/>
<polygon points="297.5,404.3 303.5,404.3 303.5,410.3 297.5,410.3" fill="rgb(255,29,29)"/>
<polygon points="303.5,404.3 309.5,404.3 309.5,410.3 303.5,410.3" fill="rgb(255,121,121)"/>
<polygon points="309.5,404.3 315.5,404.3 315.5,410.3 309.5,410.3" fill="rgb(255,83,83)"/>
<polygon points="315.5,404.3 321.5,404.3 321.5,410.3 315.5,410.3" fill="rgb(255,97,97)"/>
<polygon points="321.5,404.3 327.5,404.3 327.5,410.3 321.5,410.3" fill="rgb(255,56,56)"/>
<polygon points="327.5,404.3 333.5,404.3 333.5,410.3 327.5,410.3" fill="rgb(255,67,67)"/>
<polygon points="333.5,404.3 339.5,404.3 339.5,410.3 333.5,410.3" fill="rgb(255,123,123)"/>
<polygon points="339.5,404.3 345.5,404.3 345.5,410.3 339.5,410.3" fill="rgb(255,89,89)"/>
<polygon points="345.5,404.3 351.5,404.3 351.5,410.3 345.5,410.3" fill="rgb(255,101,101)"/>
<polygon points="153.5,410.3 159.5,410.3 159.5,416.3 153.5,416.3" fill="rgb(128,0,128)"/>
<polygon points="159.5,410.3 165.5,410.3 165.5,416.3 159.5,416.3" fill="rgb(128,0,128)"/>
<polygon points="165.5,410.3 171.5,410.3 171.5,416.3 165.5,416.3" fill="rgb(255,255,255)"/>
<polygon points="171.5,410.3 177.5,410.3 177.5,416.3 171.5,416.3" fill="rgb(255,255,255)"/>
<polygon points="180.5,410.3 186.5,410.3 186.5,416.3 180.5,416.3" fill="rgb(255,255,255)"/>
<polygon points="186.5,410.3 192.5,410.3 192.5,416.3 186.5,416.3" fill="rgb(255,255,255)"/>
<polygon points="192.5,410.3 198.5,410.3 198.5,416.3 192.5,416.3" fill="rgb(255,255,255)"/>
<polygon points="198.5,410.3 204.5,410.3 204.5,416.3 198.5,416.3" fill="rgb(255,255,255)"/>
<polygon points="204.5,410.3 210.5,410.3 210.5,416.3 204.5,416.3" fill="rgb(255,255,255)"/>
<polygon points="210.5,410.3 216.5,410.3 216.5,416.3 210.5,416.3" fill="rgb(255,255,255)"/>
<polygon points="216.5,410.3 222.5,410.3 222.5,416.3 216.5,416.3" fill="rgb(255,255,255)"/>
<polygon points="222.5,410.3 228.5,410.3 228.5,416.3 222.5,416.3" fill="rgb(255,255,255)"/>
<polygon points="228.5,410.3 234.5,410.3 234.5,416.3 228.5,416.3" fill="rgb(0,255,255)"/>
<polygon points="234.5,410.3 240.5,410.3 240.5,416.3 234.5,416.3" fill="rgb(0,255,255)"/>
<polygon points="240.5,410.3 246.5,410.3 246.5,416.3 240.5,416.3" fill="rgb(0,255,255)"/>
<polygon points="246.5,410.3 252.5,410.3 252.5,416.3 246.5,416.3" fill="rgb(0,255,255)"/>
<polygon points="252.5,410.3 258.5,410.3 258.5,416.3 252.5,416.3" fill="rgb(0,255,255)"/>
<polygon points="258.5,410.3 264.5,410.3 264.5,416.3 258.5,416.3" fill="rgb(255,255,255)"/>
<polygon points="267.5,410.3 273.5,410.3 273.5,416.3 267.5,416.3" fill="rgb(255,102,102)"/>
<polygon points="273.5,410.3 279.5,410.3 279.5,416.3 273.5,416.3" fill="rgb(255,96,96)"/>
<polygon points="279.5,410.3 285.5,410.3 285.5,416.3 279.5,416.3" fill="rgb(255,118,118)"/>
<polygon points="285.5,410.3 291.5,410.3 291.5,416.3 285.5,416.3" fill="rgb(255,99,99)"/>
<polygon points="291.5,410.3 297.5,410.3 297.5,416.3 291.5,416.3" fill="rgb(255,160,160)"/>
<polygon points="297.5,410.3 303.5,410.3 303.5,416.3 297.5,416.3" fill="rgb(254,165,165)"/>
<polygon points="303.5,410.3 309.5,410.3 309.5,416.3 303.5,416.3" fill="rgb(254,194,194)"/>
<polygon points="309.5,410.3 315.5,410.3 315.5,416.3 309.5,416.3" fill="rgb(255,164,164)"/>
<polygon points="315.5,410.3 321.5,410.3 321.5,416.3 315.5,416.3" fill="rgb(255,195,195)"/>
<polygon points="321.5,410.3 327.5,410.3 327.5,416.3 321.5,416.3" fill="rgb(255,139,139)"/>
<polygon points="327.5,410.3 333.5,410.3 333.5,416.3 327.5,416.3" fill="rgb(255,110,110)"/>
<polygon points="333.5,410.3 339.5,410.3 339.5,416.3 333.5,416.3" fill="rgb(255,167,167)"/>
<polygon points="339.5,410.3 345.5,410.3 345.5,416.3 339.5,416.3" fill="rgb(255,137,137)"/>
<polygon points="345.5,410.3 351.5,410.3 351.5,416.3 345.5,416.3" fill="rgb(255,135,135)"/>
<polygon points="153.5,416.3 159.5,416.3 159.5,422.3 153.5,422.3" fill="rgb(255,255,255)"/>
<polygon points="159.5,416.3 165.5,416.3 165.5,422.3 159.5,422.3" fill="rgb(255,255,255)"/>
<polygon points="165.5,416.3 171.5,416.3 171.5,422.3 165.5,422.3" fill="rgb(255,255,255)"/>
<polygon points="171.5,416.3 177.5,416.3 177.5,422.3 171.5,422.3" fill="rgb(128,0,128)"/>
<polygon points="180.5,416.3 186.5,416.3 186.5,422.3 180.5,422.3" fill="rgb(255,255,255)"/>
<polygon points="186.5,416.3 192.5,416.3 192.5,422.3 186.5,422.3" fill="rgb(255,255,255)"/>
<polygon points="192.5,416.3 198.5,416.3 198.5,422.3 192.5,422.3" fill="rgb(255,255,255)"/>
<polygon points="198.5,416.3 204.5,416.3 204.5,422.3 198.5,422.3" fill="rgb(255,255,255)"/>
<polygon points="204.5,416.3 210.5,416.3 210.5,422.3 204.5,422.3" fill="rgb(255,255,255)"/>
<polygon points="210.5,416.3 216.5,416.3 216.5,422.3 210.5,422.3" fill="rgb(255,255,255)"/>
<polygon points="216.5,416.3 222.5,416.3 222.5,422.3 216.5,422.3" fill="rgb(255,255,255)"/>
<polygon points="222.5,416.3 228.5,416.3 228.5,422.3 222.5,422.3" fill="rgb(255,255,255)"/>
<polygon points="228.5,416.3 234.5,416.3 234.5,422.3 228.5,422.3" fill="rgb(255,255,255)"/>
<polygon points="234.5,416.3 240.5,416.3 240.5,422.3 234.5,422.3" fill="rgb(0,255,255)"/>
<polygon points="240.5,416.3 246.5,416.3 246.5,422.3 240.5,422.3" fill="rgb(0,255,255)"/>
<polygon points="246.5,416.3 252.5,416.3 252.5,422.3 246.5,422.3" fill="rgb(0,255,255)"/>
<polygon points="252.5,416.3 258.5,416.3 258.5,422.3 252.5,422.3" fill="rgb(0,255,255)"/>
<polygon points="258.5,416.3 264.5,416.3 264.5,422.3 258.5,422.3" fill="rgb(0,255,255)"/>
<polygon points="267.5,416.3 273.5,416.3 273.5,422.3 267.5,422.3" fill="rgb(255,80,80)"/>
<polygon points="273.5,416.3 279.5,416.3 279.5,422.3 273.5,422.3" fill="rgb(255,68,68)"/>
<polygon points="279.5,416.3 285.5,416.3 285.5,422.3 279.5,422.3" fill="rgb(255,111,111)"/>
<polygon points="285.5,416.3 291.5,416.3 291.5,422.3 285.5,422.3" fill="rgb(255,118,118)"/>
<polygon points="291.5,416.3 297.5,416.3 297.5,422.3 291.5,422.3" fill="rgb(254,154,154)"/>
<polygon points="297.5,416.3 303.5,416.3 303.5,422.3 297.5,422.3" fill="rgb(255,167,167)"/>
<polygon points="303.5,416.3 309.5,416.3 309.5,422.3 303.5,422.3" fill="rgb(255,193,193)"/>
<polygon points="309.5,416.3 315.5,416.3 315.5,422.3 309.5,422.3" fill="rgb(255,155,155)"/>
<polygon points="315.5,416.3 321.5,416.3 321.5,422.3 315.5,422.3" fill="rgb(255,172,172)"/>
<polygon points="321.5,416.3 327.5,416.3 327.5,422.3 321.5,422.3" fill="rgb(254,179,179)"/>
<polygon points="327.5,416.3 333.5,416.3 333.5,422.3 327.5,422.3" fill="rgb(255,167,167)"/>
<polygon points="333.5,416.3 339.5,416.3 339.5,422.3 333.5,422.3" fill="rgb(255,173,173)"/>
<polygon points="339.5,416.3 345.5,416.3 345.5,422.3 339.5,422.3" fill="rgb(255,179,179)"/>
<polygon points="345.5,416.3 351.5,416.3 351.5,422.3 345.5,422.3" fill="rgb(255,152,152)"/>
<polygon points="153.5,422.3 159.5,422.3 159.5,428.3 153.5,428.3" fill="rgb(128,0,128)"/>
<polygon points="159.5,422.3 165.5,422.3 165.5,428.3 159.5,428.3" fill="rgb(128,0,128)"/>
<polygon points="165.5,422.3 171.5,422.3 171.5,428.3 165.5,428.3" fill="rgb(255,255,255)"/>
<polygon points="171.5,422.3 177.5,422.3 177.5,428.3 171.5,428.3" fill="rgb(255,255,255)"/>
<polygon points="180.5,422.3 186.5,422.3 186.5,428.3 180.5,428.3" fill="rgb(255,255,255)"/>
<polygon points="186.5,422.3 192.5,422.3 192.5,428.3 186.5,428.3" fill="rgb(255,255,255)"/>
<polygon points="192.5,422.3 198.5,422.3 198.5,428.3 192.5,428.3" fill="rgb(255,255,255)"/>
<polygon points="198.5,422.3 204.5,422.3 204.5,428.3 198.5,428.3" fill="rgb(255,255,255)"/>
<polygon points="204.5,422.3 210.5,422.3 210.5,428.3 204.5,428.3" fill="rgb(255,255,255)"/>
<polygon points="210.5,422.3 216.5,422.3 216.5,428.3 210.5,428.3" fill="rgb(0,255,255)"/>
<polygon points="216.5,422.3 222.5,422.3 222.5,428.3 216.5,428.3" fill="rgb(255,255,255)"/>
<polygon points="222.5,422.3 228.5,422.3 228.5,428.3 222.5,428.3" fill="rgb(255,255,255)"/>
<polygon points="228.5,422.3 234.5,422.3 234.5,428.3 228.5,428.3" fill="rgb(255,255,255)"/>
<polygon points="234.5,422.3 240.5,422.3 240.5,428.3 234.5,428.3" fill="rgb(0,255,255)"/>
<polygon points="240.5,422.3 246.5,422.3 246.5,428.3 240.5,428.3" fill="rgb(0,255,255)"/>
<polygon points="246.5,422.3 252.5,422.3 252.5,428.3 246.5,428.3" fill="rgb(0,255,255)"/>
<polygon points="252.5,422.3 258.5,422.3 258.5,428.3 252.5,428.3" fill="rgb(255,255,255)"/>
<polygon points="258.5,422.3 264.5,422.3 264.5,428.3 258.5,428.3" fill="rgb(0,255,255)"/>
<polygon points="267.5,422.3 273.5,422.3 273.5,428.3 267.5,428.3" fill="rgb(237,0,0)"/>
<polygon points="273.5,422.3 279.5,422.3 279.5,428.3 273.5,428.3" fill="rgb(235,0,0)"/>
<polygon points="279.5,422.3 285.5,422.3 285.5,428.3 279.5,428.3" fill="rgb(255,5,5)"/>
<polygon points="285.5,422.3 291.5,422.3 291.5,428.3 285.5,428.3" fill="rgb(250,0,0)"/>
<polygon points="291.5,422.3 297.5,422.3 297.5,428.3 291.5,428.3" fill="rgb(255,77,77)"/>
<polygon points="297.5,422.3 303.5,422.3 303.5,428.3 297.5,428.3" fill="rgb(255,79,79)"/>
<polygon points="303.5,422.3 309.5,422.3 309.5,428.3 303.5,428.3" fill="rgb(255,140,140)"/>
<polygon points="309.5,422.3 315.5,422.3 315.5,428.3 309.5,428.3" fill="rgb(255,83,83)"/>
<polygon points="315.5,422.3 321.5,422.3 321.5,428.3 315.5,428.3" fill="rgb(255,105,105)"/>
<polygon points="321.5,422.3 327.5,422.3 327.5,428.3 321.5,428.3" fill="rgb(255,99,99)"/>
<polygon points="327.5,422.3 333.5,422.3 333.5,428.3 327.5,428.3" fill="rgb(255,81,81)"/>
<polygon points="333.5,422.3 339.5,422.3 339.5,428.3 333.5,428.3" fill="rgb(255,105,105)"/>
<polygon points="339.5,422.3 345.5,422.3 345.5,428.3 339.5,428.3" fill="rgb(255,108,108)"/>
<polygon points="345.5,422.3 351.5,422.3 351.5,428.3 345.5,428.3" fill="rgb(255,85,85)"/>
<polygon points="153.5,428.3 159.5,428.3 159.5,434.3 153.5,434.3" fill="rgb(255,255,255)"/>
<polygon points="159.5,428.3 165.5,428.3 165.5,434.3 159.5,434.3" fill="rgb(255,255,255)"/>
<polygon points="165.5,428.3 171.5,428.3 171.5,434.3 165.5,434.3" fill="rgb(255,255,255)"/>
<polygon points="171.5,428.3 177.5,428.3 177.5,434.3 171.5,434.3" fill="rgb(128,0,128)"/>
<polygon points="180.5,428.3 186.5,428.3 186.5,434.3 180.5,434.3" fill="rgb(255,255,255)"/>
<polygon points="186.5,428.3 192.5,428.3 192.5,434.3 186.5,434.3" fill="rgb(255,255,255)"/>
<polygon points="192.5,428.3 198.5,428.3 198.5,434.3 192.5,434.3" fill="rgb(255,255,255)"/>
<polygon points="198.5,428.3 204.5,428.3 204.5,434.3 198.5,434.3" fill="rgb(255,255,255)"/>
<polygon points="204.5,428.3 210.5,428.3 210.5,434.3 204.5,434.3" fill="rgb(255,255,255)"/>
<polygon points="210.5,428.3 216.5,428.3 216.5,434.3 210.5,434.3" fill="rgb(255,255,255)"/>
<polygon points="216.5,428.3 222.5,428.3 222.5,434.3 216.5,434.3" fill="rgb(255,255,255)"/>
<polygon points="222.5,428.3 228.5,428.3 228.5,434.3 222.5,434.3" fill="rgb(255,255,255)"/>
<polygon points="228.5,428.3 234.5,428.3 234.5,434.3 228.5,434.3" fill="rgb(255,255,255)"/>
<polygon points="234.5,428.3 240.5,428.3 240.5,434.3 234.5,434.3" fill="rgb(255,255,255)"/>
<polygon points="240.5,428.3 246.5,428.3 246.5,434.3 240.5,434.3" fill="rgb(255,255,255)"/>
<polygon points="246.5,428.3 252.5,428.3 252.5,434.3 246.5,434.3" fill="rgb(255,255,255)"/>
<polygon points="252.5,428.3 258.5,428.3 258.5,434.3 252.5,434.3" fill="rgb(0,255,255)"/>
<polygon points="258.5,428.3 264.5,428.3 264.5,434.3 258.5,434.3" fill="rgb(0,255,255)"/>
<polygon points="267.5,428.3 273.5,428.3 273.5,434.3 267.5,434.3" fill="rgb(255,153,153)"/>
<polygon points="273.5,428.3 279.5,428.3 279.5,434.3 273.5,434.3" fill="rgb(255,139,139)"/>
<polygon points="279.5,428.3 285.5,428.3 285.5,434.3 279.5,434.3" fill="rgb(255,178,178)"/>
<polygon points="285.5,428.3 291.5,428.3 291.5,434.3 285.5,434.3" fill="rgb(255,167,167)"/>
<polygon points="291.5,428.3 297.5,428.3 297.5,434.3 291.5,434.3" fill="rgb(255,211,211)"/>
<polygon points="297.5,428.3 303.5,428.3 303.5,434.3 297.5,434.3" fill="rgb(255,217,217)"/>
<polygon points="303.5,428.3 309.5,428.3 309.5,434.3 303.5,434.3" fill="rgb(255,242,242)"/>
<polygon points="309.5,428.3 315.5,428.3 315.5,434.3 309.5,434.3" fill="rgb(255,210,210)"/>
<polygon points="315.5,428.3 321.5,428.3 321.5,434.3 315.5,434.3" fill="rgb(255,225,225)"/>
<polygon points="321.5,428.3 327.5,428.3 327.5,434.3 321.5,434.3" fill="rgb(255,197,197)"/>
<polygon points="327.5,428.3 333.5,428.3 333.5,434.3 327.5,434.3" fill="rgb(255,187,187)"/>
<polygon points="333.5,428.3 339.5,428.3 339.5,434.3 333.5,434.3" fill="rgb(255,218,218)"/>
<polygon points="339.5,428.3 345.5,428.3 345.5,434.3 339.5,434.3" fill="rgb(254,208,208)"/>
<polygon points="345.5,428.3 351.5,428.3 351.5,434.3 345.5,434.3" fill="rgb(255,222,222)"/>
<polygon points="153.5,434.3 159.5,434.3 159.5,440.3 153.5,440.3" fill="rgb(255,255,255)"/>
<polygon points="159.5,434.3 165.5,434.3 165.5,440.3 159.5,440.3" fill="rgb(255,255,255)"/>
<polygon points="165.5,434.3 171.5,434.3 171.5,440.3 165.5,440.3" fill="rgb(255,255,255)"/>
<polygon points="171.5,434.3 177.5,434.3 177.5,440.3 171.5,440.3" fill="rgb(255,255,255)"/>
<polygon points="180.5,434.3 186.5,434.3 186.5,440.3 180.5,440.3" fill="rgb(0,255,255)"/>
<polygon points="186.5,434.3 192.5,434.3 192.5,440.3 186.5,440.3" fill="rgb(0,255,255)"/>
<polygon points="192.5,434.3 198.5,434.3 198.5,440.3 192.5,440.3" fill="rgb(0,255,255)"/>
<polygon points="198.5,434.3 204.5,434.3 204.5,440.3 198.5,440.3" fill="rgb(255,255,255)"/>
<polygon points="204.5,434.3 210.5,434.3 210.5,440.3 204.5,440.3" fill="rgb(255,255,255)"/>
<polygon points="210.5,434.3 216.5,434.3 216.5,440.3 210.5,440.3" fill="rgb(255,255,255)"/>
<polygon points="216.5,434.3 222.5,434.3 222.5,440.3 216.5,440.3" fill="rgb(255,255,255)"/>
<polygon points="222.5,434.3 228.5,434.3 228.5,440.3 222.5,440.3" fill="rgb(255,255,255)"/>
<polygon points="228.5,434.3 234.5,434.3 234.5,440.3 228.5,440.3" fill="rgb(255,255,255)"/>
<polygon points="234.5,434.3 240.5,434.3 240.5,440.3 234.5,440.3" fill="rgb(255,255,255)"/>
<polygon points="240.5,434.3 246.5,434.3 246.5,440.3 240.5,440.3" fill="rgb(255,255,255)"/>
<polygon points="246.5,434.3 252.5,434.3 252.5,440.3 246.5,440.3" fill="rgb(255,255,255)"/>
<polygon points="252.5,434.3 258.5,434.3 258.5,440.3 252.5,440.3" fill="rgb(0,255,255)"/>
<polygon points="258.5,434.3 264.5,434.3 264.5,440.3 258.5,440.3" fill="rgb(0,255,255)"/>
<polygon points="267.5,434.3 273.5,434.3 273.5,440.3 267.5,440.3" fill="rgb(252,0,0)"/>
<polygon points="273.5,434.3 279.5,434.3 279.5,440.3 273.5,440.3" fill="rgb(243,0,0)"/>
<polygon points="279.5,434.3 285.5,434.3 285.5,440.3 279.5,440.3" fill="rgb(255,26,26)"/>
<polygon points="285.5,434.3 291.5,434.3 291.5,440.3 285.5,440.3" fill="rgb(255,21,21)"/>
<polygon points="291.5,434.3 297.5,434.3 297.5,440.3 291.5,440.3" fill="rgb(255,113,113)"/>
<polygon points="297.5,434.3 303.5,434.3 303.5,440.3 297.5,440.3" fill="rgb(255,49,49)"/>
<polygon points="303.5,434.3 309.5,434.3 309.5,440.3 303.5,440.3" fill="rgb(255,147,147)"/>
<polygon points="309.5,434.3 315.5,434.3 315.5,440.3 309.5,440.3" fill="rgb(255,69,69)"/>
<polygon points="315.5,434.3 321.5,434.3 321.5,440.3 315.5,440.3" fill="rgb(255,81,81)"/>
<polygon points="321.5,434.3 327.5,434.3 327.5,440.3 321.5,440.3" fill="rgb(255,65,65)"/>
<polygon points="327.5,434.3 333.5,434.3 333.5,440.3 327.5,440.3" fill="rgb(255,59,59)"/>
<polygon points="333.5,434.3 339.5,434.3 339.5,440.3 333.5,440.3" fill="rgb(255,122,122)"/>
<polygon points="339.5,434.3 345.5,434.3 345.5,440.3 339.5,440.3" fill="rgb(255,132,132)"/>
<polygon points="345.5,434.3 351.5,434.3 351.5,440.3 345.5,440.3" fill="rgb(255,113,113)"/>
<polygon points="153.5,440.3 159.5,440.3 159.5,446.3 153.5,446.3" fill="rgb(255,255,255)"/>
<polygon points="159.5,440.3 165.5,440.3 165.5,446.3 159.5,446.3" fill="rgb(255,255,255)"/>
<polygon points="165.5,440.3 171.5,440.3 171.5,446.3 165.5,446.3" fill="rgb(255,255,255)"/>
<polygon points="171.5,440.3 177.5,440.3 177.5,446.3 171.5,446.3" fill="rgb(255,255,255)"/>
<polygon points="180.5,440.3 186.5,440.3 186.5,446.3 180.5,446.3" fill="rgb(0,255,255)"/>
<polygon points="186.5,440.3 192.5,440.3 192.5,446.3 186.5,446.3" fill="rgb(0,255,255)"/>
<polygon points="192.5,440.3 198.5,440.3 198.5,446.3 192.5,446.3" fill="rgb(255,255,255)"/>
<polygon points="198.5,440.3 204.5,440.3 204.5,446.3 198.5,446.3" fill="rgb(255,255,255)"/>
<polygon points="204.5,440.3 210.5,440.3 210.5,446.3 204.5,446.3" fill="rgb(255,255,255)"/>
<polygon points="210.5,440.3 216.5,440.3 216.5,446.3 210.5,446.3" fill="rgb(255,255,255)"/>
<polygon points="216.5,440.3 222.5,440.3 222.5,446.3 216.5,446.3" fill="rgb(255,255,255)"/>
<polygon points="222.5,440.3 228.5,440.3 228.5,446.3 222.5,446.3" fill="rgb(255,255,255)"/>
<polygon points="228.5,440.3 234.5,440.3 234.5,446.3 228.5,446.3" fill="rgb(255,255,255)"/>
<polygon points="234.5,440.3 240.5,440.3 240.5,446.3 234.5,446.3" fill="rgb(255,255,255)"/>
<polygon points="240.5,440.3 246.5,440.3 246.5,446.3 240.5,446.3" fill="rgb(255,255,255)"/>
<polygon points="246.5,440.3 252.5,440.3 252.5,446.3 246.5,446.3" fill="rgb(0,255,255)"/>
<polygon points="252.5,440.3 258.5,440.3 258.5,446.3 252.5,446.3" fill="rgb(0,255,255)"/>
<polygon points="258.5,440.3 264.5,440.3 264.5,446.3 258.5,446.3" fill="rgb(0,255,255)"/>
<polygon points="267.5,440.3 273.5,440.3 273.5,446.3 267.5,446.3" fill="rgb(255,93,93)"/>
<polygon points="273.5,440.3 279.5,440.3 279.5,446.3 273.5,446.3" fill="rgb(255,81,81)"/>
<polygon points="279.5,440.3 285.5,440.3 285.5,446.3 279.5,446.3" fill="rgb(255,110,110)"/>
<polygon points="285.5,440.3 291.5,440.3 291.5,446.3 285.5,446.3" fill="rgb(255,98,98)"/>
<polygon points="291.5,440.3 297.5,440.3 297.5,446.3 291.5,446.3" fill="rgb(255,172,172)"/>
<polygon points="297.5,440.3 303.5,440.3 303.5,446.3 297.5,446.3" fill="rgb(255,159,159)"/>
<polygon points="303.5,440.3 309.5,440.3 309.5,446.3 303.5,446.3" fill="rgb(255,213,213)"/>
<polygon points="309.5,440.3 315.5,440.3 315.5,446.3 309.5,446.3" fill="rgb(255,174,174)"/>
<polygon points="315.5,440.3 321.5,440.3 321.5,446.3 315.5,446.3" fill="rgb(255,194,194)"/>
<polygon points="321.5,440.3 327.5,440.3 327.5,446.3 321.5,446.3" fill="rgb(254,150,150)"/>
<polygon points="327.5,440.3 333.5,440.3 333.5,446.3 327.5,446.3" fill="rgb(255,121,121)"/>
<polygon points="333.5,440.3 339.5,440.3 339.5,446.3 333.5,446.3" fill="rgb(255,185,185)"/>
<polygon points="339.5,440.3 345.5,440.3 345.5,446.3 339.5,446.3" fill="rgb(255,181,181)"/>
<polygon points="345.5,440.3 351.5,440.3 351.5,446.3 345.5,446.3" fill="rgb(255,139,139)"/>
<polygon points="153.5,449.3 159.5,449.3 159.5,455.3 153.5,455.3" fill="rgb(255,255,255)"/>
<polygon points="159.5,449.3 165.5,449.3 165.5,455.3 159.5,455.3" fill="rgb(255,255,255)"/>
<polygon points="165.5,449.3 171.5,449.3 171.5,455.3 165.5,455.3" fill="rgb(255,255,255)"/>
<polygon points="171.5,449.3 177.5,449.3 177.5,455.3 171.5,455.3" fill="rgb(255,255,255)"/>
<polygon points="180.5,449.3 186.5,449.3 186.5,455.3 180.5,455.3" fill="rgb(255,255,255)"/>
<polygon points="186.5,449.3 192.5,449.3 192.5,455.3 186.5,455.3" fill="rgb(255,255,255)"/>
<polygon points="192.5,449.3 198.5,449.3 198.5,455.3 192.5,455.3" fill="rgb(255,255,255)"/>
<polygon points="198.5,449.3 204.5,449.3 204.5,455.3 198.5,455.3" fill="rgb(255,255,255)"/>
<polygon points="204.5,449.3 210.5,449.3 210.5,455.3 204.5,455.3" fill="rgb(255,255,255)"/>
<polygon points="210.5,449.3 216.5,449.3 216.5,455.3 210.5,455.3" fill="rgb(255,255,255)"/>
<polygon points="216.5,449.3 222.5,449.3 222.5,455.3 216.5,455.3" fill="rgb(255,255,255)"/>
<polygon points="222.5,449.3 228.5,449.3 228.5,455.3 222.5,455.3" fill="rgb(255,255,255)"/>
<polygon points="228.5,449.3 234.5,449.3 234.5,455.3 228.5,455.3" fill="rgb(255,255,255)"/>
<polygon points="234.5,449.3 240.5,449.3 240.5,455.3 234.5,455.3" fill="rgb(255,255,255)"/>
<polygon points="240.5,449.3 246.5,449.3 246.5,455.3 240.5,455.3" fill="rgb(255,255,255)"/>
<polygon points="246.5,449.3 252.5,449.3 252.5,455.3 246.5,455.3" fill="rgb(255,255,255)"/>
<polygon points="252.5,449.3 258.5,449.3 258.5,455.3 252.5,455.3" fill="rgb(255,255,255)"/>
<polygon points="258.5,449.3 264.5,449.3 264.5,455.3 258.5,455.3" fill="rgb(255,255,255)"/>
<polygon points="267.5,449.3 273.5,449.3 273.5,455.3 267.5,455.3" fill="rgb(0,0,255)"/>
<polygon points="273.5,449.3 279.5,449.3 279.5,455.3 273.5,455.3" fill="rgb(0,0,255)"/>
<polygon points="279.5,449.3 285.5,449.3 285.5,455.3 279.5,455.3" fill="rgb(238,238,255)"/>
<polygon points="285.5,449.3 291.5,449.3 291.5,455.3 285.5,455.3" fill="rgb(0,0,255)"/>
<polygon points="291.5,449.3 297.5,449.3 297.5,455.3 291.5,455.3" fill="rgb(148,148,255)"/>
<polygon points="297.5,449.3 303.5,449.3 303.5,455.3 297.5,455.3" fill="rgb(0,0,255)"/>
<polygon points="303.5,449.3 309.5,449.3 309.5,455.3 303.5,455.3" fill="rgb(255,212,212)"/>
<polygon points="309.5,449.3 315.5,449.3 315.5,455.3 309.5,455.3" fill="rgb(0,0,255)"/>
<polygon points="315.5,449.3 321.5,449.3 321.5,455.3 315.5,455.3" fill="rgb(255,251,251)"/>
<polygon points="321.5,449.3 327.5,449.3 327.5,455.3 321.5,455.3" fill="rgb(0,0,255)"/>
<polygon points="327.5,449.3 333.5,449.3 333.5,455.3 327.5,455.3" fill="rgb(0,0,255)"/>
<polygon points="333.5,449.3 339.5,449.3 339.5,455.3 333.5,455.3" fill="rgb(255,179,179)"/>
<polygon points="339.5,449.3 345.5,449.3 345.5,455.3 339.5,455.3" fill="rgb(255,188,188)"/>
<polygon points="345.5,449.3 351.5,449.3 351.5,455.3 345.5,455.3" fill="rgb(255,221,221)"/>
<polygon points="153.5,455.3 159.5,455.3 159.5,461.3 153.5,461.3" fill="rgb(255,255,255)"/>
<polygon points="159.5,455.3 165.5,455.3 165.5,461.3 159.5,461.3" fill="rgb(255,255,255)"/>
<polygon points="165.5,455.3 171.5,455.3 171.5,461.3 165.5,461.3" fill="rgb(255,255,255)"/>
<polygon points="171.5,455.3 177.5,455.3 177.5,461.3 171.5,461.3" fill="rgb(255,255,255)"/>
<polygon points="180.5,455.3 186.5,455.3 186.5,461.3 180.5,461.3" fill="rgb(255,255,255)"/>
<polygon points="186.5,455.3 192.5,455.3 192.5,461.3 186.5,461.3" fill="rgb(255,255,255)"/>
<polygon points="192.5,455.3 198.5,455.3 198.5,461.3 192.5,461.3" fill="rgb(255,255,255)"/>
<polygon points="198.5,455.3 204.5,455.3 204.5,461.3 198.5,461.3" fill="rgb(255,255,255)"/>
<polygon points="204.5,455.3 210.5,455.3 210.5,461.3 204.5,461.3" fill="rgb(255,255,255)"/>
<polygon points="210.5,455.3 216.5,455.3 216.5,461.3 210.5,461.3" fill="rgb(255,255,255)"/>
<polygon points="216.5,455.3 222.5,455.3 222.5,461.3 216.5,461.3" fill="rgb(255,255,255)"/>
<polygon points="222.5,455.3 228.5,455.3 228.5,461.3 222.5,461.3" fill="rgb(255,255,255)"/>
<polygon points="228.5,455.3 234.5,455.3 234.5,461.3 228.5,461.3" fill="rgb(255,255,255)"/>
<polygon points="234.5,455.3 240.5,455.3 240.5,461.3 234.5,461.3" fill="rgb(255,255,255)"/>
<polygon points="240.5,455.3 246.5,455.3 246.5,461.3 240.5,461.3" fill="rgb(255,255,255)"/>
<polygon points="246.5,455.3 252.5,455.3 252.5,461.3 246.5,461.3" fill="rgb(255,255,255)"/>
<polygon points="252.5,455.3 258.5,455.3 258.5,461.3 252.5,461.3" fill="rgb(255,255,255)"/>
<polygon points="258.5,455.3 264.5,455.3 264.5,461.3 258.5,461.3" fill="rgb(255,255,255)"/>
<polygon points="267.5,455.3 273.5,455.3 273.5,461.3 267.5,461.3" fill="rgb(255,196,196)"/>
<polygon points="273.5,455.3 279.5,455.3 279.5,461.3 273.5,461.3" fill="rgb(255,179,179)"/>
<polygon points="279.5,455.3 285.5,455.3 285.5,461.3 279.5,461.3" fill="rgb(255,211,211)"/>
<polygon points="285.5,455.3 291.5,455.3 291.5,461.3 285.5,461.3" fill="rgb(255,201,201)"/>
<polygon points="291.5,455.3 297.5,455.3 297.5,461.3 291.5,461.3" fill="rgb(0,0,255)"/>
<polygon points="297.5,455.3 303.5,455.3 303.5,461.3 297.5,461.3" fill="rgb(0,0,255)"/>
<polygon points="303.5,455.3 309.5,455.3 309.5,461.3 303.5,461.3" fill="rgb(0,0,255)"/>
<polygon points="309.5,455.3 315.5,455.3 315.5,461.3 309.5,461.3" fill="rgb(179,179,255)"/>
<polygon points="315.5,455.3 321.5,455.3 321.5,461.3 315.5,461.3" fill="rgb(0,0,255)"/>
<polygon points="321.5,455.3 327.5,455.3 327.5,461.3 321.5,461.3" fill="rgb(0,0,255)"/>
<polygon points="327.5,455.3 333.5,455.3 333.5,461.3 327.5,461.3" fill="rgb(0,0,255)"/>
<polygon points="333.5,455.3 339.5,455.3 339.5,461.3 333.5,461.3" fill="rgb(0,0,255)"/>
<polygon points="339.5,455.3 345.5,455.3 345.5,461.3 339.5,461.3" fill="rgb(0,0,255)"/>
<polygon points="345.5,455.3 351.5,455.3 351.5,461.3 345.5,461.3" fill="rgb(0,0,255)"/>
<polygon points="153.5,461.3 159.5,461.3 159.5,467.3 153.5,467.3" fill="rgb(255,255,255)"/>
<polygon points="159.5,461.3 165.5,461.3 165.5,467.3 159.5,467.3" fill="rgb(255,255,255)"/>
<polygon points="165.5,461.3 171.5,461.3 171.5,467.3 165.5,467.3" fill="rgb(255,255,255)"/>
<polygon points="171.5,461.3 177.5,461.3 177.5,467.3 171.5,467.3" fill="rgb(255,255,255)"/>
<polygon points="180.5,461.3 186.5,461.3 186.5,467.3 180.5,467.3" fill="rgb(255,255,255)"/>
<polygon points="186.5,461.3 192.5,461.3 192.5,467.3 186.5,467.3" fill="rgb(255,255,255)"/>
<polygon points="192.5,461.3 198.5,461.3 198.5,467.3 192.5,467.3" fill="rgb(255,255,255)"/>
<polygon points="198.5,461.3 204.5,461.3 204.5,467.3 198.5,467.3" fill="rgb(255,255,255)"/>
<polygon points="204.5,461.3 210.5,461.3 210.5,467.3 204.5,467.3" fill="rgb(255,255,255)"/>
<polygon points="210.5,461.3 216.5,461.3 216.5,467.3 210.5,467.3" fill="rgb(255,255,255)"/>
<polygon points="216.5,461.3 222.5,461.3 222.5,467.3 216.5,467.3" fill="rgb(255,255,255)"/>
<polygon points="222.5,461.3 228.5,461.3 228.5,467.3 222.5,467.3" fill="rgb(255,255,255)"/>
<polygon points="228.5,461.3 234.5,461.3 234.5,467.3 228.5,467.3" fill="rgb(255,255,255)"/>
<polygon points="234.5,461.3 240.5,461.3 240.5,467.3 234.5,467.3" fill="rgb(255,255,255)"/>
<polygon points="240.5,461.3 246.5,461.3 246.5,467.3 240.5,467.3" fill="rgb(255,255,255)"/>
<polygon points="246.5,461.3 252.5,461.3 252.5,467.3 246.5,467.3" fill="rgb(255,255,255)"/>
<polygon points="252.5,461.3 258.5,461.3 258.5,467.3 252.5,467.3" fill="rgb(255,255,255)"/>
<polygon points="258.5,461.3 264.5,461.3 264.5,467.3 258.5,467.3" fill="rgb(255,255,255)"/>
<polygon points="267.5,461.3 273.5,461.3 273.5,467.3 267.5,467.3" fill="rgb(0,0,255)"/>
<polygon points="273.5,461.3 279.5,461.3 279.5,467.3 273.5,467.3" fill="rgb(0,0,255)"/>
<polygon points="279.5,461.3 285.5,461.3 285.5,467.3 279.5,467.3" fill="rgb(255,230,230)"/>
<polygon points="285.5,461.3 291.5,461.3 291.5,467.3 285.5,467.3" fill="rgb(255,251,251)"/>
<polygon points="291.5,461.3 297.5,461.3 297.5,467.3 291.5,467.3" fill="rgb(115,115,255)"/>
<polygon points="297.5,461.3 303.5,461.3 303.5,467.3 297.5,467.3" fill="rgb(0,0,255)"/>
<polygon points="303.5,461.3 309.5,461.3 309.5,467.3 303.5,467.3" fill="rgb(254,238,238)"/>
<polygon points="309.5,461.3 315.5,461.3 315.5,467.3 309.5,467.3" fill="rgb(212,212,255)"/>
<polygon points="315.5,461.3 321.5,461.3 321.5,467.3 315.5,467.3" fill="rgb(0,0,255)"/>
<polygon points="321.5,461.3 327.5,461.3 327.5,467.3 321.5,467.3" fill="rgb(34,34,255)"/>
<polygon points="327.5,461.3 333.5,461.3 333.5,467.3 327.5,467.3" fill="rgb(255,247,247)"/>
<polygon points="333.5,461.3 339.5,461.3 339.5,467.3 333.5,467.3" fill="rgb(254,199,199)"/>
<polygon points="339.5,461.3 345.5,461.3 345.5,467.3 339.5,467.3" fill="rgb(255,214,214)"/>
<polygon points="345.5,461.3 351.5,461.3 351.5,467.3 345.5,467.3" fill="rgb(255,235,235)"/>
<polygon points="153.5,467.3 159.5,467.3 159.5,473.3 153.5,473.3" fill="rgb(255,255,255)"/>
<polygon points="159.5,467.3 165.5,467.3 165.5,473.3 159.5,473.3" fill="rgb(255,255,255)"/>
<polygon points="165.5,467.3 171.5,467.3 171.5,473.3 165.5,473.3" fill="rgb(255,255,255)"/>
<polygon points="171.5,467.3 177.5,467.3 177.5,473.3 171.5,473.3" fill="rgb(255,255,255)"/>
<polygon points="180.5,467.3 186.5,467.3 186.5,473.3 180.5,473.3" fill="rgb(255,255,255)"/>
<polygon points="186.5,467.3 192.5,467.3 192.5,473.3 186.5,473.3" fill="rgb(255,255,255)"/>
<polygon points="192.5,467.3 198.5,467.3 198.5,473.3 192.5,473.3" fill="rgb(255,255,255)"/>
<polygon points="198.5,467.3 204.5,467.3 204.5,473.3 198.5,473.3" fill="rgb(255,255,255)"/>
<polygon points="204.5,467.3 210.5,467.3 210.5,473.3 204.5,473.3" fill="rgb(255,255,255)"/>
<polygon points="210.5,467.3 216.5,467.3 216.5,473.3 210.5,473.3" fill="rgb(255,255,255)"/>
<polygon points="216.5,467.3 222.5,467.3 222.5,473.3 216.5,473.3" fill="rgb(255,255,255)"/>
<polygon points="222.5,467.3 228.5,467.3 228.5,473.3 222.5,473.3" fill="rgb(255,255,255)"/>
<polygon points="228.5,467.3 234.5,467.3 234.5,473.3 228.5,473.3" fill="rgb(255,255,255)"/>
<polygon points="234.5,467.3 240.5,467.3 240.5,473.3 234.5,473.3" fill="rgb(255,255,255)"/>
<polygon points="240.5,467.3 246.5,467.3 246.5,473.3 240.5,473.3" fill="rgb(255,255,255)"/>
<polygon points="246.5,467.3 252.5,467.3 252.5,473.3 246.5,473.3" fill="rgb(255,255,255)"/>
<polygon points="252.5,467.3 258.5,467.3 258.5,473.3 252.5,473.3" fill="rgb(255,255,255)"/>
<polygon points="258.5,467.3 264.5,467.3 264.5,473.3 258.5,473.3" fill="rgb(255,255,255)"/>
<polygon points="267.5,467.3 273.5,467.3 273.5,473.3 267.5,473.3" fill="rgb(254,235,235)"/>
<polygon points="273.5,467.3 279.5,467.3 279.5,473.3 273.5,473.3" fill="rgb(255,223,223)"/>
<polygon points="279.5,467.3 285.5,467.3 285.5,473.3 279.5,473.3" fill="rgb(254,254,254)"/>
<polygon points="285.5,467.3 291.5,467.3 291.5,473.3 285.5,473.3" fill="rgb(0,0,255)"/>
<polygon points="291.5,467.3 297.5,467.3 297.5,473.3 291.5,473.3" fill="rgb(0,0,255)"/>
<polygon points="297.5,467.3 303.5,467.3 303.5,473.3 297.5,473.3" fill="rgb(6,6,254)"/>
<polygon points="303.5,467.3 309.5,467.3 309.5,473.3 303.5,473.3" fill="rgb(0,0,255)"/>
<polygon points="309.5,467.3 315.5,467.3 315.5,473.3 309.5,473.3" fill="rgb(0,0,255)"/>
<polygon points="315.5,467.3 321.5,467.3 321.5,473.3 315.5,473.3" fill="rgb(0,0,255)"/>
<polygon points="321.5,467.3 327.5,467.3 327.5,473.3 321.5,473.3" fill="rgb(0,0,255)"/>
<polygon points="327.5,467.3 333.5,467.3 333.5,473.3 327.5,473.3" fill="rgb(92,92,254)"/>
<polygon points="333.5,467.3 339.5,467.3 339.5,473.3 333.5,473.3" fill="rgb(0,0,255)"/>
<polygon points="339.5,467.3 345.5,467.3 345.5,473.3 339.5,473.3" fill="rgb(10,10,255)"/>
<polygon points="345.5,467.3 351.5,467.3 351.5,473.3 345.5,473.3" fill="rgb(255,215,215)"/>
<polygon points="153.5,473.3 159.5,473.3 159.5,479.3 153.5,479.3" fill="rgb(255,255,255)"/>
<polygon points="159.5,473.3 165.5,473.3 165.5,479.3 159.5,479.3" fill="rgb(255,255,255)"/>
<polygon points="165.5,473.3 171.5,473.3 171.5,479.3 165.5,479.3" fill="rgb(255,255,255)"/>
<polygon points="171.5,473.3 177.5,473.3 177.5,479.3 171.5,479.3" fill="rgb(255,255,255)"/>
<polygon points="180.5,473.3 186.5,473.3 186.5,479.3 180.5,479.3" fill="rgb(255,255,255)"/>
<polygon points="186.5,473.3 192.5,473.3 192.5,479.3 186.5,479.3" fill="rgb(255,255,255)"/>
<polygon points="192.5,473.3 198.5,473.3 198.5,479.3 192.5,479.3" fill="rgb(255,255,255)"/>
<polygon points="198.5,473.3 204.5,473.3 204.5,479.3 198.5,479.3" fill="rgb(255,255,255)"/>
<polygon points="204.5,473.3 210.5,473.3 210.5,479.3 204.5,479.3" fill="rgb(255,255,255)"/>
<polygon points="210.5,473.3 216.5,473.3 216.5,479.3 210.5,479.3" fill="rgb(255,255,255)"/>
<polygon points="216.5,473.3 222.5,473.3 222.5,479.3 216.5,479.3" fill="rgb(255,255,255)"/>
<polygon points="222.5,473.3 228.5,473.3 228.5,479.3 222.5,479.3" fill="rgb(255,255,255)"/>
<polygon points="228.5,473.3 234.5,473.3 234.5,479.3 228.5,479.3" fill="rgb(255,255,255)"/>
<polygon points="234.5,473.3 240.5,473.3 240.5,479.3 234.5,479.3" fill="rgb(255,255,255)"/>
<polygon points="240.5,473.3 246.5,473.3 246.5,479.3 240.5,479.3" fill="rgb(255,255,255)"/>
<polygon points="246.5,473.3 252.5,473.3 252.5,479.3 246.5,479.3" fill="rgb(255,255,255)"/>
<polygon points="252.5,473.3 258.5,473.3 258.5,479.3 252.5,479.3" fill="rgb(255,255,255)"/>
<polygon points="258.5,473.3 264.5,473.3 264.5,479.3 258.5,479.3" fill="rgb(255,255,255)"/>
<polygon points="267.5,473.3 273.5,473.3 273.5,479.3 267.5,479.3" fill="rgb(242,0,0)"/>
<polygon points="273.5,473.3 279.5,473.3 279.5,479.3 273.5,479.3" fill="rgb(241,0,0)"/>
<polygon points="279.5,473.3 285.5,473.3 285.5,479.3 279.5,479.3" fill="rgb(247,0,0)"/>
<polygon points="285.5,473.3 291.5,473.3 291.5,479.3 285.5,479.3" fill="rgb(255,48,48)"/>
<polygon points="291.5,473.3 297.5,473.3 297.5,479.3 291.5,479.3" fill="rgb(255,56,56)"/>
<polygon points="297.5,473.3 303.5,473.3 303.5,479.3 297.5,479.3" fill="rgb(255,61,61)"/>
<polygon points="303.5,473.3 309.5,473.3 309.5,479.3 303.5,479.3" fill="rgb(255,129,129)"/>
<polygon points="309.5,473.3 315.5,473.3 315.5,479.3 309.5,479.3" fill="rgb(255,69,69)"/>
<polygon points="315.5,473.3 321.5,473.3 321.5,479.3 315.5,479.3" fill="rgb(255,84,84)"/>
<polygon points="321.5,473.3 327.5,473.3 327.5,479.3 321.5,479.3" fill="rgb(255,90,90)"/>
<polygon points="327.5,473.3 333.5,473.3 333.5,479.3 327.5,479.3" fill="rgb(255,76,76)"/>
<polygon points="333.5,473.3 339.5,473.3 339.5,479.3 333.5,479.3" fill="rgb(255,82,82)"/>
<polygon points="339.5,473.3 345.5,473.3 345.5,479.3 339.5,479.3" fill="rgb(255,86,86)"/>
<polygon points="345.5,473.3 351.5,473.3 351.5,479.3 345.5,479.3" fill="rgb(255,79,79)"/>
<polygon points="153.5,479.3 159.5,479.3 159.5,485.3 153.5,485.3" fill="rgb(255,255,255)"/>
<polygon points="159.5,479.3 165.5,479.3 165.5,485.3 159.5,485.3" fill="rgb(255,255,255)"/>
<polygon points="165.5,479.3 171.5,479.3 171.5,485.3 165.5,485.3" fill="rgb(255,255,255)"/>
<polygon points="171.5,479.3 177.5,479.3 177.5,485.3 171.5,485.3" fill="rgb(255,255,255)"/>
<polygon points="180.5,479.3 186.5,479.3 186.5,485.3 180.5,485.3" fill="rgb(255,255,255)"/>
<polygon points="186.5,479.3 192.5,479.3 192.5,485.3 186.5,485.3" fill="rgb(255,255,255)"/>
<polygon points="192.5,479.3 198.5,479.3 198.5,485.3 192.5,485.3" fill="rgb(255,255,255)"/>
<polygon points="198.5,479.3 204.5,479.3 204.5,485.3 198.5,485.3" fill="rgb(255,255,255)"/>
<polygon points="204.5,479.3 210.5,479.3 210.5,485.3 204.5,485.3" fill="rgb(255,255,255)"/>
<polygon points="210.5,479.3 216.5,479.3 216.5,485.3 210.5,485.3" fill="rgb(255,255,255)"/>
<polygon points="216.5,479.3 222.5,479.3 222.5,485.3 216.5,485.3" fill="rgb(255,255,255)"/>
<polygon points="222.5,479.3 228.5,479.3 228.5,485.3 222.5,485.3" fill="rgb(255,255,255)"/>
<polygon points="228.5,479.3 234.5,479.3 234.5,485.3 228.5,485.3" fill="rgb(255,255,255)"/>
<polygon points="234.5,479.3 240.5,479.3 240.5,485.3 234.5,485.3" fill="rgb(255,255,255)"/>
<polygon points="240.5,479.3 246.5,479.3 246.5,485.3 240.5,485.3" fill="rgb(255,255,255)"/>
<polygon points="246.5,479.3 252.5,479.3 252.5,485.3 246.5,485.3" fill="rgb(255,255,255)"/>
<polygon points="252.5,479.3 258.5,479.3 258.5,485.3 252.5,485.3" fill="rgb(255,255,255)"/>
<polygon points="258.5,479.3 264.5,479.3 264.5,485.3 258.5,485.3" fill="rgb(255,255,255)"/>
<polygon points="267.5,479.3 273.5,479.3 273.5,485.3 267.5,485.3" fill="rgb(255,229,229)"/>
<polygon points="273.5,479.3 279.5,479.3 279.5,485.3 273.5,485.3" fill="rgb(255,240,240)"/>
<polygon points="279.5,479.3 285.5,479.3 285.5,485.3 279.5,485.3" fill="rgb(255,228,228)"/>
<polygon points="285.5,479.3 291.5,479.3 291.5,485.3 285.5,485.3" fill="rgb(255,232,232)"/>
<polygon points="291.5,479.3 297.5,479.3 297.5,485.3 291.5,485.3" fill="rgb(255,253,253)"/>
<polygon points="297.5,479.3 303.5,479.3 303.5,485.3 297.5,485.3" fill="rgb(255,231,231)"/>
<polygon points="303.5,479.3 309.5,479.3 309.5,485.3 303.5,485.3" fill="rgb(0,0,255)"/>
<polygon points="309.5,479.3 315.5,479.3 315.5,485.3 309.5,485.3" fill="rgb(0,0,255)"/>
<polygon points="315.5,479.3 321.5,479.3 321.5,485.3 315.5,485.3" fill="rgb(0,0,255)"/>
<polygon points="321.5,479.3 327.5,479.3 327.5,485.3 321.5,485.3" fill="rgb(0,0,255)"/>
<polygon points="327.5,479.3 333.5,479.3 333.5,485.3 327.5,485.3" fill="rgb(0,0,255)"/>
<polygon points="333.5,479.3 339.5,479.3 339.5,485.3 333.5,485.3" fill="rgb(0,0,255)"/>
<polygon points="339.5,479.3 345.5,479.3 345.5,485.3 339.5,485.3" fill="rgb(0,0,255)"/>
<polygon points="345.5,479.3 351.5,479.3 351.5,485.3 345.5,485.3" fill="rgb(0,0,255)"/>
<polygon points="153.5,485.3 159.5,485.3 159.5,491.3 153.5,491.3" fill="rgb(255,255,255)"/>
<polygon points="159.5,485.3 165.5,485.3 165.5,491.3 159.5,491.3" fill="rgb(255,255,255)"/>
<polygon points="165.5,485.3 171.5,485.3 171.5,491.3 165.5,491.3" fill="rgb(255,255,255)"/>
<polygon points="171.5,485.3 177.5,485.3 177.5,491.3 171.5,491.3" fill="rgb(255,255,255)"/>
<polygon points="180.5,485.3 186.5,485.3 186.5,491.3 180.5,491.3" fill="rgb(255,255,255)"/>
<polygon points="186.5,485.3 192.5,485.3 192.5,491.3 186.5,491.3" fill="rgb(255,255,255)"/>
<polygon points="192.5,485.3 198.5,485.3 198.5,491.3 192.5,491.3" fill="rgb(255,255,255)"/>
<polygon points="198.5,485.3 204.5,485.3 204.5,491.3 198.5,491.3" fill="rgb(255,255,255)"/>
<polygon points="204.5,485.3 210.5,485.3 210.5,491.3 204.5,491.3" fill="rgb(255,255,255)"/>
<polygon points="210.5,485.3 216.5,485.3 216.5,491.3 210.5,491.3" fill="rgb(255,255,255)"/>
<polygon points="216.5,485.3 222.5,485.3 222.5,491.3 216.5,491.3" fill="rgb(255,255,255)"/>
<polygon points="222.5,485.3 228.5,485.3 228.5,491.3 222.5,491.3" fill="rgb(255,255,255)"/>
<polygon points="228.5,485.3 234.5,485.3 234.5,491.3 228.5,491.3" fill="rgb(255,255,255)"/>
<polygon points="234.5,485.3 240.5,485.3 240.5,491.3 234.5,491.3" fill="rgb(255,255,255)"/>
<polygon points="240.5,485.3 246.5,485.3 246.5,491.3 240.5,491.3" fill="rgb(255,255,255)"/>
<polygon points="246.5,485.3 252.5,485.3 252.5,491.3 246.5,491.3" fill="rgb(255,255,255)"/>
<polygon points="252.5,485.3 258.5,485.3 258.5,491.3 252.5,491.3" fill="rgb(255,255,255)"/>
<polygon points="258.5,485.3 264.5,485.3 264.5,491.3 258.5,491.3" fill="rgb(255,255,255)"/>
<polygon points="267.5,485.3 273.5,485.3 273.5,491.3 267.5,491.3" fill="rgb(0,0,255)"/>
<polygon points="273.5,485.3 279.5,485.3 279.5,491.3 273.5,491.3" fill="rgb(0,0,255)"/>
<polygon points="279.5,485.3 285.5,485.3 285.5,491.3 279.5,491.3" fill="rgb(0,0,255)"/>
<polygon points="285.5,485.3 291.5,485.3 291.5,491.3 285.5,491.3" fill="rgb(255,252,252)"/>
<polygon points="291.5,485.3 297.5,485.3 297.5,491.3 291.5,491.3" fill="rgb(0,0,255)"/>
<polygon points="297.5,485.3 303.5,485.3 303.5,491.3 297.5,491.3" fill="rgb(106,106,255)"/>
<polygon points="303.5,485.3 309.5,485.3 309.5,491.3 303.5,491.3" fill="rgb(0,0,255)"/>
<polygon points="309.5,485.3 315.5,485.3 315.5,491.3 309.5,491.3" fill="rgb(0,0,255)"/>
<polygon points="315.5,485.3 321.5,485.3 321.5,491.3 315.5,491.3" fill="rgb(0,0,255)"/>
<polygon points="321.5,485.3 327.5,485.3 327.5,491.3 321.5,491.3" fill="rgb(255,250,250)"/>
<polygon points="327.5,485.3 333.5,485.3 333.5,491.3 327.5,491.3" fill="rgb(254,244,244)"/>
<polygon points="333.5,485.3 339.5,485.3 339.5,491.3 333.5,491.3" fill="rgb(0,0,255)"/>
<polygon points="339.5,485.3 345.5,485.3 345.5,491.3 339.5,491.3" fill="rgb(255,233,233)"/>
<polygon points="345.5,485.3 351.5,485.3 351.5,491.3 345.5,491.3" fill="rgb(255,234,234)"/>
<polygon points="153.5,491.3 159.5,491.3 159.5,497.3 153.5,497.3" fill="rgb(255,255,255)"/>
<polygon points="159.5,491.3 165.5,491.3 165.5,497.3 159.5,497.3" fill="rgb(255,255,255)"/>
<polygon points="165.5,491.3 171.5,491.3 171.5,497.3 165.5,497.3" fill="rgb(255,255,255)"/>
<polygon points="171.5,491.3 177.5,491.3 177.5,497.3 171.5,497.3" fill="rgb(255,255,255)"/>
<polygon points="180.5,491.3 186.5,491.3 186.5,497.3 180.5,497.3" fill="rgb(255,255,255)"/>
<polygon points="186.5,491.3 192.5,491.3 192.5,497.3 186.5,497.3" fill="rgb(255,255,255)"/>
<polygon points="192.5,491.3 198.5,491.3 198.5,497.3 192.5,497.3" fill="rgb(255,255,255)"/>
<polygon points="198.5,491.3 204.5,491.3 204.5,497.3 198.5,497.3" fill="rgb(255,255,255)"/>
<polygon points="204.5,491.3 210.5,491.3 210.5,497.3 204.5,497.3" fill="rgb(255,255,255)"/>
<polygon points="210.5,491.3 216.5,491.3 216.5,497.3 210.5,497.3" fill="rgb(255,255,255)"/>
<polygon points="216.5,491.3 222.5,491.3 222.5,497.3 216.5,497.3" fill="rgb(255,255,255)"/>
<polygon points="222.5,491.3 228.5,491.3 228.5,497.3 222.5,497.3" fill="rgb(255,255,255)"/>
<polygon points="228.5,491.3 234.5,491.3 234.5,497.3 228.5,497.3" fill="rgb(255,255,255)"/>
<polygon points="234.5,491.3 240.5,491.3 240.5,497.3 234.5,497.3" fill="rgb(255,255,255)"/>
<polygon points="240.5,491.3 246.5,491.3 246.5,497.3 240.5,497.3" fill="rgb(255,255,255)"/>
<polygon points="246.5,491.3 252.5,491.3 252.5,497.3 246.5,497.3" fill="rgb(255,255,255)"/>
<polygon points="252.5,491.3 258.5,491.3 258.5,497.3 252.5,497.3" fill="rgb(255,255,255)"/>
<polygon points="258.5,491.3 264.5,491.3 264.5,497.3 258.5,497.3" fill="rgb(255,255,255)"/>
<polygon points="267.5,491.3 273.5,491.3 273.5,497.3 267.5,497.3" fill="rgb(0,0,255)"/>
<polygon points="273.5,491.3 279.5,491.3 279.5,497.3 273.5,497.3" fill="rgb(0,0,255)"/>
<polygon points="279.5,491.3 285.5,491.3 285.5,497.3 279.5,497.3" fill="rgb(82,82,255)"/>
<polygon points="285.5,491.3 291.5,491.3 291.5,497.3 285.5,497.3" fill="rgb(0,0,255)"/>
<polygon points="291.5,491.3 297.5,491.3 297.5,497.3 291.5,497.3" fill="rgb(0,0,255)"/>
<polygon points="297.5,491.3 303.5,491.3 303.5,497.3 297.5,497.3" fill="rgb(255,253,253)"/>
<polygon points="303.5,491.3 309.5,491.3 309.5,497.3 303.5,497.3" fill="rgb(70,70,255)"/>
<polygon points="309.5,491.3 315.5,491.3 315.5,497.3 309.5,497.3" fill="rgb(255,248,248)"/>
<polygon points="315.5,491.3 321.5,491.3 321.5,497.3 315.5,497.3" fill="rgb(255,242,242)"/>
<polygon points="321.5,491.3 327.5,491.3 327.5,497.3 321.5,497.3" fill="rgb(254,232,232)"/>
<polygon points="327.5,491.3 333.5,491.3 333.5,497.3 327.5,497.3" fill="rgb(35,35,255)"/>
<polygon points="333.5,491.3 339.5,491.3 339.5,497.3 333.5,497.3" fill="rgb(0,0,255)"/>
<polygon points="339.5,491.3 345.5,491.3 345.5,497.3 339.5,497.3" fill="rgb(0,0,255)"/>
<polygon points="345.5,491.3 351.5,491.3 351.5,497.3 345.5,497.3" fill="rgb(0,0,255)"/>
<polygon points="153.5,497.3 159.5,497.3 159.5,503.3 153.5,503.3" fill="rgb(255,255,255)"/>
<polygon points="159.5,497.3 165.5,497.3 165.5,503.3 159.5,503.3" fill="rgb(255,255,255)"/>
<polygon points="165.5,497.3 171.5,497.3 171.5,503.3 165.5,503.3" fill="rgb(255,255,255)"/>
<polygon points="171.5,497.3 177.5,497.3 177.5,503.3 171.5,503.3" fill="rgb(255,255,255)"/>
<polygon points="180.5,497.3 186.5,497.3 186.5,503.3 180.5,503.3" fill="rgb(255,255,255)"/>
<polygon points="186.5,497.3 192.5,497.3 192.5,503.3 186.5,503.3" fill="rgb(255,255,255)"/>
<polygon points="192.5,497.3 198.5,497.3 198.5,503.3 192.5,503.3" fill="rgb(255,255,255)"/>
<polygon points="198.5,497.3 204.5,497.3 204.5,503.3 198.5,503.3" fill="rgb(255,255,255)"/>
<polygon points="204.5,497.3 210.5,497.3 210.5,503.3 204.5,503.3" fill="rgb(255,255,255)"/>
<polygon points="210.5,497.3 216.5,497.3 216.5,503.3 210.5,503.3" fill="rgb(255,255,255)"/>
<polygon points="216.5,497.3 222.5,497.3 222.5,503.3 216.5,503.3" fill="rgb(255,255,255)"/>
<polygon points="222.5,497.3 228.5,497.3 228.5,503.3 222.5,503.3" fill="rgb(255,255,255)"/>
<polygon points="228.5,497.3 234.5,497.3 234.5,503.3 228.5,503.3" fill="rgb(255,255,255)"/>
<polygon points="234.5,497.3 240.5,497.3 240.5,503.3 234.5,503.3" fill="rgb(255,255,255)"/>
<polygon points="240.5,497.3 246.5,497.3 246.5,503.3 240.5,503.3" fill="rgb(255,255,255)"/>
<polygon points="246.5,497.3 252.5,497.3 252.5,503.3 246.5,503.3" fill="rgb(255,255,255)"/>
<polygon points="252.5,497.3 258.5,497.3 258.5,503.3 252.5,503.3" fill="rgb(255,255,255)"/>
<polygon points="258.5,497.3 264.5,497.3 264.5,503.3 258.5,503.3" fill="rgb(255,255,255)"/>
<polygon points="267.5,497.3 273.5,497.3 273.5,503.3 267.5,503.3" fill="rgb(0,0,255)"/>
<polygon points="273.5,497.3 279.5,497.3 279.5,503.3 273.5,503.3" fill="rgb(0,0,255)"/>
<polygon points="279.5,497.3 285.5,497.3 285.5,503.3 279.5,503.3" fill="rgb(0,0,255)"/>
<polygon points="285.5,497.3 291.5,497.3 291.5,503.3 285.5,503.3" fill="rgb(0,0,255)"/>
<polygon points="291.5,497.3 297.5,497.3 297.5,503.3 291.5,503.3" fill="rgb(255,249,249)"/>
<polygon points="297.5,497.3 303.5,497.3 303.5,503.3 297.5,503.3" fill="rgb(0,0,255)"/>
<polygon points="303.5,497.3 309.5,497.3 309.5,503.3 303.5,503.3" fill="rgb(255,241,241)"/>
<polygon points="309.5,497.3 315.5,497.3 315.5,503.3 309.5,503.3" fill="rgb(0,0,255)"/>
<polygon points="315.5,497.3 321.5,497.3 321.5,503.3 315.5,503.3" fill="rgb(255,251,251)"/>
<polygon points="321.5,497.3 327.5,497.3 327.5,503.3 321.5,503.3" fill="rgb(0,0,255)"/>
<polygon points="327.5,497.3 333.5,497.3 333.5,503.3 327.5,503.3" fill="rgb(118,118,255)"/>
<polygon points="333.5,497.3 339.5,497.3 339.5,503.3 333.5,503.3" fill="rgb(255,238,238)"/>
<polygon points="339.5,497.3 345.5,497.3 345.5,503.3 339.5,503.3" fill="rgb(255,229,229)"/>
<polygon points="345.5,497.3 351.5,497.3 351.5,503.3 345.5,503.3" fill="rgb(254,224,224)"/>
<polygon points="153.5,503.3 159.5,503.3 159.5,509.3 153.5,509.3" fill="rgb(255,255,255)"/>
<polygon points="159.5,503.3 165.5,503.3 165.5,509.3 159.5,509.3" fill="rgb(255,255,255)"/>
<polygon points="165.5,503.3 171.5,503.3 171.5,509.3 165.5,509.3" fill="rgb(255,255,255)"/>
<polygon points="171.5,503.3 177.5,503.3 177.5,509.3 171.5,509.3" fill="rgb(255,255,255)"/>
<polygon points="180.5,503.3 186.5,503.3 186.5,509.3 180.5,509.3" fill="rgb(255,255,255)"/>
<polygon points="186.5,503.3 192.5,503.3 192.5,509.3 186.5,509.3" fill="rgb(255,255,255)"/>
<polygon points="192.5,503.3 198.5,503.3 198.5,509.3 192.5,509.3" fill="rgb(255,255,255)"/>
<polygon points="198.5,503.3 204.5,503.3 204.5,509.3 198.5,509.3" fill="rgb(255,255,255)"/>
<polygon points="204.5,503.3 210.5,503.3 210.5,509.3 204.5,509.3" fill="rgb(255,255,255)"/>
<polygon points="210.5,503.3 216.5,503.3 216.5,509.3 210.5,509.3" fill="rgb(255,255,255)"/>
<polygon points="216.5,503.3 222.5,503.3 222.5,509.3 216.5,509.3" fill="rgb(255,255,255)"/>
<polygon points="222.5,503.3 228.5,503.3 228.5,509.3 222.5,509.3" fill="rgb(255,255,255)"/>
<polygon points="228.5,503.3 234.5,503.3 234.5,509.3 228.5,509.3" fill="rgb(255,255,255)"/>
<polygon points="234.5,503.3 240.5,503.3 240.5,509.3 234.5,509.3" fill="rgb(255,255,255)"/>
<polygon points="240.5,503.3 246.5,503.3 246.5,509.3 240.5,509.3" fill="rgb(255,255,255)"/>
<polygon points="246.5,503.3 252.5,503.3 252.5,509.3 246.5,509.3" fill="rgb(255,255,255)"/>
<polygon points="252.5,503.3 258.5,503.3 258.5,509.3 252.5,509.3" fill="rgb(255,255,255)"/>
<polygon points="258.5,503.3 264.5,503.3 264.5,509.3 258.5,509.3" fill="rgb(255,255,255)"/>
<polygon points="267.5,503.3 273.5,503.3 273.5,509.3 267.5,509.3" fill="rgb(0,0,255)"/>
<polygon points="273.5,503.3 279.5,503.3 279.5,509.3 273.5,509.3" fill="rgb(15,15,255)"/>
<polygon points="279.5,503.3 285.5,503.3 285.5,509.3 279.5,509.3" fill="rgb(254,240,240)"/>
<polygon points="285.5,503.3 291.5,503.3 291.5,509.3 285.5,509.3" fill="rgb(7,7,255)"/>
<polygon points="291.5,503.3 297.5,503.3 297.5,509.3 291.5,509.3" fill="rgb(0,0,255)"/>
<polygon points="297.5,503.3 303.5,503.3 303.5,509.3 297.5,509.3" fill="rgb(0,0,255)"/>
<polygon points="303.5,503.3 309.5,503.3 309.5,509.3 303.5,509.3" fill="rgb(0,0,255)"/>
<polygon points="309.5,503.3 315.5,503.3 315.5,509.3 309.5,509.3" fill="rgb(255,235,235)"/>
<polygon points="315.5,503.3 321.5,503.3 321.5,509.3 315.5,509.3" fill="rgb(255,244,244)"/>
<polygon points="321.5,503.3 327.5,503.3 327.5,509.3 321.5,509.3" fill="rgb(149,149,255)"/>
<polygon points="327.5,503.3 333.5,503.3 333.5,509.3 327.5,509.3" fill="rgb(137,137,255)"/>
<polygon points="333.5,503.3 339.5,503.3 339.5,509.3 333.5,509.3" fill="rgb(255,244,244)"/>
<polygon points="339.5,503.3 345.5,503.3 345.5,509.3 339.5,509.3" fill="rgb(0,0,255)"/>
<polygon points="345.5,503.3 351.5,503.3 351.5,509.3 345.5,509.3" fill="rgb(177,177,255)"/>
<polygon points="153.5,509.3 159.5,509.3 159.5,515.3 153.5,515.3" fill="rgb(255,255,255)"/>
<polygon points="159.5,509.3 165.5,509.3 165.5,515.3 159.5,515.3" fill="rgb(255,255,255)"/>
<polygon points="165.5,509.3 171.5,509.3 171.5,515.3 165.5,515.3" fill="rgb(255,255,255)"/>
<polygon points="171.5,509.3 177.5,509.3 177.5,515.3 171.5,515.3" fill="rgb(255,255,255)"/>
<polygon points="180.5,509.3 186.5,509.3 186.5,515.3 180.5,515.3" fill="rgb(255,255,255)"/>
<polygon points="186.5,509.3 192.5,509.3 192.5,515.3 186.5,515.3" fill="rgb(255,255,255)"/>
<polygon points="192.5,509.3 198.5,509.3 198.5,515.3 192.5,515.3" fill="rgb(255,255,255)"/>
<polygon points="198.5,509.3 204.5,509.3 204.5,515.3 198.5,515.3" fill="rgb(255,255,255)"/>
<polygon points="204.5,509.3 210.5,509.3 210.5,515.3 204.5,515.3" fill="rgb(255,255,255)"/>
<polygon points="210.5,509.3 216.5,509.3 216.5,515.3 210.5,515.3" fill="rgb(255,255,255)"/>
<polygon points="216.5,509.3 222.5,509.3 222.5,515.3 216.5,515.3" fill="rgb(255,255,255)"/>
<polygon points="222.5,509.3 228.5,509.3 228.5,515.3 222.5,515.3" fill="rgb(255,255,255)"/>
<polygon points="228.5,509.3 234.5,509.3 234.5,515.3 228.5,515.3" fill="rgb(255,255,255)"/>
<polygon points="234.5,509.3 240.5,509.3 240.5,515.3 234.5,515.3" fill="rgb(255,255,255)"/>
<polygon points="240.5,509.3 246.5,509.3 246.5,515.3 240.5,515.3" fill="rgb(255,255,255)"/>
<polygon points="246.5,509.3 252.5,509.3 252.5,515.3 246.5,515.3" fill="rgb(255,255,255)"/>
<polygon points="252.5,509.3 258.5,509.3 258.5,515.3 252.5,515.3" fill="rgb(255,255,255)"/>
<polygon points="258.5,509.3 264.5,509.3 264.5,515.3 258.5,515.3" fill="rgb(255,255,255)"/>
<polygon points="267.5,509.3 273.5,509.3 273.5,515.3 267.5,515.3" fill="rgb(0,0,255)"/>
<polygon points="273.5,509.3 279.5,509.3 279.5,515.3 273.5,515.3" fill="rgb(119,119,255)"/>
<polygon points="279.5,509.3 285.5,509.3 285.5,515.3 279.5,515.3" fill="rgb(238,238,255)"/>
<polygon points="285.5,509.3 291.5,509.3 291.5,515.3 285.5,515.3" fill="rgb(255,238,238)"/>
<polygon points="291.5,509.3 297.5,509.3 297.5,515.3 291.5,515.3" fill="rgb(0,0,255)"/>
<polygon points="297.5,509.3 303.5,509.3 303.5,515.3 297.5,515.3" fill="rgb(0,0,255)"/>
<polygon points="303.5,509.3 309.5,509.3 309.5,515.3 303.5,515.3" fill="rgb(129,129,255)"/>
<polygon points="309.5,509.3 315.5,509.3 315.5,515.3 309.5,515.3" fill="rgb(255,242,242)"/>
<polygon points="315.5,509.3 321.5,509.3 321.5,515.3 315.5,515.3" fill="rgb(230,230,255)"/>
<polygon points="321.5,509.3 327.5,509.3 327.5,515.3 321.5,515.3" fill="rgb(0,0,255)"/>
<polygon points="327.5,509.3 333.5,509.3 333.5,515.3 327.5,515.3" fill="rgb(254,227,227)"/>
<polygon points="333.5,509.3 339.5,509.3 339.5,515.3 333.5,515.3" fill="rgb(255,236,236)"/>
<polygon points="339.5,509.3 345.5,509.3 345.5,515.3 339.5,515.3" fill="rgb(0,0,255)"/>
<polygon points="345.5,509.3 351.5,509.3 351.5,515.3 345.5,515.3" fill="rgb(54,54,255)"/>
<polygon points="153.5,515.3 159.5,515.3 159.5,521.3 153.5,521.3" fill="rgb(255,255,255)"/>
<polygon points="159.5,515.3 165.5,515.3 165.5,521.3 159.5,521.3" fill="rgb(255,255,255)"/>
<polygon points="165.5,515.3 171.5,515.3 171.5,521.3 165.5,521.3" fill="rgb(255,255,255)"/>
<polygon points="171.5,515.3 177.5,515.3 177.5,521.3 171.5,521.3" fill="rgb(255,255,255)"/>
<polygon points="180.5,515.3 186.5,515.3 186.5,521.3 180.5,521.3" fill="rgb(255,255,255)"/>
<polygon points="186.5,515.3 192.5,515.3 192.5,521.3 186.5,521.3" fill="rgb(255,255,255)"/>
<polygon points="192.5,515.3 198.5,515.3 198.5,521.3 192.5,521.3" fill="rgb(255,255,255)"/>
<polygon points="198.5,515.3 204.5,515.3 204.5,521.3 198.5,521.3" fill="rgb(255,255,255)"/>
<polygon points="204.5,515.3 210.5,515.3 210.5,521.3 204.5,521.3" fill="rgb(255,255,255)"/>
<polygon points="210.5,515.3 216.5,515.3 216.5,521.3 210.5,521.3" fill="rgb(255,255,255)"/>
<polygon points="216.5,515.3 222.5,515.3 222.5,521.3 216.5,521.3" fill="rgb(255,255,255)"/>
<polygon points="222.5,515.3 228.5,515.3 228.5,521.3 222.5,521.3" fill="rgb(255,255,255)"/>
<polygon points="228.5,515.3 234.5,515.3 234.5,521.3 228.5,521.3" fill="rgb(255,255,255)"/>
<polygon points="234.5,515.3 240.5,515.3 240.5,521.3 234.5,521.3" fill="rgb(255,255,255)"/>
<polygon points="240.5,515.3 246.5,515.3 246.5,521.3 240.5,521.3" fill="rgb(255,255,255)"/>
<polygon points="246.5,515.3 252.5,515.3 252.5,521.3 246.5,521.3" fill="rgb(255,255,255)"/>
<polygon points="252.5,515.3 258.5,515.3 258.5,521.3 252.5,521.3" fill="rgb(255,255,255)"/>
<polygon points="258.5,515.3 264.5,515.3 264.5,521.3 258.5,521.3" fill="rgb(255,255,255)"/>
<polygon points="267.5,515.3 273.5,515.3 273.5,521.3 267.5,521.3" fill="rgb(0,0,255)"/>
<polygon points="273.5,515.3 279.5,515.3 279.5,521.3 273.5,521.3" fill="rgb(0,0,255)"/>
<polygon points="279.5,515.3 285.5,515.3 285.5,521.3 279.5,521.3" fill="rgb(0,0,255)"/>
<polygon points="285.5,515.3 291.5,515.3 291.5,521.3 285.5,521.3" fill="rgb(0,0,255)"/>
<polygon points="291.5,515.3 297.5,515.3 297.5,521.3 291.5,521.3" fill="rgb(136,136,255)"/>
<polygon points="297.5,515.3 303.5,515.3 303.5,521.3 297.5,521.3" fill="rgb(0,0,255)"/>
<polygon points="303.5,515.3 309.5,515.3 309.5,521.3 303.5,521.3" fill="rgb(0,0,255)"/>
<polygon points="309.5,515.3 315.5,515.3 315.5,521.3 309.5,521.3" fill="rgb(0,0,255)"/>
<polygon points="315.5,515.3 321.5,515.3 321.5,521.3 315.5,521.3" fill="rgb(0,0,255)"/>
<polygon points="321.5,515.3 327.5,515.3 327.5,521.3 321.5,521.3" fill="rgb(255,241,241)"/>
<polygon points="327.5,515.3 333.5,515.3 333.5,521.3 327.5,521.3" fill="rgb(48,48,255)"/>
<polygon points="333.5,515.3 339.5,515.3 339.5,521.3 333.5,521.3" fill="rgb(0,0,255)"/>
<polygon points="339.5,515.3 345.5,515.3 345.5,521.3 339.5,521.3" fill="rgb(255,189,189)"/>
<polygon points="345.5,515.3 351.5,515.3 351.5,521.3 345.5,521.3" fill="rgb(255,250,250)"/>
<polygon points="153.5,521.3 159.5,521.3 159.5,527.3 153.5,527.3" fill="rgb(255,255,255)"/>
<polygon points="159.5,521.3 165.5,521.3 165.5,527.3 159.5,527.3" fill="rgb(255,255,255)"/>
<polygon points="165.5,521.3 171.5,521.3 171.5,527.3 165.5,527.3" fill="rgb(255,255,255)"/>
<polygon points="171.5,521.3 177.5,521.3 177.5,527.3 171.5,527.3" fill="rgb(255,255,255)"/>
<polygon points="180.5,521.3 186.5,521.3 186.5,527.3 180.5,527.3" fill="rgb(255,255,255)"/>
<polygon points="186.5,521.3 192.5,521.3 192.5,527.3 186.5,527.3" fill="rgb(255,255,255)"/>
<polygon points="192.5,521.3 198.5,521.3 198.5,527.3 192.5,527.3" fill="rgb(255,255,255)"/>
<polygon points="198.5,521.3 204.5,521.3 204.5,527.3 198.5,527.3" fill="rgb(255,255,255)"/>
<polygon points="204.5,521.3 210.5,521.3 210.5,527.3 204.5,527.3" fill="rgb(255,255,255)"/>
<polygon points="210.5,521.3 216.5,521.3 216.5,527.3 210.5,527.3" fill="rgb(255,255,255)"/>
<polygon points="216.5,521.3 222.5,521.3 222.5,527.3 216.5,527.3" fill="rgb(255,255,255)"/>
<polygon points="222.5,521.3 228.5,521.3 228.5,527.3 222.5,527.3" fill="rgb(255,255,255)"/>
<polygon points="228.5,521.3 234.5,521.3 234.5,527.3 228.5,527.3" fill="rgb(255,255,255)"/>
<polygon points="234.5,521.3 240.5,521.3 240.5,527.3 234.5,527.3" fill="rgb(255,255,255)"/>
<polygon points="240.5,521.3 246.5,521.3 246.5,527.3 240.5,527.3" fill="rgb(255,255,255)"/>
<polygon points="246.5,521.3 252.5,521.3 252.5,527.3 246.5,527.3" fill="rgb(255,255,255)"/>
<polygon points="252.5,521.3 258.5,521.3 258.5,527.3 252.5,527.3" fill="rgb(255,255,255)"/>
<polygon points="258.5,521.3 264.5,521.3 264.5,527.3 258.5,527.3" fill="rgb(255,255,255)"/>
<polygon points="267.5,521.3 273.5,521.3 273.5,527.3 267.5,527.3" fill="rgb(0,0,255)"/>
<polygon points="273.5,521.3 279.5,521.3 279.5,527.3 273.5,527.3" fill="rgb(127,127,255)"/>
<polygon points="279.5,521.3 285.5,521.3 285.5,527.3 279.5,527.3" fill="rgb(254,241,241)"/>
<polygon points="285.5,521.3 291.5,521.3 291.5,527.3 285.5,527.3" fill="rgb(255,195,195)"/>
<polygon points="291.5,521.3 297.5,521.3 297.5,527.3 291.5,527.3" fill="rgb(0,0,255)"/>
<polygon points="297.5,521.3 303.5,521.3 303.5,527.3 297.5,527.3" fill="rgb(0,0,255)"/>
<polygon points="303.5,521.3 309.5,521.3 309.5,527.3 303.5,527.3" fill="rgb(0,0,255)"/>
<polygon points="309.5,521.3 315.5,521.3 315.5,527.3 309.5,527.3" fill="rgb(0,0,255)"/>
<polygon points="315.5,521.3 321.5,521.3 321.5,527.3 315.5,527.3" fill="rgb(0,0,255)"/>
<polygon points="321.5,521.3 327.5,521.3 327.5,527.3 321.5,527.3" fill="rgb(0,0,255)"/>
<polygon points="327.5,521.3 333.5,521.3 333.5,527.3 327.5,527.3" fill="rgb(255,204,204)"/>
<polygon points="333.5,521.3 339.5,521.3 339.5,527.3 333.5,527.3" fill="rgb(255,251,251)"/>
<polygon points="339.5,521.3 345.5,521.3 345.5,527.3 339.5,527.3" fill="rgb(255,238,238)"/>
<polygon points="345.5,521.3 351.5,521.3 351.5,527.3 345.5,527.3" fill="rgb(254,231,231)"/>
<polygon points="153.5,527.3 159.5,527.3 159.5,533.3 153.5,533.3" fill="rgb(255,255,255)"/>
<polygon points="159.5,527.3 165.5,527.3 165.5,533.3 159.5,533.3" fill="rgb(255,255,255)"/>
<polygon points="165.5,527.3 171.5,527.3 171.5,533.3 165.5,533.3" fill="rgb(255,255,255)"/>
<polygon points="171.5,527.3 177.5,527.3 177.5,533.3 171.5,533.3" fill="rgb(255,255,255)"/>
<polygon points="180.5,527.3 186.5,527.3 186.5,533.3 180.5,533.3" fill="rgb(255,255,255)"/>
<polygon points="186.5,527.3 192.5,527.3 192.5,533.3 186.5,533.3" fill="rgb(255,255,255)"/>
<polygon points="192.5,527.3 198.5,527.3 198.5,533.3 192.5,533.3" fill="rgb(255,255,255)"/>
<polygon points="198.5,527.3 204.5,527.3 204.5,533.3 198.5,533.3" fill="rgb(255,255,255)"/>
<polygon points="204.5,527.3 210.5,527.3 210.5,533.3 204.5,533.3" fill="rgb(255,255,255)"/>
<polygon points="210.5,527.3 216.5,527.3 216.5,533.3 210.5,533.3" fill="rgb(255,255,255)"/>
<polygon points="216.5,527.3 222.5,527.3 222.5,533.3 216.5,533.3" fill="rgb(255,255,255)"/>
<polygon points="222.5,527.3 228.5,527.3 228.5,533.3 222.5,533.3" fill="rgb(255,255,255)"/>
<polygon points="228.5,527.3 234.5,527.3 234.5,533.3 228.5,533.3" fill="rgb(255,255,255)"/>
<polygon points="234.5,527.3 240.5,527.3 240.5,533.3 234.5,533.3" fill="rgb(255,255,255)"/>
<polygon points="240.5,527.3 246.5,527.3 246.5,533.3 240.5,533.3" fill="rgb(255,255,255)"/>
<polygon points="246.5,527.3 252.5,527.3 252.5,533.3 246.5,533.3" fill="rgb(255,255,255)"/>
<polygon points="252.5,527.3 258.5,527.3 258.5,533.3 252.5,533.3" fill="rgb(255,255,255)"/>
<polygon points="258.5,527.3 264.5,527.3 264.5,533.3 258.5,533.3" fill="rgb(255,255,255)"/>
<polygon points="267.5,527.3 273.5,527.3 273.5,533.3 267.5,533.3" fill="rgb(78,78,255)"/>
<polygon points="273.5,527.3 279.5,527.3 279.5,533.3 273.5,533.3" fill="rgb(0,0,255)"/>
<polygon points="279.5,527.3 285.5,527.3 285.5,533.3 279.5,533.3" fill="rgb(0,0,255)"/>
<polygon points="285.5,527.3 291.5,527.3 291.5,533.3 285.5,533.3" fill="rgb(0,0,255)"/>
<polygon points="291.5,527.3 297.5,527.3 297.5,533.3 291.5,533.3" fill="rgb(81,81,255)"/>
<polygon points="297.5,527.3 303.5,527.3 303.5,533.3 297.5,533.3" fill="rgb(255,243,243)"/>
<polygon points="303.5,527.3 309.5,527.3 309.5,533.3 303.5,533.3" fill="rgb(255,228,228)"/>
<polygon points="309.5,527.3 315.5,527.3 315.5,533.3 309.5,533.3" fill="rgb(0,0,255)"/>
<polygon points="315.5,527.3 321.5,527.3 321.5,533.3 315.5,533.3" fill="rgb(255,250,250)"/>
<polygon points="321.5,527.3 327.5,527.3 327.5,533.3 321.5,533.3" fill="rgb(254,246,246)"/>
<polygon points="327.5,527.3 333.5,527.3 333.5,533.3 327.5,533.3" fill="rgb(255,247,247)"/>
<polygon points="333.5,527.3 339.5,527.3 339.5,533.3 333.5,533.3" fill="rgb(255,239,239)"/>
<polygon points="339.5,527.3 345.5,527.3 345.5,533.3 339.5,533.3" fill="rgb(255,251,251)"/>
<polygon points="345.5,527.3 351.5,527.3 351.5,533.3 345.5,533.3" fill="rgb(0,0,255)"/>
<polygon points="153.5,386.3 177.5,386.3 177.5,446.3 153.5,446.3" fill="none" stroke="black" stroke-width="0.5"/>
<polygon points="180.5,386.3 264.5,386.3 264.5,446.3 180.5,446.3" fill="none" stroke="black" stroke-width="0.5"/>
<polygon points="267.5,386.3 351.5,386.3 351.5,446.3 267.5,446.3" fill="none" stroke="black" stroke-width="0.5"/>
<polygon points="153.5,449.3 177.5,449.3 177.5,533.3 153.5,533.3" fill="none" stroke="black" stroke-width="0.5"/>
<polygon points="180.5,449.3 264.5,449.3 264.5,533.3 180.5,533.3" fill="none" stroke="black" stroke-width="0.5"/>
<polygon points="267.5,449.3 351.5,449.3 351.5,533.3 267.5,533.3" fill="none" stroke="black" stroke-width="0.5"/>
<text xml:space="preserve" x="196.75" y="565.967" font-family="Arial" font-size="7" text-anchor="middle">enrichments</text>
<polygon points="86.75,573.3 106.75,573.3 106.75,593.3 86.75,593.3" fill="rgb(255,255,255)"/><polygon points="86.75,573.3 106.75,573.3 106.75,593.3 86.75,593.3" fill="none" stroke="black" stroke-width="0.5"/><text xml:space="preserve" x="96.75" y="585.3" font-family="Arial" font-size="5" fill="rgb(0,0,0)" text-anchor="middle">0.0</text>
<polygon points="106.75,573.3 126.75,573.3 126.75,593.3 106.75,593.3" fill="rgb(216,178,216)"/><polygon points="106.75,573.3 126.75,573.3 126.75,593.3 106.75,593.3" fill="none" stroke="black" stroke-width="0.5"/><text xml:space="preserve" x="116.75" y="585.3" font-family="Arial" font-size="5" fill="rgb(0,0,0)" text-anchor="middle">0.3</text>
<polygon points="126.75,573.3 146.75,573.3 146.75,593.3 126.75,593.3" fill="rgb(178,102,178)"/><polygon points="126.75,573.3 146.75,573.3 146.75,593.3 126.75,593.3" fill="none" stroke="black" stroke-width="0.5"/><text xml:space="preserve" x="136.75" y="585.3" font-family="Arial" font-size="5" fill="rgb(0,0,0)" text-anchor="middle">0.6</text>
<polygon points="146.75,573.3 166.75,573.3 166.75,593.3 146.75,593.3" fill="rgb(140,25,140)"/><polygon points="146.75,573.3 166.75,573.3 166.75,593.3 146.75,593.3" fill="none" stroke="black" stroke-width="0.5"/><text xml:space="preserve" x="156.75" y="585.3" font-family="Arial" font-size="5" fill="rgb(255,255,255)" text-anchor="middle">0.9</text>
<polygon points="166.75,573.3 186.75,573.3 186.75,593.3 166.75,593.3" fill="rgb(102,50,153)"/><polygon points="166.75,573.3 186.75,573.3 186.75,593.3 166.75,593.3" fill="none" stroke="black" stroke-width="0.5"/><text xml:space="preserve" x="176.75" y="585.3" font-family="Arial" font-size="5" fill="rgb(255,255,255)" text-anchor="middle">1.2</text>
<polygon points="186.75,573.3 206.75,573.3 206.75,593.3 186.75,593.3" fill="rgb(64,127,191)"/><polygon points="186.75,573.3 206.75,573.3 206.75,593.3 186.75,593.3" fill="none" stroke="black" stroke-width="0.5"/><text xml:space="preserve" x="196.75" y="585.3" font-family="Arial" font-size="5" fill="rgb(255,255,255)" text-anchor="middle">1.5</text>
<polygon points="206.75,573.3 226.75,573.3 226.75,593.3 206.75,593.3" fill="rgb(25,204,229)"/><polygon points="206.75,573.3 226.75,573.3 226.75,593.3 206.75,593.3" fill="none" stroke="black" stroke-width="0.5"/><text xml:space="preserve" x="216.75" y="585.3" font-family="Arial" font-size="5" fill="rgb(0,0,0)" text-anchor="middle">1.8</text>
<polygon points="226.75,573.3 246.75,573.3 246.75,593.3 226.75,593.3" fill="rgb(0,239,239)"/><polygon points="226.75,573.3 246.75,573.3 246.75,593.3 226.75,593.3" fill="none" stroke="black" stroke-width="0.5"/><text xml:space="preserve" x="236.75" y="585.3" font-family="Arial" font-size="5" fill="rgb(0,0,0)" text-anchor="middle">2.1</text>
<polygon points="246.75,573.3 266.75,573.3 266.75,593.3 246.75,593.3" fill="rgb(0,193,193)"/><polygon points="246.75,573.3 266.75,573.3 266.75,593.3 246.75,593.3" fill="none" stroke="black" stroke-width="0.5"/><text xml:space="preserve" x="256.75" y="585.3" font-family="Arial" font-size="5" fill="rgb(0,0,0)" text-anchor="middle">2.4</text>
<polygon points="266.75,573.3 286.75,573.3 286.75,593.3 266.75,593.3" fill="rgb(0,146,146)"/><polygon points="266.75,573.3 286.75,573.3 286.75,593.3 266.75,593.3" fill="none" stroke="black" stroke-width="0.5"/><text xml:space="preserve" x="276.75" y="585.3" font-family="Arial" font-size="5" fill="rgb(255,255,255)" text-anchor="middle">2.7</text>
<polygon points="286.75,573.3 306.75,573.3 306.75,593.3 286.75,593.3" fill="rgb(0,100,100)"/><polygon points="286.75,573.3 306.75,573.3 306.75,593.3 286.75,593.3" fill="none" stroke="black" stroke-width="0.5"/><text xml:space="preserve" x="296.75" y="585.3" font-family="Arial" font-size="5" fill="rgb(255,255,255)" text-anchor="middle">3.0</text>
<text xml:space="preserve" x="196.75" y="625.967" font-family="Arial" font-size="7" text-anchor="middle">expression</text>
<polygon points="86.75,633.3 106.75,633.3 106.75,653.3 86.75,653.3" fill="rgb(0,0,255)"/><polygon points="86.75,633.3 106.75,633.3 106.75,653.3 86.75,653.3" fill="none" stroke="black" stroke-width="0.5"/><text xml:space="preserve" x="96.75" y="645.3" font-family="Arial" font-size="5" fill="rgb(255,255,255)" text-anchor="middle">0.0</text>
<polygon points="106.75,633.3 126.75,633.3 126.75,653.3 106.75,653.3" fill="rgb(255,211,211)"/><polygon points="106.75,633.3 126.75,633.3 126.75,653.3 106.75,653.3" fill="none" stroke="black" stroke-width="0.5"/><text xml:space="preserve" x="116.75" y="645.3" font-family="Arial" font-size="5" fill="rgb(0,0,0)" text-anchor="middle">0.6</text>
<polygon points="126.75,633.3 146.75,633.3 146.75,653.3 126.75,653.3" fill="rgb(255,158,158)"/><polygon points="126.75,633.3 146.75,633.3 146.75,653.3 126.75,653.3" fill="none" stroke="black" stroke-width="0.5"/><text xml:space="preserve" x="136.75" y="645.3" font-family="Arial" font-size="5" fill="rgb(0,0,0)" text-anchor="middle">1.2</text>
<polygon points="146.75,633.3 166.75,633.3 166.75,653.3 146.75,653.3" fill="rgb(255,105,105)"/><polygon points="146.75,633.3 166.75,633.3 166.75,653.3 146.75,653.3" fill="none" stroke="black" stroke-width="0.5"/><text xml:space="preserve" x="156.75" y="645.3" font-family="Arial" font-size="5" fill="rgb(0,0,0)" text-anchor="middle">1.8</text>
<polygon points="166.75,633.3 186.75,633.3 186.75,653.3 166.75,653.3" fill="rgb(255,52,52)"/><polygon points="166.75,633.3 186.75,633.3 186.75,653.3 166.75,653.3" fill="none" stroke="black" stroke-width="0.5"/><text xml:space="preserve" x="176.75" y="645.3" font-family="Arial" font-size="5" fill="rgb(255,255,255)" text-anchor="middle">2.4</text>
<polygon points="186.75,633.3 206.75,633.3 206.75,653.3 186.75,653.3" fill="rgb(255,0,0)"/><polygon points="186.75,633.3 206.75,633.3 206.75,653.3 186.75,653.3" fill="none" stroke="black" stroke-width="0.5"/><text xml:space="preserve" x="196.75" y="645.3" font-family="Arial" font-size="5" fill="rgb(255,255,255)" text-anchor="middle">3.0</text>
<polygon points="206.75,633.3 226.75,633.3 226.75,653.3 206.75,653.3" fill="rgb(231,0,0)"/><polygon points="206.75,633.3 226.75,633.3 226.75,653.3 206.75,653.3" fill="none" stroke="black" stroke-width="0.5"/><text xml:space="preserve" x="216.75" y="645.3" font-family="Arial" font-size="5" fill="rgb(255,255,255)" text-anchor="middle">3.6</text>
<polygon points="226.75,633.3 246.75,633.3 246.75,653.3 226.75,653.3" fill="rgb(208,0,0)"/><polygon points="226.75,633.3 246.75,633.3 246.75,653.3 226.75,653.3" fill="none" stroke="black" stroke-width="0.5"/><text xml:space="preserve" x="236.75" y="645.3" font-family="Arial" font-size="5" fill="rgb(255,255,255)" text-anchor="middle">4.2</text>
<polygon points="246.75,633.3 266.75,633.3 266.75,653.3 246.75,653.3" fill="rgb(185,0,0)"/><polygon points="246.75,633.3 266.75,633.3 266.75,653.3 246.75,653.3" fill="none" stroke="black" stroke-width="0.5"/><text xml:space="preserve" x="256.75" y="645.3" font-family="Arial" font-size="5" fill="rgb(255,255,255)" text-anchor="middle">4.8</text>
<polygon points="266.75,633.3 286.75,633.3 286.75,653.3 266.75,653.3" fill="rgb(162,0,0)"/><polygon points="266.75,633.3 286.75,633.3 286.75,653.3 266.75,653.3" fill="none" stroke="black" stroke-width="0.5"/><text xml:space="preserve" x="276.75" y="645.3" font-family="Arial" font-size="5" fill="rgb(255,255,255)" text-anchor="middle">5.4</text>
<polygon points="286.75,633.3 306.75,633.3 306.75,653.3 286.75,653.3" fill="rgb(139,0,0)"/><polygon points="286.75,633.3 306.75,633.3 306.75,653.3 286.75,653.3" fill="none" stroke="black" stroke-width="0.5"/><text xml:space="preserve" x="296.75" y="645.3" font-family="Arial" font-size="5" fill="rgb(255,255,255)" text-anchor="middle">6.0</text>
</svg>
