<?xml version="1.0" standalone="no"?><!DOCTYPE svg PUBLIC "-//W3C//DTD SVG 1.1//EN" "http://www.w3.org/Graphics/SVG/1.1/DTD/svg11.dtd">
<svg width="390.5" height="341.5" version="1.1" xmlns="http://www.w3.org/2000/svg">
<text xml:space="preserve" x="146.5" y="156.167" font-family="Arial" font-size="7" text-anchor="end">Cnot1</text>
<text xml:space="preserve" x="146.5" y="162.167" font-family="Arial" font-size="7" text-anchor="end">Setdb1</text>
<text xml:space="preserve" x="146.5" y="168.167" font-family="Arial" font-size="7" text-anchor="end">Usp7</text>
<text xml:space="preserve" x="146.5" y="174.167" font-family="Arial" font-size="7" text-anchor="end">Pcgf6</text>
<text xml:space="preserve" x="146.5" y="180.167" font-family="Arial" font-size="7" text-anchor="end">Polr3g</text>
<text xml:space="preserve" x="146.5" y="186.167" font-family="Arial" font-size="7" text-anchor="end">Cnot3</text>
<text xml:space="preserve" x="146.5" y="195.167" font-family="Arial" font-size="7" text-anchor="end">Hsf4_nca:2</text>
<text xml:space="preserve" x="146.5" y="201.167" font-family="Arial" font-size="7" text-anchor="end">Mecp2_nca:2</text>
<text xml:space="preserve" x="156.167" y="146.5" font-family="Arial" font-size="7" transform="rotate(270 156.167 146.5)">Hsf4_nca:2</text>
<text xml:space="preserve" x="162.167" y="146.5" font-family="Arial" font-size="7" transform="rotate(270 162.167 146.5)">Mecp2_nca:2</text>
<text xml:space="preserve" x="171.167" y="146.5" font-family="Arial" font-size="7" transform="rotate(270 171.167 146.5)">C2</text>
<text xml:space="preserve" x="177.167" y="146.5" font-family="Arial" font-size="7" transform="rotate(270 177.167 146.5)">C7</text>
<text xml:space="preserve" x="183.167" y="146.5" font-family="Arial" font-size="7" transform="rotate(270 183.167 146.5)">C3</text>
<text xml:space="preserve" x="189.167" y="146.5" font-family="Arial" font-size="7" transform="rotate(270 189.167 146.5)">C5</text>
<text xml:space="preserve" x="195.167" y="146.5" font-family="Arial" font-size="7" transform="rotate(270 195.167 146.5)">C12</text>
<text xml:space="preserve" x="201.167" y="146.5" font-family="Arial" font-size="7" transform="rotate(270 201.167 146.5)">C13</text>
<text xml:space="preserve" x="207.167" y="146.5" font-family="Arial" font-size="7" transform="rotate(270 207.167 146.5)">C14</text>
<text xml:space="preserve" x="213.167" y="146.5" font-family="Arial" font-size="7" transform="rotate(270 213.167 146.5)">C11</text>
<text xml:space="preserve" x="219.167" y="146.5" font-family="Arial" font-size="7" transform="rotate(270 219.167 146.5)">C4</text>
<text xml:space="preserve" x="225.167" y="146.5" font-family="Arial" font-size="7" transform="rotate(270 225.167 146.5)">C8</text>
<text xml:space="preserve" x="231.167" y="146.5" font-family="Arial" font-size="7" transform="rotate(270 231.167 146.5)">C6</text>
<text xml:space="preserve" x="237.167" y="146.5" font-family="Arial" font-size="7" transform="rotate(270 237.167 146.5)">C10</text>
<text xml:space="preserve" x="243.167" y="146.5" font-family="Arial" font-size="7" transform="rotate(270 243.167 146.5)">C9</text>
<text xml:space="preserve" x="249.167" y="146.5" font-family="Arial" font-size="7" transform="rotate(270 249.167 146.5)">C1</text>
<polygon points="150.5,150.5 156.5,150.5 156.5,156.5 150.5,156.5" fill="rgb(255,255,255)"/>
<polygon points="156.5,150.5 162.5,150.5 162.5,156.5 156.5,156.5" fill="rgb(0,255,255)"/>
<polygon points="165.5,150.5 171.5,150.5 171.5,156.5 165.5,156.5" fill="rgb(254,203,203)"/>
<polygon points="171.5,150.5 177.5,150.5 177.5,156.5 171.5,156.5" fill="rgb(255,196,196)"/>
<polygon points="177.5,150.5 183.5,150.5 183.5,156.5 177.5,156.5" fill="rgb(255,185,185)"/>
<polygon points="183.5,150.5 189.5,150.5 189.5,156.5 183.5,156.5" fill="rgb(255,168,168)"/>
<polygon points="189.5,150.5 195.5,150.5 195.5,156.5 189.5,156.5" fill="rgb(255,230,230)"/>
<polygon points="195.5,150.5 201.5,150.5 201.5,156.5 195.5,156.5" fill="rgb(255,207,207)"/>
<polygon points="201.5,150.5 207.5,150.5 207.5,156.5 201.5,156.5" fill="rgb(255,213,213)"/>
<polygon points="207.5,150.5 213.5,150.5 213.5,156.5 207.5,156.5" fill="rgb(255,175,175)"/>
<polygon points="213.5,150.5 219.5,150.5 219.5,156.5 213.5,156.5" fill="rgb(255,194,194)"/>
<polygon points="219.5,150.5 225.5,150.5 225.5,156.5 219.5,156.5" fill="rgb(255,175,175)"/>
<polygon points="225.5,150.5 231.5,150.5 231.5,156.5 225.5,156.5" fill="rgb(255,157,157)"/>
<polygon points="231.5,150.5 237.5,150.5 237.5,156.5 231.5,156.5" fill="rgb(255,179,179)"/>
<polygon points="237.5,150.5 243.5,150.5 243.5,156.5 237.5,156.5" fill="rgb(255,155,155)"/>
<polygon points="243.5,150.5 249.5,150.5 249.5,156.5 243.5,156.5" fill="rgb(255,112,112)"/>
<polygon points="150.5,156.5 156.5,156.5 156.5,162.5 150.5,162.5" fill="rgb(0,255,255)"/>
<polygon points="156.5,156.5 162.5,156.5 162.5,162.5 156.5,162.5" fill="rgb(0,255,255)"/>
<polygon points="165.5,156.5 171.5,156.5 171.5,162.5 165.5,162.5" fill="rgb(255,219,219)"/>
<polygon points="171.5,156.5 177.5,156.5 177.5,162.5 171.5,162.5" fill="rgb(255,210,210)"/>
<polygon points="177.5,156.5 183.5,156.5 183.5,162.5 177.5,162.5" fill="rgb(255,205,205)"/>
<polygon points="183.5,156.5 189.5,156.5 189.5,162.5 183.5,162.5" fill="rgb(255,189,189)"/>
<polygon points="189.5,156.5 195.5,156.5 195.5,162.5 189.5,162.5" fill="rgb(255,239,239)"/>
<polygon points="195.5,156.5 201.5,156.5 201.5,162.5 195.5,162.5" fill="rgb(255,229,229)"/>
<polygon points="201.5,156.5 207.5,156.5 207.5,162.5 201.5,162.5" fill="rgb(255,237,237)"/>
<polygon points="207.5,156.5 213.5,156.5 213.5,162.5 207.5,162.5" fill="rgb(255,222,222)"/>
<polygon points="213.5,156.5 219.5,156.5 219.5,162.5 213.5,162.5" fill="rgb(255,230,230)"/>
<polygon points="219.5,156.5 225.5,156.5 225.5,162.5 219.5,162.5" fill="rgb(255,205,205)"/>
<polygon points="225.5,156.5 231.5,156.5 231.5,162.5 225.5,162.5" fill="rgb(255,178,178)"/>
<polygon points="231.5,156.5 237.5,156.5 237.5,162.5 231.5,162.5" fill="rgb(255,196,196)"/>
<polygon points="237.5,156.5 243.5,156.5 243.5,162.5 237.5,162.5" fill="rgb(255,179,179)"/>
<polygon points="243.5,156.5 249.5,156.5 249.5,162.5 243.5,162.5" fill="rgb(255,150,150)"/>
<polygon points="150.5,162.5 156.5,162.5 156.5,168.5 150.5,168.5" fill="rgb(0,255,255)"/>
<polygon points="156.5,162.5 162.5,162.5 162.5,168.5 156.5,168.5" fill="rgb(0,255,255)"/>
<polygon points="165.5,162.5 171.5,162.5 171.5,168.5 165.5,168.5" fill="rgb(254,185,185)"/>
<polygon points="171.5,162.5 177.5,162.5 177.5,168.5 171.5,168.5" fill="rgb(254,178,178)"/>
<polygon points="177.5,162.5 183.5,162.5 183.5,168.5 177.5,168.5" fill="rgb(255,168,168)"/>
<polygon points="183.5,162.5 189.5,162.5 189.5,168.5 183.5,168.5" fill="rgb(255,142,142)"/>
<polygon points="189.5,162.5 195.5,162.5 195.5,168.5 189.5,168.5" fill="rgb(255,218,218)"/>
<polygon points="195.5,162.5 201.5,162.5 201.5,168.5 195.5,168.5" fill="rgb(255,200,200)"/>
<polygon points="201.5,162.5 207.5,162.5 207.5,168.5 201.5,168.5" fill="rgb(255,198,198)"/>
<polygon points="207.5,162.5 213.5,162.5 213.5,168.5 207.5,168.5" fill="rgb(254,172,172)"/>
<polygon points="213.5,162.5 219.5,162.5 219.5,168.5 213.5,168.5" fill="rgb(255,191,191)"/>
<polygon points="219.5,162.5 225.5,162.5 225.5,168.5 219.5,168.5" fill="rgb(255,169,169)"/>
<polygon points="225.5,162.5 231.5,162.5 231.5,168.5 225.5,168.5" fill="rgb(254,136,136)"/>
<polygon points="231.5,162.5 237.5,162.5 237.5,168.5 231.5,168.5" fill="rgb(255,168,168)"/>
<polygon points="237.5,162.5 243.5,162.5 243.5,168.5 237.5,168.5" fill="rgb(255,127,127)"/>
<polygon points="243.5,162.5 249.5,162.5 249.5,168.5 243.5,168.5" fill="rgb(255,83,83)"/>
<polygon points="150.5,168.5 156.5,168.5 156.5,174.5 150.5,174.5" fill="rgb(0,255,255)"/>
<polygon points="156.5,168.5 162.5,168.5 162.5,174.5 156.5,174.5" fill="rgb(0,255,255)"/>
<polygon points="165.5,168.5 171.5,168.5 171.5,174.5 165.5,174.5" fill="rgb(255,246,246)"/>
<polygon points="171.5,168.5 177.5,168.5 177.5,174.5 171.5,174.5" fill="rgb(255,245,245)"/>
<polygon points="177.5,168.5 183.5,168.5 183.5,174.5 177.5,174.5" fill="rgb(255,240,240)"/>
<polygon points="183.5,168.5 189.5,168.5 189.5,174.5 183.5,174.5" fill="rgb(254,215,215)"/>
<polygon points="189.5,168.5 195.5,168.5 195.5,174.5 189.5,174.5" fill="rgb(254,253,253)"/>
<polygon points="195.5,168.5 201.5,168.5 201.5,174.5 195.5,174.5" fill="rgb(255,250,250)"/>
<polygon points="201.5,168.5 207.5,168.5 207.5,174.5 201.5,174.5" fill="rgb(214,214,255)"/>
<polygon points="207.5,168.5 213.5,168.5 213.5,174.5 207.5,174.5" fill="rgb(255,241,241)"/>
<polygon points="213.5,168.5 219.5,168.5 219.5,174.5 213.5,174.5" fill="rgb(255,246,246)"/>
<polygon points="219.5,168.5 225.5,168.5 225.5,174.5 219.5,174.5" fill="rgb(255,232,232)"/>
<polygon points="225.5,168.5 231.5,168.5 231.5,174.5 225.5,174.5" fill="rgb(254,211,211)"/>
<polygon points="231.5,168.5 237.5,168.5 237.5,174.5 231.5,174.5" fill="rgb(255,228,228)"/>
<polygon points="237.5,168.5 243.5,168.5 243.5,174.5 237.5,174.5" fill="rgb(255,204,204)"/>
<polygon points="243.5,168.5 249.5,168.5 249.5,174.5 243.5,174.5" fill="rgb(255,174,174)"/>
<polygon points="150.5,174.5 156.5,174.5 156.5,180.5 150.5,180.5" fill="rgb(0,255,255)"/>
<polygon points="156.5,174.5 162.5,174.5 162.5,180.5 156.5,180.5" fill="rgb(255,255,255)"/>
<polygon points="165.5,174.5 171.5,174.5 171.5,180.5 165.5,180.5" fill="rgb(250,250,255)"/>
<polygon points="171.5,174.5 177.5,174.5 177.5,180.5 171.5,180.5" fill="rgb(255,249,249)"/>
<polygon points="177.5,174.5 183.5,174.5 183.5,180.5 177.5,180.5" fill="rgb(255,251,251)"/>
<polygon points="183.5,174.5 189.5,174.5 189.5,180.5 183.5,180.5" fill="rgb(255,224,224)"/>
<polygon points="189.5,174.5 195.5,174.5 195.5,180.5 189.5,180.5" fill="rgb(163,163,255)"/>
<polygon points="195.5,174.5 201.5,174.5 201.5,180.5 195.5,180.5" fill="rgb(75,75,255)"/>
<polygon points="201.5,174.5 207.5,174.5 207.5,180.5 201.5,180.5" fill="rgb(217,217,255)"/>
<polygon points="207.5,174.5 213.5,174.5 213.5,180.5 207.5,180.5" fill="rgb(255,246,246)"/>
<polygon points="213.5,174.5 219.5,174.5 219.5,180.5 213.5,180.5" fill="rgb(255,254,254)"/>
<polygon points="219.5,174.5 225.5,174.5 225.5,180.5 219.5,180.5" fill="rgb(255,238,238)"/>
<polygon points="225.5,174.5 231.5,174.5 231.5,180.5 225.5,180.5" fill="rgb(255,212,212)"/>
<polygon points="231.5,174.5 237.5,174.5 237.5,180.5 231.5,180.5" fill="rgb(255,238,238)"/>
<polygon points="237.5,174.5 243.5,174.5 243.5,180.5 237.5,180.5" fill="rgb(255,227,227)"/>
<polygon points="243.5,174.5 249.5,174.5 249.5,180.5 243.5,180.5" fill="rgb(255,199,199)"/>
<polygon points="150.5,180.5 156.5,180.5 156.5,186.5 150.5,186.5" fill="rgb(0,255,255)"/>
<polygon points="156.5,180.5 162.5,180.5 162.5,186.5 156.5,186.5" fill="rgb(255,255,255)"/>
<polygon points="165.5,180.5 171.5,180.5 171.5,186.5 165.5,186.5" fill="rgb(255,241,241)"/>
<polygon points="171.5,180.5 177.5,180.5 177.5,186.5 171.5,186.5" fill="rgb(255,229,229)"/>
<polygon points="177.5,180.5 183.5,180.5 183.5,186.5 177.5,186.5" fill="rgb(255,232,232)"/>
<polygon points="183.5,180.5 189.5,180.5 189.5,186.5 183.5,186.5" fill="rgb(255,221,221)"/>
<polygon points="189.5,180.5 195.5,180.5 195.5,186.5 189.5,186.5" fill="rgb(255,247,247)"/>
<polygon points="195.5,180.5 201.5,180.5 201.5,186.5 195.5,186.5" fill="rgb(255,241,241)"/>
<polygon points="201.5,180.5 207.5,180.5 207.5,186.5 201.5,186.5" fill="rgb(255,246,246)"/>
<polygon points="207.5,180.5 213.5,180.5 213.5,186.5 207.5,186.5" fill="rgb(255,235,235)"/>
<polygon points="213.5,180.5 219.5,180.5 219.5,186.5 213.5,186.5" fill="rgb(255,237,237)"/>
<polygon points="219.5,180.5 225.5,180.5 225.5,186.5 219.5,186.5" fill="rgb(255,226,226)"/>
<polygon points="225.5,180.5 231.5,180.5 231.5,186.5 225.5,186.5" fill="rgb(255,216,216)"/>
<polygon points="231.5,180.5 237.5,180.5 237.5,186.5 231.5,186.5" fill="rgb(255,231,231)"/>
<polygon points="237.5,180.5 243.5,180.5 243.5,186.5 237.5,186.5" fill="rgb(254,212,212)"/>
<polygon points="243.5,180.5 249.5,180.5 249.5,186.5 243.5,186.5" fill="rgb(255,201,201)"/>
<polygon points="150.5,189.5 156.5,189.5 156.5,195.5 150.5,195.5" fill="rgb(255,255,255)"/>
<polygon points="156.5,189.5 162.5,189.5 162.5,195.5 156.5,195.5" fill="rgb(255,255,255)"/>
<polygon points="165.5,189.5 171.5,189.5 171.5,195.5 165.5,195.5" fill="rgb(0,0,255)"/>
<polygon points="171.5,189.5 177.5,189.5 177.5,195.5 171.5,195.5" fill="rgb(0,0,255)"/>
<polygon points="177.5,189.5 183.5,189.5 183.5,195.5 177.5,195.5" fill="rgb(255,241,241)"/>
<polygon points="183.5,189.5 189.5,189.5 189.5,195.5 183.5,195.5" fill="rgb(255,205,205)"/>
<polygon points="189.5,189.5 195.5,189.5 195.5,195.5 189.5,195.5" fill="rgb(0,0,255)"/>
<polygon points="195.5,189.5 201.5,189.5 201.5,195.5 195.5,195.5" fill="rgb(0,0,255)"/>
<polygon points="201.5,189.5 207.5,189.5 207.5,195.5 201.5,195.5" fill="rgb(0,0,255)"/>
<polygon points="207.5,189.5 213.5,189.5 213.5,195.5 207.5,195.5" fill="rgb(0,0,255)"/>
<polygon points="213.5,189.5 219.5,189.5 219.5,195.5 213.5,195.5" fill="rgb(0,0,255)"/>
<polygon points="219.5,189.5 225.5,189.5 225.5,195.5 219.5,195.5" fill="rgb(205,205,255)"/>
<polygon points="225.5,189.5 231.5,189.5 231.5,195.5 225.5,195.5" fill="rgb(255,169,169)"/>
<polygon points="231.5,189.5 237.5,189.5 237.5,195.5 231.5,195.5" fill="rgb(255,216,216)"/>
<polygon points="237.5,189.5 243.5,189.5 243.5,195.5 237.5,195.5" fill="rgb(255,156,156)"/>
<polygon points="243.5,189.5 249.5,189.5 249.5,195.5 243.5,195.5" fill="rgb(255,105,105)"/>
<polygon points="150.5,195.5 156.5,195.5 156.5,201.5 150.5,201.5" fill="rgb(255,255,255)"/>
<polygon points="156.5,195.5 162.5,195.5 162.5,201.5 156.5,201.5" fill="rgb(255,255,255)"/>
<polygon points="165.5,195.5 171.5,195.5 171.5,201.5 165.5,201.5" fill="rgb(0,0,255)"/>
<polygon points="171.5,195.5 177.5,195.5 177.5,201.5 171.5,201.5" fill="rgb(237,237,255)"/>
<polygon points="177.5,195.5 183.5,195.5 183.5,201.5 177.5,201.5" fill="rgb(0,0,255)"/>
<polygon points="183.5,195.5 189.5,195.5 189.5,201.5 183.5,201.5" fill="rgb(255,224,224)"/>
<polygon points="189.5,195.5 195.5,195.5 195.5,201.5 189.5,201.5" fill="rgb(0,0,255)"/>
<polygon points="195.5,195.5 201.5,195.5 201.5,201.5 195.5,201.5" fill="rgb(255,247,247)"/>
<polygon points="201.5,195.5 207.5,195.5 207.5,201.5 201.5,201.5" fill="rgb(0,0,255)"/>
<polygon points="207.5,195.5 213.5,195.5 213.5,201.5 207.5,201.5" fill="rgb(254,250,250)"/>
<polygon points="213.5,195.5 219.5,195.5 219.5,201.5 213.5,201.5" fill="rgb(73,73,255)"/>
<polygon points="219.5,195.5 225.5,195.5 225.5,201.5 219.5,201.5" fill="rgb(216,216,255)"/>
<polygon points="225.5,195.5 231.5,195.5 231.5,201.5 225.5,201.5" fill="rgb(254,240,240)"/>
<polygon points="231.5,195.5 237.5,195.5 237.5,201.5 231.5,201.5" fill="rgb(0,0,255)"/>
<polygon points="237.5,195.5 243.5,195.5 243.5,201.5 237.5,201.5" fill="rgb(255,246,246)"/>
<polygon points="243.5,195.5 249.5,195.5 249.5,201.5 243.5,201.5" fill="rgb(255,171,171)"/>
<polygon points="150.5,150.5 162.5,150.5 162.5,186.5 150.5,186.5" fill="none" stroke="black" stroke-width="0.5"/>
<polygon points="165.5,150.5 249.5,150.5 249.5,186.5 165.5,186.5" fill="none" stroke="black" stroke-width="0.5"/>
<polygon points="150.5,189.5 162.5,189.5 162.5,201.5 150.5,201.5" fill="none" stroke="black" stroke-width="0.5"/>
<polygon points="165.5,189.5 249.5,189.5 249.5,201.5 165.5,201.5" fill="none" stroke="black" stroke-width="0.5"/>
<text xml:space="preserve" x="195.25" y="234.167" font-family="Arial" font-size="7" text-anchor="middle">enrichments</text>
<polygon points="85.25,241.5 105.25,241.5 105.25,261.5 85.25,261.5" fill="rgb(255,255,255)"/><polygon points="85.25,241.5 105.25,241.5 105.25,261.5 85.25,261.5" fill="none" stroke="black" stroke-width="0.5"/><text xml:space="preserve" x="95.25" y="253.5" font-family="Arial" font-size="5" fill="rgb(0,0,0)" text-anchor="middle">0.0</text>
<polygon points="105.25,241.5 125.25,241.5 125.25,261.5 105.25,261.5" fill="rgb(216,178,216)"/><polygon points="105.25,241.5 125.25,241.5 125.25,261.5 105.25,261.5" fill="none" stroke="black" stroke-width="0.5"/><text xml:space="preserve" x="115.25" y="253.5" font-family="Arial" font-size="5" fill="rgb(0,0,0)" text-anchor="middle">0.3</text>
<polygon points="125.25,241.5 145.25,241.5 145.25,261.5 125.25,261.5" fill="rgb(178,102,178)"/><polygon points="125.25,241.5 145.25,241.5 145.25,261.5 125.25,261.5" fill="none" stroke="black" stroke-width="0.5"/><text xml:space="preserve" x="135.25" y="253.5" font-family="Arial" font-size="5" fill="rgb(0,0,0)" text-anchor="middle">0.6</text>
<polygon points="145.25,241.5 165.25,241.5 165.25,261.5 145.25,261.5" fill="rgb(140,25,140)"/><polygon points="145.25,241.5 165.25,241.5 165.25,261.5 145.25,261.5" fill="none" stroke="black" stroke-width="0.5"/><text xml:space="preserve" x="155.25" y="253.5" font-family="Arial" font-size="5" fill="rgb(255,255,255)" text-anchor="middle">0.9</text>
<polygon points="165.25,241.5 185.25,241.5 185.25,261.5 165.25,261.5" fill="rgb(102,50,153)"/><polygon points="165.25,241.5 185.25,241.5 185.25,261.5 165.25,261.5" fill="none" stroke="black" stroke-width="0.5"/><text xml:space="preserve" x="175.25" y="253.5" font-family="Arial" font-size="5" fill="rgb(255,255,255)" text-anchor="middle">1.2</text>
<polygon points="185.25,241.5 205.25,241.5 205.25,261.5 185.25,261.5" fill="rgb(64,127,191)"/><polygon points="185.25,241.5 205.25,241.5 205.25,261.5 185.25,261.5" fill="none" stroke="black" stroke-width="0.5"/><text xml:space="preserve" x="195.25" y="253.5" font-family="Arial" font-size="5" fill="rgb(255,255,255)" text-anchor="middle">1.5</text>
<polygon points="205.25,241.5 225.25,241.5 225.25,261.5 205.25,261.5" fill="rgb(25,204,229)"/><polygon points="205.25,241.5 225.25,241.5 225.25,261.5 205.25,261.5" fill="none" stroke="black" stroke-width="0.5"/><text xml:space="preserve" x="215.25" y="253.5" font-family="Arial" font-size="5" fill="rgb(0,0,0)" text-anchor="middle">1.8</text>
<polygon points="225.25,241.5 245.25,241.5 245.25,261.5 225.25,261.5" fill="rgb(0,239,239)"/><polygon points="225.25,241.5 245.25,241.5 245.25,261.5 225.25,261.5" fill="none" stroke="black" stroke-width="0.5"/><text xml:space="preserve" x="235.25" y="253.5" font-family="Arial" font-size="5" fill="rgb(0,0,0)" text-anchor="middle">2.1</text>
<polygon points="245.25,241.5 265.25,241.5 265.25,261.5 245.25,261.5" fill="rgb(0,193,193)"/><polygon points="245.25,241.5 265.25,241.5 265.25,261.5 245.25,261.5" fill="none" stroke="black" stroke-width="0.5"/><text xml:space="preserve" x="255.25" y="253.5" font-family="Arial" font-size="5" fill="rgb(0,0,0)" text-anchor="middle">2.4</text>
<polygon points="265.25,241.5 285.25,241.5 285.25,261.5 265.25,261.5" fill="rgb(0,146,146)"/><polygon points="265.25,241.5 285.25,241.5 285.25,261.5 265.25,261.5" fill="none" stroke="black" stroke-width="0.5"/><text xml:space="preserve" x="275.25" y="253.5" font-family="Arial" font-size="5" fill="rgb(255,255,255)" text-anchor="middle">2.7</text>
<polygon points="285.25,241.5 305.25,241.5 305.25,261.5 285.25,261.5" fill="rgb(0,100,100)"/><polygon points="285.25,241.5 305.25,241.5 305.25,261.5 285.25,261.5" fill="none" stroke="black" stroke-width="0.5"/><text xml:space="preserve" x="295.25" y="253.5" font-family="Arial" font-size="5" fill="rgb(255,255,255)" text-anchor="middle">3.0</text>
<text xml:space="preserve" x="195.25" y="294.167" font-family="Arial" font-size="7" text-anchor="middle">expression</text>
<polygon points="85.25,301.5 105.25,301.5 105.25,321.5 85.25,321.5" fill="rgb(0,0,255)"/><polygon points="85.25,301.5 105.25,301.5 105.25,321.5 85.25,321.5" fill="none" stroke="black" stroke-width="0.5"/><text xml:space="preserve" x="95.25" y="313.5" font-family="Arial" font-size="5" fill="rgb(255,255,255)" text-anchor="middle">0.0</text>
<polygon points="105.25,301.5 125.25,301.5 125.25,321.5 105.25,321.5" fill="rgb(255,211,211)"/><polygon points="105.25,301.5 125.25,301.5 125.25,321.5 105.25,321.5" fill="none" stroke="black" stroke-width="0.5"/><text xml:space="preserve" x="115.25" y="313.5" font-family="Arial" font-size="5" fill="rgb(0,0,0)" text-anchor="middle">0.6</text>
<polygon points="125.25,301.5 145.25,301.5 145.25,321.5 125.25,321.5" fill="rgb(255,158,158)"/><polygon points="125.25,301.5 145.25,301.5 145.25,321.5 125.25,321.5" fill="none" stroke="black" stroke-width="0.5"/><text xml:space="preserve" x="135.25" y="313.5" font-family="Arial" font-size="5" fill="rgb(0,0,0)" text-anchor="middle">1.2</text>
<polygon points="145.25,301.5 165.25,301.5 165.25,321.5 145.25,321.5" fill="rgb(255,105,105)"/><polygon points="145.25,301.5 165.25,301.5 165.25,321.5 145.25,321.5" fill="none" stroke="black" stroke-width="0.5"/><text xml:space="preserve" x="155.25" y="313.5" font-family="Arial" font-size="5" fill="rgb(0,0,0)" text-anchor="middle">1.8</text>
<polygon points="165.25,301.5 185.25,301.5 185.25,321.5 165.25,321.5" fill="rgb(255,52,52)"/><polygon points="165.25,301.5 185.25,301.5 185.25,321.5 165.25,321.5" fill="none" stroke="black" stroke-width="0.5"/><text xml:space="preserve" x="175.25" y="313.5" font-family="Arial" font-size="5" fill="rgb(255,255,255)" text-anchor="middle">2.4</text>
<polygon points="185.25,301.5 205.25,301.5 205.25,321.5 185.25,321.5" fill="rgb(255,0,0)"/><polygon points="185.25,301.5 205.25,301.5 205.25,321.5 185.25,321.5" fill="none" stroke="black" stroke-width="0.5"/><text xml:space="preserve" x="195.25" y="313.5" font-family="Arial" font-size="5" fill="rgb(255,255,255)" text-anchor="middle">3.0</text>
<polygon points="205.25,301.5 225.25,301.5 225.25,321.5 205.25,321.5" fill="rgb(231,0,0)"/><polygon points="205.25,301.5 225.25,301.5 225.25,321.5 205.25,321.5" fill="none" stroke="black" stroke-width="0.5"/><text xml:space="preserve" x="215.25" y="313.5" font-family="Arial" font-size="5" fill="rgb(255,255,255)" text-anchor="middle">3.6</text>
<polygon points="225.25,301.5 245.25,301.5 245.25,321.5 225.25,321.5" fill="rgb(208,0,0)"/><polygon points="225.25,301.5 245.25,301.5 245.25,321.5 225.25,321.5" fill="none" stroke="black" stroke-width="0.5"/><text xml:space="preserve" x="235.25" y="313.5" font-family="Arial" font-size="5" fill="rgb(255,255,255)" text-anchor="middle">4.2</text>
<polygon points="245.25,301.5 265.25,301.5 265.25,321.5 245.25,321.5" fill="rgb(185,0,0)"/><polygon points="245.25,301.5 265.25,301.5 265.25,321.5 245.25,321.5" fill="none" stroke="black" stroke-width="0.5"/><text xml:space="preserve" x="255.25" y="313.5" font-family="Arial" font-size="5" fill="rgb(255,255,255)" text-anchor="middle">4.8</text>
<polygon points="265.25,301.5 285.25,301.5 285.25,321.5 265.25,321.5" fill="rgb(162,0,0)"/><polygon points="265.25,301.5 285.25,301.5 285.25,321.5 265.25,321.5" fill="none" stroke="black" stroke-width="0.5"/><text xml:space="preserve" x="275.25" y="313.5" font-family="Arial" font-size="5" fill="rgb(255,255,255)" text-anchor="middle">5.4</text>
<polygon points="285.25,301.5 305.25,301.5 305.25,321.5 285.25,321.5" fill="rgb(139,0,0)"/><polygon points="285.25,301.5 305.25,301.5 305.25,321.5 285.25,321.5" fill="none" stroke="black" stroke-width="0.5"/><text xml:space="preserve" x="295.25" y="313.5" font-family="Arial" font-size="5" fill="rgb(255,255,255)" text-anchor="middle">6.0</text>
</svg>
