<?xml version="1.0" standalone="no"?><!DOCTYPE svg PUBLIC "-//W3C//DTD SVG 1.1//EN" "http://www.w3.org/Graphics/SVG/1.1/DTD/svg11.dtd">
<svg width="389" height="787" version="1.1" xmlns="http://www.w3.org/2000/svg">
<text xml:space="preserve" x="145" y="607.667" font-family="Arial" font-size="7" text-anchor="end">Foxc2</text>
<text xml:space="preserve" x="145" y="613.667" font-family="Arial" font-size="7" text-anchor="end">Tgfb3</text>
<text xml:space="preserve" x="145" y="619.667" font-family="Arial" font-size="7" text-anchor="end">Zfp503</text>
<text xml:space="preserve" x="145" y="625.667" font-family="Arial" font-size="7" text-anchor="end">Snai1</text>
<text xml:space="preserve" x="145" y="631.667" font-family="Arial" font-size="7" text-anchor="end">Pmepa1</text>
<text xml:space="preserve" x="145" y="640.667" font-family="Arial" font-size="7" text-anchor="end">Ctcfl_nca:2</text>
<text xml:space="preserve" x="145" y="646.667" font-family="Arial" font-size="7" text-anchor="end">Smad9_nca:2</text>
<text xml:space="preserve" x="154.667" y="598" font-family="Arial" font-size="7" transform="rotate(270 154.667 598)">embryonic_organ_development:1</text>
<text xml:space="preserve" x="160.667" y="598" font-family="Arial" font-size="7" transform="rotate(270 160.667 598)">negative_regulation_of_apoptotic_process:1</text>
<text xml:space="preserve" x="166.667" y="598" font-family="Arial" font-size="7" transform="rotate(270 166.667 598)">skeletal_system_development:1</text>
<text xml:space="preserve" x="172.667" y="598" font-family="Arial" font-size="7" transform="rotate(270 172.667 598)">positive_regulation_of_cellular_component_organization:1</text>
<text xml:space="preserve" x="178.667" y="598" font-family="Arial" font-size="7" transform="rotate(270 178.667 598)">regulation_of_cellular_component_biogenesis:1</text>
<text xml:space="preserve" x="184.667" y="598" font-family="Arial" font-size="7" transform="rotate(270 184.667 598)">negative_regulation_of_programmed_cell_death:1</text>
<text xml:space="preserve" x="190.667" y="598" font-family="Arial" font-size="7" transform="rotate(270 190.667 598)">regulation_of_anatomical_structure_morphogenesis:1</text>
<text xml:space="preserve" x="196.667" y="598" font-family="Arial" font-size="7" transform="rotate(270 196.667 598)">negative_regulation_of_cell_death:1</text>
<text xml:space="preserve" x="205.667" y="598" font-family="Arial" font-size="7" transform="rotate(270 205.667 598)">Ctcfl_nca:2</text>
<text xml:space="preserve" x="211.667" y="598" font-family="Arial" font-size="7" transform="rotate(270 211.667 598)">Smad9_nca:2</text>
<text xml:space="preserve" x="220.667" y="598" font-family="Arial" font-size="7" transform="rotate(270 220.667 598)">C2</text>
<text xml:space="preserve" x="226.667" y="598" font-family="Arial" font-size="7" transform="rotate(270 226.667 598)">C7</text>
<text xml:space="preserve" x="232.667" y="598" font-family="Arial" font-size="7" transform="rotate(270 232.667 598)">C3</text>
<text xml:space="preserve" x="238.667" y="598" font-family="Arial" font-size="7" transform="rotate(270 238.667 598)">C5</text>
<text xml:space="preserve" x="244.667" y="598" font-family="Arial" font-size="7" transform="rotate(270 244.667 598)">C12</text>
<text xml:space="preserve" x="250.667" y="598" font-family="Arial" font-size="7" transform="rotate(270 250.667 598)">C13</text>
<text xml:space="preserve" x="256.667" y="598" font-family="Arial" font-size="7" transform="rotate(270 256.667 598)">C14</text>
<text xml:space="preserve" x="262.667" y="598" font-family="Arial" font-size="7" transform="rotate(270 262.667 598)">C11</text>
<text xml:space="preserve" x="268.667" y="598" font-family="Arial" font-size="7" transform="rotate(270 268.667 598)">C4</text>
<text xml:space="preserve" x="274.667" y="598" font-family="Arial" font-size="7" transform="rotate(270 274.667 598)">C8</text>
<text xml:space="preserve" x="280.667" y="598" font-family="Arial" font-size="7" transform="rotate(270 280.667 598)">C6</text>
<text xml:space="preserve" x="286.667" y="598" font-family="Arial" font-size="7" transform="rotate(270 286.667 598)">C10</text>
<text xml:space="preserve" x="292.667" y="598" font-family="Arial" font-size="7" transform="rotate(270 292.667 598)">C9</text>
<text xml:space="preserve" x="298.667" y="598" font-family="Arial" font-size="7" transform="rotate(270 298.667 598)">C1</text>
<polygon points="149,602 155,602 155,608 149,608" fill="rgb(128,0,128)"/>
<polygon points="155,602 161,602 161,608 155,608" fill="rgb(128,0,128)"/>
<polygon points="161,602 167,602 167,608 161,608" fill="rgb(128,0,128)"/>
<polygon points="167,602 173,602 173,608 167,608" fill="rgb(128,0,128)"/>
<polygon points="173,602 179,602 179,608 173,608" fill="rgb(128,0,128)"/>
<polygon points="179,602 185,602 185,608 179,608" fill="rgb(128,0,128)"/>
<polygon points="185,602 191,602 191,608 185,608" fill="rgb(128,0,128)"/>
<polygon points="191,602 197,602 197,608 191,608" fill="rgb(128,0,128)"/>
<polygon points="200,602 206,602 206,608 200,608" fill="rgb(0,255,255)"/>
<polygon points="206,602 212,602 212,608 206,608" fill="rgb(255,255,255)"/>
<polygon points="215,602 221,602 221,608 215,608" fill="rgb(254,234,234)"/>
<polygon points="221,602 227,602 227,608 221,608" fill="rgb(255,228,228)"/>
<polygon points="227,602 233,602 233,608 227,608" fill="rgb(211,211,255)"/>
<polygon points="233,602 239,602 239,608 233,608" fill="rgb(84,84,255)"/>
<polygon points="239,602 245,602 245,608 239,608" fill="rgb(113,113,255)"/>
<polygon points="245,602 251,602 251,608 245,608" fill="rgb(216,216,255)"/>
<polygon points="251,602 257,602 257,608 251,608" fill="rgb(35,35,254)"/>
<polygon points="257,602 263,602 263,608 257,608" fill="rgb(35,35,255)"/>
<polygon points="263,602 269,602 269,608 263,608" fill="rgb(21,21,254)"/>
<polygon points="269,602 275,602 275,608 269,608" fill="rgb(12,12,255)"/>
<polygon points="275,602 281,602 281,608 275,608" fill="rgb(31,31,255)"/>
<polygon points="281,602 287,602 287,608 281,608" fill="rgb(0,0,255)"/>
<polygon points="287,602 293,602 293,608 287,608" fill="rgb(0,0,255)"/>
<polygon points="293,602 299,602 299,608 293,608" fill="rgb(0,0,255)"/>
<polygon points="149,608 155,608 155,614 149,614" fill="rgb(128,0,128)"/>
<polygon points="155,608 161,608 161,614 155,614" fill="rgb(128,0,128)"/>
<polygon points="161,608 167,608 167,614 161,614" fill="rgb(128,0,128)"/>
<polygon points="167,608 173,608 173,614 167,614" fill="rgb(128,0,128)"/>
<polygon points="173,608 179,608 179,614 173,614" fill="rgb(128,0,128)"/>
<polygon points="179,608 185,608 185,614 179,614" fill="rgb(128,0,128)"/>
<polygon points="185,608 191,608 191,614 185,614" fill="rgb(128,0,128)"/>
<polygon points="191,608 197,608 197,614 191,614" fill="rgb(128,0,128)"/>
<polygon points="200,608 206,608 206,614 200,614" fill="rgb(0,255,255)"/>
<polygon points="206,608 212,608 212,614 206,614" fill="rgb(0,255,255)"/>
<polygon points="215,608 221,608 221,614 215,614" fill="rgb(255,163,163)"/>
<polygon points="221,608 227,608 227,614 221,614" fill="rgb(254,176,176)"/>
<polygon points="227,608 233,608 233,614 227,614" fill="rgb(255,234,234)"/>
<polygon points="233,608 239,608 239,614 233,614" fill="rgb(255,236,236)"/>
<polygon points="239,608 245,608 245,614 239,614" fill="rgb(255,225,225)"/>
<polygon points="245,608 251,608 251,614 245,614" fill="rgb(254,189,189)"/>
<polygon points="251,608 257,608 257,614 251,614" fill="rgb(255,254,254)"/>
<polygon points="257,608 263,608 263,614 257,614" fill="rgb(255,246,246)"/>
<polygon points="263,608 269,608 269,614 263,614" fill="rgb(255,245,245)"/>
<polygon points="269,608 275,608 275,614 269,614" fill="rgb(255,241,241)"/>
<polygon points="275,608 281,608 281,614 275,614" fill="rgb(254,250,250)"/>
<polygon points="281,608 287,608 287,614 281,614" fill="rgb(136,136,255)"/>
<polygon points="287,608 293,608 293,614 287,614" fill="rgb(33,33,255)"/>
<polygon points="293,608 299,608 299,614 293,614" fill="rgb(0,0,255)"/>
<polygon points="149,614 155,614 155,620 149,620" fill="rgb(255,255,255)"/>
<polygon points="155,614 161,614 161,620 155,620" fill="rgb(255,255,255)"/>
<polygon points="161,614 167,614 167,620 161,620" fill="rgb(255,255,255)"/>
<polygon points="167,614 173,614 173,620 167,620" fill="rgb(255,255,255)"/>
<polygon points="173,614 179,614 179,620 173,620" fill="rgb(255,255,255)"/>
<polygon points="179,614 185,614 185,620 179,620" fill="rgb(255,255,255)"/>
<polygon points="185,614 191,614 191,620 185,620" fill="rgb(255,255,255)"/>
<polygon points="191,614 197,614 197,620 191,620" fill="rgb(255,255,255)"/>
<polygon points="200,614 206,614 206,620 200,620" fill="rgb(0,255,255)"/>
<polygon points="206,614 212,614 212,620 206,620" fill="rgb(0,255,255)"/>
<polygon points="215,614 221,614 221,620 215,620" fill="rgb(255,183,183)"/>
<polygon points="221,614 227,614 227,620 221,620" fill="rgb(255,171,171)"/>
<polygon points="227,614 233,614 233,620 227,620" fill="rgb(255,217,217)"/>
<polygon points="233,614 239,614 239,620 233,620" fill="rgb(255,221,221)"/>
<polygon points="239,614 245,614 245,620 239,620" fill="rgb(255,239,239)"/>
<polygon points="245,614 251,614 251,620 245,620" fill="rgb(255,205,205)"/>
<polygon points="251,614 257,614 257,620 251,620" fill="rgb(255,249,249)"/>
<polygon points="257,614 263,614 263,620 257,620" fill="rgb(255,224,224)"/>
<polygon points="263,614 269,614 269,620 263,620" fill="rgb(254,234,234)"/>
<polygon points="269,614 275,614 275,620 269,620" fill="rgb(255,243,243)"/>
<polygon points="275,614 281,614 281,620 275,620" fill="rgb(255,248,248)"/>
<polygon points="281,614 287,614 287,620 281,620" fill="rgb(255,249,249)"/>
<polygon points="287,614 293,614 293,620 287,620" fill="rgb(95,95,255)"/>
<polygon points="293,614 299,614 299,620 293,620" fill="rgb(56,56,255)"/>
<polygon points="149,620 155,620 155,626 149,626" fill="rgb(128,0,128)"/>
<polygon points="155,620 161,620 161,626 155,626" fill="rgb(128,0,128)"/>
<polygon points="161,620 167,620 167,626 161,626" fill="rgb(128,0,128)"/>
<polygon points="167,620 173,620 173,626 167,626" fill="rgb(128,0,128)"/>
<polygon points="173,620 179,620 179,626 173,626" fill="rgb(128,0,128)"/>
<polygon points="179,620 185,620 185,626 179,626" fill="rgb(128,0,128)"/>
<polygon points="185,620 191,620 191,626 185,626" fill="rgb(128,0,128)"/>
<polygon points="191,620 197,620 197,626 191,626" fill="rgb(128,0,128)"/>
<polygon points="200,620 206,620 206,626 200,626" fill="rgb(0,255,255)"/>
<polygon points="206,620 212,620 212,626 206,626" fill="rgb(0,255,255)"/>
<polygon points="215,620 221,620 221,626 215,626" fill="rgb(255,207,207)"/>
<polygon points="221,620 227,620 227,626 221,626" fill="rgb(255,208,208)"/>
<polygon points="227,620 233,620 233,626 227,626" fill="rgb(255,250,250)"/>
<polygon points="233,620 239,620 239,626 233,626" fill="rgb(193,193,255)"/>
<polygon points="239,620 245,620 245,626 239,626" fill="rgb(210,210,255)"/>
<polygon points="245,620 251,620 251,626 245,626" fill="rgb(255,236,236)"/>
<polygon points="251,620 257,620 257,626 251,626" fill="rgb(74,74,255)"/>
<polygon points="257,620 263,620 263,626 257,626" fill="rgb(206,206,255)"/>
<polygon points="263,620 269,620 269,626 263,626" fill="rgb(132,132,255)"/>
<polygon points="269,620 275,620 275,626 269,626" fill="rgb(177,177,255)"/>
<polygon points="275,620 281,620 281,626 275,626" fill="rgb(88,88,255)"/>
<polygon points="281,620 287,620 287,626 281,626" fill="rgb(71,71,255)"/>
<polygon points="287,620 293,620 293,626 287,626" fill="rgb(14,14,255)"/>
<polygon points="293,620 299,620 299,626 293,626" fill="rgb(13,13,255)"/>
<polygon points="149,626 155,626 155,632 149,632" fill="rgb(255,255,255)"/>
<polygon points="155,626 161,626 161,632 155,632" fill="rgb(255,255,255)"/>
<polygon points="161,626 167,626 167,632 161,632" fill="rgb(255,255,255)"/>
<polygon points="167,626 173,626 173,632 167,632" fill="rgb(255,255,255)"/>
<polygon points="173,626 179,626 179,632 173,632" fill="rgb(255,255,255)"/>
<polygon points="179,626 185,626 185,632 179,632" fill="rgb(255,255,255)"/>
<polygon points="185,626 191,626 191,632 185,632" fill="rgb(255,255,255)"/>
<polygon points="191,626 197,626 197,632 191,632" fill="rgb(255,255,255)"/>
<polygon points="200,626 206,626 206,632 200,632" fill="rgb(0,255,255)"/>
<polygon points="206,626 212,626 212,632 206,632" fill="rgb(0,255,255)"/>
<polygon points="215,626 221,626 221,632 215,632" fill="rgb(255,47,47)"/>
<polygon points="221,626 227,626 227,632 221,632" fill="rgb(255,66,66)"/>
<polygon points="227,626 233,626 233,632 227,632" fill="rgb(255,202,202)"/>
<polygon points="233,626 239,626 239,632 233,632" fill="rgb(255,191,191)"/>
<polygon points="239,626 245,626 245,632 239,632" fill="rgb(254,179,179)"/>
<polygon points="245,626 251,626 251,632 245,632" fill="rgb(255,125,125)"/>
<polygon points="251,626 257,626 257,632 251,632" fill="rgb(255,251,251)"/>
<polygon points="257,626 263,626 263,632 257,632" fill="rgb(255,218,218)"/>
<polygon points="263,626 269,626 269,632 263,632" fill="rgb(255,216,216)"/>
<polygon points="269,626 275,626 275,632 269,632" fill="rgb(255,228,228)"/>
<polygon points="275,626 281,626 281,632 275,632" fill="rgb(254,230,230)"/>
<polygon points="281,626 287,626 287,632 281,632" fill="rgb(255,244,244)"/>
<polygon points="287,626 293,626 293,632 287,632" fill="rgb(255,242,242)"/>
<polygon points="293,626 299,626 299,632 293,632" fill="rgb(255,224,224)"/>
<polygon points="149,635 155,635 155,641 149,641" fill="rgb(255,255,255)"/>
<polygon points="155,635 161,635 161,641 155,641" fill="rgb(255,255,255)"/>
<polygon points="161,635 167,635 167,641 161,641" fill="rgb(255,255,255)"/>
<polygon points="167,635 173,635 173,641 167,641" fill="rgb(255,255,255)"/>
<polygon points="173,635 179,635 179,641 173,641" fill="rgb(255,255,255)"/>
<polygon points="179,635 185,635 185,641 179,641" fill="rgb(255,255,255)"/>
<polygon points="185,635 191,635 191,641 185,641" fill="rgb(255,255,255)"/>
<polygon points="191,635 197,635 197,641 191,641" fill="rgb(255,255,255)"/>
<polygon points="200,635 206,635 206,641 200,641" fill="rgb(255,255,255)"/>
<polygon points="206,635 212,635 212,641 206,641" fill="rgb(255,255,255)"/>
<polygon points="215,635 221,635 221,641 215,641" fill="rgb(255,186,186)"/>
<polygon points="221,635 227,635 227,641 221,641" fill="rgb(255,214,214)"/>
<polygon points="227,635 233,635 233,641 227,641" fill="rgb(0,0,255)"/>
<polygon points="233,635 239,635 239,641 233,641" fill="rgb(0,0,255)"/>
<polygon points="239,635 245,635 245,641 239,641" fill="rgb(255,233,233)"/>
<polygon points="245,635 251,635 251,641 245,641" fill="rgb(255,215,215)"/>
<polygon points="251,635 257,635 257,641 251,641" fill="rgb(0,0,255)"/>
<polygon points="257,635 263,635 263,641 257,641" fill="rgb(0,0,255)"/>
<polygon points="263,635 269,635 269,641 263,641" fill="rgb(0,0,255)"/>
<polygon points="269,635 275,635 275,641 269,641" fill="rgb(0,0,255)"/>
<polygon points="275,635 281,635 281,641 275,641" fill="rgb(0,0,255)"/>
<polygon points="281,635 287,635 287,641 281,641" fill="rgb(0,0,255)"/>
<polygon points="287,635 293,635 293,641 287,641" fill="rgb(0,0,255)"/>
<polygon points="293,635 299,635 299,641 293,641" fill="rgb(0,0,255)"/>
<polygon points="149,641 155,641 155,647 149,647" fill="rgb(255,255,255)"/>
<polygon points="155,641 161,641 161,647 155,647" fill="rgb(255,255,255)"/>
<polygon points="161,641 167,641 167,647 161,647" fill="rgb(255,255,255)"/>
<polygon points="167,641 173,641 173,647 167,647" fill="rgb(255,255,255)"/>
<polygon points="173,641 179,641 179,647 173,647" fill="rgb(255,255,255)"/>
<polygon points="179,641 185,641 185,647 179,647" fill="rgb(255,255,255)"/>
<polygon points="185,641 191,641 191,647 185,647" fill="rgb(255,255,255)"/>
<polygon points="191,641 197,641 197,647 191,647" fill="rgb(255,255,255)"/>
<polygon points="200,641 206,641 206,647 200,647" fill="rgb(255,255,255)"/>
<polygon points="206,641 212,641 212,647 206,647" fill="rgb(255,255,255)"/>
<polygon points="215,641 221,641 221,647 215,647" fill="rgb(255,161,161)"/>
<polygon points="221,641 227,641 227,647 221,647" fill="rgb(255,142,142)"/>
<polygon points="227,641 233,641 233,647 227,647" fill="rgb(255,230,230)"/>
<polygon points="233,641 239,641 239,647 233,647" fill="rgb(254,214,214)"/>
<polygon points="239,641 245,641 245,647 239,647" fill="rgb(0,0,255)"/>
<polygon points="245,641 251,641 251,647 245,647" fill="rgb(8,8,255)"/>
<polygon points="251,641 257,641 257,647 251,647" fill="rgb(0,0,255)"/>
<polygon points="257,641 263,641 263,647 257,647" fill="rgb(255,247,247)"/>
<polygon points="263,641 269,641 269,647 263,647" fill="rgb(0,0,255)"/>
<polygon points="269,641 275,641 275,647 269,647" fill="rgb(0,0,255)"/>
<polygon points="275,641 281,641 281,647 275,647" fill="rgb(0,0,255)"/>
<polygon points="281,641 287,641 287,647 281,647" fill="rgb(0,0,255)"/>
<polygon points="287,641 293,641 293,647 287,647" fill="rgb(0,0,255)"/>
<polygon points="293,641 299,641 299,647 293,647" fill="rgb(0,0,255)"/>
<polygon points="149,602 197,602 197,632 149,632" fill="none" stroke="black" stroke-width="0.5"/>
<polygon points="200,602 212,602 212,632 200,632" fill="none" stroke="black" stroke-width="0.5"/>
<polygon points="215,602 299,602 299,632 215,632" fill="none" stroke="black" stroke-width="0.5"/>
<polygon points="149,635 197,635 197,647 149,647" fill="none" stroke="black" stroke-width="0.5"/>
<polygon points="200,635 212,635 212,647 200,647" fill="none" stroke="black" stroke-width="0.5"/>
<polygon points="215,635 299,635 299,647 215,647" fill="none" stroke="black" stroke-width="0.5"/>
<text xml:space="preserve" x="194.5" y="679.667" font-family="Arial" font-size="7" text-anchor="middle">enrichments</text>
<polygon points="84.5,687 104.5,687 104.5,707 84.5,707" fill="rgb(255,255,255)"/><polygon points="84.5,687 104.5,687 104.5,707 84.5,707" fill="none" stroke="black" stroke-width="0.5"/><text xml:space="preserve" x="94.5" y="699" font-family="Arial" font-size="5" fill="rgb(0,0,0)" text-anchor="middle">0.0</text>
<polygon points="104.5,687 124.5,687 124.5,707 104.5,707" fill="rgb(216,178,216)"/><polygon points="104.5,687 124.5,687 124.5,707 104.5,707" fill="none" stroke="black" stroke-width="0.5"/><text xml:space="preserve" x="114.5" y="699" font-family="Arial" font-size="5" fill="rgb(0,0,0)" text-anchor="middle">0.3</text>
<polygon points="124.5,687 144.5,687 144.5,707 124.5,707" fill="rgb(178,102,178)"/><polygon points="124.5,687 144.5,687 144.5,707 124.5,707" fill="none" stroke="black" stroke-width="0.5"/><text xml:space="preserve" x="134.5" y="699" font-family="Arial" font-size="5" fill="rgb(0,0,0)" text-anchor="middle">0.6</text>
<polygon points="144.5,687 164.5,687 164.5,707 144.5,707" fill="rgb(140,25,140)"/><polygon points="144.5,687 164.5,687 164.5,707 144.5,707" fill="none" stroke="black" stroke-width="0.5"/><text xml:space="preserve" x="154.5" y="699" font-family="Arial" font-size="5" fill="rgb(255,255,255)" text-anchor="middle">0.9</text>
<polygon points="164.5,687 184.5,687 184.5,707 164.5,707" fill="rgb(102,50,153)"/><polygon points="164.5,687 184.5,687 184.5,707 164.5,707" fill="none" stroke="black" stroke-width="0.5"/><text xml:space="preserve" x="174.5" y="699" font-family="Arial" font-size="5" fill="rgb(255,255,255)" text-anchor="middle">1.2</text>
<polygon points="184.5,687 204.5,687 204.5,707 184.5,707" fill="rgb(64,127,191)"/><polygon points="184.5,687 204.5,687 204.5,707 184.5,707" fill="none" stroke="black" stroke-width="0.5"/><text xml:space="preserve" x="194.5" y="699" font-family="Arial" font-size="5" fill="rgb(255,255,255)" text-anchor="middle">1.5</text>
<polygon points="204.5,687 224.5,687 224.5,707 204.5,707" fill="rgb(25,204,229)"/><polygon points="204.5,687 224.5,687 224.5,707 204.5,707" fill="none" stroke="black" stroke-width="0.5"/><text xml:space="preserve" x="214.5" y="699" font-family="Arial" font-size="5" fill="rgb(0,0,0)" text-anchor="middle">1.8</text>
<polygon points="224.5,687 244.5,687 244.5,707 224.5,707" fill="rgb(0,239,239)"/><polygon points="224.5,687 244.5,687 244.5,707 224.5,707" fill="none" stroke="black" stroke-width="0.5"/><text xml:space="preserve" x="234.5" y="699" font-family="Arial" font-size="5" fill="rgb(0,0,0)" text-anchor="middle">2.1</text>
<polygon points="244.5,687 264.5,687 264.5,707 244.5,707" fill="rgb(0,193,193)"/><polygon points="244.5,687 264.5,687 264.5,707 244.5,707" fill="none" stroke="black" stroke-width="0.5"/><text xml:space="preserve" x="254.5" y="699" font-family="Arial" font-size="5" fill="rgb(0,0,0)" text-anchor="middle">2.4</text>
<polygon points="264.5,687 284.5,687 284.5,707 264.5,707" fill="rgb(0,146,146)"/><polygon points="264.5,687 284.5,687 284.5,707 264.5,707" fill="none" stroke="black" stroke-width="0.5"/><text xml:space="preserve" x="274.5" y="699" font-family="Arial" font-size="5" fill="rgb(255,255,255)" text-anchor="middle">2.7</text>
<polygon points="284.5,687 304.5,687 304.5,707 284.5,707" fill="rgb(0,100,100)"/><polygon points="284.5,687 304.5,687 304.5,707 284.5,707" fill="none" stroke="black" stroke-width="0.5"/><text xml:space="preserve" x="294.5" y="699" font-family="Arial" font-size="5" fill="rgb(255,255,255)" text-anchor="middle">3.0</text>
<text xml:space="preserve" x="194.5" y="739.667" font-family="Arial" font-size="7" text-anchor="middle">expression</text>
<polygon points="84.5,747 104.5,747 104.5,767 84.5,767" fill="rgb(0,0,255)"/><polygon points="84.5,747 104.5,747 104.5,767 84.5,767" fill="none" stroke="black" stroke-width="0.5"/><text xml:space="preserve" x="94.5" y="759" font-family="Arial" font-size="5" fill="rgb(255,255,255)" text-anchor="middle">0.0</text>
<polygon points="104.5,747 124.5,747 124.5,767 104.5,767" fill="rgb(255,211,211)"/><polygon points="104.5,747 124.5,747 124.5,767 104.5,767" fill="none" stroke="black" stroke-width="0.5"/><text xml:space="preserve" x="114.5" y="759" font-family="Arial" font-size="5" fill="rgb(0,0,0)" text-anchor="middle">0.6</text>
<polygon points="124.5,747 144.5,747 144.5,767 124.5,767" fill="rgb(255,158,158)"/><polygon points="124.5,747 144.5,747 144.5,767 124.5,767" fill="none" stroke="black" stroke-width="0.5"/><text xml:space="preserve" x="134.5" y="759" font-family="Arial" font-size="5" fill="rgb(0,0,0)" text-anchor="middle">1.2</text>
<polygon points="144.5,747 164.5,747 164.5,767 144.5,767" fill="rgb(255,105,105)"/><polygon points="144.5,747 164.5,747 164.5,767 144.5,767" fill="none" stroke="black" stroke-width="0.5"/><text xml:space="preserve" x="154.5" y="759" font-family="Arial" font-size="5" fill="rgb(0,0,0)" text-anchor="middle">1.8</text>
<polygon points="164.5,747 184.5,747 184.5,767 164.5,767" fill="rgb(255,52,52)"/><polygon points="164.5,747 184.5,747 184.5,767 164.5,767" fill="none" stroke="black" stroke-width="0.5"/><text xml:space="preserve" x="174.5" y="759" font-family="Arial" font-size="5" fill="rgb(255,255,255)" text-anchor="middle">2.4</text>
<polygon points="184.5,747 204.5,747 204.5,767 184.5,767" fill="rgb(255,0,0)"/><polygon points="184.5,747 204.5,747 204.5,767 184.5,767" fill="none" stroke="black" stroke-width="0.5"/><text xml:space="preserve" x="194.5" y="759" font-family="Arial" font-size="5" fill="rgb(255,255,255)" text-anchor="middle">3.0</text>
<polygon points="204.5,747 224.5,747 224.5,767 204.5,767" fill="rgb(231,0,0)"/><polygon points="204.5,747 224.5,747 224.5,767 204.5,767" fill="none" stroke="black" stroke-width="0.5"/><text xml:space="preserve" x="214.5" y="759" font-family="Arial" font-size="5" fill="rgb(255,255,255)" text-anchor="middle">3.6</text>
<polygon points="224.5,747 244.5,747 244.5,767 224.5,767" fill="rgb(208,0,0)"/><polygon points="224.5,747 244.5,747 244.5,767 224.5,767" fill="none" stroke="black" stroke-width="0.5"/><text xml:space="preserve" x="234.5" y="759" font-family="Arial" font-size="5" fill="rgb(255,255,255)" text-anchor="middle">4.2</text>
<polygon points="244.5,747 264.5,747 264.5,767 244.5,767" fill="rgb(185,0,0)"/><polygon points="244.5,747 264.5,747 264.5,767 244.5,767" fill="none" stroke="black" stroke-width="0.5"/><text xml:space="preserve" x="254.5" y="759" font-family="Arial" font-size="5" fill="rgb(255,255,255)" text-anchor="middle">4.8</text>
<polygon points="264.5,747 284.5,747 284.5,767 264.5,767" fill="rgb(162,0,0)"/><polygon points="264.5,747 284.5,747 284.5,767 264.5,767" fill="none" stroke="black" stroke-width="0.5"/><text xml:space="preserve" x="274.5" y="759" font-family="Arial" font-size="5" fill="rgb(255,255,255)" text-anchor="middle">5.4</text>
<polygon points="284.5,747 304.5,747 304.5,767 284.5,767" fill="rgb(139,0,0)"/><polygon points="284.5,747 304.5,747 304.5,767 284.5,767" fill="none" stroke="black" stroke-width="0.5"/><text xml:space="preserve" x="294.5" y="759" font-family="Arial" font-size="5" fill="rgb(255,255,255)" text-anchor="middle">6.0</text>
</svg>
