<?xml version="1.0" standalone="no"?><!DOCTYPE svg PUBLIC "-//W3C//DTD SVG 1.1//EN" "http://www.w3.org/Graphics/SVG/1.1/DTD/svg11.dtd">
<svg width="365.3" height="310.3" version="1.1" xmlns="http://www.w3.org/2000/svg">
<text xml:space="preserve" x="121.3" y="130.967" font-family="Arial" font-size="7" text-anchor="end">Metap2</text>
<text xml:space="preserve" x="121.3" y="136.967" font-family="Arial" font-size="7" text-anchor="end">Nol11</text>
<text xml:space="preserve" x="121.3" y="142.967" font-family="Arial" font-size="7" text-anchor="end">Seh1l</text>
<text xml:space="preserve" x="121.3" y="148.967" font-family="Arial" font-size="7" text-anchor="end">C1qbp</text>
<text xml:space="preserve" x="121.3" y="154.967" font-family="Arial" font-size="7" text-anchor="end">Mrpl18</text>
<text xml:space="preserve" x="121.3" y="163.967" font-family="Arial" font-size="7" text-anchor="end">Elk1_nca:2</text>
<text xml:space="preserve" x="121.3" y="169.967" font-family="Arial" font-size="7" text-anchor="end">Yy1_nca:2</text>
<text xml:space="preserve" x="130.967" y="121.3" font-family="Arial" font-size="7" transform="rotate(270 130.967 121.3)">Yy1_nca:2</text>
<text xml:space="preserve" x="136.967" y="121.3" font-family="Arial" font-size="7" transform="rotate(270 136.967 121.3)">Elk1_nca:2</text>
<text xml:space="preserve" x="145.967" y="121.3" font-family="Arial" font-size="7" transform="rotate(270 145.967 121.3)">C2</text>
<text xml:space="preserve" x="151.967" y="121.3" font-family="Arial" font-size="7" transform="rotate(270 151.967 121.3)">C7</text>
<text xml:space="preserve" x="157.967" y="121.3" font-family="Arial" font-size="7" transform="rotate(270 157.967 121.3)">C3</text>
<text xml:space="preserve" x="163.967" y="121.3" font-family="Arial" font-size="7" transform="rotate(270 163.967 121.3)">C5</text>
<text xml:space="preserve" x="169.967" y="121.3" font-family="Arial" font-size="7" transform="rotate(270 169.967 121.3)">C12</text>
<text xml:space="preserve" x="175.967" y="121.3" font-family="Arial" font-size="7" transform="rotate(270 175.967 121.3)">C13</text>
<text xml:space="preserve" x="181.967" y="121.3" font-family="Arial" font-size="7" transform="rotate(270 181.967 121.3)">C14</text>
<text xml:space="preserve" x="187.967" y="121.3" font-family="Arial" font-size="7" transform="rotate(270 187.967 121.3)">C11</text>
<text xml:space="preserve" x="193.967" y="121.3" font-family="Arial" font-size="7" transform="rotate(270 193.967 121.3)">C4</text>
<text xml:space="preserve" x="199.967" y="121.3" font-family="Arial" font-size="7" transform="rotate(270 199.967 121.3)">C8</text>
<text xml:space="preserve" x="205.967" y="121.3" font-family="Arial" font-size="7" transform="rotate(270 205.967 121.3)">C6</text>
<text xml:space="preserve" x="211.967" y="121.3" font-family="Arial" font-size="7" transform="rotate(270 211.967 121.3)">C10</text>
<text xml:space="preserve" x="217.967" y="121.3" font-family="Arial" font-size="7" transform="rotate(270 217.967 121.3)">C9</text>
<text xml:space="preserve" x="223.967" y="121.3" font-family="Arial" font-size="7" transform="rotate(270 223.967 121.3)">C1</text>
<polygon points="125.3,125.3 131.3,125.3 131.3,131.3 125.3,131.3" fill="rgb(0,255,255)"/>
<polygon points="131.3,125.3 137.3,125.3 137.3,131.3 131.3,131.3" fill="rgb(0,255,255)"/>
<polygon points="140.3,125.3 146.3,125.3 146.3,131.3 140.3,131.3" fill="rgb(255,97,97)"/>
<polygon points="146.3,125.3 152.3,125.3 152.3,131.3 146.3,131.3" fill="rgb(255,82,82)"/>
<polygon points="152.3,125.3 158.3,125.3 158.3,131.3 152.3,131.3" fill="rgb(255,99,99)"/>
<polygon points="158.3,125.3 164.3,125.3 164.3,131.3 158.3,131.3" fill="rgb(255,64,64)"/>
<polygon points="164.3,125.3 170.3,125.3 170.3,131.3 164.3,131.3" fill="rgb(255,167,167)"/>
<polygon points="170.3,125.3 176.3,125.3 176.3,131.3 170.3,131.3" fill="rgb(255,161,161)"/>
<polygon points="176.3,125.3 182.3,125.3 182.3,131.3 176.3,131.3" fill="rgb(255,165,165)"/>
<polygon points="182.3,125.3 188.3,125.3 188.3,131.3 182.3,131.3" fill="rgb(255,109,109)"/>
<polygon points="188.3,125.3 194.3,125.3 194.3,131.3 188.3,131.3" fill="rgb(255,133,133)"/>
<polygon points="194.3,125.3 200.3,125.3 200.3,131.3 194.3,131.3" fill="rgb(255,101,101)"/>
<polygon points="200.3,125.3 206.3,125.3 206.3,131.3 200.3,131.3" fill="rgb(255,68,68)"/>
<polygon points="206.3,125.3 212.3,125.3 212.3,131.3 206.3,131.3" fill="rgb(255,117,117)"/>
<polygon points="212.3,125.3 218.3,125.3 218.3,131.3 212.3,131.3" fill="rgb(255,110,110)"/>
<polygon points="218.3,125.3 224.3,125.3 224.3,131.3 218.3,131.3" fill="rgb(255,66,66)"/>
<polygon points="125.3,131.3 131.3,131.3 131.3,137.3 125.3,137.3" fill="rgb(0,255,255)"/>
<polygon points="131.3,131.3 137.3,131.3 137.3,137.3 131.3,137.3" fill="rgb(0,255,255)"/>
<polygon points="140.3,131.3 146.3,131.3 146.3,137.3 140.3,137.3" fill="rgb(255,209,209)"/>
<polygon points="146.3,131.3 152.3,131.3 152.3,137.3 146.3,137.3" fill="rgb(255,189,189)"/>
<polygon points="152.3,131.3 158.3,131.3 158.3,137.3 152.3,137.3" fill="rgb(255,192,192)"/>
<polygon points="158.3,131.3 164.3,131.3 164.3,137.3 158.3,137.3" fill="rgb(255,169,169)"/>
<polygon points="164.3,131.3 170.3,131.3 170.3,137.3 164.3,137.3" fill="rgb(255,240,240)"/>
<polygon points="170.3,131.3 176.3,131.3 176.3,137.3 170.3,137.3" fill="rgb(255,236,236)"/>
<polygon points="176.3,131.3 182.3,131.3 182.3,137.3 176.3,137.3" fill="rgb(254,253,253)"/>
<polygon points="182.3,131.3 188.3,131.3 188.3,137.3 182.3,137.3" fill="rgb(255,223,223)"/>
<polygon points="188.3,131.3 194.3,131.3 194.3,137.3 188.3,137.3" fill="rgb(255,231,231)"/>
<polygon points="194.3,131.3 200.3,131.3 200.3,137.3 194.3,137.3" fill="rgb(255,213,213)"/>
<polygon points="200.3,131.3 206.3,131.3 206.3,137.3 200.3,137.3" fill="rgb(255,177,177)"/>
<polygon points="206.3,131.3 212.3,131.3 212.3,137.3 206.3,137.3" fill="rgb(255,206,206)"/>
<polygon points="212.3,131.3 218.3,131.3 218.3,137.3 212.3,137.3" fill="rgb(255,188,188)"/>
<polygon points="218.3,131.3 224.3,131.3 224.3,137.3 218.3,137.3" fill="rgb(255,149,149)"/>
<polygon points="125.3,137.3 131.3,137.3 131.3,143.3 125.3,143.3" fill="rgb(0,255,255)"/>
<polygon points="131.3,137.3 137.3,137.3 137.3,143.3 131.3,143.3" fill="rgb(0,255,255)"/>
<polygon points="140.3,137.3 146.3,137.3 146.3,143.3 140.3,143.3" fill="rgb(255,197,197)"/>
<polygon points="146.3,137.3 152.3,137.3 152.3,143.3 146.3,143.3" fill="rgb(255,184,184)"/>
<polygon points="152.3,137.3 158.3,137.3 158.3,143.3 152.3,143.3" fill="rgb(255,179,179)"/>
<polygon points="158.3,137.3 164.3,137.3 164.3,143.3 158.3,143.3" fill="rgb(255,150,150)"/>
<polygon points="164.3,137.3 170.3,137.3 170.3,143.3 164.3,143.3" fill="rgb(255,232,232)"/>
<polygon points="170.3,137.3 176.3,137.3 176.3,143.3 170.3,143.3" fill="rgb(255,215,215)"/>
<polygon points="176.3,137.3 182.3,137.3 182.3,143.3 176.3,143.3" fill="rgb(255,225,225)"/>
<polygon points="182.3,137.3 188.3,137.3 188.3,143.3 182.3,143.3" fill="rgb(255,200,200)"/>
<polygon points="188.3,137.3 194.3,137.3 194.3,143.3 188.3,143.3" fill="rgb(255,208,208)"/>
<polygon points="194.3,137.3 200.3,137.3 200.3,143.3 194.3,143.3" fill="rgb(255,189,189)"/>
<polygon points="200.3,137.3 206.3,137.3 206.3,143.3 200.3,143.3" fill="rgb(255,142,142)"/>
<polygon points="206.3,137.3 212.3,137.3 212.3,143.3 206.3,143.3" fill="rgb(255,192,192)"/>
<polygon points="212.3,137.3 218.3,137.3 218.3,143.3 212.3,143.3" fill="rgb(255,163,163)"/>
<polygon points="218.3,137.3 224.3,137.3 224.3,143.3 218.3,143.3" fill="rgb(255,116,116)"/>
<polygon points="125.3,143.3 131.3,143.3 131.3,149.3 125.3,149.3" fill="rgb(0,255,255)"/>
<polygon points="131.3,143.3 137.3,143.3 137.3,149.3 131.3,149.3" fill="rgb(255,255,255)"/>
<polygon points="140.3,143.3 146.3,143.3 146.3,149.3 140.3,149.3" fill="rgb(255,138,138)"/>
<polygon points="146.3,143.3 152.3,143.3 152.3,149.3 146.3,149.3" fill="rgb(254,132,132)"/>
<polygon points="152.3,143.3 158.3,143.3 158.3,149.3 152.3,149.3" fill="rgb(255,86,86)"/>
<polygon points="158.3,143.3 164.3,143.3 164.3,149.3 158.3,149.3" fill="rgb(255,76,76)"/>
<polygon points="164.3,143.3 170.3,143.3 170.3,149.3 164.3,149.3" fill="rgb(255,147,147)"/>
<polygon points="170.3,143.3 176.3,143.3 176.3,149.3 170.3,149.3" fill="rgb(255,179,179)"/>
<polygon points="176.3,143.3 182.3,143.3 182.3,149.3 176.3,149.3" fill="rgb(255,125,125)"/>
<polygon points="182.3,143.3 188.3,143.3 188.3,149.3 182.3,149.3" fill="rgb(255,117,117)"/>
<polygon points="188.3,143.3 194.3,143.3 194.3,149.3 188.3,149.3" fill="rgb(255,120,120)"/>
<polygon points="194.3,143.3 200.3,143.3 200.3,149.3 194.3,149.3" fill="rgb(255,84,84)"/>
<polygon points="200.3,143.3 206.3,143.3 206.3,149.3 200.3,149.3" fill="rgb(255,55,55)"/>
<polygon points="206.3,143.3 212.3,143.3 212.3,149.3 206.3,149.3" fill="rgb(255,62,62)"/>
<polygon points="212.3,143.3 218.3,143.3 218.3,149.3 212.3,149.3" fill="rgb(255,60,60)"/>
<polygon points="218.3,143.3 224.3,143.3 224.3,149.3 218.3,149.3" fill="rgb(255,50,50)"/>
<polygon points="125.3,149.3 131.3,149.3 131.3,155.3 125.3,155.3" fill="rgb(255,255,255)"/>
<polygon points="131.3,149.3 137.3,149.3 137.3,155.3 131.3,155.3" fill="rgb(255,255,255)"/>
<polygon points="140.3,149.3 146.3,149.3 146.3,155.3 140.3,155.3" fill="rgb(255,193,193)"/>
<polygon points="146.3,149.3 152.3,149.3 152.3,155.3 146.3,155.3" fill="rgb(255,164,164)"/>
<polygon points="152.3,149.3 158.3,149.3 158.3,155.3 152.3,155.3" fill="rgb(255,162,162)"/>
<polygon points="158.3,149.3 164.3,149.3 164.3,155.3 158.3,155.3" fill="rgb(255,134,134)"/>
<polygon points="164.3,149.3 170.3,149.3 170.3,155.3 164.3,155.3" fill="rgb(255,215,215)"/>
<polygon points="170.3,149.3 176.3,149.3 176.3,155.3 170.3,155.3" fill="rgb(255,224,224)"/>
<polygon points="176.3,149.3 182.3,149.3 182.3,155.3 176.3,155.3" fill="rgb(254,235,235)"/>
<polygon points="182.3,149.3 188.3,149.3 188.3,155.3 182.3,155.3" fill="rgb(255,204,204)"/>
<polygon points="188.3,149.3 194.3,149.3 194.3,155.3 188.3,155.3" fill="rgb(255,224,224)"/>
<polygon points="194.3,149.3 200.3,149.3 200.3,155.3 194.3,155.3" fill="rgb(255,190,190)"/>
<polygon points="200.3,149.3 206.3,149.3 206.3,155.3 200.3,155.3" fill="rgb(255,141,141)"/>
<polygon points="206.3,149.3 212.3,149.3 212.3,155.3 206.3,155.3" fill="rgb(255,177,177)"/>
<polygon points="212.3,149.3 218.3,149.3 218.3,155.3 212.3,155.3" fill="rgb(255,153,153)"/>
<polygon points="218.3,149.3 224.3,149.3 224.3,155.3 218.3,155.3" fill="rgb(255,131,131)"/>
<polygon points="125.3,158.3 131.3,158.3 131.3,164.3 125.3,164.3" fill="rgb(255,255,255)"/>
<polygon points="131.3,158.3 137.3,158.3 137.3,164.3 131.3,164.3" fill="rgb(255,255,255)"/>
<polygon points="140.3,158.3 146.3,158.3 146.3,164.3 140.3,164.3" fill="rgb(0,0,255)"/>
<polygon points="146.3,158.3 152.3,158.3 152.3,164.3 146.3,164.3" fill="rgb(133,133,255)"/>
<polygon points="152.3,158.3 158.3,158.3 158.3,164.3 152.3,164.3" fill="rgb(255,243,243)"/>
<polygon points="158.3,158.3 164.3,158.3 164.3,164.3 158.3,164.3" fill="rgb(255,204,204)"/>
<polygon points="164.3,158.3 170.3,158.3 170.3,164.3 164.3,164.3" fill="rgb(0,0,255)"/>
<polygon points="170.3,158.3 176.3,158.3 176.3,164.3 170.3,164.3" fill="rgb(0,0,255)"/>
<polygon points="176.3,158.3 182.3,158.3 182.3,164.3 176.3,164.3" fill="rgb(0,0,255)"/>
<polygon points="182.3,158.3 188.3,158.3 188.3,164.3 182.3,164.3" fill="rgb(0,0,255)"/>
<polygon points="188.3,158.3 194.3,158.3 194.3,164.3 188.3,164.3" fill="rgb(0,0,255)"/>
<polygon points="194.3,158.3 200.3,158.3 200.3,164.3 194.3,164.3" fill="rgb(211,211,255)"/>
<polygon points="200.3,158.3 206.3,158.3 206.3,164.3 200.3,164.3" fill="rgb(254,227,227)"/>
<polygon points="206.3,158.3 212.3,158.3 212.3,164.3 206.3,164.3" fill="rgb(0,0,255)"/>
<polygon points="212.3,158.3 218.3,158.3 218.3,164.3 212.3,164.3" fill="rgb(0,0,255)"/>
<polygon points="218.3,158.3 224.3,158.3 224.3,164.3 218.3,164.3" fill="rgb(255,238,238)"/>
<polygon points="125.3,164.3 131.3,164.3 131.3,170.3 125.3,170.3" fill="rgb(255,255,255)"/>
<polygon points="131.3,164.3 137.3,164.3 137.3,170.3 131.3,170.3" fill="rgb(255,255,255)"/>
<polygon points="140.3,164.3 146.3,164.3 146.3,170.3 140.3,170.3" fill="rgb(0,0,255)"/>
<polygon points="146.3,164.3 152.3,164.3 152.3,170.3 146.3,170.3" fill="rgb(247,247,255)"/>
<polygon points="152.3,164.3 158.3,164.3 158.3,170.3 152.3,170.3" fill="rgb(255,232,232)"/>
<polygon points="158.3,164.3 164.3,164.3 164.3,170.3 158.3,170.3" fill="rgb(255,204,204)"/>
<polygon points="164.3,164.3 170.3,164.3 170.3,170.3 164.3,170.3" fill="rgb(0,0,255)"/>
<polygon points="170.3,164.3 176.3,164.3 176.3,170.3 170.3,170.3" fill="rgb(0,0,255)"/>
<polygon points="176.3,164.3 182.3,164.3 182.3,170.3 176.3,170.3" fill="rgb(0,0,255)"/>
<polygon points="182.3,164.3 188.3,164.3 188.3,170.3 182.3,170.3" fill="rgb(0,0,255)"/>
<polygon points="188.3,164.3 194.3,164.3 194.3,170.3 188.3,170.3" fill="rgb(0,0,255)"/>
<polygon points="194.3,164.3 200.3,164.3 200.3,170.3 194.3,170.3" fill="rgb(38,38,254)"/>
<polygon points="200.3,164.3 206.3,164.3 206.3,170.3 200.3,170.3" fill="rgb(255,170,170)"/>
<polygon points="206.3,164.3 212.3,164.3 212.3,170.3 206.3,170.3" fill="rgb(255,194,194)"/>
<polygon points="212.3,164.3 218.3,164.3 218.3,170.3 212.3,170.3" fill="rgb(255,179,179)"/>
<polygon points="218.3,164.3 224.3,164.3 224.3,170.3 218.3,170.3" fill="rgb(255,120,120)"/>
<polygon points="125.3,125.3 137.3,125.3 137.3,155.3 125.3,155.3" fill="none" stroke="black" stroke-width="0.5"/>
<polygon points="140.3,125.3 224.3,125.3 224.3,155.3 140.3,155.3" fill="none" stroke="black" stroke-width="0.5"/>
<polygon points="125.3,158.3 137.3,158.3 137.3,170.3 125.3,170.3" fill="none" stroke="black" stroke-width="0.5"/>
<polygon points="140.3,158.3 224.3,158.3 224.3,170.3 140.3,170.3" fill="none" stroke="black" stroke-width="0.5"/>
<text xml:space="preserve" x="182.65" y="202.967" font-family="Arial" font-size="7" text-anchor="middle">enrichments</text>
<polygon points="72.65,210.3 92.65,210.3 92.65,230.3 72.65,230.3" fill="rgb(255,255,255)"/><polygon points="72.65,210.3 92.65,210.3 92.65,230.3 72.65,230.3" fill="none" stroke="black" stroke-width="0.5"/><text xml:space="preserve" x="82.65" y="222.3" font-family="Arial" font-size="5" fill="rgb(0,0,0)" text-anchor="middle">0.0</text>
<polygon points="92.65,210.3 112.65,210.3 112.65,230.3 92.65,230.3" fill="rgb(216,178,216)"/><polygon points="92.65,210.3 112.65,210.3 112.65,230.3 92.65,230.3" fill="none" stroke="black" stroke-width="0.5"/><text xml:space="preserve" x="102.65" y="222.3" font-family="Arial" font-size="5" fill="rgb(0,0,0)" text-anchor="middle">0.3</text>
<polygon points="112.65,210.3 132.65,210.3 132.65,230.3 112.65,230.3" fill="rgb(178,102,178)"/><polygon points="112.65,210.3 132.65,210.3 132.65,230.3 112.65,230.3" fill="none" stroke="black" stroke-width="0.5"/><text xml:space="preserve" x="122.65" y="222.3" font-family="Arial" font-size="5" fill="rgb(0,0,0)" text-anchor="middle">0.6</text>
<polygon points="132.65,210.3 152.65,210.3 152.65,230.3 132.65,230.3" fill="rgb(140,25,140)"/><polygon points="132.65,210.3 152.65,210.3 152.65,230.3 132.65,230.3" fill="none" stroke="black" stroke-width="0.5"/><text xml:space="preserve" x="142.65" y="222.3" font-family="Arial" font-size="5" fill="rgb(255,255,255)" text-anchor="middle">0.9</text>
<polygon points="152.65,210.3 172.65,210.3 172.65,230.3 152.65,230.3" fill="rgb(102,50,153)"/><polygon points="152.65,210.3 172.65,210.3 172.65,230.3 152.65,230.3" fill="none" stroke="black" stroke-width="0.5"/><text xml:space="preserve" x="162.65" y="222.3" font-family="Arial" font-size="5" fill="rgb(255,255,255)" text-anchor="middle">1.2</text>
<polygon points="172.65,210.3 192.65,210.3 192.65,230.3 172.65,230.3" fill="rgb(64,127,191)"/><polygon points="172.65,210.3 192.65,210.3 192.65,230.3 172.65,230.3" fill="none" stroke="black" stroke-width="0.5"/><text xml:space="preserve" x="182.65" y="222.3" font-family="Arial" font-size="5" fill="rgb(255,255,255)" text-anchor="middle">1.5</text>
<polygon points="192.65,210.3 212.65,210.3 212.65,230.3 192.65,230.3" fill="rgb(25,204,229)"/><polygon points="192.65,210.3 212.65,210.3 212.65,230.3 192.65,230.3" fill="none" stroke="black" stroke-width="0.5"/><text xml:space="preserve" x="202.65" y="222.3" font-family="Arial" font-size="5" fill="rgb(0,0,0)" text-anchor="middle">1.8</text>
<polygon points="212.65,210.3 232.65,210.3 232.65,230.3 212.65,230.3" fill="rgb(0,239,239)"/><polygon points="212.65,210.3 232.65,210.3 232.65,230.3 212.65,230.3" fill="none" stroke="black" stroke-width="0.5"/><text xml:space="preserve" x="222.65" y="222.3" font-family="Arial" font-size="5" fill="rgb(0,0,0)" text-anchor="middle">2.1</text>
<polygon points="232.65,210.3 252.65,210.3 252.65,230.3 232.65,230.3" fill="rgb(0,193,193)"/><polygon points="232.65,210.3 252.65,210.3 252.65,230.3 232.65,230.3" fill="none" stroke="black" stroke-width="0.5"/><text xml:space="preserve" x="242.65" y="222.3" font-family="Arial" font-size="5" fill="rgb(0,0,0)" text-anchor="middle">2.4</text>
<polygon points="252.65,210.3 272.65,210.3 272.65,230.3 252.65,230.3" fill="rgb(0,146,146)"/><polygon points="252.65,210.3 272.65,210.3 272.65,230.3 252.65,230.3" fill="none" stroke="black" stroke-width="0.5"/><text xml:space="preserve" x="262.65" y="222.3" font-family="Arial" font-size="5" fill="rgb(255,255,255)" text-anchor="middle">2.7</text>
<polygon points="272.65,210.3 292.65,210.3 292.65,230.3 272.65,230.3" fill="rgb(0,100,100)"/><polygon points="272.65,210.3 292.65,210.3 292.65,230.3 272.65,230.3" fill="none" stroke="black" stroke-width="0.5"/><text xml:space="preserve" x="282.65" y="222.3" font-family="Arial" font-size="5" fill="rgb(255,255,255)" text-anchor="middle">3.0</text>
<text xml:space="preserve" x="182.65" y="262.967" font-family="Arial" font-size="7" text-anchor="middle">expression</text>
<polygon points="72.65,270.3 92.65,270.3 92.65,290.3 72.65,290.3" fill="rgb(0,0,255)"/><polygon points="72.65,270.3 92.65,270.3 92.65,290.3 72.65,290.3" fill="none" stroke="black" stroke-width="0.5"/><text xml:space="preserve" x="82.65" y="282.3" font-family="Arial" font-size="5" fill="rgb(255,255,255)" text-anchor="middle">0.0</text>
<polygon points="92.65,270.3 112.65,270.3 112.65,290.3 92.65,290.3" fill="rgb(255,211,211)"/><polygon points="92.65,270.3 112.65,270.3 112.65,290.3 92.65,290.3" fill="none" stroke="black" stroke-width="0.5"/><text xml:space="preserve" x="102.65" y="282.3" font-family="Arial" font-size="5" fill="rgb(0,0,0)" text-anchor="middle">0.6</text>
<polygon points="112.65,270.3 132.65,270.3 132.65,290.3 112.65,290.3" fill="rgb(255,158,158)"/><polygon points="112.65,270.3 132.65,270.3 132.65,290.3 112.65,290.3" fill="none" stroke="black" stroke-width="0.5"/><text xml:space="preserve" x="122.65" y="282.3" font-family="Arial" font-size="5" fill="rgb(0,0,0)" text-anchor="middle">1.2</text>
<polygon points="132.65,270.3 152.65,270.3 152.65,290.3 132.65,290.3" fill="rgb(255,105,105)"/><polygon points="132.65,270.3 152.65,270.3 152.65,290.3 132.65,290.3" fill="none" stroke="black" stroke-width="0.5"/><text xml:space="preserve" x="142.65" y="282.3" font-family="Arial" font-size="5" fill="rgb(0,0,0)" text-anchor="middle">1.8</text>
<polygon points="152.65,270.3 172.65,270.3 172.65,290.3 152.65,290.3" fill="rgb(255,52,52)"/><polygon points="152.65,270.3 172.65,270.3 172.65,290.3 152.65,290.3" fill="none" stroke="black" stroke-width="0.5"/><text xml:space="preserve" x="162.65" y="282.3" font-family="Arial" font-size="5" fill="rgb(255,255,255)" text-anchor="middle">2.4</text>
<polygon points="172.65,270.3 192.65,270.3 192.65,290.3 172.65,290.3" fill="rgb(255,0,0)"/><polygon points="172.65,270.3 192.65,270.3 192.65,290.3 172.65,290.3" fill="none" stroke="black" stroke-width="0.5"/><text xml:space="preserve" x="182.65" y="282.3" font-family="Arial" font-size="5" fill="rgb(255,255,255)" text-anchor="middle">3.0</text>
<polygon points="192.65,270.3 212.65,270.3 212.65,290.3 192.65,290.3" fill="rgb(231,0,0)"/><polygon points="192.65,270.3 212.65,270.3 212.65,290.3 192.65,290.3" fill="none" stroke="black" stroke-width="0.5"/><text xml:space="preserve" x="202.65" y="282.3" font-family="Arial" font-size="5" fill="rgb(255,255,255)" text-anchor="middle">3.6</text>
<polygon points="212.65,270.3 232.65,270.3 232.65,290.3 212.65,290.3" fill="rgb(208,0,0)"/><polygon points="212.65,270.3 232.65,270.3 232.65,290.3 212.65,290.3" fill="none" stroke="black" stroke-width="0.5"/><text xml:space="preserve" x="222.65" y="282.3" font-family="Arial" font-size="5" fill="rgb(255,255,255)" text-anchor="middle">4.2</text>
<polygon points="232.65,270.3 252.65,270.3 252.65,290.3 232.65,290.3" fill="rgb(185,0,0)"/><polygon points="232.65,270.3 252.65,270.3 252.65,290.3 232.65,290.3" fill="none" stroke="black" stroke-width="0.5"/><text xml:space="preserve" x="242.65" y="282.3" font-family="Arial" font-size="5" fill="rgb(255,255,255)" text-anchor="middle">4.8</text>
<polygon points="252.65,270.3 272.65,270.3 272.65,290.3 252.65,290.3" fill="rgb(162,0,0)"/><polygon points="252.65,270.3 272.65,270.3 272.65,290.3 252.65,290.3" fill="none" stroke="black" stroke-width="0.5"/><text xml:space="preserve" x="262.65" y="282.3" font-family="Arial" font-size="5" fill="rgb(255,255,255)" text-anchor="middle">5.4</text>
<polygon points="272.65,270.3 292.65,270.3 292.65,290.3 272.65,290.3" fill="rgb(139,0,0)"/><polygon points="272.65,270.3 292.65,270.3 292.65,290.3 272.65,290.3" fill="none" stroke="black" stroke-width="0.5"/><text xml:space="preserve" x="282.65" y="282.3" font-family="Arial" font-size="5" fill="rgb(255,255,255)" text-anchor="middle">6.0</text>
</svg>
