<?xml version="1.0" standalone="no"?><!DOCTYPE svg PUBLIC "-//W3C//DTD SVG 1.1//EN" "http://www.w3.org/Graphics/SVG/1.1/DTD/svg11.dtd">
<svg width="383.3" height="529" version="1.1" xmlns="http://www.w3.org/2000/svg">
<text xml:space="preserve" x="139.3" y="277.667" font-family="Arial" font-size="7" text-anchor="end">Elf3</text>
<text xml:space="preserve" x="139.3" y="283.667" font-family="Arial" font-size="7" text-anchor="end">Mylpf</text>
<text xml:space="preserve" x="139.3" y="289.667" font-family="Arial" font-size="7" text-anchor="end">Fam25c</text>
<text xml:space="preserve" x="139.3" y="295.667" font-family="Arial" font-size="7" text-anchor="end">Tfcp2l1</text>
<text xml:space="preserve" x="139.3" y="301.667" font-family="Arial" font-size="7" text-anchor="end">Alpl</text>
<text xml:space="preserve" x="139.3" y="307.667" font-family="Arial" font-size="7" text-anchor="end">Dppa3</text>
<text xml:space="preserve" x="139.3" y="313.667" font-family="Arial" font-size="7" text-anchor="end">Tfap2c</text>
<text xml:space="preserve" x="139.3" y="319.667" font-family="Arial" font-size="7" text-anchor="end">Alg13</text>
<text xml:space="preserve" x="139.3" y="325.667" font-family="Arial" font-size="7" text-anchor="end">Fgf4</text>
<text xml:space="preserve" x="139.3" y="331.667" font-family="Arial" font-size="7" text-anchor="end">Tdh</text>
<text xml:space="preserve" x="139.3" y="337.667" font-family="Arial" font-size="7" text-anchor="end">Nanog</text>
<text xml:space="preserve" x="139.3" y="346.667" font-family="Arial" font-size="7" text-anchor="end">Dppa3:2</text>
<text xml:space="preserve" x="139.3" y="352.667" font-family="Arial" font-size="7" text-anchor="end">Dppa5a:2</text>
<text xml:space="preserve" x="139.3" y="358.667" font-family="Arial" font-size="7" text-anchor="end">Elf3:2</text>
<text xml:space="preserve" x="139.3" y="364.667" font-family="Arial" font-size="7" text-anchor="end">Esrrb:2</text>
<text xml:space="preserve" x="139.3" y="370.667" font-family="Arial" font-size="7" text-anchor="end">Nanog:2</text>
<text xml:space="preserve" x="139.3" y="376.667" font-family="Arial" font-size="7" text-anchor="end">Nr6a1_nca:2</text>
<text xml:space="preserve" x="139.3" y="382.667" font-family="Arial" font-size="7" text-anchor="end">Snai2_nca:2</text>
<text xml:space="preserve" x="139.3" y="388.667" font-family="Arial" font-size="7" text-anchor="end">Tfcp2l1:2</text>
<text xml:space="preserve" x="148.967" y="268" font-family="Arial" font-size="7" transform="rotate(270 148.967 268)">stem_cell_development:1</text>
<text xml:space="preserve" x="154.967" y="268" font-family="Arial" font-size="7" transform="rotate(270 154.967 268)">stem_cell_maintenance:1</text>
<text xml:space="preserve" x="163.967" y="268" font-family="Arial" font-size="7" transform="rotate(270 163.967 268)">Dppa3:2</text>
<text xml:space="preserve" x="169.967" y="268" font-family="Arial" font-size="7" transform="rotate(270 169.967 268)">Tfcp2l1:2</text>
<text xml:space="preserve" x="175.967" y="268" font-family="Arial" font-size="7" transform="rotate(270 175.967 268)">Esrrb:2</text>
<text xml:space="preserve" x="181.967" y="268" font-family="Arial" font-size="7" transform="rotate(270 181.967 268)">Nr6a1_nca:2</text>
<text xml:space="preserve" x="187.967" y="268" font-family="Arial" font-size="7" transform="rotate(270 187.967 268)">Elf3:2</text>
<text xml:space="preserve" x="193.967" y="268" font-family="Arial" font-size="7" transform="rotate(270 193.967 268)">Snai2_nca:2</text>
<text xml:space="preserve" x="199.967" y="268" font-family="Arial" font-size="7" transform="rotate(270 199.967 268)">Dppa5a:2</text>
<text xml:space="preserve" x="205.967" y="268" font-family="Arial" font-size="7" transform="rotate(270 205.967 268)">Nanog:2</text>
<text xml:space="preserve" x="214.967" y="268" font-family="Arial" font-size="7" transform="rotate(270 214.967 268)">C2</text>
<text xml:space="preserve" x="220.967" y="268" font-family="Arial" font-size="7" transform="rotate(270 220.967 268)">C7</text>
<text xml:space="preserve" x="226.967" y="268" font-family="Arial" font-size="7" transform="rotate(270 226.967 268)">C3</text>
<text xml:space="preserve" x="232.967" y="268" font-family="Arial" font-size="7" transform="rotate(270 232.967 268)">C5</text>
<text xml:space="preserve" x="238.967" y="268" font-family="Arial" font-size="7" transform="rotate(270 238.967 268)">C12</text>
<text xml:space="preserve" x="244.967" y="268" font-family="Arial" font-size="7" transform="rotate(270 244.967 268)">C13</text>
<text xml:space="preserve" x="250.967" y="268" font-family="Arial" font-size="7" transform="rotate(270 250.967 268)">C14</text>
<text xml:space="preserve" x="256.967" y="268" font-family="Arial" font-size="7" transform="rotate(270 256.967 268)">C11</text>
<text xml:space="preserve" x="262.967" y="268" font-family="Arial" font-size="7" transform="rotate(270 262.967 268)">C4</text>
<text xml:space="preserve" x="268.967" y="268" font-family="Arial" font-size="7" transform="rotate(270 268.967 268)">C8</text>
<text xml:space="preserve" x="274.967" y="268" font-family="Arial" font-size="7" transform="rotate(270 274.967 268)">C6</text>
<text xml:space="preserve" x="280.967" y="268" font-family="Arial" font-size="7" transform="rotate(270 280.967 268)">C10</text>
<text xml:space="preserve" x="286.967" y="268" font-family="Arial" font-size="7" transform="rotate(270 286.967 268)">C9</text>
<text xml:space="preserve" x="292.967" y="268" font-family="Arial" font-size="7" transform="rotate(270 292.967 268)">C1</text>
<polygon points="143.3,272 149.3,272 149.3,278 143.3,278" fill="rgb(255,255,255)"/>
<polygon points="149.3,272 155.3,272 155.3,278 149.3,278" fill="rgb(255,255,255)"/>
<polygon points="158.3,272 164.3,272 164.3,278 158.3,278" fill="rgb(0,255,255)"/>
<polygon points="164.3,272 170.3,272 170.3,278 164.3,278" fill="rgb(0,255,255)"/>
<polygon points="170.3,272 176.3,272 176.3,278 170.3,278" fill="rgb(255,255,255)"/>
<polygon points="176.3,272 182.3,272 182.3,278 176.3,278" fill="rgb(255,255,255)"/>
<polygon points="182.3,272 188.3,272 188.3,278 182.3,278" fill="rgb(255,255,255)"/>
<polygon points="188.3,272 194.3,272 194.3,278 188.3,278" fill="rgb(255,255,255)"/>
<polygon points="194.3,272 200.3,272 200.3,278 194.3,278" fill="rgb(255,255,255)"/>
<polygon points="200.3,272 206.3,272 206.3,278 200.3,278" fill="rgb(0,255,255)"/>
<polygon points="209.3,272 215.3,272 215.3,278 209.3,278" fill="rgb(0,0,255)"/>
<polygon points="215.3,272 221.3,272 221.3,278 215.3,278" fill="rgb(0,0,255)"/>
<polygon points="221.3,272 227.3,272 227.3,278 221.3,278" fill="rgb(4,4,255)"/>
<polygon points="227.3,272 233.3,272 233.3,278 227.3,278" fill="rgb(0,0,255)"/>
<polygon points="233.3,272 239.3,272 239.3,278 233.3,278" fill="rgb(0,0,255)"/>
<polygon points="239.3,272 245.3,272 245.3,278 239.3,278" fill="rgb(0,0,255)"/>
<polygon points="245.3,272 251.3,272 251.3,278 245.3,278" fill="rgb(51,51,255)"/>
<polygon points="251.3,272 257.3,272 257.3,278 251.3,278" fill="rgb(0,0,255)"/>
<polygon points="257.3,272 263.3,272 263.3,278 257.3,278" fill="rgb(6,6,255)"/>
<polygon points="263.3,272 269.3,272 269.3,278 263.3,278" fill="rgb(228,228,255)"/>
<polygon points="269.3,272 275.3,272 275.3,278 269.3,278" fill="rgb(255,251,251)"/>
<polygon points="275.3,272 281.3,272 281.3,278 275.3,278" fill="rgb(31,31,255)"/>
<polygon points="281.3,272 287.3,272 287.3,278 281.3,278" fill="rgb(255,199,199)"/>
<polygon points="287.3,272 293.3,272 293.3,278 287.3,278" fill="rgb(255,238,238)"/>
<polygon points="143.3,278 149.3,278 149.3,284 143.3,284" fill="rgb(255,255,255)"/>
<polygon points="149.3,278 155.3,278 155.3,284 149.3,284" fill="rgb(255,255,255)"/>
<polygon points="158.3,278 164.3,278 164.3,284 158.3,284" fill="rgb(0,255,255)"/>
<polygon points="164.3,278 170.3,278 170.3,284 164.3,284" fill="rgb(0,255,255)"/>
<polygon points="170.3,278 176.3,278 176.3,284 170.3,284" fill="rgb(0,255,255)"/>
<polygon points="176.3,278 182.3,278 182.3,284 176.3,284" fill="rgb(255,255,255)"/>
<polygon points="182.3,278 188.3,278 188.3,284 182.3,284" fill="rgb(255,255,255)"/>
<polygon points="188.3,278 194.3,278 194.3,284 188.3,284" fill="rgb(255,255,255)"/>
<polygon points="194.3,278 200.3,278 200.3,284 194.3,284" fill="rgb(0,255,255)"/>
<polygon points="200.3,278 206.3,278 206.3,284 200.3,284" fill="rgb(0,255,255)"/>
<polygon points="209.3,278 215.3,278 215.3,284 209.3,284" fill="rgb(20,20,254)"/>
<polygon points="215.3,278 221.3,278 221.3,284 215.3,284" fill="rgb(22,22,255)"/>
<polygon points="221.3,278 227.3,278 227.3,284 221.3,284" fill="rgb(33,33,255)"/>
<polygon points="227.3,278 233.3,278 233.3,284 227.3,284" fill="rgb(70,70,255)"/>
<polygon points="233.3,278 239.3,278 239.3,284 233.3,284" fill="rgb(28,28,255)"/>
<polygon points="239.3,278 245.3,278 245.3,284 239.3,284" fill="rgb(43,43,255)"/>
<polygon points="245.3,278 251.3,278 251.3,284 245.3,284" fill="rgb(27,27,255)"/>
<polygon points="251.3,278 257.3,278 257.3,284 251.3,284" fill="rgb(45,45,255)"/>
<polygon points="257.3,278 263.3,278 263.3,284 257.3,284" fill="rgb(63,63,255)"/>
<polygon points="263.3,278 269.3,278 269.3,284 263.3,284" fill="rgb(73,73,255)"/>
<polygon points="269.3,278 275.3,278 275.3,284 269.3,284" fill="rgb(104,104,255)"/>
<polygon points="275.3,278 281.3,278 281.3,284 275.3,284" fill="rgb(72,72,255)"/>
<polygon points="281.3,278 287.3,278 287.3,284 281.3,284" fill="rgb(255,202,202)"/>
<polygon points="287.3,278 293.3,278 293.3,284 287.3,284" fill="rgb(255,215,215)"/>
<polygon points="143.3,284 149.3,284 149.3,290 143.3,290" fill="rgb(255,255,255)"/>
<polygon points="149.3,284 155.3,284 155.3,290 149.3,290" fill="rgb(255,255,255)"/>
<polygon points="158.3,284 164.3,284 164.3,290 158.3,290" fill="rgb(0,255,255)"/>
<polygon points="164.3,284 170.3,284 170.3,290 164.3,290" fill="rgb(255,255,255)"/>
<polygon points="170.3,284 176.3,284 176.3,290 170.3,290" fill="rgb(0,255,255)"/>
<polygon points="176.3,284 182.3,284 182.3,290 176.3,290" fill="rgb(255,255,255)"/>
<polygon points="182.3,284 188.3,284 188.3,290 182.3,290" fill="rgb(255,255,255)"/>
<polygon points="188.3,284 194.3,284 194.3,290 188.3,290" fill="rgb(255,255,255)"/>
<polygon points="194.3,284 200.3,284 200.3,290 194.3,290" fill="rgb(255,255,255)"/>
<polygon points="200.3,284 206.3,284 206.3,290 200.3,290" fill="rgb(255,255,255)"/>
<polygon points="209.3,284 215.3,284 215.3,290 209.3,290" fill="rgb(0,0,255)"/>
<polygon points="215.3,284 221.3,284 221.3,290 215.3,290" fill="rgb(0,0,255)"/>
<polygon points="221.3,284 227.3,284 227.3,290 221.3,290" fill="rgb(5,5,255)"/>
<polygon points="227.3,284 233.3,284 233.3,290 227.3,290" fill="rgb(5,5,255)"/>
<polygon points="233.3,284 239.3,284 239.3,290 233.3,290" fill="rgb(0,0,255)"/>
<polygon points="239.3,284 245.3,284 245.3,290 239.3,290" fill="rgb(0,0,255)"/>
<polygon points="245.3,284 251.3,284 251.3,290 245.3,290" fill="rgb(0,0,255)"/>
<polygon points="251.3,284 257.3,284 257.3,290 251.3,290" fill="rgb(43,43,255)"/>
<polygon points="257.3,284 263.3,284 263.3,290 257.3,290" fill="rgb(13,13,255)"/>
<polygon points="263.3,284 269.3,284 269.3,290 263.3,290" fill="rgb(164,164,255)"/>
<polygon points="269.3,284 275.3,284 275.3,290 269.3,290" fill="rgb(205,205,255)"/>
<polygon points="275.3,284 281.3,284 281.3,290 275.3,290" fill="rgb(57,57,255)"/>
<polygon points="281.3,284 287.3,284 287.3,290 281.3,290" fill="rgb(255,214,214)"/>
<polygon points="287.3,284 293.3,284 293.3,290 287.3,290" fill="rgb(254,236,236)"/>
<polygon points="143.3,290 149.3,290 149.3,296 143.3,296" fill="rgb(255,255,255)"/>
<polygon points="149.3,290 155.3,290 155.3,296 149.3,296" fill="rgb(255,255,255)"/>
<polygon points="158.3,290 164.3,290 164.3,296 158.3,296" fill="rgb(255,255,255)"/>
<polygon points="164.3,290 170.3,290 170.3,296 164.3,296" fill="rgb(255,255,255)"/>
<polygon points="170.3,290 176.3,290 176.3,296 170.3,296" fill="rgb(0,255,255)"/>
<polygon points="176.3,290 182.3,290 182.3,296 176.3,296" fill="rgb(255,255,255)"/>
<polygon points="182.3,290 188.3,290 188.3,296 182.3,296" fill="rgb(0,255,255)"/>
<polygon points="188.3,290 194.3,290 194.3,296 188.3,296" fill="rgb(255,255,255)"/>
<polygon points="194.3,290 200.3,290 200.3,296 194.3,296" fill="rgb(255,255,255)"/>
<polygon points="200.3,290 206.3,290 206.3,296 200.3,296" fill="rgb(0,255,255)"/>
<polygon points="209.3,290 215.3,290 215.3,296 209.3,296" fill="rgb(14,14,254)"/>
<polygon points="215.3,290 221.3,290 221.3,296 215.3,296" fill="rgb(8,8,255)"/>
<polygon points="221.3,290 227.3,290 227.3,296 221.3,296" fill="rgb(8,8,255)"/>
<polygon points="227.3,290 233.3,290 233.3,296 227.3,296" fill="rgb(89,89,255)"/>
<polygon points="233.3,290 239.3,290 239.3,296 233.3,296" fill="rgb(59,59,255)"/>
<polygon points="239.3,290 245.3,290 245.3,296 239.3,296" fill="rgb(12,12,255)"/>
<polygon points="245.3,290 251.3,290 251.3,296 245.3,296" fill="rgb(40,40,255)"/>
<polygon points="251.3,290 257.3,290 257.3,296 251.3,296" fill="rgb(109,109,255)"/>
<polygon points="257.3,290 263.3,290 263.3,296 257.3,296" fill="rgb(145,145,255)"/>
<polygon points="263.3,290 269.3,290 269.3,296 263.3,296" fill="rgb(255,245,245)"/>
<polygon points="269.3,290 275.3,290 275.3,296 269.3,296" fill="rgb(255,241,241)"/>
<polygon points="275.3,290 281.3,290 281.3,296 275.3,296" fill="rgb(71,71,255)"/>
<polygon points="281.3,290 287.3,290 287.3,296 281.3,296" fill="rgb(255,195,195)"/>
<polygon points="287.3,290 293.3,290 293.3,296 287.3,296" fill="rgb(255,208,208)"/>
<polygon points="143.3,296 149.3,296 149.3,302 143.3,302" fill="rgb(255,255,255)"/>
<polygon points="149.3,296 155.3,296 155.3,302 149.3,302" fill="rgb(255,255,255)"/>
<polygon points="158.3,296 164.3,296 164.3,302 158.3,302" fill="rgb(255,255,255)"/>
<polygon points="164.3,296 170.3,296 170.3,302 164.3,302" fill="rgb(255,255,255)"/>
<polygon points="170.3,296 176.3,296 176.3,302 170.3,302" fill="rgb(255,255,255)"/>
<polygon points="176.3,296 182.3,296 182.3,302 176.3,302" fill="rgb(255,255,255)"/>
<polygon points="182.3,296 188.3,296 188.3,302 182.3,302" fill="rgb(0,255,255)"/>
<polygon points="188.3,296 194.3,296 194.3,302 188.3,302" fill="rgb(255,255,255)"/>
<polygon points="194.3,296 200.3,296 200.3,302 194.3,302" fill="rgb(255,255,255)"/>
<polygon points="200.3,296 206.3,296 206.3,302 200.3,302" fill="rgb(0,255,255)"/>
<polygon points="209.3,296 215.3,296 215.3,302 209.3,302" fill="rgb(0,0,255)"/>
<polygon points="215.3,296 221.3,296 221.3,302 215.3,302" fill="rgb(0,0,255)"/>
<polygon points="221.3,296 227.3,296 227.3,302 221.3,302" fill="rgb(21,21,255)"/>
<polygon points="227.3,296 233.3,296 233.3,302 227.3,302" fill="rgb(151,151,255)"/>
<polygon points="233.3,296 239.3,296 239.3,302 233.3,302" fill="rgb(20,20,255)"/>
<polygon points="239.3,296 245.3,296 245.3,302 239.3,302" fill="rgb(0,0,255)"/>
<polygon points="245.3,296 251.3,296 251.3,302 245.3,302" fill="rgb(255,252,252)"/>
<polygon points="251.3,296 257.3,296 257.3,302 251.3,302" fill="rgb(134,134,255)"/>
<polygon points="257.3,296 263.3,296 263.3,302 257.3,302" fill="rgb(194,194,255)"/>
<polygon points="263.3,296 269.3,296 269.3,302 263.3,302" fill="rgb(254,247,247)"/>
<polygon points="269.3,296 275.3,296 275.3,302 269.3,302" fill="rgb(255,230,230)"/>
<polygon points="275.3,296 281.3,296 281.3,302 275.3,302" fill="rgb(255,230,230)"/>
<polygon points="281.3,296 287.3,296 287.3,302 281.3,302" fill="rgb(255,165,165)"/>
<polygon points="287.3,296 293.3,296 293.3,302 287.3,302" fill="rgb(255,218,218)"/>
<polygon points="143.3,302 149.3,302 149.3,308 143.3,308" fill="rgb(255,255,255)"/>
<polygon points="149.3,302 155.3,302 155.3,308 149.3,308" fill="rgb(255,255,255)"/>
<polygon points="158.3,302 164.3,302 164.3,308 158.3,308" fill="rgb(255,255,255)"/>
<polygon points="164.3,302 170.3,302 170.3,308 164.3,308" fill="rgb(255,255,255)"/>
<polygon points="170.3,302 176.3,302 176.3,308 170.3,308" fill="rgb(255,255,255)"/>
<polygon points="176.3,302 182.3,302 182.3,308 176.3,308" fill="rgb(255,255,255)"/>
<polygon points="182.3,302 188.3,302 188.3,308 182.3,308" fill="rgb(0,255,255)"/>
<polygon points="188.3,302 194.3,302 194.3,308 188.3,308" fill="rgb(0,255,255)"/>
<polygon points="194.3,302 200.3,302 200.3,308 194.3,308" fill="rgb(0,255,255)"/>
<polygon points="200.3,302 206.3,302 206.3,308 200.3,308" fill="rgb(0,255,255)"/>
<polygon points="209.3,302 215.3,302 215.3,308 209.3,308" fill="rgb(0,0,255)"/>
<polygon points="215.3,302 221.3,302 221.3,308 215.3,308" fill="rgb(0,0,255)"/>
<polygon points="221.3,302 227.3,302 227.3,308 221.3,308" fill="rgb(0,0,255)"/>
<polygon points="227.3,302 233.3,302 233.3,308 227.3,308" fill="rgb(5,5,255)"/>
<polygon points="233.3,302 239.3,302 239.3,308 233.3,308" fill="rgb(0,0,255)"/>
<polygon points="239.3,302 245.3,302 245.3,308 239.3,308" fill="rgb(18,18,255)"/>
<polygon points="245.3,302 251.3,302 251.3,308 245.3,308" fill="rgb(0,0,255)"/>
<polygon points="251.3,302 257.3,302 257.3,308 251.3,308" fill="rgb(0,0,255)"/>
<polygon points="257.3,302 263.3,302 263.3,308 257.3,308" fill="rgb(4,4,255)"/>
<polygon points="263.3,302 269.3,302 269.3,308 263.3,308" fill="rgb(44,44,255)"/>
<polygon points="269.3,302 275.3,302 275.3,308 269.3,308" fill="rgb(17,17,255)"/>
<polygon points="275.3,302 281.3,302 281.3,308 275.3,308" fill="rgb(21,21,255)"/>
<polygon points="281.3,302 287.3,302 287.3,308 281.3,308" fill="rgb(255,207,207)"/>
<polygon points="287.3,302 293.3,302 293.3,308 287.3,308" fill="rgb(255,197,197)"/>
<polygon points="143.3,308 149.3,308 149.3,314 143.3,314" fill="rgb(128,0,128)"/>
<polygon points="149.3,308 155.3,308 155.3,314 149.3,314" fill="rgb(128,0,128)"/>
<polygon points="158.3,308 164.3,308 164.3,314 158.3,314" fill="rgb(255,255,255)"/>
<polygon points="164.3,308 170.3,308 170.3,314 164.3,314" fill="rgb(255,255,255)"/>
<polygon points="170.3,308 176.3,308 176.3,314 170.3,314" fill="rgb(255,255,255)"/>
<polygon points="176.3,308 182.3,308 182.3,314 176.3,314" fill="rgb(255,255,255)"/>
<polygon points="182.3,308 188.3,308 188.3,314 182.3,314" fill="rgb(255,255,255)"/>
<polygon points="188.3,308 194.3,308 194.3,314 188.3,314" fill="rgb(255,255,255)"/>
<polygon points="194.3,308 200.3,308 200.3,314 194.3,314" fill="rgb(0,255,255)"/>
<polygon points="200.3,308 206.3,308 206.3,314 200.3,314" fill="rgb(0,255,255)"/>
<polygon points="209.3,308 215.3,308 215.3,314 209.3,314" fill="rgb(0,0,255)"/>
<polygon points="215.3,308 221.3,308 221.3,314 215.3,314" fill="rgb(0,0,255)"/>
<polygon points="221.3,308 227.3,308 227.3,314 221.3,314" fill="rgb(4,4,255)"/>
<polygon points="227.3,308 233.3,308 233.3,314 227.3,314" fill="rgb(23,23,255)"/>
<polygon points="233.3,308 239.3,308 239.3,314 233.3,314" fill="rgb(0,0,255)"/>
<polygon points="239.3,308 245.3,308 245.3,314 239.3,314" fill="rgb(0,0,255)"/>
<polygon points="245.3,308 251.3,308 251.3,314 245.3,314" fill="rgb(0,0,255)"/>
<polygon points="251.3,308 257.3,308 257.3,314 251.3,314" fill="rgb(28,28,255)"/>
<polygon points="257.3,308 263.3,308 263.3,314 257.3,314" fill="rgb(70,70,255)"/>
<polygon points="263.3,308 269.3,308 269.3,314 263.3,314" fill="rgb(255,252,252)"/>
<polygon points="269.3,308 275.3,308 275.3,314 269.3,314" fill="rgb(255,231,231)"/>
<polygon points="275.3,308 281.3,308 281.3,314 275.3,314" fill="rgb(255,251,251)"/>
<polygon points="281.3,308 287.3,308 287.3,314 281.3,314" fill="rgb(255,185,185)"/>
<polygon points="287.3,308 293.3,308 293.3,314 287.3,314" fill="rgb(255,219,219)"/>
<polygon points="143.3,314 149.3,314 149.3,320 143.3,320" fill="rgb(255,255,255)"/>
<polygon points="149.3,314 155.3,314 155.3,320 149.3,320" fill="rgb(255,255,255)"/>
<polygon points="158.3,314 164.3,314 164.3,320 158.3,320" fill="rgb(255,255,255)"/>
<polygon points="164.3,314 170.3,314 170.3,320 164.3,320" fill="rgb(255,255,255)"/>
<polygon points="170.3,314 176.3,314 176.3,320 170.3,320" fill="rgb(255,255,255)"/>
<polygon points="176.3,314 182.3,314 182.3,320 176.3,320" fill="rgb(255,255,255)"/>
<polygon points="182.3,314 188.3,314 188.3,320 182.3,320" fill="rgb(255,255,255)"/>
<polygon points="188.3,314 194.3,314 194.3,320 188.3,320" fill="rgb(0,255,255)"/>
<polygon points="194.3,314 200.3,314 200.3,320 194.3,320" fill="rgb(255,255,255)"/>
<polygon points="200.3,314 206.3,314 206.3,320 200.3,320" fill="rgb(0,255,255)"/>
<polygon points="209.3,314 215.3,314 215.3,320 209.3,320" fill="rgb(255,246,246)"/>
<polygon points="215.3,314 221.3,314 221.3,320 215.3,320" fill="rgb(255,222,222)"/>
<polygon points="221.3,314 227.3,314 227.3,320 221.3,320" fill="rgb(255,234,234)"/>
<polygon points="227.3,314 233.3,314 233.3,320 227.3,320" fill="rgb(255,219,219)"/>
<polygon points="233.3,314 239.3,314 239.3,320 233.3,320" fill="rgb(251,251,255)"/>
<polygon points="239.3,314 245.3,314 245.3,320 239.3,320" fill="rgb(255,251,251)"/>
<polygon points="245.3,314 251.3,314 251.3,320 245.3,320" fill="rgb(255,236,236)"/>
<polygon points="251.3,314 257.3,314 257.3,320 251.3,320" fill="rgb(255,229,229)"/>
<polygon points="257.3,314 263.3,314 263.3,320 257.3,320" fill="rgb(255,223,223)"/>
<polygon points="263.3,314 269.3,314 269.3,320 263.3,320" fill="rgb(255,201,201)"/>
<polygon points="269.3,314 275.3,314 275.3,320 269.3,320" fill="rgb(255,161,161)"/>
<polygon points="275.3,314 281.3,314 281.3,320 275.3,320" fill="rgb(255,176,176)"/>
<polygon points="281.3,314 287.3,314 287.3,320 281.3,320" fill="rgb(255,98,98)"/>
<polygon points="287.3,314 293.3,314 293.3,320 287.3,320" fill="rgb(255,79,79)"/>
<polygon points="143.3,320 149.3,320 149.3,326 143.3,326" fill="rgb(128,0,128)"/>
<polygon points="149.3,320 155.3,320 155.3,326 149.3,326" fill="rgb(128,0,128)"/>
<polygon points="158.3,320 164.3,320 164.3,326 158.3,326" fill="rgb(255,255,255)"/>
<polygon points="164.3,320 170.3,320 170.3,326 164.3,326" fill="rgb(255,255,255)"/>
<polygon points="170.3,320 176.3,320 176.3,326 170.3,326" fill="rgb(255,255,255)"/>
<polygon points="176.3,320 182.3,320 182.3,326 176.3,326" fill="rgb(0,255,255)"/>
<polygon points="182.3,320 188.3,320 188.3,326 182.3,326" fill="rgb(255,255,255)"/>
<polygon points="188.3,320 194.3,320 194.3,326 188.3,326" fill="rgb(255,255,255)"/>
<polygon points="194.3,320 200.3,320 200.3,326 194.3,326" fill="rgb(255,255,255)"/>
<polygon points="200.3,320 206.3,320 206.3,326 200.3,326" fill="rgb(0,255,255)"/>
<polygon points="209.3,320 215.3,320 215.3,326 209.3,326" fill="rgb(0,0,255)"/>
<polygon points="215.3,320 221.3,320 221.3,326 215.3,326" fill="rgb(0,0,255)"/>
<polygon points="221.3,320 227.3,320 227.3,326 221.3,326" fill="rgb(162,162,255)"/>
<polygon points="227.3,320 233.3,320 233.3,326 227.3,326" fill="rgb(254,240,240)"/>
<polygon points="233.3,320 239.3,320 239.3,326 233.3,326" fill="rgb(106,106,255)"/>
<polygon points="239.3,320 245.3,320 245.3,326 239.3,326" fill="rgb(190,190,255)"/>
<polygon points="245.3,320 251.3,320 251.3,326 245.3,326" fill="rgb(254,252,252)"/>
<polygon points="251.3,320 257.3,320 257.3,326 251.3,326" fill="rgb(255,235,235)"/>
<polygon points="257.3,320 263.3,320 263.3,326 257.3,326" fill="rgb(255,245,245)"/>
<polygon points="263.3,320 269.3,320 269.3,326 263.3,326" fill="rgb(255,248,248)"/>
<polygon points="269.3,320 275.3,320 275.3,326 269.3,326" fill="rgb(255,233,233)"/>
<polygon points="275.3,320 281.3,320 281.3,326 275.3,326" fill="rgb(255,243,243)"/>
<polygon points="281.3,320 287.3,320 287.3,326 281.3,326" fill="rgb(255,194,194)"/>
<polygon points="287.3,320 293.3,320 293.3,326 287.3,326" fill="rgb(255,159,159)"/>
<polygon points="143.3,326 149.3,326 149.3,332 143.3,332" fill="rgb(255,255,255)"/>
<polygon points="149.3,326 155.3,326 155.3,332 149.3,332" fill="rgb(255,255,255)"/>
<polygon points="158.3,326 164.3,326 164.3,332 158.3,332" fill="rgb(255,255,255)"/>
<polygon points="164.3,326 170.3,326 170.3,332 164.3,332" fill="rgb(255,255,255)"/>
<polygon points="170.3,326 176.3,326 176.3,332 170.3,332" fill="rgb(0,255,255)"/>
<polygon points="176.3,326 182.3,326 182.3,332 176.3,332" fill="rgb(0,255,255)"/>
<polygon points="182.3,326 188.3,326 188.3,332 182.3,332" fill="rgb(255,255,255)"/>
<polygon points="188.3,326 194.3,326 194.3,332 188.3,332" fill="rgb(255,255,255)"/>
<polygon points="194.3,326 200.3,326 200.3,332 194.3,332" fill="rgb(255,255,255)"/>
<polygon points="200.3,326 206.3,326 206.3,332 200.3,332" fill="rgb(255,255,255)"/>
<polygon points="209.3,326 215.3,326 215.3,332 209.3,332" fill="rgb(0,0,255)"/>
<polygon points="215.3,326 221.3,326 221.3,332 215.3,332" fill="rgb(0,0,255)"/>
<polygon points="221.3,326 227.3,326 227.3,332 221.3,332" fill="rgb(9,9,255)"/>
<polygon points="227.3,326 233.3,326 233.3,332 227.3,332" fill="rgb(47,47,255)"/>
<polygon points="233.3,326 239.3,326 239.3,332 233.3,332" fill="rgb(120,120,255)"/>
<polygon points="239.3,326 245.3,326 245.3,332 239.3,332" fill="rgb(248,248,255)"/>
<polygon points="245.3,326 251.3,326 251.3,332 245.3,332" fill="rgb(255,222,222)"/>
<polygon points="251.3,326 257.3,326 257.3,332 251.3,332" fill="rgb(255,232,232)"/>
<polygon points="257.3,326 263.3,326 263.3,332 257.3,332" fill="rgb(255,216,216)"/>
<polygon points="263.3,326 269.3,326 269.3,332 263.3,332" fill="rgb(255,232,232)"/>
<polygon points="269.3,326 275.3,326 275.3,332 269.3,332" fill="rgb(255,207,207)"/>
<polygon points="275.3,326 281.3,326 281.3,332 275.3,332" fill="rgb(254,217,217)"/>
<polygon points="281.3,326 287.3,326 287.3,332 281.3,332" fill="rgb(255,128,128)"/>
<polygon points="287.3,326 293.3,326 293.3,332 287.3,332" fill="rgb(255,110,110)"/>
<polygon points="143.3,332 149.3,332 149.3,338 143.3,338" fill="rgb(128,0,128)"/>
<polygon points="149.3,332 155.3,332 155.3,338 149.3,338" fill="rgb(128,0,128)"/>
<polygon points="158.3,332 164.3,332 164.3,338 158.3,338" fill="rgb(255,255,255)"/>
<polygon points="164.3,332 170.3,332 170.3,338 164.3,338" fill="rgb(0,255,255)"/>
<polygon points="170.3,332 176.3,332 176.3,338 170.3,338" fill="rgb(0,255,255)"/>
<polygon points="176.3,332 182.3,332 182.3,338 176.3,338" fill="rgb(0,255,255)"/>
<polygon points="182.3,332 188.3,332 188.3,338 182.3,338" fill="rgb(0,255,255)"/>
<polygon points="188.3,332 194.3,332 194.3,338 188.3,338" fill="rgb(0,255,255)"/>
<polygon points="194.3,332 200.3,332 200.3,338 194.3,338" fill="rgb(255,255,255)"/>
<polygon points="200.3,332 206.3,332 206.3,338 200.3,338" fill="rgb(255,255,255)"/>
<polygon points="209.3,332 215.3,332 215.3,338 209.3,338" fill="rgb(8,8,255)"/>
<polygon points="215.3,332 221.3,332 221.3,338 215.3,338" fill="rgb(33,33,255)"/>
<polygon points="221.3,332 227.3,332 227.3,338 221.3,338" fill="rgb(17,17,255)"/>
<polygon points="227.3,332 233.3,332 233.3,338 227.3,338" fill="rgb(31,31,254)"/>
<polygon points="233.3,332 239.3,332 239.3,338 233.3,338" fill="rgb(0,0,255)"/>
<polygon points="239.3,332 245.3,332 245.3,338 239.3,338" fill="rgb(23,23,255)"/>
<polygon points="245.3,332 251.3,332 251.3,338 245.3,338" fill="rgb(0,0,255)"/>
<polygon points="251.3,332 257.3,332 257.3,338 251.3,338" fill="rgb(0,0,255)"/>
<polygon points="257.3,332 263.3,332 263.3,338 257.3,338" fill="rgb(52,52,255)"/>
<polygon points="263.3,332 269.3,332 269.3,338 263.3,338" fill="rgb(154,154,255)"/>
<polygon points="269.3,332 275.3,332 275.3,338 269.3,338" fill="rgb(255,228,228)"/>
<polygon points="275.3,332 281.3,332 281.3,338 275.3,338" fill="rgb(255,253,253)"/>
<polygon points="281.3,332 287.3,332 287.3,338 281.3,338" fill="rgb(255,114,114)"/>
<polygon points="287.3,332 293.3,332 293.3,338 287.3,338" fill="rgb(255,98,98)"/>
<polygon points="143.3,341 149.3,341 149.3,347 143.3,347" fill="rgb(255,255,255)"/>
<polygon points="149.3,341 155.3,341 155.3,347 149.3,347" fill="rgb(255,255,255)"/>
<polygon points="158.3,341 164.3,341 164.3,347 158.3,347" fill="rgb(255,255,255)"/>
<polygon points="164.3,341 170.3,341 170.3,347 164.3,347" fill="rgb(255,255,255)"/>
<polygon points="170.3,341 176.3,341 176.3,347 170.3,347" fill="rgb(255,255,255)"/>
<polygon points="176.3,341 182.3,341 182.3,347 176.3,347" fill="rgb(255,255,255)"/>
<polygon points="182.3,341 188.3,341 188.3,347 182.3,347" fill="rgb(255,255,255)"/>
<polygon points="188.3,341 194.3,341 194.3,347 188.3,347" fill="rgb(255,255,255)"/>
<polygon points="194.3,341 200.3,341 200.3,347 194.3,347" fill="rgb(255,255,255)"/>
<polygon points="200.3,341 206.3,341 206.3,347 200.3,347" fill="rgb(255,255,255)"/>
<polygon points="209.3,341 215.3,341 215.3,347 209.3,347" fill="rgb(0,0,255)"/>
<polygon points="215.3,341 221.3,341 221.3,347 215.3,347" fill="rgb(0,0,255)"/>
<polygon points="221.3,341 227.3,341 227.3,347 221.3,347" fill="rgb(0,0,255)"/>
<polygon points="227.3,341 233.3,341 233.3,347 227.3,347" fill="rgb(5,5,255)"/>
<polygon points="233.3,341 239.3,341 239.3,347 233.3,347" fill="rgb(0,0,255)"/>
<polygon points="239.3,341 245.3,341 245.3,347 239.3,347" fill="rgb(18,18,255)"/>
<polygon points="245.3,341 251.3,341 251.3,347 245.3,347" fill="rgb(0,0,255)"/>
<polygon points="251.3,341 257.3,341 257.3,347 251.3,347" fill="rgb(0,0,255)"/>
<polygon points="257.3,341 263.3,341 263.3,347 257.3,347" fill="rgb(4,4,255)"/>
<polygon points="263.3,341 269.3,341 269.3,347 263.3,347" fill="rgb(44,44,255)"/>
<polygon points="269.3,341 275.3,341 275.3,347 269.3,347" fill="rgb(17,17,255)"/>
<polygon points="275.3,341 281.3,341 281.3,347 275.3,347" fill="rgb(21,21,255)"/>
<polygon points="281.3,341 287.3,341 287.3,347 281.3,347" fill="rgb(255,207,207)"/>
<polygon points="287.3,341 293.3,341 293.3,347 287.3,347" fill="rgb(255,197,197)"/>
<polygon points="143.3,347 149.3,347 149.3,353 143.3,353" fill="rgb(255,255,255)"/>
<polygon points="149.3,347 155.3,347 155.3,353 149.3,353" fill="rgb(255,255,255)"/>
<polygon points="158.3,347 164.3,347 164.3,353 158.3,353" fill="rgb(255,255,255)"/>
<polygon points="164.3,347 170.3,347 170.3,353 164.3,353" fill="rgb(255,255,255)"/>
<polygon points="170.3,347 176.3,347 176.3,353 170.3,353" fill="rgb(255,255,255)"/>
<polygon points="176.3,347 182.3,347 182.3,353 176.3,353" fill="rgb(255,255,255)"/>
<polygon points="182.3,347 188.3,347 188.3,353 182.3,353" fill="rgb(255,255,255)"/>
<polygon points="188.3,347 194.3,347 194.3,353 188.3,353" fill="rgb(255,255,255)"/>
<polygon points="194.3,347 200.3,347 200.3,353 194.3,353" fill="rgb(255,255,255)"/>
<polygon points="200.3,347 206.3,347 206.3,353 200.3,353" fill="rgb(255,255,255)"/>
<polygon points="209.3,347 215.3,347 215.3,353 209.3,353" fill="rgb(0,0,255)"/>
<polygon points="215.3,347 221.3,347 221.3,353 215.3,353" fill="rgb(0,0,255)"/>
<polygon points="221.3,347 227.3,347 227.3,353 221.3,353" fill="rgb(0,0,255)"/>
<polygon points="227.3,347 233.3,347 233.3,353 227.3,353" fill="rgb(0,0,255)"/>
<polygon points="233.3,347 239.3,347 239.3,353 233.3,353" fill="rgb(16,16,255)"/>
<polygon points="239.3,347 245.3,347 245.3,353 239.3,353" fill="rgb(21,21,255)"/>
<polygon points="245.3,347 251.3,347 251.3,353 245.3,353" fill="rgb(24,24,255)"/>
<polygon points="251.3,347 257.3,347 257.3,353 251.3,353" fill="rgb(0,0,255)"/>
<polygon points="257.3,347 263.3,347 263.3,353 257.3,353" fill="rgb(21,21,255)"/>
<polygon points="263.3,347 269.3,347 269.3,353 263.3,353" fill="rgb(40,40,255)"/>
<polygon points="269.3,347 275.3,347 275.3,353 269.3,353" fill="rgb(7,7,255)"/>
<polygon points="275.3,347 281.3,347 281.3,353 275.3,353" fill="rgb(46,46,255)"/>
<polygon points="281.3,347 287.3,347 287.3,353 281.3,353" fill="rgb(255,187,187)"/>
<polygon points="287.3,347 293.3,347 293.3,353 287.3,353" fill="rgb(255,64,64)"/>
<polygon points="143.3,353 149.3,353 149.3,359 143.3,359" fill="rgb(255,255,255)"/>
<polygon points="149.3,353 155.3,353 155.3,359 149.3,359" fill="rgb(255,255,255)"/>
<polygon points="158.3,353 164.3,353 164.3,359 158.3,359" fill="rgb(255,255,255)"/>
<polygon points="164.3,353 170.3,353 170.3,359 164.3,359" fill="rgb(255,255,255)"/>
<polygon points="170.3,353 176.3,353 176.3,359 170.3,359" fill="rgb(255,255,255)"/>
<polygon points="176.3,353 182.3,353 182.3,359 176.3,359" fill="rgb(255,255,255)"/>
<polygon points="182.3,353 188.3,353 188.3,359 182.3,359" fill="rgb(255,255,255)"/>
<polygon points="188.3,353 194.3,353 194.3,359 188.3,359" fill="rgb(255,255,255)"/>
<polygon points="194.3,353 200.3,353 200.3,359 194.3,359" fill="rgb(255,255,255)"/>
<polygon points="200.3,353 206.3,353 206.3,359 200.3,359" fill="rgb(255,255,255)"/>
<polygon points="209.3,353 215.3,353 215.3,359 209.3,359" fill="rgb(0,0,255)"/>
<polygon points="215.3,353 221.3,353 221.3,359 215.3,359" fill="rgb(0,0,255)"/>
<polygon points="221.3,353 227.3,353 227.3,359 221.3,359" fill="rgb(4,4,255)"/>
<polygon points="227.3,353 233.3,353 233.3,359 227.3,359" fill="rgb(0,0,255)"/>
<polygon points="233.3,353 239.3,353 239.3,359 233.3,359" fill="rgb(0,0,255)"/>
<polygon points="239.3,353 245.3,353 245.3,359 239.3,359" fill="rgb(0,0,255)"/>
<polygon points="245.3,353 251.3,353 251.3,359 245.3,359" fill="rgb(51,51,255)"/>
<polygon points="251.3,353 257.3,353 257.3,359 251.3,359" fill="rgb(0,0,255)"/>
<polygon points="257.3,353 263.3,353 263.3,359 257.3,359" fill="rgb(6,6,255)"/>
<polygon points="263.3,353 269.3,353 269.3,359 263.3,359" fill="rgb(228,228,255)"/>
<polygon points="269.3,353 275.3,353 275.3,359 269.3,359" fill="rgb(255,251,251)"/>
<polygon points="275.3,353 281.3,353 281.3,359 275.3,359" fill="rgb(31,31,255)"/>
<polygon points="281.3,353 287.3,353 287.3,359 281.3,359" fill="rgb(255,199,199)"/>
<polygon points="287.3,353 293.3,353 293.3,359 287.3,359" fill="rgb(255,238,238)"/>
<polygon points="143.3,359 149.3,359 149.3,365 143.3,365" fill="rgb(255,255,255)"/>
<polygon points="149.3,359 155.3,359 155.3,365 149.3,365" fill="rgb(255,255,255)"/>
<polygon points="158.3,359 164.3,359 164.3,365 158.3,365" fill="rgb(255,255,255)"/>
<polygon points="164.3,359 170.3,359 170.3,365 164.3,365" fill="rgb(255,255,255)"/>
<polygon points="170.3,359 176.3,359 176.3,365 170.3,365" fill="rgb(255,255,255)"/>
<polygon points="176.3,359 182.3,359 182.3,365 176.3,365" fill="rgb(255,255,255)"/>
<polygon points="182.3,359 188.3,359 188.3,365 182.3,365" fill="rgb(255,255,255)"/>
<polygon points="188.3,359 194.3,359 194.3,365 188.3,365" fill="rgb(255,255,255)"/>
<polygon points="194.3,359 200.3,359 200.3,365 194.3,365" fill="rgb(255,255,255)"/>
<polygon points="200.3,359 206.3,359 206.3,365 200.3,365" fill="rgb(255,255,255)"/>
<polygon points="209.3,359 215.3,359 215.3,365 209.3,365" fill="rgb(2,2,255)"/>
<polygon points="215.3,359 221.3,359 221.3,365 215.3,365" fill="rgb(0,0,255)"/>
<polygon points="221.3,359 227.3,359 227.3,365 221.3,365" fill="rgb(0,0,255)"/>
<polygon points="227.3,359 233.3,359 233.3,365 227.3,365" fill="rgb(6,6,255)"/>
<polygon points="233.3,359 239.3,359 239.3,365 233.3,365" fill="rgb(0,0,255)"/>
<polygon points="239.3,359 245.3,359 245.3,365 239.3,365" fill="rgb(0,0,255)"/>
<polygon points="245.3,359 251.3,359 251.3,365 245.3,365" fill="rgb(0,0,255)"/>
<polygon points="251.3,359 257.3,359 257.3,365 251.3,365" fill="rgb(18,18,255)"/>
<polygon points="257.3,359 263.3,359 263.3,365 257.3,365" fill="rgb(0,0,255)"/>
<polygon points="263.3,359 269.3,359 269.3,365 263.3,365" fill="rgb(77,77,255)"/>
<polygon points="269.3,359 275.3,359 275.3,365 269.3,365" fill="rgb(62,62,255)"/>
<polygon points="275.3,359 281.3,359 281.3,365 275.3,365" fill="rgb(69,69,255)"/>
<polygon points="281.3,359 287.3,359 287.3,365 281.3,365" fill="rgb(255,209,209)"/>
<polygon points="287.3,359 293.3,359 293.3,365 287.3,365" fill="rgb(255,155,155)"/>
<polygon points="143.3,365 149.3,365 149.3,371 143.3,371" fill="rgb(255,255,255)"/>
<polygon points="149.3,365 155.3,365 155.3,371 149.3,371" fill="rgb(255,255,255)"/>
<polygon points="158.3,365 164.3,365 164.3,371 158.3,371" fill="rgb(255,255,255)"/>
<polygon points="164.3,365 170.3,365 170.3,371 164.3,371" fill="rgb(255,255,255)"/>
<polygon points="170.3,365 176.3,365 176.3,371 170.3,371" fill="rgb(255,255,255)"/>
<polygon points="176.3,365 182.3,365 182.3,371 176.3,371" fill="rgb(255,255,255)"/>
<polygon points="182.3,365 188.3,365 188.3,371 182.3,371" fill="rgb(255,255,255)"/>
<polygon points="188.3,365 194.3,365 194.3,371 188.3,371" fill="rgb(255,255,255)"/>
<polygon points="194.3,365 200.3,365 200.3,371 194.3,371" fill="rgb(255,255,255)"/>
<polygon points="200.3,365 206.3,365 206.3,371 200.3,371" fill="rgb(255,255,255)"/>
<polygon points="209.3,365 215.3,365 215.3,371 209.3,371" fill="rgb(8,8,255)"/>
<polygon points="215.3,365 221.3,365 221.3,371 215.3,371" fill="rgb(33,33,255)"/>
<polygon points="221.3,365 227.3,365 227.3,371 221.3,371" fill="rgb(17,17,255)"/>
<polygon points="227.3,365 233.3,365 233.3,371 227.3,371" fill="rgb(31,31,254)"/>
<polygon points="233.3,365 239.3,365 239.3,371 233.3,371" fill="rgb(0,0,255)"/>
<polygon points="239.3,365 245.3,365 245.3,371 239.3,371" fill="rgb(23,23,255)"/>
<polygon points="245.3,365 251.3,365 251.3,371 245.3,371" fill="rgb(0,0,255)"/>
<polygon points="251.3,365 257.3,365 257.3,371 251.3,371" fill="rgb(0,0,255)"/>
<polygon points="257.3,365 263.3,365 263.3,371 257.3,371" fill="rgb(52,52,255)"/>
<polygon points="263.3,365 269.3,365 269.3,371 263.3,371" fill="rgb(154,154,255)"/>
<polygon points="269.3,365 275.3,365 275.3,371 269.3,371" fill="rgb(255,228,228)"/>
<polygon points="275.3,365 281.3,365 281.3,371 275.3,371" fill="rgb(255,253,253)"/>
<polygon points="281.3,365 287.3,365 287.3,371 281.3,371" fill="rgb(255,114,114)"/>
<polygon points="287.3,365 293.3,365 293.3,371 287.3,371" fill="rgb(255,98,98)"/>
<polygon points="143.3,371 149.3,371 149.3,377 143.3,377" fill="rgb(255,255,255)"/>
<polygon points="149.3,371 155.3,371 155.3,377 149.3,377" fill="rgb(255,255,255)"/>
<polygon points="158.3,371 164.3,371 164.3,377 158.3,377" fill="rgb(255,255,255)"/>
<polygon points="164.3,371 170.3,371 170.3,377 164.3,377" fill="rgb(255,255,255)"/>
<polygon points="170.3,371 176.3,371 176.3,377 170.3,377" fill="rgb(255,255,255)"/>
<polygon points="176.3,371 182.3,371 182.3,377 176.3,377" fill="rgb(255,255,255)"/>
<polygon points="182.3,371 188.3,371 188.3,377 182.3,377" fill="rgb(255,255,255)"/>
<polygon points="188.3,371 194.3,371 194.3,377 188.3,377" fill="rgb(255,255,255)"/>
<polygon points="194.3,371 200.3,371 200.3,377 194.3,377" fill="rgb(255,255,255)"/>
<polygon points="200.3,371 206.3,371 206.3,377 200.3,377" fill="rgb(255,255,255)"/>
<polygon points="209.3,371 215.3,371 215.3,377 209.3,377" fill="rgb(255,244,244)"/>
<polygon points="215.3,371 221.3,371 221.3,377 215.3,377" fill="rgb(255,242,242)"/>
<polygon points="221.3,371 227.3,371 227.3,377 221.3,377" fill="rgb(0,0,255)"/>
<polygon points="227.3,371 233.3,371 233.3,377 227.3,377" fill="rgb(0,0,255)"/>
<polygon points="233.3,371 239.3,371 239.3,377 233.3,377" fill="rgb(0,0,255)"/>
<polygon points="239.3,371 245.3,371 245.3,377 239.3,377" fill="rgb(0,0,255)"/>
<polygon points="245.3,371 251.3,371 251.3,377 245.3,377" fill="rgb(0,0,255)"/>
<polygon points="251.3,371 257.3,371 257.3,377 251.3,377" fill="rgb(88,88,255)"/>
<polygon points="257.3,371 263.3,371 263.3,377 257.3,377" fill="rgb(0,0,255)"/>
<polygon points="263.3,371 269.3,371 269.3,377 263.3,377" fill="rgb(0,0,255)"/>
<polygon points="269.3,371 275.3,371 275.3,377 269.3,377" fill="rgb(166,166,255)"/>
<polygon points="275.3,371 281.3,371 281.3,377 275.3,377" fill="rgb(0,0,255)"/>
<polygon points="281.3,371 287.3,371 287.3,377 281.3,377" fill="rgb(255,208,208)"/>
<polygon points="287.3,371 293.3,371 293.3,377 287.3,377" fill="rgb(255,164,164)"/>
<polygon points="143.3,377 149.3,377 149.3,383 143.3,383" fill="rgb(255,255,255)"/>
<polygon points="149.3,377 155.3,377 155.3,383 149.3,383" fill="rgb(255,255,255)"/>
<polygon points="158.3,377 164.3,377 164.3,383 158.3,383" fill="rgb(255,255,255)"/>
<polygon points="164.3,377 170.3,377 170.3,383 164.3,383" fill="rgb(255,255,255)"/>
<polygon points="170.3,377 176.3,377 176.3,383 170.3,383" fill="rgb(255,255,255)"/>
<polygon points="176.3,377 182.3,377 182.3,383 176.3,383" fill="rgb(255,255,255)"/>
<polygon points="182.3,377 188.3,377 188.3,383 182.3,383" fill="rgb(255,255,255)"/>
<polygon points="188.3,377 194.3,377 194.3,383 188.3,383" fill="rgb(255,255,255)"/>
<polygon points="194.3,377 200.3,377 200.3,383 194.3,383" fill="rgb(255,255,255)"/>
<polygon points="200.3,377 206.3,377 206.3,383 200.3,383" fill="rgb(255,255,255)"/>
<polygon points="209.3,377 215.3,377 215.3,383 209.3,383" fill="rgb(0,0,255)"/>
<polygon points="215.3,377 221.3,377 221.3,383 215.3,383" fill="rgb(0,0,255)"/>
<polygon points="221.3,377 227.3,377 227.3,383 221.3,383" fill="rgb(0,0,255)"/>
<polygon points="227.3,377 233.3,377 233.3,383 227.3,383" fill="rgb(0,0,255)"/>
<polygon points="233.3,377 239.3,377 239.3,383 233.3,383" fill="rgb(130,130,255)"/>
<polygon points="239.3,377 245.3,377 245.3,383 239.3,383" fill="rgb(255,247,247)"/>
<polygon points="245.3,377 251.3,377 251.3,383 245.3,383" fill="rgb(0,0,255)"/>
<polygon points="251.3,377 257.3,377 257.3,383 251.3,383" fill="rgb(255,253,253)"/>
<polygon points="257.3,377 263.3,377 263.3,383 257.3,383" fill="rgb(0,0,255)"/>
<polygon points="263.3,377 269.3,377 269.3,383 263.3,383" fill="rgb(0,0,255)"/>
<polygon points="269.3,377 275.3,377 275.3,383 269.3,383" fill="rgb(0,0,255)"/>
<polygon points="275.3,377 281.3,377 281.3,383 275.3,383" fill="rgb(0,0,255)"/>
<polygon points="281.3,377 287.3,377 287.3,383 281.3,383" fill="rgb(254,226,226)"/>
<polygon points="287.3,377 293.3,377 293.3,383 287.3,383" fill="rgb(255,243,243)"/>
<polygon points="143.3,383 149.3,383 149.3,389 143.3,389" fill="rgb(255,255,255)"/>
<polygon points="149.3,383 155.3,383 155.3,389 149.3,389" fill="rgb(255,255,255)"/>
<polygon points="158.3,383 164.3,383 164.3,389 158.3,389" fill="rgb(255,255,255)"/>
<polygon points="164.3,383 170.3,383 170.3,389 164.3,389" fill="rgb(255,255,255)"/>
<polygon points="170.3,383 176.3,383 176.3,389 170.3,389" fill="rgb(255,255,255)"/>
<polygon points="176.3,383 182.3,383 182.3,389 176.3,389" fill="rgb(255,255,255)"/>
<polygon points="182.3,383 188.3,383 188.3,389 182.3,389" fill="rgb(255,255,255)"/>
<polygon points="188.3,383 194.3,383 194.3,389 188.3,389" fill="rgb(255,255,255)"/>
<polygon points="194.3,383 200.3,383 200.3,389 194.3,389" fill="rgb(255,255,255)"/>
<polygon points="200.3,383 206.3,383 206.3,389 200.3,389" fill="rgb(255,255,255)"/>
<polygon points="209.3,383 215.3,383 215.3,389 209.3,389" fill="rgb(14,14,254)"/>
<polygon points="215.3,383 221.3,383 221.3,389 215.3,389" fill="rgb(8,8,255)"/>
<polygon points="221.3,383 227.3,383 227.3,389 221.3,389" fill="rgb(8,8,255)"/>
<polygon points="227.3,383 233.3,383 233.3,389 227.3,389" fill="rgb(89,89,255)"/>
<polygon points="233.3,383 239.3,383 239.3,389 233.3,389" fill="rgb(59,59,255)"/>
<polygon points="239.3,383 245.3,383 245.3,389 239.3,389" fill="rgb(12,12,255)"/>
<polygon points="245.3,383 251.3,383 251.3,389 245.3,389" fill="rgb(40,40,255)"/>
<polygon points="251.3,383 257.3,383 257.3,389 251.3,389" fill="rgb(109,109,255)"/>
<polygon points="257.3,383 263.3,383 263.3,389 257.3,389" fill="rgb(145,145,255)"/>
<polygon points="263.3,383 269.3,383 269.3,389 263.3,389" fill="rgb(255,245,245)"/>
<polygon points="269.3,383 275.3,383 275.3,389 269.3,389" fill="rgb(255,241,241)"/>
<polygon points="275.3,383 281.3,383 281.3,389 275.3,389" fill="rgb(71,71,255)"/>
<polygon points="281.3,383 287.3,383 287.3,389 281.3,389" fill="rgb(255,195,195)"/>
<polygon points="287.3,383 293.3,383 293.3,389 287.3,389" fill="rgb(255,208,208)"/>
<polygon points="143.3,272 155.3,272 155.3,338 143.3,338" fill="none" stroke="black" stroke-width="0.5"/>
<polygon points="158.3,272 206.3,272 206.3,338 158.3,338" fill="none" stroke="black" stroke-width="0.5"/>
<polygon points="209.3,272 293.3,272 293.3,338 209.3,338" fill="none" stroke="black" stroke-width="0.5"/>
<polygon points="143.3,341 155.3,341 155.3,389 143.3,389" fill="none" stroke="black" stroke-width="0.5"/>
<polygon points="158.3,341 206.3,341 206.3,389 158.3,389" fill="none" stroke="black" stroke-width="0.5"/>
<polygon points="209.3,341 293.3,341 293.3,389 209.3,389" fill="none" stroke="black" stroke-width="0.5"/>
<text xml:space="preserve" x="191.65" y="421.667" font-family="Arial" font-size="7" text-anchor="middle">enrichments</text>
<polygon points="81.65,429 101.65,429 101.65,449 81.65,449" fill="rgb(255,255,255)"/><polygon points="81.65,429 101.65,429 101.65,449 81.65,449" fill="none" stroke="black" stroke-width="0.5"/><text xml:space="preserve" x="91.65" y="441" font-family="Arial" font-size="5" fill="rgb(0,0,0)" text-anchor="middle">0.0</text>
<polygon points="101.65,429 121.65,429 121.65,449 101.65,449" fill="rgb(216,178,216)"/><polygon points="101.65,429 121.65,429 121.65,449 101.65,449" fill="none" stroke="black" stroke-width="0.5"/><text xml:space="preserve" x="111.65" y="441" font-family="Arial" font-size="5" fill="rgb(0,0,0)" text-anchor="middle">0.3</text>
<polygon points="121.65,429 141.65,429 141.65,449 121.65,449" fill="rgb(178,102,178)"/><polygon points="121.65,429 141.65,429 141.65,449 121.65,449" fill="none" stroke="black" stroke-width="0.5"/><text xml:space="preserve" x="131.65" y="441" font-family="Arial" font-size="5" fill="rgb(0,0,0)" text-anchor="middle">0.6</text>
<polygon points="141.65,429 161.65,429 161.65,449 141.65,449" fill="rgb(140,25,140)"/><polygon points="141.65,429 161.65,429 161.65,449 141.65,449" fill="none" stroke="black" stroke-width="0.5"/><text xml:space="preserve" x="151.65" y="441" font-family="Arial" font-size="5" fill="rgb(255,255,255)" text-anchor="middle">0.9</text>
<polygon points="161.65,429 181.65,429 181.65,449 161.65,449" fill="rgb(102,50,153)"/><polygon points="161.65,429 181.65,429 181.65,449 161.65,449" fill="none" stroke="black" stroke-width="0.5"/><text xml:space="preserve" x="171.65" y="441" font-family="Arial" font-size="5" fill="rgb(255,255,255)" text-anchor="middle">1.2</text>
<polygon points="181.65,429 201.65,429 201.65,449 181.65,449" fill="rgb(64,127,191)"/><polygon points="181.65,429 201.65,429 201.65,449 181.65,449" fill="none" stroke="black" stroke-width="0.5"/><text xml:space="preserve" x="191.65" y="441" font-family="Arial" font-size="5" fill="rgb(255,255,255)" text-anchor="middle">1.5</text>
<polygon points="201.65,429 221.65,429 221.65,449 201.65,449" fill="rgb(25,204,229)"/><polygon points="201.65,429 221.65,429 221.65,449 201.65,449" fill="none" stroke="black" stroke-width="0.5"/><text xml:space="preserve" x="211.65" y="441" font-family="Arial" font-size="5" fill="rgb(0,0,0)" text-anchor="middle">1.8</text>
<polygon points="221.65,429 241.65,429 241.65,449 221.65,449" fill="rgb(0,239,239)"/><polygon points="221.65,429 241.65,429 241.65,449 221.65,449" fill="none" stroke="black" stroke-width="0.5"/><text xml:space="preserve" x="231.65" y="441" font-family="Arial" font-size="5" fill="rgb(0,0,0)" text-anchor="middle">2.1</text>
<polygon points="241.65,429 261.65,429 261.65,449 241.65,449" fill="rgb(0,193,193)"/><polygon points="241.65,429 261.65,429 261.65,449 241.65,449" fill="none" stroke="black" stroke-width="0.5"/><text xml:space="preserve" x="251.65" y="441" font-family="Arial" font-size="5" fill="rgb(0,0,0)" text-anchor="middle">2.4</text>
<polygon points="261.65,429 281.65,429 281.65,449 261.65,449" fill="rgb(0,146,146)"/><polygon points="261.65,429 281.65,429 281.65,449 261.65,449" fill="none" stroke="black" stroke-width="0.5"/><text xml:space="preserve" x="271.65" y="441" font-family="Arial" font-size="5" fill="rgb(255,255,255)" text-anchor="middle">2.7</text>
<polygon points="281.65,429 301.65,429 301.65,449 281.65,449" fill="rgb(0,100,100)"/><polygon points="281.65,429 301.65,429 301.65,449 281.65,449" fill="none" stroke="black" stroke-width="0.5"/><text xml:space="preserve" x="291.65" y="441" font-family="Arial" font-size="5" fill="rgb(255,255,255)" text-anchor="middle">3.0</text>
<text xml:space="preserve" x="191.65" y="481.667" font-family="Arial" font-size="7" text-anchor="middle">expression</text>
<polygon points="81.65,489 101.65,489 101.65,509 81.65,509" fill="rgb(0,0,255)"/><polygon points="81.65,489 101.65,489 101.65,509 81.65,509" fill="none" stroke="black" stroke-width="0.5"/><text xml:space="preserve" x="91.65" y="501" font-family="Arial" font-size="5" fill="rgb(255,255,255)" text-anchor="middle">0.0</text>
<polygon points="101.65,489 121.65,489 121.65,509 101.65,509" fill="rgb(255,211,211)"/><polygon points="101.65,489 121.65,489 121.65,509 101.65,509" fill="none" stroke="black" stroke-width="0.5"/><text xml:space="preserve" x="111.65" y="501" font-family="Arial" font-size="5" fill="rgb(0,0,0)" text-anchor="middle">0.6</text>
<polygon points="121.65,489 141.65,489 141.65,509 121.65,509" fill="rgb(255,158,158)"/><polygon points="121.65,489 141.65,489 141.65,509 121.65,509" fill="none" stroke="black" stroke-width="0.5"/><text xml:space="preserve" x="131.65" y="501" font-family="Arial" font-size="5" fill="rgb(0,0,0)" text-anchor="middle">1.2</text>
<polygon points="141.65,489 161.65,489 161.65,509 141.65,509" fill="rgb(255,105,105)"/><polygon points="141.65,489 161.65,489 161.65,509 141.65,509" fill="none" stroke="black" stroke-width="0.5"/><text xml:space="preserve" x="151.65" y="501" font-family="Arial" font-size="5" fill="rgb(0,0,0)" text-anchor="middle">1.8</text>
<polygon points="161.65,489 181.65,489 181.65,509 161.65,509" fill="rgb(255,52,52)"/><polygon points="161.65,489 181.65,489 181.65,509 161.65,509" fill="none" stroke="black" stroke-width="0.5"/><text xml:space="preserve" x="171.65" y="501" font-family="Arial" font-size="5" fill="rgb(255,255,255)" text-anchor="middle">2.4</text>
<polygon points="181.65,489 201.65,489 201.65,509 181.65,509" fill="rgb(255,0,0)"/><polygon points="181.65,489 201.65,489 201.65,509 181.65,509" fill="none" stroke="black" stroke-width="0.5"/><text xml:space="preserve" x="191.65" y="501" font-family="Arial" font-size="5" fill="rgb(255,255,255)" text-anchor="middle">3.0</text>
<polygon points="201.65,489 221.65,489 221.65,509 201.65,509" fill="rgb(231,0,0)"/><polygon points="201.65,489 221.65,489 221.65,509 201.65,509" fill="none" stroke="black" stroke-width="0.5"/><text xml:space="preserve" x="211.65" y="501" font-family="Arial" font-size="5" fill="rgb(255,255,255)" text-anchor="middle">3.6</text>
<polygon points="221.65,489 241.65,489 241.65,509 221.65,509" fill="rgb(208,0,0)"/><polygon points="221.65,489 241.65,489 241.65,509 221.65,509" fill="none" stroke="black" stroke-width="0.5"/><text xml:space="preserve" x="231.65" y="501" font-family="Arial" font-size="5" fill="rgb(255,255,255)" text-anchor="middle">4.2</text>
<polygon points="241.65,489 261.65,489 261.65,509 241.65,509" fill="rgb(185,0,0)"/><polygon points="241.65,489 261.65,489 261.65,509 241.65,509" fill="none" stroke="black" stroke-width="0.5"/><text xml:space="preserve" x="251.65" y="501" font-family="Arial" font-size="5" fill="rgb(255,255,255)" text-anchor="middle">4.8</text>
<polygon points="261.65,489 281.65,489 281.65,509 261.65,509" fill="rgb(162,0,0)"/><polygon points="261.65,489 281.65,489 281.65,509 261.65,509" fill="none" stroke="black" stroke-width="0.5"/><text xml:space="preserve" x="271.65" y="501" font-family="Arial" font-size="5" fill="rgb(255,255,255)" text-anchor="middle">5.4</text>
<polygon points="281.65,489 301.65,489 301.65,509 281.65,509" fill="rgb(139,0,0)"/><polygon points="281.65,489 301.65,489 301.65,509 281.65,509" fill="none" stroke="black" stroke-width="0.5"/><text xml:space="preserve" x="291.65" y="501" font-family="Arial" font-size="5" fill="rgb(255,255,255)" text-anchor="middle">6.0</text>
</svg>
