<?xml version="1.0" standalone="no"?><!DOCTYPE svg PUBLIC "-//W3C//DTD SVG 1.1//EN" "http://www.w3.org/Graphics/SVG/1.1/DTD/svg11.dtd">
<svg width="407.5" height="811.3" version="1.1" xmlns="http://www.w3.org/2000/svg">
<text xml:space="preserve" x="149.5" y="607.967" font-family="Arial" font-size="7" text-anchor="end">Gapdh</text>
<text xml:space="preserve" x="149.5" y="613.967" font-family="Arial" font-size="7" text-anchor="end">Pgk1</text>
<text xml:space="preserve" x="149.5" y="619.967" font-family="Arial" font-size="7" text-anchor="end">Aldoa</text>
<text xml:space="preserve" x="149.5" y="625.967" font-family="Arial" font-size="7" text-anchor="end">Ldha</text>
<text xml:space="preserve" x="149.5" y="631.967" font-family="Arial" font-size="7" text-anchor="end">Pkm</text>
<text xml:space="preserve" x="149.5" y="640.967" font-family="Arial" font-size="7" text-anchor="end">Atf2_nca:2</text>
<text xml:space="preserve" x="149.5" y="646.967" font-family="Arial" font-size="7" text-anchor="end">Gmeb2_nca:2</text>
<text xml:space="preserve" x="149.5" y="652.967" font-family="Arial" font-size="7" text-anchor="end">Id1_nca:2</text>
<text xml:space="preserve" x="149.5" y="658.967" font-family="Arial" font-size="7" text-anchor="end">Mbd2_nca:2</text>
<text xml:space="preserve" x="149.5" y="664.967" font-family="Arial" font-size="7" text-anchor="end">Nr6a1_nca:2</text>
<text xml:space="preserve" x="149.5" y="670.967" font-family="Arial" font-size="7" text-anchor="end">Rfx1_nca:2</text>
<text xml:space="preserve" x="159.167" y="598.3" font-family="Arial" font-size="7" transform="rotate(270 159.167 598.3)">heterocycle_metabolic_process:1</text>
<text xml:space="preserve" x="165.167" y="598.3" font-family="Arial" font-size="7" transform="rotate(270 165.167 598.3)">small_molecule_metabolic_process:1</text>
<text xml:space="preserve" x="171.167" y="598.3" font-family="Arial" font-size="7" transform="rotate(270 171.167 598.3)">nucleotide_metabolic_process:1</text>
<text xml:space="preserve" x="177.167" y="598.3" font-family="Arial" font-size="7" transform="rotate(270 177.167 598.3)">nucleoside_phosphate_metabolic_process:1</text>
<text xml:space="preserve" x="183.167" y="598.3" font-family="Arial" font-size="7" transform="rotate(270 183.167 598.3)">nucleobase-containing_small_molecule_metabolic_process:1</text>
<text xml:space="preserve" x="189.167" y="598.3" font-family="Arial" font-size="7" transform="rotate(270 189.167 598.3)">catabolic_process:1</text>
<text xml:space="preserve" x="195.167" y="598.3" font-family="Arial" font-size="7" transform="rotate(270 195.167 598.3)">glycolysis:1</text>
<text xml:space="preserve" x="201.167" y="598.3" font-family="Arial" font-size="7" transform="rotate(270 201.167 598.3)">glucose_catabolic_process:1</text>
<text xml:space="preserve" x="207.167" y="598.3" font-family="Arial" font-size="7" transform="rotate(270 207.167 598.3)">monosaccharide_metabolic_process:1</text>
<text xml:space="preserve" x="213.167" y="598.3" font-family="Arial" font-size="7" transform="rotate(270 213.167 598.3)">hexose_metabolic_process:1</text>
<text xml:space="preserve" x="219.167" y="598.3" font-family="Arial" font-size="7" transform="rotate(270 219.167 598.3)">generation_of_precursor_metabolites_and_energy:1</text>
<text xml:space="preserve" x="225.167" y="598.3" font-family="Arial" font-size="7" transform="rotate(270 225.167 598.3)">hexose_catabolic_process:1</text>
<text xml:space="preserve" x="231.167" y="598.3" font-family="Arial" font-size="7" transform="rotate(270 231.167 598.3)">glucose_metabolic_process:1</text>
<text xml:space="preserve" x="237.167" y="598.3" font-family="Arial" font-size="7" transform="rotate(270 237.167 598.3)">monosaccharide_catabolic_process:1</text>
<text xml:space="preserve" x="243.167" y="598.3" font-family="Arial" font-size="7" transform="rotate(270 243.167 598.3)">carbohydrate_metabolic_process:1</text>
<text xml:space="preserve" x="249.167" y="598.3" font-family="Arial" font-size="7" transform="rotate(270 249.167 598.3)">carbohydrate_catabolic_process:1</text>
<text xml:space="preserve" x="255.167" y="598.3" font-family="Arial" font-size="7" transform="rotate(270 255.167 598.3)">phosphorus_metabolic_process:1</text>
<text xml:space="preserve" x="261.167" y="598.3" font-family="Arial" font-size="7" transform="rotate(270 261.167 598.3)">phosphate-containing_compound_metabolic_process:1</text>
<text xml:space="preserve" x="270.167" y="598.3" font-family="Arial" font-size="7" transform="rotate(270 270.167 598.3)">Gmeb2_nca:2</text>
<text xml:space="preserve" x="276.167" y="598.3" font-family="Arial" font-size="7" transform="rotate(270 276.167 598.3)">Nr6a1_nca:2</text>
<text xml:space="preserve" x="282.167" y="598.3" font-family="Arial" font-size="7" transform="rotate(270 282.167 598.3)">Atf2_nca:2</text>
<text xml:space="preserve" x="288.167" y="598.3" font-family="Arial" font-size="7" transform="rotate(270 288.167 598.3)">Id1_nca:2</text>
<text xml:space="preserve" x="294.167" y="598.3" font-family="Arial" font-size="7" transform="rotate(270 294.167 598.3)">Mbd2_nca:2</text>
<text xml:space="preserve" x="300.167" y="598.3" font-family="Arial" font-size="7" transform="rotate(270 300.167 598.3)">Rfx1_nca:2</text>
<text xml:space="preserve" x="309.167" y="598.3" font-family="Arial" font-size="7" transform="rotate(270 309.167 598.3)">C2</text>
<text xml:space="preserve" x="315.167" y="598.3" font-family="Arial" font-size="7" transform="rotate(270 315.167 598.3)">C7</text>
<text xml:space="preserve" x="321.167" y="598.3" font-family="Arial" font-size="7" transform="rotate(270 321.167 598.3)">C3</text>
<text xml:space="preserve" x="327.167" y="598.3" font-family="Arial" font-size="7" transform="rotate(270 327.167 598.3)">C5</text>
<text xml:space="preserve" x="333.167" y="598.3" font-family="Arial" font-size="7" transform="rotate(270 333.167 598.3)">C12</text>
<text xml:space="preserve" x="339.167" y="598.3" font-family="Arial" font-size="7" transform="rotate(270 339.167 598.3)">C13</text>
<text xml:space="preserve" x="345.167" y="598.3" font-family="Arial" font-size="7" transform="rotate(270 345.167 598.3)">C14</text>
<text xml:space="preserve" x="351.167" y="598.3" font-family="Arial" font-size="7" transform="rotate(270 351.167 598.3)">C11</text>
<text xml:space="preserve" x="357.167" y="598.3" font-family="Arial" font-size="7" transform="rotate(270 357.167 598.3)">C4</text>
<text xml:space="preserve" x="363.167" y="598.3" font-family="Arial" font-size="7" transform="rotate(270 363.167 598.3)">C8</text>
<text xml:space="preserve" x="369.167" y="598.3" font-family="Arial" font-size="7" transform="rotate(270 369.167 598.3)">C6</text>
<text xml:space="preserve" x="375.167" y="598.3" font-family="Arial" font-size="7" transform="rotate(270 375.167 598.3)">C10</text>
<text xml:space="preserve" x="381.167" y="598.3" font-family="Arial" font-size="7" transform="rotate(270 381.167 598.3)">C9</text>
<text xml:space="preserve" x="387.167" y="598.3" font-family="Arial" font-size="7" transform="rotate(270 387.167 598.3)">C1</text>
<polygon points="153.5,602.3 159.5,602.3 159.5,608.3 153.5,608.3" fill="rgb(255,255,255)"/>
<polygon points="159.5,602.3 165.5,602.3 165.5,608.3 159.5,608.3" fill="rgb(255,255,255)"/>
<polygon points="165.5,602.3 171.5,602.3 171.5,608.3 165.5,608.3" fill="rgb(255,255,255)"/>
<polygon points="171.5,602.3 177.5,602.3 177.5,608.3 171.5,608.3" fill="rgb(255,255,255)"/>
<polygon points="177.5,602.3 183.5,602.3 183.5,608.3 177.5,608.3" fill="rgb(255,255,255)"/>
<polygon points="183.5,602.3 189.5,602.3 189.5,608.3 183.5,608.3" fill="rgb(255,255,255)"/>
<polygon points="189.5,602.3 195.5,602.3 195.5,608.3 189.5,608.3" fill="rgb(255,255,255)"/>
<polygon points="195.5,602.3 201.5,602.3 201.5,608.3 195.5,608.3" fill="rgb(255,255,255)"/>
<polygon points="201.5,602.3 207.5,602.3 207.5,608.3 201.5,608.3" fill="rgb(255,255,255)"/>
<polygon points="207.5,602.3 213.5,602.3 213.5,608.3 207.5,608.3" fill="rgb(255,255,255)"/>
<polygon points="213.5,602.3 219.5,602.3 219.5,608.3 213.5,608.3" fill="rgb(255,255,255)"/>
<polygon points="219.5,602.3 225.5,602.3 225.5,608.3 219.5,608.3" fill="rgb(255,255,255)"/>
<polygon points="225.5,602.3 231.5,602.3 231.5,608.3 225.5,608.3" fill="rgb(255,255,255)"/>
<polygon points="231.5,602.3 237.5,602.3 237.5,608.3 231.5,608.3" fill="rgb(255,255,255)"/>
<polygon points="237.5,602.3 243.5,602.3 243.5,608.3 237.5,608.3" fill="rgb(255,255,255)"/>
<polygon points="243.5,602.3 249.5,602.3 249.5,608.3 243.5,608.3" fill="rgb(255,255,255)"/>
<polygon points="249.5,602.3 255.5,602.3 255.5,608.3 249.5,608.3" fill="rgb(255,255,255)"/>
<polygon points="255.5,602.3 261.5,602.3 261.5,608.3 255.5,608.3" fill="rgb(255,255,255)"/>
<polygon points="264.5,602.3 270.5,602.3 270.5,608.3 264.5,608.3" fill="rgb(0,255,255)"/>
<polygon points="270.5,602.3 276.5,602.3 276.5,608.3 270.5,608.3" fill="rgb(255,255,255)"/>
<polygon points="276.5,602.3 282.5,602.3 282.5,608.3 276.5,608.3" fill="rgb(255,255,255)"/>
<polygon points="282.5,602.3 288.5,602.3 288.5,608.3 282.5,608.3" fill="rgb(255,255,255)"/>
<polygon points="288.5,602.3 294.5,602.3 294.5,608.3 288.5,608.3" fill="rgb(255,255,255)"/>
<polygon points="294.5,602.3 300.5,602.3 300.5,608.3 294.5,608.3" fill="rgb(0,255,255)"/>
<polygon points="303.5,602.3 309.5,602.3 309.5,608.3 303.5,608.3" fill="rgb(255,111,111)"/>
<polygon points="309.5,602.3 315.5,602.3 315.5,608.3 309.5,608.3" fill="rgb(255,119,119)"/>
<polygon points="315.5,602.3 321.5,602.3 321.5,608.3 315.5,608.3" fill="rgb(255,84,84)"/>
<polygon points="321.5,602.3 327.5,602.3 327.5,608.3 321.5,608.3" fill="rgb(255,122,122)"/>
<polygon points="327.5,602.3 333.5,602.3 333.5,608.3 327.5,608.3" fill="rgb(255,126,126)"/>
<polygon points="333.5,602.3 339.5,602.3 339.5,608.3 333.5,608.3" fill="rgb(255,180,180)"/>
<polygon points="339.5,602.3 345.5,602.3 345.5,608.3 339.5,608.3" fill="rgb(255,182,182)"/>
<polygon points="345.5,602.3 351.5,602.3 351.5,608.3 345.5,608.3" fill="rgb(255,137,137)"/>
<polygon points="351.5,602.3 357.5,602.3 357.5,608.3 351.5,608.3" fill="rgb(255,167,167)"/>
<polygon points="357.5,602.3 363.5,602.3 363.5,608.3 357.5,608.3" fill="rgb(255,63,63)"/>
<polygon points="363.5,602.3 369.5,602.3 369.5,608.3 363.5,608.3" fill="rgb(255,79,79)"/>
<polygon points="369.5,602.3 375.5,602.3 375.5,608.3 369.5,608.3" fill="rgb(255,124,124)"/>
<polygon points="375.5,602.3 381.5,602.3 381.5,608.3 375.5,608.3" fill="rgb(255,49,49)"/>
<polygon points="381.5,602.3 387.5,602.3 387.5,608.3 381.5,608.3" fill="rgb(255,111,111)"/>
<polygon points="153.5,608.3 159.5,608.3 159.5,614.3 153.5,614.3" fill="rgb(255,255,255)"/>
<polygon points="159.5,608.3 165.5,608.3 165.5,614.3 159.5,614.3" fill="rgb(255,255,255)"/>
<polygon points="165.5,608.3 171.5,608.3 171.5,614.3 165.5,614.3" fill="rgb(255,255,255)"/>
<polygon points="171.5,608.3 177.5,608.3 177.5,614.3 171.5,614.3" fill="rgb(255,255,255)"/>
<polygon points="177.5,608.3 183.5,608.3 183.5,614.3 177.5,614.3" fill="rgb(255,255,255)"/>
<polygon points="183.5,608.3 189.5,608.3 189.5,614.3 183.5,614.3" fill="rgb(128,0,128)"/>
<polygon points="189.5,608.3 195.5,608.3 195.5,614.3 189.5,614.3" fill="rgb(128,0,128)"/>
<polygon points="195.5,608.3 201.5,608.3 201.5,614.3 195.5,614.3" fill="rgb(128,0,128)"/>
<polygon points="201.5,608.3 207.5,608.3 207.5,614.3 201.5,614.3" fill="rgb(128,0,128)"/>
<polygon points="207.5,608.3 213.5,608.3 213.5,614.3 207.5,614.3" fill="rgb(128,0,128)"/>
<polygon points="213.5,608.3 219.5,608.3 219.5,614.3 213.5,614.3" fill="rgb(128,0,128)"/>
<polygon points="219.5,608.3 225.5,608.3 225.5,614.3 219.5,614.3" fill="rgb(128,0,128)"/>
<polygon points="225.5,608.3 231.5,608.3 231.5,614.3 225.5,614.3" fill="rgb(128,0,128)"/>
<polygon points="231.5,608.3 237.5,608.3 237.5,614.3 231.5,614.3" fill="rgb(128,0,128)"/>
<polygon points="237.5,608.3 243.5,608.3 243.5,614.3 237.5,614.3" fill="rgb(128,0,128)"/>
<polygon points="243.5,608.3 249.5,608.3 249.5,614.3 243.5,614.3" fill="rgb(128,0,128)"/>
<polygon points="249.5,608.3 255.5,608.3 255.5,614.3 249.5,614.3" fill="rgb(128,0,128)"/>
<polygon points="255.5,608.3 261.5,608.3 261.5,614.3 255.5,614.3" fill="rgb(128,0,128)"/>
<polygon points="264.5,608.3 270.5,608.3 270.5,614.3 264.5,614.3" fill="rgb(0,255,255)"/>
<polygon points="270.5,608.3 276.5,608.3 276.5,614.3 270.5,614.3" fill="rgb(0,255,255)"/>
<polygon points="276.5,608.3 282.5,608.3 282.5,614.3 276.5,614.3" fill="rgb(0,255,255)"/>
<polygon points="282.5,608.3 288.5,608.3 288.5,614.3 282.5,614.3" fill="rgb(255,255,255)"/>
<polygon points="288.5,608.3 294.5,608.3 294.5,614.3 288.5,614.3" fill="rgb(255,255,255)"/>
<polygon points="294.5,608.3 300.5,608.3 300.5,614.3 294.5,614.3" fill="rgb(255,255,255)"/>
<polygon points="303.5,608.3 309.5,608.3 309.5,614.3 303.5,614.3" fill="rgb(255,162,162)"/>
<polygon points="309.5,608.3 315.5,608.3 315.5,614.3 309.5,614.3" fill="rgb(255,159,159)"/>
<polygon points="315.5,608.3 321.5,608.3 321.5,614.3 315.5,614.3" fill="rgb(255,134,134)"/>
<polygon points="321.5,608.3 327.5,608.3 327.5,614.3 321.5,614.3" fill="rgb(255,161,161)"/>
<polygon points="327.5,608.3 333.5,608.3 333.5,614.3 327.5,614.3" fill="rgb(255,192,192)"/>
<polygon points="333.5,608.3 339.5,608.3 339.5,614.3 333.5,614.3" fill="rgb(255,226,226)"/>
<polygon points="339.5,608.3 345.5,608.3 345.5,614.3 339.5,614.3" fill="rgb(255,232,232)"/>
<polygon points="345.5,608.3 351.5,608.3 351.5,614.3 345.5,614.3" fill="rgb(255,194,194)"/>
<polygon points="351.5,608.3 357.5,608.3 357.5,614.3 351.5,614.3" fill="rgb(255,230,230)"/>
<polygon points="357.5,608.3 363.5,608.3 363.5,614.3 357.5,614.3" fill="rgb(255,156,156)"/>
<polygon points="363.5,608.3 369.5,608.3 369.5,614.3 363.5,614.3" fill="rgb(255,148,148)"/>
<polygon points="369.5,608.3 375.5,608.3 375.5,614.3 369.5,614.3" fill="rgb(255,207,207)"/>
<polygon points="375.5,608.3 381.5,608.3 381.5,614.3 375.5,614.3" fill="rgb(255,142,142)"/>
<polygon points="381.5,608.3 387.5,608.3 387.5,614.3 381.5,614.3" fill="rgb(255,178,178)"/>
<polygon points="153.5,614.3 159.5,614.3 159.5,620.3 153.5,620.3" fill="rgb(128,0,128)"/>
<polygon points="159.5,614.3 165.5,614.3 165.5,620.3 159.5,620.3" fill="rgb(128,0,128)"/>
<polygon points="165.5,614.3 171.5,614.3 171.5,620.3 165.5,620.3" fill="rgb(128,0,128)"/>
<polygon points="171.5,614.3 177.5,614.3 177.5,620.3 171.5,620.3" fill="rgb(128,0,128)"/>
<polygon points="177.5,614.3 183.5,614.3 183.5,620.3 177.5,620.3" fill="rgb(128,0,128)"/>
<polygon points="183.5,614.3 189.5,614.3 189.5,620.3 183.5,620.3" fill="rgb(128,0,128)"/>
<polygon points="189.5,614.3 195.5,614.3 195.5,620.3 189.5,620.3" fill="rgb(128,0,128)"/>
<polygon points="195.5,614.3 201.5,614.3 201.5,620.3 195.5,620.3" fill="rgb(128,0,128)"/>
<polygon points="201.5,614.3 207.5,614.3 207.5,620.3 201.5,620.3" fill="rgb(128,0,128)"/>
<polygon points="207.5,614.3 213.5,614.3 213.5,620.3 207.5,620.3" fill="rgb(128,0,128)"/>
<polygon points="213.5,614.3 219.5,614.3 219.5,620.3 213.5,620.3" fill="rgb(128,0,128)"/>
<polygon points="219.5,614.3 225.5,614.3 225.5,620.3 219.5,620.3" fill="rgb(128,0,128)"/>
<polygon points="225.5,614.3 231.5,614.3 231.5,620.3 225.5,620.3" fill="rgb(128,0,128)"/>
<polygon points="231.5,614.3 237.5,614.3 237.5,620.3 231.5,620.3" fill="rgb(128,0,128)"/>
<polygon points="237.5,614.3 243.5,614.3 243.5,620.3 237.5,620.3" fill="rgb(128,0,128)"/>
<polygon points="243.5,614.3 249.5,614.3 249.5,620.3 243.5,620.3" fill="rgb(128,0,128)"/>
<polygon points="249.5,614.3 255.5,614.3 255.5,620.3 249.5,620.3" fill="rgb(128,0,128)"/>
<polygon points="255.5,614.3 261.5,614.3 261.5,620.3 255.5,620.3" fill="rgb(128,0,128)"/>
<polygon points="264.5,614.3 270.5,614.3 270.5,620.3 264.5,620.3" fill="rgb(0,255,255)"/>
<polygon points="270.5,614.3 276.5,614.3 276.5,620.3 270.5,620.3" fill="rgb(0,255,255)"/>
<polygon points="276.5,614.3 282.5,614.3 282.5,620.3 276.5,620.3" fill="rgb(0,255,255)"/>
<polygon points="282.5,614.3 288.5,614.3 288.5,620.3 282.5,620.3" fill="rgb(0,255,255)"/>
<polygon points="288.5,614.3 294.5,614.3 294.5,620.3 288.5,620.3" fill="rgb(0,255,255)"/>
<polygon points="294.5,614.3 300.5,614.3 300.5,620.3 294.5,620.3" fill="rgb(0,255,255)"/>
<polygon points="303.5,614.3 309.5,614.3 309.5,620.3 303.5,620.3" fill="rgb(247,0,0)"/>
<polygon points="309.5,614.3 315.5,614.3 315.5,620.3 309.5,620.3" fill="rgb(255,15,15)"/>
<polygon points="315.5,614.3 321.5,614.3 321.5,620.3 315.5,620.3" fill="rgb(239,0,0)"/>
<polygon points="321.5,614.3 327.5,614.3 327.5,620.3 321.5,620.3" fill="rgb(253,0,0)"/>
<polygon points="327.5,614.3 333.5,614.3 333.5,620.3 327.5,620.3" fill="rgb(244,0,0)"/>
<polygon points="333.5,614.3 339.5,614.3 339.5,620.3 333.5,620.3" fill="rgb(255,11,11)"/>
<polygon points="339.5,614.3 345.5,614.3 345.5,620.3 339.5,620.3" fill="rgb(255,37,37)"/>
<polygon points="345.5,614.3 351.5,614.3 351.5,620.3 345.5,620.3" fill="rgb(252,0,0)"/>
<polygon points="351.5,614.3 357.5,614.3 357.5,620.3 351.5,620.3" fill="rgb(255,36,36)"/>
<polygon points="357.5,614.3 363.5,614.3 363.5,620.3 357.5,620.3" fill="rgb(224,0,0)"/>
<polygon points="363.5,614.3 369.5,614.3 369.5,620.3 363.5,620.3" fill="rgb(234,0,0)"/>
<polygon points="369.5,614.3 375.5,614.3 375.5,620.3 369.5,620.3" fill="rgb(251,0,0)"/>
<polygon points="375.5,614.3 381.5,614.3 381.5,620.3 375.5,620.3" fill="rgb(173,0,0)"/>
<polygon points="381.5,614.3 387.5,614.3 387.5,620.3 381.5,620.3" fill="rgb(215,0,0)"/>
<polygon points="153.5,620.3 159.5,620.3 159.5,626.3 153.5,626.3" fill="rgb(128,0,128)"/>
<polygon points="159.5,620.3 165.5,620.3 165.5,626.3 159.5,626.3" fill="rgb(128,0,128)"/>
<polygon points="165.5,620.3 171.5,620.3 171.5,626.3 165.5,626.3" fill="rgb(128,0,128)"/>
<polygon points="171.5,620.3 177.5,620.3 177.5,626.3 171.5,626.3" fill="rgb(128,0,128)"/>
<polygon points="177.5,620.3 183.5,620.3 183.5,626.3 177.5,626.3" fill="rgb(128,0,128)"/>
<polygon points="183.5,620.3 189.5,620.3 189.5,626.3 183.5,626.3" fill="rgb(128,0,128)"/>
<polygon points="189.5,620.3 195.5,620.3 195.5,626.3 189.5,626.3" fill="rgb(128,0,128)"/>
<polygon points="195.5,620.3 201.5,620.3 201.5,626.3 195.5,626.3" fill="rgb(128,0,128)"/>
<polygon points="201.5,620.3 207.5,620.3 207.5,626.3 201.5,626.3" fill="rgb(128,0,128)"/>
<polygon points="207.5,620.3 213.5,620.3 213.5,626.3 207.5,626.3" fill="rgb(128,0,128)"/>
<polygon points="213.5,620.3 219.5,620.3 219.5,626.3 213.5,626.3" fill="rgb(128,0,128)"/>
<polygon points="219.5,620.3 225.5,620.3 225.5,626.3 219.5,626.3" fill="rgb(128,0,128)"/>
<polygon points="225.5,620.3 231.5,620.3 231.5,626.3 225.5,626.3" fill="rgb(128,0,128)"/>
<polygon points="231.5,620.3 237.5,620.3 237.5,626.3 231.5,626.3" fill="rgb(128,0,128)"/>
<polygon points="237.5,620.3 243.5,620.3 243.5,626.3 237.5,626.3" fill="rgb(128,0,128)"/>
<polygon points="243.5,620.3 249.5,620.3 249.5,626.3 243.5,626.3" fill="rgb(128,0,128)"/>
<polygon points="249.5,620.3 255.5,620.3 255.5,626.3 249.5,626.3" fill="rgb(255,255,255)"/>
<polygon points="255.5,620.3 261.5,620.3 261.5,626.3 255.5,626.3" fill="rgb(255,255,255)"/>
<polygon points="264.5,620.3 270.5,620.3 270.5,626.3 264.5,626.3" fill="rgb(0,255,255)"/>
<polygon points="270.5,620.3 276.5,620.3 276.5,626.3 270.5,626.3" fill="rgb(0,255,255)"/>
<polygon points="276.5,620.3 282.5,620.3 282.5,626.3 276.5,626.3" fill="rgb(0,255,255)"/>
<polygon points="282.5,620.3 288.5,620.3 288.5,626.3 282.5,626.3" fill="rgb(0,255,255)"/>
<polygon points="288.5,620.3 294.5,620.3 294.5,626.3 288.5,626.3" fill="rgb(0,255,255)"/>
<polygon points="294.5,620.3 300.5,620.3 300.5,626.3 294.5,626.3" fill="rgb(0,255,255)"/>
<polygon points="303.5,620.3 309.5,620.3 309.5,626.3 303.5,626.3" fill="rgb(215,0,0)"/>
<polygon points="309.5,620.3 315.5,620.3 315.5,626.3 309.5,626.3" fill="rgb(219,0,0)"/>
<polygon points="315.5,620.3 321.5,620.3 321.5,626.3 315.5,626.3" fill="rgb(206,0,0)"/>
<polygon points="321.5,620.3 327.5,620.3 327.5,626.3 321.5,626.3" fill="rgb(207,0,0)"/>
<polygon points="327.5,620.3 333.5,620.3 333.5,626.3 327.5,626.3" fill="rgb(229,0,0)"/>
<polygon points="333.5,620.3 339.5,620.3 339.5,626.3 333.5,626.3" fill="rgb(255,19,19)"/>
<polygon points="339.5,620.3 345.5,620.3 345.5,626.3 339.5,626.3" fill="rgb(255,17,17)"/>
<polygon points="345.5,620.3 351.5,620.3 351.5,626.3 345.5,626.3" fill="rgb(241,0,0)"/>
<polygon points="351.5,620.3 357.5,620.3 357.5,626.3 351.5,626.3" fill="rgb(255,28,28)"/>
<polygon points="357.5,620.3 363.5,620.3 363.5,626.3 357.5,626.3" fill="rgb(223,0,0)"/>
<polygon points="363.5,620.3 369.5,620.3 369.5,626.3 363.5,626.3" fill="rgb(194,0,0)"/>
<polygon points="369.5,620.3 375.5,620.3 375.5,626.3 369.5,626.3" fill="rgb(230,0,0)"/>
<polygon points="375.5,620.3 381.5,620.3 381.5,626.3 375.5,626.3" fill="rgb(178,0,0)"/>
<polygon points="381.5,620.3 387.5,620.3 387.5,626.3 381.5,626.3" fill="rgb(216,0,0)"/>
<polygon points="153.5,626.3 159.5,626.3 159.5,632.3 153.5,632.3" fill="rgb(128,0,128)"/>
<polygon points="159.5,626.3 165.5,626.3 165.5,632.3 159.5,632.3" fill="rgb(128,0,128)"/>
<polygon points="165.5,626.3 171.5,626.3 171.5,632.3 165.5,632.3" fill="rgb(128,0,128)"/>
<polygon points="171.5,626.3 177.5,626.3 177.5,632.3 171.5,632.3" fill="rgb(128,0,128)"/>
<polygon points="177.5,626.3 183.5,626.3 183.5,632.3 177.5,632.3" fill="rgb(128,0,128)"/>
<polygon points="183.5,626.3 189.5,626.3 189.5,632.3 183.5,632.3" fill="rgb(128,0,128)"/>
<polygon points="189.5,626.3 195.5,626.3 195.5,632.3 189.5,632.3" fill="rgb(128,0,128)"/>
<polygon points="195.5,626.3 201.5,626.3 201.5,632.3 195.5,632.3" fill="rgb(128,0,128)"/>
<polygon points="201.5,626.3 207.5,626.3 207.5,632.3 201.5,632.3" fill="rgb(128,0,128)"/>
<polygon points="207.5,626.3 213.5,626.3 213.5,632.3 207.5,632.3" fill="rgb(128,0,128)"/>
<polygon points="213.5,626.3 219.5,626.3 219.5,632.3 213.5,632.3" fill="rgb(128,0,128)"/>
<polygon points="219.5,626.3 225.5,626.3 225.5,632.3 219.5,632.3" fill="rgb(128,0,128)"/>
<polygon points="225.5,626.3 231.5,626.3 231.5,632.3 225.5,632.3" fill="rgb(128,0,128)"/>
<polygon points="231.5,626.3 237.5,626.3 237.5,632.3 231.5,632.3" fill="rgb(128,0,128)"/>
<polygon points="237.5,626.3 243.5,626.3 243.5,632.3 237.5,632.3" fill="rgb(128,0,128)"/>
<polygon points="243.5,626.3 249.5,626.3 249.5,632.3 243.5,632.3" fill="rgb(128,0,128)"/>
<polygon points="249.5,626.3 255.5,626.3 255.5,632.3 249.5,632.3" fill="rgb(128,0,128)"/>
<polygon points="255.5,626.3 261.5,626.3 261.5,632.3 255.5,632.3" fill="rgb(128,0,128)"/>
<polygon points="264.5,626.3 270.5,626.3 270.5,632.3 264.5,632.3" fill="rgb(255,255,255)"/>
<polygon points="270.5,626.3 276.5,626.3 276.5,632.3 270.5,632.3" fill="rgb(255,255,255)"/>
<polygon points="276.5,626.3 282.5,626.3 282.5,632.3 276.5,632.3" fill="rgb(0,255,255)"/>
<polygon points="282.5,626.3 288.5,626.3 288.5,632.3 282.5,632.3" fill="rgb(0,255,255)"/>
<polygon points="288.5,626.3 294.5,626.3 294.5,632.3 288.5,632.3" fill="rgb(0,255,255)"/>
<polygon points="294.5,626.3 300.5,626.3 300.5,632.3 294.5,632.3" fill="rgb(0,255,255)"/>
<polygon points="303.5,626.3 309.5,626.3 309.5,632.3 303.5,632.3" fill="rgb(228,0,0)"/>
<polygon points="309.5,626.3 315.5,626.3 315.5,632.3 309.5,632.3" fill="rgb(232,0,0)"/>
<polygon points="315.5,626.3 321.5,626.3 321.5,632.3 315.5,632.3" fill="rgb(236,0,0)"/>
<polygon points="321.5,626.3 327.5,626.3 327.5,632.3 321.5,632.3" fill="rgb(207,0,0)"/>
<polygon points="327.5,626.3 333.5,626.3 333.5,632.3 327.5,632.3" fill="rgb(251,0,0)"/>
<polygon points="333.5,626.3 339.5,626.3 339.5,632.3 333.5,632.3" fill="rgb(255,58,58)"/>
<polygon points="339.5,626.3 345.5,626.3 345.5,632.3 339.5,632.3" fill="rgb(255,27,27)"/>
<polygon points="345.5,626.3 351.5,626.3 351.5,632.3 345.5,632.3" fill="rgb(245,0,0)"/>
<polygon points="351.5,626.3 357.5,626.3 357.5,632.3 351.5,632.3" fill="rgb(255,58,58)"/>
<polygon points="357.5,626.3 363.5,626.3 363.5,632.3 357.5,632.3" fill="rgb(203,0,0)"/>
<polygon points="363.5,626.3 369.5,626.3 369.5,632.3 363.5,632.3" fill="rgb(190,0,0)"/>
<polygon points="369.5,626.3 375.5,626.3 375.5,632.3 369.5,632.3" fill="rgb(242,0,0)"/>
<polygon points="375.5,626.3 381.5,626.3 381.5,632.3 375.5,632.3" fill="rgb(174,0,0)"/>
<polygon points="381.5,626.3 387.5,626.3 387.5,632.3 381.5,632.3" fill="rgb(203,0,0)"/>
<polygon points="153.5,635.3 159.5,635.3 159.5,641.3 153.5,641.3" fill="rgb(255,255,255)"/>
<polygon points="159.5,635.3 165.5,635.3 165.5,641.3 159.5,641.3" fill="rgb(255,255,255)"/>
<polygon points="165.5,635.3 171.5,635.3 171.5,641.3 165.5,641.3" fill="rgb(255,255,255)"/>
<polygon points="171.5,635.3 177.5,635.3 177.5,641.3 171.5,641.3" fill="rgb(255,255,255)"/>
<polygon points="177.5,635.3 183.5,635.3 183.5,641.3 177.5,641.3" fill="rgb(255,255,255)"/>
<polygon points="183.5,635.3 189.5,635.3 189.5,641.3 183.5,641.3" fill="rgb(255,255,255)"/>
<polygon points="189.5,635.3 195.5,635.3 195.5,641.3 189.5,641.3" fill="rgb(255,255,255)"/>
<polygon points="195.5,635.3 201.5,635.3 201.5,641.3 195.5,641.3" fill="rgb(255,255,255)"/>
<polygon points="201.5,635.3 207.5,635.3 207.5,641.3 201.5,641.3" fill="rgb(255,255,255)"/>
<polygon points="207.5,635.3 213.5,635.3 213.5,641.3 207.5,641.3" fill="rgb(255,255,255)"/>
<polygon points="213.5,635.3 219.5,635.3 219.5,641.3 213.5,641.3" fill="rgb(255,255,255)"/>
<polygon points="219.5,635.3 225.5,635.3 225.5,641.3 219.5,641.3" fill="rgb(255,255,255)"/>
<polygon points="225.5,635.3 231.5,635.3 231.5,641.3 225.5,641.3" fill="rgb(255,255,255)"/>
<polygon points="231.5,635.3 237.5,635.3 237.5,641.3 231.5,641.3" fill="rgb(255,255,255)"/>
<polygon points="237.5,635.3 243.5,635.3 243.5,641.3 237.5,641.3" fill="rgb(255,255,255)"/>
<polygon points="243.5,635.3 249.5,635.3 249.5,641.3 243.5,641.3" fill="rgb(255,255,255)"/>
<polygon points="249.5,635.3 255.5,635.3 255.5,641.3 249.5,641.3" fill="rgb(255,255,255)"/>
<polygon points="255.5,635.3 261.5,635.3 261.5,641.3 255.5,641.3" fill="rgb(255,255,255)"/>
<polygon points="264.5,635.3 270.5,635.3 270.5,641.3 264.5,641.3" fill="rgb(255,255,255)"/>
<polygon points="270.5,635.3 276.5,635.3 276.5,641.3 270.5,641.3" fill="rgb(255,255,255)"/>
<polygon points="276.5,635.3 282.5,635.3 282.5,641.3 276.5,641.3" fill="rgb(255,255,255)"/>
<polygon points="282.5,635.3 288.5,635.3 288.5,641.3 282.5,641.3" fill="rgb(255,255,255)"/>
<polygon points="288.5,635.3 294.5,635.3 294.5,641.3 288.5,641.3" fill="rgb(255,255,255)"/>
<polygon points="294.5,635.3 300.5,635.3 300.5,641.3 294.5,641.3" fill="rgb(255,255,255)"/>
<polygon points="303.5,635.3 309.5,635.3 309.5,641.3 303.5,641.3" fill="rgb(255,208,208)"/>
<polygon points="309.5,635.3 315.5,635.3 315.5,641.3 309.5,641.3" fill="rgb(255,197,197)"/>
<polygon points="315.5,635.3 321.5,635.3 321.5,641.3 315.5,641.3" fill="rgb(255,226,226)"/>
<polygon points="321.5,635.3 327.5,635.3 327.5,641.3 321.5,641.3" fill="rgb(255,219,219)"/>
<polygon points="327.5,635.3 333.5,635.3 333.5,641.3 327.5,641.3" fill="rgb(0,0,255)"/>
<polygon points="333.5,635.3 339.5,635.3 339.5,641.3 333.5,641.3" fill="rgb(0,0,255)"/>
<polygon points="339.5,635.3 345.5,635.3 345.5,641.3 339.5,641.3" fill="rgb(0,0,255)"/>
<polygon points="345.5,635.3 351.5,635.3 351.5,641.3 345.5,641.3" fill="rgb(0,0,255)"/>
<polygon points="351.5,635.3 357.5,635.3 357.5,641.3 351.5,641.3" fill="rgb(0,0,255)"/>
<polygon points="357.5,635.3 363.5,635.3 363.5,641.3 357.5,641.3" fill="rgb(0,0,255)"/>
<polygon points="363.5,635.3 369.5,635.3 369.5,641.3 363.5,641.3" fill="rgb(248,248,255)"/>
<polygon points="369.5,635.3 375.5,635.3 375.5,641.3 369.5,641.3" fill="rgb(0,0,255)"/>
<polygon points="375.5,635.3 381.5,635.3 381.5,641.3 375.5,641.3" fill="rgb(0,0,255)"/>
<polygon points="381.5,635.3 387.5,635.3 387.5,641.3 381.5,641.3" fill="rgb(129,129,255)"/>
<polygon points="153.5,641.3 159.5,641.3 159.5,647.3 153.5,647.3" fill="rgb(255,255,255)"/>
<polygon points="159.5,641.3 165.5,641.3 165.5,647.3 159.5,647.3" fill="rgb(255,255,255)"/>
<polygon points="165.5,641.3 171.5,641.3 171.5,647.3 165.5,647.3" fill="rgb(255,255,255)"/>
<polygon points="171.5,641.3 177.5,641.3 177.5,647.3 171.5,647.3" fill="rgb(255,255,255)"/>
<polygon points="177.5,641.3 183.5,641.3 183.5,647.3 177.5,647.3" fill="rgb(255,255,255)"/>
<polygon points="183.5,641.3 189.5,641.3 189.5,647.3 183.5,647.3" fill="rgb(255,255,255)"/>
<polygon points="189.5,641.3 195.5,641.3 195.5,647.3 189.5,647.3" fill="rgb(255,255,255)"/>
<polygon points="195.5,641.3 201.5,641.3 201.5,647.3 195.5,647.3" fill="rgb(255,255,255)"/>
<polygon points="201.5,641.3 207.5,641.3 207.5,647.3 201.5,647.3" fill="rgb(255,255,255)"/>
<polygon points="207.5,641.3 213.5,641.3 213.5,647.3 207.5,647.3" fill="rgb(255,255,255)"/>
<polygon points="213.5,641.3 219.5,641.3 219.5,647.3 213.5,647.3" fill="rgb(255,255,255)"/>
<polygon points="219.5,641.3 225.5,641.3 225.5,647.3 219.5,647.3" fill="rgb(255,255,255)"/>
<polygon points="225.5,641.3 231.5,641.3 231.5,647.3 225.5,647.3" fill="rgb(255,255,255)"/>
<polygon points="231.5,641.3 237.5,641.3 237.5,647.3 231.5,647.3" fill="rgb(255,255,255)"/>
<polygon points="237.5,641.3 243.5,641.3 243.5,647.3 237.5,647.3" fill="rgb(255,255,255)"/>
<polygon points="243.5,641.3 249.5,641.3 249.5,647.3 243.5,647.3" fill="rgb(255,255,255)"/>
<polygon points="249.5,641.3 255.5,641.3 255.5,647.3 249.5,647.3" fill="rgb(255,255,255)"/>
<polygon points="255.5,641.3 261.5,641.3 261.5,647.3 255.5,647.3" fill="rgb(255,255,255)"/>
<polygon points="264.5,641.3 270.5,641.3 270.5,647.3 264.5,647.3" fill="rgb(255,255,255)"/>
<polygon points="270.5,641.3 276.5,641.3 276.5,647.3 270.5,647.3" fill="rgb(255,255,255)"/>
<polygon points="276.5,641.3 282.5,641.3 282.5,647.3 276.5,647.3" fill="rgb(255,255,255)"/>
<polygon points="282.5,641.3 288.5,641.3 288.5,647.3 282.5,647.3" fill="rgb(255,255,255)"/>
<polygon points="288.5,641.3 294.5,641.3 294.5,647.3 288.5,647.3" fill="rgb(255,255,255)"/>
<polygon points="294.5,641.3 300.5,641.3 300.5,647.3 294.5,647.3" fill="rgb(255,255,255)"/>
<polygon points="303.5,641.3 309.5,641.3 309.5,647.3 303.5,647.3" fill="rgb(0,0,255)"/>
<polygon points="309.5,641.3 315.5,641.3 315.5,647.3 309.5,647.3" fill="rgb(0,0,255)"/>
<polygon points="315.5,641.3 321.5,641.3 321.5,647.3 315.5,647.3" fill="rgb(255,230,230)"/>
<polygon points="321.5,641.3 327.5,641.3 327.5,647.3 321.5,647.3" fill="rgb(255,251,251)"/>
<polygon points="327.5,641.3 333.5,641.3 333.5,647.3 327.5,647.3" fill="rgb(115,115,255)"/>
<polygon points="333.5,641.3 339.5,641.3 339.5,647.3 333.5,647.3" fill="rgb(0,0,255)"/>
<polygon points="339.5,641.3 345.5,641.3 345.5,647.3 339.5,647.3" fill="rgb(254,238,238)"/>
<polygon points="345.5,641.3 351.5,641.3 351.5,647.3 345.5,647.3" fill="rgb(212,212,255)"/>
<polygon points="351.5,641.3 357.5,641.3 357.5,647.3 351.5,647.3" fill="rgb(0,0,255)"/>
<polygon points="357.5,641.3 363.5,641.3 363.5,647.3 357.5,647.3" fill="rgb(34,34,255)"/>
<polygon points="363.5,641.3 369.5,641.3 369.5,647.3 363.5,647.3" fill="rgb(255,247,247)"/>
<polygon points="369.5,641.3 375.5,641.3 375.5,647.3 369.5,647.3" fill="rgb(254,199,199)"/>
<polygon points="375.5,641.3 381.5,641.3 381.5,647.3 375.5,647.3" fill="rgb(255,214,214)"/>
<polygon points="381.5,641.3 387.5,641.3 387.5,647.3 381.5,647.3" fill="rgb(255,235,235)"/>
<polygon points="153.5,647.3 159.5,647.3 159.5,653.3 153.5,653.3" fill="rgb(255,255,255)"/>
<polygon points="159.5,647.3 165.5,647.3 165.5,653.3 159.5,653.3" fill="rgb(255,255,255)"/>
<polygon points="165.5,647.3 171.5,647.3 171.5,653.3 165.5,653.3" fill="rgb(255,255,255)"/>
<polygon points="171.5,647.3 177.5,647.3 177.5,653.3 171.5,653.3" fill="rgb(255,255,255)"/>
<polygon points="177.5,647.3 183.5,647.3 183.5,653.3 177.5,653.3" fill="rgb(255,255,255)"/>
<polygon points="183.5,647.3 189.5,647.3 189.5,653.3 183.5,653.3" fill="rgb(255,255,255)"/>
<polygon points="189.5,647.3 195.5,647.3 195.5,653.3 189.5,653.3" fill="rgb(255,255,255)"/>
<polygon points="195.5,647.3 201.5,647.3 201.5,653.3 195.5,653.3" fill="rgb(255,255,255)"/>
<polygon points="201.5,647.3 207.5,647.3 207.5,653.3 201.5,653.3" fill="rgb(255,255,255)"/>
<polygon points="207.5,647.3 213.5,647.3 213.5,653.3 207.5,653.3" fill="rgb(255,255,255)"/>
<polygon points="213.5,647.3 219.5,647.3 219.5,653.3 213.5,653.3" fill="rgb(255,255,255)"/>
<polygon points="219.5,647.3 225.5,647.3 225.5,653.3 219.5,653.3" fill="rgb(255,255,255)"/>
<polygon points="225.5,647.3 231.5,647.3 231.5,653.3 225.5,653.3" fill="rgb(255,255,255)"/>
<polygon points="231.5,647.3 237.5,647.3 237.5,653.3 231.5,653.3" fill="rgb(255,255,255)"/>
<polygon points="237.5,647.3 243.5,647.3 243.5,653.3 237.5,653.3" fill="rgb(255,255,255)"/>
<polygon points="243.5,647.3 249.5,647.3 249.5,653.3 243.5,653.3" fill="rgb(255,255,255)"/>
<polygon points="249.5,647.3 255.5,647.3 255.5,653.3 249.5,653.3" fill="rgb(255,255,255)"/>
<polygon points="255.5,647.3 261.5,647.3 261.5,653.3 255.5,653.3" fill="rgb(255,255,255)"/>
<polygon points="264.5,647.3 270.5,647.3 270.5,653.3 264.5,653.3" fill="rgb(255,255,255)"/>
<polygon points="270.5,647.3 276.5,647.3 276.5,653.3 270.5,653.3" fill="rgb(255,255,255)"/>
<polygon points="276.5,647.3 282.5,647.3 282.5,653.3 276.5,653.3" fill="rgb(255,255,255)"/>
<polygon points="282.5,647.3 288.5,647.3 288.5,653.3 282.5,653.3" fill="rgb(255,255,255)"/>
<polygon points="288.5,647.3 294.5,647.3 294.5,653.3 288.5,653.3" fill="rgb(255,255,255)"/>
<polygon points="294.5,647.3 300.5,647.3 300.5,653.3 294.5,653.3" fill="rgb(255,255,255)"/>
<polygon points="303.5,647.3 309.5,647.3 309.5,653.3 303.5,653.3" fill="rgb(157,157,255)"/>
<polygon points="309.5,647.3 315.5,647.3 315.5,653.3 309.5,653.3" fill="rgb(86,86,255)"/>
<polygon points="315.5,647.3 321.5,647.3 321.5,653.3 315.5,653.3" fill="rgb(116,116,255)"/>
<polygon points="321.5,647.3 327.5,647.3 327.5,653.3 321.5,653.3" fill="rgb(0,0,255)"/>
<polygon points="327.5,647.3 333.5,647.3 333.5,653.3 327.5,653.3" fill="rgb(254,253,253)"/>
<polygon points="333.5,647.3 339.5,647.3 339.5,653.3 333.5,653.3" fill="rgb(0,0,255)"/>
<polygon points="339.5,647.3 345.5,647.3 345.5,653.3 339.5,653.3" fill="rgb(0,0,255)"/>
<polygon points="345.5,647.3 351.5,647.3 351.5,653.3 345.5,653.3" fill="rgb(255,235,235)"/>
<polygon points="351.5,647.3 357.5,647.3 357.5,653.3 351.5,653.3" fill="rgb(177,177,255)"/>
<polygon points="357.5,647.3 363.5,647.3 363.5,653.3 357.5,653.3" fill="rgb(0,0,255)"/>
<polygon points="363.5,647.3 369.5,647.3 369.5,653.3 363.5,653.3" fill="rgb(0,0,255)"/>
<polygon points="369.5,647.3 375.5,647.3 375.5,653.3 369.5,653.3" fill="rgb(0,0,255)"/>
<polygon points="375.5,647.3 381.5,647.3 381.5,653.3 375.5,653.3" fill="rgb(255,251,251)"/>
<polygon points="381.5,647.3 387.5,647.3 387.5,653.3 381.5,653.3" fill="rgb(0,0,255)"/>
<polygon points="153.5,653.3 159.5,653.3 159.5,659.3 153.5,659.3" fill="rgb(255,255,255)"/>
<polygon points="159.5,653.3 165.5,653.3 165.5,659.3 159.5,659.3" fill="rgb(255,255,255)"/>
<polygon points="165.5,653.3 171.5,653.3 171.5,659.3 165.5,659.3" fill="rgb(255,255,255)"/>
<polygon points="171.5,653.3 177.5,653.3 177.5,659.3 171.5,659.3" fill="rgb(255,255,255)"/>
<polygon points="177.5,653.3 183.5,653.3 183.5,659.3 177.5,659.3" fill="rgb(255,255,255)"/>
<polygon points="183.5,653.3 189.5,653.3 189.5,659.3 183.5,659.3" fill="rgb(255,255,255)"/>
<polygon points="189.5,653.3 195.5,653.3 195.5,659.3 189.5,659.3" fill="rgb(255,255,255)"/>
<polygon points="195.5,653.3 201.5,653.3 201.5,659.3 195.5,659.3" fill="rgb(255,255,255)"/>
<polygon points="201.5,653.3 207.5,653.3 207.5,659.3 201.5,659.3" fill="rgb(255,255,255)"/>
<polygon points="207.5,653.3 213.5,653.3 213.5,659.3 207.5,659.3" fill="rgb(255,255,255)"/>
<polygon points="213.5,653.3 219.5,653.3 219.5,659.3 213.5,659.3" fill="rgb(255,255,255)"/>
<polygon points="219.5,653.3 225.5,653.3 225.5,659.3 219.5,659.3" fill="rgb(255,255,255)"/>
<polygon points="225.5,653.3 231.5,653.3 231.5,659.3 225.5,659.3" fill="rgb(255,255,255)"/>
<polygon points="231.5,653.3 237.5,653.3 237.5,659.3 231.5,659.3" fill="rgb(255,255,255)"/>
<polygon points="237.5,653.3 243.5,653.3 243.5,659.3 237.5,659.3" fill="rgb(255,255,255)"/>
<polygon points="243.5,653.3 249.5,653.3 249.5,659.3 243.5,659.3" fill="rgb(255,255,255)"/>
<polygon points="249.5,653.3 255.5,653.3 255.5,659.3 249.5,659.3" fill="rgb(255,255,255)"/>
<polygon points="255.5,653.3 261.5,653.3 261.5,659.3 255.5,659.3" fill="rgb(255,255,255)"/>
<polygon points="264.5,653.3 270.5,653.3 270.5,659.3 264.5,659.3" fill="rgb(255,255,255)"/>
<polygon points="270.5,653.3 276.5,653.3 276.5,659.3 270.5,659.3" fill="rgb(255,255,255)"/>
<polygon points="276.5,653.3 282.5,653.3 282.5,659.3 276.5,659.3" fill="rgb(255,255,255)"/>
<polygon points="282.5,653.3 288.5,653.3 288.5,659.3 282.5,659.3" fill="rgb(255,255,255)"/>
<polygon points="288.5,653.3 294.5,653.3 294.5,659.3 288.5,659.3" fill="rgb(255,255,255)"/>
<polygon points="294.5,653.3 300.5,653.3 300.5,659.3 294.5,659.3" fill="rgb(255,255,255)"/>
<polygon points="303.5,653.3 309.5,653.3 309.5,659.3 303.5,659.3" fill="rgb(0,0,255)"/>
<polygon points="309.5,653.3 315.5,653.3 315.5,659.3 309.5,659.3" fill="rgb(0,0,255)"/>
<polygon points="315.5,653.3 321.5,653.3 321.5,659.3 315.5,659.3" fill="rgb(0,0,255)"/>
<polygon points="321.5,653.3 327.5,653.3 327.5,659.3 321.5,659.3" fill="rgb(255,252,252)"/>
<polygon points="327.5,653.3 333.5,653.3 333.5,659.3 327.5,659.3" fill="rgb(0,0,255)"/>
<polygon points="333.5,653.3 339.5,653.3 339.5,659.3 333.5,659.3" fill="rgb(106,106,255)"/>
<polygon points="339.5,653.3 345.5,653.3 345.5,659.3 339.5,659.3" fill="rgb(0,0,255)"/>
<polygon points="345.5,653.3 351.5,653.3 351.5,659.3 345.5,659.3" fill="rgb(0,0,255)"/>
<polygon points="351.5,653.3 357.5,653.3 357.5,659.3 351.5,659.3" fill="rgb(0,0,255)"/>
<polygon points="357.5,653.3 363.5,653.3 363.5,659.3 357.5,659.3" fill="rgb(255,250,250)"/>
<polygon points="363.5,653.3 369.5,653.3 369.5,659.3 363.5,659.3" fill="rgb(254,244,244)"/>
<polygon points="369.5,653.3 375.5,653.3 375.5,659.3 369.5,659.3" fill="rgb(0,0,255)"/>
<polygon points="375.5,653.3 381.5,653.3 381.5,659.3 375.5,659.3" fill="rgb(255,233,233)"/>
<polygon points="381.5,653.3 387.5,653.3 387.5,659.3 381.5,659.3" fill="rgb(255,234,234)"/>
<polygon points="153.5,659.3 159.5,659.3 159.5,665.3 153.5,665.3" fill="rgb(255,255,255)"/>
<polygon points="159.5,659.3 165.5,659.3 165.5,665.3 159.5,665.3" fill="rgb(255,255,255)"/>
<polygon points="165.5,659.3 171.5,659.3 171.5,665.3 165.5,665.3" fill="rgb(255,255,255)"/>
<polygon points="171.5,659.3 177.5,659.3 177.5,665.3 171.5,665.3" fill="rgb(255,255,255)"/>
<polygon points="177.5,659.3 183.5,659.3 183.5,665.3 177.5,665.3" fill="rgb(255,255,255)"/>
<polygon points="183.5,659.3 189.5,659.3 189.5,665.3 183.5,665.3" fill="rgb(255,255,255)"/>
<polygon points="189.5,659.3 195.5,659.3 195.5,665.3 189.5,665.3" fill="rgb(255,255,255)"/>
<polygon points="195.5,659.3 201.5,659.3 201.5,665.3 195.5,665.3" fill="rgb(255,255,255)"/>
<polygon points="201.5,659.3 207.5,659.3 207.5,665.3 201.5,665.3" fill="rgb(255,255,255)"/>
<polygon points="207.5,659.3 213.5,659.3 213.5,665.3 207.5,665.3" fill="rgb(255,255,255)"/>
<polygon points="213.5,659.3 219.5,659.3 219.5,665.3 213.5,665.3" fill="rgb(255,255,255)"/>
<polygon points="219.5,659.3 225.5,659.3 225.5,665.3 219.5,665.3" fill="rgb(255,255,255)"/>
<polygon points="225.5,659.3 231.5,659.3 231.5,665.3 225.5,665.3" fill="rgb(255,255,255)"/>
<polygon points="231.5,659.3 237.5,659.3 237.5,665.3 231.5,665.3" fill="rgb(255,255,255)"/>
<polygon points="237.5,659.3 243.5,659.3 243.5,665.3 237.5,665.3" fill="rgb(255,255,255)"/>
<polygon points="243.5,659.3 249.5,659.3 249.5,665.3 243.5,665.3" fill="rgb(255,255,255)"/>
<polygon points="249.5,659.3 255.5,659.3 255.5,665.3 249.5,665.3" fill="rgb(255,255,255)"/>
<polygon points="255.5,659.3 261.5,659.3 261.5,665.3 255.5,665.3" fill="rgb(255,255,255)"/>
<polygon points="264.5,659.3 270.5,659.3 270.5,665.3 264.5,665.3" fill="rgb(255,255,255)"/>
<polygon points="270.5,659.3 276.5,659.3 276.5,665.3 270.5,665.3" fill="rgb(255,255,255)"/>
<polygon points="276.5,659.3 282.5,659.3 282.5,665.3 276.5,665.3" fill="rgb(255,255,255)"/>
<polygon points="282.5,659.3 288.5,659.3 288.5,665.3 282.5,665.3" fill="rgb(255,255,255)"/>
<polygon points="288.5,659.3 294.5,659.3 294.5,665.3 288.5,665.3" fill="rgb(255,255,255)"/>
<polygon points="294.5,659.3 300.5,659.3 300.5,665.3 294.5,665.3" fill="rgb(255,255,255)"/>
<polygon points="303.5,659.3 309.5,659.3 309.5,665.3 303.5,665.3" fill="rgb(255,244,244)"/>
<polygon points="309.5,659.3 315.5,659.3 315.5,665.3 309.5,665.3" fill="rgb(255,242,242)"/>
<polygon points="315.5,659.3 321.5,659.3 321.5,665.3 315.5,665.3" fill="rgb(0,0,255)"/>
<polygon points="321.5,659.3 327.5,659.3 327.5,665.3 321.5,665.3" fill="rgb(0,0,255)"/>
<polygon points="327.5,659.3 333.5,659.3 333.5,665.3 327.5,665.3" fill="rgb(0,0,255)"/>
<polygon points="333.5,659.3 339.5,659.3 339.5,665.3 333.5,665.3" fill="rgb(0,0,255)"/>
<polygon points="339.5,659.3 345.5,659.3 345.5,665.3 339.5,665.3" fill="rgb(0,0,255)"/>
<polygon points="345.5,659.3 351.5,659.3 351.5,665.3 345.5,665.3" fill="rgb(88,88,255)"/>
<polygon points="351.5,659.3 357.5,659.3 357.5,665.3 351.5,665.3" fill="rgb(0,0,255)"/>
<polygon points="357.5,659.3 363.5,659.3 363.5,665.3 357.5,665.3" fill="rgb(0,0,255)"/>
<polygon points="363.5,659.3 369.5,659.3 369.5,665.3 363.5,665.3" fill="rgb(166,166,255)"/>
<polygon points="369.5,659.3 375.5,659.3 375.5,665.3 369.5,665.3" fill="rgb(0,0,255)"/>
<polygon points="375.5,659.3 381.5,659.3 381.5,665.3 375.5,665.3" fill="rgb(255,208,208)"/>
<polygon points="381.5,659.3 387.5,659.3 387.5,665.3 381.5,665.3" fill="rgb(255,164,164)"/>
<polygon points="153.5,665.3 159.5,665.3 159.5,671.3 153.5,671.3" fill="rgb(255,255,255)"/>
<polygon points="159.5,665.3 165.5,665.3 165.5,671.3 159.5,671.3" fill="rgb(255,255,255)"/>
<polygon points="165.5,665.3 171.5,665.3 171.5,671.3 165.5,671.3" fill="rgb(255,255,255)"/>
<polygon points="171.5,665.3 177.5,665.3 177.5,671.3 171.5,671.3" fill="rgb(255,255,255)"/>
<polygon points="177.5,665.3 183.5,665.3 183.5,671.3 177.5,671.3" fill="rgb(255,255,255)"/>
<polygon points="183.5,665.3 189.5,665.3 189.5,671.3 183.5,671.3" fill="rgb(255,255,255)"/>
<polygon points="189.5,665.3 195.5,665.3 195.5,671.3 189.5,671.3" fill="rgb(255,255,255)"/>
<polygon points="195.5,665.3 201.5,665.3 201.5,671.3 195.5,671.3" fill="rgb(255,255,255)"/>
<polygon points="201.5,665.3 207.5,665.3 207.5,671.3 201.5,671.3" fill="rgb(255,255,255)"/>
<polygon points="207.5,665.3 213.5,665.3 213.5,671.3 207.5,671.3" fill="rgb(255,255,255)"/>
<polygon points="213.5,665.3 219.5,665.3 219.5,671.3 213.5,671.3" fill="rgb(255,255,255)"/>
<polygon points="219.5,665.3 225.5,665.3 225.5,671.3 219.5,671.3" fill="rgb(255,255,255)"/>
<polygon points="225.5,665.3 231.5,665.3 231.5,671.3 225.5,671.3" fill="rgb(255,255,255)"/>
<polygon points="231.5,665.3 237.5,665.3 237.5,671.3 231.5,671.3" fill="rgb(255,255,255)"/>
<polygon points="237.5,665.3 243.5,665.3 243.5,671.3 237.5,671.3" fill="rgb(255,255,255)"/>
<polygon points="243.5,665.3 249.5,665.3 249.5,671.3 243.5,671.3" fill="rgb(255,255,255)"/>
<polygon points="249.5,665.3 255.5,665.3 255.5,671.3 249.5,671.3" fill="rgb(255,255,255)"/>
<polygon points="255.5,665.3 261.5,665.3 261.5,671.3 255.5,671.3" fill="rgb(255,255,255)"/>
<polygon points="264.5,665.3 270.5,665.3 270.5,671.3 264.5,671.3" fill="rgb(255,255,255)"/>
<polygon points="270.5,665.3 276.5,665.3 276.5,671.3 270.5,671.3" fill="rgb(255,255,255)"/>
<polygon points="276.5,665.3 282.5,665.3 282.5,671.3 276.5,671.3" fill="rgb(255,255,255)"/>
<polygon points="282.5,665.3 288.5,665.3 288.5,671.3 282.5,671.3" fill="rgb(255,255,255)"/>
<polygon points="288.5,665.3 294.5,665.3 294.5,671.3 288.5,671.3" fill="rgb(255,255,255)"/>
<polygon points="294.5,665.3 300.5,665.3 300.5,671.3 294.5,671.3" fill="rgb(255,255,255)"/>
<polygon points="303.5,665.3 309.5,665.3 309.5,671.3 303.5,671.3" fill="rgb(0,0,255)"/>
<polygon points="309.5,665.3 315.5,665.3 315.5,671.3 309.5,671.3" fill="rgb(0,0,255)"/>
<polygon points="315.5,665.3 321.5,665.3 321.5,671.3 315.5,671.3" fill="rgb(0,0,255)"/>
<polygon points="321.5,665.3 327.5,665.3 327.5,671.3 321.5,671.3" fill="rgb(255,209,209)"/>
<polygon points="327.5,665.3 333.5,665.3 333.5,671.3 327.5,671.3" fill="rgb(0,0,255)"/>
<polygon points="333.5,665.3 339.5,665.3 339.5,671.3 333.5,671.3" fill="rgb(0,0,255)"/>
<polygon points="339.5,665.3 345.5,665.3 345.5,671.3 339.5,671.3" fill="rgb(255,233,233)"/>
<polygon points="345.5,665.3 351.5,665.3 351.5,671.3 345.5,671.3" fill="rgb(255,166,166)"/>
<polygon points="351.5,665.3 357.5,665.3 357.5,671.3 351.5,671.3" fill="rgb(254,223,223)"/>
<polygon points="357.5,665.3 363.5,665.3 363.5,671.3 357.5,671.3" fill="rgb(255,227,227)"/>
<polygon points="363.5,665.3 369.5,665.3 369.5,671.3 363.5,671.3" fill="rgb(254,225,225)"/>
<polygon points="369.5,665.3 375.5,665.3 375.5,671.3 369.5,671.3" fill="rgb(255,220,220)"/>
<polygon points="375.5,665.3 381.5,665.3 381.5,671.3 375.5,671.3" fill="rgb(0,0,255)"/>
<polygon points="381.5,665.3 387.5,665.3 387.5,671.3 381.5,671.3" fill="rgb(255,242,242)"/>
<polygon points="153.5,602.3 261.5,602.3 261.5,632.3 153.5,632.3" fill="none" stroke="black" stroke-width="0.5"/>
<polygon points="264.5,602.3 300.5,602.3 300.5,632.3 264.5,632.3" fill="none" stroke="black" stroke-width="0.5"/>
<polygon points="303.5,602.3 387.5,602.3 387.5,632.3 303.5,632.3" fill="none" stroke="black" stroke-width="0.5"/>
<polygon points="153.5,635.3 261.5,635.3 261.5,671.3 153.5,671.3" fill="none" stroke="black" stroke-width="0.5"/>
<polygon points="264.5,635.3 300.5,635.3 300.5,671.3 264.5,671.3" fill="none" stroke="black" stroke-width="0.5"/>
<polygon points="303.5,635.3 387.5,635.3 387.5,671.3 303.5,671.3" fill="none" stroke="black" stroke-width="0.5"/>
<text xml:space="preserve" x="203.75" y="703.967" font-family="Arial" font-size="7" text-anchor="middle">enrichments</text>
<polygon points="93.75,711.3 113.75,711.3 113.75,731.3 93.75,731.3" fill="rgb(255,255,255)"/><polygon points="93.75,711.3 113.75,711.3 113.75,731.3 93.75,731.3" fill="none" stroke="black" stroke-width="0.5"/><text xml:space="preserve" x="103.75" y="723.3" font-family="Arial" font-size="5" fill="rgb(0,0,0)" text-anchor="middle">0.0</text>
<polygon points="113.75,711.3 133.75,711.3 133.75,731.3 113.75,731.3" fill="rgb(216,178,216)"/><polygon points="113.75,711.3 133.75,711.3 133.75,731.3 113.75,731.3" fill="none" stroke="black" stroke-width="0.5"/><text xml:space="preserve" x="123.75" y="723.3" font-family="Arial" font-size="5" fill="rgb(0,0,0)" text-anchor="middle">0.3</text>
<polygon points="133.75,711.3 153.75,711.3 153.75,731.3 133.75,731.3" fill="rgb(178,102,178)"/><polygon points="133.75,711.3 153.75,711.3 153.75,731.3 133.75,731.3" fill="none" stroke="black" stroke-width="0.5"/><text xml:space="preserve" x="143.75" y="723.3" font-family="Arial" font-size="5" fill="rgb(0,0,0)" text-anchor="middle">0.6</text>
<polygon points="153.75,711.3 173.75,711.3 173.75,731.3 153.75,731.3" fill="rgb(140,25,140)"/><polygon points="153.75,711.3 173.75,711.3 173.75,731.3 153.75,731.3" fill="none" stroke="black" stroke-width="0.5"/><text xml:space="preserve" x="163.75" y="723.3" font-family="Arial" font-size="5" fill="rgb(255,255,255)" text-anchor="middle">0.9</text>
<polygon points="173.75,711.3 193.75,711.3 193.75,731.3 173.75,731.3" fill="rgb(102,50,153)"/><polygon points="173.75,711.3 193.75,711.3 193.75,731.3 173.75,731.3" fill="none" stroke="black" stroke-width="0.5"/><text xml:space="preserve" x="183.75" y="723.3" font-family="Arial" font-size="5" fill="rgb(255,255,255)" text-anchor="middle">1.2</text>
<polygon points="193.75,711.3 213.75,711.3 213.75,731.3 193.75,731.3" fill="rgb(64,127,191)"/><polygon points="193.75,711.3 213.75,711.3 213.75,731.3 193.75,731.3" fill="none" stroke="black" stroke-width="0.5"/><text xml:space="preserve" x="203.75" y="723.3" font-family="Arial" font-size="5" fill="rgb(255,255,255)" text-anchor="middle">1.5</text>
<polygon points="213.75,711.3 233.75,711.3 233.75,731.3 213.75,731.3" fill="rgb(25,204,229)"/><polygon points="213.75,711.3 233.75,711.3 233.75,731.3 213.75,731.3" fill="none" stroke="black" stroke-width="0.5"/><text xml:space="preserve" x="223.75" y="723.3" font-family="Arial" font-size="5" fill="rgb(0,0,0)" text-anchor="middle">1.8</text>
<polygon points="233.75,711.3 253.75,711.3 253.75,731.3 233.75,731.3" fill="rgb(0,239,239)"/><polygon points="233.75,711.3 253.75,711.3 253.75,731.3 233.75,731.3" fill="none" stroke="black" stroke-width="0.5"/><text xml:space="preserve" x="243.75" y="723.3" font-family="Arial" font-size="5" fill="rgb(0,0,0)" text-anchor="middle">2.1</text>
<polygon points="253.75,711.3 273.75,711.3 273.75,731.3 253.75,731.3" fill="rgb(0,193,193)"/><polygon points="253.75,711.3 273.75,711.3 273.75,731.3 253.75,731.3" fill="none" stroke="black" stroke-width="0.5"/><text xml:space="preserve" x="263.75" y="723.3" font-family="Arial" font-size="5" fill="rgb(0,0,0)" text-anchor="middle">2.4</text>
<polygon points="273.75,711.3 293.75,711.3 293.75,731.3 273.75,731.3" fill="rgb(0,146,146)"/><polygon points="273.75,711.3 293.75,711.3 293.75,731.3 273.75,731.3" fill="none" stroke="black" stroke-width="0.5"/><text xml:space="preserve" x="283.75" y="723.3" font-family="Arial" font-size="5" fill="rgb(255,255,255)" text-anchor="middle">2.7</text>
<polygon points="293.75,711.3 313.75,711.3 313.75,731.3 293.75,731.3" fill="rgb(0,100,100)"/><polygon points="293.75,711.3 313.75,711.3 313.75,731.3 293.75,731.3" fill="none" stroke="black" stroke-width="0.5"/><text xml:space="preserve" x="303.75" y="723.3" font-family="Arial" font-size="5" fill="rgb(255,255,255)" text-anchor="middle">3.0</text>
<text xml:space="preserve" x="203.75" y="763.967" font-family="Arial" font-size="7" text-anchor="middle">expression</text>
<polygon points="93.75,771.3 113.75,771.3 113.75,791.3 93.75,791.3" fill="rgb(0,0,255)"/><polygon points="93.75,771.3 113.75,771.3 113.75,791.3 93.75,791.3" fill="none" stroke="black" stroke-width="0.5"/><text xml:space="preserve" x="103.75" y="783.3" font-family="Arial" font-size="5" fill="rgb(255,255,255)" text-anchor="middle">0.0</text>
<polygon points="113.75,771.3 133.75,771.3 133.75,791.3 113.75,791.3" fill="rgb(255,211,211)"/><polygon points="113.75,771.3 133.75,771.3 133.75,791.3 113.75,791.3" fill="none" stroke="black" stroke-width="0.5"/><text xml:space="preserve" x="123.75" y="783.3" font-family="Arial" font-size="5" fill="rgb(0,0,0)" text-anchor="middle">0.6</text>
<polygon points="133.75,771.3 153.75,771.3 153.75,791.3 133.75,791.3" fill="rgb(255,158,158)"/><polygon points="133.75,771.3 153.75,771.3 153.75,791.3 133.75,791.3" fill="none" stroke="black" stroke-width="0.5"/><text xml:space="preserve" x="143.75" y="783.3" font-family="Arial" font-size="5" fill="rgb(0,0,0)" text-anchor="middle">1.2</text>
<polygon points="153.75,771.3 173.75,771.3 173.75,791.3 153.75,791.3" fill="rgb(255,105,105)"/><polygon points="153.75,771.3 173.75,771.3 173.75,791.3 153.75,791.3" fill="none" stroke="black" stroke-width="0.5"/><text xml:space="preserve" x="163.75" y="783.3" font-family="Arial" font-size="5" fill="rgb(0,0,0)" text-anchor="middle">1.8</text>
<polygon points="173.75,771.3 193.75,771.3 193.75,791.3 173.75,791.3" fill="rgb(255,52,52)"/><polygon points="173.75,771.3 193.75,771.3 193.75,791.3 173.75,791.3" fill="none" stroke="black" stroke-width="0.5"/><text xml:space="preserve" x="183.75" y="783.3" font-family="Arial" font-size="5" fill="rgb(255,255,255)" text-anchor="middle">2.4</text>
<polygon points="193.75,771.3 213.75,771.3 213.75,791.3 193.75,791.3" fill="rgb(255,0,0)"/><polygon points="193.75,771.3 213.75,771.3 213.75,791.3 193.75,791.3" fill="none" stroke="black" stroke-width="0.5"/><text xml:space="preserve" x="203.75" y="783.3" font-family="Arial" font-size="5" fill="rgb(255,255,255)" text-anchor="middle">3.0</text>
<polygon points="213.75,771.3 233.75,771.3 233.75,791.3 213.75,791.3" fill="rgb(231,0,0)"/><polygon points="213.75,771.3 233.75,771.3 233.75,791.3 213.75,791.3" fill="none" stroke="black" stroke-width="0.5"/><text xml:space="preserve" x="223.75" y="783.3" font-family="Arial" font-size="5" fill="rgb(255,255,255)" text-anchor="middle">3.6</text>
<polygon points="233.75,771.3 253.75,771.3 253.75,791.3 233.75,791.3" fill="rgb(208,0,0)"/><polygon points="233.75,771.3 253.75,771.3 253.75,791.3 233.75,791.3" fill="none" stroke="black" stroke-width="0.5"/><text xml:space="preserve" x="243.75" y="783.3" font-family="Arial" font-size="5" fill="rgb(255,255,255)" text-anchor="middle">4.2</text>
<polygon points="253.75,771.3 273.75,771.3 273.75,791.3 253.75,791.3" fill="rgb(185,0,0)"/><polygon points="253.75,771.3 273.75,771.3 273.75,791.3 253.75,791.3" fill="none" stroke="black" stroke-width="0.5"/><text xml:space="preserve" x="263.75" y="783.3" font-family="Arial" font-size="5" fill="rgb(255,255,255)" text-anchor="middle">4.8</text>
<polygon points="273.75,771.3 293.75,771.3 293.75,791.3 273.75,791.3" fill="rgb(162,0,0)"/><polygon points="273.75,771.3 293.75,771.3 293.75,791.3 273.75,791.3" fill="none" stroke="black" stroke-width="0.5"/><text xml:space="preserve" x="283.75" y="783.3" font-family="Arial" font-size="5" fill="rgb(255,255,255)" text-anchor="middle">5.4</text>
<polygon points="293.75,771.3 313.75,771.3 313.75,791.3 293.75,791.3" fill="rgb(139,0,0)"/><polygon points="293.75,771.3 313.75,771.3 313.75,791.3 293.75,791.3" fill="none" stroke="black" stroke-width="0.5"/><text xml:space="preserve" x="303.75" y="783.3" font-family="Arial" font-size="5" fill="rgb(255,255,255)" text-anchor="middle">6.0</text>
</svg>
