<?xml version="1.0" standalone="no"?><!DOCTYPE svg PUBLIC "-//W3C//DTD SVG 1.1//EN" "http://www.w3.org/Graphics/SVG/1.1/DTD/svg11.dtd">
<svg width="371.6" height="380.5" version="1.1" xmlns="http://www.w3.org/2000/svg">
<text xml:space="preserve" x="127.6" y="60.1667" font-family="Arial" font-size="7" text-anchor="end">Module1071</text>
<text xml:space="preserve" x="127.6" y="66.1667" font-family="Arial" font-size="7" text-anchor="end">Module1082</text>
<text xml:space="preserve" x="127.6" y="72.1667" font-family="Arial" font-size="7" text-anchor="end">Module911</text>
<text xml:space="preserve" x="127.6" y="78.1667" font-family="Arial" font-size="7" text-anchor="end">Module1001</text>
<text xml:space="preserve" x="127.6" y="84.1667" font-family="Arial" font-size="7" text-anchor="end">Module921</text>
<text xml:space="preserve" x="127.6" y="90.1667" font-family="Arial" font-size="7" text-anchor="end">Module1002</text>
<text xml:space="preserve" x="127.6" y="96.1667" font-family="Arial" font-size="7" text-anchor="end">Module1085</text>
<text xml:space="preserve" x="127.6" y="102.167" font-family="Arial" font-size="7" text-anchor="end">Module882</text>
<text xml:space="preserve" x="127.6" y="108.167" font-family="Arial" font-size="7" text-anchor="end">Module1000</text>
<text xml:space="preserve" x="127.6" y="114.167" font-family="Arial" font-size="7" text-anchor="end">Module996</text>
<text xml:space="preserve" x="127.6" y="120.167" font-family="Arial" font-size="7" text-anchor="end">Module1045</text>
<text xml:space="preserve" x="127.6" y="126.167" font-family="Arial" font-size="7" text-anchor="end">Module1088</text>
<text xml:space="preserve" x="127.6" y="132.167" font-family="Arial" font-size="7" text-anchor="end">Module893</text>
<text xml:space="preserve" x="127.6" y="138.167" font-family="Arial" font-size="7" text-anchor="end">Module1040</text>
<text xml:space="preserve" x="127.6" y="144.167" font-family="Arial" font-size="7" text-anchor="end">Module1075</text>
<text xml:space="preserve" x="127.6" y="150.167" font-family="Arial" font-size="7" text-anchor="end">Module910</text>
<text xml:space="preserve" x="127.6" y="156.167" font-family="Arial" font-size="7" text-anchor="end">Module1074</text>
<text xml:space="preserve" x="127.6" y="162.167" font-family="Arial" font-size="7" text-anchor="end">Module1014</text>
<text xml:space="preserve" x="127.6" y="168.167" font-family="Arial" font-size="7" text-anchor="end">Module1073</text>
<text xml:space="preserve" x="127.6" y="174.167" font-family="Arial" font-size="7" text-anchor="end">Module1038</text>
<text xml:space="preserve" x="127.6" y="180.167" font-family="Arial" font-size="7" text-anchor="end">Module856</text>
<text xml:space="preserve" x="127.6" y="186.167" font-family="Arial" font-size="7" text-anchor="end">Module1076</text>
<text xml:space="preserve" x="127.6" y="192.167" font-family="Arial" font-size="7" text-anchor="end">Module1046</text>
<text xml:space="preserve" x="127.6" y="198.167" font-family="Arial" font-size="7" text-anchor="end">Module900</text>
<text xml:space="preserve" x="127.6" y="204.167" font-family="Arial" font-size="7" text-anchor="end">Module993</text>
<text xml:space="preserve" x="127.6" y="210.167" font-family="Arial" font-size="7" text-anchor="end">Module1062</text>
<text xml:space="preserve" x="127.6" y="216.167" font-family="Arial" font-size="7" text-anchor="end">Module1064</text>
<text xml:space="preserve" x="127.6" y="222.167" font-family="Arial" font-size="7" text-anchor="end">Module1081</text>
<text xml:space="preserve" x="127.6" y="228.167" font-family="Arial" font-size="7" text-anchor="end">Module1080</text>
<text xml:space="preserve" x="127.6" y="234.167" font-family="Arial" font-size="7" text-anchor="end">Module1005</text>
<text xml:space="preserve" x="127.6" y="240.167" font-family="Arial" font-size="7" text-anchor="end">Module1072</text>
<text xml:space="preserve" x="127.6" y="246.167" font-family="Arial" font-size="7" text-anchor="end">Module1083</text>
<text xml:space="preserve" x="127.6" y="252.167" font-family="Arial" font-size="7" text-anchor="end">Module1042</text>
<text xml:space="preserve" x="127.6" y="258.167" font-family="Arial" font-size="7" text-anchor="end">Module958</text>
<text xml:space="preserve" x="127.6" y="264.167" font-family="Arial" font-size="7" text-anchor="end">Module892</text>
<text xml:space="preserve" x="127.6" y="270.167" font-family="Arial" font-size="7" text-anchor="end">Module946</text>
<text xml:space="preserve" x="127.6" y="276.167" font-family="Arial" font-size="7" text-anchor="end">Module940</text>
<text xml:space="preserve" x="127.6" y="282.167" font-family="Arial" font-size="7" text-anchor="end">Module918</text>
<text xml:space="preserve" x="127.6" y="288.167" font-family="Arial" font-size="7" text-anchor="end">Module1004</text>
<text xml:space="preserve" x="127.6" y="294.167" font-family="Arial" font-size="7" text-anchor="end">Module874</text>
<text xml:space="preserve" x="127.6" y="300.167" font-family="Arial" font-size="7" text-anchor="end">Module865</text>
<text xml:space="preserve" x="137.267" y="50.5" font-family="Arial" font-size="7" transform="rotate(270 137.267 50.5)">C2</text>
<text xml:space="preserve" x="143.267" y="50.5" font-family="Arial" font-size="7" transform="rotate(270 143.267 50.5)">C7</text>
<text xml:space="preserve" x="149.267" y="50.5" font-family="Arial" font-size="7" transform="rotate(270 149.267 50.5)">C3</text>
<text xml:space="preserve" x="155.267" y="50.5" font-family="Arial" font-size="7" transform="rotate(270 155.267 50.5)">C5</text>
<text xml:space="preserve" x="161.267" y="50.5" font-family="Arial" font-size="7" transform="rotate(270 161.267 50.5)">C12</text>
<text xml:space="preserve" x="167.267" y="50.5" font-family="Arial" font-size="7" transform="rotate(270 167.267 50.5)">C13</text>
<text xml:space="preserve" x="173.267" y="50.5" font-family="Arial" font-size="7" transform="rotate(270 173.267 50.5)">C14</text>
<text xml:space="preserve" x="179.267" y="50.5" font-family="Arial" font-size="7" transform="rotate(270 179.267 50.5)">C11</text>
<text xml:space="preserve" x="185.267" y="50.5" font-family="Arial" font-size="7" transform="rotate(270 185.267 50.5)">C4</text>
<text xml:space="preserve" x="191.267" y="50.5" font-family="Arial" font-size="7" transform="rotate(270 191.267 50.5)">C8</text>
<text xml:space="preserve" x="197.267" y="50.5" font-family="Arial" font-size="7" transform="rotate(270 197.267 50.5)">C6</text>
<text xml:space="preserve" x="203.267" y="50.5" font-family="Arial" font-size="7" transform="rotate(270 203.267 50.5)">C10</text>
<text xml:space="preserve" x="209.267" y="50.5" font-family="Arial" font-size="7" transform="rotate(270 209.267 50.5)">C9</text>
<text xml:space="preserve" x="215.267" y="50.5" font-family="Arial" font-size="7" transform="rotate(270 215.267 50.5)">C1</text>
<polygon points="131.6,54.5 137.6,54.5 137.6,60.5 131.6,60.5" fill="rgb(252,0,0)"/>
<polygon points="137.6,54.5 143.6,54.5 143.6,60.5 137.6,60.5" fill="rgb(255,6,6)"/>
<polygon points="143.6,54.5 149.6,54.5 149.6,60.5 143.6,60.5" fill="rgb(235,0,0)"/>
<polygon points="149.6,54.5 155.6,54.5 155.6,60.5 149.6,60.5" fill="rgb(255,1,1)"/>
<polygon points="155.6,54.5 161.6,54.5 161.6,60.5 155.6,60.5" fill="rgb(228,0,0)"/>
<polygon points="161.6,54.5 167.6,54.5 167.6,60.5 161.6,60.5" fill="rgb(234,0,0)"/>
<polygon points="167.6,54.5 173.6,54.5 173.6,60.5 167.6,60.5" fill="rgb(184,0,0)"/>
<polygon points="173.6,54.5 179.6,54.5 179.6,60.5 173.6,60.5" fill="rgb(218,0,0)"/>
<polygon points="179.6,54.5 185.6,54.5 185.6,60.5 179.6,60.5" fill="rgb(202,0,0)"/>
<polygon points="185.6,54.5 191.6,54.5 191.6,60.5 185.6,60.5" fill="rgb(204,0,0)"/>
<polygon points="191.6,54.5 197.6,54.5 197.6,60.5 191.6,60.5" fill="rgb(222,0,0)"/>
<polygon points="197.6,54.5 203.6,54.5 203.6,60.5 197.6,60.5" fill="rgb(192,0,0)"/>
<polygon points="203.6,54.5 209.6,54.5 209.6,60.5 203.6,60.5" fill="rgb(207,0,0)"/>
<polygon points="209.6,54.5 215.6,54.5 215.6,60.5 209.6,60.5" fill="rgb(230,0,0)"/>
<polygon points="131.6,60.5 137.6,60.5 137.6,66.5 131.6,66.5" fill="rgb(68,68,255)"/>
<polygon points="137.6,60.5 143.6,60.5 143.6,66.5 137.6,66.5" fill="rgb(66,66,255)"/>
<polygon points="143.6,60.5 149.6,60.5 149.6,66.5 143.6,66.5" fill="rgb(255,245,245)"/>
<polygon points="149.6,60.5 155.6,60.5 155.6,66.5 149.6,66.5" fill="rgb(255,235,235)"/>
<polygon points="155.6,60.5 161.6,60.5 161.6,66.5 155.6,66.5" fill="rgb(255,252,252)"/>
<polygon points="161.6,60.5 167.6,60.5 167.6,66.5 161.6,66.5" fill="rgb(255,243,243)"/>
<polygon points="167.6,60.5 173.6,60.5 173.6,66.5 167.6,66.5" fill="rgb(255,221,221)"/>
<polygon points="173.6,60.5 179.6,60.5 179.6,66.5 173.6,66.5" fill="rgb(255,195,195)"/>
<polygon points="179.6,60.5 185.6,60.5 185.6,66.5 179.6,66.5" fill="rgb(255,208,208)"/>
<polygon points="185.6,60.5 191.6,60.5 191.6,66.5 185.6,66.5" fill="rgb(255,202,202)"/>
<polygon points="191.6,60.5 197.6,60.5 197.6,66.5 191.6,66.5" fill="rgb(255,205,205)"/>
<polygon points="197.6,60.5 203.6,60.5 203.6,66.5 197.6,66.5" fill="rgb(255,206,206)"/>
<polygon points="203.6,60.5 209.6,60.5 209.6,66.5 203.6,66.5" fill="rgb(254,235,235)"/>
<polygon points="209.6,60.5 215.6,60.5 215.6,66.5 209.6,66.5" fill="rgb(190,190,255)"/>
<polygon points="131.6,66.5 137.6,66.5 137.6,72.5 131.6,72.5" fill="rgb(255,171,171)"/>
<polygon points="137.6,66.5 143.6,66.5 143.6,72.5 137.6,72.5" fill="rgb(255,169,169)"/>
<polygon points="143.6,66.5 149.6,66.5 149.6,72.5 143.6,72.5" fill="rgb(255,146,146)"/>
<polygon points="149.6,66.5 155.6,66.5 155.6,72.5 149.6,72.5" fill="rgb(255,122,122)"/>
<polygon points="155.6,66.5 161.6,66.5 161.6,72.5 155.6,72.5" fill="rgb(255,158,158)"/>
<polygon points="161.6,66.5 167.6,66.5 167.6,72.5 161.6,72.5" fill="rgb(255,137,137)"/>
<polygon points="167.6,66.5 173.6,66.5 173.6,72.5 167.6,72.5" fill="rgb(255,104,104)"/>
<polygon points="173.6,66.5 179.6,66.5 179.6,72.5 173.6,72.5" fill="rgb(255,122,122)"/>
<polygon points="179.6,66.5 185.6,66.5 185.6,72.5 179.6,72.5" fill="rgb(255,108,108)"/>
<polygon points="185.6,66.5 191.6,66.5 191.6,72.5 185.6,72.5" fill="rgb(255,76,76)"/>
<polygon points="191.6,66.5 197.6,66.5 197.6,72.5 191.6,72.5" fill="rgb(255,93,93)"/>
<polygon points="197.6,66.5 203.6,66.5 203.6,72.5 197.6,72.5" fill="rgb(255,102,102)"/>
<polygon points="203.6,66.5 209.6,66.5 209.6,72.5 203.6,72.5" fill="rgb(255,80,80)"/>
<polygon points="209.6,66.5 215.6,66.5 215.6,72.5 209.6,72.5" fill="rgb(255,127,127)"/>
<polygon points="131.6,72.5 137.6,72.5 137.6,78.5 131.6,78.5" fill="rgb(40,40,255)"/>
<polygon points="137.6,72.5 143.6,72.5 143.6,78.5 137.6,78.5" fill="rgb(35,35,255)"/>
<polygon points="143.6,72.5 149.6,72.5 149.6,78.5 143.6,78.5" fill="rgb(185,185,255)"/>
<polygon points="149.6,72.5 155.6,72.5 155.6,78.5 149.6,78.5" fill="rgb(255,244,244)"/>
<polygon points="155.6,72.5 161.6,72.5 161.6,78.5 155.6,78.5" fill="rgb(93,93,255)"/>
<polygon points="161.6,72.5 167.6,72.5 167.6,78.5 161.6,78.5" fill="rgb(169,169,255)"/>
<polygon points="167.6,72.5 173.6,72.5 173.6,78.5 167.6,78.5" fill="rgb(255,244,244)"/>
<polygon points="173.6,72.5 179.6,72.5 179.6,78.5 173.6,78.5" fill="rgb(254,245,245)"/>
<polygon points="179.6,72.5 185.6,72.5 185.6,78.5 179.6,78.5" fill="rgb(254,246,246)"/>
<polygon points="185.6,72.5 191.6,72.5 191.6,78.5 185.6,78.5" fill="rgb(255,211,211)"/>
<polygon points="191.6,72.5 197.6,72.5 197.6,78.5 191.6,78.5" fill="rgb(255,177,177)"/>
<polygon points="197.6,72.5 203.6,72.5 203.6,78.5 197.6,78.5" fill="rgb(255,222,222)"/>
<polygon points="203.6,72.5 209.6,72.5 209.6,78.5 203.6,78.5" fill="rgb(255,145,145)"/>
<polygon points="209.6,72.5 215.6,72.5 215.6,78.5 209.6,78.5" fill="rgb(255,121,121)"/>
<polygon points="131.6,78.5 137.6,78.5 137.6,84.5 131.6,84.5" fill="rgb(49,49,255)"/>
<polygon points="137.6,78.5 143.6,78.5 143.6,84.5 137.6,84.5" fill="rgb(115,115,255)"/>
<polygon points="143.6,78.5 149.6,78.5 149.6,84.5 143.6,84.5" fill="rgb(100,100,255)"/>
<polygon points="149.6,78.5 155.6,78.5 155.6,84.5 149.6,84.5" fill="rgb(216,216,255)"/>
<polygon points="155.6,78.5 161.6,78.5 161.6,84.5 155.6,84.5" fill="rgb(53,53,255)"/>
<polygon points="161.6,78.5 167.6,78.5 167.6,84.5 161.6,84.5" fill="rgb(82,82,255)"/>
<polygon points="167.6,78.5 173.6,78.5 173.6,84.5 167.6,84.5" fill="rgb(250,250,255)"/>
<polygon points="173.6,78.5 179.6,78.5 179.6,84.5 173.6,84.5" fill="rgb(255,254,254)"/>
<polygon points="179.6,78.5 185.6,78.5 185.6,84.5 179.6,84.5" fill="rgb(255,252,252)"/>
<polygon points="185.6,78.5 191.6,78.5 191.6,84.5 185.6,84.5" fill="rgb(255,247,247)"/>
<polygon points="191.6,78.5 197.6,78.5 197.6,84.5 191.6,84.5" fill="rgb(255,233,233)"/>
<polygon points="197.6,78.5 203.6,78.5 203.6,84.5 197.6,84.5" fill="rgb(255,243,243)"/>
<polygon points="203.6,78.5 209.6,78.5 209.6,84.5 203.6,84.5" fill="rgb(255,173,173)"/>
<polygon points="209.6,78.5 215.6,78.5 215.6,84.5 209.6,84.5" fill="rgb(255,180,180)"/>
<polygon points="131.6,84.5 137.6,84.5 137.6,90.5 131.6,90.5" fill="rgb(0,0,255)"/>
<polygon points="137.6,84.5 143.6,84.5 143.6,90.5 137.6,90.5" fill="rgb(0,0,255)"/>
<polygon points="143.6,84.5 149.6,84.5 149.6,90.5 143.6,90.5" fill="rgb(14,14,254)"/>
<polygon points="149.6,84.5 155.6,84.5 155.6,90.5 149.6,90.5" fill="rgb(25,25,255)"/>
<polygon points="155.6,84.5 161.6,84.5 161.6,90.5 155.6,90.5" fill="rgb(4,4,255)"/>
<polygon points="161.6,84.5 167.6,84.5 167.6,90.5 161.6,90.5" fill="rgb(9,9,255)"/>
<polygon points="167.6,84.5 173.6,84.5 173.6,90.5 167.6,90.5" fill="rgb(25,25,255)"/>
<polygon points="173.6,84.5 179.6,84.5 179.6,90.5 173.6,90.5" fill="rgb(11,11,255)"/>
<polygon points="179.6,84.5 185.6,84.5 185.6,90.5 179.6,90.5" fill="rgb(15,15,255)"/>
<polygon points="185.6,84.5 191.6,84.5 191.6,90.5 185.6,90.5" fill="rgb(204,204,255)"/>
<polygon points="191.6,84.5 197.6,84.5 197.6,90.5 191.6,90.5" fill="rgb(255,250,250)"/>
<polygon points="197.6,84.5 203.6,84.5 203.6,90.5 197.6,90.5" fill="rgb(100,100,255)"/>
<polygon points="203.6,84.5 209.6,84.5 209.6,90.5 203.6,90.5" fill="rgb(255,224,224)"/>
<polygon points="209.6,84.5 215.6,84.5 215.6,90.5 209.6,90.5" fill="rgb(255,215,215)"/>
<polygon points="131.6,90.5 137.6,90.5 137.6,96.5 131.6,96.5" fill="rgb(143,143,255)"/>
<polygon points="137.6,90.5 143.6,90.5 143.6,96.5 137.6,96.5" fill="rgb(156,156,255)"/>
<polygon points="143.6,90.5 149.6,90.5 149.6,96.5 143.6,96.5" fill="rgb(154,154,255)"/>
<polygon points="149.6,90.5 155.6,90.5 155.6,96.5 149.6,96.5" fill="rgb(222,222,255)"/>
<polygon points="155.6,90.5 161.6,90.5 161.6,96.5 155.6,96.5" fill="rgb(65,65,255)"/>
<polygon points="161.6,90.5 167.6,90.5 167.6,96.5 161.6,96.5" fill="rgb(115,115,255)"/>
<polygon points="167.6,90.5 173.6,90.5 173.6,96.5 167.6,96.5" fill="rgb(103,103,255)"/>
<polygon points="173.6,90.5 179.6,90.5 179.6,96.5 173.6,96.5" fill="rgb(162,162,255)"/>
<polygon points="179.6,90.5 185.6,90.5 185.6,96.5 179.6,96.5" fill="rgb(131,131,255)"/>
<polygon points="185.6,90.5 191.6,90.5 191.6,96.5 185.6,96.5" fill="rgb(251,251,255)"/>
<polygon points="191.6,90.5 197.6,90.5 197.6,96.5 191.6,96.5" fill="rgb(255,249,249)"/>
<polygon points="197.6,90.5 203.6,90.5 203.6,96.5 197.6,96.5" fill="rgb(248,248,255)"/>
<polygon points="203.6,90.5 209.6,90.5 209.6,96.5 203.6,96.5" fill="rgb(255,224,224)"/>
<polygon points="209.6,90.5 215.6,90.5 215.6,96.5 209.6,96.5" fill="rgb(255,134,134)"/>
<polygon points="131.6,96.5 137.6,96.5 137.6,102.5 131.6,102.5" fill="rgb(255,26,26)"/>
<polygon points="137.6,96.5 143.6,96.5 143.6,102.5 137.6,102.5" fill="rgb(255,3,3)"/>
<polygon points="143.6,96.5 149.6,96.5 149.6,102.5 143.6,102.5" fill="rgb(227,0,0)"/>
<polygon points="149.6,96.5 155.6,96.5 155.6,102.5 149.6,102.5" fill="rgb(214,0,0)"/>
<polygon points="155.6,96.5 161.6,96.5 161.6,102.5 155.6,102.5" fill="rgb(255,6,6)"/>
<polygon points="161.6,96.5 167.6,96.5 167.6,102.5 161.6,102.5" fill="rgb(255,51,51)"/>
<polygon points="167.6,96.5 173.6,96.5 173.6,102.5 167.6,102.5" fill="rgb(238,0,0)"/>
<polygon points="173.6,96.5 179.6,96.5 179.6,102.5 173.6,102.5" fill="rgb(247,0,0)"/>
<polygon points="179.6,96.5 185.6,96.5 185.6,102.5 179.6,102.5" fill="rgb(249,0,0)"/>
<polygon points="185.6,96.5 191.6,96.5 191.6,102.5 185.6,102.5" fill="rgb(221,0,0)"/>
<polygon points="191.6,96.5 197.6,96.5 197.6,102.5 191.6,102.5" fill="rgb(197,0,0)"/>
<polygon points="197.6,96.5 203.6,96.5 203.6,102.5 197.6,102.5" fill="rgb(201,0,0)"/>
<polygon points="203.6,96.5 209.6,96.5 209.6,102.5 203.6,102.5" fill="rgb(180,0,0)"/>
<polygon points="209.6,96.5 215.6,96.5 215.6,102.5 209.6,102.5" fill="rgb(161,0,0)"/>
<polygon points="131.6,102.5 137.6,102.5 137.6,108.5 131.6,108.5" fill="rgb(255,225,225)"/>
<polygon points="137.6,102.5 143.6,102.5 143.6,108.5 137.6,108.5" fill="rgb(255,218,218)"/>
<polygon points="143.6,102.5 149.6,102.5 149.6,108.5 143.6,108.5" fill="rgb(255,213,213)"/>
<polygon points="149.6,102.5 155.6,102.5 155.6,108.5 149.6,108.5" fill="rgb(255,193,193)"/>
<polygon points="155.6,102.5 161.6,102.5 161.6,108.5 155.6,108.5" fill="rgb(255,241,241)"/>
<polygon points="161.6,102.5 167.6,102.5 167.6,108.5 161.6,108.5" fill="rgb(255,231,231)"/>
<polygon points="167.6,102.5 173.6,102.5 173.6,108.5 167.6,108.5" fill="rgb(255,234,234)"/>
<polygon points="173.6,102.5 179.6,102.5 179.6,108.5 173.6,108.5" fill="rgb(255,215,215)"/>
<polygon points="179.6,102.5 185.6,102.5 185.6,108.5 179.6,108.5" fill="rgb(255,225,225)"/>
<polygon points="185.6,102.5 191.6,102.5 191.6,108.5 185.6,108.5" fill="rgb(255,208,208)"/>
<polygon points="191.6,102.5 197.6,102.5 197.6,108.5 191.6,108.5" fill="rgb(254,185,185)"/>
<polygon points="197.6,102.5 203.6,102.5 203.6,108.5 197.6,108.5" fill="rgb(255,207,207)"/>
<polygon points="203.6,102.5 209.6,102.5 209.6,108.5 203.6,108.5" fill="rgb(255,184,184)"/>
<polygon points="209.6,102.5 215.6,102.5 215.6,108.5 209.6,108.5" fill="rgb(255,153,153)"/>
<polygon points="131.6,108.5 137.6,108.5 137.6,114.5 131.6,114.5" fill="rgb(255,102,102)"/>
<polygon points="137.6,108.5 143.6,108.5 143.6,114.5 137.6,114.5" fill="rgb(255,78,78)"/>
<polygon points="143.6,108.5 149.6,108.5 149.6,114.5 143.6,114.5" fill="rgb(255,73,73)"/>
<polygon points="149.6,108.5 155.6,108.5 155.6,114.5 149.6,114.5" fill="rgb(255,48,48)"/>
<polygon points="155.6,108.5 161.6,108.5 161.6,114.5 155.6,114.5" fill="rgb(255,141,141)"/>
<polygon points="161.6,108.5 167.6,108.5 167.6,114.5 161.6,114.5" fill="rgb(255,120,120)"/>
<polygon points="167.6,108.5 173.6,108.5 173.6,114.5 167.6,114.5" fill="rgb(255,109,109)"/>
<polygon points="173.6,108.5 179.6,108.5 179.6,114.5 173.6,114.5" fill="rgb(255,83,83)"/>
<polygon points="179.6,108.5 185.6,108.5 185.6,114.5 179.6,114.5" fill="rgb(255,88,88)"/>
<polygon points="185.6,108.5 191.6,108.5 191.6,114.5 185.6,114.5" fill="rgb(255,78,78)"/>
<polygon points="191.6,108.5 197.6,108.5 197.6,114.5 191.6,114.5" fill="rgb(255,32,32)"/>
<polygon points="197.6,108.5 203.6,108.5 203.6,114.5 197.6,114.5" fill="rgb(255,45,45)"/>
<polygon points="203.6,108.5 209.6,108.5 209.6,114.5 203.6,114.5" fill="rgb(255,59,59)"/>
<polygon points="209.6,108.5 215.6,108.5 215.6,114.5 209.6,114.5" fill="rgb(255,0,0)"/>
<polygon points="131.6,114.5 137.6,114.5 137.6,120.5 131.6,120.5" fill="rgb(255,233,233)"/>
<polygon points="137.6,114.5 143.6,114.5 143.6,120.5 137.6,120.5" fill="rgb(255,190,190)"/>
<polygon points="143.6,114.5 149.6,114.5 149.6,120.5 143.6,120.5" fill="rgb(255,200,200)"/>
<polygon points="149.6,114.5 155.6,114.5 155.6,120.5 149.6,120.5" fill="rgb(255,182,182)"/>
<polygon points="155.6,114.5 161.6,114.5 161.6,120.5 155.6,120.5" fill="rgb(255,244,244)"/>
<polygon points="161.6,114.5 167.6,114.5 167.6,120.5 161.6,120.5" fill="rgb(255,253,253)"/>
<polygon points="167.6,114.5 173.6,114.5 173.6,120.5 167.6,120.5" fill="rgb(255,248,248)"/>
<polygon points="173.6,114.5 179.6,114.5 179.6,120.5 173.6,120.5" fill="rgb(255,251,251)"/>
<polygon points="179.6,114.5 185.6,114.5 185.6,120.5 179.6,120.5" fill="rgb(255,252,252)"/>
<polygon points="185.6,114.5 191.6,114.5 191.6,120.5 185.6,120.5" fill="rgb(255,225,225)"/>
<polygon points="191.6,114.5 197.6,114.5 197.6,120.5 191.6,120.5" fill="rgb(254,175,175)"/>
<polygon points="197.6,114.5 203.6,114.5 203.6,120.5 197.6,120.5" fill="rgb(255,200,200)"/>
<polygon points="203.6,114.5 209.6,114.5 209.6,120.5 203.6,120.5" fill="rgb(255,184,184)"/>
<polygon points="209.6,114.5 215.6,114.5 215.6,120.5 209.6,120.5" fill="rgb(255,145,145)"/>
<polygon points="131.6,120.5 137.6,120.5 137.6,126.5 131.6,126.5" fill="rgb(255,240,240)"/>
<polygon points="137.6,120.5 143.6,120.5 143.6,126.5 137.6,126.5" fill="rgb(255,173,173)"/>
<polygon points="143.6,120.5 149.6,120.5 149.6,126.5 143.6,126.5" fill="rgb(255,197,197)"/>
<polygon points="149.6,120.5 155.6,120.5 155.6,126.5 149.6,126.5" fill="rgb(255,188,188)"/>
<polygon points="155.6,120.5 161.6,120.5 161.6,126.5 155.6,126.5" fill="rgb(255,240,240)"/>
<polygon points="161.6,120.5 167.6,120.5 167.6,126.5 161.6,126.5" fill="rgb(172,172,255)"/>
<polygon points="167.6,120.5 173.6,120.5 173.6,126.5 167.6,126.5" fill="rgb(255,249,249)"/>
<polygon points="173.6,120.5 179.6,120.5 179.6,126.5 173.6,126.5" fill="rgb(255,253,253)"/>
<polygon points="179.6,120.5 185.6,120.5 185.6,126.5 179.6,126.5" fill="rgb(218,218,255)"/>
<polygon points="185.6,120.5 191.6,120.5 191.6,126.5 185.6,126.5" fill="rgb(255,226,226)"/>
<polygon points="191.6,120.5 197.6,120.5 197.6,126.5 191.6,126.5" fill="rgb(255,173,173)"/>
<polygon points="197.6,120.5 203.6,120.5 203.6,126.5 197.6,126.5" fill="rgb(255,205,205)"/>
<polygon points="203.6,120.5 209.6,120.5 209.6,126.5 203.6,126.5" fill="rgb(255,195,195)"/>
<polygon points="209.6,120.5 215.6,120.5 215.6,126.5 209.6,126.5" fill="rgb(255,164,164)"/>
<polygon points="131.6,126.5 137.6,126.5 137.6,132.5 131.6,132.5" fill="rgb(255,223,223)"/>
<polygon points="137.6,126.5 143.6,126.5 143.6,132.5 137.6,132.5" fill="rgb(255,154,154)"/>
<polygon points="143.6,126.5 149.6,126.5 149.6,132.5 143.6,132.5" fill="rgb(255,169,169)"/>
<polygon points="149.6,126.5 155.6,126.5 155.6,132.5 149.6,132.5" fill="rgb(255,160,160)"/>
<polygon points="155.6,126.5 161.6,126.5 161.6,132.5 155.6,132.5" fill="rgb(255,231,231)"/>
<polygon points="161.6,126.5 167.6,126.5 167.6,132.5 161.6,132.5" fill="rgb(255,243,243)"/>
<polygon points="167.6,126.5 173.6,126.5 173.6,132.5 167.6,132.5" fill="rgb(255,236,236)"/>
<polygon points="173.6,126.5 179.6,126.5 179.6,132.5 173.6,132.5" fill="rgb(255,238,238)"/>
<polygon points="179.6,126.5 185.6,126.5 185.6,132.5 179.6,132.5" fill="rgb(255,240,240)"/>
<polygon points="185.6,126.5 191.6,126.5 191.6,132.5 185.6,132.5" fill="rgb(255,207,207)"/>
<polygon points="191.6,126.5 197.6,126.5 197.6,132.5 191.6,132.5" fill="rgb(255,149,149)"/>
<polygon points="197.6,126.5 203.6,126.5 203.6,132.5 197.6,132.5" fill="rgb(255,172,172)"/>
<polygon points="203.6,126.5 209.6,126.5 209.6,132.5 203.6,132.5" fill="rgb(255,187,187)"/>
<polygon points="209.6,126.5 215.6,126.5 215.6,132.5 209.6,132.5" fill="rgb(255,164,164)"/>
<polygon points="131.6,132.5 137.6,132.5 137.6,138.5 131.6,138.5" fill="rgb(255,146,146)"/>
<polygon points="137.6,132.5 143.6,132.5 143.6,138.5 137.6,138.5" fill="rgb(255,135,135)"/>
<polygon points="143.6,132.5 149.6,132.5 149.6,138.5 143.6,138.5" fill="rgb(255,141,141)"/>
<polygon points="149.6,132.5 155.6,132.5 155.6,138.5 149.6,138.5" fill="rgb(255,106,106)"/>
<polygon points="155.6,132.5 161.6,132.5 161.6,138.5 155.6,138.5" fill="rgb(255,197,197)"/>
<polygon points="161.6,132.5 167.6,132.5 167.6,138.5 161.6,138.5" fill="rgb(255,208,208)"/>
<polygon points="167.6,132.5 173.6,132.5 173.6,138.5 167.6,138.5" fill="rgb(254,218,218)"/>
<polygon points="173.6,132.5 179.6,132.5 179.6,138.5 173.6,138.5" fill="rgb(255,180,180)"/>
<polygon points="179.6,132.5 185.6,132.5 185.6,138.5 179.6,138.5" fill="rgb(255,203,203)"/>
<polygon points="185.6,132.5 191.6,132.5 191.6,138.5 185.6,138.5" fill="rgb(255,167,167)"/>
<polygon points="191.6,132.5 197.6,132.5 197.6,138.5 191.6,138.5" fill="rgb(255,129,129)"/>
<polygon points="197.6,132.5 203.6,132.5 203.6,138.5 197.6,138.5" fill="rgb(255,173,173)"/>
<polygon points="203.6,132.5 209.6,132.5 209.6,138.5 203.6,138.5" fill="rgb(255,156,156)"/>
<polygon points="209.6,132.5 215.6,132.5 215.6,138.5 209.6,138.5" fill="rgb(255,112,112)"/>
<polygon points="131.6,138.5 137.6,138.5 137.6,144.5 131.6,144.5" fill="rgb(255,157,157)"/>
<polygon points="137.6,138.5 143.6,138.5 143.6,144.5 137.6,144.5" fill="rgb(254,144,144)"/>
<polygon points="143.6,138.5 149.6,138.5 149.6,144.5 143.6,144.5" fill="rgb(255,153,153)"/>
<polygon points="149.6,138.5 155.6,138.5 155.6,144.5 149.6,144.5" fill="rgb(255,104,104)"/>
<polygon points="155.6,138.5 161.6,138.5 161.6,144.5 155.6,144.5" fill="rgb(254,208,208)"/>
<polygon points="161.6,138.5 167.6,138.5 167.6,144.5 161.6,144.5" fill="rgb(255,207,207)"/>
<polygon points="167.6,138.5 173.6,138.5 173.6,144.5 167.6,144.5" fill="rgb(255,211,211)"/>
<polygon points="173.6,138.5 179.6,138.5 179.6,144.5 173.6,144.5" fill="rgb(255,177,177)"/>
<polygon points="179.6,138.5 185.6,138.5 185.6,144.5 179.6,144.5" fill="rgb(255,194,194)"/>
<polygon points="185.6,138.5 191.6,138.5 191.6,144.5 185.6,144.5" fill="rgb(255,146,146)"/>
<polygon points="191.6,138.5 197.6,138.5 197.6,144.5 191.6,144.5" fill="rgb(255,105,105)"/>
<polygon points="197.6,138.5 203.6,138.5 203.6,144.5 197.6,144.5" fill="rgb(255,161,161)"/>
<polygon points="203.6,138.5 209.6,138.5 209.6,144.5 203.6,144.5" fill="rgb(255,141,141)"/>
<polygon points="209.6,138.5 215.6,138.5 215.6,144.5 209.6,144.5" fill="rgb(255,129,129)"/>
<polygon points="131.6,144.5 137.6,144.5 137.6,150.5 131.6,150.5" fill="rgb(255,176,176)"/>
<polygon points="137.6,144.5 143.6,144.5 143.6,150.5 137.6,150.5" fill="rgb(255,153,153)"/>
<polygon points="143.6,144.5 149.6,144.5 149.6,150.5 143.6,150.5" fill="rgb(255,163,163)"/>
<polygon points="149.6,144.5 155.6,144.5 155.6,150.5 149.6,150.5" fill="rgb(255,136,136)"/>
<polygon points="155.6,144.5 161.6,144.5 161.6,150.5 155.6,150.5" fill="rgb(255,212,212)"/>
<polygon points="161.6,144.5 167.6,144.5 167.6,150.5 161.6,150.5" fill="rgb(255,205,205)"/>
<polygon points="167.6,144.5 173.6,144.5 173.6,150.5 167.6,150.5" fill="rgb(255,212,212)"/>
<polygon points="173.6,144.5 179.6,144.5 179.6,150.5 173.6,150.5" fill="rgb(255,186,186)"/>
<polygon points="179.6,144.5 185.6,144.5 185.6,150.5 179.6,150.5" fill="rgb(255,199,199)"/>
<polygon points="185.6,144.5 191.6,144.5 191.6,150.5 185.6,150.5" fill="rgb(255,171,171)"/>
<polygon points="191.6,144.5 197.6,144.5 197.6,150.5 191.6,150.5" fill="rgb(255,131,131)"/>
<polygon points="197.6,144.5 203.6,144.5 203.6,150.5 197.6,150.5" fill="rgb(255,169,169)"/>
<polygon points="203.6,144.5 209.6,144.5 209.6,150.5 203.6,150.5" fill="rgb(255,154,154)"/>
<polygon points="209.6,144.5 215.6,144.5 215.6,150.5 209.6,150.5" fill="rgb(255,117,117)"/>
<polygon points="131.6,150.5 137.6,150.5 137.6,156.5 131.6,156.5" fill="rgb(255,156,156)"/>
<polygon points="137.6,150.5 143.6,150.5 143.6,156.5 137.6,156.5" fill="rgb(255,142,142)"/>
<polygon points="143.6,150.5 149.6,150.5 149.6,156.5 143.6,156.5" fill="rgb(255,135,135)"/>
<polygon points="149.6,150.5 155.6,150.5 155.6,156.5 149.6,156.5" fill="rgb(255,98,98)"/>
<polygon points="155.6,150.5 161.6,150.5 161.6,156.5 155.6,156.5" fill="rgb(255,198,198)"/>
<polygon points="161.6,150.5 167.6,150.5 167.6,156.5 161.6,156.5" fill="rgb(255,206,206)"/>
<polygon points="167.6,150.5 173.6,150.5 173.6,156.5 167.6,156.5" fill="rgb(255,204,204)"/>
<polygon points="173.6,150.5 179.6,150.5 179.6,156.5 173.6,156.5" fill="rgb(255,169,169)"/>
<polygon points="179.6,150.5 185.6,150.5 185.6,156.5 179.6,156.5" fill="rgb(255,190,190)"/>
<polygon points="185.6,150.5 191.6,150.5 191.6,156.5 185.6,156.5" fill="rgb(255,155,155)"/>
<polygon points="191.6,150.5 197.6,150.5 197.6,156.5 191.6,156.5" fill="rgb(255,107,107)"/>
<polygon points="197.6,150.5 203.6,150.5 203.6,156.5 197.6,156.5" fill="rgb(255,154,154)"/>
<polygon points="203.6,150.5 209.6,150.5 209.6,156.5 203.6,156.5" fill="rgb(255,134,134)"/>
<polygon points="209.6,150.5 215.6,150.5 215.6,156.5 209.6,156.5" fill="rgb(255,89,89)"/>
<polygon points="131.6,156.5 137.6,156.5 137.6,162.5 131.6,162.5" fill="rgb(255,167,167)"/>
<polygon points="137.6,156.5 143.6,156.5 143.6,162.5 137.6,162.5" fill="rgb(255,150,150)"/>
<polygon points="143.6,156.5 149.6,156.5 149.6,162.5 143.6,162.5" fill="rgb(255,144,144)"/>
<polygon points="149.6,156.5 155.6,156.5 155.6,162.5 149.6,162.5" fill="rgb(255,119,119)"/>
<polygon points="155.6,156.5 161.6,156.5 161.6,162.5 155.6,162.5" fill="rgb(255,200,200)"/>
<polygon points="161.6,156.5 167.6,156.5 167.6,162.5 161.6,162.5" fill="rgb(255,203,203)"/>
<polygon points="167.6,156.5 173.6,156.5 173.6,162.5 167.6,162.5" fill="rgb(255,201,201)"/>
<polygon points="173.6,156.5 179.6,156.5 179.6,162.5 173.6,162.5" fill="rgb(255,170,170)"/>
<polygon points="179.6,156.5 185.6,156.5 185.6,162.5 179.6,162.5" fill="rgb(255,183,183)"/>
<polygon points="185.6,156.5 191.6,156.5 191.6,162.5 185.6,162.5" fill="rgb(255,155,155)"/>
<polygon points="191.6,156.5 197.6,156.5 197.6,162.5 191.6,162.5" fill="rgb(255,117,117)"/>
<polygon points="197.6,156.5 203.6,156.5 203.6,162.5 197.6,162.5" fill="rgb(255,151,151)"/>
<polygon points="203.6,156.5 209.6,156.5 209.6,162.5 203.6,162.5" fill="rgb(255,135,135)"/>
<polygon points="209.6,156.5 215.6,156.5 215.6,162.5 209.6,162.5" fill="rgb(255,103,103)"/>
<polygon points="131.6,162.5 137.6,162.5 137.6,168.5 131.6,168.5" fill="rgb(255,195,195)"/>
<polygon points="137.6,162.5 143.6,162.5 143.6,168.5 137.6,168.5" fill="rgb(255,181,181)"/>
<polygon points="143.6,162.5 149.6,162.5 149.6,168.5 143.6,168.5" fill="rgb(255,170,170)"/>
<polygon points="149.6,162.5 155.6,162.5 155.6,168.5 149.6,168.5" fill="rgb(255,146,146)"/>
<polygon points="155.6,162.5 161.6,162.5 161.6,168.5 155.6,168.5" fill="rgb(255,215,215)"/>
<polygon points="161.6,162.5 167.6,162.5 167.6,168.5 161.6,168.5" fill="rgb(255,225,225)"/>
<polygon points="167.6,162.5 173.6,162.5 173.6,168.5 167.6,168.5" fill="rgb(255,214,214)"/>
<polygon points="173.6,162.5 179.6,162.5 179.6,168.5 173.6,168.5" fill="rgb(255,198,198)"/>
<polygon points="179.6,162.5 185.6,162.5 185.6,168.5 179.6,168.5" fill="rgb(255,214,214)"/>
<polygon points="185.6,162.5 191.6,162.5 191.6,168.5 185.6,168.5" fill="rgb(254,177,177)"/>
<polygon points="191.6,162.5 197.6,162.5 197.6,168.5 191.6,168.5" fill="rgb(255,135,135)"/>
<polygon points="197.6,162.5 203.6,162.5 203.6,168.5 197.6,168.5" fill="rgb(255,167,167)"/>
<polygon points="203.6,162.5 209.6,162.5 209.6,168.5 203.6,168.5" fill="rgb(255,140,140)"/>
<polygon points="209.6,162.5 215.6,162.5 215.6,168.5 209.6,168.5" fill="rgb(255,128,128)"/>
<polygon points="131.6,168.5 137.6,168.5 137.6,174.5 131.6,174.5" fill="rgb(255,178,178)"/>
<polygon points="137.6,168.5 143.6,168.5 143.6,174.5 137.6,174.5" fill="rgb(255,168,168)"/>
<polygon points="143.6,168.5 149.6,168.5 149.6,174.5 143.6,174.5" fill="rgb(255,156,156)"/>
<polygon points="149.6,168.5 155.6,168.5 155.6,174.5 149.6,174.5" fill="rgb(255,117,117)"/>
<polygon points="155.6,168.5 161.6,168.5 161.6,174.5 155.6,174.5" fill="rgb(255,206,206)"/>
<polygon points="161.6,168.5 167.6,168.5 167.6,174.5 161.6,174.5" fill="rgb(254,225,225)"/>
<polygon points="167.6,168.5 173.6,168.5 173.6,174.5 167.6,174.5" fill="rgb(255,216,216)"/>
<polygon points="173.6,168.5 179.6,168.5 179.6,174.5 173.6,174.5" fill="rgb(255,193,193)"/>
<polygon points="179.6,168.5 185.6,168.5 185.6,174.5 179.6,174.5" fill="rgb(255,214,214)"/>
<polygon points="185.6,168.5 191.6,168.5 191.6,174.5 185.6,174.5" fill="rgb(255,170,170)"/>
<polygon points="191.6,168.5 197.6,168.5 197.6,174.5 191.6,174.5" fill="rgb(255,111,111)"/>
<polygon points="197.6,168.5 203.6,168.5 203.6,174.5 197.6,174.5" fill="rgb(254,164,164)"/>
<polygon points="203.6,168.5 209.6,168.5 209.6,174.5 203.6,174.5" fill="rgb(255,127,127)"/>
<polygon points="209.6,168.5 215.6,168.5 215.6,174.5 209.6,174.5" fill="rgb(255,112,112)"/>
<polygon points="131.6,174.5 137.6,174.5 137.6,180.5 131.6,180.5" fill="rgb(255,21,21)"/>
<polygon points="137.6,174.5 143.6,174.5 143.6,180.5 137.6,180.5" fill="rgb(255,32,32)"/>
<polygon points="143.6,174.5 149.6,174.5 149.6,180.5 143.6,180.5" fill="rgb(255,6,6)"/>
<polygon points="149.6,174.5 155.6,174.5 155.6,180.5 149.6,180.5" fill="rgb(255,13,13)"/>
<polygon points="155.6,174.5 161.6,174.5 161.6,180.5 155.6,180.5" fill="rgb(255,45,45)"/>
<polygon points="161.6,174.5 167.6,174.5 167.6,180.5 161.6,180.5" fill="rgb(255,99,99)"/>
<polygon points="167.6,174.5 173.6,174.5 173.6,180.5 167.6,180.5" fill="rgb(255,99,99)"/>
<polygon points="173.6,174.5 179.6,174.5 179.6,180.5 173.6,180.5" fill="rgb(255,55,55)"/>
<polygon points="179.6,174.5 185.6,174.5 185.6,180.5 179.6,180.5" fill="rgb(255,104,104)"/>
<polygon points="185.6,174.5 191.6,174.5 191.6,180.5 185.6,180.5" fill="rgb(251,0,0)"/>
<polygon points="191.6,174.5 197.6,174.5 197.6,180.5 191.6,180.5" fill="rgb(245,0,0)"/>
<polygon points="197.6,174.5 203.6,174.5 203.6,180.5 197.6,180.5" fill="rgb(255,47,47)"/>
<polygon points="203.6,174.5 209.6,174.5 209.6,180.5 203.6,180.5" fill="rgb(224,0,0)"/>
<polygon points="209.6,174.5 215.6,174.5 215.6,180.5 209.6,180.5" fill="rgb(254,0,0)"/>
<polygon points="131.6,180.5 137.6,180.5 137.6,186.5 131.6,186.5" fill="rgb(255,95,95)"/>
<polygon points="137.6,180.5 143.6,180.5 143.6,186.5 137.6,186.5" fill="rgb(255,93,93)"/>
<polygon points="143.6,180.5 149.6,180.5 149.6,186.5 143.6,186.5" fill="rgb(255,134,134)"/>
<polygon points="149.6,180.5 155.6,180.5 155.6,186.5 149.6,186.5" fill="rgb(255,122,122)"/>
<polygon points="155.6,180.5 161.6,180.5 161.6,186.5 155.6,186.5" fill="rgb(255,169,169)"/>
<polygon points="161.6,180.5 167.6,180.5 167.6,186.5 161.6,186.5" fill="rgb(255,172,172)"/>
<polygon points="167.6,180.5 173.6,180.5 173.6,186.5 167.6,186.5" fill="rgb(255,198,198)"/>
<polygon points="173.6,180.5 179.6,180.5 179.6,186.5 173.6,186.5" fill="rgb(255,160,160)"/>
<polygon points="179.6,180.5 185.6,180.5 185.6,186.5 179.6,186.5" fill="rgb(255,178,178)"/>
<polygon points="185.6,180.5 191.6,180.5 191.6,186.5 185.6,186.5" fill="rgb(255,156,156)"/>
<polygon points="191.6,180.5 197.6,180.5 197.6,186.5 191.6,186.5" fill="rgb(255,134,134)"/>
<polygon points="197.6,180.5 203.6,180.5 203.6,186.5 197.6,186.5" fill="rgb(255,170,170)"/>
<polygon points="203.6,180.5 209.6,180.5 209.6,186.5 203.6,186.5" fill="rgb(255,166,166)"/>
<polygon points="209.6,180.5 215.6,180.5 215.6,186.5 209.6,186.5" fill="rgb(255,145,145)"/>
<polygon points="131.6,186.5 137.6,186.5 137.6,192.5 131.6,192.5" fill="rgb(255,30,30)"/>
<polygon points="137.6,186.5 143.6,186.5 143.6,192.5 137.6,192.5" fill="rgb(255,25,25)"/>
<polygon points="143.6,186.5 149.6,186.5 149.6,192.5 143.6,192.5" fill="rgb(255,58,58)"/>
<polygon points="149.6,186.5 155.6,186.5 155.6,192.5 149.6,192.5" fill="rgb(255,61,61)"/>
<polygon points="155.6,186.5 161.6,186.5 161.6,192.5 155.6,192.5" fill="rgb(255,114,114)"/>
<polygon points="161.6,186.5 167.6,186.5 167.6,192.5 161.6,192.5" fill="rgb(255,104,104)"/>
<polygon points="167.6,186.5 173.6,186.5 173.6,192.5 167.6,192.5" fill="rgb(254,166,166)"/>
<polygon points="173.6,186.5 179.6,186.5 179.6,192.5 173.6,192.5" fill="rgb(255,111,111)"/>
<polygon points="179.6,186.5 185.6,186.5 185.6,192.5 179.6,192.5" fill="rgb(255,133,133)"/>
<polygon points="185.6,186.5 191.6,186.5 191.6,192.5 185.6,192.5" fill="rgb(255,109,109)"/>
<polygon points="191.6,186.5 197.6,186.5 197.6,192.5 191.6,192.5" fill="rgb(255,92,92)"/>
<polygon points="197.6,186.5 203.6,186.5 203.6,192.5 197.6,192.5" fill="rgb(255,137,137)"/>
<polygon points="203.6,186.5 209.6,186.5 209.6,192.5 203.6,192.5" fill="rgb(255,127,127)"/>
<polygon points="209.6,186.5 215.6,186.5 215.6,192.5 209.6,192.5" fill="rgb(255,112,112)"/>
<polygon points="131.6,192.5 137.6,192.5 137.6,198.5 131.6,198.5" fill="rgb(255,123,123)"/>
<polygon points="137.6,192.5 143.6,192.5 143.6,198.5 137.6,198.5" fill="rgb(255,125,125)"/>
<polygon points="143.6,192.5 149.6,192.5 149.6,198.5 143.6,198.5" fill="rgb(255,152,152)"/>
<polygon points="149.6,192.5 155.6,192.5 155.6,198.5 149.6,198.5" fill="rgb(255,129,129)"/>
<polygon points="155.6,192.5 161.6,192.5 161.6,198.5 155.6,198.5" fill="rgb(254,193,193)"/>
<polygon points="161.6,192.5 167.6,192.5 167.6,198.5 161.6,198.5" fill="rgb(255,182,182)"/>
<polygon points="167.6,192.5 173.6,192.5 173.6,198.5 167.6,198.5" fill="rgb(255,228,228)"/>
<polygon points="173.6,192.5 179.6,192.5 179.6,198.5 173.6,198.5" fill="rgb(255,166,166)"/>
<polygon points="179.6,192.5 185.6,192.5 185.6,198.5 179.6,198.5" fill="rgb(255,199,199)"/>
<polygon points="185.6,192.5 191.6,192.5 191.6,198.5 185.6,198.5" fill="rgb(255,178,178)"/>
<polygon points="191.6,192.5 197.6,192.5 197.6,198.5 191.6,198.5" fill="rgb(254,180,180)"/>
<polygon points="197.6,192.5 203.6,192.5 203.6,198.5 197.6,198.5" fill="rgb(255,214,214)"/>
<polygon points="203.6,192.5 209.6,192.5 209.6,198.5 203.6,198.5" fill="rgb(255,212,212)"/>
<polygon points="209.6,192.5 215.6,192.5 215.6,198.5 209.6,198.5" fill="rgb(255,214,214)"/>
<polygon points="131.6,198.5 137.6,198.5 137.6,204.5 131.6,204.5" fill="rgb(255,80,80)"/>
<polygon points="137.6,198.5 143.6,198.5 143.6,204.5 137.6,204.5" fill="rgb(255,88,88)"/>
<polygon points="143.6,198.5 149.6,198.5 149.6,204.5 143.6,204.5" fill="rgb(255,133,133)"/>
<polygon points="149.6,198.5 155.6,198.5 155.6,204.5 149.6,204.5" fill="rgb(254,140,140)"/>
<polygon points="155.6,198.5 161.6,198.5 161.6,204.5 155.6,204.5" fill="rgb(255,159,159)"/>
<polygon points="161.6,198.5 167.6,198.5 167.6,204.5 161.6,204.5" fill="rgb(255,140,140)"/>
<polygon points="167.6,198.5 173.6,198.5 173.6,204.5 167.6,204.5" fill="rgb(255,202,202)"/>
<polygon points="173.6,198.5 179.6,198.5 179.6,204.5 173.6,204.5" fill="rgb(255,162,162)"/>
<polygon points="179.6,198.5 185.6,198.5 185.6,204.5 179.6,204.5" fill="rgb(255,181,181)"/>
<polygon points="185.6,198.5 191.6,198.5 191.6,204.5 185.6,204.5" fill="rgb(255,167,167)"/>
<polygon points="191.6,198.5 197.6,198.5 197.6,204.5 191.6,204.5" fill="rgb(255,170,170)"/>
<polygon points="197.6,198.5 203.6,198.5 203.6,204.5 197.6,204.5" fill="rgb(255,193,193)"/>
<polygon points="203.6,198.5 209.6,198.5 209.6,204.5 203.6,204.5" fill="rgb(255,197,197)"/>
<polygon points="209.6,198.5 215.6,198.5 215.6,204.5 209.6,204.5" fill="rgb(255,186,186)"/>
<polygon points="131.6,204.5 137.6,204.5 137.6,210.5 131.6,210.5" fill="rgb(225,0,0)"/>
<polygon points="137.6,204.5 143.6,204.5 143.6,210.5 137.6,210.5" fill="rgb(230,0,0)"/>
<polygon points="143.6,204.5 149.6,204.5 149.6,210.5 143.6,210.5" fill="rgb(255,70,70)"/>
<polygon points="149.6,204.5 155.6,204.5 155.6,210.5 149.6,210.5" fill="rgb(255,81,81)"/>
<polygon points="155.6,204.5 161.6,204.5 161.6,210.5 155.6,210.5" fill="rgb(255,77,77)"/>
<polygon points="161.6,204.5 167.6,204.5 167.6,210.5 161.6,210.5" fill="rgb(255,96,96)"/>
<polygon points="167.6,204.5 173.6,204.5 173.6,210.5 167.6,210.5" fill="rgb(254,176,176)"/>
<polygon points="173.6,204.5 179.6,204.5 179.6,210.5 173.6,210.5" fill="rgb(255,106,106)"/>
<polygon points="179.6,204.5 185.6,204.5 185.6,210.5 179.6,210.5" fill="rgb(255,136,136)"/>
<polygon points="185.6,204.5 191.6,204.5 191.6,210.5 185.6,210.5" fill="rgb(255,166,166)"/>
<polygon points="191.6,204.5 197.6,204.5 197.6,210.5 191.6,210.5" fill="rgb(255,186,186)"/>
<polygon points="197.6,204.5 203.6,204.5 203.6,210.5 197.6,210.5" fill="rgb(255,186,186)"/>
<polygon points="203.6,204.5 209.6,204.5 209.6,210.5 203.6,210.5" fill="rgb(255,215,215)"/>
<polygon points="209.6,204.5 215.6,204.5 215.6,210.5 209.6,210.5" fill="rgb(255,199,199)"/>
<polygon points="131.6,210.5 137.6,210.5 137.6,216.5 131.6,216.5" fill="rgb(255,140,140)"/>
<polygon points="137.6,210.5 143.6,210.5 143.6,216.5 137.6,216.5" fill="rgb(255,152,152)"/>
<polygon points="143.6,210.5 149.6,210.5 149.6,216.5 143.6,216.5" fill="rgb(255,223,223)"/>
<polygon points="149.6,210.5 155.6,210.5 155.6,216.5 149.6,216.5" fill="rgb(255,219,219)"/>
<polygon points="155.6,210.5 161.6,210.5 161.6,216.5 155.6,216.5" fill="rgb(255,222,222)"/>
<polygon points="161.6,210.5 167.6,210.5 167.6,216.5 161.6,216.5" fill="rgb(255,210,210)"/>
<polygon points="167.6,210.5 173.6,210.5 173.6,216.5 167.6,216.5" fill="rgb(255,251,251)"/>
<polygon points="173.6,210.5 179.6,210.5 179.6,216.5 173.6,216.5" fill="rgb(255,216,216)"/>
<polygon points="179.6,210.5 185.6,210.5 185.6,216.5 179.6,216.5" fill="rgb(255,229,229)"/>
<polygon points="185.6,210.5 191.6,210.5 191.6,216.5 185.6,216.5" fill="rgb(255,244,244)"/>
<polygon points="191.6,210.5 197.6,210.5 197.6,216.5 191.6,216.5" fill="rgb(254,249,249)"/>
<polygon points="197.6,210.5 203.6,210.5 203.6,216.5 197.6,216.5" fill="rgb(255,249,249)"/>
<polygon points="203.6,210.5 209.6,210.5 209.6,216.5 203.6,216.5" fill="rgb(174,174,255)"/>
<polygon points="209.6,210.5 215.6,210.5 215.6,216.5 209.6,216.5" fill="rgb(255,250,250)"/>
<polygon points="131.6,216.5 137.6,216.5 137.6,222.5 131.6,222.5" fill="rgb(255,165,165)"/>
<polygon points="137.6,216.5 143.6,216.5 143.6,222.5 137.6,222.5" fill="rgb(255,169,169)"/>
<polygon points="143.6,216.5 149.6,216.5 149.6,222.5 143.6,222.5" fill="rgb(255,234,234)"/>
<polygon points="149.6,216.5 155.6,216.5 155.6,222.5 149.6,222.5" fill="rgb(254,237,237)"/>
<polygon points="155.6,216.5 161.6,216.5 161.6,222.5 155.6,222.5" fill="rgb(255,239,239)"/>
<polygon points="161.6,216.5 167.6,216.5 167.6,222.5 161.6,222.5" fill="rgb(255,231,231)"/>
<polygon points="167.6,216.5 173.6,216.5 173.6,222.5 167.6,222.5" fill="rgb(132,132,255)"/>
<polygon points="173.6,216.5 179.6,216.5 179.6,222.5 173.6,222.5" fill="rgb(255,247,247)"/>
<polygon points="179.6,216.5 185.6,216.5 185.6,222.5 179.6,222.5" fill="rgb(255,250,250)"/>
<polygon points="185.6,216.5 191.6,216.5 191.6,222.5 185.6,222.5" fill="rgb(255,250,250)"/>
<polygon points="191.6,216.5 197.6,216.5 197.6,222.5 191.6,222.5" fill="rgb(254,253,253)"/>
<polygon points="197.6,216.5 203.6,216.5 203.6,222.5 197.6,222.5" fill="rgb(159,159,255)"/>
<polygon points="203.6,216.5 209.6,216.5 209.6,222.5 203.6,222.5" fill="rgb(180,180,255)"/>
<polygon points="209.6,216.5 215.6,216.5 215.6,222.5 209.6,222.5" fill="rgb(255,254,254)"/>
<polygon points="131.6,222.5 137.6,222.5 137.6,228.5 131.6,228.5" fill="rgb(255,167,167)"/>
<polygon points="137.6,222.5 143.6,222.5 143.6,228.5 137.6,228.5" fill="rgb(255,170,170)"/>
<polygon points="143.6,222.5 149.6,222.5 149.6,228.5 143.6,228.5" fill="rgb(255,232,232)"/>
<polygon points="149.6,222.5 155.6,222.5 155.6,228.5 149.6,228.5" fill="rgb(255,233,233)"/>
<polygon points="155.6,222.5 161.6,222.5 161.6,228.5 155.6,228.5" fill="rgb(255,232,232)"/>
<polygon points="161.6,222.5 167.6,222.5 167.6,228.5 161.6,228.5" fill="rgb(255,202,202)"/>
<polygon points="167.6,222.5 173.6,222.5 173.6,228.5 167.6,228.5" fill="rgb(224,224,255)"/>
<polygon points="173.6,222.5 179.6,222.5 179.6,228.5 173.6,228.5" fill="rgb(255,241,241)"/>
<polygon points="179.6,222.5 185.6,222.5 185.6,228.5 179.6,228.5" fill="rgb(255,243,243)"/>
<polygon points="185.6,222.5 191.6,222.5 191.6,228.5 185.6,228.5" fill="rgb(255,246,246)"/>
<polygon points="191.6,222.5 197.6,222.5 197.6,228.5 191.6,228.5" fill="rgb(255,250,250)"/>
<polygon points="197.6,222.5 203.6,222.5 203.6,228.5 197.6,228.5" fill="rgb(237,237,255)"/>
<polygon points="203.6,222.5 209.6,222.5 209.6,228.5 203.6,228.5" fill="rgb(151,151,255)"/>
<polygon points="209.6,222.5 215.6,222.5 215.6,228.5 209.6,228.5" fill="rgb(240,240,255)"/>
<polygon points="131.6,228.5 137.6,228.5 137.6,234.5 131.6,234.5" fill="rgb(255,144,144)"/>
<polygon points="137.6,228.5 143.6,228.5 143.6,234.5 137.6,234.5" fill="rgb(255,158,158)"/>
<polygon points="143.6,228.5 149.6,228.5 149.6,234.5 143.6,234.5" fill="rgb(255,178,178)"/>
<polygon points="149.6,228.5 155.6,228.5 155.6,234.5 149.6,234.5" fill="rgb(255,201,201)"/>
<polygon points="155.6,228.5 161.6,228.5 161.6,234.5 155.6,234.5" fill="rgb(255,161,161)"/>
<polygon points="161.6,228.5 167.6,228.5 167.6,234.5 161.6,234.5" fill="rgb(255,163,163)"/>
<polygon points="167.6,228.5 173.6,228.5 173.6,234.5 167.6,234.5" fill="rgb(255,214,214)"/>
<polygon points="173.6,228.5 179.6,228.5 179.6,234.5 173.6,234.5" fill="rgb(255,195,195)"/>
<polygon points="179.6,228.5 185.6,228.5 185.6,234.5 179.6,234.5" fill="rgb(255,197,197)"/>
<polygon points="185.6,228.5 191.6,228.5 191.6,234.5 185.6,234.5" fill="rgb(255,207,207)"/>
<polygon points="191.6,228.5 197.6,228.5 197.6,234.5 191.6,234.5" fill="rgb(255,226,226)"/>
<polygon points="197.6,228.5 203.6,228.5 203.6,234.5 197.6,234.5" fill="rgb(255,227,227)"/>
<polygon points="203.6,228.5 209.6,228.5 209.6,234.5 203.6,234.5" fill="rgb(255,230,230)"/>
<polygon points="209.6,228.5 215.6,228.5 215.6,234.5 209.6,234.5" fill="rgb(255,227,227)"/>
<polygon points="131.6,234.5 137.6,234.5 137.6,240.5 131.6,240.5" fill="rgb(255,74,74)"/>
<polygon points="137.6,234.5 143.6,234.5 143.6,240.5 137.6,240.5" fill="rgb(255,91,91)"/>
<polygon points="143.6,234.5 149.6,234.5 149.6,240.5 143.6,240.5" fill="rgb(255,175,175)"/>
<polygon points="149.6,234.5 155.6,234.5 155.6,240.5 149.6,240.5" fill="rgb(255,206,206)"/>
<polygon points="155.6,234.5 161.6,234.5 161.6,240.5 155.6,240.5" fill="rgb(255,144,144)"/>
<polygon points="161.6,234.5 167.6,234.5 167.6,240.5 161.6,240.5" fill="rgb(255,83,83)"/>
<polygon points="167.6,234.5 173.6,234.5 173.6,240.5 167.6,240.5" fill="rgb(255,232,232)"/>
<polygon points="173.6,234.5 179.6,234.5 179.6,240.5 173.6,240.5" fill="rgb(255,196,196)"/>
<polygon points="179.6,234.5 185.6,234.5 185.6,240.5 179.6,240.5" fill="rgb(255,197,197)"/>
<polygon points="185.6,234.5 191.6,234.5 191.6,240.5 185.6,240.5" fill="rgb(255,215,215)"/>
<polygon points="191.6,234.5 197.6,234.5 197.6,240.5 191.6,240.5" fill="rgb(255,241,241)"/>
<polygon points="197.6,234.5 203.6,234.5 203.6,240.5 197.6,240.5" fill="rgb(254,247,247)"/>
<polygon points="203.6,234.5 209.6,234.5 209.6,240.5 203.6,240.5" fill="rgb(254,253,253)"/>
<polygon points="209.6,234.5 215.6,234.5 215.6,240.5 209.6,240.5" fill="rgb(255,253,253)"/>
<polygon points="131.6,240.5 137.6,240.5 137.6,246.5 131.6,246.5" fill="rgb(255,144,144)"/>
<polygon points="137.6,240.5 143.6,240.5 143.6,246.5 137.6,246.5" fill="rgb(255,158,158)"/>
<polygon points="143.6,240.5 149.6,240.5 149.6,246.5 143.6,246.5" fill="rgb(255,203,203)"/>
<polygon points="149.6,240.5 155.6,240.5 155.6,246.5 149.6,246.5" fill="rgb(255,222,222)"/>
<polygon points="155.6,240.5 161.6,240.5 161.6,246.5 155.6,246.5" fill="rgb(255,191,191)"/>
<polygon points="161.6,240.5 167.6,240.5 167.6,246.5 161.6,246.5" fill="rgb(255,162,162)"/>
<polygon points="167.6,240.5 173.6,240.5 173.6,246.5 167.6,246.5" fill="rgb(255,241,241)"/>
<polygon points="173.6,240.5 179.6,240.5 179.6,246.5 173.6,246.5" fill="rgb(255,215,215)"/>
<polygon points="179.6,240.5 185.6,240.5 185.6,246.5 179.6,246.5" fill="rgb(255,221,221)"/>
<polygon points="185.6,240.5 191.6,240.5 191.6,246.5 185.6,246.5" fill="rgb(255,229,229)"/>
<polygon points="191.6,240.5 197.6,240.5 197.6,246.5 191.6,246.5" fill="rgb(255,244,244)"/>
<polygon points="197.6,240.5 203.6,240.5 203.6,246.5 197.6,246.5" fill="rgb(255,248,248)"/>
<polygon points="203.6,240.5 209.6,240.5 209.6,246.5 203.6,246.5" fill="rgb(255,252,252)"/>
<polygon points="209.6,240.5 215.6,240.5 215.6,246.5 209.6,246.5" fill="rgb(255,253,253)"/>
<polygon points="131.6,246.5 137.6,246.5 137.6,252.5 131.6,252.5" fill="rgb(255,10,10)"/>
<polygon points="137.6,246.5 143.6,246.5 143.6,252.5 137.6,252.5" fill="rgb(255,36,36)"/>
<polygon points="143.6,246.5 149.6,246.5 149.6,252.5 143.6,252.5" fill="rgb(255,111,111)"/>
<polygon points="149.6,246.5 155.6,246.5 155.6,252.5 149.6,252.5" fill="rgb(255,152,152)"/>
<polygon points="155.6,246.5 161.6,246.5 161.6,252.5 155.6,252.5" fill="rgb(255,94,94)"/>
<polygon points="161.6,246.5 167.6,246.5 167.6,252.5 161.6,252.5" fill="rgb(255,41,41)"/>
<polygon points="167.6,246.5 173.6,246.5 173.6,252.5 167.6,252.5" fill="rgb(255,196,196)"/>
<polygon points="173.6,246.5 179.6,246.5 179.6,252.5 173.6,252.5" fill="rgb(255,114,114)"/>
<polygon points="179.6,246.5 185.6,246.5 185.6,252.5 179.6,252.5" fill="rgb(255,142,142)"/>
<polygon points="185.6,246.5 191.6,246.5 191.6,252.5 185.6,252.5" fill="rgb(255,173,173)"/>
<polygon points="191.6,246.5 197.6,246.5 197.6,252.5 191.6,252.5" fill="rgb(255,206,206)"/>
<polygon points="197.6,246.5 203.6,246.5 203.6,252.5 197.6,252.5" fill="rgb(254,208,208)"/>
<polygon points="203.6,246.5 209.6,246.5 209.6,252.5 203.6,252.5" fill="rgb(255,220,220)"/>
<polygon points="209.6,246.5 215.6,246.5 215.6,252.5 209.6,252.5" fill="rgb(255,222,222)"/>
<polygon points="131.6,252.5 137.6,252.5 137.6,258.5 131.6,258.5" fill="rgb(255,145,145)"/>
<polygon points="137.6,252.5 143.6,252.5 143.6,258.5 137.6,258.5" fill="rgb(255,149,149)"/>
<polygon points="143.6,252.5 149.6,252.5 149.6,258.5 143.6,258.5" fill="rgb(255,200,200)"/>
<polygon points="149.6,252.5 155.6,252.5 155.6,258.5 149.6,258.5" fill="rgb(255,225,225)"/>
<polygon points="155.6,252.5 161.6,252.5 161.6,258.5 155.6,258.5" fill="rgb(255,212,212)"/>
<polygon points="161.6,252.5 167.6,252.5 167.6,258.5 161.6,258.5" fill="rgb(255,159,159)"/>
<polygon points="167.6,252.5 173.6,252.5 173.6,258.5 167.6,258.5" fill="rgb(255,241,241)"/>
<polygon points="173.6,252.5 179.6,252.5 179.6,258.5 173.6,258.5" fill="rgb(255,203,203)"/>
<polygon points="179.6,252.5 185.6,252.5 185.6,258.5 179.6,258.5" fill="rgb(255,207,207)"/>
<polygon points="185.6,252.5 191.6,252.5 191.6,258.5 185.6,258.5" fill="rgb(255,235,235)"/>
<polygon points="191.6,252.5 197.6,252.5 197.6,258.5 191.6,258.5" fill="rgb(254,250,250)"/>
<polygon points="197.6,252.5 203.6,252.5 203.6,258.5 197.6,258.5" fill="rgb(255,248,248)"/>
<polygon points="203.6,252.5 209.6,252.5 209.6,258.5 203.6,258.5" fill="rgb(175,175,255)"/>
<polygon points="209.6,252.5 215.6,252.5 215.6,258.5 209.6,258.5" fill="rgb(221,221,255)"/>
<polygon points="131.6,258.5 137.6,258.5 137.6,264.5 131.6,264.5" fill="rgb(255,161,161)"/>
<polygon points="137.6,258.5 143.6,258.5 143.6,264.5 137.6,264.5" fill="rgb(255,159,159)"/>
<polygon points="143.6,258.5 149.6,258.5 149.6,264.5 143.6,264.5" fill="rgb(255,207,207)"/>
<polygon points="149.6,258.5 155.6,258.5 155.6,264.5 149.6,264.5" fill="rgb(255,206,206)"/>
<polygon points="155.6,258.5 161.6,258.5 161.6,264.5 155.6,264.5" fill="rgb(255,203,203)"/>
<polygon points="161.6,258.5 167.6,258.5 167.6,264.5 161.6,264.5" fill="rgb(255,140,140)"/>
<polygon points="167.6,258.5 173.6,258.5 173.6,264.5 167.6,264.5" fill="rgb(254,245,245)"/>
<polygon points="173.6,258.5 179.6,258.5 179.6,264.5 173.6,264.5" fill="rgb(255,217,217)"/>
<polygon points="179.6,258.5 185.6,258.5 185.6,264.5 179.6,264.5" fill="rgb(255,215,215)"/>
<polygon points="185.6,258.5 191.6,258.5 191.6,264.5 185.6,264.5" fill="rgb(255,230,230)"/>
<polygon points="191.6,258.5 197.6,258.5 197.6,264.5 191.6,264.5" fill="rgb(254,241,241)"/>
<polygon points="197.6,258.5 203.6,258.5 203.6,264.5 197.6,264.5" fill="rgb(255,247,247)"/>
<polygon points="203.6,258.5 209.6,258.5 209.6,264.5 203.6,264.5" fill="rgb(242,242,255)"/>
<polygon points="209.6,258.5 215.6,258.5 215.6,264.5 209.6,264.5" fill="rgb(255,248,248)"/>
<polygon points="131.6,264.5 137.6,264.5 137.6,270.5 131.6,270.5" fill="rgb(255,188,188)"/>
<polygon points="137.6,264.5 143.6,264.5 143.6,270.5 137.6,270.5" fill="rgb(255,185,185)"/>
<polygon points="143.6,264.5 149.6,264.5 149.6,270.5 143.6,270.5" fill="rgb(255,207,207)"/>
<polygon points="149.6,264.5 155.6,264.5 155.6,270.5 149.6,270.5" fill="rgb(255,222,222)"/>
<polygon points="155.6,264.5 161.6,264.5 161.6,270.5 155.6,270.5" fill="rgb(254,211,211)"/>
<polygon points="161.6,264.5 167.6,264.5 167.6,270.5 161.6,270.5" fill="rgb(255,126,126)"/>
<polygon points="167.6,264.5 173.6,264.5 173.6,270.5 167.6,270.5" fill="rgb(255,236,236)"/>
<polygon points="173.6,264.5 179.6,264.5 179.6,270.5 173.6,270.5" fill="rgb(255,197,197)"/>
<polygon points="179.6,264.5 185.6,264.5 185.6,270.5 179.6,270.5" fill="rgb(255,188,188)"/>
<polygon points="185.6,264.5 191.6,264.5 191.6,270.5 185.6,270.5" fill="rgb(255,224,224)"/>
<polygon points="191.6,264.5 197.6,264.5 197.6,270.5 191.6,270.5" fill="rgb(255,247,247)"/>
<polygon points="197.6,264.5 203.6,264.5 203.6,270.5 197.6,270.5" fill="rgb(255,248,248)"/>
<polygon points="203.6,264.5 209.6,264.5 209.6,270.5 203.6,270.5" fill="rgb(111,111,255)"/>
<polygon points="209.6,264.5 215.6,264.5 215.6,270.5 209.6,270.5" fill="rgb(118,118,254)"/>
<polygon points="131.6,270.5 137.6,270.5 137.6,276.5 131.6,276.5" fill="rgb(255,227,227)"/>
<polygon points="137.6,270.5 143.6,270.5 143.6,276.5 137.6,276.5" fill="rgb(254,230,230)"/>
<polygon points="143.6,270.5 149.6,270.5 149.6,276.5 143.6,276.5" fill="rgb(255,183,183)"/>
<polygon points="149.6,270.5 155.6,270.5 155.6,276.5 149.6,276.5" fill="rgb(255,204,204)"/>
<polygon points="155.6,270.5 161.6,270.5 161.6,276.5 155.6,276.5" fill="rgb(255,173,173)"/>
<polygon points="161.6,270.5 167.6,270.5 167.6,276.5 161.6,276.5" fill="rgb(255,58,58)"/>
<polygon points="167.6,270.5 173.6,270.5 173.6,276.5 167.6,276.5" fill="rgb(255,166,166)"/>
<polygon points="173.6,270.5 179.6,270.5 179.6,276.5 173.6,276.5" fill="rgb(255,118,118)"/>
<polygon points="179.6,270.5 185.6,270.5 185.6,276.5 179.6,276.5" fill="rgb(255,99,99)"/>
<polygon points="185.6,270.5 191.6,270.5 191.6,276.5 185.6,276.5" fill="rgb(255,194,194)"/>
<polygon points="191.6,270.5 197.6,270.5 197.6,276.5 191.6,276.5" fill="rgb(255,238,238)"/>
<polygon points="197.6,270.5 203.6,270.5 203.6,276.5 197.6,276.5" fill="rgb(255,226,226)"/>
<polygon points="203.6,270.5 209.6,270.5 209.6,276.5 203.6,276.5" fill="rgb(255,249,249)"/>
<polygon points="209.6,270.5 215.6,270.5 215.6,276.5 209.6,276.5" fill="rgb(255,244,244)"/>
<polygon points="131.6,276.5 137.6,276.5 137.6,282.5 131.6,282.5" fill="rgb(255,91,91)"/>
<polygon points="137.6,276.5 143.6,276.5 143.6,282.5 137.6,282.5" fill="rgb(255,109,109)"/>
<polygon points="143.6,276.5 149.6,276.5 149.6,282.5 143.6,282.5" fill="rgb(255,105,105)"/>
<polygon points="149.6,276.5 155.6,276.5 155.6,282.5 149.6,282.5" fill="rgb(255,135,135)"/>
<polygon points="155.6,276.5 161.6,276.5 161.6,282.5 155.6,282.5" fill="rgb(255,97,97)"/>
<polygon points="161.6,276.5 167.6,276.5 167.6,282.5 161.6,282.5" fill="rgb(255,17,17)"/>
<polygon points="167.6,276.5 173.6,276.5 173.6,282.5 167.6,282.5" fill="rgb(255,81,81)"/>
<polygon points="173.6,276.5 179.6,276.5 179.6,282.5 173.6,282.5" fill="rgb(255,23,23)"/>
<polygon points="179.6,276.5 185.6,276.5 185.6,282.5 179.6,282.5" fill="rgb(255,20,20)"/>
<polygon points="185.6,276.5 191.6,276.5 191.6,282.5 185.6,282.5" fill="rgb(255,101,101)"/>
<polygon points="191.6,276.5 197.6,276.5 197.6,282.5 191.6,282.5" fill="rgb(255,150,150)"/>
<polygon points="197.6,276.5 203.6,276.5 203.6,282.5 197.6,282.5" fill="rgb(255,121,121)"/>
<polygon points="203.6,276.5 209.6,276.5 209.6,282.5 203.6,282.5" fill="rgb(255,188,188)"/>
<polygon points="209.6,276.5 215.6,276.5 215.6,282.5 209.6,282.5" fill="rgb(255,197,197)"/>
<polygon points="131.6,282.5 137.6,282.5 137.6,288.5 131.6,288.5" fill="rgb(211,0,0)"/>
<polygon points="137.6,282.5 143.6,282.5 143.6,288.5 137.6,288.5" fill="rgb(218,0,0)"/>
<polygon points="143.6,282.5 149.6,282.5 149.6,288.5 143.6,288.5" fill="rgb(213,0,0)"/>
<polygon points="149.6,282.5 155.6,282.5 155.6,288.5 149.6,288.5" fill="rgb(246,0,0)"/>
<polygon points="155.6,282.5 161.6,282.5 161.6,288.5 155.6,288.5" fill="rgb(205,0,0)"/>
<polygon points="161.6,282.5 167.6,282.5 167.6,288.5 161.6,288.5" fill="rgb(233,0,0)"/>
<polygon points="167.6,282.5 173.6,282.5 173.6,288.5 167.6,288.5" fill="rgb(242,0,0)"/>
<polygon points="173.6,282.5 179.6,282.5 179.6,288.5 173.6,288.5" fill="rgb(225,0,0)"/>
<polygon points="179.6,282.5 185.6,282.5 185.6,288.5 179.6,288.5" fill="rgb(237,0,0)"/>
<polygon points="185.6,282.5 191.6,282.5 191.6,288.5 185.6,288.5" fill="rgb(255,27,27)"/>
<polygon points="191.6,282.5 197.6,282.5 197.6,288.5 191.6,288.5" fill="rgb(255,96,96)"/>
<polygon points="197.6,282.5 203.6,282.5 203.6,288.5 197.6,288.5" fill="rgb(255,35,35)"/>
<polygon points="203.6,282.5 209.6,282.5 209.6,288.5 203.6,288.5" fill="rgb(255,159,159)"/>
<polygon points="209.6,282.5 215.6,282.5 215.6,288.5 209.6,288.5" fill="rgb(255,192,192)"/>
<polygon points="131.6,288.5 137.6,288.5 137.6,294.5 131.6,294.5" fill="rgb(255,11,11)"/>
<polygon points="137.6,288.5 143.6,288.5 143.6,294.5 137.6,294.5" fill="rgb(255,34,34)"/>
<polygon points="143.6,288.5 149.6,288.5 149.6,294.5 143.6,294.5" fill="rgb(244,0,0)"/>
<polygon points="149.6,288.5 155.6,288.5 155.6,294.5 149.6,294.5" fill="rgb(227,0,0)"/>
<polygon points="155.6,288.5 161.6,288.5 161.6,294.5 155.6,294.5" fill="rgb(248,0,0)"/>
<polygon points="161.6,288.5 167.6,288.5 167.6,294.5 161.6,294.5" fill="rgb(251,0,0)"/>
<polygon points="167.6,288.5 173.6,288.5 173.6,294.5 167.6,294.5" fill="rgb(255,79,79)"/>
<polygon points="173.6,288.5 179.6,288.5 179.6,294.5 173.6,294.5" fill="rgb(255,4,4)"/>
<polygon points="179.6,288.5 185.6,288.5 185.6,294.5 179.6,294.5" fill="rgb(255,41,41)"/>
<polygon points="185.6,288.5 191.6,288.5 191.6,294.5 185.6,294.5" fill="rgb(249,0,0)"/>
<polygon points="191.6,288.5 197.6,288.5 197.6,294.5 191.6,294.5" fill="rgb(255,28,28)"/>
<polygon points="197.6,288.5 203.6,288.5 203.6,294.5 197.6,294.5" fill="rgb(255,104,104)"/>
<polygon points="203.6,288.5 209.6,288.5 209.6,294.5 203.6,294.5" fill="rgb(255,77,77)"/>
<polygon points="209.6,288.5 215.6,288.5 215.6,294.5 209.6,294.5" fill="rgb(255,106,106)"/>
<polygon points="131.6,294.5 137.6,294.5 137.6,300.5 131.6,300.5" fill="rgb(255,245,245)"/>
<polygon points="137.6,294.5 143.6,294.5 143.6,300.5 137.6,300.5" fill="rgb(255,247,247)"/>
<polygon points="143.6,294.5 149.6,294.5 149.6,300.5 143.6,300.5" fill="rgb(255,187,187)"/>
<polygon points="149.6,294.5 155.6,294.5 155.6,300.5 149.6,300.5" fill="rgb(255,190,190)"/>
<polygon points="155.6,294.5 161.6,294.5 161.6,300.5 155.6,300.5" fill="rgb(255,237,237)"/>
<polygon points="161.6,294.5 167.6,294.5 167.6,300.5 161.6,300.5" fill="rgb(255,243,243)"/>
<polygon points="167.6,294.5 173.6,294.5 173.6,300.5 167.6,300.5" fill="rgb(155,155,255)"/>
<polygon points="173.6,294.5 179.6,294.5 179.6,300.5 173.6,300.5" fill="rgb(255,239,239)"/>
<polygon points="179.6,294.5 185.6,294.5 185.6,300.5 179.6,300.5" fill="rgb(255,250,250)"/>
<polygon points="185.6,294.5 191.6,294.5 191.6,300.5 185.6,300.5" fill="rgb(255,251,251)"/>
<polygon points="191.6,294.5 197.6,294.5 197.6,300.5 191.6,300.5" fill="rgb(255,254,254)"/>
<polygon points="197.6,294.5 203.6,294.5 203.6,300.5 197.6,300.5" fill="rgb(129,129,255)"/>
<polygon points="203.6,294.5 209.6,294.5 209.6,300.5 203.6,300.5" fill="rgb(133,133,255)"/>
<polygon points="209.6,294.5 215.6,294.5 215.6,300.5 209.6,300.5" fill="rgb(255,250,250)"/>
<polygon points="131.6,54.5 215.6,54.5 215.6,300.5 131.6,300.5" fill="none" stroke="black" stroke-width="0.5"/>
<text xml:space="preserve" x="185.8" y="333.167" font-family="Arial" font-size="7" text-anchor="middle">Average Expression</text>
<polygon points="75.8,340.5 95.8,340.5 95.8,360.5 75.8,360.5" fill="rgb(0,0,255)"/><polygon points="75.8,340.5 95.8,340.5 95.8,360.5 75.8,360.5" fill="none" stroke="black" stroke-width="0.5"/><text xml:space="preserve" x="85.8" y="352.5" font-family="Arial" font-size="5" fill="rgb(255,255,255)" text-anchor="middle">0.0</text>
<polygon points="95.8,340.5 115.8,340.5 115.8,360.5 95.8,360.5" fill="rgb(255,211,211)"/><polygon points="95.8,340.5 115.8,340.5 115.8,360.5 95.8,360.5" fill="none" stroke="black" stroke-width="0.5"/><text xml:space="preserve" x="105.8" y="352.5" font-family="Arial" font-size="5" fill="rgb(0,0,0)" text-anchor="middle">0.6</text>
<polygon points="115.8,340.5 135.8,340.5 135.8,360.5 115.8,360.5" fill="rgb(255,158,158)"/><polygon points="115.8,340.5 135.8,340.5 135.8,360.5 115.8,360.5" fill="none" stroke="black" stroke-width="0.5"/><text xml:space="preserve" x="125.8" y="352.5" font-family="Arial" font-size="5" fill="rgb(0,0,0)" text-anchor="middle">1.2</text>
<polygon points="135.8,340.5 155.8,340.5 155.8,360.5 135.8,360.5" fill="rgb(255,105,105)"/><polygon points="135.8,340.5 155.8,340.5 155.8,360.5 135.8,360.5" fill="none" stroke="black" stroke-width="0.5"/><text xml:space="preserve" x="145.8" y="352.5" font-family="Arial" font-size="5" fill="rgb(0,0,0)" text-anchor="middle">1.8</text>
<polygon points="155.8,340.5 175.8,340.5 175.8,360.5 155.8,360.5" fill="rgb(255,52,52)"/><polygon points="155.8,340.5 175.8,340.5 175.8,360.5 155.8,360.5" fill="none" stroke="black" stroke-width="0.5"/><text xml:space="preserve" x="165.8" y="352.5" font-family="Arial" font-size="5" fill="rgb(255,255,255)" text-anchor="middle">2.4</text>
<polygon points="175.8,340.5 195.8,340.5 195.8,360.5 175.8,360.5" fill="rgb(255,0,0)"/><polygon points="175.8,340.5 195.8,340.5 195.8,360.5 175.8,360.5" fill="none" stroke="black" stroke-width="0.5"/><text xml:space="preserve" x="185.8" y="352.5" font-family="Arial" font-size="5" fill="rgb(255,255,255)" text-anchor="middle">3.0</text>
<polygon points="195.8,340.5 215.8,340.5 215.8,360.5 195.8,360.5" fill="rgb(231,0,0)"/><polygon points="195.8,340.5 215.8,340.5 215.8,360.5 195.8,360.5" fill="none" stroke="black" stroke-width="0.5"/><text xml:space="preserve" x="205.8" y="352.5" font-family="Arial" font-size="5" fill="rgb(255,255,255)" text-anchor="middle">3.6</text>
<polygon points="215.8,340.5 235.8,340.5 235.8,360.5 215.8,360.5" fill="rgb(208,0,0)"/><polygon points="215.8,340.5 235.8,340.5 235.8,360.5 215.8,360.5" fill="none" stroke="black" stroke-width="0.5"/><text xml:space="preserve" x="225.8" y="352.5" font-family="Arial" font-size="5" fill="rgb(255,255,255)" text-anchor="middle">4.2</text>
<polygon points="235.8,340.5 255.8,340.5 255.8,360.5 235.8,360.5" fill="rgb(185,0,0)"/><polygon points="235.8,340.5 255.8,340.5 255.8,360.5 235.8,360.5" fill="none" stroke="black" stroke-width="0.5"/><text xml:space="preserve" x="245.8" y="352.5" font-family="Arial" font-size="5" fill="rgb(255,255,255)" text-anchor="middle">4.8</text>
<polygon points="255.8,340.5 275.8,340.5 275.8,360.5 255.8,360.5" fill="rgb(162,0,0)"/><polygon points="255.8,340.5 275.8,340.5 275.8,360.5 255.8,360.5" fill="none" stroke="black" stroke-width="0.5"/><text xml:space="preserve" x="265.8" y="352.5" font-family="Arial" font-size="5" fill="rgb(255,255,255)" text-anchor="middle">5.4</text>
<polygon points="275.8,340.5 295.8,340.5 295.8,360.5 275.8,360.5" fill="rgb(139,0,0)"/><polygon points="275.8,340.5 295.8,340.5 295.8,360.5 275.8,360.5" fill="none" stroke="black" stroke-width="0.5"/><text xml:space="preserve" x="285.8" y="352.5" font-family="Arial" font-size="5" fill="rgb(255,255,255)" text-anchor="middle">6.0</text>
</svg>
