<?xml version="1.0" standalone="no"?><!DOCTYPE svg PUBLIC "-//W3C//DTD SVG 1.1//EN" "http://www.w3.org/Graphics/SVG/1.1/DTD/svg11.dtd">
<svg width="428.6" height="341.5" version="1.1" xmlns="http://www.w3.org/2000/svg">
<text xml:space="preserve" x="184.6" y="220.5" font-family="Calibri" font-size="8" text-anchor="end">KD_rnaseq</text>
<text xml:space="preserve" x="184.6" y="228.5" font-family="Calibri" font-size="8" text-anchor="end">chip_rnaseq</text>
<text xml:space="preserve" x="184.6" y="236.5" font-family="Calibri" font-size="8" text-anchor="end">chip_KD_rnaseq</text>
<text xml:space="preserve" x="184.6" y="244.5" font-family="Calibri" font-size="8" text-anchor="end">KD_array</text>
<text xml:space="preserve" x="184.6" y="252.5" font-family="Calibri" font-size="8" text-anchor="end">chip_array</text>
<text xml:space="preserve" x="184.6" y="260.5" font-family="Calibri" font-size="8" text-anchor="end">chip_KD_array</text>
<text xml:space="preserve" x="201.6" y="209.5" font-family="Calibri" font-size="8" transform="rotate(270 201.6 209.5)">Unreg_TFA</text>
<text xml:space="preserve" x="221.6" y="209.5" font-family="Calibri" font-size="8" transform="rotate(270 221.6 209.5)">TFA_0005</text>
<text xml:space="preserve" x="241.6" y="209.5" font-family="Calibri" font-size="8" transform="rotate(270 241.6 209.5)">TFA_0020</text>
<text xml:space="preserve" x="261.6" y="209.5" font-family="Calibri" font-size="8" transform="rotate(270 261.6 209.5)">TFA_0100</text>
<text xml:space="preserve" x="291.6" y="209.5" font-family="Calibri" font-size="8" transform="rotate(270 291.6 209.5)">Unreg_TFA_fscore</text>
<text xml:space="preserve" x="311.6" y="209.5" font-family="Calibri" font-size="8" transform="rotate(270 311.6 209.5)">TFA_0005_fscore</text>
<text xml:space="preserve" x="331.6" y="209.5" font-family="Calibri" font-size="8" transform="rotate(270 331.6 209.5)">TFA_0020_fscore</text>
<text xml:space="preserve" x="351.6" y="209.5" font-family="Calibri" font-size="8" transform="rotate(270 351.6 209.5)">TFA_0100_fscore</text>
<polygon points="188.6,213.5 208.6,213.5 208.6,221.5 188.6,221.5" fill="rgb(0,255,212)"/><text xml:space="preserve" x="198.6" y="220.333" font-family="Calibri" font-size="7.5" fill="rgb(0,0,0)" text-anchor="middle">0.127</text>
<polygon points="208.6,213.5 228.6,213.5 228.6,221.5 208.6,221.5" fill="rgb(0,255,253)"/><text xml:space="preserve" x="218.6" y="220.333" font-family="Calibri" font-size="7.5" fill="rgb(0,0,0)" text-anchor="middle">0.120</text>
<polygon points="228.6,213.5 248.6,213.5 248.6,221.5 228.6,221.5" fill="rgb(0,255,236)"/><text xml:space="preserve" x="238.6" y="220.333" font-family="Calibri" font-size="7.5" fill="rgb(0,0,0)" text-anchor="middle">0.123</text>
<polygon points="248.6,213.5 268.6,213.5 268.6,221.5 248.6,221.5" fill="rgb(0,255,205)"/><text xml:space="preserve" x="258.6" y="220.333" font-family="Calibri" font-size="7.5" fill="rgb(0,0,0)" text-anchor="middle">0.128</text>
<polygon points="278.6,213.5 298.6,213.5 298.6,221.5 278.6,221.5" fill="rgb(91,0,147)"/><text xml:space="preserve" x="288.6" y="220.333" font-family="Calibri" font-size="7.5" fill="rgb(255,255,255)" text-anchor="middle">0.031</text>
<polygon points="298.6,213.5 318.6,213.5 318.6,221.5 298.6,221.5" fill="rgb(90,0,146)"/><text xml:space="preserve" x="308.6" y="220.333" font-family="Calibri" font-size="7.5" fill="rgb(255,255,255)" text-anchor="middle">0.032</text>
<polygon points="318.6,213.5 338.6,213.5 338.6,221.5 318.6,221.5" fill="rgb(93,0,150)"/><text xml:space="preserve" x="328.6" y="220.333" font-family="Calibri" font-size="7.5" fill="rgb(255,255,255)" text-anchor="middle">0.030</text>
<polygon points="338.6,213.5 358.6,213.5 358.6,221.5 338.6,221.5" fill="rgb(95,0,152)"/><text xml:space="preserve" x="348.6" y="220.333" font-family="Calibri" font-size="7.5" fill="rgb(255,255,255)" text-anchor="middle">0.029</text>
<polygon points="188.6,221.5 208.6,221.5 208.6,229.5 188.6,229.5" fill="rgb(255,114,0)"/><text xml:space="preserve" x="198.6" y="228.333" font-family="Calibri" font-size="7.5" fill="rgb(0,0,0)" text-anchor="middle">0.244</text>
<polygon points="208.6,221.5 228.6,221.5 228.6,229.5 208.6,229.5" fill="rgb(255,137,0)"/><text xml:space="preserve" x="218.6" y="228.333" font-family="Calibri" font-size="7.5" fill="rgb(0,0,0)" text-anchor="middle">0.237</text>
<polygon points="228.6,221.5 248.6,221.5 248.6,229.5 228.6,229.5" fill="rgb(255,172,0)"/><text xml:space="preserve" x="238.6" y="228.333" font-family="Calibri" font-size="7.5" fill="rgb(0,0,0)" text-anchor="middle">0.226</text>
<polygon points="248.6,221.5 268.6,221.5 268.6,229.5 248.6,229.5" fill="rgb(255,62,0)"/><text xml:space="preserve" x="258.6" y="228.333" font-family="Calibri" font-size="7.5" fill="rgb(255,255,255)" text-anchor="middle">0.260</text>
<polygon points="278.6,221.5 298.6,221.5 298.6,229.5 278.6,229.5" fill="rgb(86,0,142)"/><text xml:space="preserve" x="288.6" y="228.333" font-family="Calibri" font-size="7.5" fill="rgb(255,255,255)" text-anchor="middle">0.034</text>
<polygon points="298.6,221.5 318.6,221.5 318.6,229.5 298.6,229.5" fill="rgb(79,0,134)"/><text xml:space="preserve" x="308.6" y="228.333" font-family="Calibri" font-size="7.5" fill="rgb(255,255,255)" text-anchor="middle">0.038</text>
<polygon points="318.6,221.5 338.6,221.5 338.6,229.5 318.6,229.5" fill="rgb(89,0,145)"/><text xml:space="preserve" x="328.6" y="228.333" font-family="Calibri" font-size="7.5" fill="rgb(255,255,255)" text-anchor="middle">0.032</text>
<polygon points="338.6,221.5 358.6,221.5 358.6,229.5 338.6,229.5" fill="rgb(82,0,138)"/><text xml:space="preserve" x="348.6" y="228.333" font-family="Calibri" font-size="7.5" fill="rgb(255,255,255)" text-anchor="middle">0.036</text>
<polygon points="188.6,229.5 208.6,229.5 208.6,237.5 188.6,237.5" fill="rgb(0,255,4)"/><text xml:space="preserve" x="198.6" y="236.333" font-family="Calibri" font-size="7.5" fill="rgb(0,0,0)" text-anchor="middle">0.159</text>
<polygon points="208.6,229.5 228.6,229.5 228.6,237.5 208.6,237.5" fill="rgb(26,255,0)"/><text xml:space="preserve" x="218.6" y="236.333" font-family="Calibri" font-size="7.5" fill="rgb(0,0,0)" text-anchor="middle">0.164</text>
<polygon points="228.6,229.5 248.6,229.5 248.6,237.5 228.6,237.5" fill="rgb(27,255,0)"/><text xml:space="preserve" x="238.6" y="236.333" font-family="Calibri" font-size="7.5" fill="rgb(0,0,0)" text-anchor="middle">0.164</text>
<polygon points="248.6,229.5 268.6,229.5 268.6,237.5 248.6,237.5" fill="rgb(108,255,0)"/><text xml:space="preserve" x="258.6" y="236.333" font-family="Calibri" font-size="7.5" fill="rgb(0,0,0)" text-anchor="middle">0.177</text>
<polygon points="278.6,229.5 298.6,229.5 298.6,237.5 278.6,237.5" fill="rgb(29,0,206)"/><text xml:space="preserve" x="288.6" y="236.333" font-family="Calibri" font-size="7.5" fill="rgb(255,255,255)" text-anchor="middle">0.064</text>
<polygon points="298.6,229.5 318.6,229.5 318.6,237.5 298.6,237.5" fill="rgb(0,7,255)"/><text xml:space="preserve" x="308.6" y="236.333" font-family="Calibri" font-size="7.5" fill="rgb(255,255,255)" text-anchor="middle">0.081</text>
<polygon points="318.6,229.5 338.6,229.5 338.6,237.5 318.6,237.5" fill="rgb(4,0,247)"/><text xml:space="preserve" x="328.6" y="236.333" font-family="Calibri" font-size="7.5" fill="rgb(255,255,255)" text-anchor="middle">0.078</text>
<polygon points="338.6,229.5 358.6,229.5 358.6,237.5 338.6,237.5" fill="rgb(10,0,237)"/><text xml:space="preserve" x="348.6" y="236.333" font-family="Calibri" font-size="7.5" fill="rgb(255,255,255)" text-anchor="middle">0.074</text>
<polygon points="188.6,237.5 208.6,237.5 208.6,245.5 188.6,245.5" fill="rgb(0,255,133)"/><text xml:space="preserve" x="198.6" y="244.333" font-family="Calibri" font-size="7.5" fill="rgb(0,0,0)" text-anchor="middle">0.139</text>
<polygon points="208.6,237.5 228.6,237.5 228.6,245.5 208.6,245.5" fill="rgb(0,255,187)"/><text xml:space="preserve" x="218.6" y="244.333" font-family="Calibri" font-size="7.5" fill="rgb(0,0,0)" text-anchor="middle">0.131</text>
<polygon points="228.6,237.5 248.6,237.5 248.6,245.5 228.6,245.5" fill="rgb(0,255,169)"/><text xml:space="preserve" x="238.6" y="244.333" font-family="Calibri" font-size="7.5" fill="rgb(0,0,0)" text-anchor="middle">0.133</text>
<polygon points="248.6,237.5 268.6,237.5 268.6,245.5 248.6,245.5" fill="rgb(0,255,116)"/><text xml:space="preserve" x="258.6" y="244.333" font-family="Calibri" font-size="7.5" fill="rgb(0,0,0)" text-anchor="middle">0.142</text>
<polygon points="278.6,237.5 298.6,237.5 298.6,245.5 278.6,245.5" fill="rgb(100,0,158)"/><text xml:space="preserve" x="288.6" y="244.333" font-family="Calibri" font-size="7.5" fill="rgb(255,255,255)" text-anchor="middle">0.026</text>
<polygon points="298.6,237.5 318.6,237.5 318.6,245.5 298.6,245.5" fill="rgb(96,0,153)"/><text xml:space="preserve" x="308.6" y="244.333" font-family="Calibri" font-size="7.5" fill="rgb(255,255,255)" text-anchor="middle">0.028</text>
<polygon points="318.6,237.5 338.6,237.5 338.6,245.5 318.6,245.5" fill="rgb(99,0,157)"/><text xml:space="preserve" x="328.6" y="244.333" font-family="Calibri" font-size="7.5" fill="rgb(255,255,255)" text-anchor="middle">0.027</text>
<polygon points="338.6,237.5 358.6,237.5 358.6,245.5 338.6,245.5" fill="rgb(98,0,156)"/><text xml:space="preserve" x="348.6" y="244.333" font-family="Calibri" font-size="7.5" fill="rgb(255,255,255)" text-anchor="middle">0.027</text>
<polygon points="188.6,245.5 208.6,245.5 208.6,253.5 188.6,253.5" fill="rgb(255,88,0)"/><text xml:space="preserve" x="198.6" y="252.333" font-family="Calibri" font-size="7.5" fill="rgb(0,0,0)" text-anchor="middle">0.252</text>
<polygon points="208.6,245.5 228.6,245.5 228.6,253.5 208.6,253.5" fill="rgb(255,112,0)"/><text xml:space="preserve" x="218.6" y="252.333" font-family="Calibri" font-size="7.5" fill="rgb(0,0,0)" text-anchor="middle">0.244</text>
<polygon points="228.6,245.5 248.6,245.5 248.6,253.5 228.6,253.5" fill="rgb(255,150,0)"/><text xml:space="preserve" x="238.6" y="252.333" font-family="Calibri" font-size="7.5" fill="rgb(0,0,0)" text-anchor="middle">0.233</text>
<polygon points="248.6,245.5 268.6,245.5 268.6,253.5 248.6,253.5" fill="rgb(255,45,0)"/><text xml:space="preserve" x="258.6" y="252.333" font-family="Calibri" font-size="7.5" fill="rgb(255,255,255)" text-anchor="middle">0.266</text>
<polygon points="278.6,245.5 298.6,245.5 298.6,253.5 278.6,253.5" fill="rgb(89,0,145)"/><text xml:space="preserve" x="288.6" y="252.333" font-family="Calibri" font-size="7.5" fill="rgb(255,255,255)" text-anchor="middle">0.032</text>
<polygon points="298.6,245.5 318.6,245.5 318.6,253.5 298.6,253.5" fill="rgb(82,0,137)"/><text xml:space="preserve" x="308.6" y="252.333" font-family="Calibri" font-size="7.5" fill="rgb(255,255,255)" text-anchor="middle">0.036</text>
<polygon points="318.6,245.5 338.6,245.5 338.6,253.5 318.6,253.5" fill="rgb(91,0,147)"/><text xml:space="preserve" x="328.6" y="252.333" font-family="Calibri" font-size="7.5" fill="rgb(255,255,255)" text-anchor="middle">0.031</text>
<polygon points="338.6,245.5 358.6,245.5 358.6,253.5 338.6,253.5" fill="rgb(79,0,135)"/><text xml:space="preserve" x="348.6" y="252.333" font-family="Calibri" font-size="7.5" fill="rgb(255,255,255)" text-anchor="middle">0.037</text>
<polygon points="188.6,253.5 208.6,253.5 208.6,261.5 188.6,261.5" fill="rgb(15,255,0)"/><text xml:space="preserve" x="198.6" y="260.333" font-family="Calibri" font-size="7.5" fill="rgb(0,0,0)" text-anchor="middle">0.162</text>
<polygon points="208.6,253.5 228.6,253.5 228.6,261.5 208.6,261.5" fill="rgb(45,255,0)"/><text xml:space="preserve" x="218.6" y="260.333" font-family="Calibri" font-size="7.5" fill="rgb(0,0,0)" text-anchor="middle">0.167</text>
<polygon points="228.6,253.5 248.6,253.5 248.6,261.5 228.6,261.5" fill="rgb(22,255,0)"/><text xml:space="preserve" x="238.6" y="260.333" font-family="Calibri" font-size="7.5" fill="rgb(0,0,0)" text-anchor="middle">0.163</text>
<polygon points="248.6,253.5 268.6,253.5 268.6,261.5 248.6,261.5" fill="rgb(103,255,0)"/><text xml:space="preserve" x="258.6" y="260.333" font-family="Calibri" font-size="7.5" fill="rgb(0,0,0)" text-anchor="middle">0.176</text>
<polygon points="278.6,253.5 298.6,253.5 298.6,261.5 278.6,261.5" fill="rgb(40,0,187)"/><text xml:space="preserve" x="288.6" y="260.333" font-family="Calibri" font-size="7.5" fill="rgb(255,255,255)" text-anchor="middle">0.058</text>
<polygon points="298.6,253.5 318.6,253.5 318.6,261.5 298.6,261.5" fill="rgb(7,0,242)"/><text xml:space="preserve" x="308.6" y="260.333" font-family="Calibri" font-size="7.5" fill="rgb(255,255,255)" text-anchor="middle">0.076</text>
<polygon points="318.6,253.5 338.6,253.5 338.6,261.5 318.6,261.5" fill="rgb(16,0,227)"/><text xml:space="preserve" x="328.6" y="260.333" font-family="Calibri" font-size="7.5" fill="rgb(255,255,255)" text-anchor="middle">0.071</text>
<polygon points="338.6,253.5 358.6,253.5 358.6,261.5 338.6,261.5" fill="rgb(21,0,219)"/><text xml:space="preserve" x="348.6" y="260.333" font-family="Calibri" font-size="7.5" fill="rgb(255,255,255)" text-anchor="middle">0.069</text>
<polygon points="188.6,213.5 268.6,213.5 268.6,261.5 188.6,261.5" fill="none" stroke="black" stroke-width="1"/>
<polygon points="278.6,213.5 358.6,213.5 358.6,261.5 278.6,261.5" fill="none" stroke="black" stroke-width="1"/>
<text xml:space="preserve" x="214.3" y="294.5" font-family="Calibri" font-size="8" text-anchor="middle">Value</text>
<polygon points="104.3,301.5 124.3,301.5 124.3,321.5 104.3,321.5" fill="rgb(148,0,211)"/><polygon points="104.3,301.5 124.3,301.5 124.3,321.5 104.3,321.5" fill="none" stroke="black" stroke-width="1"/><text xml:space="preserve" x="114.3" y="314.333" font-family="Calibri" font-size="7.5" fill="rgb(255,255,255)" text-anchor="middle">0.0</text>
<polygon points="124.3,301.5 144.3,301.5 144.3,321.5 124.3,321.5" fill="rgb(96,0,154)"/><polygon points="124.3,301.5 144.3,301.5 144.3,321.5 124.3,321.5" fill="none" stroke="black" stroke-width="1"/><text xml:space="preserve" x="134.3" y="314.333" font-family="Calibri" font-size="7.5" fill="rgb(255,255,255)" text-anchor="middle">0.0</text>
<polygon points="144.3,301.5 164.3,301.5 164.3,321.5 144.3,321.5" fill="rgb(45,0,180)"/><polygon points="144.3,301.5 164.3,301.5 164.3,321.5 144.3,321.5" fill="none" stroke="black" stroke-width="1"/><text xml:space="preserve" x="154.3" y="314.333" font-family="Calibri" font-size="7.5" fill="rgb(255,255,255)" text-anchor="middle">0.1</text>
<polygon points="164.3,301.5 184.3,301.5 184.3,321.5 164.3,321.5" fill="rgb(0,25,255)"/><polygon points="164.3,301.5 184.3,301.5 184.3,321.5 164.3,321.5" fill="none" stroke="black" stroke-width="1"/><text xml:space="preserve" x="174.3" y="314.333" font-family="Calibri" font-size="7.5" fill="rgb(255,255,255)" text-anchor="middle">0.1</text>
<polygon points="184.3,301.5 204.3,301.5 204.3,321.5 184.3,321.5" fill="rgb(0,204,255)"/><polygon points="184.3,301.5 204.3,301.5 204.3,321.5 184.3,321.5" fill="none" stroke="black" stroke-width="1"/><text xml:space="preserve" x="194.3" y="314.333" font-family="Calibri" font-size="7.5" fill="rgb(0,0,0)" text-anchor="middle">0.1</text>
<polygon points="204.3,301.5 224.3,301.5 224.3,321.5 204.3,321.5" fill="rgb(0,255,127)"/><polygon points="204.3,301.5 224.3,301.5 224.3,321.5 204.3,321.5" fill="none" stroke="black" stroke-width="1"/><text xml:space="preserve" x="214.3" y="314.333" font-family="Calibri" font-size="7.5" fill="rgb(0,0,0)" text-anchor="middle">0.1</text>
<polygon points="224.3,301.5 244.3,301.5 244.3,321.5 224.3,321.5" fill="rgb(51,254,0)"/><polygon points="224.3,301.5 244.3,301.5 244.3,321.5 224.3,321.5" fill="none" stroke="black" stroke-width="1"/><text xml:space="preserve" x="234.3" y="314.333" font-family="Calibri" font-size="7.5" fill="rgb(0,0,0)" text-anchor="middle">0.2</text>
<polygon points="244.3,301.5 264.3,301.5 264.3,321.5 244.3,321.5" fill="rgb(229,255,0)"/><polygon points="244.3,301.5 264.3,301.5 264.3,321.5 244.3,321.5" fill="none" stroke="black" stroke-width="1"/><text xml:space="preserve" x="254.3" y="314.333" font-family="Calibri" font-size="7.5" fill="rgb(0,0,0)" text-anchor="middle">0.2</text>
<polygon points="264.3,301.5 284.3,301.5 284.3,321.5 264.3,321.5" fill="rgb(255,178,0)"/><polygon points="264.3,301.5 284.3,301.5 284.3,321.5 264.3,321.5" fill="none" stroke="black" stroke-width="1"/><text xml:space="preserve" x="274.3" y="314.333" font-family="Calibri" font-size="7.5" fill="rgb(0,0,0)" text-anchor="middle">0.2</text>
<polygon points="284.3,301.5 304.3,301.5 304.3,321.5 284.3,321.5" fill="rgb(255,88,0)"/><polygon points="284.3,301.5 304.3,301.5 304.3,321.5 284.3,321.5" fill="none" stroke="black" stroke-width="1"/><text xml:space="preserve" x="294.3" y="314.333" font-family="Calibri" font-size="7.5" fill="rgb(0,0,0)" text-anchor="middle">0.3</text>
<polygon points="304.3,301.5 324.3,301.5 324.3,321.5 304.3,321.5" fill="rgb(255,0,0)"/><polygon points="304.3,301.5 324.3,301.5 324.3,321.5 304.3,321.5" fill="none" stroke="black" stroke-width="1"/><text xml:space="preserve" x="314.3" y="314.333" font-family="Calibri" font-size="7.5" fill="rgb(255,255,255)" text-anchor="middle">0.3</text>
</svg>
